<?xml version="1.0" encoding="UTF-8"?>
<svg id="Layer_2" data-name="Layer 2" xmlns="http://www.w3.org/2000/svg" viewBox="0 0 113.05 161.04">
  <defs>
    <style>
      .cls-1 {
        fill: #fff;
      }
    </style>
  </defs>
  <g id="Layer_1-2" data-name="Layer 1">
    <g>
      <path class="cls-1" d="M66.63,78.52l-.59,1.06,1.65-.3c.22-.04.3.38.21.54-.63.28-1.16.65-1.75,1.27.72-.09,1.04-.4,1.62-.39l.46-.21c.11-.05.38.25.49.44-.18.34-.57.54-1.1.8.07.26.82.43.95.23.25-.4.39-.72.87-.8l-1.07-1.99c-.18-.34-.27-.69-.18-1.09.11-.49.62-.53,1.1-.69.33-.11.57-.64,1.14-.53-.69-.85-.73-1.93-1.4-1.8-.28.05-.17.54-.2.7-.28,1.24-1.33,1.97-2.22,2.76Z"/>
      <path class="cls-1" d="M64.67,77.57c.87-.48,1.68-1.21,1.92-2.18-.55.34-.97,1.17-1.57,1.13-1.07-.07-2.12-.71-3.15-.35,1.49,1.44,3,.28,2.8,1.39Z"/>
      <path class="cls-1" d="M60.8,95.74c.24-.18-.16-1.05-.5-.98-.39.09-.52.35-.62.47-.2.23,0,.47.14.55.2.12.59.25.98-.05Z"/>
      <path class="cls-1" d="M63.65,71.69l-.33.39c-.22.27-.64.42-.77.84.51.08,1.05-.29,1.21-.75.04-.11,0-.19.12-.29.17-.14-.1-.36-.23-.2Z"/>
      <path class="cls-1" d="M70.92,76.46c.36-.24.88-.57,1.4.03l1.49-1.39c-.87-.9-3.1.32-3.14.47-.07.26-.03.64.24.89Z"/>
      <path class="cls-1" d="M70.39,79.61c.11.39.88.38,1.19.03.22-.25.44-.76.15-1.22-.31-.15-.85-.1-1.35.13.42.39-.06.82,0,1.06Z"/>
      <path class="cls-1" d="M70.45,55.11c-.68-.48-1.45.39-2.46,1.21.77.4,1.18-.33,1.66-.64.29-.19.82-.03.9-.2.08-.17,0-.3-.1-.37Z"/>
      <path class="cls-1" d="M78.42,39.75c-.43-.37-.12-1.16-.19-1.69-.78.46-1.18,1.08-1.63,1.79.53.82,1.21,1.31,1.59,2.28-.17.64-.67,1.13-.63,1.97,1.23-.93,2.26-1.94,3.24-3.28-.82-.4-1.75-.54-2.39-1.08Z"/>
      <path class="cls-1" d="M61.84,88.08c1.23-.7,1.5-2.94,2.02-2.97.51-.03,1.04,1.12,1.98,1.16.99-.94,1.76-2.15,1.95-3.59-1.19.98-2.56,2.69-2.53,1.77.04-1.03.97-1.56,1.49-2.47-1.55.38-2.31,1.94-3.6,2.78-1.1.71-1.53,1.91-1.31,3.32Z"/>
      <path class="cls-1" d="M72.63,51.81c.6-.4.16-.86-.12-1.04-.29-.19-.76-.12-.75.21.01.38.63.99.87.83Z"/>
      <path class="cls-1" d="M84.23,45.49c.38-.37-.35-1.03-.62-1-.41.31.3,1.31.62,1Z"/>
      <path class="cls-1" d="M59.6,89.24c0,.43.32.58.69.7-.69.12-1.13.45-1.24.87,1.89,1.15,2.38-1.16,4.26-1.22-.21-.76-1.89.03-3.72-.35Z"/>
      <path class="cls-1" d="M60.38,86.42c.67-.42.93-1.22.51-1.97l-2.58,2.66c.78,0,1.46-.3,2.07-.68Z"/>
      <path class="cls-1" d="M71.83,86.63l-1.82.28c-.56.09-1.04,0-1.35.43-.27.36-.69.92-.02,1.38l3.19-2.08Z"/>
      <path class="cls-1" d="M62.41,98.09c-.25.39-.97.71-1.15,1.37-.06.23.39.87.61.65,1.97-1.98,3.41-3.24,4.51-6.24-1.92,1.03-2.9,2.57-3.96,4.21Z"/>
      <path class="cls-1" d="M68.01,86.16c-.73-.25-.87,0-1.18.17-.18.09-.14.59.3.56.29-.02.67-.56.88-.73Z"/>
      <path class="cls-1" d="M64.43,100.14l1.03-.95,2.66-3.57c.14-.19-.51-.52-.72-.44-.24.1-.27.26-.49.47l-1.68,1.61c-.43.41-.76.84-.82,1.54l-1.04.61c-.52,1.6-1.73,2.81-2.99,3.92.43,1.81,3.06-2.29,4.06-3.21Z"/>
      <path class="cls-1" d="M76.89,86.36c.01-.07,0-.21.07-.31-.05-.03-.17,0-.25,0-.12.29-.4.4-.11.44.18.02.28-.06.29-.13Z"/>
      <path class="cls-1" d="M62.48,90.96c-.06.11-.01.24.14.26.08.01.29-.07.39-.1.62.26,1.65.69,2.27.27l1.3-.88c.32-.21-.42-1.16-.91-.94l-2.75,1.22c-.09.04-.34-.06-.45.17Z"/>
      <path class="cls-1" d="M67.32,91.36l-1.6.41c1.03.36,1.89.81,3.05.82l-1.46-1.23Z"/>
      <path class="cls-1" d="M66.24,88.23c-.03.06-.17.18-.18.4-.01.39.55.54.8.75l.03.33c.02.16.38.19.42-.1.09-.62-.36-1.09-.86-1.04l.03-.32c.01-.13-.19-.12-.24-.02Z"/>
      <path class="cls-1" d="M64.85,86.46c-.74-.25-1.27,1.52-1.2,1.79.07.27.35.63.78.65l.42-2.44Z"/>
      <path class="cls-1" d="M74.98,34.85l1.65-1.36c-.96-.25-1.69.06-2.1.73-.12.2.32.75.45.64Z"/>
      <path class="cls-1" d="M77.72,18.17c.18-.42-.35-.59-.61-.3-.15.17-.34.33-.5.84.28.09.87.01,1.11-.54Z"/>
      <path class="cls-1" d="M75.6,89.62c-.05-.56-.64-.59-.93-.67-.3-.08-.85.05-.98.48l.46.31c.17.11-1.03,2.02-.22,2.5.77.45,1.78-1.29,1.67-2.61Z"/>
      <path class="cls-1" d="M76.35,92.82c.25-.59.49-1.26.36-2.1-.52.56-1.21.99-1.5,1.59-.24.5.97.91,1.14.52Z"/>
      <path class="cls-1" d="M71.44,80.78c-.81.42-1.54.78-1.82,1.79-.33,1.21-1.63,1.68-1.96,2.68l3.49-.96c-.26-.42-.54-.33-.91-.49l1.69-2.51,1.03-1.3-1.53.79Z"/>
      <path class="cls-1" d="M73.08,90.47c.31-.12.59-.4.68-.66.03-.08-.04-.23-.17-.22-.16-.4-.61-.19-.45.14-.21.09-.22.21-.18.31-.1.1-.09.34.11.42Z"/>
      <path class="cls-1" d="M84.18,92.16c.06-.07.18-.21.25-.25-.02-.19-.2-.3-.36-.23-.09.04-.15.19-.11.3.03.07.09.14.22.18Z"/>
      <path class="cls-1" d="M44.21,14.75c.04.17.28.28.3.23l.14-.31c.49-.34.89-.81,1.18-1.33l.36-.18c.11-.05.03-.39-.26-.33-.11-.33-.08-.64-.08-1.14-.41.17-.43.45-.47.81-.81.68-1.12,1.15-.43,1.32-.11.37-.49.59-.74.92Z"/>
      <path class="cls-1" d="M44.28,6.64c-.05.2.41.27.6.21.79-.24.4-1.58.94-1.81,1.02-.44,1.52-1.36,1.64-2.41-1.2.4-1.38,1.52-2.09,2.06-.64.49-.87,1.13-1.09,1.94Z"/>
      <path class="cls-1" d="M44.62,3.66c.36-.21.53-.46.58-.6.03-.1-.06-.37-.18-.58-.25-.41-.78-.02-1.03.39-.21.34.29,1,.63.79Z"/>
      <path class="cls-1" d="M48.65,9.81c.55-.1-.2-1.53.79-1.69.38-.06.61-.97.18-1.3l-.61,1.08c-.51.39-.8.92-.86,1.51-.03.28.33.42.49.39Z"/>
      <path class="cls-1" d="M58.63,9.55c.1-.03.82-.78,1.13-1.39-.67.12-1.42.5-1.76,1.11,0,.2.46.32.63.27Z"/>
      <path class="cls-1" d="M51.5,5.09l1.23-1.26c-.47-1,.1-1.56.58-2.37-.94.72-1.67,1.67-2.16,2.68l-.73,1.51c.62.08.83-.32,1.08-.57Z"/>
      <path class="cls-1" d="M60.43,6.84c-.03-.23-.55-.14-.59.22-.02.17-.29.35-.17.72.25-.23.54-.33.76-.94Z"/>
      <path class="cls-1" d="M44.39,7.89c-.67.47-1.12.99-1.54,1.75,1.02.04,1.84-.73,1.54-1.75Z"/>
      <path class="cls-1" d="M21.05,4l.78-.99c-.12-.33-.29-.46-.42-.45-.08,0-.26.11-.31.26l-.51,1.65c-.18.57-.94,1.12-.57,1.9.76-.53,1.21-1.45,1.02-2.37Z"/>
      <path class="cls-1" d="M43.34,5.01c-.58.49-1.12,1.13-.99,1.98.86-.37,1.01-1.21.99-1.98Z"/>
      <path class="cls-1" d="M13.96,13.62l1.22-2.38c1.1-.81,1.53-2.06,2.27-3.01,1.56-.61,2.26-2.24,2.33-3.65-1.5.68-1.91,2.69-2.33,2.37l-.34-.25-3.92,5.67-2.35,4.16c1.9-1,1.05-3.82,3.11-2.91Z"/>
      <path class="cls-1" d="M74.62,22.66c-.19.37,1.05.27,2.21-1.65.18-.31-.33-.74-.58-.84-.29-.12-.78.03-1.12.26.45.78-.03,1.26-.35,1.9l-.17.34Z"/>
      <path class="cls-1" d="M38.26,5.63c-.66.64-1.01,1.33-1.2,2.14,1.09-.23,1.54-1.27,1.2-2.14Z"/>
      <path class="cls-1" d="M35.51,9.12l.4-1.14c.18-.52.1-1.28.53-1.67.4-.35.73-.55.87-1.13-1.26.54-1.57,1.53-1.84,2.83-.06.29-.68.73.04,1.1Z"/>
      <path class="cls-1" d="M36.12.77c.15-.17.24-.3.25-.45,0-.1-.07-.45-.33-.26l-1.42,1.04c-1.34.53-2.44,1.21-3.42,2.29,1.3-.04,2.24-.66,3.41-1.07.22-.78.83-1.16,1.5-1.55Z"/>
      <path class="cls-1" d="M62.12,17.01c-.15-.13-.49-.16-.71-.07-.34.15-.02,1.07-.84,1.6-.03.33.68.79.89.63.44-1.06,1.22-1.67.66-2.16Z"/>
      <path class="cls-1" d="M61.2,21.25c-.4.33.07.61.27.19.41-.31-.13-.56-.27-.19Z"/>
      <path class="cls-1" d="M56.47,11.41c0-.09-.22-.23-.36-.06-.12.15-.1.45.04.57.1.08.31,0,.31-.1v-.41Z"/>
      <path class="cls-1" d="M63.03,14.92l2.25-.57c-.12,1.02-.84,1.45-1.34,2.12-.17.38-.23.67-.06.71.51.13.76-.65,1.23-.7.19-.02.37.73.57.75,1.95-.05,4.35-.74,6.23-1.74-.34.75-.97,1.18-1.26,1.87.11-.06.4-.02.41.09.01.17-.08.32-.21.5,1-.11,1.14-.93,1.37-.21.04.14-.03.23-.12.44l-.22.52c-.07.17.23.6.39.51,1.51-.78,1.92-2.29,1.69-3.74-.3-.19-.59-.28-.78.03l-.98-.2c.24-.5.53-.8.43-1.37-.39.29-1.05.88-1.46.63-.68-.42,1.19-1.19.9-1.97-.45-.1-.95.54-1.06,1.05-1.97-1.01-2.11.93-3.55.58-.28-.07-.57-.42-.57-.83-.24.16-.6.15-.82.48-.1.14-.26.26-.39.3-.24.07-.52-.23-.55-.58-.05-.57.62-1.01,1.21-1.46l-.59-1.1c-.25-.47-1.51.17-1.53.94-.35-.15-.28-.39-.24-.73-1.53.67-1.67,2.38-.95,3.7ZM72.28,18.48l.22-.61c.09-.16.33-.03.24.21l-.23.63c-.19.13-.29-.06-.23-.23Z"/>
      <path class="cls-1" d="M72.11,21.38c.03.11.18.32.48.37.28-.66.84-1.06,1.68-1.22.08-.84.52-1.57.46-2.45-.63.34-.62.96-.87,1.43-1.11,0-1.84,1.58-1.74,1.88Z"/>
      <path class="cls-1" d="M68.51,10.5c-.1-.64-.67.01-.99,1.23.46-.3.66-.69.99-1.23Z"/>
      <path class="cls-1" d="M60.51,13.95c-.02.41.1.72.19.97.08.21.38.41.93.3l.12-2.55c-.56.32-1.22.76-1.25,1.28Z"/>
      <path class="cls-1" d="M57.76,24.98c.19.27.81-.11.9-.35.07-.18.04-.54-.16-.77-.42.08-1.03.7-.74,1.12Z"/>
      <path class="cls-1" d="M62.05,33.75c.41-.34.65-.8.4-1.21-1.3,1.06-2.21,2.28-2.12,3.92.85-.93.89-2.01,1.72-2.71Z"/>
      <path class="cls-1" d="M59.66,18.24l-3.25,3.25c.11.38.19.64.52,1.05,3.94-2.52,3.44-5.01,2.73-4.3Z"/>
      <path class="cls-1" d="M57.16,17.51c.85-1.74,2.56-2.12,2.4-2.96-.07-.36-.93-.34-1.98-1.16l-2.38,3.34,1.96.77Z"/>
      <path class="cls-1" d="M2.53,63.17c-.49.28-.48.93-.85,1.26l-.64.57c-1.39,1.68-1.29,4.1-.23,5.94l.09-1.34,1.21-4.22.04-.73.38-1.48Z"/>
      <path class="cls-1" d="M62.13,19.61l-.05.34c-.02.17.07.35.23.22.19-.16.17-.3.24-.47.12-.29.36-.5.37-.9-.52.04-.74.46-.79.81Z"/>
      <path class="cls-1" d="M59.48,12.05c.22.6.96-.06,1.23-.24.47-.3,1.37-.24,1.7-.79.27-.45.13-1.08-.18-1.59.29-.42.79-.54.55-1.18-1.41,1.45-3.23,1.2-3.3,3.8Z"/>
      <path class="cls-1" d="M48.23,105.3c.17-.11.5-.16.55-.41.1-.44-.09-.69-.45-.9l-.79-.47c-.47-.28-1.14.2-1.53.56l1.08,1.34c.35.43.79.11,1.13-.12Z"/>
      <path class="cls-1" d="M47.13,102c-.6-.8-1.66-1.47-2.63-1.3-.37.06-.63.45-.77.63-.26.34-.11.5.17.81.43.48.62,1.29,1.33,1.65.24.12.52.01.72-.21.11-.12.09-.21-.09-.42.56-.14.8-.64,1.27-1.15Z"/>
      <path class="cls-1" d="M48.64,103.91c.38.09.92-.08,1.37-.21-.32-.42-.64-.83-1-.91-.31-.07-.77.24-.79.45-.02.17.17.61.42.67Z"/>
      <path class="cls-1" d="M58.46,129.45l-.44-2.13c-.86.27-1.55.78-2.19,1.41.09,1.76.51,3.33,1.65,4.74.53-.15,1.46-.4,1.63-.97l.54-1.83c-.73-.15-1.08-.64-1.2-1.22Z"/>
      <path class="cls-1" d="M55.82,148.48c.12-.09.41-.31.44-.47.03-.14-.4-.42-.61-.19-.31.34.03.75.17.65Z"/>
      <path class="cls-1" d="M46.81,130.57c.61-.37,1.28-2.84.43-2.19l-.51.39c-.43.33-.58.69-.54,1.12.02.26.26.9.62.68Z"/>
      <path class="cls-1" d="M58.5,140.69c1.35-.72,1.14-2.71.77-2.76-.27-.03-.45.22-.76.4.18-1.31.22-2.77-.43-3.91-.44-.34-1.89.13-1.85.75l.24,3.99c-.12.12-.51.3-.32.45l.38.3c.59.75,1.29,1.14,1.97.78Z"/>
      <path class="cls-1" d="M52.7,89.71c.44-.07.75-.5,1.03-1.06-.26-.26-.83-.47-1.26-.34-.32.1-.9.41-.91.91-.01.41.82.55,1.15.49Z"/>
      <path class="cls-1" d="M48.85,138.2c.04-2.26-.23-4.25-.94-6.39-.72.16-1.16.87-1.16,1.59l.05,5.02c.74.07,1.39.06,2.05-.22Z"/>
      <path class="cls-1" d="M52.1,86.58c-.04-.08-.17-.15-.3-.11-.08.03-.15.09-.17.23.06.04.2.18.24.24.19-.02.31-.2.23-.36Z"/>
      <path class="cls-1" d="M54.79,87.75c.2.06.43-.01.44-.22-.29-.06-.72-.1-.96.21.22-.02.4-.01.52.01Z"/>
      <path class="cls-1" d="M55.49,86.71c.77,1.02,2.71-.9,3.7-2.49l-1.7.34c-.18.04-.18.23-.1.26.06.03.24.15.39.32-.36.56-.95,1.08-1.53,1.53-.23.04-.56-.52-.43-.81-.35.1-.53.59-.33.85Z"/>
      <path class="cls-1" d="M50.27,129.37c1.34-.66,1.99-1.48,2.47-2.55-.05-.09-.13-.2-.19-.24l-2.28,2.8Z"/>
      <path class="cls-1" d="M47.82,130.6c.98.42.63-.81,1.56-2.5-1.07.4-1.64,1.47-1.56,2.5Z"/>
      <path class="cls-1" d="M54.88,90.16c.3-.1.79-.49.53-.94-.12-.21-.81-.23-.99-.1-.19.12-.32.51-.59.81.12.34.69.36,1.06.23Z"/>
      <path class="cls-1" d="M59.51,99.64l1.82-1.52c.41-.78.93-1.56,1.52-2.15l1.07-2.95-2.43,2.88c-.45.53-.04,1.08-1.02,1.51-.75.33-1.4,1.56-.97,2.23Z"/>
      <path class="cls-1" d="M82.18,47.96l.46-2.87c-.85.74-1.16,2.82-.99,3.01.16.18.49.13.54-.14Z"/>
      <path class="cls-1" d="M67.27,124.24l-2.72-4.81c-.15-.26-.5-.52-.85-.53-.05,1.11.46,1.87,1.13,2.53.53.52-.17,1.24-.19,1.71-.05,1.18.66,2.34,1.34,3.19.73-.3,1.66-1.43,1.29-2.08Z"/>
      <path class="cls-1" d="M25.3,153.7c.57-.23.87-1.53.35-1.74-.74-.29-.68-.52-.81-1.23-.59.49-.03.77.17,1.12l.29,1.84Z"/>
      <path class="cls-1" d="M65.11,129.35c-.64-.78-1.38,2.23-.34,4.45.14.3.58.43.49,1.09l1.68-2.18c-1.54-.36-1.06-2.4-1.84-3.35Z"/>
      <path class="cls-1" d="M80.6,25.1l-.66,2.25c.5-.12.74-.42,1.09-.63.5.19.73.71,1.05,1,.72.64,1.32.06,1.86-.4.39-.33.73-1.1.25-1.2-.25-.05-.95.13-1.14-.19-.1-.17-.03-.39.06-.68.28.01.53.18.87.45.48.38,1.6-.09,1.68-.61-.41-.7-1.12-1.19-1.74-1.8-.15.89-.68.91-.77,1.71-.54.04-.39-.39-.42-.67-.04-.38.27-.67.4-.92-.64-1.6-2.1-1.22-1.55-3.49-1.15.6-1.23,1.96-1.86,2.71-1.01,1.2-2.02,2.17-2.69,3.74,1.29-.53,2.22-1.12,3.58-1.28Z"/>
      <path class="cls-1" d="M68.93,129.9c-.1-.85-.27-1.81-.72-2.4-.19-.25-.26-1-.7-1.02-.45-.02-.37.7-.42.95-.28,1.35.15,2.57.31,3.88.73-.52,1.12-.95,1.52-1.41Z"/>
      <path class="cls-1" d="M70.14,111.03c-.19.09-.48.23-.5.62l1.42-.26c-.15-.34-.55-.54-.92-.37Z"/>
      <path class="cls-1" d="M76.95,110.91c-.84-.45-1.46.04-2,.41-1.2.81-3.28.46-5.55,1.25-1.13.39-2.62-.04-3.6.72l-2.79,2.16c-.19-.51-.68-.66-.99-.46-.1.07-.91,1.3-.85,1.85.05.43.54.93,1.01.78.8-.27,1.48-.41,2.43-.11,1.41.44,3.04.15,4.12-.82.6.29.96.65,1.46,1.06.05-.55-.56-.8-.69-1.1-.2-.45.2-.57.4-.53.14.03.48.16.69.11.05-.32-.02-.89.32-1.03l.9-.38,1.68-.36c-.4-.65-.98-.72-1.59-.74-.29-.4-.67.1-.1.29-.71.7-1.69.86-2.69,1.18-.25.08-.63.6-.96-.09,1.2-.25,2.07-.8,2.72-1.68.6-.81,1.83.3,2.42.12l1.89-.56c.48-.88,1.07-1.42,1.75-2.06ZM61.82,116.91c.79-.2,1.32-.26,1.92-.69.22-.09.36-.13.45-.05.14.11.25.31.23.42-.06.28-1.85.75-2.6.33ZM65.74,116.49c-.2,0-.44-.02-.55-.19-.06-.1-.25-.09-.18-.34.02-.07.11-.16.21-.09.04-.29.49-.3.7-.21.14.06.24.33.28.52.04.17-.32.33-.47.32ZM67.63,115.82c-.11.04-.29.08-.44.2-.09.07-.2-.45-.05-.54.13-.07.28-.07.46-.06.13.01.2.33.02.39Z"/>
      <path class="cls-1" d="M79.07,100.98c.48-1.36.3-2.84.26-4.33-.02-.78-1.61-.67-1.82-1.13-.05-.12.08-.38.27-.43.32-.09.32-.62.08-.63h-.53s-1.49.78-1.49.78l.59,3.31c.17.92.46,1.49,1.15,2.03-.63,1.85-3.22,4.5-2.81,4.73l.49.28c-1.86-.55-2.34,2.62-3.94,2.41-.5-.07-.05-.84.16-1.07l1.5-1.67c1.3-1.06,1.87-2.61,2.64-3.93.3-.51.27-.79.17-1.52l-.27-2-.86-2.7c-.68-.12-1.56.28-2.06-.44l-1.26,1.79c-.05.81-.34,1.57-1.08,2.15-.45.14-.97-.02-1.18-.3-.71-.95-.15-1.58-.19-1.86-.02-.16-.43-.25-.51-.11-1.27,2.21-2.9,3.01-3.7,4.9-.35.83-1.35,1.91-1.89,2.48-.11.12-.63.02-.75.08-.99.5,1.23.61,1.26,1.51-1.02.14-1.72-.67-2.78.23.28.3.39.38.5.44.88.5-.95.32-1.3.66-.19.19-.54.79-.3.92,2.65,1.44,5.5,1.32,8.14-.16-1.15,1.7-3.52,2.43-5.48,1.89l-6.62-1.84-2.86-1.09c-1.47-.56-1.14-2.03-2.27-2.06-.2,0-.34.51-.57.62-1.83.94-1.79.84-2.01,3.59,1.3-.42.83-2.24,2.44-1.78-.58.92-1.59,1.6-2.15,2.74.04.39.93.94,1.19.61.57-.73.77-1.53,1.63-1.98l-.48,1.99,1.5-.09-.54,1.67c.7.21,1.31.29,1.91.64.25.14.71-.39.88-.72,1.47.38,2.73.64,4.05.17-.45-.33-.87-.53-.93-.85-.06-.28.11-1.01.45-.92l3.62,1,3.87-.06c1.46.19,2.43.2,3.76-.33,2.56-1,5.08-2.14,7.07-4.25.1-.1-.14-.41-.08-.54.06-.12.55-.27.56-.41.01-.33-.24-1.09.03-1.23l.85-.42,1.69-2.81ZM73.44,99.55c.08-.24.4-.15.55-.09.12.05.15.32,0,.43-.08.06-.2.22-.34.23-.13.02-.32-.28-.22-.58ZM56.65,110.75l-2.93-1.43c.84-.87,2.96.25,3.31.86.09.15-.11.7-.37.57ZM69.07,101.91c-.51.42-1.44-.68-1.07-1.18.34-.46,1.1-.74,1.65-.54-.09.52-.09,1.32-.58,1.72Z"/>
      <path class="cls-1" d="M73.37,120.65c.57-.77.92-1.54,1.28-2.28-.18.01-.31-.15-.18-.2.2-.08.17-.18,0-.29-1.48,1.66-3.58,3.06-4.89,1.58.43-.5.9-.58,1.41-.77,1.04-.37,1.91-1.38,1.28-2.58-1.2,2.13-3.12,2.52-5.52,2.87,1.21,1.99,2.39,3.82,3.31,6.12l3.3-4.45Z"/>
      <path class="cls-1" d="M61.84,124.77c-1.46,1.35-.99,3.49.17,5.38,1.39-.19,1.66-1.01,1.84-2.39-1.02-.82-1.38-1.93-2.01-2.99Z"/>
      <path class="cls-1" d="M56.25,126.83c.21-.12-.05-.47-.26-.35l-.29.15c-.47-.41-1.03-.6-1.64-.18.21.34.51.39.78.55l-1.6,1.09c-1.45.99-1.6,5.18-.78,7.58.96.39,2.28-.63,2.31-1.63l-1.01-1.77c.12-1.32.07-2.05-.67-3.06,1.67-.23,1.8-1.62,3.16-2.37Z"/>
      <path class="cls-1" d="M84.25,41.31c-.2-.13-.36-.02-.52.18-1.07,1.35-2.66,2.08-3.94,3.08-.39.3-.1.84.13.89.29.06.57-.09.88-.37l3.47-3.01c.19-.17.13-.67-.02-.77Z"/>
      <path class="cls-1" d="M71.27,91.47l-1.58.11c-.46.03-1.01-.63-1.72-.34.67.42,1.29.5,1.77.96-.09.35-.37.32-.48.29-.08-.03-.17.23-.08.31.07.06.15.12.44.19-.14.11-.17.18-.23.28-.05.09.01.29.17.3l2.99.19c-.71-.68-1.08-1.32-1.3-2.29Z"/>
      <path class="cls-1" d="M83.5,32.73c-.04-.24-.74-.31-.86.04-.09.26-.52.54-.16.93.44-.14.99-.55,1.02-.97Z"/>
      <path class="cls-1" d="M77.6,23.59c.06-.13.11-.49-.15-.58-.46-.17-.94.79-.63.94.33.17.71-.19.78-.36Z"/>
      <path class="cls-1" d="M79.95,38.31c.62.26,1.08-.09,1.41-.57l2.42-3.58-2.61,1.82c-.67.47-.79,1.61-1.22,2.34Z"/>
      <path class="cls-1" d="M75.22,36.96c.04.68.25,1.47.88,1.89.99-.79,1.12-1.98,1.84-2.76,1.38-1.49,3.13-2.79,4.01-4.94l-2.34,1.81c-.53.41-1.05.63-1.45,1.27-.73,1.17-1.6,2.15-2.94,2.72Z"/>
      <path class="cls-1" d="M78.85,32.45l.49-.94c.37.08.66-.02.96-.35l.89-.09c.1-1.16-1.83-2.21-2.12-2.17-.26.03-.61.31-.6.7.01,1.93-1.04,2.33.37,2.85Z"/>
      <path class="cls-1" d="M59.07,98.05c-.04-.29-.15-.67-.4-.75-.16-.05-.62,0-.68.3-.06.28.55.68.97.57.2.5.66-.09.11-.13Z"/>
      <path class="cls-1" d="M56,80.02c.61.03,1.07.11,1.48.44l.33-1.09.57.72,1.1-1.72c.19-.29.78-.71,1.1-.82.45-.01.63-.1.5-.56-.08-.26-.11-.53-.5-.45-.25.05-.47.17-.59.36-.13.2-.65.36-.89.18l-.89-.65c.5,1.82-1.64,2.19-2.19,3.59Z"/>
      <path class="cls-1" d="M58.67,99.46l-1.33,1.18c-.25.22-.18.46-.06.55.18.14.34.07.5-.08l1.4-1.35c.1-.09-.34-.45-.51-.29Z"/>
      <path class="cls-1" d="M60.31,101.07c-.18,0-.28.08-.49.21l-1.42.86c-.22.13-.28.35-.23.48.08.19.37.29.65.11l1.77-1.17c.14-.09-.06-.49-.28-.49Z"/>
      <path class="cls-1" d="M54.9,102.89c-.16.18.72,1.23,1.56,1.95.36-.2.66-.32.95-.77l-1.89-1.24c-.21-.14-.43-.15-.62.06Z"/>
      <path class="cls-1" d="M57.64,106.69c.17.16.47.36.61.37,0,0,.86-.61.93-1.11.02-.17-.15-.47-.35-.48-.72.56-2.07.39-1.55.89l.36.34Z"/>
      <path class="cls-1" d="M56.04,98.71c.18.13.3.37.67.22l-.37-.63c-.31.07-.28.21-.3.41Z"/>
      <path class="cls-1" d="M56.5,89.94c-.08.23-.07.86.17.96.52-.05,1.14-.39,1.41-.64.23-.27.27-.73.09-.79-.44-.14-1.57.19-1.67.47Z"/>
      <path class="cls-1" d="M69.95,97.71c.41-.31.53-.48.76-.89-.49-.3-.68-.38-1.14-.41l.38,1.3Z"/>
      <path class="cls-1" d="M68.82,25.87c.18.39.09.88-.03,1.64.52-.27.95-.95,1.61-.98.57-.03.74-.54.96-.88.19-.3.12-1.3-.38-1.34-1.06-.09-2.32.47-3.3-.3-.35-.28.16-.94.26-1.24.1-.28-.37-.34-.46-.16l-.32.63c-.48.94-1.26,1.62-1.23,2.71l1.36-.04c.5.19.99.29,1.53-.04Z"/>
      <path class="cls-1" d="M66.14,21.26c-.64-.55-1.26-1.16-1.95-1.42-.38-.15-.43.17-.45.34-.03.28,0,.62,0,.91l.02.5c0,.12.31.14.46.09,0,.12.05.28.09.41-.34.36-.75.85-.35,1.49.57-.98,1.76-1.23,2.16-2.32Z"/>
      <path class="cls-1" d="M74.33,47.61c-.56.28-1.2.73-1.67.42,0-.19.05-.53-.02-.72-.03-.11-.25-.28-.27,0-.52,1.85-3.09,2.6-2.27,3.37.16.15.52.17.93.08-.23-1.51,2.51-1.13,3.3-3.14Z"/>
      <path class="cls-1" d="M67,29.9c-.3-.06-.59.96-.11,1.1.33.09.71-.98.11-1.1Z"/>
      <path class="cls-1" d="M61.53,79.81h-.9s-.31,0-.31,0c-.07,0-.15.1-.11.21h.22c.31-.02.78.15,1.1-.21Z"/>
      <path class="cls-1" d="M65.46,69.52c0-.12-.17-.17-.23-.03-.03.07-.04.14-.25.02,0,.18.1.3.14.37.15-.01.36-.08.33-.36Z"/>
      <path class="cls-1" d="M73.36,32.63c.65-.29,1.06-.86,1.51-1.24.21-.18.27-.51.18-.95.83-.13,1.15-1.01.89-1.72-.83.49-1.51.78-2.16,1.37l.42,1.02c-.56.11-1.31.8-.82,1.51Z"/>
      <path class="cls-1" d="M77.52,29.5c-.07-.05-.27-.08-.36,0l-1.61,1.59c1.27-.23,2.43-1.27,1.97-1.6Z"/>
      <path class="cls-1" d="M73.69,26.67c-.14-.11-.38-.16-.56-.22-.16-.54.23-1.1-.16-1.72-.36.27-.4.67-.49.96-.05.15.03.42-.24.59-1.88,1.18-2.29,2.62-3.34,3.51-.61.51-.9,1.33-.39,2.05,2.2-.93,5.8-4.65,5.18-5.16Z"/>
      <path class="cls-1" d="M63.33,34.47c2.37-.6,1.58-2,2.35-3.21l-1.12.5c-.8.36-1.3,1.68-1.22,2.71Z"/>
      <path class="cls-1" d="M75.02,27.99c0-.29-.16-.2-.23-.13l-.38.43c.12.18.44.05.61-.08v-.23Z"/>
      <path class="cls-1" d="M68.44,27.96l-.14.34c-.06.14-.21.29-.16.39.05.11.22.17.32.1.09-.06,0-.32.1-.46l.2-.28c.04-.05-.29-.15-.31-.09Z"/>
      <path class="cls-1" d="M67.53,41.82c-.07.26-.1.66.18.72.15.03.38-.21.43-.37.02-.06.25-.12.21-.15-.1-.06-.18-.22-.22-.39-.15-.29-.53-.05-.6.19Z"/>
      <path class="cls-1" d="M64.06,75.84l2.11-1.8,1.02.27c.19-.5.17-.99.08-1.56-.48.11-.75.41-1.01.86-.85-.21-1.43.15-2.07.51-.66.37-.77,1.4-.12,1.74Z"/>
      <path class="cls-1" d="M73.41,138.58c-.81.24-1.51,1-1.47,1.78.24.28,1.04.14,1.29-.14.4-.47.49-1.73.19-1.64Z"/>
      <path class="cls-1" d="M74.49,127.96c-.12.75.29,1.53,1.09,1.44-.32-.65-.49-1.03-1.09-1.44Z"/>
      <path class="cls-1" d="M86.63,129.35c-.4-.14-1.1.56-1.11.85.33.29.56.6.5.93-.04.2-.16.55-.41.77l-5.49,4.98c.11.15.26.21.42.21l5.62-4.27c.8-.61,1.39-1.36,2.02-2.2-.45-.54-.87-1.04-1.55-1.27Z"/>
      <path class="cls-1" d="M80.81,46.37c-.17-.19-.51-.04-.59.29-.02.06-.1.07-.14.04-.27-.03-.31.17-.4.21-.18.09-.06.59.2.54.36-.08.7-.6.93-1.08Z"/>
      <path class="cls-1" d="M61.85,149.4c.93-.29,2.13-1.93,2.13-2.21,0-.61-1.65.55-2.13,2.21Z"/>
      <path class="cls-1" d="M62.69,143.67c-.08-.11-.09-.32-.09-.54,0-.53-.49-.59-.77-.47-.22.09-.5.13-.81.62.36.14,1.21.56,1.25,1.1-.1.92-.77,1.71-1.23,2.49.61.2,1.14-.15,1.44-.67l1.79-3.11c-.55-.62-1.15,1.16-1.58.59Z"/>
      <path class="cls-1" d="M62.93,135.69c-.24-2.02-.87-4.39-1.76-3.9-1.32.73.17,3.32-.35,5.55.36.44.69,1.4,1.27,1.6.75.26,1.26-.69,1.55-1.14.6-.94,1.26-1.68,1.44-2.67-.91-.09-1.57-.08-2.14.57Z"/>
      <path class="cls-1" d="M62.89,140.65c-1.08.09-1.54.75-2.06,1.42.93-.21,1.61-.66,2.06-1.42Z"/>
      <path class="cls-1" d="M74.84,125.19c-.3.32-.42.57-.49.96-.03.2.26.57.59.66,1.66-.94,2.7-2.51,3.52-4.18.53-1.09,1.2-2.15,1.23-3.4l-3.26,4.26-1.59,1.7Z"/>
      <path class="cls-1" d="M107.46,88.55l.09,1.7c.49-.2.9-.95.64-1.39-.17-.28-.5-.36-.73-.31Z"/>
      <path class="cls-1" d="M111.33,75.74c-.88.85-1.21,2.37-2.1,2.98-.98.68-1.47,1.58-1.71,2.62-.67.07-1.09.45-1.51,1.19-.57,1.02-1.46,2.02-2.23,2.89-.58.65-.52,1.51-2.44,2.82-.53-.39-.73-.21-.94-.01-.25.25-.28.51-.03.77l2.05,2.11c.24.25-.33.83-.47,1.04.17,1.23,1.11,2.29,2.07,2.85.42-1.02,1.01-1.05,1.5-1.66l-1.73-1.66c-.26-.61.57-1.43,1.29-1.85-.23-.55-.6-.68-.66-1.41.86-.03,1.41-.46,1.85-1.13,1.97-2.95,3.92-5.83,5.28-9.07l1.5-4.56c-1.09.45-1.05,1.42-1.71,2.06Z"/>
      <path class="cls-1" d="M34.26,138.59c-.73-.32-1.08-.32-1.68-.72.18.68,1.05,1.12,1.68.72Z"/>
      <path class="cls-1" d="M95.3,34.39l-1.03-2.24c-.62-.03-1.87.29-1.96.89.23,1.28.7,2.32,1.19,3.51.73-.48,1.3-1.22,1.8-2.17Z"/>
      <path class="cls-1" d="M87.74,26.21c-.76.6-1.42,2.65-1.37,2.81.06.17.29.67.54.61l1.89-2.27c-.32-.45-.65-.85-1.06-1.14Z"/>
      <path class="cls-1" d="M104.16,97.26l-.21.03c-.08.1-.26.36-.1.42.2.08.3-.07.43-.18.11-.11.15-.24-.11-.27Z"/>
      <path class="cls-1" d="M93.76,38.6c-.59.49-1.32.88-1.16,1.75.63-.57,1.27-.65,1.69-.22,1.19-.64,1.48-1.74,1.18-2.97l-1.72,1.44Z"/>
      <path class="cls-1" d="M43.03,139.4c-2.25-.27-.58,2.01-1.67,3.78,1.48.2,1.24,1.55,2.31,2.43.09.35-.32.56-.5.67-.04.66-.61,1.18-.83,1.84l-.9,2.71c.04.14.15.21.3.21,1.67-3.83,5.06-5.43,3.23-8.08-1.03-1.49-.24-3.34-1.93-3.55ZM44.19,143.85c-.1.19-.23.1-.31.12-.2.06-.44-.14-.26-.39.06-.07.34-.07.46-.04.08.02.2.15.12.31Z"/>
      <path class="cls-1" d="M44.08,150.7c.98-.62.99-1.58.9-2.45-.56.69-.93,1.61-.9,2.45Z"/>
      <path class="cls-1" d="M40.8,135.06c-.23.49-.03.99.37,1.47.29-.41.28-1.12-.37-1.47Z"/>
      <path class="cls-1" d="M42.96,151.96c-.11.16-.22.22-.24.31-.21.05-.24.16-.32.23-.17.15-.14.55.02.6.24.08.96-.62.94-.9-.01-.14-.29-.38-.39-.24Z"/>
      <path class="cls-1" d="M60.62,147.52c-.55,1.57-2.26,2.82-3.01,5.04,1.51-1.24,3.67-4.39,3.48-4.94-.03-.09-.44-.19-.47-.1Z"/>
      <path class="cls-1" d="M40.54,137.71c-.07-.05-.42-.02-.42.07,0,.23.15.32.23.36.09.04.27-.01.3-.11.05-.19-.04-.26-.11-.31Z"/>
      <path class="cls-1" d="M21.72,108.33l-.04,1.29c.44-.17.47-.43.44-.76-.02-.21-.08-.4-.41-.54Z"/>
      <path class="cls-1" d="M23.47,112.12c.15.25.71.27.72.02.03-.61-.21-1-.46-1.65-.24.1-.55.73-.25.97.06.04.11.11.09.18-.36.15-.18.35-.1.48Z"/>
      <path class="cls-1" d="M42.2,130.96c.63.46.55,2.38.21,3.89l.35,2.41c.06.44,0,.7.34.98.27.23.54-.02.87-.4.26-.3.07-.54-.49-.78-.37-.58-.02-1.72.52-2.17-.24-.32-.45-.28-.56-.34-.72-.39,1.59-2.94.65-5.7-.22-.64-.29-1.01-.11-1.77l.94-3.95c-1.52-.26-1.79,2.91-3.71,2.45-.79-.19-1.34-.55-1.55-1.55-1.99.28-1.32,2.61-1.56,3.45l-.15.53c-.03.1-.5.05-.52-.05l-.32-2.38-1.86-.15-.25-.36c-.09-.13-.24-.05-.26.05-.03.13.08.46.02.54-.32.44-.44,1.32-.53,1.93-.21.15-.55-.14-.61-.3-.08-.19.14-.62.14-.82l-.02-5.64c0-.76-.83-1.3-.44-2.34.11-.3-.71-.52-.96-.39-.7.35-.88-.18-1.17-.49-.82-.89-1.5-1.72-1.89-2.88-.54-1.59-1.61-2.74-2.94-3.81.31-1.96-1.16-3.12.33-3.18.08-1.53.17-3.06,1.35-4.23.45.31.82.82,1.47.82-.66-1.12-.01-2,1.23-2.73.26,1.08.36,2.23,1.12,3.09.1-1.58-.2-3.14,1.18-4.24l-.27,3.76c.83-.7,1.88-.93,2.86-1.12-.12-.31.11-.4.18-.56.16-.37.1-1.22-.25-1.56l-1.31-1.23,1.48-6.09,1.18-3.25-1.66,1.1c-.58.05-.6-.73-.56-1.08.05-.46.21-.87.75-1,0-.17-.07-.18-.12-.21-.13-.1-.03-.28.15-.31-1.5-.86-2.65-.84-3.73.62-.45-.4-.78-.66-1.34-.77.97,3.78-.34,4.7-.33,4.62l-.1.83c-.01.11-.32.17-.52.22l-.1,1.71c-.22-.16-.24-.34-.19-.72-.49.21-.12.94-.6,1.38-.06.05-.19.04-.21-.03l-.13-.55-2.53,1.78c-.42.3-1.01-.38-1.24-.8-2.44-.61-5.14-.67-7.67-1.02-1.92-.27-4.3-.18-3.88-1.68,1.05.2,2.15.83,3.18.52,2.1-.64,4.48-3.54,7.27-4.44l-.1.69c-.03.19.39.55.47.42.36-.54.62-1.12,1.13-1.22.39,1.01-.72,1.36-1.11,1.77-.08,1.01.42,2.15-.46,3.06.77.33,1.68.94,2.54.68,1.62-.5,2.41-2.22,2.88-3.76.89-.57.99-1.61.69-2.62-.28-.65-.02-1.24.4-1.63.13.27.31.3.38.3.09,0,.1-.16.07-.23-.27-.59-1.66-.05-2.65-1.43-.07-.1-.43-.13-.49-.05-.04.06-.1.25-.29.34l-1.99-1.49c-.2.04-.5.41-.61.54s-.64-.08-.58-.36c.08-.36.78-.35,1.32-.36-.33-.76-.91-1.88-1.7-2.15-1-.33-1.94.89-2.42,1.64-.41.64-.54,1.2-1.2,1.63-.57-1.19-.67-2.22-.41-3.43-.32.11-.64.26-.8.46-.77.93-1.75,1.32-2.77,1.74l-1.66.69c-.81.11-1.54.38-2.35.71.88.4,1.69-.02,2.57-.22l1.9-.44,2.02-.43c.78.78-1.67,1.01-1.66,2.61.97-.58,1.44-1.38,2.32-1.82.16.03.58-.05.65.24-.55.85-1.72,1.19-2.26,1.85-.67.82-1.36,1.28-2.16,1.94l-.76,1.48c-.75-.29-.96-.98-1.33-1.52-.65-.94-1.25-1.78-1.8-2.77-.38-.69-.99-1.21-1.01-2.09-.73.24-1.23.66-1.07,1.39l.73-1.09c.59.42-.02.92-.01,1.22.06,2.35,2.91,4.18,2.24,4.97l-.64.75c-.12.14-.23.46-.4.49-.18.03-.36-.19-.5-.38l-2.72-3.94c-1.11-1.04-2.04-2.06-2.15-3.71-.08-1.26-1.59-2.58-1.01-4.81l1.05-4.03-1,.57c-.3-.54.14-1.18.05-1.48-.27-.66-.95-.83-1.34-1.11l-.29.23s-.23-.29-.31-.25c.04.29.35.53.14.94-.11.22-.33.47-.73.66l.33,3.69c.03.34.56-.03.7-.09.4.11-.05.8-.38.92l.4,4.57c.39-.47.39-.92.51-1.29.23,0,.33-.13.39-.22.15-.21.44.19.06.21-.8,1.63-.81,3.39-.47,5.09.22-.51.15-.87.54-1.2.35.35.53.62.71,1.25-1.92-.02-.35,2.75.82,5.16,1.09,2.25,2.43,4.4,4.34,6.1.62.55,1.74.23,2.39.24,0-.13.14-.25.26-.21-.27-.3.17-.57.19-.79.06-.72-.72-1.31-1.55-1.13-.4.47-.84,1.14-1.59,1.17-.04-.59.6-.66.89-.87.78-1.48-1.79-1.93-2.95-3.75l3.28,2.01c1.67-.13,3.76.01,3.84,1.29.41-.57.63-.82,1.09-.81.49,0,.9.35,1.23.9-.45.49-1.02.64-1.23,1.54,2.21-.84,4.35.55,5.7,2.33l-.95.08c-.71-.04-1.32-.5-2.13-.33.63.83,1.49,1.1,2.25,1.34.15.49,1.96.53,2.47,1.95-.73-.22-1.17-.6-1.69-.35.86,1.2,1.82,2.15,2.23,3.51.12.41-.33,1.08.4,1.45.14-.2.24-.48.72-.55l.41,3.76.18,2.74c.02.3.1.39-.13.62l-.74.59c-.2-.42.09-1.02.16-1.4-.39-.61-.93-1.09-.67-1.9-.47-.03-.92-.12-1.22-.35.06-.16.02-.42-.11-.46-.1-.03-.17.15-.24.19-.09.05.24.38.18.48-.34.51-.2,1.6-.31,2.22-.2,1.16-.59,2.4-.42,3.45l-.16.33c.14-.06.26.06.28.2.28-.05.03-.46.25-.85.11-.2.58-.05.53.22l-.59,3.37c-.16.92-.08,1.81.4,2.67.34.62,1.06.05,1.46.07,1.6.07,1.84,2.83,2.14,3.26.18.25.49.24.82.32-1.27,2.58-1.63,4.73.39,6.45.32.28.76.28,1.2.28.25-1.35.3-2.63-.23-3.93-.2-.5-.42-1.01-.27-1.52.46.37.87.92,1.32.68l1.36-.7c-.39,1.95-1.97,4.38-1.2,6.22.37.89,1.65,1.21,2.6,1.6.63-2.51.47-5.04-.76-7.29.64-.01.93.29,1.36.73.46-.28.69-.74,1.29-.79-.16,2.41-.82,4.7-.63,7.1.07.83,1.38.92,1.98.79l.97-.2c.82-.17.22-3.52-.74-5.68.84.49,1.58,1.04,2.45.62.27-.13.51-.43.86-.23-.39,1.71-1.44,3.05-.91,5.49.11.51,1.37.16,1.38-.27l.06-2.52c-.24-.96-.41-1.74.15-2.68l1.37.24c.6-.76.41-2.3.99-1.88ZM34.03,93.34l.23.02c.17.01.42.28.35.51-.04.14-.39.16-.49.1-.1-.05-.16-.11-.33-.31-.07-.08-.04-.34.24-.32ZM31.2,93.26l.58-3.59c1.35-.05,1.48,3.01-.23,5.14l-1.4,3.34s-.13-.14-.23-.14l1.28-4.75ZM24.77,89.66c-.25.1-.38.13-.47.11-.18-.03-.27-.38-.07-.54.32-.25.5-.48.97-.65.19.41.08.87-.44,1.07ZM26.59,89.86c.07-.13.42-.14.6-.07.11.05.19.27.04.43-.08.09-.22.22-.43.24-.2.02-.38-.27-.21-.6ZM26.28,92.46l.34.26c.13.1.38-.16.35-.37.38-.09.31.23.28.43-.03.29-.26.33-.6.28-.16.77-.58,1.58-1.51,1.88-.29-.99.32-1.92,1.13-2.48ZM23.97,87.57l.33-.05c.12-.02.15-.27.14-.41.14-.23.23-.5.48-.41.18.07.52.47.3.66l-1.2,1.05c-.08.19-.28.15-.26-.07-.1-.07-.17-.38-.19-.52-.04-.27.22-.27.38-.27ZM21.46,89.14c.12-.1.15-.14.24-.17.31-.07.45.07.43.32-.01.26-.19.43-.34.5-.28.13-.54,0-.52-.29.01-.21.04-.23.19-.37ZM18.62,90.49c.21-.1.39,0,.48.16.09.16-.03.25-.11.33-.12.11-.36.19-.51.09-.14-.09-.08-.47.15-.58ZM15.09,92.55c.16-.19.26-.25.38-.15.23.2.24.37.06.71-.2.38-.46.24-.61.03-.15-.22-.11-.38.17-.6ZM7.69,92.68c-.2-.04-.48-.29-.2-.64.09-.11.41-.14.45-.26.04-.11-.12-.35-.29-.5-.12-.25.11-.23.2-.19.24.11.2.38.32.63l.38.79c-.25.32-.62.22-.87.17ZM8.69,93.78c-.2.28-.64.32-.74,0-.02-.07,0-.23,0-.32.01-.07.1-.14.21-.1l-.02-.23c.11.01.36-.04.49.02.14.23.22.4.06.63ZM26.38,121.67c.01-.06.27.05.33.08.08.05.12.24.11.37,0,.09-.26.12-.33.06-.07-.06-.15-.28-.1-.52ZM29.1,102.84c.13.3-.81.54-1.01.1-.14-.3.2-.55.35-.5.13.04.49.02.66.4ZM28.69,99.95c.54-.08.26,1.01-.59,1.76-.31-.76.34-1.72.59-1.76ZM25.36,103.11c-.38.85-.31,1.83-.46,2.89l-.08.55c-.01.07-.12.11-.2.02-.07-.08-.28-.4-.21-.52.32-.54-.25-.95-.26-1.31l-.12-3.71-.62,1.15c-.15-.61-.06-.95.06-1.45l1.44-.11-.02,1.22c.94.01,1.62-.55,2.3-1.37.37,1.27-.47,2.36-1.83,2.63ZM23.18,123.18c.14-.63.78-.95.98-1.55l1.28-3.85c1,1.53-.08,5.22-2.26,5.4ZM26.95,125.37c-.6-.16-1.19-1.07-1.17-1.67.44-.13.95-.31,1.41-.9.05.91-.01,1.51-.24,2.58ZM27.42,113.26c-.22.01-.37-.35-.13-.48.23-.13.4.11.35.3-.04.16,0,.16-.22.17ZM29.52,124.24c-.2.15-.46.12-.52-.03-.09-.21,0-.71.26-.78.35-.1.5.12.51.28.02.26-.12.44-.24.54ZM30.3,122.43c-.06.08-.38.09-.42-.03-.11-.33-.16-.71-.03-1.19l.76.81-.31.41ZM32.17,121.31l-.29.95c-.35-.03-.35-.39-.46-.52-.17-.19-.39-.43-.36-.77.01-.13-.07-.42.02-.57.21-.32.75-.5,1.22-.37.05.47,0,.85-.12,1.27ZM37.24,129.76s-.21-.06-.25-.15c-.05-.12.1-.54.32-.97.16-.31.68-.22.62.16-.08.51-.43.7-.69.95ZM42.37,126.42l.29.79c-.08.07-.5-.02-.61-.18-.12-.18-.11-.56.33-.61ZM40.83,131.29l.14-4.21c1.13.96,1.09,2.35.64,3.55l-.22.58c-.06.17-.56.23-.55.08Z"/>
      <path class="cls-1" d="M14.56,88.64c.27-.06.22-.91-.1-.92-.4-.01-.47.33-.39.47.07.12.13.54.49.45Z"/>
      <path class="cls-1" d="M54.52,141.01c-.1-.12-.3-.12-.71.02.58-1.33.76-2.75.51-4.26-.41-.13-.71-.13-1.15-.05.43,1.5.32,3,.47,4.48.06.36-1.02.69-1.05.4l-.46-4.28c-.7.51-1.24.96-2.12,1.04.42,1.26.28,2.39.18,3.82l2.14.54c.45.11.97.38,1.44.07.59-.39.9-1.62.76-1.78Z"/>
      <path class="cls-1" d="M25.45,135.31c-.27.29-.37.64-.34,1.15.08,1.3.67,2.2,2.18,2.45-.33-1.28-.02-2.71-.62-3.9-.24-.48-1,.06-1.23.3Z"/>
      <path class="cls-1" d="M58.12,147.84c-1.13.6-1.66,1.71-1.97,2.81-1.23.88-2.13,3.73-2.11,3.8.24.76,2.33-1.7,2.64-3.9.97-.47,1.77-1.44,1.44-2.71Z"/>
      <path class="cls-1" d="M51.02,135.42c-.27-1.84-.27-3.62.3-5.42-2.58-.15-1.71,4.06-1.55,7.28.56,0,.8-.1,1.31-.24l-.05-1.63Z"/>
      <path class="cls-1" d="M48.69,139.27l-2.02.03c1.35,2.11-.49,4.34,1.55,5.12.47.18,1.43,0,1.41-.7l-.91-.56c-.35-.21.68-2.53-.03-3.9Z"/>
      <path class="cls-1" d="M46.82,149.79l-.37.28c-.17-.14-.69-.23-.92.21.54.22,1.12.24,1.64-.01.07-.29-.19-.59-.35-.48Z"/>
      <path class="cls-1" d="M47.81,156.29c-.67.09-1.16.55-1.2,1.09-.09.12-.38.45-.25.57.14.12.31.32.45.34.16.02.41-.16.54-.44.28-.28.59.11.17.37.22.3.45.03.45-.16.46-.04.88-.56.83-1.09-.05-.49-.55-.75-.99-.69Z"/>
      <path class="cls-1" d="M72.3,132.68l-3.94,3.99-2.49,2.58c-.78.81-1.75,1.93-.93,3.15.35-1.66,1.03-3,2.41-3.55-.11-.54.31-.64.47-.8,1.74-1.77,3.16-3.68,5.28-5.05.3,1.62-.48,2.43-.14,2.89.12.16.67.3.68.1l.23-2.5c.21-.17.24-.34.15-.5-.06-.09-.05-.33-.26-.19-.1.07-.12.28-.48.32.15-.86,1.32-1.36,1.44-2.45-1.2.32-1.71,1.28-2.42,2Z"/>
      <path class="cls-1" d="M37.73,119.72c-.42-.07-.71.17-.65.59.03.22.43.2.66.33l1.82,1.07c.06-1-.74-1.82-1.83-1.99Z"/>
      <path class="cls-1" d="M38.16,122.59c-.24.14-.1.7.04.87.2.24.57.02.71-.12.22-.22.37-.47.16-.65-.26-.23-.61-.27-.92-.09Z"/>
      <path class="cls-1" d="M33.53,118.55c.64.79,1.53,1.28,2.52,1.32l1.2-6.16c-.81.6-.93,1.42-1.42,2.1-.1.14-.51-.08-.55-.24-.25-.92.35-1.58.5-2.47l-1.67,2c.11.68.9,1.8.33,2.42l-.92,1.01Z"/>
      <path class="cls-1" d="M36.81,104.67c.17-.15-.04-.76-.44-.65-.3.09-.7-.02-.7.58.29.04.74.17,1.14.07Z"/>
      <path class="cls-1" d="M38.58,106.69l-.73.25c-.13.04-.39-.27-.75-.27.16,1.12,1.02,1.65,1.73,2.46-.37.11-.35.38-.34.57.01.34.42.47.63.22.12-.14.14-.5.07-.75.6-.76.38-2.22-.62-2.49Z"/>
      <path class="cls-1" d="M36.58,105.96c.27-.13-.01-.82-.29-.8-.71.47-1.29,1.12-1.52,1.92l1.82-1.11Z"/>
      <path class="cls-1" d="M41.15,98.55c.13.12.44-.03.51-.52l.24-1.79c-.82.29-1.1.9-.81,1.7.05.15-.03.52.06.61Z"/>
      <path class="cls-1" d="M65.35,52.06l-1.75,1.08c.6.63,1.93-.3,1.75-1.08Z"/>
      <path class="cls-1" d="M54.77,31.05c.49.6,1.86-.86,2.68-2.4-1.1.17-3.02,1.99-2.68,2.4Z"/>
      <path class="cls-1" d="M41.81,124.59c.09.25.1.31.2.41.11.11.38,0,.23-.24-.09-.13-.26-.49-.39-.57-.1-.07-.31.18-.37.43-.02.08.17.29.34-.03Z"/>
      <path class="cls-1" d="M40.1,94.86l.12,1.49c.59-.55.88-1.05.57-1.52-.11-.17-.53-.27-.69.03Z"/>
      <path class="cls-1" d="M14.32,99.14c-.18.05-.46.31-.82.58.52.22,1.07.19,1.58.19-.18-.55-.58-.82-.76-.77Z"/>
      <path class="cls-1" d="M34.57,80.47c.22-.28-.05-1.15-.39-1.09-.81.15-.83,1.3-.93,1.92.61-.22,1.06-.5,1.32-.83Z"/>
      <path class="cls-1" d="M28.34,154.54c.07.69.02,1.29-.47,2-.54-.6-.2-1.58.47-2ZM28.95,155.07c.12.16.23.26.31.32.23.14.18.3.05.44-.1.11-.26.29-.43.19-.16-.1-.15-.45-.05-.59-.16-.32.07-.28.12-.36ZM31.58,147.65c.07-.32.6-.57.71-.15.14.52.08,1.09-.07,1.87l-.38-1.03c-.11-.3-.33-.39-.26-.69ZM31.69,142.38c.16-.14.39-.16.48.09.04-.01.15-.04.21.02l.66.65c-.47.48-.89.33-1.31-.06-.28-.27-.32-.45-.04-.7ZM32.92,152.36c.05.19-.01.67-.17.84-.14.15-.56.01-.73-.12-.28-.21-.25-.55.15-.74.15-.07.7-.17.75.02ZM36.46,158.74c0-.13.1-.23.23-.23s.23.1.23.23-.1.23-.23.23-.23-.1-.23-.23ZM37.63,160.62c.08-.04.22,0,.32,0h.7c.25.02.18.41.02.41h-.53c-.22,0-.46.05-.6-.09-.06-.06-.06-.25.1-.32ZM40.49,158.14c.3-.52.9.26.88.51-.38.11-1.06-.19-.88-.51ZM36.17,144.37c.04-.13,1.57-.76,2.07-.23.45.47.23.86.16,1.49-.11.97.14,1.86-.4,2.79-.08.14-.14.51-.3.6-.17.09-.72.21-.7-.17.01-.37.31-.95-.08-1.12-.27.11-.55.2-.76,0-.22-.2-.31-.51-.07-.9l.56-.94c.31-.51-.57-1.16-.47-1.52ZM31.4,149.39c-.08.07-.29.16-.42.15-.16-.02-.08-.39,0-.46.06-.04.36-.13.4-.07.06.09.1.31.02.38ZM24.58,147.87c-.47-.19-.5-.81-.25-1.41,1.01.04,2.13-.12,3.05-.84.33-.26.5-.98,1.16-.98-.89,3.05-4.08,2.25-4.13,2.55-.02.09.02.26.17.69ZM24.74,148.23c1.38-.02,2.52-.39,3.61-1.04.14.28.29.53.62.53-.45.92-1.86.26-1.77,2.19-.5.07-1.2-1.17-1.65-.97-.17.08-.36.33-.41.62-.36-.33-.46-.86-.41-1.34ZM28.36,143.4c-.74-.76-.54-2.21.35-2.65.42-.21,1.07.41,1.28.82l-1.63,1.83ZM29.83,146.52c.41-.12.53.23.52.43,0,.35-.3.76-.83.53-.25-.1-.02-.87.3-.96ZM22.4,138.37l1.08-3.42c.08,1.18-.24,2.16-.48,3.32l-.26.39c-.07.1-.41-.03-.33-.29ZM19.74,118.14c-.09.11-.24.3-.58.17l.46-1.1c.13-.32.64.08.09.24.11.28.15.54.02.69Z"/>
      <path class="cls-1" d="M35.45,82.99c-.06-.64-.68-1.15-1.28-1.3.02.41.16.86-.06,1.22-.11.18-.28.45-.62.36l.37-.95c-.66.03-.46.77-.65.81l-.64.15c-.63.15.28.49,1.84.45.24-.29.63-.65,1.04-.74Z"/>
      <path class="cls-1" d="M35.92,123.29l1.87-1.47c-.53-.36-1.22.71-2.41.96.25-.79.81-1.08,1.28-1.77-1.21-.53-1.69,1.1-1.98,2.93.74.06,1.04-.15,1.24-.65Z"/>
      <path class="cls-1" d="M37.25,87.24c-.43,0-.5.11-.61.37-.06.14-.31.46.05.54.09.02.36-.27.5-.24.1-.13-.31-.41.06-.67Z"/>
      <path class="cls-1" d="M25.5,130.25l-.2-2.25c-.07-.73.17-1.5-.3-2.19-2.15,1.38-2.05,4.77-.63,7.23,1.29-.5,1.24-1.65,1.13-2.79Z"/>
      <path class="cls-1" d="M32.31,82.73c.17-.12.35-.25.55-.41.14-.12-.11-.48-.33-.41-.46.21-.8.68-1.04,1.04l-.02.2c-.34.03-.28.88-.03.87.33-.01.33-.51.24-.65-.03-.04,0-.17,0-.22l.62-.41Z"/>
      <path class="cls-1" d="M33.14,78.66c.11-.16.04-.53-.18-.51-.29.02-.51.36-.46.65-.34.15-1.05.7-.65,1.1.27.27.62-.29.65-.49.16,0,.33-.15.24-.39.25-.12.32-.24.4-.36Z"/>
      <path class="cls-1" d="M37.25,88.81l-.45-.04c-.07,0-.15.1-.14.23.22,0,.36.04.58-.18Z"/>
      <path class="cls-1" d="M43.13,12.81l-1.37.9c-.17.13.25.59.46.6.44.01,1.39-1.23.91-1.5Z"/>
      <path class="cls-1" d="M41.63,14.98c-.31.13-.29.07-.46.46-.36.82,2.15-1.17.46-.46Z"/>
      <path class="cls-1" d="M40.26,16.62c0,.13.4.15.49.1.07-.04.13-.09.2-.21-.03-.04-.1-.05-.08-.18-.34-.1-.6.18-.6.29Z"/>
      <path class="cls-1" d="M22.75,131.55c-.2-.09-.57-.32-.65.26-.15.02-.29-.23-.57-.31l-.13.4c-.06.19-.27.23-.56.24-.06.21.19.52.36.56.23.05.58.06.76-.13l.21-.22.37-.4c.12-.12.47.02.57.12.18-.42-.15-.43-.36-.54Z"/>
      <path class="cls-1" d="M2.8,71.41c.6-.16,0-1.57,1.1-1.59.42,0,.92.18.97.88l1.21-.15c.12,1,.89,1.28,1.43,1.25.04.73.22,1.13.77,1.49l2.13,1.37,3.56,1.49c.09.04.11-.61.02-.6-.08.01.41,0,.47-.13l-.93-1.54c1.31.34,2.43,0,3.37-.81.32.13.4.72.24.97-.4.61-1.54.6-1.1.96,1.68.63,3.16.14,2.51,1.08-.23-.13-.81.22-.85.75l2.22-.27c.11-.02.17.2.07.33-.13-.04-.23.1-.18.21.05.43.35.57.61.86.36.47,1.04.38,1.51-.08.19-.18.64.11.54.31-.48.97-1.43.58-2.27,1.49-.27.29.23,1.27.66,1.06-.01-.21-.12-.71,0-.8.09-.07,1.31-.42,1.48-.25.26.25.35.95.91.94.12,0,.24-.06.24-.24,0-.42-.78-.33-.77-.9,0-.31.3-.49.64-.32l2.6,1.33-1.23,1.1c-.16.14-.64.28-.57.59.04.15.27.34.59.63.47-.5.93-1.08,1.61-1.46.56-.31,1.34,0,1.39.76-.77-.06-1.54.17-1.82.73-.33.63-.45,1.26.11,1.72.35.29.78.39,1.04.53.56.31,1.13.09,1.5-.25l.86-.53c.67.54,1.42,1.14,2.2,1.19.26.02.59.48.98.3.31-.14.46-.5.27-.76-.15-.21-.23-.73-.62-.34-.26.25-.62-.39-.85-.44-.71-.1-1.88-.42-1.92-1.35-.02-.53.53-1.12.96-1.49l-.39-1.16c.8-.84,1.66-1.61,1.93-2.76l-2.12,1.04c.03-.47-.1-.86-.4-1.07-.66.59-1.53.45-1.87-.09,1.45-.66,1.67-2.38,2.49-1.62.22.2-.3.93-.68.9,0,.29.17.46.29.51-.02,0,1.72-.42,2.16-.96.35-.43-.25-.9-.36-1.21-.16-.49.55-.97,1-.75.32.16.61.56.94.97-.59-.15-.89.13-1.12.73.11.23.42.18.61.27.28.14.58.37.54.88-.42-.02-.86-.24-1.34.17.61.62,1.36.6,2.03.61.35,0,.79.24.99-.11.16-.29.29-.97-.17-1.05l-.89.54c-.22-.43.04-.9.13-1.41.24.25.6.33.85.2.77-.39.78-2.07,1.28-1.6.5.47-1.16,1.67-.56,1.89l.51.19-.85.3,1.65,1.17c-.57.31-.89.49-1.54.54.19.43.67.45.99.29.29-.14.25-.05.47.1.2.14.27.17.35.43l.55-.29c.08-.04.16-.18.23.09.08-.09.25-.13.29-.5l1.83,1.11c-.67,0-.92.49-1.29.63-.92.35-1.89.56-2.82.56-.1.11-.14.3-.14.46l-.11,2.93c-.4.04-.53.6-.9.68l-.55.11c-.17.04-.09.22-.01.25.87.36-.08,1.19.58,1.83.24.24.6.61,1.02.6.09-1.68-1.01-2.87-.2-3.04l.37,1.65c.17,0,.3-.15.42-.26.01-.08.03-.2.08-.25.13-.13.33-.23.68-.09l.38-1.58.55.85.33-.56c.14-.24.55.1.7.22l2.14-1.56c.41.63-.17,1.06-.5,1.61.91-.14,1.14-1,1.77-1.41.79-.25-.1,2.7.44,3.04.11.07.34.13.57-.04.14-.1.23-.26-.02-.65.78.05,1.34.25,2.12.11.32-.46.48-1,1.08-1.41l-.05,1.78c-.01.5,1.05.6,1.42.08l-1.11-.67c.06-.62.41-.73.79-.76.43-.03.86.11.97.7.3-.19.58-.14.75-.05.27.15.29.53.26.96,1.44-.76,2.29-2.3,4.21-1.72-.38.39-1.13,1.05-.8,1.54.6.9,2.01-1.01,2.75-.84.43.1.53-.27.66-.45.28-.39.22-.65-.03-1.1,1-.54,1.82-1,2.9-1.21l-.37-1.93c-.63.28-1.13.61-1.59,1.06l.14-.72c.04-.23-.21-.6-.51-.55.05.65-.6.44-.35-.13-.52-.07-1,.59-1.2,1.16-.56.18-1.01.01-1.47-.02l.02-1.13c-.58-.08-.92.43-1.04,1.07-.71-.04-1.45.31-2.46-.02.61-.5,1.39-.6,2.28-.84-.13-.59-.05-1.34.44-1.75,0-.19-.14-.25-.29-.25l-1.83.87c-.18.08-.41.04-.51,0-.08-.04-.19-.18-.17-.3.06-.58,2.31-.56,2.58-2.09l1.13-.02c.76-.01,1.39-.1,2.31.08-.14-.46-.88-.52-.75-1.27,1.37,1.45,1.77-1.19,3.26-.29-.26-.95.58-.82.65-1.43.02-.21-.4-.52-.49-.29-.13.31-.34.45-.59.41-.15-.03-.37-.27-.23-.46.35-.5.83-.4,1.36-.52l.49-.11c.14-.03.54.1.33.57.26-.05.54.09,1-.16-.4-.16-.65-.21-.81-.57.88-.53,1.49-1.15,1.89-2.04.53-.22.94-.41,1.29-.81-1.08-.45-2.09,1.73-3.9,1.86.58-1.33,1.96-2.17,2.21-3.4.11-.56,0-.97.65-1.59-2.09.4-2.25,4.22-4.64,3.86-.17.17-.48.46-.59.32-.23-.31-.28-.56-.04-.71.77-.46,1.36-.84,2.36-.85-.54-.46-1.24-1.02-1.9-.76l-3.02,1.22c.79-1.1,2.05-1.88,3.41-1.91l1.51.55c-.29-.63-.26-1.02.2-1.35.32-.23.75-.29,1.1-.7-1.61-.63-3.09,1.12-3.15.34-.01-.12.03-.28.19-.44l1.72-1.72c.27.3.54.31.84.38.24.06.52-.3.69-.61.86-.17,1.21-.72,1.55-1.35-.6-.37-.15-.65-.05-.82.19-.33.69-.26.96-.4.26-.13-.27-.71-.58-.52,0-.03,0-.14.07-.26.61.14,1.18.14,1.7-.41-.41-.31-.79-.2-1.14-.17-.05-.14,0-.39.13-.41.12-.02.47-.01.59-.13l2.53-2.56c-.24-.99-1.59-.71-1.56-1.73,1.65-.73,4-1.83,5.12-3,.19-.2.89-.37.38-.99-.29.51-1.3,1.05-1.69.4-.15-.24.22-1.04-.57-1.02-.34,0-.41.02-.98.27l-2.21.96c-.58.25-.89,1.49-1.71,1.55-.65.05-1.29-.6-1.65-.89,2.47-2.17,4.78-2.62,6.93-5.28-.17-.05-.23-.14-.2-.19.03-.06.23-.12.05-.42-.11.21-.45.08-.2-.12.12-.43-.34-.96-.69-1.07-.61-.18-1.01.2-1.35.69-1.33,1.94-3.24,3.27-5.01,4.75-.65.54-1.08,1.11-1.88,1.54-.72.38-1.27,1.15-2.12,1.67-.25.15-.65.05-.82.44-.11.26-.11.54.15.92l.27.39c.16.23-.08.41-.3.44-.48.07-.74-.73-1.02-.76-.17-.01-.37.52-.52.58-2.09.86-2.9,2.21-3.31,1.56-.13-.2-.09-.7.13-.69.44,0,.56-.17.75-.3.55-.41-.24-.89.13-1.08.14-.07.4-.06.42.04.04.14-.09.49-.19.7.63-.01.71-.64,1.11-.97.38-.31,1.35-.42,1.39-1.14.05-.74.55-1.86,1.25-1.42.55.34,1.12-.6.85-1.23.53-.4,1.13.04,1.52.06.73-.19,1.2-.96,1.65-1.47l1.62-1.84c.14-.04.57.02.68-.1.11-.13.17-.39.23-.66.32-1.46,2.24-2.12,2.32-2.99.05-.49-.42-.93-.56-1.34-.2-.6-.34-1.15-1.08-1.5.83-1.04,2.34-1.6,2.93-3.05-.62.12-.91.52-1.41.86l-.06-1.45-6.26,5.47c-.1.09-.36.24-.47.25-.14,0-.35-.26-.51-.49.14-.64.81-1.09,1.5-1.03l2.51-2.57c.76-.78,1.67-1.7,2.05-2.74-.04-.36-.97-.81-1.25-.58-.45.37-.68.99-1.34.96-.08-.26.03-.79-.31-1.09-.25-.22-1.01.19-.89.78.03.48-.52.38-.2-.15-.2-.16-.54.07-.79.1-.14-.02-.27.06-.41.14-.81-.82-.81-2.28-1.11-1.74-.04.07-.01.49-.08.53-.49.32-1.08,1.41-1.59,1.71l-1.93,1.12c-.47-1.22,2.03-1.61,2.25-2.3l1.12-3.48c.4-.5,1.28-.63,1.42-1.57-.49.14-1.03.05-1.41-.38-.39.43-.02.98-.15,1.24-.17.31-.43.39-.55.42-.16.03-.37-.23-.31-.39.05-.12.17-.31.13-.69-1.4.41-1.88,2.55-2.96,1.63-.39.51-.54.95-1.08,1.33-.29-.54-.04-.91.14-1.24.2-.37.66-.37,1-.39.44-1.19-1.05-1.44-1.92-2.71l2.09-2.35,2.54-2.42c-1.16.22-2.01.46-2.54-.63-1.18.84-2.14,1.74-3.33,2.85.2-1.59,2.44-3.24,3.27-5.04l-.35-.02c-.07,0-.15-.11-.14-.25-.65.48-1.24,1.04-1.81,1.76-.06-1.08.74-1.67,1.01-2.57.06-.21-.27-.76-.12-.86.79-.55,2.3-.72,2.59-1.64.16-.53-.35-.68-.58-.79-.36-.17-.89-.16-1.27.15-1.65,1.38-3.27.71-3.8,1.82-.12.26.29.72.71.65l1.83-.32c-.23.3-.45.36-.85.58.2,1.27-.66,2.26-1.03,3.23-.5,1.33-1.27,1.18-2.42,1.52-.7.21-1.31,1.9-2.57,1.29.21.68-.23.6-.27.77-.04.19-.46.27-.48-.02-.04-1.02,1.2-1.63,2.06-1.97-.02-1.01,1.36-1.78,2.41-2.41-.46-.29-.71-.3-.89-.31-.38-.03-.43-.35-.32-.66.04-.11-.1-.23-.32-.15-.2.53-1.22.79-1.79,1.23,1.09-2,3.75-3.42,3.62-5.04-1.04.3-1.1,1.28-1.79,1.51-.15.05-.34-.02-.23-.24.53-1,2.19-1.56,2.49-2.91l-2.16,1.07c-.99.17-1.88.69-2.76.21.04,1.18-1.84,1.3-2.14,1.18-.23-.09-.26-.53-.1-.69.16-.16.57-.14.94-.05.04-1.43.59-2.41,1.59-3.4.34-.34.3-1.22,1.09-1.29l-1.3,2.77c.65-.81,1.68-.89,2.7-.84.34-.17.75-.86,1.25-.83.65.03,1.09.78,1.26,1.53l3.67-2.42c.6-.4,1.15-.87,1.4-1.71l-3.51-.44,2.74-3.47c.83-1.06,2.19-1.7,2.74-3.09.04-.11-.2-.4-.3-.38-.11.03-.32.19-.44.27l-3.22,2.42c-.71.54-1.13,1.37-2.11,1.65,0-.4.33-.77-.04-1.24-.21,1.31-1.06,2.59-2.08,2.88.07.34.47.96-.05,1.32l-.21-.92c-.65,1.12-1.06,2.56-2.41,3.09.55-1.22,1.28-2.23,1.32-3.41-.25-.03-.51-.08-.62-.3-.17-.31-.79-.38-1.02-.09-.19.24-.42.75.21,1,.6.23.47,1.77-.22,1.9-1.64-1.33-.43.71-2.11,2.31-.47-.27-.56-.63-.85-1.01l-.81,1.5c-.17.3-.51.34-.74.67-1.45-1.14-1.67,1.29-3.86,1.3-.1-1,.72-1.55,1.02-2.33l.34-2.33-1.14.29-1.36,2.95-1.89.17c-.4.69-1.04,1.16-1.46,1.58-.22-.2-.59,0-.77-.03-.23-.04-.36-.02-.4.19-.02.12-.24.09-.28-.1l.05,1.27c-.78.49-1.83,1.64-1.29,2.58.37.64,1.5,0,1.89-.35.64-.57,1.08-1.26,2.06-1.23-1.25,1.72-3.39,3.65-4.63,2.77-.59.99-2.49,2.55-3.02,2.62-.36.05-.65-.71-.3-.89.61-.32,1-.68,1.43-1.07-.2-.02-.26-.13-.29-.29-.31.22-.88.2-1.18.71-.07.12-.48.34-.75.04,1.32-.23.76-1.87,3.04-2.82.33.27.49.42.73.24.46-.34.31-.61.39-1,.2-.88.9-1.58.62-2.65-.63,1.53-1.59,2.85-3.16,2.45-.15-1.14.66-1.94,1.72-2.28.48-.15,1.36-1.86.84-2.22-.25-.17-.51-.04-.73.3l-1.71,2.57c-.53-.24-.88-.61-1.45-.7-.08.49.66.58.76.82.19.48-.35.74-.68.74-.6,0-.98-1.04-1.42-.98-.35.04-.24.43-.41.58l-1.13.96c-.33.28-.99,1.06-1.42.74-.43-1.6,2.13-1.87.96-2.72-.52-.38.09-.94.32-1.25.95-1.24,1.97-2.51,3.22-2.38-.18.62.75.57.43-.08l1.58-.47c0,.5-.11.68.09,1.28l.94-1.04c.11.25.31.34.4.33.52-.02.51-1.37,1.03-1.64.46-.25.77.49.85.74.42-.09.38-.48.49-.58.11-.1.52.03.67.23l1.35-.52.06.6.03.32c.01.18.16.1.23.14.03-.71.14-1.37.72-1.68,1.81-.97,2.39.14,3.08.17-.04,0,3.14-1.68,4.1-3.02.14-.2.47-.67.14-.82-.42-.13-.92.34-1.2.52-.33.21-.77.43-1.19.33.56-1.18,1.99-1.79,1.21-2.73-.54.55-1.01.97-1.69,1.22l1-4.18c-2.08,1.94-.62,6.18-2.4,5.79.36.48-.29,1.27-.59,1.13-.59-.27-.23-1.17.38-1.48.67-.33.96-2.19.38-2.67-.73-.61-1.29,1.07-1.69,1.26-.17.08-.49.03-.52-.13l-.14-.93c-.47.61-1.1.82-1.6,1.39l-.43.5c-.17.2-.56-.12-.72-.11-.28.62-.89,1.14-1.65.88l-1.37,1.11c.04-1.69,1.51-.99,1.87-1.99-.39-.7.87-.6.58-1.06-.07.18-.63.48-.71.18-.07-.27.51-.59.74-.55.08.03.19,0,.21-.08.26-.24.62,0,1.09-.18-.21-.29-.35-.56-.28-.9.05-.23.25-.42.49-.72-1.16.05-1.72,1.17-2.24,1.21-.08,0-.21-.24-.05-.36l1.3-.94-.14-.31c-.35.28-1,.5-1.22.99l-.92,2.05c-.41.03-.49-.47-.33-.63l.4-.39c-.06-.59.05-1,.53-1.44-.55-.43-1.05-.41-1.53-1.08,1.41,0,2.02-.3,2.78-1.12.49-.53,1.71-.72,1.65-1.78-1.61,1.61-3.41,2.32-5.48,1.75-.7.27-1.23.93-1.88,1.4l-.55.17c-.1.03-.11.26.09.26l3.13-.07c-1.56,1.46-4.06.12-6.97,1.88l-3.07,1.87c-.13.08-.32-.15-.29-.24.05-.13.16-.31.02-.55l-2.27,2.6c-.16-.23-.04-.44,0-.58.03-.09-.26-.24-.39-.13l-.31.29c-2.56,1.05-2.28,2.16-2.5,2.55-.09.16-.38.14-.39-.03-.01-.11-.04-.3-.3-.31-.15,1.09-1.09,1.66-1.67,2.46l-3.04,4.21c-.85.77-.92,1.88-1.31,2.92-1.14,3.07-1.59,5.75-1.8,9.04-.09,1.54-.21,3.35-.16,4.8l.18,4.54c.35-.33.27-.85.89-.86-.68,1.27-.96,2.53-1.01,3.93l-.28,6.81c-.04.93-.78,1.76-.23,2.83.17-.15.45-.36.77-.42-.2,1.43-1.73,2.14-1.67,4.6.02.57-.64,1.24-.25,1.92l4.16-3.6c.74,1.81-1.74,2.31-2.63,3.49-.59.77-1.51.68-2,1.02-.59.55-.78,1.64-.73,2.32-.71,2.28-1.02,4.45-1.08,6.81-.15.17-.25.6-.16.76.07.15.46.11.66.06ZM38.76,83.19c.29-.11.7.01.6.59-.24-.14-.42-.33-.6-.59ZM55.03,82.95c.26-.18.52-.55.92-.41.21.07.13.41-.09.51l-.67.32c-.36.17-.58-.36-.15-.42ZM52.89,82.26c.1-.08.4-.1.49-.05.12.07.38.31.31.57-.06.22-.43.52-.83.68-.19-.4-.08-.82.04-1.2ZM57.46,74.67l-1.24,1.36c-.28-1.14.77-2.12,1.11-1.95.14.07.32.39.13.59ZM57.83,71.92c-.58.61-1.29.6-1.77.13.56-.26,1.15-.55,1.77-.13ZM67.99,47.69c.12-.11.39-.42.63-.18.23.25-.24.97-.72.83-.19-.06-.07-.5.09-.65ZM57.52,64.29c-.07.12-.45-.16-.69-.09-.09.09-.03.42-.29.54-.17.09-.69.06-.65-.25.87-.52,1.3-1.19,1.52-.7.04.09.19.36.1.49ZM60.22,63.78c0-.1-.04-.34.1-.39.01,0,.3.19.38.38-.19.35-.37.07-.48.01ZM62.3,61.9c0,.47-.46.82-.83,1.04v.2c0,.24-.34.51-.51.41-.27-.15-.3-.34-.33-.51-.03-.22-.05-.46.21-.52.26-.05.42.07.63.2,0-.35-.07-.81.05-1.17.08-.25.32-.29.46-.3.26-.02.41.15.31.43,0,.06,0,.17,0,.21ZM62.5,54.55c.31-.1.99-.2,1.37.09.28.22-.14.61-.31.67-.23.09-1.3-.26-1.25-.2-.1-.09-.07-.48.2-.56ZM61.74,55.96c.23,0,.19.24.28.31.18.16.13.39-.04.41-.21.03-.4-.04-.47-.13-.11-.15-.02-.59.23-.6ZM62.17,58.68c-.32,1.24-1.35,1.83-2.19,2.56-.64.56-1,1.33-1.85,1.79,0-.9.75-1.24,1.24-1.79.83-.94,1.44-2.17,2.81-2.56ZM60.15,54.77c.12-.14.26-.17.37-.11.14.07.09.27,0,.53l-.41,1.13c-.55-.31-.34-1.13.05-1.56ZM58.37,59.24c.19-.48,1.3-.4,1.2-.09-.6,1.71-2.36,2.55-3.87,3.21,0-1.22,2.05-1.57,2.68-3.11ZM54.75,65.14c.15-.22.5-.42.78-.4.18.01.24.25.09.35l-.32.23c-.13.09-.26.18-.39.17-.15-.01-.24-.24-.16-.36ZM54.46,65.38c.15.22.3.58.09,1-.08.11-.43-.18-.45-.32-.05-.27-.12-.57.36-.68ZM53.56,69.19c-.03-.13.12-.27.29-.2.17.07.24.59.06.78-.14.15-.46-.05-.54-.26-.05-.13-.04-.31.2-.32ZM61.68,38.58c-.03-.18.16-.3.31-.21.13.07.19.23.17.37-.03.06-.04.2-.17.26-.1.05-.25,0-.3-.1-.04-.07-.03-.21,0-.32ZM56.58,36.3c.21-.28.38-.41.62-.44.13-.02.33,0,.32.22-.02.29-.39.45-.65.48-.22.41-.64-.07-.29-.26ZM46.84,20.54c.45.45-.12,1.26-.49,1.34-.34-.38.1-1.43.49-1.34ZM46.18,24.26c.14-.03.18.49-.01.58-.14.07-.28-.02-.31-.11-.04-.14.05-.41.32-.46ZM51.04,13.74c.32-.22.62.37.59.64-.04.36-.13.99-.95.59.05-.24.04-1.02.35-1.23ZM47.84,15.73c.14-.03.18.48-.01.57-.14.07-.28-.02-.31-.11-.04-.14.05-.41.32-.46ZM34.52,65.33c-.23-.15.12-.83.43-.86.17.19.23.42.18.56-.05.15-.22.55-.61.3ZM35.69,34.98l.63-.61c.12-.11.4-.24.68-.17.19.04.17.41-.08.53l-.35.18c-.16.08-.23.17-.51.14.09.43-.04.65-.26.91l-.12.14c-.24.28-.62.45-1.15.69-.11-.73.35-1.65,1.17-1.81ZM35.69,31.69c.06.77.22,1.42-.41,1.72-.16-.7-.05-1.41.41-1.72ZM44.99,33.95c.12-.12.2-.18.34-.16.54.08-.64,1.24-.68,1.33-.08.19-.46.37-.47.2-.03-.69.48-1.05.81-1.37ZM44.47,29.24c.28.05.6.53.14.83-.23-.04-.34-.57-.14-.83ZM42.88,68.72l-2.08,1.36c-.24.16-.43.05-.48-.05-.08-.17.08-.35.29-.47l3.49-2.07c-.11.6-.71.9-1.22,1.23ZM43.25,74.4c-.08.05-.36.04-.33-.28.15-.28.39-.13.43-.03.05.12,0,.25-.1.32ZM42.55,71.28c0,.13-.1.23-.23.23s-.23-.1-.23-.23.1-.23.23-.23.23.1.23.23ZM40.1,64.04l.36.43c-.61.72-1.3,1.47-2.35,1.68.52-1.2,1.73-2.43,1.99-2.12ZM38.41,61.75c.14-.17.36-.03.36.06v.41c0,.11-.22.18-.32.1-.14-.12-.17-.42-.04-.57ZM39.28,57.12c-.13.02-.29.02-.41,0-.1-.02-.08-.29.17-.37.13-.04.21.12.26.16.1.07.09.2-.02.21ZM39.81,61.41c.11.2-.21.65-.56.56-.23-.06-.3-.76-.11-.85.26-.07.59.15.66.29ZM42.1,58.78c.63-.77,1.34-1.48,2.5-1.71-.52,1.04-1.71,1.42-2.43,2.44-.51.72-1.7,1.21-2.29.4.57-1.08,2.29.1,2.22-1.12ZM41.12,36.76c.14-.17.36-.03.36.06v.41c0,.11-.22.18-.32.1-.14-.12-.17-.42-.04-.57ZM41.66,55.4s.28-.14.32-.09c.05.08.02.28.02.4,0,.13-.21.15-.35.07-.13-.07-.07-.31,0-.38ZM43.76,64.5s-.12.17-.19.1c-.11-.29-.41-.49-.66-.75.38-.21.64.13.65.35,0,.11.15.25.2.3ZM41.6,63.26l.4-.32c.12-.09.42.15.52.33.14.27-.89.95-.94.92-.18-.12-.27-.22-.32-.34-.11-.24.13-.42.34-.59ZM40.95,61.92c-.18.05-.43-.16-.27-.37.07-.09.36-.08.47-.06.08.02.2.15.12.31-.1.19-.24.1-.32.12ZM42.32,65.34c-.14-.26.02-.49.09-.49.15-.01.31.41.22.55-.63.87-2.77,2.39-3.19,1.63.69-.94,1.76-1.5,2.88-1.69ZM41.26,71.93c-.36.58-.9,1.15-1.73,1.05.43-.61.89-.84,1.73-1.05ZM40.83,76.29c.28-.04.59.44.59.89,0,.21-.53.2-.69-.08-.11-.2-.2-.78.1-.82ZM43.98,72.71c.13,0,.23.1.23.23s-.1.23-.23.23-.23-.1-.23-.23.1-.23.23-.23ZM44.16,70.24c0-.13.1-.23.23-.23s.23.1.23.23-.1.23-.23.23-.23-.1-.23-.23ZM44.2,62.36c-.15-.68,1.4-1.36,1.54-1.28.21.12.22.91-.52,1.36-.28.18-.96.2-1.02-.09ZM45.57,56.45c-.29-.02-.39-.11-.45-.17-.07-.07-.06-.15,0-.22.13-.16.51-.15.65-.03.14.12.15.43-.2.41ZM45.02,37.98c-.13,0-.23-.1-.23-.23s.1-.23.23-.23.23.1.23.23-.1.23-.23.23ZM44.58,41.24c-.98,1.27-2.36,2.43-2.4,1.55.68-.64,1.48-1.24,2.4-1.55ZM42.84,35.31c.3.04.37.48.3.65-.06.15-.35.44-.54.27-.29-.27-.03-.96.24-.92ZM43.3,31.2c-.1.26-.78-.24-.81-.56,0-.1,0-.17.03-.23.13-.37.47-.45.65-.26.21.22.3.59.13,1.06ZM42.94,27.32l-.71.28-.45.34c-.18.14-.44-.07-.44-.32,0-.38,1.04-1.23,1.83-1.33-.19.4-.31.63-.22,1.03ZM41.42,30.81l.58-.27c.13-.06.47.4.35.55-.41.54-1.07.69-1.55,1-.68.44-1.43.77-1.96,1.65-.2-1.53,1.32-2.34,2.57-2.92ZM39.73,26.5c-.07.08-.17.26-.39.21-.17-.03-.2-.28-.14-.46.08-.25.28-.37.42-.28.25.16.23.4.11.53ZM37.82,31.03c-.52-.34-.31-.95,0-1.22.27-.23,1.1-.4,1.33.28.16.47-.89,1.24-1.34.94ZM38.08,48.63c0,.09-.25.07-.33.03-.09-.05-.12-.19-.08-.43h.34c.09,0,.07.27.07.4ZM37.51,63.17c-.02-.07.06-.24.12-.21.07.02.26.06.33-.1l-.24.5-.17.05-.83.62c-.12-.62.47-.72.79-.86ZM35.86,64.21v.19c0,.13-.09.2-.2.32-.08.09-.16.12-.22-.01-.05-.12,0-.25,0-.31,0-.06.01-.15,0-.21-.06-.25.05-.43.21-.53.19-.12.3-.13.63-.1-.18-.27.13-.48.22-.33v-.27c-.05-.15.18-.31.27-.42.07-.08.21-.35.32-.02.11-.08.26.11.23.23l-1.47,1.46ZM35.91,55.92c.14-.17.36-.03.36.06v.41c0,.11-.22.18-.32.1-.14-.12-.17-.42-.04-.57ZM37.06,55.83c-.28.23-.49.16-.71-.11-.2-.25-.05-.48.29-.74.26-.2.46-.12.58.05.2.28.12.56-.16.79ZM34.77,68.15c.06-.11.05-.19.04-.27-.02-.38.59-.09,1.39.5-.56.43-1.1.13-1.44-.23ZM36.24,72.81c-.12.1-.3.3-.9.29-.2-.29.37-.96.72-.86.28.07.29.48.18.58ZM35.42,67.47l1.29-.95c.16-.12.5-.21.58-.11.16.19.27.48.02.68-.56.47-1.15.73-1.89.38ZM36.89,72.56c-.14-.74.44-.88.89-1.25.26-.21.5-.64.88-.21l-1.78,1.46ZM39.31,77.73c-.06-.04-.14-.06-.12-.21h-.23s.03.14.02.21c.2-.04.24.14.11.22-.1.07-.25.16-.3.22-.03.12-.19.21-.33.21-.07,0-.26.06-.28-.13,0-.08.25-.38.59-.31v-.2c-.17-.05-.37-.15-.47-.51.43-.23,1.3-.3,1.52.28.07.19-.35.34-.51.22ZM39.97,74.22c-.47.07-.34-.42.04-.25.26.03.18.31-.04.25ZM40.24,78.76c.72-.6,1.33-.87,2.2-1.22.02.83-.64.76-1.18.84-.22.12-.52.83-1.02.38ZM44.57,85.07c-.07.16-.21.37-.68.29l-.46-.08c-.12-.02-.35-.19-.19-.27l.45-.24c.24-.13.34-.24.59-.25.21,0,.42.24.29.55ZM44.57,80.75c-.76-.08-.83-1.27-.99-2.07-.82.42-1.3,1.12-2.25,1.05.04-1.02,1.76-.8,2.25-2,.59.16.34.71.42.96.25.8,1.01.74,1.75.68.12.45-.62,1.39-1.18,1.38ZM45.53,63.63c-.09-.02-.25.18-.31.42-.06.24-.82.09-.84-.26-.03-.42.4-.5.59-.57.3-.12.93-.08.9.32-.08.29-.28.11-.34.1ZM48.15,81.29c-.06.29-.58.61-.86.5-.19-.07-.23-.32-.2-.4.04-.07.1-.15.27-.12l.24.04c-.1-.19.04-.25.11-.35.14-.19.41-.16.44.12v.21ZM47.53,68.51c.12-.23.34-.4.54-.58.22.37.04.55-.09.69-.11.11-.18.19-.34.16-.08-.01-.18-.12-.11-.27ZM48.85,83.58c-.07.14-.32.24-.42.17-.21-.16-.17-.56,0-.71.21-.17.47-.08.48.04.02.24-.02.39-.07.5ZM48.97,81.03c-.25,0-.17-.75.18-.71.2.02.32.69-.18.71ZM49.82,65c-.12.18-.18.28-.18.39,0,.16-.23.32-.35.25-.25-.14-.19-.37-.14-.6l.13-.61c.03-.14.21-.22.44-.05.12.09.35.24.09.63ZM51.05,84.75c.05.27-.31.51-.51.5-.27-.02-.52-.2-.49-.5,0-.05,0-.1,0-.14-.05-.24.34-.53.49-.41.22.17.49.36.52.55ZM50.94,71.93c-.04.08-.3.17-.36.1-.06-.08-.07-.31-.03-.47.02-.06.26-.02.33.03.07.06.11.24.05.34ZM51.56,58.68c-.57.81-1.29.46-1.6,1.14-.12.27.31,1.13-.36,1.2-.14-.41-.21-1.5.18-1.81.45-.35,1.07-.39,1.5-.8.13-.12.37.13.27.27ZM52.85,69.82c.06.09.03.18-.03.22-.16.09-.39-.07-.28-.27.13-.24.28,0,.31.05ZM60.4,46.88l4-2.84c.1-.07.55.05.57.26.03.24-.33.21-.41.28l-2.75,2.28c-2.23,2.18-4.37,4.34-6.99,6.11-.6.17-.83.76-1.73.77.39-1.07,1.4-1.73,2.27-2.49l3.3-2.88,1.72-1.47ZM60.32,39.06c.18.05.46.39.63.46-.04.47-.42.72-.61.68-.31-.07-.46-.3-.54-.48-.14-.34.14-.64.51-.66ZM58.49,40.74c.42.07.74.04,1.37.41-.36.54-.94.86-1.51,1.28-.3-.7,0-1.07.15-1.7ZM58.67,44.34c.23-.01.72.21.74.49-1.04,1.27-2.26,2.34-2.42,1.55,0-.04,1.11-2,1.68-2.03ZM56.81,39.38c.27-.22.57-.25,1.07-.14-.13.34-.54.81-1,.78l-.23.04c-.37-.31,0-.54.17-.68ZM56.28,47.39c-.34.02-.71-.27-.66-.73.01-.13.39-.16.46-.06.08.11.37.23.2.79ZM56.03,43.15c.1.92-.44,1.68-1.35,2.14.27-.81.68-1.52,1.35-2.14ZM54.39,37.02c-.02-.16.04-.34.31-.33.11,0,.35-.04.33.28l-.02.22c-.01.18-.35.44-.51.35-.22-.14-.1-.4-.12-.51ZM55.68,47.7c-.87.97-1.68,2.14-3.1,2.89,0-1.12,2.01-3.57,3.1-2.89ZM52.88,46.39c.02-.06.27-.11.34-.07.08.06.08.27.03.39-.05.14-.18.22-.33.11-.14-.11-.11-.24-.04-.44ZM52.72,35.35c-.24.17-.4.5-.63.84-.21.33-.65-.08-.31-.32.2-.14.31-.29.32-.41,0-.13.09-.23.2-.33.09-.08.28-.07.42.22ZM51.26,33.7c.05-.06.09-.13.23-.12-.02-.1-.02-.17-.02-.2.03-.22.25-.33.41-.52.13-.16.43-.2.43.12v.26c-.23.24-.48.61-.83.76-.19.08-.31-.22-.23-.3ZM50.7,30.09c.14-.07.25.07.29.14.1.15-.05.27-.12.36-.15.19-.38.18-.42-.03-.02-.13.09-.38.24-.46ZM50.06,34.26c.15-.13.32-.06.37.05.1.21-.28.51-.32.5-.14-.04-.17-.45-.05-.55ZM50.41,37.35c-.38.81-1.03,1.33-1.7,1.57.07-1,1-1.93,1.7-1.57ZM47.94,43.78c-.02-.21.17-.28.31-.21.17.09.14.31.01.42-.08.07-.16.22-.34.18-.21.3-.28.48-.4.49-.25.28-.49-.14-.32-.27.2-.15.27-.36.52-.4-.03-.13.07-.24.21-.21ZM48.06,60c.11.76-.88,1.14-1.03.84-.32-.59.97-1.31,1.03-.84ZM46.88,39.29c.23-.13.43-.06.68.25.19.24.06.37-.04.43-.17.11-.48.11-.67-.1-.19-.21-.1-.5.03-.57ZM48.36,60.84c.05-.18.35-.36.66-.3-.27,1.12-1.15,2.68-2.77,2.31.72-.66,1.8-.92,2.11-2.01ZM46.36,59.05c-.29.2-.66-.34-.46-.6.24-.02.62.49.46.6ZM45.65,37.04c.05-.1.2-.3.31-.32.35-.08.37.3.32.51-.03.11.06.32-.29.33h-.14c-.24,0-.28-.35-.19-.51ZM45.67,40.54c.12.09.21.27.15.42-.06.17-.19.14-.29.13-.19-.01-.44-.17-.27-.45.13-.22.34-.14.41-.09ZM45.6,24.56l-.72,1.36c-.14.27-.4.34-.57.4-.15.05-.61-.24-.51-.44.26-.55.82-.92,1.22-1.26v-.2c0-.26.21-.21.32-.23.25-.04.38.14.26.37ZM43.79,23.34c.37-.82.78-1.3,1.42-1.79.28.41.39.59.48.96-.65-.61-1.14,1.63-1.25.9-.02-.1-.12-.29-.43-.18-.73,1.18-2.77,2.38-2.89,2.36-.27-.03-.34-.24-.4-.48-.1-.38,1.59-1.28,2.68-2.92.07.53-.05.83.39,1.15ZM43.33,18.57c.11,0,.21.09.21.21s-.09.2-.21.2-.21-.09-.21-.2.09-.21.21-.21ZM41.06,19.2c-.03-.12.13-.28.3-.2.17.14.23.73.04.99-.12.16-.48-.1-.53-.27-.06-.21-.07-.47.19-.53ZM41.21,21.06l1.34-1.64c.83-1.02,1.19,1.1-1.98,3.64-.36-.78.18-1.43.64-2ZM38.67,16.68c.29.52.06,1-.47,1.27.06-.61.13-.9.47-1.27ZM38.33,23.32c.15.07.27.14.26.32.46-.07.2-.68.31-.89.21-.39.57-.08.77.06.18.12.46.33.19.62-.34.36-.76.94-1.23,1.02-.41.06-.88-.35-.88-.68,0-.23.29-.57.58-.44ZM37.16,18.83c.55.47.79,1.32.06,2.1-.48-.55-.38-1.18-.06-2.1ZM35.6,20.92c.13-.07.48-.1.57-.01.08.09.22.35.08.87-.07.21-.54-.05-.66-.41-.06-.18-.09-.39.01-.45ZM35.22,24.32c.11-.11.32-.22.47.07.14.28.37.46.6.66.27-.05.43-.3.68-.62.18.19.21.47-.05.77.42-.02.74.08.74.53,0,.3-.26.84-.56.7-.1-1.01-.75-.07-1.32-.16-.14-.02-.07-.45,0-.57-.2.06-.44-.15-.32-.32l.21-.32c-.14.17-.55.32-.61.04-.09-.37-.03-.58.18-.79ZM34.44,33.61c.08-.15.48-.12.64-.06.11.05.11.21-.05.37-.08.08-.05.31-.31.27-.22-.04-.44-.31-.29-.58ZM34.39,12.43c.19-.18.6-.16.63.08.03.28-.29.46-.44.46-.08,0-.2.03-.25,0-.29-.21-.07-.41.07-.54ZM33.17,13.85c.02.29.09.62-.39.69.1-.31.08-.67.39-.69ZM31.16,7.55c.11.02.23.24.04.41-.08.07-.2.19-.31.24l-.23.28c-.2.25-.49.09-.43-.2.09-.45.52-.81.94-.73ZM30.05,10.35c.11-.21.61-.15.62.11,0,.25-.25.26-.32.22-.06-.03-.17.11-.18.21-.17.02-.32,0-.35-.21.34-.07.19-.24.24-.33ZM30.12,12.11c.21-.03.56.17.16.47-.08.06-.03.24-.04.26-.11.23-.53.1-.6-.19-.06-.22.13-.48.49-.54ZM28.01,13.23l.27-.23c.12-.1.24-.08.2.1l-.09.45c-.05.25-.27.27-.36.23-.16-.07-.22-.39-.03-.55ZM25.85,13.8c.35,0,.34.7-.1.79-.18-.05-.2-.79.1-.79ZM21.33,71.41c.28-.06.3.11.3.2,0,.21-.14.16-.22.18-.23.07-.52-.29-.08-.39ZM21.05,49.62c0-.13.1-.23.23-.23s.23.1.23.23-.1.23-.23.23-.23-.1-.23-.23ZM21.77,74.17c-.12.1-.39.07-.39-.13,0-.13-.08-.31.16-.43.17-.08.28.04.3.11.03.13.02.38-.06.45ZM22.18,68.49c-.18.11-.58-.1-.47-.4.13-.35.45-.1.49.02.04.1.1.3-.02.37ZM23.29,77.35c-.29-.3-.36-.8-.11-1.37-.41-.08-.54-.32-.65-.63-.11-.33.18-.51.21-.7-.16-.97,1.61-1.27,2.03-1.15.39.11.69.06,1.14-.35.25-.22.58.34.34.48l-.45.27c-.83.5-1.45,1.03-2.46,1.42-.16.06.14.56.35.57.26,0,.42.01.87-.23-.18.65-.38,1.41-1.27,1.71ZM23.98,57.01c0,.11-.22.18-.31.1-.14-.12-.17-.42-.04-.57.14-.17.36-.03.36.06v.41ZM24.72,71.99c-.16.42-.46.48-.61.47-.18-.02-.45-.3-.31-.51.26-.38,1.01-.19.92.04ZM27.15,58.81c.15.03.43.13.53.28-.04-.05-.9,1.68-1.21.81-.06-.18.61-1.1.68-1.09ZM25.49,58.08c-.17-.19.36-.78.61-.74.13.02.18-.02.2-.12.27-.34.63.13.27.31-.22.39-.72.83-1.08.55ZM26.73,36.61c-.06.06-.37-.01-.36-.11l.06-.46c.02-.16.46-.17.41-.09-.11.41-.04.59-.11.66ZM26.7,32.85c-.03.1-.21.16-.3.11-.07-.04-.22-.12-.23-.36,0-.08.35-.11.42-.06.07.05.17.12.11.31ZM26.26,55.35c.07.21-.54.5-.7.48-.13-.02-.18-.15-.1-.27.1-.14.18-.18.42-.3.18-.09.33-.07.38.09ZM25.49,69.45c.18-.22.58.2.55.26-.06.15-.22.1-.3.11-.25.05-.42-.18-.25-.38ZM25.2,78.75c-.03.15-.52.09-.59-.06-.34-.65-.03-2.18.63-2.55.27.97.14,1.76-.03,2.61ZM27.4,84.18c-.26.08-.49.23-.79.28-.3-.11-.6-.05-.67-.47-.08-.48.8-1.09,1.38-.94.2.05.6.22.53.49-.08.29-.16.59-.45.64ZM28.79,80.15c-1.06-.35-1.78-1.24-2.14-2.24.95.65,1.41,1.41,2.14,2.24ZM27.72,76.38c-.35.19-1.44.15-1.79-.22-.16-.16-.31-.74,0-.88.51-.15,1.03.65,1.59.6.34-.03.12-.28.02-.37-.14-.13-.29-.32-.65-.31.14-.32.57-.53.91-.36.48.24.07,1.46-.08,1.54ZM29.33,66.32c-.07.12-.22.25-.38.08-.08-.08-.17-.27-.07-.52.03-.07.28-.03.36.06.09.09.22.18.09.38ZM28.41,55.62c-.05.31.07.82-.13,1.06-.58,0-.13.36-.24.45-.19.14-.44.14-.54.05-.11-.1-.29-.56-.16-.59.11-.03.46-.06.43-.34l.39-.28s-.06-.26,0-.35l.87-1.13c.19-.25.71-.36.9-.05-.35.54-1.04.98-1.53,1.2ZM30.56,73.5c-.11-.09-.06-.57-.04-.71.33-.05.41.07.46.3.06.29-.21.56-.42.4ZM30.22,64.56l1.3,1.15c-.63.15-1.42-.34-1.3-1.15ZM34.15,70.8l-2.01,1.94c-.2.19-.69-.21-.59-.34.22-.29.52-.59.76-.72.05-.03.15-.02.21.02.22-.33.51-.65.84-.86.22-.14.38-.19.64-.2.1,0,.23.1.16.16ZM32.79,44.67c.14-.17.36-.03.36.06v.41c0,.11-.22.18-.32.1-.14-.12-.17-.42-.04-.57ZM32.65,30.03c-.16-.06-.47-.29-.28-.71.08-.17.51-.16.66-.11.16.06.2.41.03.61-.08.09-.25.27-.41.21ZM32.43,39.83c-.17-.06-.34-.19-.18-.48.05-.08.26-.11.32-.06.12.1.21.33.16.43-.08.16-.21.14-.3.1ZM32.96,66.5l.19-.02c.2-.02.32.21.21.31l-.27.25c-.45.41-.72.89-1.43.63l1.3-1.18ZM34.13,66.31c-.08.19-.21.46-.59.24-.17-.1-.24-.3-.63-.34.23-.22.52-.17.77-.08.14-.16.05-.48.02-.65.57-.01.58.47.42.83ZM32.01,26.29c.17-.17.3-.46.73-.41-.05.28-.05.48.15.65.12-.67.47-1.08,1.15-1.06-.2.65-.32,1.23-.28,1.85-.25.11-.44-.11-.52-.18-.21-.18-.71.62-.83.59-.24-.07-.65-1.17-.4-1.43ZM32.65,34.4c.13.37.13.72.06,1.12-.04.22-.7.31-.9-.06.39-.37.68-.64.84-1.06ZM28.6,29.55c.16-.28.41-.38.88-.13-.1-.84.53-.77.72-1,.39-.48.78-1.12,1.35-1.5.15.14.17.6.1.85-.39.51-.74,1.11-.6,1.84-.28.13-.6-.12-.76-.13-.27.22-.01.69.27.77.17.04.46-.15.74-.16.32-.01.35.63.18.85-.11.14-.33.2-.64.3l-.56.18c-.11.04-.29-.34-.39-.27-.16.12-.35,0-.48-.04-.1.2-.29.25-.5.18-.09-.03-.76-.93-.3-1.74ZM27.53,54.2c0-.22.15-.21.2-.24.14-.24.36-.53.61-.53l.02.88s-1.23.56-1.04.02c.03-.08.09-.15.22-.12ZM27.16,31.23c.27.33.27.68.27,1-.4.12-.42-.14-.46-.25-.07-.23-.12-.54.19-.75ZM27.16,22.4c.16-.19.23-.28.38-.17.12.09.24.26.21.41-.01.07-.14.15-.32.1-.24.23-.26.71-.86.68-.22-.4.26-.71.59-1.02ZM26.83,27.59c.31.64.02,1.34-.55,1.74-.44.31-1.25.27-1.98-.14.67-.65,1.22-.48,1.85-.67l.06-.71c.02-.23.5-.46.62-.22ZM22.56,24.36c.72-1.04,2.25-.92,3.7-2.69-.08,1.89-1.47,3.36-3.31,3.43-.33.01-.5-.58-.39-.74ZM21.63,19.48c.14-.55.91-.8,1.5-.84-.2,1.03-.7,1.86-1.47,2.76-.14-.69-.19-1.28-.03-1.92ZM21.18,22.63c-.12.44-.49.59-.61.55-.06-.34.04-.47.16-.69.07-.14.56-.26.45.14ZM20.67,20c-.08-.17,0-.31.09-.37.11-.06.26-.01.31.1.04.08.05.29-.22.36.08.17,0,.31-.09.37-.11.06-.26.01-.31-.1-.04-.08-.05-.29.22-.36ZM20.36,24.58c.41.14.47.33.7.58.44-.37.89-.52,1.4.07-.62.57-1.09.97-1.86,1.39-.33-.7-.25-1.34-.24-2.04ZM20.47,53.77c.23-.02.42.71-.05.82-.24.06-.37-.79.05-.82ZM19.24,56.12c.19-.22.58.21.55.26-.09.2-.23.1-.32.12-.19.05-.42-.18-.24-.38ZM18.89,58.48c.16-.1.4-.07.47.03.1.14.03.4-.06.48-.09.08-.32.18-.43.12-.19-.1-.16-.52.02-.63ZM7.74,37.74c.17-.02.21.16.27.21.26.09.22.63,0,.63-.37,0-.48-.32-.49-.51,0-.16,0-.3.21-.33ZM6.81,53.43c-.02-.18-.03-.32.16-.44l.29-.19c.07-.05.23-.05.28.04.08.15-.21.37-.39.62-.06.08-.33.07-.34-.03ZM7.24,55.84c-.38-.57.3-.95.42-.77.19.29-.27.79-.42.77ZM7.85,40.25c.17-.15.3-.54.77-.35-.37.23-.46.57-.58,1.03-.41-.07-.4-.5-.19-.68ZM8.78,47.22c0,.11-.22.18-.31.1-.14-.12-.17-.42-.04-.57.14-.17.36-.03.36.06v.41ZM8.74,67.07c.4.75-.07,1.38-.67,1.71-.12-.83.38-1.15.67-1.71ZM14.93,72.92c-.14.13-.36.31-.77.33l-.87.04-.34.65c-1.36.42-2.94-1.48-2.9-1.32-.06-.24.06-.49.24-.67l2.35-2.35c.2,1.42-.63,2.22-1.68,3.13.81-.09,1.49.01,1.98.09.53-.51,1.33-.9,2.04-.62.16.06.08.61-.05.73ZM10.3,64.92c.05-.69.69-1.16,1.53-.8-.35.58-.88.89-1.53.8ZM12.86,67.37c-.04.43-.81.96-1.29.92-.1-.38.07-.7.25-.97.16-.24.81-.36,1.04.05ZM10.77,70.13c-.34-.39.27-.88.41-.68.2.3-.24.8-.41.68ZM13.21,51.96c.14-.17.36-.03.36.06v.41c0,.11-.22.18-.32.1-.14-.12-.17-.42-.04-.57ZM14.92,53.37c-.02.71-.17,1.21-.71,1.69-.27-.64.16-1.32.71-1.69ZM14.39,50.11c.57-.25,1.1.2,1.03.78-.37-.33-.61-.61-1.03-.78ZM15.23,70.75c-.11.19-.31.39-.77.35-.32-.02-.37-.34-.11-.5.16-.19.36-.43.57-.36.17.06.4.36.31.5ZM15.78,58.39c-.12.15-.26.18-.4.11-.15-.08-.19-.31-.04-.45.11-.1.25-.09.36-.01.12.08.2.21.09.36ZM15.94,57.74c-.14-.42-.17-.8.13-1.16.44.45.26.95-.13,1.16ZM16.67,61.68c-.24.06-.37-.79.05-.82.23-.02.42.71-.05.82ZM16.54,38.62c.1-.15.36-.03.36.05v.41c0,.08-.1.15-.22.03-.14-.14-.28-.27-.14-.49ZM17.84,60.67c-.25.06-.46-.2-.26-.48.15-.21.25,0,.3.06.12.14.09.39-.04.42ZM17.97,49.11c-.12.12-.38.2-.43-.1-.02-.1-.04-.34.01-.5.08-.23.38-.18.51.06.1.17.18.29-.09.54ZM17.72,22.66c.29,0,.41-.61.49-.98.59.64-.14,1.47-1.25,2.03-.23-.09-.24-.59-.13-.76.16-.24.52-.29.89-.3ZM16.9,19.39c.04.17.03.51,0,.73-.04.26-.41.18-.4.03l.03-.56c-.23-.31.28-.59.38-.19ZM15.87,14.76c.04-.1.2-.32.31-.3.15.03.27.2.32.3.06.13-.03.32-.21.29.02.14-.08.23-.22.22-.24-.02-.27-.34-.2-.51ZM16.26,44.07c.28.45-.07,1.6-.16,1.71-.18.21-.58-.05-.47-.28l.64-1.42ZM15.66,53.46c.02.08.03.23-.08.31-.06.05-.26-.14-.24-.3.03-.2.29-.14.32,0ZM14.62,21.43c.07-.1.18-.26.36-.33.12.24.1.7-.04.79-.42.12-.41-.33-.32-.46ZM15.22,46.8c-.03-.1-.27,2.25-1.22,2.63-.07-1.47,1.1-3.13,1.22-2.63ZM13.99,27.73c.13,0,.23.1.23.23s-.1.23-.23.23-.23-.1-.23-.23.1-.23.23-.23ZM13.34,47.31c-.24.06-.37-.79.05-.82.23-.02.42.71-.05.82ZM12.9,37.34c.36,0,.47.33.48.51,0,.16,0,.32-.26.33-.22,0-.17-.19-.23-.2-.21-.06-.25-.63,0-.63ZM12.62,48.2c.24.04.52.57.46.99-.25.08-.39-.12-.5-.31-.09-.15-.34-.49.04-.68ZM11.96,24.89c.14-.17.36-.03.36.06v.41c0,.11-.22.18-.32.1-.14-.12-.17-.42-.04-.57ZM11.97,31.95c.07-.04.27.08.26.14-.01.1-.02.3-.08.37-.08.09-.36.05-.37-.07-.02-.18,0-.33.19-.44ZM11.47,44.96c.07-.23.55-.42.58-.09.06.56-.47.81-.7.96-.25-.36.01-.54.12-.87ZM11.45,48.92c.13-.08.4-.17.54-.14.11.02.3.18.21.41-.12.3-.22.54-.4.63-.18.09-.45.04-.58-.26-.08-.19-.15-.41.23-.64ZM11.07,62.1c.21.32-.5,1.06-.93.74-.38-.29.59-1.25.93-.74ZM10.05,27.32c.26.07.27.46.19.69-.12.36-.58.14-.39-.22-.09-.23-.01-.44.2-.47ZM9.85,65.01c.14-.02.3.43.21.92-.19.21-.39-.05-.44-.2-.09-.28-.07-.68.23-.72ZM9.91,70.54c.02.19-.18.25-.26.33-.07.08-.12.29-.45.2.06.4-.2.61-.51.63-.22.01-.48-.15-.51-.45-.08-.09-.08-.37.15-.53.04.2.2.15.25.14.06-.02.14,0,.19,0,.16.08.41.01.42-.11.01-.09.04-.3.07-.37.07-.16-.22-.74.15-.38.25.18.46.29.49.55ZM9.41,44.1v.41c0,.11-.22.18-.32.1-.14-.12-.17-.42-.04-.57.14-.17.36-.03.36.06ZM8.9,41.15c0-.06.33-.14.39-.1.08.05-.07.24,0,.39.1.24-.17.31-.31.12-.05-.07-.09-.16-.07-.41ZM8.93,63.52c.32-.85,1.22.97-1.35,3.52-.29-.41-.2-.84-.17-1.23.02-.28.77-.25.9-.6l.62-1.69ZM5.49,64.58c.29-1.36,1.93-1.42,2.81-2.5.77,1.03-1.07,2.21-2.81,2.5ZM8,61.11l.28-.27c.06-.06.37-.02.29.36-.05.23-.02.63-.13.68-.14.07-.44-.14-.59-.2-.17-.07-.08-.34.16-.57ZM5.28,62.24c.2-.35.64-.17.98-.3l.39-.15c.06-.03.21-.03.23.04.04.15-.05.34-.23.45l-.97.6c-.3.19-.52-.43-.4-.64ZM5.25,66.68l1.14-1.09c-.05.59-.56,1.46-.84,1.58-.18.08-.53-.27-.3-.49ZM4.23,63.44c.3.48.23.89.11,1.37-.5-.33-.52-.95-.11-1.37Z"/>
      <path class="cls-1" d="M35.55,15.9c-.17.12-.14.45-.12.61.23-.05.51-.22.66-.39-.03-.27-.38-.33-.54-.22Z"/>
      <path class="cls-1" d="M30.33,23.69c-.02.16.17.35.24.3.13-.09.1-.23.08-.31-.04-.13-.29-.2-.32,0Z"/>
      <path class="cls-1" d="M52.59,17.43c-.12.11-.29.15-.3.33l-.03.2-.95,1.01c.9-.37,1.67-.85,1.6-1.51-.01-.13-.19-.14-.33-.03Z"/>
      <path class="cls-1" d="M31.48,19.31c.23.13.48.3.77.32-.06-.48-.46-.55-.77-.32Z"/>
      <path class="cls-1" d="M36.7,15.13c-.11.08-.25.3-.16.51.05.12.22.35.37.06,0-.02.08-.05.17,0,.32-.04.29-.28.15-.45-.16-.18-.33-.25-.53-.12Z"/>
      <path class="cls-1" d="M21.98,124.86c-.08,1.77-.24,3.18.03,4.81.89-.53,1.02-3.89-.03-4.81Z"/>
    </g>
  </g>
</svg>