<?xml version="1.0" encoding="UTF-8"?>
<svg id="Layer_2" data-name="Layer 2" xmlns="http://www.w3.org/2000/svg" viewBox="0 0 117.91 169.33">
  <defs>
    <style>
      .cls-1 {
        fill: #fff;
      }
    </style>
  </defs>
  <g id="Layer_1-2" data-name="Layer 1">
    <g>
      <path class="cls-1" d="M29.81,6.53c.11-.45-.43-.54-.61-.35-.27.3-.32.99-.07,1.6.19-.38.54-.7.67-1.25Z"/>
      <path class="cls-1" d="M26.86,20.55c-.18.23-.43.55,0,.87.21.16.74-.37.64-.71-.08-.28-.5-.35-.65-.16Z"/>
      <path class="cls-1" d="M20.25,26.14c.2.11.77.44.89-.07.24-1.06-.4-2.11-.82-2.99-1.03.66-.81,2.67-.07,3.06Z"/>
      <path class="cls-1" d="M30.47,22.43l-.97-2.33c-1.43.62-.84,3.35-.75,3.4.41.19.61-.71,1.72-1.07Z"/>
      <path class="cls-1" d="M29.17,17.9c.13,0,.4-.12.59-.28.32-.27.11-1.33-.33-1.48-.76.02-.68,1.73-.25,1.76Z"/>
      <path class="cls-1" d="M66.45,100.81l-1.03.67c-.2.13-.38.25-.44.46-.04.16-.01.46.32.42.11-.1.12-.52.55-.65l-.05,1.15c.52-.59.77-1.21.65-2.05Z"/>
      <path class="cls-1" d="M31.9,15.38c.12-.09.11-.35.11-.56v-.9c0-.12-.06-.19-.13-.21-.43-.14-.63.57-.46,1.61.02.09.41.12.48.06Z"/>
      <path class="cls-1" d="M39.71,12.36c.02.07.18.16.3.11.07-.03.12-.13.12-.2.26-.02.22-.31.31-.42.17-.21.08-.47-.21-.62-.14-.07-.39.1-.48.29-.07.15-.29.39-.03.53-.04.08-.02.24,0,.31Z"/>
      <path class="cls-1" d="M39.96,13.14c-.11.1-.08.51.05.55.04.01.42-.29.32-.5-.05-.11-.23-.19-.37-.05Z"/>
      <path class="cls-1" d="M35.05,14.1c.94.1,2.28-.93,1.86-2.01-.94-.44-1.27.96-1.91,1.41-.15.1-.57-.42-.79-.39-.9.12-1.28,1.39-.98,2.28.74-.28,1.32-.58,1.82-1.28Z"/>
      <path class="cls-1" d="M35.24,10.03c-.34-.96-.29-1.83-.13-2.85-.84.3-1.28,1.05-1.2,1.94l.15,1.68c.48-.04,1.19-.42,1.17-.78Z"/>
      <path class="cls-1" d="M24.8,14.06c-.41.79-.61,1.63-.25,2.44.78-.74.77-1.77.25-2.44Z"/>
      <path class="cls-1" d="M23.02,17.77c.08-.38.06-.72-.34-.92-.28.56-.6,1.04-.53,1.66.76-.04.81-.47.86-.74Z"/>
      <path class="cls-1" d="M22.39,22.37c-.35.58-.52,1.41.02,1.87.8-.6.54-1.38-.02-1.87Z"/>
      <path class="cls-1" d="M22.89,29.22c-.29-.48-.24-.83-.44-1.05-.13-.14-.36-.15-.47.1-.12.25-.26.54-.18.72.09.2,1.41.75,1.09.23Z"/>
      <path class="cls-1" d="M20.58,14.74v-.15c0-.2.05-.34-.09-.7-.2.16-.17.31-.16.55,0,.16-.02.29.25.3Z"/>
      <path class="cls-1" d="M66.18,13.92c-.75.34-.99,1.12-.73,1.84.73-.44.89-1.17.73-1.84Z"/>
      <path class="cls-1" d="M22.86,11.94c-.58.5-.54,1.16-.57,1.69.8-.41.94-1.06.57-1.69Z"/>
      <path class="cls-1" d="M26.65,19.34c.69-.51.98-1.41.64-2.25-.78.61-.91,1.43-.64,2.25Z"/>
      <path class="cls-1" d="M23.65,25.47c.09.07.35.15.42-.01.08-.19-.04-.4-.07-.52-.05-.15-.33-.35-.5-.07-.21.32.03.49.16.6Z"/>
      <path class="cls-1" d="M27.28,13.91c.08-.36-.32-.53-.55-.41-.24.13-.4.79-.35,1.52.57-.13.77-.56.9-1.11Z"/>
      <path class="cls-1" d="M25.42,28.28c.51-.29.76-1.95,0-2.04-.63.19-.5,1.64,0,2.04Z"/>
      <path class="cls-1" d="M25.38,19.87c0-.22-.34-.69-.57-.47-.61.57-.66,1.56-.62,2.31.62.04,1.17-1.13,1.19-1.83Z"/>
      <path class="cls-1" d="M29.25,10.82c-.31.27,0,.63.16.6.17-.04.25-.26.29-.36.05-.15-.11-.53-.44-.24Z"/>
      <path class="cls-1" d="M59.19,9.77c.04-.13-.01-.39-.27-.37-.27.42-.51.53-.77.56-.24.03-.37-.37-.52-.46-.62.18-1.49.55-2.15.33-.31-.57-.15-1.22-.74-1.68-.28,1.03-.17,1.82-.14,2.78,1.95-.22,4.2-.02,4.59-1.17Z"/>
      <path class="cls-1" d="M55.92,18.48l-.32-1.91c-.53-1.47-.55-2.93-.79-4.59-.82,1.57-.58,3.24-.2,4.89.17.73.35,1.4,1.3,1.62Z"/>
      <path class="cls-1" d="M52.05,14.87l-.17,2.16c-.03.38.51.14.68.05.46-.24.38-1.93-.51-2.21Z"/>
      <path class="cls-1" d="M54.06,23.52c-.85,1.38-1.78,2.07-.53,3.36,2.01-2.47,1.22-4.49.53-3.36Z"/>
      <path class="cls-1" d="M58.07,12.94c-.74.2-1.42.7-1.84,1.23-.1.46.32,1.02.64,1.41.67-.61,1.33-1.45,1.2-2.64Z"/>
      <path class="cls-1" d="M52.18,11.16c.94-.12.66-1.65,0-1.6-.57.04-.51,1.67,0,1.6Z"/>
      <path class="cls-1" d="M58.13,17.23c.29.29.46.47.66.59.29-.85.44-1.31.48-2.02-.59.34-.94.82-1.14,1.42Z"/>
      <path class="cls-1" d="M55.53,23.31c.18.43.65,1.26,1.18,1.33.41-.1.89-1.2.52-1.61-.55-.61-1.06-1.05-1.3-2.17-.47.78-.23,1.39-.33,2.14-.01.1-.09.26-.07.31Z"/>
      <path class="cls-1" d="M65.11,19.33c.4.06.37-.31.31-.46-.07-.17-.24-.29-.16-.72.03-.14-.32-.4-.56-.45.02.54.15,1.17.41,1.63Z"/>
      <path class="cls-1" d="M64.9,11.35c-.84.28-1.21,1.26-.91,2.1.45-.75.67-1.31.91-2.1Z"/>
      <path class="cls-1" d="M58.62,20.92l.25,1.76c-.47-.29-.73-.58-1.04-1.06.45-.35.55-.91.32-1.21-.18-.23-.6-.56-1.05-.56-.53,0-.64.69-.48,1.21.12.39.52.58,1.1.71.45,2.08,1.41,2.27,1.14,1.77.6,1.09-.32,3.13.52,2.65.09-.05.16-.22.17-.33.08-.56.51-.58.9-.81l2.09-1.26c.29.36.4.43.6.83.08-.17.38-.51.49-.39l.52.55,1.42-1.28c.82-.74,1.3-2.67.58-3.23-.11-.09-.34.17-.61.16l-2.85-.07c.13-2.04,1.45-3.73,1.37-6.01,0-.26-.32-.59-.49-.59-.14,0-.42.24-.52.42l-1.74,3.42c-.3,0-.78-.07-.89.21l-.28.68c-.19.46-.49.64-.46,1.14.04.67,1.57,1.45,1.49,2.9-.72-.44-.92-1.05-1.4-1.58,0,1.03.24,1.85-.21,2.69-.51-1.4.03-2.95-.93-2.74Z"/>
      <path class="cls-1" d="M62.95,10.33c.47-.33.57-1.43.13-1.93-.14-.16-.52-.39-.71-.19l-.11,2.15c.11.27.54.08.69-.03Z"/>
      <path class="cls-1" d="M49.03,11.67c.07.09.27.31.49.17.8-.5,1.28-1.65.84-2.59-.1-.22-.5.13-.52.32l-1.03-.22c-.09.8-.28,1.73.21,2.32Z"/>
      <path class="cls-1" d="M44,13.85c.32-.65.39-2.06-.29-2.44-.53.07-.71,1.78-.39,2.31.09.16.52.46.68.13Z"/>
      <path class="cls-1" d="M43.75,9.93c.14.03.35-.24.33-.38l-.02-.18c.38-.1.19-.33.14-.47-.13-.35-.18-.35-.34-.29-.47.16-.41.31-.42.74,0,.22.15.54.32.58Z"/>
      <path class="cls-1" d="M41.93,9.72c-.4.56-.51,1.31-.08,1.9.47-.58.57-1.3.08-1.9Z"/>
      <path class="cls-1" d="M41.95,17.76c-.29.33.05.35.16.35.29,0,.37-.21.3-.35-.07-.12-.29-.2-.46,0Z"/>
      <path class="cls-1" d="M46.4,16.62c.28-.34-.03-1.27-.32-1.34-1.06.89-1.39,2.06-.52,3.18.14-.87.36-1.24.84-1.84Z"/>
      <path class="cls-1" d="M48.69.41c.11,0,.2-.09.2-.2s-.09-.21-.2-.21-.21.09-.21.21.09.2.21.2Z"/>
      <path class="cls-1" d="M41.3,16.59c.29.11.73.09.78-.24.15-.91.36-1.98-.21-2.64-.25-.02-.33.13-.41.21-.13.14-.12.31-.01.46l-.43,1.69c-.08.32.12.45.28.51Z"/>
      <path class="cls-1" d="M49.63,14.96c-.15.5.4,1.18.63,1.49l.99-1.83c.51-.94.22-2.08-.76-2.56l-.86,2.9Z"/>
      <path class="cls-1" d="M47.3,13.61c-.08-.02-.25-.05-.31.08-.21.5-.18.95.2,1.36.34-.41.31-1.4.11-1.45Z"/>
      <path class="cls-1" d="M48.56,14.92c-.54,1.39-.25,2.71.54,3.96.56-1.47.02-2.74-.54-3.96Z"/>
      <path class="cls-1" d="M46.26,11.67c.3-.02.61-.21.55-.55-.03-.17-.13-.52-.49-.53-.5,1.25-1.73,1.98-.72,3.41l.67-2.34Z"/>
      <path class="cls-1" d="M26.62,23.69l-.05,2.56c1.29-.68,1.58-2.21.8-3.33-.25.16-.74.47-.75.78Z"/>
      <path class="cls-1" d="M82.71,93.25c-.06-.11-.32-.24-.47-.28-.87-.24-1.52.45-1.75,1.32,1.61.28,2.45-.61,2.21-1.04Z"/>
      <path class="cls-1" d="M81.5,98.62l1.14-3.3c-.8.33-1.04,1.06-1.51,1.64-.71.85-1.19,1.82-.94,3,.85-.15,1.1-.71,1.31-1.33Z"/>
      <path class="cls-1" d="M77.92,101.19c.15.21.6.34.63.2l.11-.63c.44-.66.77-1.42.21-2.16-.66,1.05-1.07,2.41-.94,2.59Z"/>
      <path class="cls-1" d="M81.69,91.6c-.09.12-.49.37-.71.16-.09.19-.08.38.06.46.07.04.23.01.35.05.13-.12.54-.31.3-.67Z"/>
      <path class="cls-1" d="M76.64,106.65c-.07.13-.21.36-.24.48-.02.12.43.17.5.08.08-.1.12-.34.08-.51-.02-.12-.26-.21-.35-.05Z"/>
      <path class="cls-1" d="M73.53,133.48c-.13-.09-.45-.05-.6-.02-.14.02-.18.29-.03.41l.34.21c.21,0,.28-.22.2-.41-.02-.05,0-.16.09-.18Z"/>
      <path class="cls-1" d="M79.59,109.57c.53-.38.57-.7.49-1.12-.39.22-.67.75-.49,1.12Z"/>
      <path class="cls-1" d="M79.48,98.12c.66-.87,1.07-1.84,1.19-2.85-.89.49-1.79,2.43-1.79,2.46.02.15.5.53.6.4Z"/>
      <path class="cls-1" d="M79.91,100.43c-.32.51-.4.85-.88,1.23-.38.3-.24,1.62.27,1.68.55.07.34-.69.42-.9.23-.59.72-1.36.2-2.01Z"/>
      <path class="cls-1" d="M87.15,92.11c.02-.26-.69-.43-.69-.24,0,.3.29.38.41.39.08,0,.27.06.28-.14Z"/>
      <path class="cls-1" d="M78.71,96.7c-.11-.45-.41-.21-.53-.04-.12.19-.18.37.24.45.34.41.77-.16.29-.41Z"/>
      <path class="cls-1" d="M72.41,136.64c.04.19.34.54.65.51.37-.77.47-1.67.45-2.48-.58-.06-1.19,1.51-1.09,1.97Z"/>
      <path class="cls-1" d="M71.53,155.73c0,.19.28.27.5.24.08-.01.28-.16-.05-.24h-.45Z"/>
      <path class="cls-1" d="M62.86,133.51c1.01-1.04,1.99.3,2.27-.17.05-.09.09-.32.03-.4-.06-.08-.25-.17-.46-.07-.57-.23-1.2-.21-1.69.19l-1.69,1.37c.76.09,1.13-.5,1.55-.92Z"/>
      <path class="cls-1" d="M73.97,111.42c.38-.47,1.14-.68.91-.96l-.33-.38c-.21-.24-.52-.3-.75-.18-.11.05-.21.25-.11.46l.2.43c-.83-.17-1.68.1-2.36.44.6.7,1.07,1.32,1.93,1.17.36-.06.58-.67.51-.98Z"/>
      <path class="cls-1" d="M65.82,114.59c-.08-.23-.23-.35-.39-.34-.44.03-1,.33-1.02.56,0,.09.18.28.32.41l-.87,1.93c1.11-.25,1.24-1.16,1.48-1.94.11-.15.57-.35.48-.6Z"/>
      <path class="cls-1" d="M66.22,103.92c-.07-.38-.4-.79-1.06-.36.54.5.82,1.05.55,1.77.34.25.58-.12.27-.32.4-.45.31-.81.25-1.1Z"/>
      <path class="cls-1" d="M60.85,134.24c.64-.58,1.22-1.26,1.58-1.89-.07-.22-.26-.57-.33-.52l-.37.31c-.44.12-.41.5-.68.83l-.5.61c-.13.16.02.6.29.65Z"/>
      <path class="cls-1" d="M64.58,130.26c-.5-.25-1.44-.47-1.56.03l-.22.99c.98.04,1.83.06,2.63.5.05-.93-.43-1.31-.85-1.52Z"/>
      <path class="cls-1" d="M61.42,130.37l-.24-7.02-1.12,3.3c-.75-1.22-.46-2.53-.18-3.84l-1.07.94c-.24.48-.4,1.47-.27,1.92.57,1.25.56,3.17.45,4.67l2.42.04Z"/>
      <path class="cls-1" d="M87.1,92.63c-.32-.48-1.8.54-2.18,1.83,1.36-.32,2.53-1.29,2.18-1.83Z"/>
      <path class="cls-1" d="M68.04,117.64c.08-.65-.15-1.05-.76-1.21-.35-.1-.7.15-1.02.53-.3-.47-.77-.13-.41.26,1.84,1.28,1.24,2.5,1.24,2.49.64.11.79-.85.95-2.07Z"/>
      <path class="cls-1" d="M61.06,135.74c.22-.15.38-.32.3-.63-.05-.24-.22-.35-.34-.4-.16-.06-.45,0-.49.11-.07.2-.03.45.14.52.07.02.09.08.06.17-.04.27.21.32.32.24Z"/>
      <path class="cls-1" d="M65.82,131.66c-.08.31.13.53.24.56.13.04.33-.08.4-.21.05-.1.07-.34-.02-.4-.11-.06-.58-.08-.61.05Z"/>
      <path class="cls-1" d="M8.55,33.91c.14-.05.45-.28.48-.48l.34-2.45c.02-.18-.32-.28-.36-.2l-.19.37c-.72.6-1.32,1.46-.82,2.38.12.21.38.44.55.37Z"/>
      <path class="cls-1" d="M18.89,15.5c-.05-.09-.22-.08-.47.06-.58.71-.68,1.63-.5,2.5.85-.98,1.39-1.73.96-2.57Z"/>
      <path class="cls-1" d="M6.35,29.08c-.49.3-.56.88-.49,1.48.48-.22.93-.91.49-1.48Z"/>
      <path class="cls-1" d="M6.31,38.54c-.08-.05-.13.07-.13.16,0,.28-.12.69.24.86-.1.13-.44.3-.3.58.1.24.09.51.46.65v-.87c.01-.27.23-.48.24-.72,0-.25-.22-.49-.5-.68Z"/>
      <path class="cls-1" d="M5.46,36.19c.29-.55.13-1.07-.02-1.39-.35-.05-.57.48-.65.72-.11.31.55.89.67.66Z"/>
      <path class="cls-1" d="M6.08,41.83c-.06-.02-.18-.03-.28.03l.68,1.02c.25-.11.01-.6-.41-1.05Z"/>
      <path class="cls-1" d="M11.97,29.11c.77-.35.95-.96,1.31-1.44.83-1.11,1.75-2.06,2.27-3.49-.74-.02-1.04.63-1.41,1.02-.78.82-1.41,1.48-1.43,2.77-.59-.26-1.06-.16-1.28.23-.15.26.15,1.09.55.91Z"/>
      <path class="cls-1" d="M16.61,18.58c-.15-.21-.48-.22-.55-.03-.25.61-.43,1.13-.52,1.87.82.15,1.44-1.3,1.07-1.83Z"/>
      <path class="cls-1" d="M4.9,38.38c.1-.26.29-.51.24-.73-.08-.33-.35-.2-.45-.08-.17.19-.25.43-.16.8-.2.43.52.52.37.01Z"/>
      <path class="cls-1" d="M18.41,21.12c-.72.48-1.01,1.53-.86,2.53.57-.76,1-1.34.86-2.53Z"/>
      <path class="cls-1" d="M14.44,20.38c-.74.53-1.04,1.42-.8,2.4.86-1.04,1.47-1.79.8-2.4Z"/>
      <path class="cls-1" d="M12.45,23.78c.24-.35.36-.91-.06-1.17-.25.41-.65.93-.55,1.52.18.12.5-.17.6-.35Z"/>
      <path class="cls-1" d="M39.94,33.82c-.1.17-.02.41-.02.51,0,.14.21.38.33.38.29-.16.35-.41.28-.68-.05-.2-.44-.48-.59-.21Z"/>
      <path class="cls-1" d="M48.55,29.32c-.22.01-.3.07-.45.23-.19-.29-.44-.66-.74-.53-.39.17-.24.59-.14.85.3.76.55-.27.91-.11.24.11.8,1.01.95.5.05-.19.03-.45-.16-.51-.06-.02-.08-.08-.04-.15,0-.3-.19-.29-.33-.28Z"/>
      <path class="cls-1" d="M83.07,94.24c.33.14,1.48-.17,1.51-.94-.27-.48-1.38.15-1.51.94Z"/>
      <path class="cls-1" d="M44.54,31.78c.16-.33.19-.66.04-.74-.14-.08-.42-.02-.47.08-.06.11-.06.39.19.57-.21.29.27.5.24.08Z"/>
      <path class="cls-1" d="M36.57,34.79c.17.26.36.45.6.59.11-.57-.31-.7-.6-.59Z"/>
      <path class="cls-1" d="M84.81,91.31c-.19-.06-.52-.26-.77.03l-.21.24c-.11.13-.51.14-.62.46l2.42-.52c-.23-.61-.64-.27-.82-.21Z"/>
      <path class="cls-1" d="M5.13,41.62c.29.23.5.13.56-.18-.14-.61-.57-1.2-1.19-1.62-.34,1.1-1.28,1.29-2.28,1.16l-.91,2.42c-.28.76-.8,1.27-.84,2.13-.02.54-.29,1.16.14,1.74l.79-.78c.99-.98,1.93-2.05,3.43-2.57l.3-2.3Z"/>
      <path class="cls-1" d="M3.96,58.31c-.1-.18.09-.42.44-.24.01-1.12-.49-2.05-1.08-2.89-.4,1.19-.06,1.77.48,2.75-.73-.21-1.1-.58-1.71-.41-.07,1.17,1.51,2.12,2.89,2.66-.1-.99-.51-1.34-1.02-1.87Z"/>
      <path class="cls-1" d="M3.47,38.6v-.41c0-.09-.22-.23-.36-.06-.12.15-.1.45.04.57.1.08.31,0,.31-.1Z"/>
      <path class="cls-1" d="M13.71,39.88c.29-.04.16-.99-.17-.92-.46.09-.2.97.17.92Z"/>
      <path class="cls-1" d="M3.06,54.14c.14-.29.19-.87-.02-.94-.42-.14-.62.15-.71.32-.15.28-.08.58.11.71.24.16.48.18.62-.09Z"/>
      <path class="cls-1" d="M8.12,71.7c.71.65.66,1.57,1.56,2.24.11-.66-.05-1.02-.13-1.63.31-.05.48.09.59.03-.1-.54.05-.9.29-.81.13.04.28.26.45.53.25-.1.42-.62.44-.86-.11-.45-.34-.8-.65-1.35-.09.11-.29.48-.46.48-.27,0-.57-.27-.91.01-.54.44-1.25-.65-1.17-1.2.33.21.78.3,1.01.18.2-.11.4-.37.53-.71l.26-.64c.09-.24.62-.09.84.12l1.46,1.4c-.43.22-.23,1.25.17,1.2.93-.12,1.61-.82,2.35-1.15-.3-.43-.89-1.13-.65-1.58.22-.42.53-.71.51-1.05-.02-.36-.26-.9-.61-.95-.07.21.07.32.11.38.1.13-.25.45-.49.23-.38-.34-.44-1.56-.09-1.92.61-.41,1.16-.7,1.18-1.64.48.22.76.44.96.7.27.35.07.93-.12,1.21-.11.16-.36.31-.33.55.04.3.2.64.52.57.29-.07.34.13.46.16l.57,1.2c-.82.73-1.41.34-1.52,1.26-.05.41.54.87.85.58.29-.27.68-.65,1-.52.26.1.66.64.62,1.06-.07.59-.85,1.04-1.41,1.37.5.6,1.1.79,1.7,1.27-.2,1.04-.44,1.92-.12,2.95,1.19-.25,1.9-1.08,2.47-.34-.58.6-1.06,1.06-1.68,1.36-.17.08-.44.07-.55.2-.28.37.13,1.2.25,1.23.14.03.36-.09.51-.16,1.7.33-1.16,1.47.35,3.18,2.1.19,3.76-2.65,6.31-3.78.74.34-.2,2.11-1.59,2.57-.99.33-1.53,1.47-2.25,2.1-1.37-.49-2.87-.24-3.35.84-.57,1.29-1.77,2.44-2.1,3.81-.27,1.12.81,2.24,1.28,3.08-.32.34-.65.1-.92-.12.07.65.58.92.81,1.58-.75.02-1.1-.47-1.68-.7-.51,1.1,1.17.74,1.59,1.16.14.14-.13.37-.37.8.99-.36,1.9-.95,2.38-2.07.92.28,1.74.18,2.63-.26.88,1.31,2.01.04,2.41.27.15.09.26.41.41.59.47.53,2.65,1.25,2.57,1.48.21-.2.54-1.01.66-.64.02.07-.02.5-.03.67,1.85,1.23,7.88,1.54,8.49,1.09.29-.22.29-.62.36-1.06.21-.05.79.11.95-.34-.64-.11-1.19-.2-1.75-.75,1.62.06,2.66-.42,3.73-1.36l.45-.29c.11-.07.46.15.48.31-.37.59-.93,1.06-1.65,1.45.54.75,2.88-.19,4.68-.56l-1.67,1.67c1.11.11,1.97-.45,3.05-.55-.06.21-.19.35-.53.63.52.42,1.46.43,2.26.22.73-.19,1.03-1,1.63-1.84.19.59-.13,1.26-.39,1.69-.57.34-1.19.47-1.55,1.28,1.2.47,2.05-.86,1.99.62.28.23,1.2-.23,1.15-.62-.07-.53-.58-.61-.94-.97,1.26-.36,2.35-.07,3.57.19-.96,1.39-2.76,1.99-2.57,2.87.06.25.4.42.74.53.5.16,1.01-2.5,3.37-2.83.19-.03.39.27.34.44-.04.12-.2.26-.28.35,0,.26.19.56,0,.83.08-.07.39.02.35.11-.05.11-.15.41.02.6l-1.08,1.25c-.2.23-.69.16-.96.01-.2-.12-.26-.46-.18-.73l-.33-.05c-.26.46-.38.9-.54,1.55.9.59,1.9.47,2.95-.09l1.91-1.74c.16-.14.45-.05.57-.03.89.91,1.81.34,2.49.93.48-.07,1.01-.84.83-1.49-.74.39-1.15.37-1.79-.04l-1.48-.26c.08-.17-.3-.39-.34-.5l1.12-2c.11-.19.1-.48.02-.53l-.42-.25,2.44-3.22-2.73,1.57c-.18-.36-.4-.71-.68-.93-.53.85-1.48.77-2.21.53l2.64-2.32c.15-.13.49.22.39.44-.34.75-1.02.47-1.17.83-.07.17.17.37.34.29.11-.05.23-.15.4-.43.15.16.15.38.26.41.01,0,2.06-.88,2.48-2.12-.3-.13-.57.04-1.01.13-.14-.57.19-1.16.57-1.37.53-.3,1.34-.13,1.67.47-.42.05-.7-.04-1.05.27.51.39,1.02.89.83,1.42-.33,0-.69.08-1,.48l1.83.58,1.25-.74c.17-.1.5-.05.58-.21.07-.15.01-.46-.18-.63-.31-.28-.76.69-1.66.53-.06-.27-.07-.47.05-.86.08-.26.63.07.84-.06.34-.22.7-.59,1.09-.6-.02-.63.08-1.39.67-1.82.35.54-.3,1.23-.44,1.66-.01.12.38.25.4.38.03.15-.2.36-.26.46.01.37.85.57,1.05.65.09.52-.51.8-.95.86-.24.03-.16.57.08.52l.74-.15c.18-.04.47-.11.61.07.07.09-.15.25-.17.34.07.11.36.19.34.09-.06-.33.24-.31.33-.26.2.1-.08.11-.03.44,1.09-1.09,1.55-1.47,3.04-.59-1-.07-1.2.62-1.74,1.02-.8.59-1.79.7-2.54,1.5-.09-.42-.18-.67-.37-.71-.18-.04-.44.14-.56.35l-.2.35c-.07.12-.33.17-.6.09.05.27.24.38.35.42.21.06.45-.03.8-.19.12.71.57,2.1-.19,2.59l-1.98,1.27c.27.25.49.29.85.34-.23.36-.46.51-.83.74.28.24.42.46.37.57l-.21.53c-.22.54.72,1.03,1.06.71,1.29-1.21-.18-2.5.76-3.68.28.49.25.82.31,1.33.3-.15.39-.29.48-.68.09.25.27.35.43.32.98-.16.1-1.67,1.16-2.02,0,.46-.14.85.25,1.21.13-.7.56-1.19,1.22-1.31,1.57-.28,2-1.83,3.01-2.37.09.68-.41,1.25-.91,1.77-.07.34.2.36.36.14.59-.92,1.18-1.74,2.34-1.95-.18.77-.47,1.24-.35,1.73,1.07.28,2.38.62,2.95-.1l1.18-1.48c.35.45.25,1,.09,1.59.64.16,1.1-.01,1.56-.36-.36-.05-.64-.04-.77-.24-.23-.33.09-1.13.67-1.18.32-.03.44.29.36.64l.99-.82c.1-.08.33-.04.36.02.03.06-.02.25-.04.35-.09.21-.25.41-.14.81l1.23-.85c.13-.09.4-.04.49-.02.13.03.24-.24.23-.38l-.03-.38c0-.12,1.43-1.01,2.48-1.11l-.91,1.42c1.54.82,2.04-1.76,2.9-.55-.01-.85.31-1.67,1.02-2.11.16-.03.41.02.46.14.29.75-1.14,1.38-1.26,2.24,1.26-.61,1.86-1.8,2.38-2.92-.73-.11-1.07.3-1.57.28-.33-1.17,1.58-1.29,1.74-2.35.1-.61-.2-1.39-.83-1.34-.25.34-.43,1.04-.83,1.27l-.39-1.71c0-.38.29-.55.59-.12.86-1.23.39-2.44,2.03-3.21.28-.13.36-.44.24-.62-.6-.89-1.02.78-1.56.65-.22-.05-.46-.18-.69-.42l-.85,1.68c-.47.92-1.19,1.66-1.52,2.66.4-.01.61-.18.86-.3.13-.06.47.11.51.35-.6.55-1.08,1.04-1.49,1.71-.18.29-.73.16-.98-.05-.28-.24-.14-.48.04-.87-1.36.7-1.39,2.48-3.37,1.78l2.16-1.44c-.26-.25-.38-.61-.4-.94-.25-.2-.38-.13-.68-.21l-.86.55c-.12.08-.32.17-.43.15-.12-.02-.25-.22-.29-.35-.11-.36,1.67-.88,2.52-2.43.77-.6,1.95-.59,2.88-.87l-.91-1.05c.5.05.87.19,1.33.02.29-.11.41-.53.75-.85l1.08-1.03c.01-.19-.23-.61-.38-.52-.25.14-.42-.08-.48-.24-.13-.31,1.2-1.85,1.7-1.4,0,.15-.06.54-.02.62.06.1.13.09.28.04.16-1.4-1.05-.61-.52-1.63.07-.13.22-.26.47.02l.03-.3c.04-.09-.05-.3-.13-.26l-.52.31,1.56-3.52c.4-.9.22-1.68,1.32-2.4-.9-.17-1.04.58-1.38,1-.7.74-.96,1.55-.74,2.41-.82.22-1.05,2.06-1.9,1.88-.18-.04-.49-.31-.52-.48-.04-.19.17-.58.39-.69l1.07-.53c-.49-.54-1.35-.44-1.92.08l-2.27,2.09c-.19-.59.45-.84.65-1.19.74-1.32,2.09-1.78,3.28-2.11.17-.73.54-1.55,1.34-1.83-1.12-.26-1.66.55-2.65,1.12-.06-1.32.75-2.65,1.87-2.29.19.06,2.17-1.99,1.73-3.62.34-.33.78-.45.84-.86-.54.26-.78-.3-.25-.33.5.32.57-.33.11-.28-.26.07-.51-.07-.54-.17-.04-.12.08-.34.18-.37.11-.03.31-.06.56.01.46-.02.46-.6-.18-.44l1.5-2.73c.22-.41.09-1.01.82-1.22.2-1-.4.1-1.37-.03-.27-.04-.83-.52-.5-.89,1.56-1.73,4.45-4.12,3.46-5.35-.2.21-.5.55-.76.52-.53-.06-.4-.78-.7-1.21-.33-.46-.62,1.08-1.63,1.64-2.05,1.12-1.24,4.14-3.66,2.94.26-.8.61-1.33,1.28-1.6l-.35,1.27c.54-.49,1-.96,1.4-1.6-.26-.31-.45-.07-.55-.04-.21.08-.33-.13-.26-.31l.22-.52c.86-1.32,2.06-2.46,2.6-3.99.36-1.02.43-2.03,1.06-3.1-.65.14-.59.67-.9,1.03-.65-.35-1.35-.55-1.79-.3l-.26,1.5c-1.39,3.24-3.14,6.25-5.23,9.09-.63.85-1.27,1.5-2.33,1.99.21.57.62.98,1.17,1.54-.46.3-.8.02-1.14-.28l-.61,1.15c-.06.1-.27.34-.38.34s-.29-.24-.42-.4c-.61,1.21-1.62,2.5-2,2.15-.22-.2-.31-.57-.18-1.07.23.01.55.16.75-.06.68-.75.19-1.67,1.11-1.65l1.19-1.24c-.06-1.02.04-2,.83-2.59.2.38.22.67.55.95.5-.65.41-1.44,0-2.12l1.72-.15c1.24-1.72,1.21-3.75,2.73-4.93-.01-2.71,1.73-3.46,1.19-4.66-.41-.92-1.54-.56-1.82-1.13-.1-.2-.03-.55.17-.75,1.18-1.29,1.2-3.67,1.71-2.78l.25.44c.21.37.57.42.71.26.45-.51-.79-.63-1.17-1.33l-1.44,1.39-.31-1.6c-.62.2-.49.84-.71,1.24l-2.82,5.27c-.17.32-.44.48-.7.31-.15-.1-.48-.15-.52-.44-.06-.38.34-.5.57-.75,1.88-1.99,3.29-6.26,2.16-6.64-.38-.13-.68.23-.9.61l-.98,1.77-.56-1.67c-.53.44-.96,1.09-1.65,1.29-.76.22-1.27-.75-1.33-1.49.24-.36.29-.96-.29-1.18.21,2.16-.58,4.17-2.33,5.55-.68-1.15,2.03-2.07,1.41-3.96-.13-.4.38-1.12.1-1.57-.19-.31-.87-.9-.43-1.27.34-.29.48-.44.68-.77-.18-.02-.3-.09-.27-.21-.25.2-.68-.09-1.06-.01-.87.17-.52,1.96-1.83,2.18-.31.05-.72-.26-1.05-.53-.93-.75-1.92-.67-2.32-1.4-.18-.34,2.39-5.85,2.47-5.58-.08-.28-.35-.3-.5-.31-.32-.03-.61.98-1.25,1.04-.32.03-.72-.2-1.04-.39-.88,1.04-1.09,2.58-2.18,3.61.1-1.85,1.02-3.78,1.31-5.28.04-.23.32-.56.33-.79.02-.31-.29-.83-.51-.75-.6.23-.64.74-.75,1.07-.13.41-.33.82-.69,1.3-.3-.72.17-1.35-.52-1.61-.15-.06-.38,0-.42.32l-.39,3.58c-.02.17-.6.14-.76.16-.18.03-.25.4-.38.54l-2.02,2.18c-.28-.14-.71-.96-.58-1.4.79-.76,1.43-1.46,1.76-2.4-.36,0-.39.24-.47.26-.07.02-.36-.76-.3-.93.07-.19.26-.24.46-.25.26,0,.45.19.31.63.15.2.47-.04.52-.21.1-.31-.16-.52-.33-.71-.11-.12.83-.61.23-.57-.36,0-.67-.33-.91-.44-.84-.38-1.14,1.28-1.94,1.72.02-2.09,1.72-3.71.72-5.24,0,.4-.23.44-.27.51-.08.18-.4.15-.4-.06,0-.6.63-.94.58-1.65-.02-.39-.17-.72-.66-.96.17.53.18.85.08,1.21-.12.45-.58.46-.93.64-1.46.74-2.25.36-2.56.66-.25.24.32,1.21-.22,1.7-.31.28-.72.3-1.02.14-1.07-.55.55-3.34-.08-5.66l-1.01,3.79-1.32-1.88c.04,1.22.23,2.18-.16,3.34-.5-.37-1.41-.56-1.6-.21-.2.41-.44.6-.85.82.06.85-.49,1.65-1.31,1.78-.62-.72-.3-1.52-.06-2.19-.37-1.04,0-1.99-.03-2.88-.63-.14-.96.1-1.1.43l-.32-.31c-.46-.45.1,1.37-.71,2.36.27.55.51.92.54,1.53-.99.03-2.19.43-2.35,1.4l-.09.56c-.04.25-.21.32-.47.28-.23-.04-.38-.23-.57-.43-.04.24-.09.38-.17.44-.07.05-.25.02-.34,0-.07-.02-.16-.03-.23-.02,0-.55-.03-1.18-.25-1.84-.04-.12-.44.04-.45.18-.08.65.13,1.09.14,1.69,0,.63-.5.98-.06,1.37.11.1.35.13.44-.02.06-.1.12-.34.19-.59-.08-.45.49-.35.36.04l-.41,1.64c-.18.73-.41,1.07-.25,1.67.1.36.59,1.22,1.15.86,1.23-.8,2.45-4.42,2.74-3.2.02.09.05.43,0,.53l-1.79,3.28c-.52.38-1.74.3-2.07,1.1l-.38-1.91c-.3.15-.62.65-.53.91.11.33.31.69.74.96-.44,1.24-1.17,2.59-2.55,3.12.12.6.12,1.02.01,1.46-.35-.27-.65-.52-.65-.77,0-.23.06-.6.21-.82l1.75-2.38c.14-.2.13-.33.07-.51-.23-.67-.73.88-1.8,1.3-.17-1.26.56-2.23,1.88-2.32l.25-2.41c.06-.6.1-1.07-.39-1.54-.09.99-.54,1.49-1.01,2.2-.33.51-.88.54-1.52,0l-.28,1.26c-.3-.51-.25-1.02-.22-1.45.05,0,.35.04.43-.02.07-.06.07-.32.08-.47,1.83-1.14,2.02-3.66.99-3.76-.29-.03-1.98.61-1.78,1.07.47.59,1.17,1.63.34,2.25-.23.17-.88.02-1.18.54-.37-.06-.79-.48-1.28-.26.31.25.41.48.5.7.14.35-.05.78-.47.69-.25-.05-.65-.57-.91-.52-.7.12-.77,1.81-1.97,2.42-.68.35-1.03-1.18.5-2.89-.3-.32-.52-.32-.96-.51.31-4.38,2.18-3.13,4.29-5.31l.47,1.55,1.16-1.52c.34.12.61.14.72-.03.3-.47.09-1.33.39-1.46.16-.07.43.06.78.18-.15-.55.48-1.59.91-1.27.37.49.42.95,1.02.87.4-.05.59-.37.68-.86.11-.58.59-.95.96-1.39.72-.87,2.07-.87,3-.26.55-1.52.98-2.31,2.08-3.41.64-.63.5-2.02.22-2.79-.63.07-.72,1.03-1.03,1.41-1.52-.45.25-2.83-1.3-2.49-.66,1.03-.82,2.49-.33,3.68l.28.37c.06.08-.24.45-.32.37-1.7-1.64-1.57-3.93-2.95-5.55l-.27,3.14c-.86-.2-1.52.21-1.92,1.02-.27-.14-.48-.23-.77-.15-.33-.73.47-1.63.6-2.28-.63-1.86-.5-3.57-1.45-4.56-.14.76-.23,1.53-.19,2.36l.21,4.48c.02.5.64.97.11,1.58-.25.28-.49.8-1.12.64-.04.33-.27.58-.47.62-.22.05-.34-.2-.3-.39l.1-.49c.08-.39.2-.64-.01-1.04-.15-.26-.25-.5-.87-.38.4-.71.71-.82,1.26-1.27.21.6.32,1.13.98,1.19-.35-1.69-1.54-2.14-2.2-3.38-.3.86.67,2-.04,2.02l-.73.02c-.11,0-.16-.29-.26-.34-.06-.03-.31.2-.32.27.04.66-.23,1.27-.58,1.9-.24.43.36,1.51-.48,1.8.11-1.01-.01-2.1-.14-2.92-.12-.13-.24-.44-.37-.5-.17-.07-.39.23-.54.26-1.06,1.23-2.5,2.24-4.03,1.72,1.2-.92,2.71-1.32,3.67-2.3-.14-.7-.1-1.42.25-2.07l.3-1.8c.69.11.99.52,1.51.94l-.14-4.19c-.01-.43-.32-1.05-.58-.88-.54.87-.18,1.95-.36,2.7-.25,1.04-1.27.92-2,1.16-1.49.5-2.7,1.44-4.01,2.19-.95.54-1.13,1.67-.56,2.56l1.41-1.27c.32.03.61.51.64.74.04.32-.24.63-.43.89-.8,1.09.44,2.48-1.03,1.69l-4.36,3.81-2.5,3.12-1.11-2.81c-1.01,1.2-.29,3.24-2.32,3.31l-.57-1.38c-.63.23-.87,1.03-1.26,1.37-.88.76-1.06,1.28-.84,2.43.14.75-.07,1.63.3,2.49-.97-.46-.67-3.13-1.25-2.28-.38.56-.3,1.46-.76,1.96-1.41,1.55-2.48,3.27-2.93,5.32-1.05.72-2.25,1.64-2.17,2.14l.1.64.02,1.55c-.44-.38-.98-.85-1.12-1.49-.04-.18.61-.24.75.09.17-.77-.05-1.24-.61-1.67l-.99,2.24,1.78,2.79-1.91-1.9c-1.04.75,1.21,1.5.94,2.51-.1.37-.46.97-.87,1.14.17-.85.37-1.44-.09-1.89-.53.52-.35,1.1-.54,1.8-.56-.51-.49-1.37-.47-2.05-.29-.21-.76-.49-.86-.94-.13-.53,0-.97.39-1.4.67-.74.04-2.93,1.32-4.1.25-.23,1.12-.2,1.22-.58.25-.91.06-2.45.99-2.96.88-.48,2.12.2,3,.46,0-.93-.26-1.87-.81-2.71-.07-.46.47-1.28.92-1.54.42-.24.93.03,1.5.19l.65-4.16c.54-.33,1.87-.59,1.93-1.48.07-1.04-.34-2.01-.55-2.99l-1.15,1.46c-.29.37-1.11.16-1.6.24-1.03,1.5-.07,3.19-.81,3.83-.25-.58-.1-1.03-.7-1.48-.59,1.31-1.22,2.44-1.5,3.81-1.43.26-2.17,1.41-2.47,2.73-.48,2.07-1.9,1.84-3.66,2.52.63,1.75.36,3.54.14,5.35-.31,2.64-2.44,1.3-1.78,4.07l-2.12.46c-.37.84-1.01,1.45-1.51,2.31-.42.74,1.48-.06,2.17.39.97.64-1.1,1.31-.37,2.17.76.89,1.56,1.78,1.41,2.95.59.03.79.47.75.89-.11-.16-.29-.32-.47-.2-.09.06-.1.34-.02.42.05.05.18.06.25.26.31.16.22.43-.14.43l.56,2.25c.09.35-.62,1.23-.02,1.53.31.15,1.24-.08,1.14.82l-3.2-1.33c-.53,1.23,1.46,2.06,2.61,4.09-.33.12-.5.05-.67.05-.05.3-.4.29-.67.29.53.54,1.67,3.15,2.2,4.75.21.62,1.24,1.32,1.03,2.15ZM67.96,92.49c-.05.06-.13.16-.31.2l-.37.08c-.16.04-.36-.05-.26-.24.08-.14.74-.38.91-.36.08.01.12.2.04.31ZM84.67,87.2c0-.21.05-.58.33-.65.19-.05.32.11.25.36-.04.17-.11.14-.36.37l-.42.37c-.1,0-.13.04-.17.09-.15.18-.65.18-.95-.07.39-.48.85-.46,1.32-.46ZM81.78,87.36c.25-.14.51.06.64.16.27.22.1.43-.14.53-.22.1-.4.18-.53.1-.24-.14-.32-.6.03-.8ZM79.62,89.84c.06-.15.66.21.53.4-.1.15-.27.06-.33.03-.09-.05-.32-.15-.2-.43ZM84.16,80.23c-.14-.76.3-1.55.77-2.1.69-.29.38,1.03-.77,2.1ZM84.52,76.19c-.08-.29-.27-.6,0-.74.25-.12.73-.14.78.08-.28.66-.95,1.23-1.62,1.34-.06-.58.39-.57.85-.69ZM90.23,48.67c.09-.11.32-.18.43-.17.19,0,.48.34.06.64.16.49-.53.51-.39.06-.11-.27-.17-.44-.09-.52ZM83.94,68.84c-.25.2-.61.09-.71,0-.09-.07-.22-.23-.07-.4.18-.22.41-.18.6-.19.24-.01.46.37.19.59ZM86.9,67.29c-.12-.25-.31-.67-.58-.8.4-.29.6-.06.69.2.06.15.41.43-.12.6ZM88.18,64.67c.06.31-.05.95-.25,1.32-.09.17-.53.19-.62-.11-.21-.7.76-1.74.87-1.2ZM87.04,57.65h.15s.7.01.7.01c.12,0,.22.3.12.49-.27.2-.99.26-1.26-.03-.02-.11.29-.42.29-.47ZM86.61,59.36c.15-.05.24.09.29.16.09.12.1.33-.04.39-.18.08-.36.02-.43-.1-.07-.12-.04-.37.19-.45ZM87.43,61.95c-.68,2.02-2.58,4.05-2.68,4.79-.03.22-.22.22-.34.19-.24-.05-.25-.33-.13-.54l1.37-2.37c.46-.8.79-1.74,1.78-2.08ZM84.91,58.56c.29.48.35.9,0,1.51-.34-.45-.35-1.05,0-1.51ZM83.33,64.68c.29-.75.73-1.39,1.65-1.67.2,1.46-1.51,3.19-3.12,4.26.1-1.19,1.12-1.69,1.46-2.59ZM81.66,70.29c.55-.45.63-1.38,1.5-1.29-.26.66-.7,1.04-1.12,1.44-.11.02-.33.03-.39.1-.1.12-.36.36-.04.95-.34.11-.53-.24-.59-.46-.16-.63.35-.51.64-.75ZM80.98,74.57c.15-.13.32-.06.37.05.1.21-.28.51-.32.5-.14-.05-.17-.45-.05-.55ZM80.11,75.12c.13,0,.23.1.23.23s-.1.23-.23.23-.23-.1-.23-.23.1-.23.23-.23ZM76.86,41.44c.07-.14.14-.49.5-.32.21.09.05.72-.42.98-.31-.07-.2-.4-.08-.66ZM46.26,85.85c0-.1.35-.13.42-.08.07.05.17.12.11.31-.03.1-.22.15-.3.12-.08-.03-.22-.16-.23-.34ZM46.98,88.35c-.1-.07-.22-.06-.3-.09-.1-.03-.18-.19-.11-.31.08-.13.26-.16.42-.11.02.1.02.31-.01.51ZM47,82.04c-.13,0-.23-.1-.23-.23s.1-.23.23-.23.23.1.23.23-.1.23-.23.23ZM46.83,71.44c.15-.13.32-.06.37.05.1.21-.27.51-.32.49-.12-.04-.17-.45-.05-.55ZM50.74,89.31c.16-.12.39-.36.58-.41.16,1.12.29,2.17-.02,2.34-.15.08-.6.19-.67-.15-.1-.53.18-1.15-.21-1.64-.34.52-.77.9-1.12.76-.63-.25-.82-.33-.99-.99-.09-.34-.14-.82-.05-1.23.03-.16,2.17-1.54,3.37-1.1-1.02.8-1.93,1.31-2.48,2.44l1.6-.03ZM49.5,72.13c-.1-.03-.22-.35-.11-.48.29-.33.7-.6,1.14-.86-.19.69-.76,1.44-1.03,1.34ZM49.62,86.04c-.3.11-.53-.02-.6-.14-.06-.1.05-.29.24-.42.09-.06.17-.09.37.03.17-.19.35-.06.4.04.06.14-.09.36-.41.48ZM49.81,69.32c-.21.2-.39.18-.86.37-.17-.15-.09-.41.13-.49l.74-.27c.16.12.11.27,0,.4ZM49.01,86.54c.2.21,0,.32-.12.39-.1.06-.37.16-.51.1-.13-.05-.04-.44.13-.53.19-.11.42-.04.5.04ZM53.65,67.24c-.19.76-.87,1.24-1.54,1.57.17.46.29.72.25,1.12-.27-.12-.6-.67-.44-1.05.25-.61.93-1.34,1.73-1.64ZM53.04,52.34c.04-.14.38-.16.49-.1.09.05.16.11.33.3.07.08.04.34-.24.32l-.23-.02c-.17-.01-.42-.28-.35-.51ZM51.22,72.4c-.05-.18.12-.26.25-.27.17-.02.49.09.47.23l-.56,1.06c-.13.24-.26.21-.33.23-.22.05-.38-.11-.35-.27.1-.44,1.23-.46.52-.97ZM51.84,86.06c.29-.07.35.05.37.22.02.14-.15.45-.3.49-.13.03-.28-.2-.45-.38-.11-.12.1-.27.37-.33ZM51.98,70.16c.06.36-.98.53-1.04.2-.11-.53.97-.67,1.04-.2ZM50.93,68.12c-.13-.57.31-.94.84-.9-.15.37-.21.7-.84.9ZM51.36,42.32c-.11.21-.37.15-.63-.16-.18-.22-.29-.48.05-.68.16-.1.61-.15.76.02.13.14,0,.48-.19.82ZM50.6,82.87c.16-.23.39-.12.47-.03.13.14.03.25-.1.32-.19.11-.54-.04-.37-.29ZM54.93,95.46c-.16.12-.21.03-.29-.19-.07-.18-.27-.33.12-.52.23-.11.37.12.34.28-.02.11.02.29-.17.43ZM55.71,91.61c-.08-.31-.31-.69.37-.89l-.27,1.2c-1.38-.11-2.93-.93-2.47-1.53.76.61,1.46,1.04,2.37,1.22ZM52.04,89.04c-.2-.12-.34-.51-.41-.76.74-.4,1.57-.26,2.38.18-.62.49-1.27.7-1.97.59ZM54.08,88.06h-.22c-.16.01-.38-.2-.4-.35-.03-.25.19-.44.34-.48.3-.1.52.02.51.31,0,.2.05.51-.22.52ZM54.49,78.99c0,.11-.22.18-.31.1-.14-.12-.17-.42-.04-.57.14-.17.36-.03.36.06v.41ZM54.4,45.56c-.11-.05-.34-.19-.19-.51.07-.16.39-.05.5,0,.14.07.28.27.18.42-.12.18-.38.15-.49.1ZM56.3,46.44c.08.11.2.18.22.28,0-.02-.79,1.53-1.55,1.86-.08-.62.29-1.17.14-1.52.21-.23.27-.45.43-.56.27-.18.54-.07.76-.05ZM56.28,45.66c0-.38.72-.8.9-.6.11.35-.14.66-.22.8-.13.22-.69.19-.68-.2ZM55.12,44.87c-.42-.49-.41-1.02-.38-1.57.62.24.8.97.38,1.57ZM55.1,57.66c-.38-.12-.14-.44.01-.54.23-.15.51-.14.61.02.12.2.03.51-.19.52-.12,0-.34.03-.44,0ZM56.19,77.52l-.53-.09c-.13-.02-.21-.34-.12-.51.06-.11.35-.12.5-.09.08.02.15.1.34.24.09.26.34.42.57.17.19-.21.5-.07.39.26-.12.36-.12.18-1.15.01ZM57.31,85.32c-.41.1-.41-.33-.32-.47.07-.1.18-.25.36-.33.12.25.1.68-.05.8ZM60.72,36.5c-.42.19-1.02.5-1.38.96-.07-.91.32-1.76.94-2.31.18-.14.39-.16.48-.1.19.14.32.92.28.92-.14,0-.69-.05-.32.52ZM61.04,39.65c.2-.12.4,0,.46.09.46.69-1.28,1.74-1.79,2.41l-1.24,1.61c-.07-.86.13-1.74.68-2.28l1.89-1.83ZM62.11,65.98c.19.46-.14.83-.67,1.21-.18.13-.6-.22-.52-.35.27-.34.49-.5.63-.91.07-.19.5-.09.56.05ZM61.84,47.08c.14-.17.36-.03.36.06v.41c0,.11-.22.18-.32.1-.14-.12-.17-.42-.04-.57ZM60.93,67.57c-.07.1-.29.11-.4.03.01-.07,0-.12,0-.15-.05-.11.06-.22.11-.19.12.07.34.25.29.32ZM60.93,59.45c.15-.28.39-.13.43-.03.05.12,0,.25-.1.32-.08.05-.36.04-.33-.28ZM61.69,62.7c0,.09-.25.13-.35.06-.08-.05-.09-.26-.02-.35.04-.06.28-.14.33-.11.07.06.05.28.05.4ZM60.22,77.21c.07.05.16.15.11.33-.03.1-.22.16-.3.11-.07-.04-.22-.11-.23-.36,0-.08.35-.13.42-.08ZM59.14,77.84c-.17-.24-.02-.52.24-.38.1.06.35.19.39.3.03.12-.16.39-.29.5l-1.12.9c-.12.02-.23-.03-.28-.09l1.06-1.23ZM58.29,83.74c.73-.84,1.42-1.66,2.42-2.2-1.47,3-3.17,3.06-2.42,2.2ZM61.01,76.16c-.1-.15-.35.1-.43.3-.07.17-.11.23-.05.45.03.12-.29.19-.4.03-.07-.1-.19-.24-.12-.53l1.32-1.05c.12-.09.12-.5.12-.63,0-.21.54-.4.56.02.03.42-.32,1.24-.61,1.54-.23.24-.35-.06-.4-.13ZM61.17,78.96c0-.38.3-.48.44-.39.12.08.53.13.47.48-.07.25-.91.21-.91-.09ZM62.61,83.69c-.13.02-.31.05-.42-.11-.1-.14.13-.46.43-.53v.63ZM63.06,83.33c-.32-.09-.16-.21-.12-.3.09-.22.1-.4.32-.37.02.35-.02.48-.2.66ZM61.75,78.48c.38-.77,1.4-1.62,1.79-1.68.71-.1-.18,1.44-1.79,1.68ZM63.16,73.11c.25.31-.17,1.33-.58,1.12-.5-.26.15-1.23.58-1.12ZM65.6,80.77c-.09,0-.12.15-.05.22-.29.39-.65.77-1.05,1.04.01.12-.08.22-.22.2-.04.18-.18.32-.37.42-.21-.45.05-.77.36-.84-.03-.06,0-.19.03-.19.73-1.14,1.55-1.35,1.28-.85ZM64.32,72.95c.1.06.23.29.16.42-.04.07-.21.1-.29.09-.12-.01-.37-.17-.22-.43.07-.12.28-.1.35-.07ZM64.08,66.95c.09.06.22.05.3.08.1.03.18.19.11.31-.08.13-.26.16-.42.13-.02-.12-.05-.35.01-.51ZM64.5,76.37c.12-1.08,1.08-1.34,1.39-2.11.11-.27.13-.61.38-.7.2-.08.77.27.66.61-.47.91-1.48,1.74-2.43,2.2ZM64.92,72.13l.34-1.13c.43.11.39.41.27.69-.08.18-.15.52-.61.43ZM67.89,72.72c.2-.04.31-.1.47-.26.1-.1-.01-.31-.03-.49.35-.24.63,0,.69.19.14.43-.1.68-.63.74-.23.03-.29.22-.34.25-.08.06-.33.06-.35-.03-.03-.17-.02-.36.19-.41ZM67.81,71.7c0-.23.11-.37.3-.44.21-.08.24.04.24.11,0,.22-.09.29-.16.37-.08.1-.39.07-.38-.04ZM71.13,80.98c0-.13.1-.23.23-.23s.23.1.23.23-.1.23-.23.23-.23-.1-.23-.23ZM71.15,82.53c-.1.19-.24.1-.32.12-.18.05-.43-.16-.27-.38.06-.09.36-.08.47-.05.08.02.2.15.12.31ZM70.59,70.91c0-.88.83-2.02,1.87-1.77-.29.95-.9,1.62-1.87,1.77ZM72.85,71.05c-.37.45-.78.86-1.44.95-.17-.36-.07-.78.15-.93.27-.18.64-.33,1.29-.02ZM71.15,64.37c-.01.2-.32.41-.5.35-.14-.04-.4-.31-.32-.5.07-.17.26-.33.51-.34.13,0,.35-.03.33.27v.21ZM70.24,52.73c-.12-.51.68-1.31.87-1.05-.27.59-.39.82-.87,1.05ZM70.71,72.53c.09.07.24.15.14.33-.12.22-.27.15-.39.14-.14,0-.43-.11-.31-.42.11-.28.45-.14.56-.05ZM71.02,75.94c-.9,1.45-2.22,2.7-3.76,3.35,1.02-1.49,2.41-2.29,3.76-3.35ZM69.87,86.16c.11,0,.2.09.2.2s-.09.2-.2.2-.21-.09-.21-.2.09-.2.21-.2ZM69.59,80.35c-.16.11-.42-.07-.17-.32.2-.2.46-.07.46,0,0,.09-.19.25-.29.32ZM68.96,74.29c-.14-.05-.17-.45-.06-.55.15-.14.32-.06.37.05.1.21-.28.51-.32.5ZM68.98,74.41c-.47,1.16-2.39,2.55-2.69,2.39-.5-.27,1.03-1.83,2.69-2.39ZM67.19,69.53c-.53.24-.92.67-1.53.2.45-.5,1.04-1.06,1.77-.97.21.03.09.62-.24.77ZM66.66,88.25c-.06.2-.75-.1-.65-.31.13-.26.76-.11.65.31ZM66.13,87.22c-.25,0-.27-.33-.09-.41.08-.04.25-.06.3.05.27-.26.39-.26.67-.09.22.15.29.22.41.43l-1.29.02ZM67.29,83.95c-.45.05-.49-.21-.42-.29.19-.2.34-.18.45-.21.28-.07.55.42-.03.49ZM66.75,82.42c.06-.44.36-.68.61-.93.15.18.36-.04.44-.11,0-.15.15-.23.22-.31.12-.15.31-.17.42,0,.08.12.01.34-.2.31.03.15-.1.23-.2.23-.25.39-.63.95-1.29.81ZM68.61,88.14c-.09.07-.31.05-.41.03-.14-.03-.21-.38-.1-.41.18-.05.36-.07.64-.03.07.03-.04.34-.12.4ZM68.57,86.12c-.09-.19-.25-.61,0-.7.23.05.65.31.66.79,0,.19-.53.18-.66-.09ZM69.59,88.16l.77-.95c-.31.16-.47.49-.88.44-.08,0-.23-.09-.18-.14l1.36-1.36c.18.38-.08.49-.16.64l.12.29c.23-.32.56-.69,1.04-.31-.53.75-1.08,1.36-2.09,1.38ZM71.57,78.5c-.13,0-.23-.1-.23-.23s.1-.23.23-.23.23.1.23.23-.1.23-.23.23ZM72.49,92.63c-.19-.31.11-.54.26-.62.2-.11.89-.08.88.2-.01.41-.97.69-1.14.42ZM73.07,88.19c-1.19-.32-1.61-2.63-.96-2.4.2.07.15,1.43.92,1.18.41-.13.86-.45,1.26-.18-.07.56-.64,1.56-1.22,1.4ZM73.53,71.89c0-.08.26-.13.42-.08.07.02.14.11.03.21-.05.05-.15.19-.22.2-.07,0-.23-.17-.23-.32ZM75.22,75.94c-.4.11-.42-.31-.31-.47.07-.1.18-.25.36-.33.12.24.1.69-.05.8ZM76.04,88.28c-.18-.45.59-.89.88-.75.15.57-.77,1.04-.88.75ZM76.27,70.99c.09-.05.32-.05.39,0,.13.1.14.32.02.61l-.4,1.02c-.48-.27-.16-1.56,0-1.64ZM77.48,89.66c-.17-.21.37-.73.71-.68.17.28-.15.97-.71.68ZM77.41,87.26l.21-.67c.07.08.21-.07.28-.18.17.08.21.41.03.61-.11.12-.25.29-.52.25ZM78.23,78.09c-.13,0-.23-.1-.23-.23s.1-.23.23-.23.23.1.23.23-.1.23-.23.23ZM78.94,66.72c.14,0,.28-.03.3.03.04.15-.04.37-.13.38-.22.02-.27.02-.38-.09-.11-.12-.04-.33.21-.32ZM78.54,73.94c.15-.04.2.48.02.56-.06.03-.19-.14-.23-.19-.07-.07-.07-.3.21-.38ZM84.06,50.15c.48-.74,1.16-1.18,1.55-2.02.19-.42.65-.94,1.31-.62-1.67,2.11-2.71,4.39-4.1,6.59l-2.11,3.33-2.17,2.3c-.19.06-.37.03-.52-.05l1.75-2.77c.76-1.2,1.41-2.29,2.17-3.48l2.11-3.28ZM82.42,48.45c-.03,1.02-1.39,2.37-1.67,2.23-.3-.16-.5-.49-.3-.8.45-.69,1.05-1.45,1.98-1.43ZM81.14,43.54c.28-.06.7.55.58.83-.16.39-.55.14-.67-.04-.11-.18-.17-.73.09-.79ZM80.32,46.1c.19-.26.62-.3.91-.49.07-.08-.36-.42-.34-.54.04-.19.33-.27.48-.24.24.05.5.19.36.53-.28.65-.76,1.16-1.34,1.68-.35-.33-.23-.73-.08-.94ZM80.12,51.49c.15.09.26.35.09.54-.36.42-.91.37-1.21.15-.08-.06-.09-.3-.04-.39.04-.08.83-.51,1.15-.31ZM78.53,44.42c.1-.04.5-.08.54.02.07.2-.15.48-.25.59-.13.14-.4.16-.49-.05s-.04-.47.2-.56ZM78.74,48.13c.18,1.17-.14,2.1-.75,3.04-.36-1.1.1-2.08.75-3.04ZM77.77,54.27c.23-.68.74-1.25,1.57-1.21-.49,1.17-1.16,2.94-2.26,3.58-.24-.83.41-1.56.69-2.37ZM76.32,52.19c.04-.05.3-.15.33-.09.04.09.08.33.05.43-.03.1-.15.06-.22.06-.19,0-.36-.15-.17-.39ZM77.37,64.61c.18.9-.57,1.21-1.03,1.55-.07.02-.12.03-.19.03-.33.46-.19,1.01-.22,1.77-.04.15-.38-.09-.43-.31-.07-.29-.24-.31.06-.62-.02-.16-.27-.44-.09-.62.07-.02.11-.17.02-.26l1.88-1.53ZM74.91,42.97c.06-.13.39-.21.62-.02-.11.08-.22.2-.19.39-.14.13-.3.24-.53.13.08-.11.04-.37.1-.5ZM74.4,40.06c.38.21-.03,1.41-.44,1.52-.36-.24-.27-.59-.3-.9-.03-.27.13-.95.74-.62ZM74.26,67.21c-.05.64-.6.97-1.17,1,.07-.5.37-1.01,1.17-1ZM74.87,67.27c.42,1.05.1,1.77-.66,2.42-.34.3-.58.97-1.38.46,1.26-.66,1.43-1.56,2.04-2.88ZM72.28,41.84c.06-.05.24-.04.34-.02,0,.22.04.54-.07.8-.11.16-.41.05-.39-.18,0-.18.01-.51.12-.6ZM72.11,66.73c.03.26-.26.33-.35.21l-.28-.34c-.13-.16.1-.17.2-.16.22.02.4.02.43.29ZM71.64,39.64c.14.55.09,1.11-.39,1.58-.38-.57-.22-1.19.39-1.58ZM70.14,46.6c-.11-.78.16-1.43.65-2.03.38-.47.87.8-.65,2.03ZM69.9,41.73c-.12-.45.54-.45.41-.01-.15.11-.23.29-.21.41.01.07-.12.12-.2.03-.07-.08-.33-.22,0-.43ZM68.71,38.54c.14-.17.36-.03.36.06v.41c0,.11-.22.18-.32.1-.14-.12-.17-.42-.04-.57ZM68.95,47.12c.11.03.36.3.47.5.15.26-.14.45-.26.42-.24-.04-.42-.17-.51-.31-.12-.2.04-.57.3-.61ZM69.98,65.57c-.46,1.15-1.28,1.93-2.11,2.97-.13-1.35,1-2.28,2.11-2.97ZM67.49,48.75c.1-.17.44,0,.36.27-.07.23-.03.45-.33.87-.18-.29-.21-.84-.03-1.15ZM66.82,45.41c.15-.13.32-.06.37.05.1.21-.28.51-.32.5-.14-.05-.17-.45-.06-.55ZM66.78,64.84c.05.12,0,.25-.1.32-.08.05-.36.04-.33-.28.15-.28.39-.13.43-.03ZM66.61,50.14c-.62,1.35-1.58,2.82-1.83,2.3-.18-.4.87-1.76,1.83-2.3ZM65.6,46.39c.12-.15.33-.14.4-.1.13.08.19.26.07.37-.12.11-.18.14-.25.17-.18.05-.43-.17-.22-.43ZM65.27,42.68c0,.59-.19,1.17-.6,1.92-.68-.58-.15-1.48.6-1.92ZM64.3,64.83c.13.15.23.21.18.42-.03.13-.25.36-.41.23-.12-.1-.21-.2-.22-.38v-.16c0-.29.31-.25.44-.1ZM63.87,72.13c.05.12,0,.25-.1.32-.08.05-.36.04-.33-.28.15-.28.39-.13.43-.03ZM63.5,45.39c-.07.06-.07.15-.05.19.07.16.01.38-.11.41-.11.03-.34.03-.41,0-.1-.05-.11-.23-.13-.39-.05-.35.21-.61.48-.65.16-.02.46.23.22.44ZM63.28,36.74c.14.12.23.34.17.41-.11.13-.29.12-.42.09.01-.13.01-.3-.01-.41.05-.3.19-.16.26-.1ZM63.23,37.56c0,.11-.08.28.2.33,0,.08.11.41.03.49-.07.07-.31.03-.4-.01-.29-.14-.07-.65-.21-.89.11-.1.36-.03.37.09ZM62.39,38.91c.18,0,.29.16.49.17.26.27.04.58-.26.77-.37.23-.4-.02-.54-.3-.12-.25-.2-.53.11-.66.05.05.19.03.2.02ZM61.62,34.57c-.39-.72-.13-1.59.59-1.94.35.28-.06,1.29-.59,1.94ZM57.65,30.33c.58.09.6.53.51.93-.09.39-.24.8-.8.98-.01-.85.16-1.28.29-1.91ZM57.47,34.19c.07-.12.48.13.62.08.22-.08.39-.29.52-.58l1.46-3.16c.09.68-.44,1.2.16,1.77l.81-2.38c.16-.47.83-.9,1.19-1.54.35,1.75-.72,2.41-.69,2.1l-.05.47c-.42.5-.65,1.35-1.36,1.66-.52,1.25-1.09,2.52-2.54,3.28-.41-.38-.43-1.11-.11-1.71ZM58.06,39.94c.42.41-.49,1.28-1.12,1.22-.22-.02-.56-.33-.45-.6.14-.35.34-.59.53-.7.28-.15.75-.2,1.04.08ZM54.28,30.3c.07-.22.08-.78.64-.65.32.07.32,1.01-.31,1.29-.41.18-.43-.35-.34-.63ZM54.48,34.36c.15.18.49.34.58.31.31-.65.2-1.15.33-1.54.15-.45.1-.96.14-1.55.37-.1.87-.39,1.27-.91.6,1.77-.4,3.18-1.47,4.51-.24.29-.61.03-.9-.17-.19-.13-.57-.62.05-.65ZM52.59,37.74l1.37-1.29c.75.34,1.19.83.92,1.74l-.93-1.03c-.3.61-.44.74-.65.84-.27.13-.89-.1-.72-.26ZM52.09,36.4c.06-.08.25-.33.35.02-.02.11-.27.32-.3.41h-.21c.04-.16.04-.26.15-.43ZM52.5,46.81c.21.25.15.61.11.94-.03.21-.11.67-.86.5.18-.5.39-.92.75-1.44ZM50.63,31.74c.45-.45,1.41.9,1.23,1.3-.13.28-.63.93-.94.48-.29-.41-.31-1.34-.29-1.77ZM49.47,38.69c.15-.02.55.1.68-.04.12-.14.19-.52.26-.76.56-.06.71,1.45.39,1.55-.12.04-.36.14-.76-.18l-.54,1.06c-.62-.36-.39-1.33-.03-1.63ZM47.35,41.79l.97-1.66c1.01.97-.48,2.25.44,2.8.16-.18.33-.46.45-.47.12-.02.37.02.44.38.05.29.15.66-.05.84-.26.24-1.59.18-2.1-.39-.37-.41-.42-1.02-.14-1.49ZM46.68,43.1c.4-.29.54.8,1.38,1.6-.71.14-1.37-.36-1.51-.97-.06-.26.02-.55.13-.63ZM46.07,82.48c.03-.09.3-.06.36,0,.08.08.14.26.08.41-.05.1-.22.23-.38.09-.08-.08-.15-.24-.06-.5ZM45.97,50.44c-.04.29-.15.02-.44-.13v-.16s.31,0,.31,0c.07,0,.15.12.13.29ZM45.56,44.52c.23-.02.42.71-.05.82-.24.06-.37-.79.05-.82ZM48.71,23.14l.31.5c.06.1-.01.35-.13.38-.13.04-.52.06-.71-.11-.54-.46-.47-1.43-.48-2.13.74.23.69.84,1.01,1.36ZM45.34,24.6c.31.57.36,1.06-.02,1.74-.32-.55-.34-1.17.02-1.74ZM44.39,26.02c.08.14.12.37.08.49-.06.18-.49.19-.5.08l-.05-.75c.24-.04.41.08.47.19ZM40.41,23.56c.1.02.31.14.43.56.1.37-.67.72-1.11.59.22-.7.4-1.22.68-1.15ZM41.3,24.93c.18.48.16.83.07,1.25-.68.35-1.33.88-2.05,1.03-.65-1.05,1.08-.96,1.97-2.29ZM37.5,28.89c-.13-.11-.12-.51-.08-.6.17,0,.44.25.41.46-.06-.05-.25.2-.32.14ZM37.6,22.99c.39,1.04.31,1.95-.1,2.84-.24-1.04-.59-1.91.1-2.84ZM34.63,17.87c.12-.35.24-.65.64-.6.04.37.04,1.01-.21,1.19-.56.1-.49-.41-.43-.59ZM20.42,84.56c.05.25-.2.43-.36.39-.08-.02-.17-.1-.14-.3-.07-.07-.26-.25-.21-.42.02-.07.11-.16.21-.12.26.11.48-.12.61-.33.29.4.37.61.71.98l-.81-.2ZM21.61,87.11c-.08-.08-.28-.28-.24-.6.03-.19.65-.08.67.45.01.27-.34.24-.43.15ZM23.24,86.48c-.14.36-.48.41-.68.32-.14-.07-.36-.32-.26-.61.22-.65.83-1.25,1.55-1.3l-.6,1.59ZM21.48,83.5c-.14-.32.2-.48.54-.61l2.9-1.07c.19-.07.42.2.42.31.04.94-3.48,2.21-3.85,1.36ZM25.52,86.1c-.24-.15-.64-.62-.35-.89l.94-.13.93-2.15c.11-.26.44-.31.59-.4.21-.13.39.09.45.24.1.28-1.34,4.09-2.55,3.33ZM28.93,81.59c.1-.78.84-1.22,1.46-1.12.29.05-.04,1.17-1.46,1.12ZM29.29,85.03c.02.11-.38-.04-.45.04-.01-.08-.1-.08-.2-.07l.23-.51c.1-.23.31-.19.33-.02l.09.56ZM28.72,69.39c-.2,0-.64-.23-.74-.53,1.06-.48,1.46-1.55,1.8-.94-.03.47-.47,1.21-1.05,1.48ZM26.69,88.14c-.13-.95,1.3-2.44,1.45-2.39.22.07-.4,1.76-1.45,2.39ZM28.01,88.83c.72.08,1.18.58,1.69,1.1-.7.41-1.67-.23-1.69-1.1ZM29.91,88.58c-.09.15-.83.22-1.13-.09-.05-.05-.18-.11,0-.23.09-.06.27,0,.31,0,0-.11.08-.18.2-.32.08-.09.23-.13.24.12.28.03.47.38.39.52ZM29.71,83.23l.88-.76c.12-.1.34-.31.46-.32.15-.01.41.14.44.41.02.17-.05.31-.31.52l-.92.72c-.15.07-.59-.33-.55-.58ZM31.32,90.18c.22-.32.49-.53.95-.62,1.04-.22,1.57-1.49,2.14-1.7.78-.29-.84,2.86-2.88,3.16-.52.08-.35-.64-.21-.84ZM34.08,63.9c-.01-.15.15-.2.2-.24.06-.18.19-.22.32-.17.1.03.18.23.11.31l-.26.27c-.15.16-.28.29-.47.26-.08-.02-.18-.17-.11-.31.04-.07.11-.11.2-.11ZM34.14,56.44c.24-.09.39.5.24.57-.12.06-.36-.08-.42-.17-.08-.11-.08-.31.18-.41ZM35.14,63.36c-.47-.52-.53-1.13-.37-1.77.66.37.68,1.15.37,1.77ZM35.6,65.86c.07.08.17.27.13.42-.04.13-.37.16-.47.09-.09-.06-.08-.35,0-.48.08-.13.26-.12.34-.03ZM34.05,65.32c.35.72-.03,2.03-.5,2.34-.12.07-.5-.02-.5-.2.01-.86.43-1.54,1.01-2.14ZM35.97,68.37c-.7.32-1.58.25-1.79-.59.71-.04,1.19.31,1.79.59ZM36.19,70.98c0,.13-.1.23-.23.23s-.23-.1-.23-.23.1-.23.23-.23.23.1.23.23ZM34.35,72.8c-.15-.41,0-.98.36-1.5.49.46.4,1.11-.36,1.5ZM35.15,91.78c-.99.22-1.92.09-2.78-.45.83-.68,2.04-1.37,3.11-.9.35.15.03,1.27-.32,1.35ZM35.52,90.36c.65-.89,1.48-1.44,2.51-1.65.35.95-1.56,2.13-2.51,1.65ZM37.2,86.99c.45.16.16.67-.06.84-.15.11-.4.47-.58,0-.02-.04.02-.2.02-.27.11-.14.4-.51.62-.58ZM37.36,73.71c.49-.17.53.25.49.5-.04.29.04.63-.54.77-.16-.24-.25-1.15.05-1.26ZM36.33,75.97c.07-.1,0-.16-.07-.21-.19-.15.09-.36.22-.2.08.1.13.19.31.27-.03.17-.28.2-.46.14ZM37.97,65.3c.05-.07.27-.1.32-.06.11.11.15.41-.11.45-.17.03-.38-.13-.21-.39ZM38.46,78.5c-.13,0-.23-.1-.23-.23s.1-.23.23-.23.23.1.23.23-.1.23-.23.23ZM40.23,76.6s-.25-.12-.21-.36c.03-.21.51.14.49.26-.02.17-.23.15-.29.1ZM41.8,74.92c-.12.4-.6.2-.38-.13,0-.26.16-.38.28-.42.1-.03.31.02.39.13.06.08.06.33-.29.42ZM41.35,72.44c0-.13.1-.23.23-.23s.23.1.23.23-.1.23-.23.23-.23-.1-.23-.23ZM42.83,70.67c0,.11-.22.18-.31.1-.14-.12-.17-.42-.04-.57.14-.17.36-.03.36.06v.41ZM44.52,45.98c.28,0,.45.75.23.82-.37.11-.44-.18-.48-.3-.05-.14-.09-.53.25-.52ZM43.41,80.92c.06-.06.24-.04.3-.02.1.03.17.29.09.35-.1.07-.16.02-.22.04-.19.05-.34-.2-.17-.37ZM43.04,65.66c0,.08-.1.15-.22.02-.14-.14-.28-.27-.14-.49.09-.14.36-.05.36.06v.41ZM42.25,43.41c.25-.09.58.37.76.87-.48.27-1.14.28-1.88.3.15-.6.56-.95,1.12-1.16ZM40.36,38.17c.33-.39.98-.48,1.2-.12.33.55-.95,1.64-1.33,1.25-.47-.48-.07-.89.13-1.13ZM39.45,38.45c.58.86.42,1.91-.25,2.54-.63.58-1.91.62-2.58-.19,1.06-.88,2.04-1.37,2.83-2.35ZM36.45,41.23c.41.23.57.76.34,1.16-.54.47-.76.84-1.63,1.25l-.72-1.87c.9.24,1.46.07,2.01-.54ZM34.91,29.46c.45-.12.38.24.38.39,0,.25-.3.28-.38.19-.16-.17-.24-.52,0-.58ZM34.92,34.99c.79.27.15,1.91.03,4.1-.19.03-.37-.08-.35-.18l.05-.36c.05-.37-.67-1.11-.8-2.37-.04-.44.44-1.42,1.08-1.2ZM33.7,39.04c.05-.12.29-.1.43-.12.03.22.25.44.34.58l-.02,1.28c-.57-.29-.86-1.51-.76-1.74ZM33.27,36.58c.03.2-.04.51-.23.46v-.42c.08-.33.21-.13.23-.04ZM32.62,70.04c.05-.12.22-.13.31-.1.1.04.37.23.26.43-.07.13-.71-.01-.57-.34ZM34.16,85.11c.16.62-1.19,1.79-1.95,1.57.23-.87,1.21-1.41,1.95-1.57ZM32.55,87.47c.15.21-.05.81-.43.73-.15-.03-.15-.91.43-.73ZM31.9,71.37c-.09.03-.38-.27-.3-.43.15-.26.26-.02.31.03.09.07.14.36-.01.4ZM31.91,66.58c-.44-.31-.71-.69-.65-1.15.72.16.73.75.65,1.15ZM30.86,39.4c.22-.18.43-.02.44.2.02.35-.16.63-.44.51-.1-.1-.11-.62,0-.71ZM30.55,66.92c.23.26.54.45.62.72.06.21-.21.3-.3.23-.06-.05-.11-.13-.14-.2-.22-.1-.33-.3-.49-.46-.31-.27.08-.6.32-.29ZM30.03,71.68c-.04.1-.12.03-.19.04-.19.03-.4-.11-.17-.36.05-.05.28-.14.31-.08.05.09.08.31.05.41ZM29.41,40.37c.27-.05.49.16.56.32.19.44-.49.94-1.03,1.06-.26.06-.42-.11-.48-.26-.15-.39.58-1.04.95-1.11ZM27.88,57.18c.15-.2.24,0,.3.07.13.14.07.39-.04.42-.23.06-.47-.19-.25-.49ZM28.11,64.47c.33.32-.24,1.22-.58,1.07-.46-.2-.31-.54-.12-.7.15-.13.41-.64.7-.37ZM27.06,37.17c.13-.18.23.01.28.07.14.17.09.32,0,.42-.05.05-.17.22-.23.18-.12-.06-.19-.47-.04-.67ZM26.25,80.6c.28.33.18.97-.09,1.33-.12.16-.44.21-.52.1-.17-.2-.12-.59-.03-.81l.21-.53c.05-.14.35-.2.43-.09ZM25.96,46.72v.41c0,.11-.22.18-.32.1-.14-.12-.17-.42-.04-.57.14-.17.36-.03.36.06ZM25.18,43.75c.14-.17.36-.03.36.06v.41c0,.11-.22.18-.32.1-.14-.12-.17-.42-.04-.57ZM24.3,51.59c.13,0,.23.1.23.23s-.1.23-.23.23-.23-.1-.23-.23.1-.23.23-.23ZM23.81,66.82c.1.12.1.39-.04.42-.25.06-.46-.2-.26-.48.15-.21.25,0,.3.06ZM23.56,51.88l.03.43c.01.14-.25.11-.35.04-.12-.09-.12-.26-.03-.39.04-.05.34-.14.35-.08ZM22.97,33.86c.07-.06.27-.09.33-.06.09.05.08.19.03.36-.04.14-.22.2-.34.1-.08-.06-.1-.33-.02-.4ZM22.63,63.67c.13,0,.23.1.23.23s-.1.23-.23.23-.23-.1-.23-.23.1-.23.23-.23ZM22.88,75.54c.08.05.16.03.17-.07.08-.18.38-.22.48.09-.4.44-.71.9-1.26,1.1-.21-.58.18-.96.62-1.12ZM20.97,74.42c-.26.08-.76-.07-.81-.64.6.07,1.26-.31,1.87-.6.51.2-.5,1.06-1.05,1.23ZM21.54,44.61c.02-.07.27-.07.31.02.05.09.1.28.08.4-.03.17-.28.15-.37.04-.09-.11-.09-.2-.03-.46ZM21.39,71.25c-.13.19-.75-.34-.55-.59.2-.25.9.11.55.59ZM21.17,61.3v.41c0,.11-.22.18-.32.1-.14-.12-.17-.42-.04-.57.14-.17.36-.03.36.06ZM20.48,31.24c.26.25.31.71.3,1l-.02,1.48c0,.13-.22.37-.32.37-.18,0-.01-.41-.14-.57-.35-.43-.16-1.01.11-1.35-.39-.3-.04-.73.08-.94ZM19.61,71.66c.2.01.18.67-.22.73-.2,0-.17-.67.22-.73ZM19.05,47.32c.18.02.31.59.13.68-.33.16-.4-.14-.4-.29,0-.14-.06-.42.27-.39ZM18.82,60.48c.33-.09.4.12.46.25.09.17,0,.72-.17.68-.39-.08-.47-.64-.29-.93ZM18.32,61.91c.24-.01.52.26.38.63-.2.52-.49.77-.93,1.06-.38-.68-.03-1.65.55-1.69ZM17.69,58.77c.05.15.31.31-.13.58-.12-.12-.34-.4-.37-.73.04-.14.41-.1.5.15ZM16.83,27.02c.54.31.71.92.31,1.51-.27-.44-.42-.9-.31-1.51ZM9.94,62.99c-.17.18-.43.45-.61.17-.08-.12-.19-.39-.23-.54-.02-.08,0-.16,0-.23.01-.15.22-.23.31-.15.06.05.12.17.31.21.44.09.42.34.22.54ZM9.89,57.71c-.62-.05-1.37-.8-.87-1.28.43-.25,1.1.88.87,1.28ZM10.02,55.1c.32-.43,1.2.12,1.52.5.08.03.04.08.05.12.01.08-.03.29-.11.28-.08-.01-.27-.04-.33.15-.2.59-.82.68-1.12.41-.41-.36-.42-.91,0-1.47ZM13.39,58.46l-1.04,1.61c-.48.75-.78,1.43-.23,2.1,0-.41.31-.38.41-.18l1.64-1.36c.52-.43,1.45.36,1.4,1-.13.19-.67.03-.91-.56-.27.34-.21.78-.24,1.24-1.62.44-1.52,1.92-2.54,2.01-.19.02-.43-.43-.47-.68l-.54-3.38c-.55.2-.47.55-.57.97-.52-.36-.5-.86-.63-1.49l-.36-.35c-.09-.09.05-.32.18-.4.13-.08.51.08.68.11.78-.36,1.23-1.33,1.77-2.02.44.69.79,1.03,1.45,1.38ZM8.99,49.51c.67.32.96,1.15,1.12,1.9.66.09,1.11-.27,1.7-.54.42.51.58,1.45.31,1.9-.55.19-1.22.4-1.82.7-.23.12-.77-.15-.99.06-.33.32-.36,1-.78,1.23-1.17.64-.03-2.1.1-2.96.12-.75-.15-1.56.35-2.3ZM8.14,63.4c-.22.09-.69.38-.86.13-.26-.38-.36-.86-.09-1.12.24-.23,1.01-.32,1.23-.05.35.43,0,.93-.29,1.04ZM6.36,49.66c-.92-.43.26-1.86,1.33-3.22.31-.14,1.02.72.8.97l-1.58,1.8c-.18.2-.28.58-.55.46ZM6.81,54.85c-.24-.15-.33-.46.05-.68.25-.15.51-.05.67.12.14.15.2.51-.07.75-.15.13-.42-.05-.65-.19ZM6.3,66.01c.85-.14,1.18.61,1.67,1.04-.02-1.58-.93-2.72-.04-2.94.32-.08.55.05.8.35.37.47.16.94.34,1.56.12.43.48,1.64-.32,1.66-.96.03-2-.93-2.45-1.68Z"/>
      <path class="cls-1" d="M40.2,17.88c.27-.25.58-1.44.03-1.66-.65-.25-.61.99-1.19,1.81.47.25.9.09,1.16-.16Z"/>
      <path class="cls-1" d="M96.79,63.16c-.09.73-.8,1.25-1.13,1.85l-1.13,2.06c1.45-.76,1.82-2.11,2.46-3.35.07-.14.37-.25.39-.37.02-.09-.02-.25-.11-.28-.09-.03-.38.02-.48.09Z"/>
      <path class="cls-1" d="M94.73,74.3c-.15.19.01.43.1.54.09.12.34.19.4-.04.05-.18-.06-.29-.12-.41-.05-.1-.12-.43-.38-.09Z"/>
      <path class="cls-1" d="M95.66,72.39c.18-.16.39-.33.47-.48.1-.2-.12-.35-.28-.52-.19-.2-.39-.23-.55.15-.04.1-.04.21-.02.27.04.1.05.24.02.31-.1.21.15.44.35.26Z"/>
      <path class="cls-1" d="M95.7,86.18c-.64.15-.93.47-1.24.77.36.37.72.1.95.03.33-.1.52-.59.29-.79Z"/>
      <path class="cls-1" d="M97.9,83.25l-.68-.13,1.36-3.9c-.68.67-1.24,1.42-1.67,2.26l-.38,1.79c-.35.7-1.02,1.21-1.04,2.09l2.22-1.47c.22-.14.33-.62.19-.64Z"/>
      <path class="cls-1" d="M89.16,80.62c-.04.23.16.31.21.35.05.05.26.07.29-.1.02-.12-.45-.47-.49-.25Z"/>
      <path class="cls-1" d="M98.83,85.84c.08-.02-.12-.48-.18-.4-.61.81-1.22,1.12-2.06,1.47-.42.3-.43,1.35-.36,1.76,1.94-1.16,1.78-2.64,2.6-2.82Z"/>
      <path class="cls-1" d="M96.09,68.15c-.03-.25-.06-.32-.13-.41-.09-.12-.2-.08-.25,0-.52.83-2.18,1.32-2.11,3.27,1.21-.35.97-2.13,2.48-2.85Z"/>
      <path class="cls-1" d="M97.32,72.02c-.15.05-.29.2-.35.41l-.05.16c-.26.85-.46,1.63-.5,2.59l.92-1.59c.17-.3-.07-1.08.6-1.32-.13-.28-.41-.3-.61-.23Z"/>
      <path class="cls-1" d="M91.36,84.4c-.11.09-.22.2-.31.3.14.15.28.36.45.41.17-.11.31-.31.26-.47-.03-.13-.25-.36-.41-.24Z"/>
      <path class="cls-1" d="M97.86,67.78c-.82.76-.8,1.65-.81,2.74.71-1.09,1.29-2.2.81-2.74Z"/>
      <path class="cls-1" d="M92.7,68.8c.54-.04,1.01-.05,1.46-.25.1-.98-.32-.65-1.46.25Z"/>
      <path class="cls-1" d="M95.86,37.17c-.51.26-1.03,1.18-.72,1.7.65.41,1.79.87,1.91,1.8.06.48-.52,1.34.12,2.03.66-1.32,1.39-2.97,1.06-4.35-.89.02-1.96-.07-2.36-1.19Z"/>
      <path class="cls-1" d="M94.75,55.22c-.4.22-.32.55-.19.75.07.1.16.25.34.13.2-.14.25-.37.21-.61-.02-.12-.24-.34-.36-.27Z"/>
      <path class="cls-1" d="M93.26,28.1c-.52.92-.25,2.29.92,2.59.55.14,1.47-1.27.92-1.79l-1.84-.8Z"/>
      <path class="cls-1" d="M94.88,50.58c-.47.16-.76.27-1.15.59l1.18.88c.23-.64.16-1.01-.03-1.48Z"/>
      <path class="cls-1" d="M91.44,70.72c0,.21.28.39.47.41.21.02.44-.06.58-.49.13-.41-.12-.66-.47-.5-.29.14-.57.33-.57.58Z"/>
      <path class="cls-1" d="M95.03,62.24c.4-.08.57.34,1.16.4-1.06-1.37.07-2.33.06-2.8,0-.28-.32-.41-.61-.37-.45.06-1.28,2.3-1.53,3.58.39-.33.54-.73.93-.81Z"/>
      <path class="cls-1" d="M95.51,30.79c-.61.88-1.12,1.72-1.39,2.66-.09.32-.26.68-.26,1.02.02.66-.56,1.14-.72,1.85-.15.67.83,1.58,1.41,1.97l.16-2.35.36-2.04.07-.2c.04-.13,0-.26-.02-.39.58-.89,1.35-2.6,1.16-3.62l-.76,1.1Z"/>
      <path class="cls-1" d="M98.97,68.47c-.39.18-.65.62-.48.83.63.04.7-.65.48-.83Z"/>
      <path class="cls-1" d="M98.33,61.82c-.08-.02-.19-.01-.33-.01.03.03.05.14-.02.18,0,.16.07.23.15.25.13.04.27-.04.3-.12.05-.11-.02-.28-.11-.3Z"/>
      <path class="cls-1" d="M94.14,39.95c.01.57-.11.93-.33,1.47.71-.02.73-.48.78-.78.05-.28.02-.69-.44-.69Z"/>
      <path class="cls-1" d="M96.63,75.66c-.14.2.41.51.66.32.59-.45,1.24-.93,1.55-2.19-.83.54-1.61,1.05-2.2,1.87Z"/>
      <path class="cls-1" d="M90.93,79.64c-.47-.27-.72-.11-.85,0,.39.16.63.11.85,0Z"/>
      <path class="cls-1" d="M97.28,79.28c.62-.05.9-1.03.55-1.52-.56.22-1.06.47-1.22.94.56-.16.5.6.67.58Z"/>
      <path class="cls-1" d="M90.74,69.63c.12.18.46.14.58.19.04-.32-.08-.66-.31-.71-.15.13-.37.37-.27.52Z"/>
      <path class="cls-1" d="M90.17,72.08c.1.14.27.21.42.12.07-.04.19-.11.33-.36.16-.3-.08-.44-.27-.38l-.36.13c-.27.1-.24.32-.13.48Z"/>
      <path class="cls-1" d="M91.16,78.4c.25.34.2.68.22,1.1,1.01-.51,1.62-1.45,1.7-2.59-.51.86-.83,1.57-1.73,1.37.05.04-.14-.41-.06-.49.56-.53,1.13-1.76,1.69-2.14.64-.26.81-.76.49-1.47-.48.43-.6.79-.75,1.34-.72-.07-1.2.24-1.85.75-.33.26-.01,1.09.39,1.65-.7.18-1.22.24-1.68.71.71.21,1.13-.07,1.59-.23Z"/>
      <path class="cls-1" d="M92.71,61.61c.13-.1.2-.21.3-.25-.01-.04-.01-.1.02-.12.02-.26-.22-.32-.32-.24-.15.13-.27.23-.31.34-.08.19.17.39.31.28Z"/>
      <path class="cls-1" d="M90.31,67.53l.2.32c.17.01.4-.14.42-.37l-.32-.25c-.17-.13-.42.13-.3.3Z"/>
      <path class="cls-1" d="M91,74.21c-.02-.34-.4-.26-.46-.14l-.82,1.51c.64-.19.82-.76,1.28-1.37Z"/>
      <path class="cls-1" d="M100.37,87.32c-.29.92-.68,1.38-.72,2.22.49-.15.54-.59.8-.95.22,1.09-.48,2.45.21,2.52.15.02.23-.19.67-.44l.1,1.1c.82-.5.84-1.38.7-2.26l-.68.5c.4-1.31-.08-2.19-1.08-2.69Z"/>
      <path class="cls-1" d="M88.23,82.85h-.21c0-.18-.12-.26-.31-.21-.82.22.52.81,1.21.6.28-.09.74-.57.49-.95-.26-.4-1.11-.46-1.52-.02l1.38.3c-.43.08-.89-.05-1.05.29Z"/>
      <path class="cls-1" d="M98.14,92.79l.79.43c.14.07.68-.14.38-.47-.58-.62-1.13-1.24-1.17-2.27-.78.18-1.19.42-1.7.9.43.21.69.51.61.72l-.29.77c.23.51,1.09-.24,1.38-.09Z"/>
      <path class="cls-1" d="M91.85,90.97c-1.31-.53-1.84.51-2.47,1.17-.6.64-1.69.83-1.96,1.87,2.33.26,2.44-2.26,4.43-3.04Z"/>
      <path class="cls-1" d="M88.53,95.65c-.02.18.18.34.24.3.08-.05.1-.22.08-.3-.04-.14-.3-.19-.32,0Z"/>
      <path class="cls-1" d="M93.34,56.01c-.2-.06-1.73,1.13-1.1,1.91.71-1.22,2.05-1.64,1.1-1.91Z"/>
      <path class="cls-1" d="M94.17,88.65l.11.59c.03.18,0,.39-.03.47-.34.31.03.36.14.49.19.2.71.23.69.01-.06-.46.06-.59.22-.81.23-.3-1.18-1.03-1.13-.75Z"/>
      <path class="cls-1" d="M99.81,44.35c-.39.21-.73.68-.4,1.12.56-.36.44-.77.4-1.12Z"/>
      <path class="cls-1" d="M90.53,84.21c.17-.19.26-.31.19-.62-.03-.15-.33-.19-.44.06-.04.08-.26.14-.2.44.06.3.31.28.45.12Z"/>
      <path class="cls-1" d="M95.24,83.19c-1,.72-.94,1.81-2.01,2.28-.08-1.21.8-1.87,1.3-2.78l.28-.5c.11-.2.55,0,.71,0,.54-.01.77-.7.85-1.1.14-.68-1.2-1.35-1.33-1.89-.31-1.26,1.56-1.72,1.37-2.55-.12-.56-.67-1.22-1.15-.9-.21.2-.03.98-.17,1.28l-1.66,3.55,1.48-.73c-.17,1.15-1.06,1.49-1.5,2.32.64-.44,1.31-.68,1.73-1.49.19-.1.54.38.51.64-.05.34-1.11.53-1.85,1.77-.43.71-.99,1.6-1.35,2.36-1.41.91-2.36,2.54-1.67,4.19.79-.96.96-1.88,1.36-2.93l1.46.58c1.09-1.18,1.55-2.59,1.65-4.06Z"/>
      <path class="cls-1" d="M92.66,90.28l.51-1.86c.07-.27,0-.49-.26-.57-.48-.14-1.29,1.79-.25,2.43Z"/>
      <path class="cls-1" d="M98.6,58.23c-.77.89-1.2,1.75-1.47,2.85.94-.74,1.43-1.83,1.47-2.85Z"/>
      <path class="cls-1" d="M91.11,33.47c.27.47.57.79,1.07.89l.66-1.78c-.75.05-1.24.4-1.73.89Z"/>
      <path class="cls-1" d="M92.01,68.52c1.06-1.03,1.78-2.22,2.1-3.53l.83-.86c.07-.07.29-.1.16-.34-.09-.17-.3-.16-.42,0-.08.11-.19.15-.2.34-.02.27-.5.34-.62.57l-1.09,2.16c-.26.5-.95.9-.76,1.67Z"/>
      <path class="cls-1" d="M98.74,61.28c.11.06.29-.02.33-.17l.13-.46c.42,0,.5-.29.57-.49.03-.1.11-.25-.19-.44l-.99,1.04c-.13.14.02.44.14.51Z"/>
      <path class="cls-1" d="M92.07,44.63c-.02.16.17.35.23.3.15-.11.11-.23.09-.31-.04-.14-.29-.19-.32,0Z"/>
      <path class="cls-1" d="M94.9,48.21l.35-1.12c.03-.09-.21-.26-.26-.22l-.38.3-.69-1.01c.1,2.27-1.71,3.5-.91,4.59l1.89-2.55Z"/>
      <path class="cls-1" d="M72.16,13.44c.08-1.38.86-2.38.56-2.66-.07-.07-.39.04-.4.17-.16,1.58-1.23,2.25-.58,2.67.09.06.33.06.42-.18Z"/>
      <path class="cls-1" d="M77.4,8.3c.17.05.34.01.42-.11.08-.12-.05-.41-.21-.32l-.43.22c.02.12.05.22.21.21Z"/>
      <path class="cls-1" d="M85.92,20.33c.62-.81.88-1.78.14-2.51-1.2,2.32-.36,3.76-.14,2.51Z"/>
      <path class="cls-1" d="M72.16,20.03c.32-.85,0-1.48-.42-2.17.63.06,1,.47,1.48.69,1.24-.42,1.38-1.49,1.82-2.72.45.43.39,1.04.16,1.62-.34.89-.28,2.88.95,3.05,1.37.18,2.82-1.14,3.76-2.02.63-.92.57-2.16.89-3.34-1.53,1.1-1.39-.85-3.26.1-.41.21-.41.85-.45,1.6-.94-.37-1.2-1.24-1.26-2.06-.01-.2-.28-.55.09-.74.21-.11.34-.44.24-.63-.13-.27-.31-.32-.58-.21-.37.14.14,1.28-.58,1.45-.71.17-.77-1.1-1.51-1.57-.6.88-.98,2.01-2.18,2.21l-1.05,3.13,1.89,1.6ZM76.25,17.89c.43.3.63.54.49,1.04l-.59-.47c.04-.06.03-.14-.05-.16,0-.17.02-.33.14-.41ZM71.79,15.43c.31.68.25,1.28.11,1.82-.61-.54-.78-1.33-.11-1.82Z"/>
      <path class="cls-1" d="M77.68,31.42c.11-.05.25-.19.36-.43l.22-.5c.07-.16-.08-.37-.3-.32-.14.03-.34.25-.34.41v.42c-.12-.02-.18.04-.21.11-.1.18.14.38.29.31Z"/>
      <path class="cls-1" d="M77.93,27.86c.15-.13.2-.56-.11-.61,0-.11-.04-.18-.11-.21-.26-.09-.26.12-.35.18-.24.15-.29.94-.03,1.04.34.05.49-.31.59-.4Z"/>
      <path class="cls-1" d="M89.72,86.82c-.43.05-.33.4-.45.6l-1.62,2.71c1.59-.41,2-1.92,2.07-3.31Z"/>
      <path class="cls-1" d="M80.7,20.46l.07,1.86,1.24-1.16c-.89-1.15.13-2.2-.12-3.29-.06-.25.23-.26.35-.12.17.2-.12.56.17,1.06.07.11.46-.19.64-.09.2,1.56-.06,3.19.65,4.7-.03-2.12-.18-4.12.04-6.28.12-1.12-2.13-.68-2.77-2.67.35,2.46-.86,4.75-.27,5.99Z"/>
      <path class="cls-1" d="M82.98,26.22c-.16.29.04.54-.08.6-.17.09-.5.21-.78.21-.18-.05-.07-.29.06-.33.2-.06.33-.06.5-.25-.8.11-1.21-.07-1.82-.65-.15,1.14-.29,2.08.08,3.17.41-.41,1.13-.77,1.47-.35.17.2.19.45.31.51.16.09.47,0,.51-.14.03-.11.06-.34.06-.48-.01-.39.26-.38.46-.38.2,0,.49.03.53.37.03.26.06.38.19.52.48.57,1.09-1.55.49-2.61-.46-.82-1.42,1.34-1.98-.2Z"/>
      <path class="cls-1" d="M78.64,33.01c-.46.55-1.04,1-1.04,1.79.89-.27,1.19-1.01,1.04-1.79Z"/>
      <path class="cls-1" d="M80.29,41.33c.38-1.77.22-3.32.99-4.78.24-.44.61-1.02-.01-1.53-.13,1.25-.71,2.09-1.4,3.04.06,1.15-.07,2.26.42,3.27Z"/>
      <path class="cls-1" d="M84.94,21.62l-.15-2.14c-.05-.66-.07-1.31-.09-1.92-.04-.09-.12-.11-.16-.11l-.11,3.89-.15.46c-.19.6-.49,1.22-.02,1.91.77-.52.73-1.39.68-2.1Z"/>
      <path class="cls-1" d="M66.27,12.07c.08-.16-.11-.62-.31-.65-.58.11-.56.96-.34,1.19.36-.05.54-.33.64-.54Z"/>
      <path class="cls-1" d="M67.77,16.81c.82-1.2,1.59.17,2.23-.56.82-.95.54-2.28.49-3.91-.47-.56-1.56-.57-2.28-.52-.48,1.3-.43,2.57-.69,3.92-.08.39-.25,1,.26,1.08Z"/>
      <path class="cls-1" d="M69.56,19.3c-.56-.34-1.27-.24-1.96-.12.06,1.53.06,2.93-.22,4.51.66-.01,1.43.05,2.01-.17,1.8-.7,1.04-3.69.17-4.23Z"/>
      <path class="cls-1" d="M64.81,28.88c0,.74,1.09.33,2.06,1.07.38,1.17.28-.72,1.82-1.2.85-.26,1.21-1.05.95-1.86-.16-.5-.46-.8-.88-.82-.44-.03-.7.1-.98.53-1.63,2.49-2.97,1.78-2.96,2.29Z"/>
      <path class="cls-1" d="M75.29,23.86c-.4.25-.54.78-.57,1.15-.02.3.19.75.71.71.03-.76-.03-1.2-.14-1.86Z"/>
      <path class="cls-1" d="M65.44,25.72c-.63.21-.66.66-.46,1.12.34-.23.45-.68.46-1.12Z"/>
      <path class="cls-1" d="M71.02,26.79c-.18.65-.52,1.27.1,1.89.38-.26.65-.48,1.11-.58.45-1.08.63-2.13.59-3.38.4,0,.84-.09,1.02-.29.2-.22.28-.57.25-.93-.71.06-1,.44-1.18.96-.04-1.73-1.29.16-1.89,2.34Z"/>
      <circle class="cls-1" cx="74.28" cy="28.08" r=".23"/>
      <path class="cls-1" d="M74.21,20.55c-.67,0-1.35.71-1.31,1.56.02.39.88.47,1.18.25.75-.55.31-1.81.13-1.81Z"/>
      <path class="cls-1" d="M73.79,37.68c.73-1.09,1.37-2.18,1.21-3.52-1.05.9-1.52,1.94-2.04,3.09.18.21.47.37.84.43Z"/>
      <path class="cls-1" d="M78.93,24.83c-.45-.7-1.14-1.33-2-1.77-.31.62-.11,1.93.48,2.17.58.11.89.11,1.1.8.37-.26.61-.91.43-1.2Z"/>
      <path class="cls-1" d="M74.08,30.7l.25-.45c.18-.33.39-.41.28-.76-.07-.23-.32-.49-.54-.19-.27.36-.49.65-.45,1.1.02.28.39.44.46.31Z"/>
      <path class="cls-1" d="M82.15,38.36c1.4-1.09,1.29-2.7.53-3.79-.39,1.45-.96,2.53-.53,3.79Z"/>
      <path class="cls-1" d="M100.29,41.04c.03-.29.5-.62.69-.81.34-.35.11-.86.22-1.21l.37-.43c.13-.15-.18-.58-.46-.49-.34.16-.33.84-.46,1.14l-.63,1.46c-.35.81-1.26,1.45-1.29,2.57,1.14-.02,1.76-1.21,1.56-2.23Z"/>
      <path class="cls-1" d="M100.3,58.17c-.04.07-.09.14-.21.1v.17c-.05.25.13.27.23.15l.2-.23c.15-.17-.09-.44-.22-.2Z"/>
      <path class="cls-1" d="M98.65,15.33c-.25.49-.05,1.08.29,1.48.3-.49.31-1.16-.29-1.48Z"/>
      <path class="cls-1" d="M98.93,27.33c.82-.97.58-2.48-.38-2.86-.47.48-.36,1.07.02,1.43.17.3-.17,1.14.36,1.43Z"/>
      <path class="cls-1" d="M98.39,30.47c.03-.23-.82-.36-.96-.17-.32.41-.42,1.11-.24,1.83.51-.43,1.09-.88,1.2-1.66Z"/>
      <path class="cls-1" d="M101.03,42.14c-.42,1.42-.43,2.66-.15,3.9.48-1.45.5-2.7.15-3.9Z"/>
      <path class="cls-1" d="M88.49,91.76c-.23.06-.39.27-.38.36.01.13.33.1.6-.12.37-.16.03-.62-.22-.24Z"/>
      <path class="cls-1" d="M96.43,92.73l-1-.26c-.13-.04-.4-.28-.15-.52.53-.13.22-.62-.2-.39-.45.75-.97,1.29-1.93,1.08.4-.77.97-1.12,1.61-1.61l-.79-.86c-1.32,1.06-2.48,2.01-3.5,3.28l2.17-.33c1.31-.2,2.59.04,3.79-.39Z"/>
      <path class="cls-1" d="M100.4,60.86c-.59.63-.76,1.23-.93,1.81l-1.12,2.04c.31.08.53.14.61.22.07.07.29-.28.33-.41l.64-2.03c.16-.51.47-.95.46-1.62Z"/>
      <path class="cls-1" d="M100.11,69.33v.19c-.06,0-.1-.02-.22.09-.12.11-.02.38.2.24.09-.06.22-.2.22-.33.15.02.21-.1.2-.22.16.03.23-.12.32-.19.19-.14.16-.44-.1-.43h-.21c-.29.06-.49.34-.4.64Z"/>
      <path class="cls-1" d="M96.91,90.35c.2-.25.37-.46.28-.88-.05-.2-.29-.23-.41-.07-.07.09-.26.16-.21.33.06.21-.13.45-.22.6.06.42.45.17.56.03Z"/>
      <path class="cls-1" d="M85.9,27.89l-.43,2c-.65,1.3-.74,2.84-.44,4.3.67-.13,1.03-.65,1.26-1.18,1.04-2.43,1.26-2.41,1.2-5.1-.01-.62-.73-1.18-1.09-1.57l-.5,1.54Z"/>
      <path class="cls-1" d="M88.68,34.16c-.25.51-.04,1.07-.09,1.52l-.3,2.45c1.15-1.05,1.34-2.77.4-3.97Z"/>
      <path class="cls-1" d="M88.78,28.49c.13.04.27-.05.29-.13.03-.2-.04-.4-.13-.49-.07-.07-.4-.16-.44.13-.05.33.16.47.28.5Z"/>
      <path class="cls-1" d="M87.25,38.85c-.07.26-.03.55.24.61.14.03.86-.71.63-.97.15.17-.74-.1-.87.35Z"/>
      <path class="cls-1" d="M87.19,23.64c.88-.99,1.35-3.35.35-3.53l-.35,1.3c-.06.23-.05.35-.17.62-.23.53-.57,1.44.17,1.61Z"/>
      <path class="cls-1" d="M98.08,35.55l.33-2.98c-1.13.91-1.38,2.42-1.46,3.83.55.08,1.07-.29,1.13-.85Z"/>
      <path class="cls-1" d="M85.84,11.81c.4-.12.41-1.04.23-1.21,0,0-.32.17-.37.41.07.08.06.27.02.39-.06.12.02.44.12.41Z"/>
      <path class="cls-1" d="M89.02,24.04c.62.05.75-1.26.36-1.31-.79-.1-.69,1.28-.36,1.31Z"/>
      <path class="cls-1" d="M91.61,17.41s0-.07-.01-.1c.41-.41.29-1.16-.16-1.53-.18.81-.42,1.41-.4,2.25.4-.03.49-.38.57-.62Z"/>
      <path class="cls-1" d="M93.06,15.47l.64-1.47c.09-.2.14-.34.08-.5-.27-.66-.7.84-1,.97-.39.17-.95.06-1.41.07.15.8.87,1.06,1.69.94Z"/>
      <path class="cls-1" d="M90.51,26.09c.81.52,2.1-1.95,2.29-.99l.4,2.04c.35-.51.7-1.18,1.24-1.12.25.02.51.22.65.28.51.21,1.86-1.28,1.5-2.46l-2.24-.45c-.47-1.41-2.17-.6-3.2-1.7.08-.6.22-1.4-.49-1.86-.11.69-.05,1.25.04,1.81.02.1.06.22.02.28-.06.09-.28.12-.38.13.15.32.2.52.19.79-.04.73.09,1.68-.18,2.32-.1.22-.05.79.16.92Z"/>
      <path class="cls-1" d="M89.24,31.55c.21.12.54.15.7-.09.32,0,.7.17.95.03.21-.94,1.19-1.37,1.66-2.02.04-.21-.5-.69-.74-.47l-.18.9c-.06.28-.36.71-.8.43l.07-1.65c-1.58-.07-1.96,2.72-1.66,2.89Z"/>
      <path class="cls-1" d="M91.39,80.7c-.06-.04-.2-.18-.24-.25-.08-.15-.27-.07-.22.1.02.07,0,.15,0,.22-.05.37.29.7.61.78l.19-.48c.05-.12-.23-.31-.34-.37Z"/>
      <path class="cls-1" d="M68.47,159.51c-.1.06-.06.35.07.38.38-.27.57-.5.53-.82.12.02.18-.04.21-.13.03-.1-.04-.28-.12-.3-.26-.04-.78.43-.7.86Z"/>
      <path class="cls-1" d="M70.7,155.2l-.85,2.01c.86-.13.94-.97,1.03-1.71.52-.2.05-.64-.18-.3Z"/>
      <path class="cls-1" d="M72.08,163.7c-.24.05-.36.34-.3.47.04.1.18.17.31.11.16-.07.09-.24.13-.31.05-.09.04-.3-.13-.27Z"/>
      <path class="cls-1" d="M72.85,161.53c-.06.35-.13.48-.27.64-.02.05-.02.11-.02.16l-.6.61c.57.37.48.78.5,1.36.42-.66,1.2-1.08,1.38-1.92.08-.38-.67-.82-.98-.85Z"/>
      <path class="cls-1" d="M67.37,160.96c0,.13.11.24.24.24s.24-.11.24-.24-.11-.24-.24-.24-.24.11-.24.24Z"/>
      <path class="cls-1" d="M37.23,145.33c-.05-.09-.02-.26-.03-.33l-.22-.61h-.41c-.15-.02-.13.19-.05.34.06.13.17.15.26.19.22.2.25.58.32.82.15.01.37.02.43,0,.13-.05.12-.15,0-.22-.06-.03-.12-.2-.29-.19Z"/>
      <path class="cls-1" d="M26.48,120.66c-.22-.68-.4-1.49-1.37-1.41.51,1.17.62,2.19.82,3.46.87-.48.8-1.24.55-2.05Z"/>
      <path class="cls-1" d="M70.84,161.46l-1.26,2.03c-.46-1.55.65-2.83,1.52-4.06.2-.28-.07-.97.66-1.18-.88-.41-1.78-.08-1.62.27.03.08.19.22.32.37-.54,1.2-1.26,2.41-2.29,3.22-.22.16-.56-.52-.58-.71-.47-.06-.96.38-1.2.74l1.4,1.1-1.36,1.13c-.35.29-.7.48-1.17.27-.33-.15-.54-.43-.58-1.1-.58.74-1.37.66-2.03.24-1.29,1.1-.37-.84-1.85-1.46-.38-.67-.91-1.77-.8-2.48.18-1.12-.5-2.39.2-3.05,1.58-1.51.9,2.21,1.5,2.47.21.09.48.02.69-.02.06-.29.19-.14.27-.08.15.12.17.4.18.53l1.01,1.32c.45-.29.97-.48,1.34-.25.28.17.28.76.48,1.34l1.49-2.44c.96-2.5,2.49-4.49,3.94-6.64.63-.93.72-2.45.11-3.12-.78-.84-.45-1.96-.59-3.04-.59-.28-1.76.03-2.18.54-.15,1.46-.06,2.77-.6,4.21.91.15,1.7.8,1.83,1.6.11.64-.52,1.23-.74,1.74-.87,2.04-1.66,4.01-3.12,5.78-.5-.31-.76-.62-1.08-1.08.32-.38.53-.86.11-1.29-.4.46-.54,1.08-1.3,1.33-.05-.58.37-1.75,1.09-1.84.28.24.86,1.01,1.29.8.88-.99,1.56-2.17,1.67-3.31l-.49-.22c-.06-.03-.21.1-.28.14-.15.09.02.34.19.36l-1.53,1.53c-.08.08-.34-.18-.29-.34l.15-.49,2-4.18c.06-.13-.54-.31-.66-.26-.46.21.43-2.07.38-3.79-.95-.07-1.86.08-2.85.57.42.34.59.68.55,1.21l-.19,2.01c-.17.65-1.65.34-1.71,1.46.83-.28,1.47-.58,2.09-.04.27.55.09.89-.07,1.52-.3,1.15-.44,2.42-1.86,2.77l.45-1.23-1.01.4c-.2-1.58,1.42-2.42-.01-3-.09-.58.13-1.56.59-2.06.63-.68.96-2.08-.08-2.59-.57-.28-1.97.24-2.3.8-.58,1.01-.46,2.16-.61,3.28-1.32-1.25-.12-2.85-1.39-3.63-.38-.23-.99-.46-1.44.09-.05.06.12.31.2.33.08.02.07.29-.11.29-.14,0-.34-.04-.48-.3l.13-.44c.03-.11-.36-.26-.49-.24-.49.07-.59,1.6-.09,2.88-.77.06-1.27-.51-1.26-1.27l.03-2.31c-3.63.69-2.33,3.36-4.18,5.89.16.43.69.84.61,1.31-.1.6-1.61,2.18-2.36,1.55-.45.53-1.18.89-2.02.63.38-.58.97-1.03,1.81-.76.45-.58,1.19-1.14,1.52-1.98-1.03-1.28-2.21,1.82-4.52,1.13,1.07-.85,2.05-1.29,2.71-2.32.48.34.86.46,1.41.59l-.58-1.03c-.37-.66-.62-1.27-1.36-1.76-.14.72.04,1.26.32,1.96-1-.4-.39-2.11-2.08-3.35-.44.97-.46,1.93-.21,2.89-.88.72-2.13.85-2.12,1.62,0,.73,1.11,2.01.1,1.85-.71-.11-.61-2.08-2.2-2.37l.11-1.66c.03-.43.1-.67.41-.86.23-.15.5-.09.8-.04.16-.42.45-.55.58-.41.24.25.43.77.06.96-.34.18-.53.5-.37,1.01.59-.31,1.2-.59,1.77-1.14l-.68-.92c-.18-.25-.38-.34-.37-.59.03-.69.57-.78.62-1.25.05-.49-.57-.33-.82-.34-.98-1.4-2.23-1.74-2.45-2.62-.04-.17.92-1.39.97-2.38.03-.57-.62-1.21-1.25-1.24.04.71.36,1.42-.04,2.06-.58.9-1.39,2.26-2.42,2.66-1.25.48-2.27-.81-2.77-1.68l-1.29-2.25c.6-.23,1.1-.19,1.75-.14-.06-.3-.26-.41-.38-.58-.1-.14-.49.34-.67.32-.89-.14-1.51-.94-2.37-1.3-.47-.19-1.39-.26-1.22-1.17.81.68,1.75,1.05,2.32.38-.22-.72-1.07-.4-1.56-.96-.59-.67,2.82-.82,5.06-.35l-.12,1.31h-2.53c.05.54.47.8.91.82.62.02,1.3-.38,1.78-.59l.18.5c.03.07.37-.04.33-.33l1.82-.33c.1-1.14-.54-1.98-1.69-2.26.01-.41-.51-.21-.2.01.29.7.24,1.62-.18,2.4-.19-.99-.15-1.8-.19-2.66-.04-.95,0-1.83.08-2.98-.83.24-.64.95-.81,1.54-.67-.65-.55-1.46-.55-2.28-.01-1.25.61-1.92,1.12-2.86.42-.77-.84-1.81-1.18-2.41l-.29-.51c-.6-1.03-.9,4.02.11,7.08-1.83-1.07-1.44-3.54-2.2-5.27-.98,1.28.36,2.93-.35,3.9l-2.26-4.31c-.55-2.04.29-4.11.32-5.97.02-1.47-1.11-2.83-1.97-3.77-.22.92-.17,1.54-.65,2.12.64.08.83-.21,1.37-.31-.03.41-.08,1.08-.3,1.34-.43.5-.33,1.07-.51,1.51-.4.99.02,1.65.03,2.53,0,.9-1.8,1.11-2.14.54-.38-.63-.51-.9-.41-1.6-1.2.39.47,3.32-.52,4.92-.84,1.34-1.13,2.48-.92,4.1.16,1.21-.06,2.55.68,3.47.18-.15.65-.34.71-.54.05-.19-.39-.58-.04-.98.67.85.82,1.93,1.01,3.13.56-.23,1.46-.5,1.65,0l.42,1.1c.21.55,1.84.27,1.82.77-.01.25-.14.46-.28.72l-.34.61c-.09.16-.56-.43-.73-.36-1.01.66-1.01,2.74-.28,2.73.42,0,.42-1.07.96-.77.53.29-.9,2.31,1.91,4.22.38.26.51,1.16,1.19,1.06-.5-.85-1.32-1.49-1.01-2.59.59.7.94,1.42,1.63,1.86-.33.26-.23.57-.17.8.03.16.23.43.56.25.14-.08.3-.41.56-.27.79.44-.32,1.66.61,2.19l1.38,1.91c.79.58,1.13,1.04,1.74,1.91l2.76,3.91c-.24,0-.32.12-.34.14,1.78.87,2.5,2.8,3.19,2.59.32-.1.62-.79,1.07-1.07.2-.13.65.02.52.3l-.72,1.51c-.18.37.88.75,1.27.51.78-.5,1.02-1.33.55-2.13l-1.37-.46c-.48-1.2-.94-2.17-1.66-3.17l.83.4,1.34,1.3.96,1.03c.05.05.33-.24.37-.2l.34.3,2.26.23c-.13.38-.3.77-.21,1.38.87-.3,1.43-.8,2.13-1.27l-1.7-.08,3.22-2.59c-.56-.61-1.44-.3-2.03.22-.49.43-1.37.43-1.67,1.15-.06.13-.06.41-.13.49-.09.1-.29.04-.41-.14-1.09-1.62-2.66-.34-2.92-1.08.53-.45,1.75-.59,2.53-.61.98-.02,1.92-.33,2.84-.87l2.06.44c.15.03.28-.3.37-.37.11-.09.37.05.3.24.08-.01.17-.01.25,0-.02.07.02.32.11.32h.41c.17-.01.25.12.26.26.09.03.26.04.34,0,.88-.37-.05,1.69-2.55,2.36.49.65.62,1.17.43,1.59-.56,1.21-2.5.26-4,.77-.32.89-1.27,1.86-.83,2.77.43.88,1.97,1.19,2.83,1.27,1.14.11.55-2.13,2.86-1.77l-.34,1c.16.16.72-.07.59-.63.28.03.53.13.63-.03l.42-.68c.29-.48,1.04-.12,1.52.05.25-.19.56-.51.82-.59.33-.1.66.16,1.13.41.33.18-.02.83-.28,1.21.75-.09.75-.89,1.6-1.13l-.58,1.49,2.05-1.05c-.15.38-.47.66-.95,1.15,1.5,1.42,3.35,1.3,4.91.08.88-.69,1.8-1.37,1.95-2.63.54-.13.98-.24,1.02-.94.04-.74,1.12-1.44,1.33-2.19.28-1.06.99-1.66,1.1-2.89-.55.68-1.09,1.19-1.72,1.72ZM69.64,151.8c-.03-.06-.18-.09-.15-.24.22-.05.37-.24.53-.42.16.19.12.42.09.51-.03.13-.25.19-.47.14ZM27.22,136.84c-.22-.06-.23-.19-.23-.36s.01-.3.23-.32c.06.16.25.33.21.52-.02.08-.15.12-.2.17ZM34.78,135.82c.39-.05.45.13.52.3.15.32.18.85-.21.9-.67.1-.98-.2-1.03-.55-.07-.43.22-.59.72-.66ZM28.75,135.4c.71-.83.61-1.73.04-2.44-.52-.65-.7-2.97.61-3.15.42-.06,1.08.58.78.98-.34.12-1.27.17-1.26.71,0,.18.29.38.39.41.13.05.35-.15.59-.15.41.01.7.28.73.55.05.45-1.74.89-.83,1.09.72.16,1.19-.15,1.89-.26-.17.91-.44,1.6-.96,2.22-.36.43-1.48.38-1.99.04ZM31.38,137.26c-.48-.05-.92-.09-1.06-.72l3.11-.41c.24.53.37.94.38,1.62l2.15.08c.63.02,1.18.35,1.25,1.13l-3.58.21c-.62.04-1.18-.11-1.81-.47.34-.58.15-1.36-.45-1.43ZM34.41,149.01c-.29.24-1.04-.6-.65-.91.29-.23,1.04.6.65.91ZM41.61,150.94c-.28.23-.86-.29-.84-.6,1-.64,1.33-1.58.76-2.7.53.19.72.52,1.01.85-.11.87-.14,1.81-.93,2.45ZM44.99,162.4c-.06.22-.49.54-.75.24-.3-.34.16-1.15.58-1.02.24.16.22.62.17.78ZM53.19,150.08c.59.25.78.72.67,1.27l-.92.11c-.1-.5-.03-.97.25-1.38ZM52.7,153.34c.62-.65,1.78-.46,2.42.22l-2.57,2.07c-.2-.67-.35-1.78.15-2.3ZM53.38,156.94l-1.34.89c-1.21,1.74-1.55.99-2.99,1.45-.74.24-1.48.5-2.27.33,0-.29.08-.43.24-.46l.82-.13c.37-.06.93-.29,1.45-.33,1.29-.1,2.27-1.05,3.32-1.68l.53-.32c.13-.07.37.16.24.25ZM54.52,158.98c-.06.1-.34.13-.44,0-.06-.08-.05-.42,0-.58.04-.14.26-.05.46.03.16-.49.35-.63.51-.76.25-.19.76-.13.82.08-.22.63-.63.12-1.35,1.24ZM51.38,167.56c-.66-.07-.21-1.03-.03-1.37l.28-.53c.06-.11.32-.13.4-.05.38.41-.16,2-.65,1.95ZM54.15,166.6c-.16.16-.33.23-.43.21-.23-.04-.4-.43-.18-.7.11-.13.88.23.62.49ZM56.78,163.18c-.23-.02-.32-.59-.15-.67l1.93-.95c.4.72-1.29,1.66-1.79,1.62ZM57.88,157.95c.31.15.33,1.21-.27,1.26-.52.05-.28-1.12.27-1.26ZM58.06,154.38c-.31.02-.79.06-1.07-.41.33-.34,1.27-.84,1.8-.31.15.33-.48.69-.73.71ZM63.61,168.2c.13-.58.88-.91,1.33-.68-.33.72-.8.76-1.33.68ZM67.45,165.09c-.24.06-.39.02-.46-.1-.05-.08.03-.25.1-.31.18-.16.72-.06.72-.07.02.16-.02.39-.36.48Z"/>
      <path class="cls-1" d="M28.84,142.8c-.27.29-.39,1-.11,1.56l.97-1.42c-.29-.17-.79-.22-.86-.14Z"/>
      <path class="cls-1" d="M41.88,161.07c.22.46.36.33.29-.03l-.29.03Z"/>
      <path class="cls-1" d="M77.36,134.69l.45,1.74.16,3.39c.47-.09.92-.36,1.07-.73l1.04-2.52-1.41-.16c.05-.9-.21-1.98.11-3.02-.19-.18-.44-.24-.49-.51-.12-.66.85-1.02,1.2-2.01-.16-.15-.63-.3-.68-.56-.67.74-1.06,1.22-.78,1.97-.99.43-.88,1.59-.67,2.4Z"/>
      <path class="cls-1" d="M72.93,140.33l.14,4.55c.69-.14,1.34-.66,1.7-1.21.23-1.88-.23-3.84-.97-5.68-.95.61-.89,1.49-.86,2.34Z"/>
      <path class="cls-1" d="M75.54,135.35c-.61,2.31-.35,4.66.27,6.84,2.24-1.06.19-4.14.9-7.68-.8-.06-1.01.26-1.17.84Z"/>
      <path class="cls-1" d="M76.35,131.26l.23-.46c.11-.22-.19-.33-.29-.19l-.21.29c-.12.16-.13.41-.04.51.05.06.28-.08.31-.14Z"/>
      <path class="cls-1" d="M77.21,131.97c0-.23-.31-.29-.44-.09l-.21.33c-.17.27-.27.48-.22.82-.16.07-.36.36-.37.8.59-.35,1.26-.98,1.24-1.86Z"/>
      <path class="cls-1" d="M78.76,144.16l.21-2.38c.03-.35-.15-.74-.44-.78-1.53-.24-.06,2.26-.62,4.81-.12.56-.47,1.02-1.01.87.08-1.31.26-2.58-.09-3.73-.27-.28-1.04.16-1.05.68l-.11,3.3c-.02.7.87.99,1.42.94,1.09-.09,1.55-2.08,1.69-3.72Z"/>
      <path class="cls-1" d="M75.81,160.73c.08-.03.27-.11.29-.26l.39-2.68c-.82,1.47-1.3,3.14-.68,2.95Z"/>
      <path class="cls-1" d="M74.25,136.64l.03-.58c.04-.74.54-1.29.38-2.04-1.59,2.42-.44,3.04-.41,2.62Z"/>
      <path class="cls-1" d="M74.16,156.14c-.17.08-.39-.12-.48-.21,0,.19.14.32.27.42-.05.11-.07.19-.08.27l-.03.15c-.3.14-.23.57-.18.84-.01.08.01.18-.02.31-.11.46.28-.15.51-.17-.1-.17-.12-.36-.08-.54.01-.06,0-.14,0-.19l.63-1.2c-.34.02-.43.27-.55.33Z"/>
      <path class="cls-1" d="M72.93,145.7c.81,2.14-.48,3.95.39,4.64.2.16.56.08.84-.05.26-.11.5-.53.24-.74-.96-.77.79-1.7.23-4.4-.72.14-1.17.21-1.7.55Z"/>
      <path class="cls-1" d="M74.9,132.6c-.13,0-.23.1-.23.23s.1.23.23.23.23-.1.23-.23-.1-.23-.23-.23Z"/>
      <path class="cls-1" d="M73.62,155.08c0-.11-.09-.2-.21-.2s-.2.09-.2.2.09.2.2.2.21-.09.21-.2Z"/>
      <path class="cls-1" d="M27.94,123.22c.97-.79,1.5-1.98,1.48-3-1.52-.73-.94.4-1.48,3Z"/>
      <path class="cls-1" d="M49.23,163.77c-.22.97-.36,1.98-1.28,2.63.16.36.32.6.78.87.48-.79,1.14-1.46,1.35-2.41.08-.37-.43-.92-.85-1.09Z"/>
      <path class="cls-1" d="M45.5,140.33c.06-.75-.71-1.32-.96-1.97-.22,1.98-1.57,3.75-.69,4.71.28.3.82.6,1.39.52l.26-3.27Z"/>
      <path class="cls-1" d="M48.44,139.05c-1.32,1.1-2.31,2.66-2.04,4.4.19,1.22,1.06,2.28,1.82,3.21,2.58-1.5,1.4-4.91.21-7.61Z"/>
      <path class="cls-1" d="M48.85,151.62l2.32.76c-.01-1.22.1-2.3.39-3.52.16-.67-.33-1.73-.96-1.54l-1.66.5c-.37.11-.59.14-.9.51v2.75c.3.37.5.44.8.54Z"/>
      <path class="cls-1" d="M45.72,145.78c1.15.55,1.42,2.18,1.81,1.44.17-.33-.57-1.12-1.09-1.73-.45-.52-1.27-1.15-2.08-.66-.72.44-1.54,3.13-.06,3.61.63.21,1.35-.33,1.87-.63-.2-1.22-.9-1.97-.44-2.02Z"/>
      <path class="cls-1" d="M39.95,144.08c.38.13.54-.49.57-.74.04-.38-.29-.56-.57-.67-.28-.1-.86-.07-.89.39-.03.33.53.89.89,1.02Z"/>
      <path class="cls-1" d="M38.17,142.82c.32.65.5,1.03.58,1.65.02.15.48-.1.36-.29-.38-.59-.24-1.56-.94-1.37Z"/>
      <path class="cls-1" d="M22.46,128.48c-.75.68-1.1,1.49-.63,2.47.55,1.15.86,2.34,1.75,3.53l.45-8.97c-1.17-1.22-.24,1.76-1.57,2.97Z"/>
      <path class="cls-1" d="M67.9,143.61c-.34.06-.4.37-.28.65.09.23.41.68.6.87.34,0,.34-.58.09-.63-.08-.01-.11-.1-.03-.17l-.37-.72Z"/>
      <path class="cls-1" d="M22.48,121.1c.06-.21.11-.29-.06-.57-.18-.3.01-.83.46-.78.21.05.42.58.86.52-.54-.56-.73-1.01-.66-1.84-.08-.26-.65-.52-.86-.59h-.21c.03-.19-.15-.23-.26-.21-.27-.18-.52-.41-.99-.42l.6,1.64c.05,1.86.95,2.9,1.13,2.25Z"/>
      <path class="cls-1" d="M47.35,119.1c.12-.23.06-.33.06-.43-.26.02-.4-.07-.63-.21.09.26.33.44.57.64Z"/>
      <path class="cls-1" d="M29.1,118.19c.5.45,1.53.33,1.63-.31-.2-.35-.88-.22-1.27-.06.22-.52.54-.81.49-1.16-.07-.48-.65-.73-1.02-.56-.7.32-.84-.3-1.18-.48-1.23-.67-2.57-.87-4.01-1.24.55-.72,1.22-.37,1.8-.12l1.63.72c1.4.61,3.52-.98,5.45-.28.71,1.25,1.04-.44,2-.43.31,0,1.02-.05,1.1.49-.31.59-1.22.84-1.47,1.81,3.49-2.01,7.59,0,6.43.18l-3.73.61c.01.09.02.24-.1.3,1.24-.18,2.33.1,3.47.6l2.7.63c-.65.56-1.35.22-2.1.35.56.99,1.99,1.26,2.36,2.59-.37-.07-.65-.03-.85.06-.16.08-.5.45-.33.6l.59.51.11,3.13c.02.43.48.56.75.48.24-.08.59-.11.57-.54,0-.28-.47-.51-.78-.69l.09-3.43c.74,1.35,1.6,2.2,2.39,3.26.43.57.53,1.48,1.2,1.87-.9.79,0,1.18-.2,2.53-.05.35-.67.99-1.01.83-.84-.41-1.04-1.57-.94-2.37-.18-.31-.53-.23-.46.23l-2.28-1.13-1.37.73c-.1-.26-.1-.42-.15-.48-.07-.09-.27-.01-.31.1-.03.08.14.28.28.38l-.34,1.39c-.22.9-.19,1.92-.74,2.61l-.41-.74.07-3.9-.53-2.12c.18-1.14.17-2.07-.79-2.77-.24,1.25.12,2.22.34,3.41.12.63-.43,1.62-.11,2.17.99,1.72-.08,2.06.75,3.59.21.39.61.71.73,1.23.32,1.36.13,2.79-.25,4.05.4.16.65-.23.95-.28.39.09.55-.77,1.18-.57.25.08.49.28.59.5.2.42-.28.55-.4.78l-1.18,2.26c.48,1.22,1.12,2.31,2.15,3.18.48-.59.32-1.28.46-1.93l.79-3.58c1.48.79,1.83,2.32,3.26,1.39,1.89-1.23,3.15,3.09,3.76,3.16.15.02.26-.11.53-.16-.16,2.25-1.76,4.07.11,5.29.73.47,1.63.64,2.54.63,1.29-2.92-.92-4.18-.42-5.37.53.33,1.12.78,1.6.45l1.51-1.04c-.71,1.92-1.42,3.77-1.58,5.88-.1,1.3,1.93.55,3.45,1.54l.39-.39s-.06-.15-.03-.4c.16-1.52.29-3.19-.08-4.77l-1.35-1.8c.74-.08,1.27.34,1.81.41.4-.52.57-.99,1.36-1.19-.09,2.37-.63,4.65-.38,6.93.06.54.75.52,1.01.53,1.28.06,2.55-.58,2.57-1.89.03-1.57-.59-2.82-1.44-4.22,1.25.28,2.3.42,3.25-.23.1-.25.42.02.17.26-.86,1.59-.88,3.28-.64,5.24.74-.07.95-.71,1.26-1.04.3.11,1.01.17,1.08-.27-.1-.24-.75-.17-1.01.06-.02-.82-.03-1.44.13-2.21-.33-.49-.4-1.16-.32-1.77.16-.83.92-1.06,1.85-.79.07-.79.04-1.5.62-2.06,1.34,1.33-.13,2.97.83,5.34.08-.06.38.02.5.06.13.04.25-.3.3-.39-.78.14-.02-.98-.09-2.5-.1-2.05,1.33-4.65-.28-5.73l.65-4.96c.03-.2-.25-.31-.35-.29-.66.19-.84,1.77-1.92,2.91-.27-.33-.46-.26-.62-.2-.33.12-.2.24-.1.54.17.5-.51.77-.89.79-.7.03-.9-.74-1.75-.44-.18.06-.28-.35-.31-.61-1.44,1.48-.04,3.36-.93,4.05-.45-.62-.57-1.17-.59-1.87-.93-.15-1.83.18-2.58.77l-.27,1.59c-.04.24-.34.3-.46.27-.16-.03-.47-.46-.39-.61.4-.72.04-.96,0-1.57l-.3-4.35c-.47-.6-1.26-1.22-1.39-2.12-.62-.21-1.29.27-1.77.41-3.76-1.21-3.37-5.33-5.34-4.49-.92-.21-.79-1.67-.62-2.53.13-.68-.73-1.63.13-2.32.33.27,1.38.45,1.53-.04.56-1.83,1.45-3.31,2.94-4.6-.37-.34-.36-.71-.29-.98.05-.21.4-.45.78-.44.54.02,1.09.65,1.25,1.12l.43.02c.09-.94.76-1.76,1.36-2.5l2.07,2.43.5-3.55c.26-.14.64.31.68.7l.19,1.9,1.43-1.26c.22-.2.48-.25.73-.27.17-.02.34.19.53.3,0,.1-.06.14-.11.18-.1.08-.04.22.03.22.17,0,.39-.15.48-.3.19-.34-.04-.69-.04-.97.03-1.85-1.77-1.68-2.48-2.2-.45-.33-.46-5.7.32-8.18l-.71-.05-1.28.4c.05-.6-.11-1.44.16-2.01.26-.56,1.37-.46,1.95-.47-.89-1.63-4.21-.84-5.65,1.02,1.32,1.32,1.63,4.33.8,4.79-.55.31-.94.96-.69,1.55.17-.22.17-.41.25-.45.08-.03.31.02.35.09.12.22-.54.73-.64,1.14-.2.81-.1,1.62-.6,2.37-.57-1.06-.1-2.13-.11-3.2-.02-1.9.16-3.7.42-5.61-.36-.45-.88-.55-1.4-.84-.05-.64.06-1.16-.33-1.72-.3.63-.64.95-1.11,1.13-.26-.05-.66-.26-.78-.48-.19-1.16-1.08.69-2.14-.98-.35.72-.74.83-1.48.8-.18.59.04,1.31-.49,1.69-.11-.59.08-1.25-.63-1.57-.07.54.25,1.05-.22,1.58-.09-.53-.1-.9-.56-1.15-.37-.2-.54.23-.94.46-.85-.91-1.41-.22-1.5-.45l-.14-.36c-.15.38-.64-.06-1,.32l-.52-.81c-.58.37-.95.86-1.47.96-.18-.06-.34.24-.67.37-.1-.83.55-1.19,1.05-1.7l1.92-1.95c.22-.23-.34-.66-.59-.73-.25-.07-.78-.37-.97.36-.79-.74-1.25-1.75-2.16-1.73-1.19.03-2.94-.45-3.95.35-.86.68-1.41,1.72-2.72,1.62l-1.17,3.48c-.08.24-.42.45-.82.27-.32,1.15-1.06,2.25-1.86,3.08-.3-.17-.51-.38-.55-.48-.03-.07.25-.23.41-.18l1.09-2.05c.11-.2,0-.66.23-.8.15-.09.63-.08.73-.22.36-.51.12-1.59-.66-1.94-.87,2.39-3.31,2.97-3.4,3.21-.45,1.18-.08,2.98-1.33,3.15-.95.13-1.7-2.04-3.26-1.4l-.1-1.52c-.02-.26-.31-.56-.62-.61.32,1.59-.45,2.1-.39,2.56.02.15.29.37.39.21.19-.31.39-.38.65-.5l1.11,2.71c-.55.42-.5,1.04-.04,1.43l1.95,1.61c0-.46-.06-.7.19-.99.14-.16.54-.51.78-.19.39.52-.26,1.06-.76,1.43l2.61,1.4c.56.3,1.09.22,1.71.42,1.22.41,2.87.05,4.07-.32,1.02-.32,1.25-1.48,1.87-2.09.46-.46.95-.7.91-1.47-.02-.45.58-1.29,1-1.35.64-.09,1.09.49,1.61.74.17-.26.18-.53.52-.71.93,1.34-.3,2.98,1,2.96.81.43,1.52,1.22,2.49,1.02.85-.17,1.68.1,2.54,0,.78-.1,1.64-.87,2.55-.89l1.46-2.53c.22-.15.77-.23.89-.48.26-.58-.08-1.49.17-1.4l.46.18c-.05-.57,0-1.07.62-1.42-.37-.49-.69-.67-1.13-.93-.43-.26-.42-1.02-.16-1.4.2-.29.94-.31,1.32-.18.18.06.48.28.61.42,1.4,1.56,1.34,4.5.98,4.52l-.99.07c.22.25.44.44.44.72l-.04,2.63-1.52-1.47c.28.91-.18,1.14-.71,1.6-1.4,1.21-3.01,2.25-4.95,2.41-.31-.43-.68-.5-1.28-.52-3.61-.1-7.08.29-10.6,1.07-1.8.4-4.61.57-4.93.2-.14-.16-.18-.49-.22-.75l-2.54-.51-5.09-3.15c-1.06.23-2.06-.37-2.47-1.42l-1.52-2.88c-.3-.58-.97-.63-.74-1.56l.89-3.7.87-2.19-1.56,1.03c.02-.95.64-1.55.82-2.3l-1.87-1.7,1.07.13c-.35-1.69-1.48-1.39-2.74-2.09l.87,1.9c.22.48.53,1.02.22,1.55-.19.32-.72.75-1.26.58v-1.12c-.5-.11-.69-.38-.72-.72-.04-.38.08-.64.32-.89.45-.46-.07-1.04-.03-1.4.04-.37-.06-1.19-.52-1.1-.49.42-.73,1.11-.94,1.58-.89,1.95-.09,4.19-1.41,4.91l-2.15-3.81-1.26-1.86c-.18-.27-.11-.59.12-.73.14-.09.45.01.6.24l1.22,1.73c.99-.58,1.49-1.52,2.08-2.48.79-1.28,1.73-2.79.82-3.29-.87.23-1.17,1.39-1.38,2.21-1.05-1.25-1.05-2.59-1.26-3.96-.5-3.24-2.04-6.14-3.4-9.14-.14-.31-.15-1.15-.68-1.15-2.36,1.78-2.14,4.29-1.53,3.68.09-.09.28-.29.67-.31.56,2.75.87,5.54,1.22,8.33.13,1.01.62,1.92.29,3.03l-1.54.14c-1.84-1.22-3.15-3.25-4.99-4.23-1.35,1.85.39,4.37,2.11,6.19,1.7,1.8,3.37,3.51,4.62,5.66.2-1.28-.81-2.75-.02-3.31.16-.11.49,0,.67.18.68.66.64,2.53,1.64,3.24.13.09.59.11.54.36-.02.1.09.31-.13.36l-.4.1-1.5.02c.07.39.22.64.42.84.8,1.63,1.69,3.19,2.88,4.69,1.27,3.52,3.12,6.74,5.99,9.15l3.54,2.97c1.8,1.51,4,2.56,6.39,2.85l1.88-.56ZM41.49,134.35c-.75-.77-.4-1.81.37-2.47.34.82.18,1.72-.37,2.47ZM68.11,135.55s.08-.06.15-.19c.07-.13.41-.32.51-.22.14.14.13.48.09.64l-.21-.03h-.41c-.13.07-.27-.1-.13-.2ZM67.7,140.24c-.1-1.41-.11-2.57-.45-3.91,1.35.76,1.48,2.62.45,3.91ZM64.31,138.62c-.03.51-.23.87-.73,1.15-.15-.52.02-1.14.73-1.15ZM56.85,131.78c.51.05.76.49.8,1.05l.09,1.58c.01.18-.54.09-.64-.12-.08-.18.14-.55.1-.84-.09-.57-.49-1.03-.35-1.67ZM55.3,133.1l.38-.63c.14-.24.58-.45.71-.03.2.63.05.95-.18,1.06-.37.18-1.13-.04-.92-.39ZM55.02,134.08c.25.24.44.42.23.87l-.76-.98c.26-.23.4-.01.53.11ZM54.43,135.26c-.21.11-.62,0-.63-.16l-.05-.93c.35.17.6.62.68,1.09ZM54.25,136.48c.17.42,0,.67-.16.83-.17.18-.7.22-.78-.29-.07-.49.8-.88.94-.54ZM59.92,105.23c.09-.14.46-.13.69-.1.14.02.3.33-.06.45-.05.02-.04.16,0,.19-.16.33-.25.04-.39.01-.22-.05-.37-.36-.24-.55ZM41.74,96.82c.21-.11.62-.24.8.34l.4.4c.13.13.06.41-.25.42-.19,0-.34-.13-.54-.27l-.47-.32c-.19-.13-.08-.5.07-.58ZM32.84,105.91c.09-.34.36-.4.53-.17.15.22.11.34-.1.54-.14.13-.41.2-.44-.15,0-.08,0-.16.02-.23ZM31.55,110.08l1.23-.62c.18-.09.34-.44.55-.37.14.04.33.26.34.45v.3c-.67.04-1.29.4-2.13.23ZM35.11,102.43c-.08-.4.14-.59.33-.7.33-.19.72.22.41.41-.31.19-.23.33-.27.41-.09.2-.41.19-.48-.12ZM36.05,108.69c-.28.05-.48-.03-.51-.12-.06-.16.08-.34.26-.46.14-.09.29-.13.45-.09.11.03.25.02.23.29-.01.14-.02.3-.43.38ZM45.03,102.64c.29-.12.58.36.52.64-.03.18-.24.49-.46.24l-.21-.24c-.27-.17-.2-.49.14-.64ZM39.85,96.02l-.57.5c-.19.16-.77.06-.72-.22.08-.47.86-.57,1.29-.28ZM38.54,99.74c.09-.26.91-.41,1.03-.17.15.35-.24.64-.44.7-.32.11-.74-.08-.59-.53ZM39.91,102.8c.04.16.08.55-.12.58-.23.04-.3-.07-.42-.3-.03-.06.85-1.9,1.8-1.89-.18.72-.69,1.3-1.27,1.61ZM40.75,104.38c-.15-.42-.15-.97.54-1.17-.03.65.04,1.03.3,1.95-.47-.05-.75-.5-.84-.78ZM42.62,101.7c.38-.24,1-.19.85.41l-1.46.36c-.17-.64.37-.61.61-.77ZM42.74,104.72c-.25,0-.44-.21-.5-.67.45.19.68.3,1.32.27-.19.61-.54.41-.83.4ZM43.76,105.91c-.36-.04-.44-.79-.23-.92.37-.04.5.83.23.92ZM45.29,109.33c-.82,0-1.4-1.1-1.1-1.84.16-.41.76-.86,1.02-1.2.33-.2.62.28.67.5.22,1.01-1.07,1.38-.59,2.54ZM46.59,103.78c-.09-.28.03-.59.31-.7.23-.1.65-.09.75.17.02.06.02.18-.04.28l-.27.49c-.22.21-.66.02-.75-.24ZM47.89,108.35c-.05.24-.24.5-.56.47-.21-.02-.69-.2-.58-.56.1-.31.58-.59.79-.54.27.05.4.38.35.63ZM49.06,107.31c-.17.26-.54.47-.72.45-.23-.03-.42-.33-.5-.49-.14-.28.06-.54.34-.75.28-.21.57-.24.82-.01.15.13.34.39.06.81ZM53.83,113.75c.19-.31.42-.37.73-.68l.36-.35c.12-.12.28.02.32.12.22.46-.41,1.12-1.19,1.7-.33-.1-.35-.59-.22-.8ZM46.83,125.05c-.25.04-.59-.3-.13-.7-.1-.52-.51-.43-.8-.59.67-.19.98-.36,1.31-.73.41-.08.77.42.74.74-.05.67-.9,1.25-1.12,1.29ZM45.8,137.01c-.42-.65.08-1,.33-1.47.8-1.51.82-3.13,1.11-4.76.3.13.6.41.67.8.55,3.01.3,3.75-2.12,5.43ZM50.6,136.2c.31.8.43,1.65-.03,2.43-.86-.5-1.14-1.21-1.79-1.91.45-.18.59.07.91.42l.91-.94ZM47.49,114.82c.14.59-.38.79-.39,1.03-.03.42.17.88.51,1.06.83-1.09,1.84-1.5,2.99-1.88l-.11-.61c-.03-.17.11-.4.31-.16.09.11.02.57.25.61.2.04.58-.3.8-.43.46.37.02,1.05-.2,1.45-.46.84-2.18.44-2.68.85-.82.67-.19,3.14-2.61,4.22-.24.11-.41-.1-.51-.2-.16-.15-.19-.57-.02-.63l.76-.25c.21-.77-.81-.28-1.17-1.67-.06-.24.5-.38.56-.6.1-.37-.37-.82-.77-.95v-1.55c.89-.24,1.56-.32,2.28-.29ZM44.15,115.78l.04-.45c0-.1.14-.18.22-.2.22-.06.52.18.28.51-.21.28-.25.84-.5.72-.25-.13-.05-.44-.04-.57ZM15.42,100.35c.14.08.42.33.26.68-.17.39-.58.77-.97.84-.27.05-.54-.4-.53-.58.03-.58.91-1.12,1.24-.94ZM13.34,96.25c.69.28.27,1.76-.83,2.55-.07-.88.16-1.64.83-2.55ZM14.52,107.21c-2-1.04-1.63-4.35-2.89-4.94-.54-.25-.77-.55-1-1.08.49,0,.6.12.91.2l-.09-1.48c-.41.32-.71.22-.82.01-.22-.39-.06-.69.11-1.06l.23-.51c.06-.14.34-.16.44,0,.27.42.05.9.15,1.27-.04-.13,2.08.27,2.06,3.63.24.11.49-.13.59-.13.72,0-.11,1.49-.03,2,.07.46.66.81.91,1.18.7-.46.96-.95,1.32-1.73.39.6-.11,1.07-.26,1.57l-.91,3.02c-.4-.55-.47-1.25-.71-1.95ZM17.42,110.96c-.58.33-1.42-.42-1.42-1.01,0-.84.44-1.45.84-2.09.31.11.45.36.54.55.15.33-.05.7-.3.96-.43.45-.07,1.01.34,1.59ZM19.47,109.88c-.87-.69-1.74-.45-1.6-1.27l1.54.9c.24.05.22.27.05.36ZM23.25,111.73c0-.12.18-.21.25-.36.18-.02.57-.29.67.01.07.22.14.39.34.58.02.27-.17.26-.24.14-.15-.28-1.07.15-1.03-.37ZM23.47,113.14c-.02-.09-.05-.26,0-.32.41-.23.88-.53,1.41-.37.07.02.28.22.25.27l-.19.32c-.28.16-.49.27-.85.17-.08.08-.28.04-.39.04-.11,0-.19-.04-.21-.12ZM26.26,118.18c-.15-.02-.28-.17-.28-.28-.02-.45.72-.38,1.06-.57.22-.12.1-1.02.69-1.06.16-.01.39.17.32.41-.04.14-.15.26-.33.4l-1.19.91c-.11.09-.2.19-.28.18Z"/>
      <path class="cls-1" d="M40.6,126.06c-.12-.09-.25-.37-.49-.19-.03.38.22.92.42.9.48-.1.23-.59.07-.71Z"/>
      <path class="cls-1" d="M32.49,131.17c.38-.22.57-.72.13-1.16-.3.36-.26.75-.13,1.16Z"/>
      <path class="cls-1" d="M30.61,117.42c.9.29,1.52-.14,2.23-.56-.78-.54-1.78-.19-2.23.56Z"/>
      <path class="cls-1" d="M34.1,117.53c.21-.2.25-.32.1-.54-.16-.24-.44-.17-.53.17-.02.07-.03.15-.02.23.03.35.3.28.44.15Z"/>
      <path class="cls-1" d="M36.85,120.51l-3.23-1.17c-.77-.28-1.54-.52-2.41-.33,1.44,2.07,3.04,6.32,3.41,6.51.72.38,2.23-3,2.23-5.02Z"/>
      <path class="cls-1" d="M28.03,126.17c.16-.33.2-.64.28-1.16-.25-.12-.47.19-.58.34-.18.23-.21.63.3.82Z"/>
      <path class="cls-1" d="M41.91,125.4c-.26-.53-1.25-.64-1.47-.17.05.3.56.73.81.68.21-.04.7-.29.67-.52Z"/>
      <path class="cls-1" d="M40.74,119.31c.01-.21-.4-.62-.59-.62-.44.01-.52.45-.35.62.2.21.67.38.93,0Z"/>
      <path class="cls-1" d="M41.28,120.13c-.65-.66-1.26-.23-1.65.19.65.12,1.11,0,1.65-.19Z"/>
      <path class="cls-1" d="M37.23,128.06c-.53-.07-1.28-.08-1.32.71-.04.22.16.4.37.34.4-.08.19-.33.2-.34l.62.31c.13.06.36.01.31-.21.01-.02.04-.3-.01-.36.06-.17.11-.41-.17-.45Z"/>
      <path class="cls-1" d="M66.66,106.6c.09.13.25.28.39,0l-.06-.31c0-.07-.1-.15-.19-.11-.05.11-.25.25-.13.42Z"/>
      <path class="cls-1" d="M34.44,128.76c-.17.47-.39.89-.32,1.28.06.3.41.29.39.18-.11-.74.55-1.16-.07-1.46Z"/>
      <path class="cls-1" d="M81.33,137.5c-1.26.99-1.19,3.14-.77,4.88l-.62.21c-.13.04-.45,2.48.59,2.22.82-.2,2.24-2.19,1.47-2.73-.13-.09-.4-.02-.68-.1l1.39-2.52-1.37-1.96Z"/>
      <path class="cls-1" d="M105.2,100.37c-.26.14-.37.33-.39.6.24.05.33-.18.43-.19.15-.11.05-.45-.04-.41Z"/>
      <path class="cls-1" d="M102.36,40.42c-.3.31-.14.54.06.67.15.1.37.08.42-.03.1-.19.27-.49.18-.62-.13-.18-.43-.28-.66-.03Z"/>
      <path class="cls-1" d="M83.25,109.37l.4-.67c-.26-.35-.54-.41-.74-.23-.21.19-.38.38-.21.65.09.14.42.47.55.26Z"/>
      <path class="cls-1" d="M105.28,54.35c.18-.34.41-.59.46-1.08l-.43.23c-.2.28-.38.63-.03.85Z"/>
      <path class="cls-1" d="M105.29,27.51l-1.26-1.42c-.56.42-.42,1.09-.14,1.56l1.62,2.78c.64-.38.77-.95.85-1.63.06-.53-.49-1.2-1.07-1.3Z"/>
      <path class="cls-1" d="M82.55,110.77l.51.14c.29-.28.21-.77.1-1.26-.4.12-.61.42-.96.79.06.09.18.29.35.33Z"/>
      <path class="cls-1" d="M101.69,114.24c-.07.22-.26.45-.08.9.37-.25.53-.48.61-.83.12-.52.49-1.03.4-1.78-.87.25-.76,1.13-.94,1.71Z"/>
      <path class="cls-1" d="M96.16,111.82c-.56-.08-1.04.1-1.33.7.53.08,1.03-.18,1.33-.7Z"/>
      <path class="cls-1" d="M81.37,110.44c.02-.17-.05-.41-.14-.5-.07-.07-.32-.03-.38.09-.08.17-.07.41.02.49.11.1.47.05.49-.08Z"/>
      <path class="cls-1" d="M107.47,34.05c.4-1.02.18-2.1-.48-3.02-.93,1.17-.99,1.96-1.06,3.05l.73-.55c.19-.14.48.24.8.52Z"/>
      <path class="cls-1" d="M101.73,94.19c.03-.2.3-.38.19-.83l-2.07,1.29.17,2.84c.04.73.47,1.31,1.04,1.85l-1.57,3.91c-.37.93-1.13,1.53-1.08,2.53-.2-.24-.4-.26-.47-.23-.43.16-1.16,3.51-2.54,3.37-.4-.04-.59-.71-.35-1.09l3.27-5.33c.55-.89.8-2.08,1.03-2.95-.35-.75-.39-1.46-.44-2.16-.38.16-.86,0-.87-.38l-.09-2.19-2.17.08c-.81-.3-1.47-.47-2.34-.44l-3.45.12.04,1.52c-.54.28-1.18.79-1.82.94-.2-.19-.88-1.01-1.15-.66-.66.82-.57,2.03-1.61,2.57l1.01-3.23c.08-.24-.43-.32-.59-.18l-.41.39c-.41.78-.68,1.55-1.34,2.19-.22-.95.13-1.6.35-2.48-.92.17-1.02.88-1.38,1.41-.8,1.18-1.4,2.5-1.07,4.02.73-.73.89-1.62,1.37-2.44l.26-.27c.9-.94-.56,4.45-1.74,4.13-.16-.04-.17-.56-.36-.71-.84-.67-1.71,1.45-1.64,1.58.24.46,1.14-.29,1.26-.22.2.1.47.46.31.7-.21.32-.35.6-.26.93.06.23.47.67.66.51.59-.91.55-2.09,1.66-2.68-.61,2.4-2.47,4.2-.91,4.08l1.13-1.21c.2.45-.38.9-.67,1.17.18.65.99.78,1.6.97.75.23,1.43,1.09,1.11,1.65-.3.51-.91.44-1.28.18-.31.64-.34,1.1-.42,1.72,2.68.74,5.23-.24,7.11-2.36.32.35.23.94-.06,1.35-2.06,2.83-5.42,3.44-8.79,2.78l-5.72-1.13c-.99-.2-1.41-.32-2.15.45-.38.39-1.02.57-.88,1.47.09.55.05,1.21-.07,1.81.97-1.08,1.01-2.56,2.24-2.26l-1.51,2.56c-.14.24.44.51.71.46.66-.12.41-1.09,1.29-1.53l.1,1.44,1.29-.41-.64,1.57.97.1c.05.16.16.51.37.51.56-.01.74-.74,1.09-.99.25-.18,1.9.32,4.05-.91-.44-.2-1.06-.55-.99-.86.22-1.11,2.5.27,5.15-.67l2.72-.97c1.45-.14,2.62-.51,3.84-1.48l2.2-1.75c1.36-1.08,2.72-2.69,3.36-4.01-.21-.36.08-.8.62-1.14-.36-.46-.28-.74-.27-1.17.01-.33.6-.47.9-.7.18-1.19,1.01-2.43,1.36-3.58.38-1.26.49-4.84.3-5.2-.1-.19-.5-.33-.93-.34ZM84.14,102.27l.7-3.02c.05-.2.23-.33.35-.34.53-.03.36,3.35-1.05,3.36ZM81.97,115.39l-2.67-.48c.16-1.07,1.54-.5,2.81-.58l-.14,1.05ZM90.52,98.74c-.87.26-2.03-.03-2.44-.94,1.55-.41,2.45-1.53,3.09-1.32.87.28-.19,2.12-.65,2.26ZM94.06,102.3l-.22.23c-.1-.08-.17-.14-.2-.22-.08-.18.06-.34.26-.35.08.1.24.25.16.33ZM94.29,95.57c-.14.02-.46-.5-.31-.62.18-.15.34.11.42.19.09.09.18.38-.11.43Z"/>
      <path class="cls-1" d="M106.59,43c.69-1.07.49-2.16-.18-3-.48,1.07-.24,2.04.18,3Z"/>
      <path class="cls-1" d="M110.49,77.47c.54.33.98.86.84,1.64l-1.05,5.64,2.57,2.99c.4-.6.89-1.13.86-1.65l-.23-4.52c-.12-2.49-.56-4.93-2.04-6.95-.44.99-.8,1.92-.96,2.85Z"/>
      <path class="cls-1" d="M115.9,89.49c-.05-.86-.24-1.62-1.03-2.08-.37.4-.6.96-.21,1.36.26.26.51.63,1.24.72Z"/>
      <path class="cls-1" d="M113.64,47.49c-.08.63-.77,1.07-.59,1.89,1.55-1.91.7-2.76.59-1.89Z"/>
      <path class="cls-1" d="M116.45,86.64c-.14-.48-.31-1.03-.97-1.13.19.5.4.9.97,1.13Z"/>
      <path class="cls-1" d="M108.76,51.95c.44-.39.56-.68.83-1.34-.51,0-.94.71-.83,1.34Z"/>
      <path class="cls-1" d="M117.27,84.66c-.03.24.09.36.13.84.29.03.59-.5.48-.8-.43-1.21-1.24-2.21-2.13-3.04l.23,1.24c.79.15,1.3,1.57,1.28,1.77Z"/>
      <path class="cls-1" d="M107.18,48.32c.6,0,1.54-2.13,1.36-2.99l-1.36,2.99Z"/>
      <path class="cls-1" d="M96.07,114.15c-.23.43-.6.67-1.08,1.03.48.18.9-.06,1.2-.19.05.01.13.03.2.02.29-.05.61-.17.79-.44-.28-.31-.85-.56-1.11-.42Z"/>
      <path class="cls-1" d="M106.56,97.73c-.05.07-.1.13-.23.06.01.15-.06.42.17.47.07-.18.16-.23.26-.31.16-.13-.06-.41-.2-.22Z"/>
      <path class="cls-1" d="M110.4,92.85c-.28-.07-.34.13-.33.31.01.15,0,.3.19.42.14-.09.23-.24.27-.3.03-.14,0-.39-.13-.43Z"/>
      <path class="cls-1" d="M78.71,152c-.43-.14-.61-.13-.96-.11.36,1.26-.09,2.13-.31,3.27.72-.94.74-2.05,1.27-3.16Z"/>
      <path class="cls-1" d="M83.67,145.76c0-.17-.11-.27-.27-.25-.19.09-.23.25-.27.35-.06.15-.41.17-.63.23l-.53.15c-.16.05-.29.38-.21.6.05.16.44.24.72.39-.1.8-.6,1.59-.46,2.5.45-.11.72-.59.84-1.03l.81-2.94Z"/>
      <path class="cls-1" d="M83.42,134.14l-.23,3.21c1.07-.16.84-1.57.23-3.21Z"/>
      <path class="cls-1" d="M84.01,149.61c-.46-.16-.66.24-.77.51l-.02.2c-.22.04-.23.22-.2.42.04.26-.17.58-.27.78-.07.14-.31.34-.03.69.64-.47,1.13-1.37,1.27-2.11-.07-.1-.26-.33.02-.49Z"/>
      <path class="cls-1" d="M86.37,120.87s-1.39-.38-2.05.8c-.68,1.22-1.47,2.47-.52,3.93.68-1.76,2.83-4.41,2.57-4.72Z"/>
      <path class="cls-1" d="M81.88,150.98c-.8,1.62-1.36,3.19-1.77,5.02,1.06-1.11,1.14-2.48,1.71-3.92.11-.28.83-.63.06-1.1Z"/>
      <path class="cls-1" d="M81.17,134.88c.09.21.36.4.51.38.55-.07,1.08-1.47,1.13-2.16.02-.29.09-.77,0-1.07-.22-.81-1.04-1.28-1.59-1.93l-1.27,1.89,1.22,2.9Z"/>
      <path class="cls-1" d="M1.42,84.23l.36-1.82c-.74.77-1.25,1.85-.89,2.07.17.1.46.07.53-.26Z"/>
      <path class="cls-1" d="M80.74,150.57c-.38.11-.51.47-.54.85-.7.57-1.2,1.28-1,2.28-.86,1.02-1.14,2.19-1.35,3.5-.27.49-.41,1.19.18,1.46.92-1.48,1.46-3.03,1.19-4.63.24-.32.8-.59.9-1l.62-2.47Z"/>
      <path class="cls-1" d="M81.32,129.68c0-.11-.09-.2-.21-.2s-.21.09-.21.2.09.21.21.21.21-.09.21-.21Z"/>
      <path class="cls-1" d="M83.88,149.12c.6-.57.91-1.42.71-2.19-.46.72-.68,1.37-.71,2.19Z"/>
      <path class="cls-1" d="M82.11,144.93c-.58.17-1.07.78-.99,1.45.72-.32.9-.75.99-1.45Z"/>
      <path class="cls-1" d="M95.11,128.93l.19,1.39c-.13,1.49-.84,2.71-1.48,3.9l-1.04,1.92c.05.1.04.17.03.23-.22-.02-.28.2-.2.31.11.17.3.15.42,0,.06-.08.21-.16.21-.31l.06-.2,1.22-2.35c.79-1.19,1.41-2.56,1.75-4.01-.21-.38-.64-.89-1.15-.88Z"/>
      <path class="cls-1" d="M88.45,141.24c.96-.39,1.05-1.29.7-1.89-.53.6-.85,1.19-.7,1.89Z"/>
      <path class="cls-1" d="M88.93,128.42c-.1.58.08,1.22.76,1.49,0-.76-.28-1.07-.76-1.49Z"/>
      <path class="cls-1" d="M88.46,137.18c-.45.73-.86,1.29-1.11,2.14.72-.37,1-.97,1.4-1.61.03-.16-.1-.46-.29-.53Z"/>
      <path class="cls-1" d="M84.48,141.63c-.24-.08-.38-.08-.63-.02l.2,2.51c.3-.11.61-.46.65-.7-.44-.67-.63-1.27-.21-1.79Z"/>
      <path class="cls-1" d="M88.4,125.89l-.26.44c-.16.27-.23.64.17.95,1.12.88,3.23-3.46,4.05-5.64-1.45-1.27-1.73,2.04-3.96,4.25Z"/>
      <path class="cls-1" d="M95.14,113.72c-1.04.57-1.98.83-3.14,1.14-1.3.35-2.49,1.34-3.71,2.01-.37.2-.63,1.13-1.06,1.16-1.37-.18-2.24.64-2.59,1.95.93.54,1.76-.2,2.62-.36,1.92-.35,3.68-.62,5.34-1.89.35-.05.99.39,1.09.73-1.04.95-2.33,1.06-3.7,1.74,3.38,1.04,4.12.16,6.14-.55.73-.26,2.31-2.79,2.38-3.51.03-.34-.66-.42-.67-.23-.11,2.21-1.67,2.87-3.57,4.21l-1.03-.48c.91-1.12,2.92-1.49,2.81-3.38l-1.36,1.56c-.61.24-1.33-.63-1.16-1.04.79-.11,1.2-.63,1.39-1.28l-2.19,1.08c-.09.02-.23.02-.28-.05l2.39-1.77c.56-.9,1.17-.8,2.08-1.01,1.45-.33,2.68-1.7,2.99-3.28-1.39,1.56-3.05,2.32-4.76,3.26ZM89,117.9c.7-.33,1.1-.36,1.81-.87-.08.81-.96,1.31-1.81.87Z"/>
      <path class="cls-1" d="M88.95,136.79c.21-1.24.07-2.06-.06-3.07-.51,1.09-.62,2.3.06,3.07Z"/>
      <path class="cls-1" d="M86.96,142.65c-.13.42.37.42.25,0,.05-.28-.3-.28-.25,0Z"/>
      <path class="cls-1" d="M85.36,150.95c.38-.29.65-.41,1-1.16-.5-.14-.9.51-1,1.16Z"/>
      <path class="cls-1" d="M84.82,139.73c-.06.14.52.17.61-.17.38-1.41,1.09-2.67,1.8-4.01.75-1.38,1.88-2.57,2-4.31-1.92,2.62-3.17,5.46-4.41,8.49Z"/>
      <path class="cls-1" d="M27.2,123.8c-.04.32.25.33.33.28.11-.07.15-.19.1-.32-.04-.1-.28-.24-.43.03Z"/>
      <path class="cls-1" d="M22.87,95.17c0,.11.09.21.21.21s.2-.09.2-.21-.09-.2-.2-.2-.21.09-.21.2Z"/>
      <path class="cls-1" d="M27.48,100.19l3.85-2.19c.05-.6.23-1.19.08-1.82-.75.1-.94.76-1.32,1.21-1.06,1.22-2.51,1.93-3.74,2.91-1.19.95-1.88,1.07-1.86,1.4.03.5,1.45,1.12,2.37,2.51.27-1.06.09-2.09-.65-2.95.29-.38.74-.76,1.27-1.06Z"/>
      <path class="cls-1" d="M14.41,73.65s1.28-.82,1.35-1.14c.07-.3-.26-1.04-.63-.96-.57.14-1.43.52-1.9.57-.14.02-.59.05-.48.31.71,1.64,1.38,3.19,1.81,4.71.75-.05,1.36-.03,2.1-.28.68-.23.57-1.13.1-1.69-.24-.28-.33-.49-.71-.45-.78.07-.07,1.58-1.04,1.57.03,0-1.34-1.92-1.05-3.04.09.12.31.42.44.4Z"/>
      <path class="cls-1" d="M43.67,93.56c.05.27.56.49.61.14.07-.44,0-.64-.02-.86-.45-.03-.67.3-.59.72Z"/>
      <path class="cls-1" d="M47.59,99.02s-.41-.59-.55-.42c-.24.31.06.52.2.5.08-.01.2.02.35-.09Z"/>
      <path class="cls-1" d="M16.85,79.07c.37.24.58.83,1.25.78l-1.21-1.79c-.56.3-1.28,1.08-1.15,1.61l.45,1.88c.2.05.25.28.24.44.03.09.12.48.36.5.66-.13,1.08-.79,1.22-1.42-.74,0-1.29.04-1.69-.45.49-.17.77-.69.53-.92h-.57c-.19,0-.15-.31-.03-.43.09-.08.32-.39.59-.21Z"/>
      <path class="cls-1" d="M46.55,99.51c-.16-.02-.45.21-.23.42l.25.25c.25.24.48.16.46-.15-.01-.21-.25-.5-.48-.52Z"/>
      <path class="cls-1" d="M6.63,71.27c.15.56.49.8.91,1.12.09-.55-.21-1.09-.91-1.12Z"/>
      <path class="cls-1" d="M7.72,75.35c.17-.44-.54-.84-.66-.65-.29.45.57.9.66.65Z"/>
      <path class="cls-1" d="M11.46,85.82c-.16.41.25.64.43.55.1-.04.02-.31,0-.41-.02-.13-.35-.36-.43-.14Z"/>
      <path class="cls-1" d="M4.18,80.2c-1.26,1.4-1.72,3.27-1.37,5.2.75-1.61,1.42-3.24,1.37-5.2Z"/>
      <path class="cls-1" d="M48.2,96.39c-.32.1,0,.61.14.82.13.2.47.19.69-.11.16-.22-.39-.85-.83-.71Z"/>
      <path class="cls-1" d="M11.27,74.93c.15-.01.23-.37-.04-.41-.06-.01-.09-.09-.04-.16-.03-.36-.26-.45-.46-.36-.22.1-.58,0-.6.3v.2s.4.59.4.59c.12.17.02.38.12.46.1.07.26.01.32-.1.09-.19-.15-.36-.2-.42.17-.2.41-.1.5-.1Z"/>
      <path class="cls-1" d="M7.93,73.1c-.13.61.14,1.43.75,1.55-.11-.98-.41-1.12-.75-1.55Z"/>
      <path class="cls-1" d="M3.49,86.92c.3-.26.23-.56.09-.75-.15-.2-.45-.31-.65-.12-.23.22-.37.65-.19.74.34.18.57.28.74.13Z"/>
      <path class="cls-1" d="M9.44,77.65c.29-1.02-.18-1.42-.88-1.86-.1.32-.06.76.05.99l.83.87Z"/>
      <path class="cls-1" d="M71.25,94.11c.22.23.48.29.74.1.25-.19.29-.39,0-.65-.18-.17-.35-.49-.67-.16.07.1.09.22.07.28-.38.04-.26.31-.14.43Z"/>
      <path class="cls-1" d="M69.68,120.06c.15.1.26,0,.3-.13-.1-.13-.26-.23-.27-.39l-.58.2c.23.1.48.21.55.32Z"/>
      <path class="cls-1" d="M71.13,129.93c.27-.19.5-.63.42-1.07l-1.09,1.01c-.18.17-.23.36,0,.54l.67-.48Z"/>
      <path class="cls-1" d="M70,108.6c-.43,0-1.16.23-1.04.98.12.7,1.19,1.65,1.91,1.82,1.9-1.91,1.21-2.3,1-1.97l-.22.36c-.07.12-.24.37-.38.39-.11.02-.3-.23-.27-.36l.08-.34c.16-.66-.54-.88-1.09-.89Z"/>
      <path class="cls-1" d="M67,105.65c0-.17-.01-.3-.22-.37v.68c.21,0,.22-.14.22-.31Z"/>
      <path class="cls-1" d="M69.48,120.65c-.1-.15-.26-.3-.48-.31.15-.09.04-.21-.04-.23-.17-.04-.29.04-.31.12-.06.22.41.7.63.73.18.02.29-.18.2-.32Z"/>
      <path class="cls-1" d="M69.01,127.09c-1.18.39-1.55,1.57-1.33,2.64.65-.71,1.4-1.47,1.33-2.64Z"/>
      <path class="cls-1" d="M63.02,110.04c-.04.14.04.28.12.3.11.03.72-.3.72-.31.05-.12-.05-.39-.31-.48-.05-.34-.44-.24-.32.07l.02.3c-.14-.03-.2.04-.23.12Z"/>
      <path class="cls-1" d="M58.86,91.48s.08.04.15.1l1.24-2.21c.32-.56-.86-.22-1.39,2.11Z"/>
      <path class="cls-1" d="M60.61,90.87c-.09.32-.22.57-.18.7.05.16.37.24.6.23.66-.04-.16-.59-.11-.94.12-.71.42.4.68.8.09.13.44.14.64-.03-.4-.42-.06-.8.13-1.14-.37-.41-1.65-.1-1.77.37Z"/>
      <path class="cls-1" d="M59.8,94.68c.34-.53.97-.26,1.39-.01.41-.57.81-1.18,1.73-.82.09-.58-.12-.84-.42-1.01-.45-.24-.69-.28-.98.27-.34.64-1.44.75-1.93,1.36-.32-1,.38-1.2.69-1.84-.91.16-1.06,1.01-1.53,1.78.29.1.64,0,1.05.28Z"/>
      <path class="cls-1" d="M64.07,98.06c.04-.21.06-.79-.17-.87-.47.15-.25.69-.04.86-.15,0-.25.11-.22.24-.28.13-.58.24-.73.41-.23.26-.09.93.14.9l.52-.07c.15-.02.36-.18.21-.36-.31,0-.64.02-.91-.23.56-.17.65-.31.81-.43.13-.1.37-.27.4-.45Z"/>
      <path class="cls-1" d="M74.52,105.47c-.04-.1-.32-.07-.4.01l-.28.34c-.09.11.1.42.34.46.09.02.28.14.19-.19.05-.11.21-.48.14-.62Z"/>
      <path class="cls-1" d="M55.53,98.14c-.17.14-.34.36-.08.51.2.11.65.05.69-.1.04-.17.05-.54-.02-.65-.3-.17-.45.13-.6.25Z"/>
      <path class="cls-1" d="M70.62,123.86l-.73,2.76c.76-.69,1.34-2.33.73-2.76Z"/>
    </g>
  </g>
</svg>