<?xml version="1.0" encoding="UTF-8"?>
<svg id="Layer_2" data-name="Layer 2" xmlns="http://www.w3.org/2000/svg" viewBox="0 0 113.05 161.04">
  <defs>
    <style>
      .cls-1 {
        fill: #fff;
      }
    </style>
  </defs>
  <g id="Layer_1-2" data-name="Layer 1">
    <g>
      <path class="cls-1" d="M46.42,78.52l.59,1.06-1.65-.3c-.22-.04-.3.38-.21.54.63.28,1.16.65,1.75,1.27-.72-.09-1.04-.4-1.62-.39l-.46-.21c-.11-.05-.38.25-.49.44.18.34.57.54,1.1.8-.07.26-.82.43-.95.23-.25-.4-.39-.72-.87-.8l1.07-1.99c.18-.34.27-.69.18-1.09-.11-.49-.62-.53-1.1-.69-.33-.11-.57-.64-1.14-.53.69-.85.73-1.93,1.4-1.8.28.05.17.54.2.7.28,1.24,1.33,1.97,2.22,2.76Z"/>
      <path class="cls-1" d="M48.38,77.57c-.87-.48-1.68-1.21-1.92-2.18.55.34.97,1.17,1.57,1.13,1.07-.07,2.12-.71,3.15-.35-1.49,1.44-3,.28-2.8,1.39Z"/>
      <path class="cls-1" d="M52.25,95.74c-.24-.18.16-1.05.5-.98.39.09.52.35.62.47.2.23,0,.47-.14.55-.2.12-.59.25-.98-.05Z"/>
      <path class="cls-1" d="M49.39,71.69l.33.39c.22.27.64.42.77.84-.51.08-1.05-.29-1.21-.75-.04-.11,0-.19-.12-.29-.17-.14.1-.36.23-.2Z"/>
      <path class="cls-1" d="M42.13,76.46c-.36-.24-.88-.57-1.4.03l-1.49-1.39c.87-.9,3.1.32,3.14.47.07.26.03.64-.24.89Z"/>
      <path class="cls-1" d="M42.65,79.61c-.11.39-.88.38-1.19.03-.22-.25-.44-.76-.15-1.22.31-.15.85-.1,1.35.13-.42.39.06.82,0,1.06Z"/>
      <path class="cls-1" d="M42.6,55.11c.68-.48,1.45.39,2.46,1.21-.77.4-1.18-.33-1.66-.64-.29-.19-.82-.03-.9-.2-.08-.17,0-.3.1-.37Z"/>
      <path class="cls-1" d="M34.62,39.75c.43-.37.12-1.16.19-1.69.78.46,1.18,1.08,1.63,1.79-.53.82-1.21,1.31-1.59,2.28.17.64.67,1.13.63,1.97-1.23-.93-2.26-1.94-3.24-3.28.82-.4,1.75-.54,2.39-1.08Z"/>
      <path class="cls-1" d="M51.2,88.08c-1.23-.7-1.5-2.94-2.02-2.97-.51-.03-1.04,1.12-1.98,1.16-.99-.94-1.76-2.15-1.95-3.59,1.19.98,2.56,2.69,2.53,1.77-.04-1.03-.97-1.56-1.49-2.47,1.55.38,2.31,1.94,3.6,2.78,1.1.71,1.53,1.91,1.31,3.32Z"/>
      <path class="cls-1" d="M40.42,51.81c-.6-.4-.16-.86.12-1.04.29-.19.76-.12.75.21-.01.38-.63.99-.87.83Z"/>
      <path class="cls-1" d="M28.82,45.49c-.38-.37.35-1.03.62-1,.41.31-.3,1.31-.62,1Z"/>
      <path class="cls-1" d="M53.45,89.24c0,.43-.32.58-.69.7.69.12,1.13.45,1.24.87-1.89,1.15-2.38-1.16-4.26-1.22.21-.76,1.89.03,3.72-.35Z"/>
      <path class="cls-1" d="M52.67,86.42c-.67-.42-.93-1.22-.51-1.97l2.58,2.66c-.78,0-1.46-.3-2.07-.68Z"/>
      <path class="cls-1" d="M41.21,86.63l1.82.28c.56.09,1.04,0,1.35.43.27.36.69.92.02,1.38l-3.19-2.08Z"/>
      <path class="cls-1" d="M50.63,98.09c.25.39.97.71,1.15,1.37.06.23-.39.87-.61.65-1.97-1.98-3.41-3.24-4.51-6.24,1.92,1.03,2.9,2.57,3.96,4.21Z"/>
      <path class="cls-1" d="M45.03,86.16c.73-.25.87,0,1.18.17.18.09.14.59-.3.56-.29-.02-.67-.56-.88-.73Z"/>
      <path class="cls-1" d="M48.61,100.14l-1.03-.95-2.66-3.57c-.14-.19.51-.52.72-.44.24.1.27.26.49.47l1.68,1.61c.43.41.76.84.82,1.54l1.04.61c.52,1.6,1.73,2.81,2.99,3.92-.43,1.81-3.06-2.29-4.06-3.21Z"/>
      <path class="cls-1" d="M36.16,86.36c-.01-.07,0-.21-.07-.31.05-.03.17,0,.25,0,.12.29.4.4.11.44-.18.02-.28-.06-.29-.13Z"/>
      <path class="cls-1" d="M50.57,90.96c.06.11.01.24-.14.26-.08.01-.29-.07-.39-.1-.62.26-1.65.69-2.27.27l-1.3-.88c-.32-.21.42-1.16.91-.94l2.75,1.22c.09.04.34-.06.45.17Z"/>
      <path class="cls-1" d="M45.73,91.36l1.6.41c-1.03.36-1.89.81-3.05.82l1.46-1.23Z"/>
      <path class="cls-1" d="M46.8,88.23c.03.06.17.18.18.4.01.39-.55.54-.8.75l-.03.33c-.02.16-.38.19-.42-.1-.09-.62.36-1.09.86-1.04l-.03-.32c-.01-.13.19-.12.24-.02Z"/>
      <path class="cls-1" d="M48.2,86.46c.74-.25,1.27,1.52,1.2,1.79-.07.27-.35.63-.78.65l-.42-2.44Z"/>
      <path class="cls-1" d="M38.06,34.85l-1.65-1.36c.96-.25,1.69.06,2.1.73.12.2-.32.75-.45.64Z"/>
      <path class="cls-1" d="M35.32,18.17c-.18-.42.35-.59.61-.3.15.17.34.33.5.84-.28.09-.87.01-1.11-.54Z"/>
      <path class="cls-1" d="M37.44,89.62c.05-.56.64-.59.93-.67.3-.08.85.05.98.48l-.46.31c-.17.11,1.03,2.02.22,2.5-.77.45-1.78-1.29-1.67-2.61Z"/>
      <path class="cls-1" d="M36.69,92.82c-.25-.59-.49-1.26-.36-2.1.52.56,1.21.99,1.5,1.59.24.5-.97.91-1.14.52Z"/>
      <path class="cls-1" d="M41.6,80.78c.81.42,1.54.78,1.82,1.79.33,1.21,1.63,1.68,1.96,2.68l-3.49-.96c.26-.42.54-.33.91-.49l-1.69-2.51-1.03-1.3,1.53.79Z"/>
      <path class="cls-1" d="M39.97,90.47c-.31-.12-.59-.4-.68-.66-.03-.08.04-.23.17-.22.16-.4.61-.19.45.14.21.09.22.21.18.31.1.1.09.34-.11.42Z"/>
      <path class="cls-1" d="M28.87,92.16c-.06-.07-.18-.21-.25-.25.02-.19.2-.3.36-.23.09.04.15.19.11.3-.03.07-.09.14-.22.18Z"/>
      <path class="cls-1" d="M68.84,14.75c-.04.17-.28.28-.3.23l-.14-.31c-.49-.34-.89-.81-1.18-1.33l-.36-.18c-.11-.05-.03-.39.26-.33.11-.33.08-.64.08-1.14.41.17.43.45.47.81.81.68,1.12,1.15.43,1.32.11.37.49.59.74.92Z"/>
      <path class="cls-1" d="M68.77,6.64c.05.2-.41.27-.6.21-.79-.24-.4-1.58-.94-1.81-1.02-.44-1.52-1.36-1.64-2.41,1.2.4,1.38,1.52,2.09,2.06.64.49.87,1.13,1.09,1.94Z"/>
      <path class="cls-1" d="M68.42,3.66c-.36-.21-.53-.46-.58-.6-.03-.1.06-.37.18-.58.25-.41.78-.02,1.03.39.21.34-.29,1-.63.79Z"/>
      <path class="cls-1" d="M64.4,9.81c-.55-.1.2-1.53-.79-1.69-.38-.06-.61-.97-.18-1.3l.61,1.08c.51.39.8.92.86,1.51.03.28-.33.42-.49.39Z"/>
      <path class="cls-1" d="M54.41,9.55c-.1-.03-.82-.78-1.13-1.39.67.12,1.42.5,1.76,1.11,0,.2-.46.32-.63.27Z"/>
      <path class="cls-1" d="M61.54,5.09l-1.23-1.26c.47-1-.1-1.56-.58-2.37.94.72,1.67,1.67,2.16,2.68l.73,1.51c-.62.08-.83-.32-1.08-.57Z"/>
      <path class="cls-1" d="M52.62,6.84c.03-.23.55-.14.59.22.02.17.29.35.17.72-.25-.23-.54-.33-.76-.94Z"/>
      <path class="cls-1" d="M68.66,7.89c.67.47,1.12.99,1.54,1.75-1.02.04-1.84-.73-1.54-1.75Z"/>
      <path class="cls-1" d="M92,4l-.78-.99c.12-.33.29-.46.42-.45.08,0,.26.11.31.26l.51,1.65c.18.57.94,1.12.57,1.9-.76-.53-1.21-1.45-1.02-2.37Z"/>
      <path class="cls-1" d="M69.71,5.01c.58.49,1.12,1.13.99,1.98-.86-.37-1.01-1.21-.99-1.98Z"/>
      <path class="cls-1" d="M99.09,13.62l-1.22-2.38c-1.1-.81-1.53-2.06-2.27-3.01-1.56-.61-2.26-2.24-2.33-3.65,1.5.68,1.91,2.69,2.33,2.37l.34-.25,3.92,5.67,2.35,4.16c-1.9-1-1.05-3.82-3.11-2.91Z"/>
      <path class="cls-1" d="M38.43,22.66c.19.37-1.05.27-2.21-1.65-.18-.31.33-.74.58-.84.29-.13.78.03,1.12.26-.45.78.03,1.26.35,1.9l.17.34Z"/>
      <path class="cls-1" d="M74.78,5.63c.66.64,1.01,1.33,1.2,2.14-1.09-.23-1.54-1.27-1.2-2.14Z"/>
      <path class="cls-1" d="M77.54,9.12l-.4-1.14c-.18-.52-.1-1.28-.53-1.67-.4-.35-.73-.55-.87-1.13,1.26.54,1.57,1.53,1.84,2.83.06.29.68.73-.04,1.1Z"/>
      <path class="cls-1" d="M76.92.77c-.15-.17-.24-.3-.25-.45,0-.1.07-.45.33-.26l1.42,1.04c1.34.53,2.44,1.21,3.42,2.29-1.3-.04-2.24-.66-3.41-1.07-.22-.78-.83-1.16-1.5-1.55Z"/>
      <path class="cls-1" d="M50.92,17.01c.15-.13.49-.16.71-.07.34.15.02,1.07.84,1.6.03.33-.68.79-.89.63-.44-1.06-1.22-1.67-.66-2.16Z"/>
      <path class="cls-1" d="M51.84,21.25c.4.33-.07.61-.27.19-.41-.31.13-.56.27-.19Z"/>
      <path class="cls-1" d="M56.57,11.41c0-.09.22-.23.36-.06.12.15.1.45-.04.57-.1.08-.31,0-.31-.1v-.41Z"/>
      <path class="cls-1" d="M49.07,11.22c.04.34.11.58-.24.73-.03-.77-1.28-1.41-1.53-.94l-.59,1.1c.6.46,1.27.89,1.21,1.46-.03.35-.31.66-.55.58-.13-.04-.3-.16-.39-.3-.22-.32-.58-.32-.82-.48,0,.41-.29.76-.57.83-1.44.36-1.58-1.58-3.55-.58-.12-.52-.62-1.15-1.06-1.05-.29.78,1.58,1.55.9,1.97-.41.25-1.07-.34-1.46-.63-.1.57.19.87.43,1.37l-.98.2c-.19-.31-.47-.22-.78-.03-.23,1.45.19,2.96,1.69,3.74.16.08.46-.34.39-.51l-.22-.52c-.09-.22-.16-.3-.12-.44.22-.72.37.1,1.37.21-.13-.17-.22-.32-.21-.5,0-.11.3-.15.41-.09-.3-.69-.92-1.12-1.26-1.87,1.88,1,4.28,1.7,6.23,1.74.2-.02.38-.77.57-.75.47.06.72.84,1.23.7.18-.05.11-.33-.06-.71-.51-.67-1.22-1.1-1.34-2.12l2.25.57c.72-1.32.59-3.03-.95-3.7ZM40.54,18.71l-.23-.63c-.09-.25.15-.37.24-.21l.22.61c.06.17-.04.36-.23.23Z"/>
      <path class="cls-1" d="M40.93,21.38c-.03.11-.18.32-.48.37-.28-.66-.84-1.06-1.68-1.22-.08-.84-.52-1.57-.46-2.45.63.34.62.96.87,1.43,1.11,0,1.84,1.58,1.74,1.88Z"/>
      <path class="cls-1" d="M44.53,10.5c.1-.64.67.01.99,1.23-.46-.3-.66-.69-.99-1.23Z"/>
      <path class="cls-1" d="M52.54,13.95c.02.41-.1.72-.19.97-.08.21-.38.41-.93.3l-.12-2.55c.56.32,1.22.76,1.25,1.28Z"/>
      <path class="cls-1" d="M55.28,24.98c-.19.27-.81-.11-.9-.35-.07-.18-.04-.54.16-.77.42.08,1.03.7.74,1.12Z"/>
      <path class="cls-1" d="M50.99,33.75c-.41-.34-.65-.8-.4-1.21,1.3,1.06,2.21,2.28,2.12,3.92-.85-.93-.89-2.01-1.72-2.71Z"/>
      <path class="cls-1" d="M53.39,18.24l3.25,3.25c-.11.38-.19.64-.52,1.05-3.94-2.52-3.44-5.01-2.73-4.3Z"/>
      <path class="cls-1" d="M55.88,17.51c-.85-1.74-2.56-2.12-2.4-2.96.07-.36.93-.34,1.98-1.16l2.38,3.34-1.96.77Z"/>
      <path class="cls-1" d="M110.52,63.17c.49.28.48.93.85,1.26l.64.57c1.39,1.68,1.29,4.1.23,5.94l-.09-1.34-1.21-4.22-.04-.73-.38-1.48Z"/>
      <path class="cls-1" d="M50.91,19.61l.05.34c.02.17-.07.35-.23.22-.19-.16-.17-.3-.24-.47-.12-.29-.36-.5-.37-.9.52.04.74.46.79.81Z"/>
      <path class="cls-1" d="M53.56,12.05c-.22.6-.96-.06-1.23-.24-.47-.3-1.37-.24-1.7-.79-.27-.45-.13-1.08.18-1.59-.29-.42-.79-.54-.55-1.18,1.41,1.45,3.23,1.2,3.3,3.8Z"/>
      <path class="cls-1" d="M64.81,105.3c-.17-.11-.5-.16-.55-.41-.1-.44.09-.69.45-.9l.79-.47c.47-.28,1.14.2,1.53.56l-1.08,1.34c-.35.43-.79.11-1.13-.12Z"/>
      <path class="cls-1" d="M65.92,102c.6-.8,1.66-1.47,2.63-1.3.37.06.63.45.77.63.26.34.11.5-.17.81-.43.48-.62,1.29-1.33,1.65-.24.12-.52.01-.72-.21-.11-.12-.09-.21.09-.42-.56-.14-.8-.64-1.27-1.15Z"/>
      <path class="cls-1" d="M64.41,103.91c-.38.09-.92-.08-1.37-.21.32-.42.64-.83,1-.91.31-.07.77.24.79.45.02.17-.17.61-.42.67Z"/>
      <path class="cls-1" d="M54.59,129.45l.44-2.13c.86.27,1.55.78,2.19,1.41-.09,1.76-.51,3.33-1.65,4.74-.53-.15-1.46-.4-1.63-.97l-.54-1.83c.73-.15,1.08-.64,1.2-1.22Z"/>
      <path class="cls-1" d="M57.22,148.48c-.12-.09-.41-.31-.44-.47-.03-.14.4-.42.61-.19.31.34-.03.75-.17.65Z"/>
      <path class="cls-1" d="M66.24,130.57c-.61-.37-1.28-2.84-.43-2.19l.51.39c.43.33.58.69.54,1.12-.02.26-.26.9-.62.68Z"/>
      <path class="cls-1" d="M54.55,140.69c-1.35-.72-1.14-2.71-.77-2.76.27-.03.45.22.76.4-.18-1.31-.22-2.77.43-3.91.44-.34,1.89.13,1.85.75l-.24,3.99c.12.12.51.3.32.45l-.38.3c-.59.75-1.29,1.14-1.97.78Z"/>
      <path class="cls-1" d="M60.35,89.71c-.44-.07-.75-.5-1.03-1.06.26-.26.83-.47,1.26-.34.32.1.9.41.91.91.01.41-.82.55-1.15.49Z"/>
      <path class="cls-1" d="M64.19,138.2c-.04-2.26.23-4.25.94-6.39.72.16,1.16.87,1.16,1.59l-.05,5.02c-.74.07-1.39.06-2.05-.22Z"/>
      <path class="cls-1" d="M60.94,86.58c.04-.08.17-.15.3-.11.08.03.15.09.17.23-.06.04-.2.18-.24.24-.19-.02-.31-.2-.23-.36Z"/>
      <path class="cls-1" d="M58.25,87.75c-.2.06-.43-.01-.44-.22.29-.06.72-.1.96.21-.22-.02-.4-.01-.52.01Z"/>
      <path class="cls-1" d="M57.55,86.71c-.77,1.02-2.71-.9-3.7-2.49l1.7.34c.18.04.18.23.1.26-.06.03-.24.15-.39.32.36.56.95,1.08,1.53,1.53.23.04.56-.52.43-.81.35.1.53.59.33.85Z"/>
      <path class="cls-1" d="M62.77,129.37c-1.34-.66-1.99-1.48-2.47-2.55.05-.09.13-.2.19-.24l2.28,2.8Z"/>
      <path class="cls-1" d="M65.23,130.6c-.98.42-.63-.81-1.56-2.5,1.07.4,1.64,1.47,1.56,2.5Z"/>
      <path class="cls-1" d="M58.17,90.16c-.3-.1-.79-.49-.53-.94.12-.21.81-.23.99-.1.19.12.32.51.59.81-.12.34-.69.36-1.06.23Z"/>
      <path class="cls-1" d="M53.54,99.64l-1.82-1.52c-.41-.78-.93-1.56-1.52-2.15l-1.07-2.95,2.43,2.88c.45.53.04,1.08,1.02,1.51.75.33,1.4,1.56.97,2.23Z"/>
      <path class="cls-1" d="M30.86,47.96l-.46-2.87c.85.74,1.16,2.82.99,3.01-.16.18-.49.13-.54-.14Z"/>
      <path class="cls-1" d="M45.77,124.24l2.72-4.81c.15-.26.5-.52.85-.53.05,1.11-.46,1.87-1.13,2.53-.53.52.17,1.24.19,1.71.05,1.18-.66,2.34-1.34,3.19-.73-.3-1.66-1.43-1.29-2.08Z"/>
      <path class="cls-1" d="M87.74,153.7c-.57-.23-.87-1.53-.35-1.74.74-.29.68-.52.81-1.23.59.49.03.77-.17,1.12l-.29,1.84Z"/>
      <path class="cls-1" d="M47.93,129.35c.64-.78,1.38,2.23.34,4.45-.14.3-.58.43-.49,1.09l-1.68-2.18c1.54-.36,1.06-2.4,1.84-3.35Z"/>
      <path class="cls-1" d="M32.44,25.1l.66,2.25c-.5-.12-.74-.42-1.09-.63-.5.19-.73.71-1.05,1-.72.64-1.32.06-1.86-.4-.39-.33-.73-1.1-.25-1.2.25-.05.95.13,1.14-.19.1-.17.03-.39-.06-.68-.28.01-.53.18-.87.45-.48.38-1.6-.09-1.68-.61.41-.7,1.12-1.19,1.74-1.8.15.89.68.91.77,1.71.54.04.39-.39.42-.67.04-.38-.27-.67-.4-.92.64-1.6,2.1-1.22,1.55-3.49,1.15.6,1.23,1.96,1.86,2.71,1.01,1.2,2.02,2.17,2.69,3.74-1.29-.53-2.22-1.12-3.58-1.28Z"/>
      <path class="cls-1" d="M44.11,129.9c.1-.85.27-1.81.72-2.4.19-.25.26-1,.7-1.02.45-.02.37.7.42.95.28,1.35-.15,2.57-.31,3.88-.73-.52-1.12-.95-1.52-1.41Z"/>
      <path class="cls-1" d="M42.9,111.03c.19.09.48.23.5.62l-1.42-.26c.15-.34.55-.54.92-.37Z"/>
      <path class="cls-1" d="M37.84,112.97l1.89.56c.6.18,1.83-.93,2.42-.12.65.88,1.52,1.42,2.72,1.68-.32.69-.71.17-.96.09-1-.32-1.98-.48-2.69-1.18.57-.2.19-.7-.1-.29-.61.02-1.18.09-1.59.74l1.68.36.9.38c.34.14.27.71.32,1.03.22.06.56-.08.69-.11.2-.04.6.08.4.53-.13.3-.74.55-.69,1.1.5-.41.87-.77,1.46-1.06,1.09.97,2.71,1.25,4.12.82.96-.3,1.63-.16,2.43.11.47.16.96-.34,1.01-.78.06-.55-.75-1.78-.85-1.85-.3-.2-.8-.06-.99.46l-2.79-2.16c-.98-.76-2.47-.33-3.6-.72-2.28-.79-4.35-.44-5.55-1.25-.55-.37-1.16-.86-2-.41.67.64,1.27,1.18,1.75,2.06ZM48.62,116.59c-.02-.11.1-.31.23-.42.09-.07.23-.03.45.05.6.44,1.13.49,1.92.69-.75.43-2.55-.05-2.6-.33ZM46.84,116.16c.04-.19.14-.46.28-.52.21-.09.66-.08.7.21.1-.06.2.02.21.09.07.25-.12.25-.18.34-.11.17-.34.19-.55.19-.15,0-.51-.16-.47-.32ZM45.44,115.42c.18-.02.33-.02.46.06.15.09.05.61-.05.54-.16-.12-.33-.16-.44-.2-.18-.07-.11-.38.02-.39Z"/>
      <path class="cls-1" d="M35.67,103.79l.85.42c.28.14.02.9.03,1.23.01.14.5.28.56.41.06.12-.18.43-.08.54,1.99,2.11,4.51,3.25,7.07,4.25,1.33.52,2.3.52,3.76.33l3.87.06,3.62-1c.34-.09.5.64.45.92-.06.31-.48.52-.93.85,1.31.47,2.57.21,4.05-.17.17.33.63.86.88.72.61-.35,1.22-.44,1.91-.64l-.54-1.67,1.5.09-.48-1.99c.86.45,1.06,1.25,1.63,1.98.25.32,1.15-.23,1.19-.61-.56-1.15-1.57-1.83-2.15-2.74,1.61-.46,1.14,1.36,2.44,1.78-.22-2.75-.18-2.65-2.01-3.59-.22-.11-.37-.63-.57-.62-1.12.03-.8,1.5-2.27,2.06l-2.86,1.09-6.62,1.84c-1.97.55-4.34-.19-5.48-1.89,2.64,1.47,5.49,1.59,8.14.16.23-.13-.11-.73-.3-.92-.35-.35-2.17-.16-1.3-.66.11-.06.22-.14.5-.44-1.06-.89-1.76-.09-2.78-.23.03-.9,2.25-1,1.26-1.51-.12-.06-.64.04-.75-.08-.54-.58-1.54-1.66-1.89-2.48-.8-1.89-2.43-2.69-3.7-4.9-.08-.14-.49-.05-.51.11-.04.27.52.9-.19,1.86-.21.28-.72.44-1.18.3-.73-.58-1.03-1.35-1.08-2.15l-1.26-1.79c-.5.72-1.37.31-2.06.44l-.86,2.7-.27,2c-.1.73-.14,1.01.17,1.52.77,1.31,1.34,2.87,2.64,3.93l1.5,1.67c.21.23.66,1,.16,1.07-1.6.21-2.08-2.95-3.94-2.41l.49-.28c.42-.24-2.17-2.89-2.81-4.73.69-.54.99-1.11,1.15-2.03l.59-3.31-1.49-.79h-.53c-.24.01-.24.55.08.64.19.05.32.31.27.43-.21.47-1.8.35-1.82,1.13-.04,1.5-.22,2.97.26,4.33l1.69,2.81ZM39.38,100.13c-.13-.01-.26-.17-.34-.23-.14-.12-.11-.39,0-.43.16-.06.48-.15.55.09.1.3-.09.6-.22.58ZM56.02,110.18c.34-.61,2.47-1.73,3.31-.86l-2.93,1.43c-.26.13-.46-.42-.37-.57ZM43.4,100.2c.55-.2,1.31.08,1.65.54.37.5-.56,1.6-1.07,1.18-.49-.4-.49-1.2-.58-1.72Z"/>
      <path class="cls-1" d="M39.68,120.65c-.57-.77-.92-1.54-1.28-2.28.18.01.31-.15.18-.2-.2-.08-.17-.18,0-.29,1.48,1.66,3.58,3.06,4.89,1.58-.43-.5-.9-.58-1.41-.77-1.04-.37-1.91-1.38-1.28-2.58,1.2,2.13,3.12,2.52,5.52,2.87-1.21,1.99-2.39,3.82-3.31,6.12l-3.3-4.45Z"/>
      <path class="cls-1" d="M51.2,124.77c1.46,1.35.99,3.49-.17,5.38-1.39-.19-1.66-1.01-1.84-2.39,1.02-.82,1.38-1.93,2.01-2.99Z"/>
      <path class="cls-1" d="M56.8,126.83c-.21-.12.05-.47.26-.35l.29.15c.47-.41,1.03-.6,1.64-.18-.21.34-.51.39-.78.55l1.6,1.09c1.45.99,1.6,5.18.78,7.58-.96.39-2.28-.63-2.31-1.63l1.01-1.77c-.12-1.32-.07-2.05.67-3.06-1.67-.23-1.8-1.62-3.16-2.37Z"/>
      <path class="cls-1" d="M28.79,41.31c.2-.13.36-.02.52.18,1.07,1.35,2.66,2.08,3.94,3.08.39.3.1.84-.13.89-.29.06-.57-.09-.88-.37l-3.47-3.01c-.19-.17-.13-.67.02-.77Z"/>
      <path class="cls-1" d="M41.77,91.47l1.58.11c.46.03,1.01-.63,1.72-.34-.67.42-1.29.5-1.77.96.09.35.37.32.48.29.08-.03.17.23.08.31-.07.06-.15.12-.44.19.14.11.17.18.23.28.05.09-.01.29-.17.3l-2.99.19c.71-.68,1.08-1.32,1.3-2.29Z"/>
      <path class="cls-1" d="M29.55,32.73c.04-.24.74-.31.86.04.09.26.52.54.16.93-.44-.14-.99-.55-1.02-.97Z"/>
      <path class="cls-1" d="M35.45,23.59c-.06-.13-.11-.49.15-.58.46-.17.94.79.63.94-.33.17-.71-.19-.78-.36Z"/>
      <path class="cls-1" d="M33.1,38.31c-.62.26-1.08-.09-1.41-.57l-2.42-3.58,2.61,1.82c.67.47.79,1.61,1.22,2.34Z"/>
      <path class="cls-1" d="M37.83,36.96c-.04.68-.25,1.47-.88,1.89-.99-.79-1.12-1.98-1.84-2.76-1.38-1.49-3.13-2.79-4.01-4.94l2.34,1.81c.53.41,1.05.63,1.45,1.27.73,1.17,1.6,2.15,2.94,2.72Z"/>
      <path class="cls-1" d="M34.19,32.45l-.49-.94c-.37.08-.66-.02-.96-.35l-.89-.09c-.1-1.16,1.83-2.21,2.12-2.17.26.03.61.31.6.7-.01,1.93,1.04,2.33-.37,2.85Z"/>
      <path class="cls-1" d="M53.97,98.05c.04-.29.15-.67.4-.75.16-.05.62,0,.68.3.06.28-.55.68-.97.57-.2.5-.66-.09-.11-.13Z"/>
      <path class="cls-1" d="M57.04,80.02c-.61.03-1.07.11-1.48.44l-.33-1.09-.57.72-1.1-1.72c-.19-.29-.78-.71-1.1-.82-.45-.01-.63-.1-.5-.56.08-.26.11-.53.5-.45.25.05.47.17.59.36.13.2.65.36.89.18l.89-.65c-.5,1.82,1.64,2.19,2.19,3.59Z"/>
      <path class="cls-1" d="M54.38,99.46l1.33,1.18c.25.22.18.46.06.55-.18.14-.34.07-.5-.08l-1.4-1.35c-.1-.09.34-.45.51-.29Z"/>
      <path class="cls-1" d="M52.73,101.07c.18,0,.28.08.49.21l1.42.86c.22.13.28.35.23.48-.08.19-.37.29-.65.11l-1.77-1.17c-.14-.09.06-.49.28-.49Z"/>
      <path class="cls-1" d="M58.14,102.89c.16.18-.72,1.23-1.56,1.95-.36-.2-.66-.32-.95-.77l1.89-1.24c.21-.14.43-.15.62.06Z"/>
      <path class="cls-1" d="M55.41,106.69c-.17.16-.47.36-.61.37,0,0-.86-.61-.93-1.11-.02-.17.15-.47.35-.48.72.56,2.07.39,1.55.89l-.36.34Z"/>
      <path class="cls-1" d="M57,98.71c-.18.13-.3.37-.67.22l.37-.63c.31.07.28.21.3.41Z"/>
      <path class="cls-1" d="M56.54,89.94c.08.23.07.86-.17.96-.52-.05-1.14-.39-1.41-.64-.23-.27-.27-.73-.09-.79.44-.14,1.57.19,1.67.47Z"/>
      <path class="cls-1" d="M43.1,97.71c-.41-.31-.53-.48-.76-.89.49-.3.68-.38,1.14-.41l-.38,1.3Z"/>
      <path class="cls-1" d="M44.22,25.87c-.18.39-.09.88.03,1.64-.52-.27-.95-.95-1.61-.98-.57-.03-.74-.54-.96-.88-.19-.3-.12-1.3.38-1.34,1.06-.09,2.32.47,3.3-.3.35-.28-.16-.94-.26-1.24-.1-.28.37-.34.46-.16l.32.63c.48.94,1.26,1.62,1.23,2.71l-1.36-.04c-.5.19-.99.29-1.53-.04Z"/>
      <path class="cls-1" d="M46.91,21.26c.64-.55,1.26-1.16,1.95-1.42.38-.15.43.17.45.34.03.28,0,.62,0,.91l-.02.5c0,.12-.31.14-.46.09,0,.12-.05.28-.09.41.34.36.75.85.35,1.49-.57-.98-1.76-1.23-2.16-2.32Z"/>
      <path class="cls-1" d="M38.71,47.61c.56.28,1.2.73,1.67.42,0-.19-.05-.53.02-.72.03-.11.25-.28.27,0,.52,1.85,3.09,2.6,2.27,3.37-.16.15-.52.17-.93.08.23-1.51-2.51-1.13-3.3-3.14Z"/>
      <path class="cls-1" d="M46.05,29.9c.3-.06.59.96.11,1.1-.33.09-.71-.98-.11-1.1Z"/>
      <path class="cls-1" d="M51.51,79.81h.9s.31,0,.31,0c.07,0,.15.1.11.21h-.22c-.31-.02-.78.15-1.1-.21Z"/>
      <path class="cls-1" d="M47.59,69.52c0-.12.17-.17.23-.03.03.07.04.14.25.02,0,.18-.1.3-.14.37-.15-.01-.36-.08-.33-.36Z"/>
      <path class="cls-1" d="M39.69,32.63c-.65-.29-1.06-.86-1.51-1.24-.21-.18-.27-.51-.18-.95-.83-.13-1.15-1.01-.89-1.72.83.49,1.51.78,2.16,1.37l-.42,1.02c.56.11,1.31.8.82,1.51Z"/>
      <path class="cls-1" d="M35.53,29.5c.07-.05.27-.08.36,0l1.61,1.59c-1.27-.23-2.43-1.27-1.97-1.6Z"/>
      <path class="cls-1" d="M39.35,26.67c.14-.11.38-.16.56-.22.16-.54-.23-1.1.16-1.72.36.27.4.67.49.96.05.15-.03.42.24.59,1.88,1.18,2.29,2.62,3.34,3.51.61.51.9,1.33.39,2.05-2.2-.93-5.8-4.65-5.18-5.16Z"/>
      <path class="cls-1" d="M49.72,34.47c-2.37-.6-1.58-2-2.35-3.21l1.12.5c.8.36,1.3,1.68,1.22,2.71Z"/>
      <path class="cls-1" d="M38.03,27.99c0-.29.16-.2.23-.13l.38.43c-.12.18-.44.05-.61-.08v-.23Z"/>
      <path class="cls-1" d="M44.61,27.96l.14.34c.06.14.21.29.16.39-.05.11-.22.17-.32.1-.09-.06,0-.32-.1-.46l-.2-.28c-.04-.05.29-.15.31-.09Z"/>
      <path class="cls-1" d="M45.52,41.82c.07.26.1.66-.18.72-.15.03-.38-.21-.43-.37-.02-.06-.25-.12-.21-.15.1-.06.18-.22.22-.39.15-.29.53-.05.6.19Z"/>
      <path class="cls-1" d="M48.98,75.84l-2.11-1.8-1.02.27c-.19-.5-.17-.99-.08-1.56.48.11.75.41,1.01.86.85-.21,1.43.15,2.07.51.66.37.77,1.4.12,1.74Z"/>
      <path class="cls-1" d="M39.64,138.58c.81.24,1.51,1,1.47,1.78-.24.28-1.04.14-1.29-.14-.4-.47-.49-1.73-.19-1.64Z"/>
      <path class="cls-1" d="M38.55,127.96c.12.75-.29,1.53-1.09,1.44.32-.65.49-1.03,1.09-1.44Z"/>
      <path class="cls-1" d="M26.41,129.35c.4-.14,1.1.56,1.11.85-.33.29-.56.6-.5.93.04.2.16.55.41.77l5.49,4.98c-.11.15-.26.21-.42.21l-5.62-4.27c-.8-.61-1.39-1.36-2.02-2.2.45-.54.87-1.04,1.55-1.27Z"/>
      <path class="cls-1" d="M32.23,46.37c.17-.19.51-.04.59.29.02.06.1.07.14.04.27-.03.31.17.4.21.18.09.06.59-.2.54-.36-.08-.7-.6-.93-1.08Z"/>
      <path class="cls-1" d="M51.2,149.4c-.93-.29-2.13-1.93-2.13-2.21,0-.61,1.65.55,2.13,2.21Z"/>
      <path class="cls-1" d="M50.36,143.67c.08-.11.09-.32.09-.54,0-.53.49-.59.77-.47.22.09.5.13.81.62-.36.14-1.21.56-1.25,1.1.1.92.77,1.71,1.23,2.49-.61.2-1.14-.15-1.44-.67l-1.79-3.11c.55-.62,1.15,1.16,1.58.59Z"/>
      <path class="cls-1" d="M50.12,135.69c.24-2.02.87-4.39,1.76-3.9,1.32.73-.17,3.32.35,5.55-.36.44-.69,1.4-1.27,1.6-.75.26-1.26-.69-1.55-1.14-.6-.94-1.26-1.68-1.44-2.67.91-.09,1.57-.08,2.14.57Z"/>
      <path class="cls-1" d="M50.16,140.65c1.08.09,1.54.75,2.06,1.42-.93-.21-1.61-.66-2.06-1.42Z"/>
      <path class="cls-1" d="M38.21,125.19c.3.32.42.57.49.96.03.2-.26.57-.59.66-1.66-.94-2.7-2.51-3.52-4.18-.53-1.09-1.2-2.15-1.23-3.4l3.26,4.26,1.59,1.7Z"/>
      <path class="cls-1" d="M5.58,88.55l-.09,1.7c-.49-.2-.9-.95-.64-1.39.17-.28.5-.36.73-.31Z"/>
      <path class="cls-1" d="M1.71,75.74c.88.85,1.21,2.37,2.1,2.98.98.68,1.47,1.58,1.71,2.62.67.07,1.09.45,1.51,1.19.57,1.02,1.46,2.02,2.23,2.89.58.65.52,1.51,2.44,2.82.53-.39.73-.21.94-.01.25.25.28.51.03.77l-2.05,2.11c-.24.25.33.83.47,1.04-.17,1.23-1.11,2.29-2.07,2.85-.42-1.02-1.01-1.05-1.5-1.66l1.73-1.66c.26-.61-.57-1.43-1.29-1.85.23-.55.6-.68.66-1.41-.86-.03-1.41-.46-1.85-1.13-1.97-2.95-3.92-5.83-5.28-9.07l-1.5-4.56c1.09.45,1.05,1.42,1.71,2.06Z"/>
      <path class="cls-1" d="M78.79,138.59c.73-.32,1.08-.32,1.68-.72-.18.68-1.05,1.12-1.68.72Z"/>
      <path class="cls-1" d="M17.75,34.39l1.03-2.24c.62-.03,1.87.29,1.96.89-.23,1.28-.7,2.32-1.19,3.51-.73-.48-1.3-1.22-1.8-2.17Z"/>
      <path class="cls-1" d="M25.31,26.21c.76.6,1.42,2.65,1.37,2.81-.06.17-.29.67-.54.61l-1.89-2.27c.32-.45.65-.85,1.06-1.14Z"/>
      <path class="cls-1" d="M8.89,97.26l.21.03c.08.1.26.36.1.42-.2.08-.3-.07-.43-.18-.11-.11-.15-.24.11-.27Z"/>
      <path class="cls-1" d="M19.28,38.6c.59.49,1.32.88,1.16,1.75-.63-.57-1.27-.65-1.69-.22-1.19-.64-1.48-1.74-1.18-2.97l1.72,1.44Z"/>
      <path class="cls-1" d="M68.09,142.95c-1.83,2.65,1.57,4.26,3.23,8.08.14,0,.26-.06.3-.21l-.9-2.71c-.22-.65-.79-1.18-.83-1.84-.19-.11-.59-.32-.5-.67,1.06-.88.83-2.22,2.31-2.43-1.09-1.77.57-4.06-1.67-3.78-1.69.21-.9,2.06-1.93,3.55ZM68.98,143.54c.12-.03.4-.03.46.04.19.25-.06.45-.26.39-.08-.02-.21.07-.31-.12-.09-.16.03-.29.12-.31Z"/>
      <path class="cls-1" d="M68.97,150.7c-.98-.62-.99-1.58-.9-2.45.56.69.93,1.61.9,2.45Z"/>
      <path class="cls-1" d="M72.25,135.06c.23.49.03.99-.37,1.47-.29-.41-.28-1.12.37-1.47Z"/>
      <path class="cls-1" d="M70.09,151.96c.11.16.22.22.24.31.21.05.24.16.32.23.17.15.14.55-.02.6-.24.08-.96-.62-.94-.9.01-.14.29-.38.39-.24Z"/>
      <path class="cls-1" d="M52.42,147.52c.55,1.57,2.26,2.82,3.01,5.04-1.51-1.24-3.67-4.39-3.48-4.94.03-.09.44-.19.47-.1Z"/>
      <path class="cls-1" d="M72.5,137.71c.07-.05.42-.02.42.07,0,.23-.15.32-.23.36-.09.04-.27-.01-.3-.11-.05-.19.04-.26.11-.31Z"/>
      <path class="cls-1" d="M91.33,108.33l.04,1.29c-.44-.17-.47-.43-.44-.76.02-.21.08-.4.41-.54Z"/>
      <path class="cls-1" d="M89.57,112.12c-.15.25-.71.27-.72.02-.03-.61.21-1,.46-1.65.24.1.55.73.25.97-.06.04-.11.11-.09.18.36.15.18.35.1.48Z"/>
      <path class="cls-1" d="M71.83,132.84l1.37-.24c.56.94.4,1.71.15,2.68l.06,2.52c0,.43,1.27.79,1.38.27.53-2.44-.51-3.78-.91-5.49.35-.2.59.1.86.23.87.42,1.62-.13,2.45-.62-.96,2.16-1.56,5.51-.74,5.68l.97.2c.6.12,1.91.04,1.98-.79.19-2.4-.47-4.69-.63-7.1.6.05.83.52,1.29.79.43-.44.72-.75,1.36-.73-1.23,2.25-1.39,4.78-.76,7.29.95-.39,2.23-.71,2.6-1.6.76-1.84-.82-4.27-1.2-6.22l1.36.7c.45.23.86-.31,1.32-.68.15.51-.06,1.02-.27,1.52-.53,1.3-.48,2.58-.23,3.93.44,0,.88,0,1.2-.28,2.03-1.72,1.66-3.87.39-6.45.33-.08.64-.07.82-.32.31-.44.54-3.19,2.14-3.26.4-.02,1.12.54,1.46-.07.48-.86.56-1.75.4-2.67l-.59-3.37c-.05-.27.42-.42.53-.22.22.39-.04.81.25.85.02-.14.14-.26.28-.2l-.16-.33c.17-1.05-.21-2.3-.42-3.45-.11-.62.03-1.71-.31-2.22-.06-.09.28-.42.18-.48-.06-.04-.13-.22-.24-.19-.13.04-.17.31-.11.46-.3.23-.75.32-1.22.35.27.81-.27,1.29-.67,1.9.07.39.37.98.16,1.4l-.74-.59c-.23-.23-.15-.32-.13-.62l.18-2.74.41-3.76c.47.06.58.35.72.55.73-.36.28-1.04.4-1.45.41-1.35,1.38-2.31,2.23-3.51-.52-.25-.96.13-1.69.35.5-1.42,2.32-1.46,2.47-1.95.76-.25,1.61-.52,2.25-1.34-.82-.17-1.43.3-2.13.33l-.95-.08c1.36-1.78,3.49-3.17,5.7-2.33-.21-.89-.78-1.04-1.23-1.54.33-.54.74-.89,1.23-.9.46,0,.68.25,1.09.81.08-1.28,2.17-1.42,3.84-1.29l3.28-2.01c-1.16,1.82-3.73,2.27-2.95,3.75.29.22.93.28.89.87-.75-.03-1.18-.7-1.59-1.17-.83-.18-1.62.41-1.55,1.13.02.22.47.49.19.79.12-.04.27.08.26.21.66-.02,1.77.31,2.39-.24,1.92-1.7,3.25-3.85,4.34-6.1,1.17-2.41,2.74-5.18.82-5.16.18-.62.36-.89.71-1.25.39.32.32.69.54,1.2.34-1.7.33-3.46-.47-5.09-.38-.02-.09-.41.06-.21.06.09.16.23.39.22.12.37.11.82.51,1.29l.4-4.57c-.33-.12-.78-.81-.38-.92.14.06.67.43.7.09l.33-3.69c-.4-.19-.62-.45-.73-.66-.21-.41.11-.65.14-.94-.09-.04-.27.28-.31.25l-.29-.23c-.39.28-1.07.45-1.34,1.11-.09.3.35.94.05,1.48l-1-.57,1.05,4.03c.58,2.24-.93,3.55-1.01,4.81-.11,1.65-1.04,2.67-2.15,3.71l-2.72,3.94c-.14.2-.32.42-.5.38-.17-.03-.28-.35-.4-.49l-.64-.75c-.67-.79,2.18-2.61,2.24-4.97,0-.3-.6-.8-.01-1.22l.73,1.09c.16-.73-.34-1.14-1.07-1.39-.02.87-.63,1.4-1.01,2.09-.55.99-1.15,1.83-1.8,2.77-.38.54-.58,1.23-1.33,1.52l-.76-1.48c-.81-.66-1.49-1.12-2.16-1.94-.54-.66-1.71-1-2.26-1.85.08-.29.49-.21.65-.24.88.44,1.35,1.24,2.32,1.82.01-1.6-2.45-1.83-1.66-2.61l2.02.43,1.9.44c.87.2,1.68.62,2.57.22-.82-.33-1.54-.6-2.35-.71l-1.66-.69c-1.02-.42-2-.81-2.77-1.74-.17-.2-.48-.35-.8-.46.26,1.2.17,2.24-.41,3.43-.66-.43-.79-.99-1.2-1.63-.48-.75-1.42-1.97-2.42-1.64-.79.26-1.37,1.38-1.7,2.15.54.01,1.24,0,1.32.36.06.28-.47.49-.58.36s-.41-.5-.61-.54l-1.99,1.49c-.19-.09-.25-.28-.29-.34-.06-.09-.42-.05-.49.05-.98,1.38-2.38.84-2.65,1.43-.03.07-.02.23.07.23.07,0,.25-.03.38-.3.42.39.68.97.4,1.63-.3,1.01-.2,2.04.69,2.62.47,1.54,1.26,3.26,2.88,3.76.86.27,1.77-.35,2.54-.68-.88-.91-.38-2.04-.46-3.06-.39-.41-1.5-.76-1.11-1.77.52.1.77.68,1.13,1.22.08.12.5-.23.47-.42l-.1-.69c2.8.9,5.17,3.8,7.27,4.44,1.03.31,2.13-.31,3.18-.52.41,1.5-1.96,1.41-3.88,1.68-2.53.35-5.23.41-7.67,1.02-.24.42-.82,1.09-1.24.8l-2.53-1.78-.13.55c-.02.07-.15.08-.21.03-.48-.44-.11-1.17-.6-1.38.05.38.03.56-.19.72l-.1-1.71c-.21-.05-.51-.12-.52-.22l-.1-.83c0,.08-1.3-.84-.33-4.62-.56.1-.88.36-1.34.77-1.08-1.46-2.24-1.49-3.73-.62.18.02.28.2.15.31-.04.03-.13.04-.12.21.53.13.69.53.75,1,.04.36.02,1.13-.56,1.08l-1.66-1.1,1.18,3.25,1.48,6.09-1.31,1.23c-.35.33-.41,1.18-.25,1.56.06.15.29.25.18.56.99.19,2.03.43,2.86,1.12l-.27-3.76c1.38,1.1,1.08,2.66,1.18,4.24.76-.86.86-2.01,1.12-3.09,1.25.73,1.89,1.61,1.23,2.73.66,0,1.03-.51,1.47-.82,1.18,1.17,1.27,2.7,1.35,4.23,1.48.06.02,1.22.33,3.18-1.33,1.06-2.4,2.22-2.94,3.81-.39,1.16-1.07,1.99-1.89,2.88-.29.31-.47.84-1.17.49-.25-.12-1.07.09-.96.39.39,1.04-.44,1.58-.44,2.34l-.02,5.64c0,.2.21.62.14.82-.07.17-.4.45-.61.3-.09-.61-.21-1.49-.53-1.93-.06-.08.06-.41.02-.54-.03-.1-.17-.18-.26-.05l-.25.36-1.86.15-.32,2.38c-.01.11-.49.16-.52.05l-.15-.53c-.23-.84.44-3.17-1.56-3.45-.22,1-.77,1.37-1.55,1.55-1.92.45-2.19-2.71-3.71-2.45l.94,3.95c.18.76.11,1.13-.11,1.77-.94,2.76,1.37,5.31.65,5.7-.11.06-.32.01-.56.34.54.45.89,1.59.52,2.17-.55.24-.74.49-.49.78.33.38.6.63.87.4.34-.29.27-.54.34-.98l.35-2.41c-.34-1.52-.41-3.43.21-3.89.58-.43.38,1.12.99,1.88ZM79.26,93.67c-.17.19-.23.26-.33.31-.11.06-.46.04-.49-.1-.06-.24.18-.5.35-.51l.23-.02c.28-.02.32.24.24.32ZM83.13,98.01c-.1,0-.25.15-.23.14l-1.4-3.34c-1.7-2.13-1.58-5.19-.23-5.14l.58,3.59,1.28,4.75ZM87.84,88.59c.47.17.65.4.97.65.21.16.11.51-.07.54-.09.02-.21-.01-.47-.11-.52-.21-.63-.66-.44-1.07ZM86.25,90.46c-.21-.02-.35-.14-.43-.24-.15-.16-.07-.38.04-.43.18-.07.53-.06.6.07.17.32-.01.62-.21.6ZM87.9,94.94c-.93-.3-1.35-1.11-1.51-1.88-.34.05-.57,0-.6-.28-.02-.2-.1-.52.28-.43-.03.21.22.47.35.37l.34-.26c.81.56,1.42,1.49,1.13,2.48ZM89.46,87.83c-.02.14-.08.44-.19.52.02.21-.18.26-.26.07l-1.2-1.05c-.22-.19.13-.6.3-.66.26-.1.34.17.48.41-.01.13.02.39.14.41l.33.05c.16,0,.42,0,.38.27ZM91.78,89.5c.02.3-.24.42-.52.29-.15-.07-.33-.25-.34-.5-.01-.26.12-.4.43-.32.1.02.13.07.24.17.15.13.18.16.19.37ZM94.57,91.07c-.15.1-.39.02-.51-.09-.08-.08-.2-.16-.11-.33.09-.15.26-.26.48-.16.22.11.28.49.15.58ZM98.12,93.15c-.14.2-.41.35-.61-.03-.18-.34-.16-.52.06-.71.12-.1.22-.05.38.15.27.22.32.38.17.6ZM104.48,92.5l.38-.79c.12-.25.08-.51.32-.63.09-.04.32-.06.2.19-.17.14-.33.38-.29.5.04.11.37.15.45.26.28.35,0,.6-.2.64-.24.05-.62.14-.87-.17ZM104.41,93.15c.13-.06.38,0,.49-.02l-.02.23c.11-.04.2.04.21.1.02.09.03.26,0,.32-.1.31-.55.28-.74,0-.16-.23-.08-.4.06-.63ZM86.57,122.19c-.07.06-.33.03-.33-.06-.01-.14.03-.32.11-.37.05-.03.31-.14.33-.08.06.24-.03.46-.1.52ZM84.6,102.44c.15-.04.48.21.35.5-.2.44-1.14.19-1.01-.1.17-.38.52-.36.66-.4ZM84.94,101.71c-.85-.75-1.13-1.84-.59-1.76.24.04.9.99.59,1.76ZM85.85,100.48c.68.83,1.36,1.39,2.3,1.37l-.02-1.22,1.44.11c.13.49.21.83.06,1.45l-.62-1.15-.12,3.71c-.01.35-.58.77-.26,1.31.07.12-.13.44-.21.52-.08.09-.19.05-.2-.02l-.08-.55c-.15-1.06-.09-2.04-.46-2.89-1.37-.27-2.21-1.36-1.83-2.63ZM87.61,117.77l1.28,3.85c.2.6.84.92.98,1.55-2.18-.18-3.25-3.87-2.26-5.4ZM85.86,122.79c.46.6.97.77,1.41.9.03.6-.56,1.51-1.17,1.67-.23-1.07-.29-1.67-.24-2.58ZM85.4,113.09c-.05-.19.12-.43.35-.3.24.13.09.49-.13.48-.22-.01-.18-.01-.22-.17ZM83.28,123.7c.01-.15.16-.37.51-.28.25.07.34.57.26.78-.07.16-.32.19-.52.03-.12-.09-.26-.27-.24-.54ZM82.43,122.02l.76-.81c.13.48.09.86-.03,1.19-.04.11-.36.1-.42.03l-.31-.41ZM80.75,120.04c.47-.13,1.01.05,1.22.37.1.15.01.44.02.57.03.34-.19.57-.36.77-.12.13-.11.49-.46.52l-.29-.95c-.13-.42-.18-.8-.12-1.27ZM75.11,128.8c-.06-.38.46-.47.62-.16.23.42.38.85.32.97-.05.1-.2.2-.25.15-.26-.25-.61-.45-.69-.95ZM71,127.04c-.11.16-.53.25-.61.18l.29-.79c.44.05.45.43.33.61ZM71.66,131.21l-.22-.58c-.45-1.2-.49-2.59.64-3.55l.14,4.21c0,.16-.49.09-.55-.08Z"/>
      <path class="cls-1" d="M98.48,88.64c-.27-.06-.22-.91.1-.92.4-.01.47.33.39.47-.07.12-.13.54-.49.45Z"/>
      <path class="cls-1" d="M58.53,141.01c.1-.12.3-.12.71.02-.58-1.33-.76-2.75-.51-4.26.41-.13.71-.13,1.15-.05-.43,1.5-.32,3-.47,4.48-.06.36,1.02.69,1.05.4l.46-4.28c.7.51,1.24.96,2.12,1.04-.42,1.26-.28,2.39-.18,3.82l-2.14.54c-.45.11-.97.38-1.44.07-.59-.39-.9-1.62-.76-1.78Z"/>
      <path class="cls-1" d="M87.59,135.31c.27.29.37.64.34,1.15-.08,1.3-.67,2.2-2.18,2.45.33-1.28.02-2.71.62-3.9.24-.48,1,.06,1.23.3Z"/>
      <path class="cls-1" d="M54.92,147.84c1.13.6,1.66,1.71,1.97,2.81,1.23.88,2.13,3.73,2.11,3.8-.24.76-2.33-1.7-2.64-3.9-.97-.47-1.77-1.44-1.44-2.71Z"/>
      <path class="cls-1" d="M62.03,135.42c.27-1.84.27-3.62-.3-5.42,2.58-.15,1.71,4.06,1.55,7.28-.56,0-.8-.1-1.31-.24l.05-1.63Z"/>
      <path class="cls-1" d="M64.36,139.27l2.02.03c-1.35,2.11.49,4.34-1.55,5.12-.47.18-1.43,0-1.41-.7l.91-.56c.35-.21-.68-2.53.03-3.9Z"/>
      <path class="cls-1" d="M66.23,149.79l.37.28c.17-.14.69-.23.92.21-.54.22-1.12.24-1.64-.01-.07-.29.19-.59.35-.48Z"/>
      <path class="cls-1" d="M65.23,156.29c.67.09,1.16.55,1.2,1.09.09.12.38.45.25.57-.14.12-.31.32-.45.34-.16.02-.41-.16-.54-.44-.28-.28-.59.11-.17.37-.22.3-.45.03-.45-.16-.46-.04-.88-.56-.83-1.09.05-.49.55-.75.99-.69Z"/>
      <path class="cls-1" d="M40.75,132.68l3.94,3.99,2.49,2.58c.78.81,1.75,1.93.93,3.15-.35-1.66-1.03-3-2.41-3.55.11-.54-.31-.64-.47-.8-1.74-1.77-3.16-3.68-5.28-5.05-.3,1.62.48,2.43.14,2.89-.12.16-.67.3-.68.1l-.23-2.5c-.21-.17-.24-.34-.15-.5.06-.09.05-.33.26-.19.1.07.12.28.48.32-.15-.86-1.32-1.36-1.44-2.45,1.2.32,1.71,1.28,2.42,2Z"/>
      <path class="cls-1" d="M75.32,119.72c.42-.07.71.17.65.59-.03.22-.43.2-.66.33l-1.82,1.07c-.06-1,.74-1.82,1.83-1.99Z"/>
      <path class="cls-1" d="M74.88,122.59c.24.14.1.7-.04.87-.2.24-.57.02-.71-.12-.22-.22-.37-.47-.16-.65.26-.23.61-.27.92-.09Z"/>
      <path class="cls-1" d="M79.52,118.55c-.64.79-1.53,1.28-2.52,1.32l-1.2-6.16c.81.6.93,1.42,1.42,2.1.1.14.51-.08.55-.24.25-.92-.35-1.58-.5-2.47l1.67,2c-.11.68-.9,1.8-.33,2.42l.92,1.01Z"/>
      <path class="cls-1" d="M76.23,104.67c-.17-.15.04-.76.44-.65.3.09.7-.02.7.58-.29.04-.74.17-1.14.07Z"/>
      <path class="cls-1" d="M74.47,106.69l.73.25c.13.04.39-.27.75-.27-.16,1.13-1.02,1.65-1.73,2.46.37.11.35.38.34.57-.01.34-.42.47-.63.22-.12-.14-.14-.5-.07-.75-.6-.76-.38-2.22.62-2.49Z"/>
      <path class="cls-1" d="M76.46,105.96c-.27-.13.01-.82.29-.8.71.47,1.29,1.12,1.52,1.92l-1.82-1.11Z"/>
      <path class="cls-1" d="M71.89,98.55c-.13.12-.44-.03-.51-.52l-.24-1.79c.82.29,1.1.9.81,1.7-.05.15.03.52-.06.61Z"/>
      <path class="cls-1" d="M47.7,52.06l1.75,1.08c-.6.63-1.93-.3-1.75-1.08Z"/>
      <path class="cls-1" d="M58.27,31.05c-.49.6-1.86-.86-2.68-2.4,1.1.17,3.02,1.99,2.68,2.4Z"/>
      <path class="cls-1" d="M71.24,124.59c-.09.25-.1.31-.2.41-.11.11-.38,0-.23-.24.09-.13.26-.49.39-.57.1-.07.31.18.37.43.02.08-.17.29-.34-.03Z"/>
      <path class="cls-1" d="M72.94,94.86l-.12,1.49c-.59-.55-.88-1.05-.57-1.52.11-.17.53-.27.69.03Z"/>
      <path class="cls-1" d="M98.73,99.14c.18.05.46.31.82.58-.52.22-1.07.19-1.58.19.18-.55.58-.82.76-.77Z"/>
      <path class="cls-1" d="M78.48,80.47c-.22-.28.05-1.15.39-1.09.81.15.83,1.3.93,1.92-.61-.22-1.06-.5-1.32-.83Z"/>
      <path class="cls-1" d="M85.17,156.53c-.49-.7-.54-1.31-.47-2,.67.42,1.01,1.39.47,2ZM84.22,155.43c.1.14.11.49-.05.59-.17.1-.33-.08-.43-.19-.13-.14-.18-.31.05-.44.09-.05.19-.15.31-.32.06.08.28.04.12.36ZM81.21,148.34l-.38,1.03c-.16-.78-.22-1.35-.07-1.87.12-.42.64-.17.71.15.07.3-.15.39-.26.69ZM81.32,143.08c-.42.39-.84.54-1.31.06l.66-.65c.06-.06.17-.03.21-.02.09-.25.33-.23.48-.09.28.25.24.43-.04.7ZM80.88,152.35c.4.19.43.53.15.74-.17.13-.6.27-.73.12-.16-.17-.22-.65-.17-.84.05-.19.6-.09.75-.02ZM76.35,158.97c-.13,0-.23-.1-.23-.23s.1-.23.23-.23.23.1.23.23-.1.23-.23.23ZM75.52,160.94c-.15.14-.39.1-.6.09h-.53c-.16,0-.23-.4.02-.41h.7c.1-.01.24-.04.32,0,.16.07.16.26.1.32ZM71.68,158.65c-.02-.24.58-1.02.88-.51.18.32-.49.62-.88.51ZM76.41,145.89l.56.94c.23.39.15.7-.07.9-.21.19-.5.1-.76,0-.39.17-.09.74-.08,1.12.01.38-.54.26-.7.17-.16-.09-.22-.46-.3-.6-.53-.93-.29-1.82-.4-2.79-.07-.63-.29-1.01.16-1.49.5-.53,2.03.11,2.07.23.1.36-.78,1.01-.47,1.52ZM81.66,149.01c.04-.06.34.03.4.07.09.06.17.44,0,.46-.13.01-.34-.08-.42-.15-.09-.07-.04-.29.02-.38ZM88.64,147.19c-.05-.3-3.24.51-4.13-2.55.66,0,.83.72,1.16.98.93.72,2.05.89,3.05.84.25.6.22,1.22-.25,1.41.15-.42.19-.59.17-.69ZM87.9,149.57c-.05-.29-.24-.54-.41-.62-.45-.21-1.15,1.03-1.65.97.09-1.93-1.32-1.27-1.77-2.19.33,0,.48-.25.62-.53,1.1.64,2.24,1.01,3.61,1.04.06.48-.05,1.01-.41,1.34ZM83.06,141.57c.21-.41.85-1.03,1.28-.82.9.45,1.09,1.89.35,2.65l-1.63-1.83ZM83.52,147.48c-.53.22-.82-.19-.83-.53,0-.2.12-.55.52-.43.33.1.55.86.3.96ZM90.31,138.66l-.26-.39c-.24-1.16-.56-2.14-.48-3.32l1.08,3.42c.08.26-.27.39-.33.29ZM93.32,117.44c-.55-.17-.04-.56.09-.24l.46,1.1c-.33.13-.49-.06-.58-.17-.13-.16-.09-.41.02-.69Z"/>
      <path class="cls-1" d="M77.6,82.99c.06-.64.68-1.15,1.28-1.3-.02.41-.16.86.06,1.22.11.18.28.45.62.36l-.37-.95c.66.03.46.77.65.81l.64.15c.63.15-.28.49-1.84.45-.24-.29-.63-.65-1.04-.74Z"/>
      <path class="cls-1" d="M77.12,123.29l-1.87-1.47c.53-.36,1.22.71,2.41.96-.25-.79-.81-1.08-1.28-1.77,1.21-.53,1.69,1.1,1.98,2.93-.74.06-1.04-.15-1.24-.65Z"/>
      <path class="cls-1" d="M75.8,87.24c.43,0,.5.11.61.37.06.14.31.46-.05.54-.09.02-.36-.27-.5-.24-.1-.13.31-.41-.06-.67Z"/>
      <path class="cls-1" d="M87.54,130.25l.2-2.25c.07-.73-.17-1.5.3-2.19,2.15,1.38,2.05,4.77.63,7.23-1.29-.5-1.24-1.65-1.13-2.79Z"/>
      <path class="cls-1" d="M80.74,82.73c-.17-.12-.35-.25-.55-.41-.14-.12.11-.48.33-.41.46.21.8.68,1.04,1.04l.02.2c.34.03.28.88.03.87-.33-.01-.33-.51-.24-.65.03-.04,0-.17,0-.22l-.62-.41Z"/>
      <path class="cls-1" d="M79.91,78.66c-.11-.16-.04-.53.18-.51.29.02.51.36.46.65.34.15,1.05.7.65,1.1-.27.27-.62-.29-.65-.49-.16,0-.33-.15-.24-.39-.25-.12-.32-.24-.4-.36Z"/>
      <path class="cls-1" d="M75.8,88.81l.45-.04c.07,0,.15.1.14.23-.22,0-.36.04-.58-.18Z"/>
      <path class="cls-1" d="M69.92,12.81l1.37.9c.17.13-.25.59-.46.6-.44.01-1.39-1.23-.91-1.5Z"/>
      <path class="cls-1" d="M71.42,14.98c.31.13.29.07.46.46.36.82-2.15-1.17-.46-.46Z"/>
      <path class="cls-1" d="M72.78,16.62c0,.13-.4.15-.49.1-.07-.04-.13-.09-.2-.21.03-.04.1-.05.08-.18.34-.1.6.18.6.29Z"/>
      <path class="cls-1" d="M90.3,131.55c.2-.09.57-.32.65.26.15.02.29-.23.57-.31l.13.4c.06.19.27.23.56.24.06.21-.19.52-.36.56-.23.05-.58.06-.76-.13l-.21-.22-.37-.4c-.12-.12-.47.02-.57.12-.18-.42.15-.43.36-.54Z"/>
      <path class="cls-1" d="M110.91,71.35c.08-.16-.02-.59-.16-.76-.07-2.36-.38-4.53-1.08-6.81.06-.67-.13-1.77-.73-2.32-.49-.35-1.41-.26-2-1.02-.9-1.17-3.37-1.68-2.63-3.49l4.16,3.6c.39-.68-.27-1.35-.25-1.92.07-2.46-1.46-3.17-1.67-4.6.33.06.6.26.77.42.55-1.07-.19-1.9-.23-2.83l-.28-6.81c-.06-1.4-.34-2.66-1.01-3.93.62.01.54.53.89.86l.18-4.54c.06-1.45-.06-3.26-.16-4.8-.2-3.29-.65-5.96-1.8-9.04-.39-1.04-.45-2.15-1.31-2.92l-3.04-4.21c-.58-.8-1.52-1.37-1.67-2.46-.26.01-.29.2-.3.31-.02.17-.3.19-.39.03-.23-.39.06-1.5-2.5-2.55l-.31-.29c-.12-.11-.41.04-.39.13.04.13.16.35,0,.58l-2.27-2.6c-.14.25-.03.42.02.55.04.1-.16.32-.29.24l-3.07-1.87c-2.9-1.76-5.41-.41-6.97-1.88l3.13.07c.2,0,.19-.23.09-.26l-.55-.17c-.64-.48-1.18-1.14-1.88-1.4-2.06.57-3.87-.14-5.48-1.75-.06,1.06,1.16,1.25,1.65,1.78.76.82,1.37,1.12,2.78,1.12-.48.67-.98.66-1.53,1.08.48.44.59.85.53,1.44l.4.39c.17.16.08.66-.33.63l-.92-2.05c-.22-.49-.86-.7-1.22-.99l-.14.31,1.3.94c.16.12.03.36-.05.36-.52-.04-1.09-1.15-2.24-1.21.24.3.44.49.49.72.07.33-.07.61-.28.9.47.19.83-.06,1.09.18.02.08.12.11.21.08.23-.04.81.28.74.55-.08.3-.63,0-.71-.18-.29.46.97.36.58,1.06.36,1,1.83.31,1.87,1.99l-1.37-1.11c-.76.26-1.37-.25-1.65-.88-.16,0-.55.31-.72.11l-.43-.5c-.49-.57-1.13-.78-1.6-1.39l-.14.93c-.02.16-.35.21-.52.13-.41-.2-.96-1.88-1.69-1.26-.58.48-.29,2.33.38,2.67.61.31.97,1.21.38,1.48-.3.14-.95-.65-.59-1.13-1.78.39-.33-3.85-2.4-5.79l1,4.18c-.68-.25-1.15-.67-1.69-1.22-.78.94.64,1.56,1.21,2.73-.42.09-.86-.13-1.19-.33-.28-.18-.78-.65-1.2-.52-.33.15,0,.63.14.82.96,1.34,4.15,3.02,4.1,3.02.69-.03,1.27-1.14,3.08-.17.58.31.68.97.72,1.68.07-.04.22.04.23-.14l.03-.32.06-.6,1.35.52c.15-.2.56-.33.67-.23.11.1.06.49.49.58.08-.25.38-.99.85-.74.51.27.51,1.61,1.03,1.64.1,0,.29-.09.4-.33l.94,1.04c.2-.59.08-.78.09-1.28l1.58.47c-.32.65.61.7.43.08,1.25-.13,2.27,1.14,3.22,2.38.24.31.84.87.32,1.25-1.17.86,1.39,1.12.96,2.72-.43.31-1.09-.46-1.42-.74l-1.13-.96c-.17-.14-.07-.54-.41-.58-.44-.05-.82.99-1.42.98-.33,0-.87-.26-.68-.74.09-.24.84-.33.76-.82-.57.09-.92.46-1.45.7l-1.71-2.57c-.22-.33-.48-.47-.73-.3-.52.36.36,2.07.84,2.22,1.06.34,1.87,1.13,1.72,2.28-1.57.4-2.52-.92-3.16-2.45-.28,1.07.43,1.78.62,2.65.09.4-.06.66.39,1,.24.18.4.03.73-.24,2.28.95,1.72,2.59,3.04,2.82-.27.3-.68.08-.75-.04-.29-.52-.87-.5-1.18-.71-.03.16-.09.27-.29.29.43.39.82.76,1.43,1.07.35.18.06.94-.3.89-.54-.07-2.43-1.63-3.02-2.62-1.24.88-3.38-1.05-4.63-2.77.97-.02,1.41.66,2.06,1.23.39.35,1.52.99,1.89.35.55-.94-.51-2.09-1.29-2.58l.05-1.27c-.04.19-.26.22-.28.1-.04-.21-.17-.22-.4-.19-.18.03-.55-.16-.77.03-.42-.42-1.06-.89-1.46-1.58l-1.89-.17-1.36-2.95-1.14-.29.34,2.33c.3.78,1.12,1.33,1.02,2.33-2.18,0-2.41-2.44-3.86-1.3-.23-.33-.58-.37-.74-.67l-.81-1.5c-.29.38-.38.74-.85,1.01-1.68-1.61-.47-3.65-2.11-2.31-.69-.13-.82-1.67-.22-1.9.63-.24.4-.75.21-1-.23-.29-.85-.23-1.02.09-.12.22-.38.27-.62.3.04,1.18.76,2.19,1.32,3.41-1.35-.53-1.76-1.98-2.41-3.09l-.21.92c-.51-.35-.12-.97-.05-1.32-1.01-.29-1.87-1.57-2.08-2.88-.36.46-.04.83-.04,1.24-.98-.28-1.4-1.11-2.11-1.65l-3.22-2.42c-.11-.08-.32-.25-.44-.27-.1-.02-.35.27-.3.38.55,1.39,1.9,2.03,2.74,3.09l2.74,3.47-3.51.44c.25.85.79,1.32,1.4,1.71l3.67,2.42c.17-.75.61-1.5,1.26-1.53.5-.02.91.66,1.25.83,1.03-.05,2.05.03,2.7.84l-1.3-2.77c.78.07.74.94,1.09,1.29.99.99,1.55,1.97,1.59,3.4.37-.09.78-.11.94.05.15.16.12.6-.1.69-.3.12-2.18,0-2.14-1.18-.88.48-1.76-.05-2.76-.21l-2.16-1.07c.3,1.35,1.96,1.91,2.49,2.91.12.22-.08.29-.23.24-.69-.23-.75-1.21-1.79-1.51-.13,1.62,2.52,3.05,3.62,5.04-.57-.44-1.59-.7-1.79-1.23-.23-.09-.37.03-.32.15.11.31.06.63-.32.66-.18.01-.43.02-.89.31,1.04.63,2.43,1.4,2.41,2.41.86.34,2.1.94,2.06,1.97-.01.29-.43.21-.48.02-.04-.16-.48-.08-.27-.77-1.26.62-1.87-1.07-2.57-1.29-1.14-.35-1.91-.19-2.42-1.52-.37-.97-1.23-1.95-1.03-3.23-.4-.22-.63-.28-.85-.58l1.83.32c.42.07.83-.39.71-.65-.53-1.12-2.15-.44-3.8-1.82-.37-.31-.9-.32-1.27-.15-.23.11-.75.27-.58.79.29.92,1.8,1.09,2.59,1.64.15.1-.19.65-.12.86.27.9,1.07,1.49,1.01,2.57-.57-.72-1.16-1.28-1.81-1.76.01.14-.07.25-.14.25l-.35.02c.83,1.8,3.07,3.45,3.27,5.04-1.19-1.11-2.15-2.01-3.33-2.85-.52,1.09-1.37.85-2.54.63l2.54,2.42,2.09,2.35c-.87,1.27-2.35,1.51-1.92,2.71.34.01.8.02,1,.39.18.33.43.69.14,1.24-.54-.38-.68-.83-1.08-1.33-1.08.92-1.56-1.22-2.96-1.63-.04.38.08.57.13.69.06.16-.14.42-.31.39-.13-.02-.39-.1-.55-.42-.13-.26.24-.81-.15-1.24-.38.43-.92.52-1.41.38.14.94,1.02,1.07,1.42,1.57l1.12,3.48c.22.69,2.72,1.08,2.25,2.3l-1.93-1.12c-.51-.29-1.1-1.39-1.59-1.71-.07-.05-.04-.46-.08-.53-.3-.54-.3.92-1.11,1.74-.15-.08-.27-.16-.41-.14-.25-.03-.59-.26-.79-.1.32.52-.23.63-.2.15.12-.59-.64-1-.89-.78-.34.3-.23.83-.31,1.09-.65.03-.89-.59-1.34-.96-.29-.23-1.21.22-1.25.58.39,1.04,1.29,1.96,2.05,2.74l2.51,2.57c.69-.05,1.36.39,1.5,1.03-.16.24-.37.5-.51.49-.11,0-.37-.16-.47-.25l-6.26-5.47-.06,1.45c-.5-.34-.8-.74-1.41-.86.59,1.45,2.1,2.01,2.93,3.05-.74.35-.88.9-1.08,1.5-.14.41-.61.85-.56,1.34.08.87,2,1.53,2.32,2.99.06.27.12.53.23.66.1.12.54.07.68.1l1.62,1.84c.45.51.92,1.29,1.65,1.47.39-.02.99-.46,1.52-.06-.27.63.3,1.57.85,1.23.7-.44,1.21.68,1.25,1.42.04.71,1.02.83,1.39,1.14.4.33.49.96,1.11.97-.11-.21-.23-.56-.19-.7.03-.1.29-.11.42-.04.37.19-.42.67.13,1.08.18.13.3.31.75.3.23,0,.26.5.13.69-.41.65-1.22-.69-3.31-1.56-.16-.06-.35-.6-.52-.58-.27.02-.53.83-1.02.76-.22-.03-.46-.21-.3-.44l.27-.39c.26-.38.26-.65.15-.92-.16-.4-.57-.29-.82-.44-.85-.52-1.4-1.29-2.12-1.67-.8-.43-1.22-.99-1.88-1.54-1.77-1.48-3.69-2.81-5.01-4.75-.34-.49-.73-.87-1.35-.69-.36.1-.81.64-.69,1.07.25.2-.09.33-.2.12-.18.3.02.36.05.42.03.05-.03.14-.2.19,2.15,2.66,4.46,3.11,6.93,5.28-.35.29-.99.94-1.65.89-.82-.06-1.12-1.3-1.71-1.55l-2.21-.96c-.58-.25-.65-.26-.98-.27-.78-.01-.42.78-.57,1.02-.39.66-1.4.11-1.69-.4-.52.61.19.79.38.99,1.12,1.17,3.46,2.27,5.12,3,.03,1.02-1.32.75-1.56,1.73l2.53,2.56c.12.12.48.11.59.13.13.02.17.27.13.41-.35-.03-.74-.13-1.14.17.52.55,1.09.55,1.7.41.07.11.07.23.07.26-.31-.19-.84.39-.58.52.27.14.77.07.96.4.1.18.55.46-.05.82.34.63.69,1.18,1.55,1.35.17.31.45.67.69.61.31-.07.57-.08.84-.38l1.72,1.72c.16.16.2.32.19.44-.07.78-1.55-.97-3.15-.34.35.41.78.47,1.1.7.46.33.49.72.2,1.35l1.51-.55c1.36.03,2.62.81,3.41,1.91l-3.02-1.22c-.66-.27-1.36.3-1.9.76,1,0,1.59.39,2.36.85.24.14.19.4-.04.71-.1.14-.42-.15-.59-.32-2.39.37-2.56-3.45-4.64-3.86.65.62.54,1.03.65,1.59.25,1.22,1.63,2.06,2.21,3.4-1.81-.13-2.83-2.31-3.9-1.86.36.4.77.59,1.29.81.41.89,1.02,1.51,1.89,2.04-.16.36-.41.41-.81.57.46.25.74.11,1,.16-.21-.47.18-.6.33-.57l.49.11c.54.12,1.01.02,1.36.52.14.2-.08.44-.23.46-.25.05-.46-.1-.59-.41-.1-.23-.52.07-.49.29.07.61.91.48.65,1.43,1.49-.9,1.89,1.74,3.26.29.13.75-.6.81-.75,1.27.92-.18,1.55-.09,2.31-.08l1.13.02c.28,1.53,2.52,1.5,2.58,2.09.01.12-.09.27-.17.3-.1.04-.33.08-.51,0l-1.83-.87c-.15,0-.28.06-.29.25.49.41.57,1.16.44,1.75.89.24,1.67.35,2.28.84-1.02.33-1.75-.02-2.46.02-.12-.64-.45-1.15-1.04-1.07l.02,1.13c-.45.03-.91.19-1.47.02-.2-.58-.68-1.24-1.2-1.16.25.57-.4.78-.35.13-.3-.06-.56.32-.51.55l.14.72c-.46-.45-.96-.78-1.59-1.06l-.37,1.93c1.08.21,1.9.67,2.9,1.21-.24.45-.31.71-.03,1.1.13.18.23.55.66.45.74-.17,2.15,1.73,2.75.84.33-.49-.42-1.15-.8-1.54,1.91-.59,2.77.96,4.21,1.72-.03-.43,0-.81.26-.96.17-.09.45-.14.75.05.11-.59.54-.73.97-.7.38.03.72.14.79.76l-1.11.67c.37.52,1.44.41,1.42-.08l-.05-1.78c.6.41.76.94,1.08,1.41.79.14,1.35-.06,2.12-.11-.24.38-.15.54-.02.65.22.17.45.11.57.04.54-.34-.35-3.29.44-3.04.63.41.86,1.27,1.77,1.41-.33-.55-.91-.99-.5-1.61l2.14,1.56c.15-.12.56-.46.7-.22l.33.56.55-.85.38,1.58c.35-.14.55-.04.68.09.06.06.07.17.08.25.12.11.25.26.42.26l.37-1.65c.81.17-.3,1.36-.2,3.04.42,0,.78-.36,1.02-.6.65-.64-.29-1.47.58-1.83.07-.03.16-.22-.01-.25l-.55-.11c-.38-.08-.5-.64-.9-.68l-.11-2.93c0-.16-.04-.35-.14-.46-.93,0-1.91-.21-2.82-.56-.37-.14-.62-.64-1.29-.63l1.83-1.11c.05.37.21.41.29.5.07-.28.15-.14.23-.09l.55.29c.08-.26.15-.28.35-.43.22-.15.18-.25.47-.1.32.16.79.13.99-.29-.64-.05-.97-.23-1.54-.54l1.65-1.17-.85-.3.51-.19c.59-.22-1.06-1.42-.56-1.89.5-.47.51,1.21,1.28,1.6.25.13.61.04.85-.2.1.51.35.98.13,1.41l-.89-.54c-.46.08-.33.76-.17,1.05.2.36.64.12.99.11.68-.01,1.42,0,2.03-.61-.48-.42-.92-.19-1.34-.17-.04-.51.26-.74.54-.88.19-.09.5-.05.61-.27-.22-.6-.52-.88-1.12-.73.33-.42.62-.82.94-.97.45-.22,1.17.26,1,.75-.1.31-.7.78-.36,1.21.44.54,2.18.95,2.16.96.12-.05.29-.22.29-.51-.38.04-.9-.69-.68-.9.82-.77,1.04.96,2.49,1.62-.34.54-1.21.68-1.87.09-.3.21-.43.6-.4,1.07l-2.12-1.04c.27,1.15,1.14,1.92,1.93,2.76l-.39,1.16c.43.37.98.96.96,1.49-.04.93-1.22,1.24-1.92,1.35-.23.05-.59.7-.85.44-.39-.38-.47.14-.62.34-.19.26-.03.62.27.76.39.18.72-.28.98-.3.78-.06,1.53-.65,2.2-1.19l.86.53c.36.34.94.56,1.5.25.26-.15.69-.24,1.04-.53.56-.47.44-1.09.11-1.72-.29-.56-1.05-.78-1.82-.73.05-.76.83-1.08,1.39-.76.68.38,1.15.96,1.61,1.46.33-.29.55-.48.59-.63.08-.31-.4-.45-.57-.59l-1.23-1.1,2.6-1.33c.34-.17.64,0,.64.32,0,.57-.77.48-.77.9,0,.19.12.24.24.24.55.01.65-.69.91-.94.18-.17,1.39.18,1.48.25.12.1.02.59,0,.8.43.21.93-.77.66-1.06-.83-.91-1.79-.52-2.27-1.49-.1-.21.35-.5.54-.31.47.46,1.14.56,1.51.08.26-.29.56-.43.61-.86.05-.11-.06-.25-.18-.21-.1-.13-.04-.35.07-.33l2.22.27c-.05-.53-.62-.88-.85-.75-.64-.93.84-.45,2.51-1.08.45-.36-.7-.35-1.1-.96-.16-.24-.08-.83.24-.97.94.81,2.06,1.15,3.37.81l-.93,1.54c.06.14.55.14.47.13-.09-.01-.07.63.02.6l3.56-1.49,2.13-1.37c.55-.35.74-.76.77-1.49.55.03,1.31-.25,1.43-1.25l1.21.15c.05-.71.54-.89.97-.88,1.1.02.5,1.43,1.1,1.59.2.05.58.09.66-.06ZM73.69,83.78c-.11-.57.31-.7.6-.59-.17.26-.36.45-.6.59ZM57.86,83.37l-.67-.32c-.22-.1-.3-.44-.09-.51.4-.14.66.23.92.41.43.06.21.59-.15.42ZM60.2,83.46c-.4-.16-.77-.46-.83-.68-.07-.26.18-.5.31-.57.09-.05.39-.03.49.05.12.39.23.8.04,1.2ZM55.72,74.08c.34-.17,1.39.81,1.11,1.95l-1.24-1.36c-.19-.21,0-.52.13-.59ZM56.99,72.05c-.48.47-1.2.48-1.77-.13.62-.42,1.21-.14,1.77.13ZM45.15,48.34c-.48.15-.95-.57-.72-.83.24-.24.51.07.63.18.16.15.28.59.09.65ZM55.63,63.79c.22-.49.65.18,1.52.7.04.31-.48.34-.65.25-.26-.13-.2-.45-.29-.54-.23-.07-.61.2-.69.09-.08-.13.06-.4.1-.49ZM52.34,63.77c.08-.19.37-.38.38-.38.14.05.11.29.1.39-.11.06-.3.34-.48-.01ZM50.74,61.7c-.1-.28.05-.45.31-.43.15.01.38.05.46.3.12.36.04.81.05,1.17.22-.13.37-.26.63-.2.27.05.24.29.21.52-.02.17-.05.37-.33.51-.17.09-.51-.18-.51-.41v-.2c-.38-.22-.84-.57-.83-1.04,0-.03,0-.14,0-.21ZM50.74,55.11c.06-.05-1.02.29-1.25.2-.17-.07-.59-.46-.31-.67.38-.29,1.06-.19,1.37-.09.27.08.29.47.2.56ZM51.54,56.56c-.07.09-.26.16-.47.13-.17-.02-.23-.25-.04-.41.09-.07.05-.32.28-.31.25,0,.34.45.23.6ZM53.68,61.24c.49.56,1.25.9,1.24,1.79-.86-.46-1.21-1.24-1.85-1.79-.84-.73-1.87-1.32-2.19-2.56,1.37.39,1.97,1.61,2.81,2.56ZM52.95,56.33l-.41-1.13c-.1-.27-.14-.47,0-.53.11-.05.24-.02.37.11.39.42.6,1.24.05,1.56ZM57.35,62.35c-1.51-.65-3.27-1.5-3.87-3.21-.1-.31,1-.39,1.2.09.62,1.54,2.67,1.89,2.68,3.11ZM58.13,65.5c-.12.01-.26-.08-.39-.17l-.32-.23c-.15-.1-.09-.34.09-.35.27-.02.63.18.78.4.08.11,0,.35-.16.36ZM58.95,66.06c-.03.14-.37.44-.45.32-.2-.42-.06-.78.09-1,.48.11.41.41.36.68ZM59.68,69.51c-.09.2-.4.41-.54.26-.18-.19-.11-.71.06-.78.17-.07.32.07.29.2.23,0,.25.19.2.32ZM51.36,38.9c-.05.1-.2.15-.3.1-.13-.06-.13-.2-.17-.26-.02-.14.04-.29.17-.37.15-.09.34.03.31.21.02.11.03.24,0,.32ZM56.17,36.56c-.26-.03-.63-.19-.65-.48-.01-.22.19-.24.32-.22.24.03.41.16.62.44.35.2-.07.67-.29.26ZM66.7,21.88c-.38-.08-.95-.89-.49-1.34.4-.09.84.95.49,1.34ZM67.19,24.73c-.03.09-.17.18-.31.11-.19-.09-.15-.6-.01-.58.27.06.37.33.32.46ZM62.36,14.97c-.82.39-.91-.23-.95-.59-.03-.27.27-.86.59-.64.32.21.3,1,.35,1.23ZM65.53,16.19c-.03.09-.17.18-.31.11-.19-.09-.15-.6-.01-.57.27.05.36.33.32.46ZM77.92,65.03c-.05-.14,0-.38.18-.56.31.03.66.71.43.86-.38.25-.56-.15-.61-.3ZM78.52,36.79c-.53-.24-.91-.41-1.15-.69l-.12-.14c-.22-.26-.35-.48-.26-.91-.28.04-.35-.05-.51-.14l-.35-.18c-.25-.13-.27-.49-.08-.53.28-.06.56.06.68.17l.63.61c.81.16,1.27,1.08,1.17,1.81ZM77.77,33.41c-.63-.3-.47-.95-.41-1.72.46.31.57,1.02.41,1.72ZM68.86,35.32c0,.16-.38-.01-.47-.2-.04-.09-1.21-1.25-.68-1.33.14-.02.22.04.34.16.33.33.83.69.81,1.37ZM68.44,30.07c-.46-.3-.14-.79.14-.83.2.26.09.8-.14.83ZM68.95,67.49l3.49,2.07c.21.12.36.3.29.47-.04.1-.24.2-.48.05l-2.08-1.36c-.51-.33-1.11-.63-1.22-1.23ZM69.69,74.09c.04-.1.28-.25.43.03.04.32-.25.33-.33.28-.11-.07-.15-.19-.1-.32ZM70.73,71.04c.13,0,.23.1.23.23s-.1.23-.23.23-.23-.1-.23-.23.1-.23.23-.23ZM74.94,66.16c-1.06-.22-1.75-.97-2.35-1.68l.36-.43c.26-.31,1.47.91,1.99,2.12ZM74.59,62.32c-.1.08-.31,0-.31-.1v-.41c0-.09.22-.23.36-.06.12.15.1.45-.04.57ZM73.74,56.9c.05-.04.13-.2.26-.16.24.08.26.35.17.37-.12.02-.28.02-.41,0-.11-.01-.12-.15-.02-.21ZM73.89,61.11c.2.09.12.8-.11.85-.35.09-.66-.37-.56-.56.08-.14.4-.36.66-.29ZM73.17,59.89c-.59.82-1.77.32-2.29-.4-.72-1.01-1.91-1.4-2.43-2.44,1.17.23,1.87.94,2.5,1.71-.07,1.22,1.65.04,2.22,1.12ZM71.88,37.33c-.1.08-.31,0-.31-.1v-.41c0-.09.22-.23.36-.06.12.15.1.45-.04.57ZM71.4,55.78c-.14.08-.35.06-.35-.07,0-.12-.04-.32.02-.4.03-.05.27.04.32.09.08.07.14.31,0,.38ZM69.49,64.2c0-.21.27-.56.65-.35-.25.26-.55.46-.66.75-.08.07-.23-.07-.19-.1.06-.05.2-.19.2-.3ZM71.78,63.84c-.05.12-.14.22-.32.34-.05.03-1.09-.65-.94-.92.1-.18.4-.42.52-.33l.4.32c.21.17.45.35.34.59ZM71.78,61.8c-.09-.16.03-.29.12-.31.1-.03.4-.03.47.06.16.21-.09.42-.27.37-.08-.02-.21.06-.32-.12ZM73.61,67.03c-.42.75-2.55-.76-3.19-1.63-.1-.13.06-.56.22-.55.08,0,.24.23.09.49,1.12.19,2.19.75,2.88,1.69ZM73.52,72.98c-.83.1-1.37-.47-1.73-1.05.84.21,1.3.44,1.73,1.05ZM72.32,77.11c-.16.28-.69.29-.69.08,0-.46.31-.93.59-.89.31.04.22.62.1.82ZM69.3,72.94c0,.13-.1.23-.23.23s-.23-.1-.23-.23.1-.23.23-.23.23.1.23.23ZM68.65,70.47c-.13,0-.23-.1-.23-.23,0-.13.1-.23.23-.23s.23.1.23.23c0,.13-.1.23-.23.23ZM67.83,62.45c-.74-.46-.73-1.24-.52-1.36.14-.08,1.69.6,1.54,1.28-.06.28-.73.26-1.02.09ZM67.28,56.04c.15-.12.53-.13.65.03.06.07.07.15,0,.22-.07.06-.16.15-.45.17-.35.02-.34-.29-.2-.41ZM67.79,37.75c0-.13.1-.23.23-.23s.23.1.23.23c0,.13-.1.23-.23.23s-.23-.1-.23-.23ZM70.87,42.79c-.05.88-1.43-.29-2.4-1.55.93.31,1.73.91,2.4,1.55ZM70.44,36.24c-.18.17-.47-.12-.54-.27-.07-.17,0-.61.3-.65.27-.04.52.65.24.92ZM69.88,30.15c.17-.18.52-.1.65.26.02.06.04.13.03.23-.02.33-.7.83-.81.56-.18-.46-.08-.83.13-1.06ZM69.88,26.29c.78.1,1.82.95,1.83,1.33,0,.25-.26.46-.44.32l-.45-.34-.71-.28c.08-.4-.03-.63-.22-1.03ZM74.2,33.73c-.53-.88-1.28-1.21-1.96-1.65-.48-.31-1.13-.46-1.55-1-.11-.15.22-.61.35-.55l.58.27c1.25.58,2.77,1.39,2.57,2.92ZM73.43,25.97c.14-.09.34.02.42.28.06.18.03.43-.14.46-.23.05-.32-.14-.39-.21-.12-.13-.13-.37.11-.53ZM73.88,30.08c.24-.68,1.06-.51,1.33-.28.32.28.53.89,0,1.22-.45.29-1.51-.47-1.34-.94ZM75.03,48.23h.34c.05.25.02.39-.08.44-.08.04-.33.07-.33-.03,0-.13-.02-.41.07-.41ZM76.33,64.03l-.83-.62-.17-.05-.24-.5c.07.15.26.12.33.1.06-.02.14.15.12.21.32.14.91.24.79.86ZM75.72,62.75c-.03-.12.12-.31.23-.23.11-.33.25-.06.32.02.09.1.32.26.28.42v.27c.08-.15.39.06.21.33.33-.02.44-.02.63.1.16.11.27.28.21.53-.01.06,0,.15,0,.21,0,.06.05.19,0,.31-.06.14-.14.1-.22.01-.11-.12-.2-.19-.2-.32v-.19s-1.47-1.46-1.47-1.46ZM77.09,56.49c-.1.08-.31,0-.31-.1v-.41c0-.09.22-.23.36-.06.12.15.1.45-.04.57ZM75.82,55.03c.12-.17.32-.25.58-.05.33.26.49.49.29.74-.22.26-.43.33-.71.11-.28-.23-.36-.52-.16-.79ZM76.84,68.38c.81-.59,1.41-.88,1.39-.5,0,.09-.01.16.04.27-.33.36-.88.66-1.44.23ZM76.98,72.23c.35-.09.92.57.72.86-.6.01-.77-.19-.9-.29-.12-.09-.1-.5.18-.58ZM75.73,67.09c-.25-.21-.14-.49.02-.68.09-.11.43,0,.58.11l1.29.95c-.75.35-1.34.09-1.89-.38ZM74.38,71.1c.39-.43.62,0,.88.21.45.37,1.04.5.89,1.25l-1.78-1.46ZM73.22,77.51c.22-.58,1.09-.51,1.52-.28-.1.35-.3.46-.46.51v.2c.34-.07.59.22.58.31-.02.19-.21.13-.28.13-.14,0-.3-.09-.33-.21-.05-.05-.19-.15-.3-.22-.13-.09-.09-.26.11-.22,0-.06,0-.16.02-.21h-.23c.01.15-.06.16-.12.21-.16.12-.59-.03-.51-.22ZM73.03,73.97c.39-.18.51.32.04.25-.23.06-.31-.22-.04-.25ZM71.78,78.38c-.55-.08-1.2,0-1.18-.84.88.35,1.48.62,2.2,1.22-.5.45-.8-.26-1.02-.38ZM68.76,84.52c.24.01.34.12.59.25l.45.24c.16.08-.08.25-.19.27l-.46.08c-.47.08-.61-.13-.68-.29-.14-.31.08-.56.29-.55ZM67.3,79.36c.74.06,1.5.12,1.75-.68.08-.25-.17-.8.42-.96.49,1.2,2.21.98,2.25,2-.95.07-1.43-.62-2.25-1.05-.16.8-.24,2-.99,2.07-.56,0-1.3-.93-1.18-1.38ZM67.18,63.54c-.03-.4.6-.45.9-.32.19.08.62.16.59.57-.02.36-.78.5-.84.26-.06-.24-.22-.44-.31-.42-.06.01-.26.2-.34-.1ZM64.88,81.08c.04-.28.3-.31.44-.12.07.09.22.16.11.35l.24-.04c.17-.03.23.05.27.12.04.08,0,.33-.2.4-.28.11-.8-.21-.86-.5v-.21ZM65.41,68.78c-.15.03-.23-.05-.34-.16-.13-.14-.31-.32-.09-.69.19.18.41.34.54.58.08.15-.03.26-.11.27ZM64.13,83.07c.01-.12.28-.21.48-.04.18.15.21.54,0,.71-.09.07-.35-.02-.42-.17-.05-.11-.1-.27-.07-.5ZM63.9,80.31c.34-.03.42.72.18.71-.5-.02-.37-.69-.18-.71ZM63.31,64.38c.23-.17.41-.09.44.05l.13.61c.05.24.11.46-.14.6-.12.07-.35-.09-.35-.25,0-.1-.06-.2-.18-.39-.26-.39-.03-.54.09-.63ZM62.51,84.2c.15-.11.54.17.49.41,0,.04,0,.08,0,.14.03.3-.22.47-.49.5-.2.02-.56-.23-.51-.5.03-.19.3-.38.52-.55ZM62.16,71.59c.06-.06.31-.09.33-.03.05.16.03.39-.03.47-.05.07-.31-.01-.36-.1-.05-.1-.01-.28.05-.34ZM61.76,58.41c.43.41,1.05.45,1.5.8.39.31.32,1.4.18,1.81-.67-.07-.24-.93-.36-1.2-.3-.68-1.03-.33-1.6-1.14-.1-.14.15-.39.27-.27ZM60.51,69.76c.11.2-.12.36-.28.27-.07-.04-.09-.13-.03-.22.04-.06.19-.29.31-.05ZM54.36,48.35l3.3,2.88c.87.76,1.89,1.42,2.27,2.49-.89,0-1.12-.59-1.73-.77-2.62-1.76-4.76-3.92-6.99-6.11l-2.75-2.28c-.08-.07-.44-.04-.41-.28.03-.21.48-.33.57-.26l4,2.84,1.72,1.47ZM53.23,39.73c-.07.18-.22.41-.54.48-.19.04-.57-.21-.61-.68.17-.07.45-.41.63-.46.37.02.65.32.51.66ZM54.7,42.44c-.57-.43-1.16-.74-1.51-1.28.63-.37.95-.34,1.37-.41.14.63.45,1,.15,1.7ZM56.05,46.37c-.17.79-1.38-.28-2.42-1.55.03-.28.52-.5.74-.49.57.03,1.69,1.99,1.68,2.03ZM56.4,40.06l-.23-.04c-.46.03-.87-.44-1-.78.51-.11.8-.08,1.07.14.17.14.53.37.17.68ZM56.97,46.6c.07-.1.45-.07.46.06.04.46-.32.75-.66.73-.17-.56.12-.68.2-.79ZM58.37,45.3c-.92-.46-1.45-1.22-1.35-2.14.68.62,1.08,1.34,1.35,2.14ZM58.54,37.53c-.15.1-.49-.16-.51-.35l-.02-.22c-.02-.31.21-.27.33-.28.28-.01.33.17.31.33-.01.11.1.37-.12.51ZM60.47,50.6c-1.42-.75-2.24-1.92-3.1-2.89,1.09-.68,3.11,1.77,3.1,2.89ZM60.13,46.83c-.14.11-.27.02-.33-.11-.04-.11-.05-.33.03-.39.06-.05.31,0,.34.07.06.19.1.33-.04.44ZM60.74,35.13c.12.1.2.2.2.33,0,.11.11.26.32.41.35.25-.09.65-.31.32-.22-.34-.39-.67-.63-.84.13-.29.33-.3.42-.22ZM61.55,34c-.35-.15-.6-.52-.83-.76v-.26c0-.32.31-.28.44-.12.15.19.38.3.41.52,0,.03,0,.09-.02.2.14,0,.18.07.23.12.08.08-.04.39-.23.3ZM62.59,30.55c-.04.21-.27.22-.42.03-.07-.09-.21-.21-.12-.36.04-.06.16-.21.29-.14.15.08.26.33.24.46ZM62.93,34.81s-.42-.29-.32-.5c.05-.11.23-.19.37-.05.11.1.08.51-.05.55ZM64.34,38.92c-.67-.24-1.32-.76-1.7-1.57.7-.36,1.63.57,1.7,1.57ZM65.32,44c.25.04.32.25.52.4.18.13-.06.55-.32.27-.11,0-.19-.19-.4-.49-.18.05-.26-.11-.34-.18-.13-.11-.16-.33.01-.42.14-.08.33,0,.31.21.14-.03.24.08.21.21ZM66.02,60.85c-.16.29-1.15-.08-1.03-.84.07-.46,1.35.25,1.03.84ZM66.19,39.86c-.19.21-.49.21-.67.1-.09-.06-.23-.19-.04-.43.25-.31.45-.38.68-.25.13.08.22.36.03.57ZM66.79,62.85c-1.63.38-2.51-1.18-2.77-2.31.32-.07.61.12.66.3.31,1.09,1.39,1.35,2.11,2.01ZM67.15,58.45c.2.26-.17.81-.46.6-.16-.11.21-.62.46-.6ZM67.2,37.55h-.14c-.35,0-.26-.22-.29-.33-.05-.2-.04-.59.32-.51.11.03.26.22.31.32.08.16.05.51-.19.51ZM67.78,40.64c.17.29-.09.44-.27.45-.1,0-.23.04-.29-.13-.05-.15.04-.33.15-.42.07-.05.28-.13.41.09ZM67.71,24.2c.12.02.32-.03.32.23v.2c.4.34.96.71,1.22,1.26.1.2-.36.48-.51.44-.17-.05-.43-.12-.57-.4l-.72-1.36c-.12-.22.01-.4.26-.37ZM69.64,22.19c1.09,1.64,2.78,2.55,2.68,2.92-.06.24-.12.45-.4.48-.12.01-2.16-1.19-2.89-2.36-.31-.11-.41.09-.43.18-.12.73-.6-1.51-1.25-.9.08-.37.19-.55.48-.96.64.49,1.05.97,1.42,1.79.43-.32.32-.62.39-1.15ZM69.92,18.77c0,.11-.09.2-.21.2s-.21-.09-.21-.2.09-.21.21-.21.21.09.21.21ZM72.18,19.73c-.05.17-.41.43-.53.27-.19-.27-.14-.85.04-.99.17-.08.33.07.3.2.26.06.25.32.19.53ZM72.48,23.06c-3.17-2.54-2.82-4.66-1.98-3.64l1.34,1.64c.46.57,1,1.22.64,2ZM74.85,17.95c-.53-.27-.76-.75-.47-1.27.33.37.41.66.47,1.27ZM75.3,23.76c0,.33-.47.75-.88.68-.47-.07-.89-.66-1.23-1.02-.27-.29,0-.5.19-.62.2-.13.57-.44.77-.06.11.21-.14.82.31.89-.01-.18.1-.25.26-.32.29-.13.59.21.58.44ZM75.83,20.93c-.74-.78-.49-1.63.06-2.1.32.93.42,1.55-.06,2.1ZM77.46,21.37c-.12.36-.59.62-.66.41-.14-.52,0-.78.08-.87.08-.09.44-.06.57.01.11.06.08.27.01.45ZM78.01,25.11c-.07.28-.48.13-.61-.04l.21.32c.11.17-.13.39-.32.32.07.12.14.55,0,.57-.57.09-1.22-.86-1.32.16-.31.14-.57-.41-.56-.7,0-.45.33-.55.74-.53-.26-.3-.23-.58-.05-.77.25.32.41.57.68.62.23-.2.45-.38.6-.66.15-.29.36-.18.47-.07.21.21.27.42.18.79ZM78.32,34.19c-.26.04-.22-.19-.31-.27-.16-.15-.16-.32-.05-.37.16-.06.56-.09.64.06.15.27-.06.54-.29.58ZM78.72,12.97s-.17,0-.25,0c-.15,0-.47-.18-.44-.46.02-.24.44-.26.63-.08.14.13.35.33.07.54ZM80.26,14.54c-.48-.07-.41-.4-.39-.69.3.02.28.38.39.69ZM82.83,8.28c.06.29-.23.45-.43.2l-.23-.28c-.12-.05-.23-.16-.31-.24-.19-.17-.07-.39.04-.41.42-.08.84.29.94.73ZM83.23,10.69c-.03.21-.18.23-.35.21-.01-.1-.12-.24-.18-.21-.07.04-.33.02-.32-.22,0-.26.51-.31.62-.11.05.1-.1.27.24.33ZM83.42,12.65c-.08.29-.49.42-.6.19-.01-.03.04-.2-.04-.26-.4-.29-.05-.5.16-.47.36.06.55.32.49.54ZM85.01,13.78c-.09.04-.31.02-.36-.23l-.09-.45c-.03-.18.08-.2.2-.1l.27.23c.19.16.13.48-.03.55ZM87.3,14.59c-.44-.09-.46-.79-.1-.79.3,0,.28.74.1.79ZM91.63,71.8c-.08-.03-.21.03-.22-.18,0-.09.02-.27.3-.2.44.1.15.46-.08.39ZM91.76,49.85c-.13,0-.23-.1-.23-.23,0-.13.1-.23.23-.23s.23.1.23.23c0,.13-.1.23-.23.23ZM91.21,73.72c.02-.07.13-.19.3-.11.24.12.16.3.16.43,0,.2-.27.23-.39.13-.09-.07-.09-.32-.06-.45ZM90.84,68.12c.05-.13.36-.38.49-.02.11.3-.29.5-.47.4-.12-.07-.06-.27-.02-.37ZM88.49,75.64c.45.25.61.24.87.23.21,0,.51-.5.35-.57-1.01-.39-1.63-.92-2.46-1.42l-.45-.27c-.24-.14.09-.7.34-.48.45.41.75.46,1.14.35.43-.12,2.19.18,2.03,1.15.03.2.32.37.21.7-.11.31-.24.55-.65.63.25.57.18,1.07-.11,1.37-.89-.29-1.08-1.05-1.27-1.71ZM89.06,56.6c0-.09.22-.23.36-.06.12.15.1.45-.04.57-.1.08-.31,0-.31-.1v-.41ZM89.25,71.95c.14.21-.14.49-.31.51-.15.02-.45-.05-.61-.47-.09-.24.66-.42.92-.04ZM86.58,59.89c-.3.87-1.17-.86-1.21-.81.1-.15.37-.25.53-.28.07-.01.74.9.68,1.09ZM86.48,57.52c-.36-.18,0-.65.27-.31.01.1.07.14.2.12.25-.04.78.55.61.74-.36.28-.86-.16-1.08-.55ZM86.21,35.96c-.05-.08.39-.06.41.09l.06.46c.01.09-.3.17-.36.11-.06-.06,0-.25-.11-.66ZM86.46,32.54c.07-.05.42-.02.42.06,0,.24-.15.32-.23.36-.09.05-.27-.01-.3-.11-.06-.19.04-.26.11-.31ZM87.16,55.26c.24.12.32.15.42.3.08.11.03.25-.1.27-.16.02-.77-.27-.7-.48.05-.16.2-.17.38-.09ZM87.3,69.83c-.08-.02-.24.03-.3-.11-.03-.07.37-.48.55-.26.17.2,0,.43-.25.38ZM87.82,76.14c.65.37.97,1.9.63,2.55-.08.14-.56.21-.59.06-.17-.85-.3-1.64-.03-2.61ZM85.2,83.54c-.07-.27.33-.44.53-.49.57-.15,1.46.46,1.38.94-.07.42-.37.36-.67.47-.3-.05-.53-.21-.79-.28-.29-.04-.37-.35-.45-.64ZM86.39,77.91c-.35,1-1.08,1.89-2.14,2.24.73-.83,1.19-1.59,2.14-2.24ZM85.24,74.84c.34-.18.77.03.91.36-.37,0-.51.18-.65.31-.1.09-.31.34.02.37.56.05,1.08-.75,1.59-.6.31.14.16.72,0,.88-.35.37-1.44.41-1.79.22-.15-.08-.56-1.3-.08-1.54ZM83.81,65.94c.08-.08.33-.13.36-.06.1.25,0,.44-.07.52-.16.17-.3.04-.38-.08-.13-.21,0-.29.09-.38ZM83.11,54.42c.19-.31.7-.2.9.05l.87,1.13c.07.09-.02.33,0,.35l.39.28c-.03.28.31.31.43.34.13.03-.05.49-.16.59-.1.09-.35.1-.54-.05-.11-.08.35-.45-.24-.45-.2-.25-.08-.76-.13-1.06-.49-.22-1.18-.67-1.53-1.2ZM82.07,73.1c.05-.23.13-.36.46-.3.02.14.07.62-.04.71-.21.16-.48-.12-.42-.4ZM81.52,65.71l1.3-1.15c.12.8-.67,1.29-1.3,1.15ZM79.06,70.64c.26,0,.42.06.64.2.33.21.61.53.84.86.06-.05.16-.05.21-.02.24.13.53.43.76.72.09.12-.39.53-.59.34l-2.01-1.94c-.06-.06.06-.16.16-.16ZM80.21,45.24c-.1.08-.31,0-.31-.1v-.41c0-.09.22-.23.36-.06.12.15.1.45-.04.57ZM79.98,29.83c-.17-.2-.12-.56.03-.61.15-.06.59-.07.66.11.19.42-.12.65-.28.71-.17.06-.33-.11-.41-.21ZM80.31,39.73c-.05-.1.03-.32.16-.43.06-.05.27-.03.32.06.17.28,0,.41-.18.48-.09.03-.22.05-.3-.1ZM81.38,67.67c-.71.26-.98-.22-1.43-.63l-.27-.25c-.11-.1,0-.33.21-.31l.19.02,1.3,1.18ZM79.34,65.47c-.02.17-.12.49.02.65.25-.09.54-.13.77.08-.39.04-.45.24-.63.34-.38.22-.51-.05-.59-.24-.16-.37-.15-.85.42-.83ZM80.64,27.72c-.12.04-.62-.76-.83-.59-.08.07-.27.29-.52.18.04-.62-.08-1.2-.28-1.85.68-.02,1.03.4,1.15,1.06.2-.17.21-.37.15-.65.43-.06.56.23.73.41.25.26-.16,1.36-.4,1.43ZM81.24,35.45c-.2.37-.86.28-.9.06-.06-.4-.07-.75.06-1.12.16.41.45.68.84,1.06ZM84.14,31.29c-.21.08-.4.03-.5-.18-.12.03-.32.16-.48.04-.1-.07-.28.3-.39.27l-.56-.18c-.31-.1-.53-.16-.64-.3-.17-.22-.14-.86.18-.85.28.01.58.2.74.16.28-.07.54-.55.27-.77-.16.01-.48.27-.76.13.15-.73-.21-1.33-.6-1.84-.08-.25-.05-.71.1-.85.57.38.95,1.02,1.35,1.5.19.24.82.16.72,1,.47-.25.72-.15.88.13.46.81-.21,1.71-.3,1.74ZM85.73,54.32c.19.55-1.04,0-1.04-.02l.02-.88c.25,0,.47.29.61.53.05.02.21.02.2.24.12-.02.19.05.22.12ZM86.07,31.97c-.03.11-.05.37-.46.25,0-.32,0-.67.27-1,.3.21.26.52.19.75ZM86.48,23.42c-.59.03-.62-.45-.86-.68-.18.04-.3-.04-.32-.1-.03-.16.08-.32.21-.41.14-.1.22-.02.38.17.33.31.81.62.59,1.02ZM86.83,27.8l.06.71c.62.2,1.18.02,1.85.67-.73.41-1.54.45-1.98.14-.57-.4-.86-1.1-.55-1.74.12-.24.6-.02.62.22ZM90.1,25.1c-1.83-.08-3.23-1.55-3.31-3.43,1.44,1.77,2.98,1.65,3.7,2.69.11.16-.06.76-.39.74ZM91.39,21.4c-.77-.89-1.27-1.73-1.47-2.76.59.03,1.36.28,1.5.84.17.64.11,1.23-.03,1.92ZM92.32,22.49c.12.22.22.35.16.69-.12.04-.5-.11-.61-.55-.11-.4.38-.28.45-.14ZM92.6,20.36c-.05.11-.2.17-.31.1-.1-.06-.17-.2-.09-.37-.27-.06-.25-.27-.22-.36.05-.11.2-.17.31-.1.1.06.17.2.09.37.27.06.25.27.22.36ZM92.45,26.62c-.77-.42-1.24-.82-1.86-1.39.51-.59.96-.44,1.4-.07.23-.25.29-.44.7-.58.01.7.1,1.34-.24,2.04ZM92.63,54.6c-.47-.11-.28-.84-.05-.82.42.03.29.88.05.82ZM93.56,56.51c-.09-.02-.22.08-.32-.12-.02-.05.37-.48.55-.26.18.21-.04.43-.24.38ZM94.18,59.11c-.1.05-.34-.05-.43-.12-.09-.08-.16-.34-.06-.48.07-.1.31-.13.47-.03.17.11.21.53.02.63ZM105.52,38.07c0,.19-.12.51-.49.51-.22,0-.27-.54,0-.63.06-.05.1-.23.27-.21.21.03.22.17.21.33ZM105.9,53.47c-.18-.26-.47-.47-.39-.62.05-.08.2-.09.28-.04l.29.19c.18.12.17.26.16.44,0,.1-.28.11-.34.03ZM105.38,55.07c.12-.18.8.2.42.77-.15.02-.61-.48-.42-.77ZM105,40.93c-.12-.46-.21-.8-.58-1.03.48-.19.61.2.77.35.2.18.21.61-.19.68ZM104.26,46.81c0-.09.22-.23.36-.06.12.15.1.45-.04.57-.1.08-.31,0-.31-.1v-.41ZM104.97,68.77c-.6-.33-1.07-.96-.67-1.71.29.56.79.88.67,1.71ZM98.07,72.19c.71-.28,1.51.12,2.04.62.49-.08,1.17-.19,1.98-.09-1.05-.9-1.88-1.71-1.68-3.13l2.35,2.35c.19.19.3.43.24.67.04-.15-1.54,1.74-2.9,1.32l-.34-.65-.87-.04c-.4-.02-.62-.2-.77-.33-.13-.12-.21-.67-.05-.73ZM101.22,64.12c.84-.36,1.48.11,1.53.8-.64.09-1.17-.22-1.53-.8ZM101.23,67.32c.18.26.34.59.25.97-.48.04-1.24-.49-1.29-.92.24-.41.88-.29,1.04-.05ZM101.87,69.45c.14-.2.74.29.41.68-.17.12-.61-.38-.41-.68ZM99.79,52.53c-.1.08-.31,0-.31-.1v-.41c0-.09.22-.23.36-.06.12.15.1.45-.04.57ZM98.84,55.06c-.54-.48-.69-.98-.71-1.69.55.38.98,1.06.71,1.69ZM97.63,50.9c-.07-.59.46-1.04,1.03-.78-.42.17-.66.46-1.03.78ZM98.12,70.25c.21-.07.41.17.57.36.26.16.21.48-.11.5-.46.03-.66-.17-.77-.35-.09-.15.14-.45.31-.5ZM97.35,58.03c.11-.07.25-.09.36.01.15.14.11.38-.04.45-.14.07-.28.04-.4-.11-.12-.15-.04-.27.09-.36ZM96.98,56.58c.3.36.26.75.13,1.16-.38-.22-.57-.72-.13-1.16ZM96.33,60.85c.42.03.29.88.05.82-.47-.11-.28-.84-.05-.82ZM96.36,39.11c-.12.12-.22.05-.22-.03v-.41c0-.08.26-.2.36-.05.14.22,0,.35-.14.49ZM95.17,60.24c.05-.05.14-.27.3-.06.2.28-.01.55-.26.48-.13-.03-.16-.28-.04-.42ZM94.99,48.56c.13-.24.43-.29.51-.06.06.16.03.4.01.5-.06.3-.31.22-.43.1-.27-.26-.19-.37-.09-.54ZM96.21,22.95c.11.17.1.67-.13.76-1.11-.56-1.84-1.39-1.25-2.03.08.37.2.98.49.98.37,0,.73.06.89.3ZM96.52,19.58l.03.56c0,.16-.36.23-.4-.03-.03-.22-.04-.56,0-.73.1-.4.61-.12.38.19ZM96.98,15.27c-.14.01-.24-.08-.22-.22-.19.03-.27-.16-.21-.29.05-.1.17-.27.32-.3.11-.02.26.19.31.3.07.17.04.49-.2.51ZM97.42,45.5c.11.24-.29.49-.47.28-.1-.11-.44-1.26-.16-1.71l.64,1.42ZM97.71,53.47c.03.16-.17.34-.24.3-.12-.08-.1-.23-.08-.31.04-.13.29-.2.32,0ZM98.1,21.89c-.14-.09-.16-.55-.04-.79.18.08.29.23.36.33.09.13.1.58-.32.46ZM99.05,49.44c-.95-.39-1.2-2.74-1.22-2.63.13-.5,1.29,1.17,1.22,2.63ZM99.29,27.96c0,.13-.1.23-.23.23s-.23-.1-.23-.23.1-.23.23-.23.23.1.23.23ZM99.66,46.48c.42.03.29.88.05.82-.47-.11-.28-.84-.05-.82ZM100.15,37.97c-.06.02-.01.2-.23.2-.25,0-.26-.17-.26-.33,0-.18.12-.51.48-.51.26,0,.22.57,0,.63ZM100.47,48.88c-.11.19-.25.39-.5.31-.06-.42.22-.95.46-.99.38.19.13.52.04.68ZM101.04,25.46c-.1.08-.31,0-.31-.1v-.41c0-.09.22-.23.36-.06.12.15.1.45-.04.57ZM101.26,32.39c0,.11-.28.15-.37.07-.07-.07-.07-.27-.08-.37,0-.06.19-.18.26-.14.19.11.2.26.19.44ZM101.7,45.83c-.23-.15-.76-.41-.7-.96.03-.34.51-.14.58.09.11.34.37.52.12.87ZM101.83,49.57c-.13.3-.4.35-.58.26-.19-.09-.28-.33-.4-.63-.09-.23.09-.39.21-.41.14-.03.41.06.54.14.38.23.31.46.23.64ZM102.9,62.84c-.43.33-1.14-.42-.93-.74.34-.51,1.31.44.93.74ZM103.2,27.79c.19.36-.27.58-.39.22-.08-.23-.07-.62.19-.69.22.03.29.24.2.47ZM103.42,65.73c-.04.15-.24.41-.44.2-.09-.48.07-.93.21-.92.29.04.31.44.23.72ZM103.63,69.99c.37-.36.08.23.15.38.03.07.06.28.07.37.02.12.27.19.42.11.05,0,.13,0,.19,0,.05.01.21.06.25-.14.23.16.23.43.15.53-.03.3-.29.46-.51.45-.31-.02-.57-.23-.51-.63-.33.09-.38-.13-.45-.2-.08-.09-.28-.14-.26-.33.03-.26.24-.37.49-.55ZM104,44.05c.12.15.1.45-.04.57-.1.08-.31,0-.31-.1v-.41c0-.09.22-.23.36-.06ZM104.07,41.56c-.14.18-.42.12-.31-.12.06-.15-.08-.35,0-.39.06-.04.39.04.39.1.02.26-.02.34-.07.41ZM104.74,65.21c.13.35.88.32.9.6.03.4.12.82-.17,1.23-2.58-2.55-1.67-4.38-1.35-3.52l.62,1.69ZM104.74,62.08c.89,1.08,2.53,1.14,2.81,2.5-1.74-.29-3.59-1.48-2.81-2.5ZM105.2,61.67c-.15.06-.45.27-.59.2-.11-.05-.08-.45-.13-.68-.08-.38.23-.42.29-.36l.28.27c.23.23.32.5.16.57ZM107.37,62.88l-.97-.6c-.17-.11-.27-.3-.23-.45.02-.07.16-.06.23-.04l.39.15c.34.13.78-.05.98.3.12.21-.1.83-.4.64ZM107.5,67.17c-.29-.13-.79-1-.84-1.58l1.14,1.09c.23.22-.12.57-.3.49ZM108.71,64.81c-.12-.48-.19-.89.11-1.37.41.42.39,1.04-.11,1.37Z"/>
      <path class="cls-1" d="M77.5,15.9c.17.12.14.45.12.61-.23-.05-.51-.22-.66-.39.03-.27.38-.33.54-.22Z"/>
      <path class="cls-1" d="M82.72,23.69c.02.16-.17.35-.24.3-.13-.09-.1-.23-.08-.31.04-.13.29-.2.32,0Z"/>
      <path class="cls-1" d="M60.45,17.43c.12.11.29.15.3.33l.03.2.95,1.01c-.9-.37-1.67-.85-1.6-1.51.01-.13.19-.14.33-.03Z"/>
      <path class="cls-1" d="M81.56,19.31c-.23.13-.48.3-.77.32.06-.48.46-.55.77-.32Z"/>
      <path class="cls-1" d="M76.35,15.13c.11.08.25.3.16.51-.05.12-.22.35-.37.06,0-.02-.08-.05-.17,0-.32-.04-.29-.28-.15-.45.16-.18.33-.25.53-.12Z"/>
      <path class="cls-1" d="M91.06,124.86c.08,1.77.24,3.18-.03,4.81-.89-.53-1.02-3.89.03-4.81Z"/>
    </g>
  </g>
</svg>