<?xml version="1.0" encoding="UTF-8"?>
<svg id="Layer_2" data-name="Layer 2" xmlns="http://www.w3.org/2000/svg" viewBox="0 0 114.31 163.01">
  <defs>
    <style>
      .cls-1 {
        fill: #fff;
      }
    </style>
  </defs>
  <g id="Layer_1-2" data-name="Layer 1">
    <g>
      <path class="cls-1" d="M26.85,72.99c.19.09.31.28.26.47-.03.11-.3.05-.4.01-.14-.06-.23-.21-.14-.34.04-.06.15-.19.28-.14Z"/>
      <path class="cls-1" d="M27.87,72.91c.17.25.06.46-.06.59-.1.11-.37.15-.45-.05-.06-.14-.03-.32.04-.52.05-.12.28-.3.46-.03Z"/>
      <path class="cls-1" d="M28.47,66.71c-.16-.16-.31-.26-.4-.6-.09.06-.67.3-.8.02-.27-.62.13-1.52.91-1.6-.05.64-.17,1.05.02,1.31.29.4.5.61,1.07.93-.29.28-.57.18-.79-.05Z"/>
      <path class="cls-1" d="M24.83,84.11c.04.13.05.43-.1.49-.18.08-.25-.04-.33-.2l-.42-.83c-.12.01-.18-.05-.2-.13-.05-.15.04-.28.12-.3.23-.06.72.46.72.63v.21c.13-.03.18.05.21.12Z"/>
      <path class="cls-1" d="M23.27,91.04c-.05-.81-.05-1.07.36-1.64.55,1.09,1.23,1.8,1.76,2.74-.85-.38-1.07-1.25-2.13-1.1Z"/>
      <path class="cls-1" d="M25.4,110.93c-.76-.75-1.1-1.66-1.16-2.87,1.1.51,1.61,1.57,1.16,2.87Z"/>
      <path class="cls-1" d="M23.07,86.25c-.27-.07-.72-.63-.41-.8.29-.16.7.02.9.04,0-.13.06-.22.14-.26.11-.05.29.03.3.12.04.27-.65.98-.93.9Z"/>
      <path class="cls-1" d="M22.85,92.65c.19-.32.51-.05.64.04.21.14.39.31.29.67l-.55,2.04c.27.41.77.75.78,1.34-1.53-.69-1.97-2.73-1.16-4.08Z"/>
      <path class="cls-1" d="M40.04,67.84c.11-.17.38-.12.5-.09.13.04.37.25.22.4l-.23.22c-.1.1-.24-.08-.33-.16-.17-.12-.24-.25-.16-.37Z"/>
      <path class="cls-1" d="M41.29,70.8c.03.28-.22.92-.75.64-.28-.15-.28-1.16,0-1.29.39-.17.72.36.75.64Z"/>
      <path class="cls-1" d="M38.48,75.66c-.26.16-.57.36-.98-.18.26-.27.72-.73,1.05-.71.45.17.23.7-.07.89Z"/>
      <path class="cls-1" d="M30.57,66.72c-.45-.88-.9-1.44-1.18-2.35.7.66,1.16,1.36,1.18,2.35Z"/>
      <path class="cls-1" d="M29.52,66.87c-.08-.03-.31-.16-.1-.42-.27-.34.22-.56.3-.15.25.09.37.4.29.49-.11.12-.38.12-.5.07Z"/>
      <path class="cls-1" d="M30.4,62.83l-1.19-2.46c.72-.51,1.2,1.02,1.19,2.46Z"/>
      <path class="cls-1" d="M28.29,65.4c-.14-.4.52-.63.61.06.14.1-.27.4-.61-.06Z"/>
      <path class="cls-1" d="M56.7,7.95c0,.26-.36.32-.52.23-.11-.06-.3-.25-.29-.33.41-.25.81-.04.81.1Z"/>
      <path class="cls-1" d="M21.11,84.17c0,.31-.22.57-.37.64-.2.09-.58-.01-.61-.2l-.15-.82c-.07-.38-.26-.82-.47-.86l-.83-.12c.45-.98,2.46.32,2.43,1.36Z"/>
      <path class="cls-1" d="M19.87,66.06c.26.17.45.36.59.6-.57.11-.7-.31-.59-.6Z"/>
      <path class="cls-1" d="M46.91,79.71c.16.01.58.81.3,1-.15.1-1.02.04-1.35-.4-.21-.28-.01-.76.15-.68l.89.08Z"/>
      <path class="cls-1" d="M22.07,84.98c.36.22.35,1.89-.27,2.48-.28-.86-.53-1.48-.48-2.22.03-.43.55-.38.76-.25Z"/>
      <path class="cls-1" d="M110.98,53.36c.29-2.78-1.58-5.96-3.34-8.05l-1.73-1.22c-2.06-1.45-.65-2.53-1.3-2.79l-.57-.23c-.14-.05-.1-.42-.09-.63-.63-1.77-2.15-2.62-2.98-4.16-.27-1.57.64-2.99.19-3.84-.85-1.62-2.08-2.88-3.4-4.09l-.64-2.46c-.3-1.16-1.64-1.73-2.43-2.54-.24-1.17-1.29-1.81-1.31-3.31-.72.3-1.32.71-1.98.53l1.25-1.74c.14-.54-.7-.52-.94-.67-.98-.61-1.78-1.64-2.95-1.86-.66-.12-1.34.53-1.63.98,1.39,1.39,2.46.96,2.49.99.13.1.15.26.09.34-.04.05-.36.1-.39.18-.22.65-.77,1.59-.75,2.3.02.98,2.54.46,2.49,2.22-.02.57-.54,1.02-1.33,1.2,1.65,1.13,3.33.53,4.72,3.27.39.77.67,1.41-.02,2.32.7.58,1.46.76,2.09,1.23,1.11.83,1.25,2.56.48,3.73.57.34.74.7.89,1.03.2.44.22,1.22-.36,1.27-.69.06-1.54.18-2.1.34.17-.57.29-1.16-.14-1.67-.4.33-.68.58-.89.93-.14.24-.03.46.13.56.07.04.14.09.24.06.42.29.44.25.27.57-.19.36-.27.52-.55.49-.36-.04-.98-.86-1.14-1.48l.84-1.33c-.63.01-1.04-.07-1.44.06-.18.09-.36.14-.53.04-.13-.08-.18-.38-.1-.51.1-.15,1.18-.93,2.1-.57.25.1.85-.11.73-.29l-.97-1.55c-.18-.28-.3-.59-.39-1.13-.75.07-1.3.05-1.89.02-.31-.01-.46-.08-.65-.27-.17-.18-.33-.63,0-.8.19-.1.69-.07.71-.44.02-.73-1.39-1.04-2.56-2.49.43-1.46-.02-3.05-1.3-4.02-1.07-.81-1.63-2.02-1.18-3.38-1.04.05-1.77.84-2.11.75-.78-.23.9-.83,1.08-1.74-.67-.86-1.01-1.87-1.38-1.57-.07.05-.05.25-.35.31.35-.56-.65-.98-1.94-2.28-.26-.27-.06-1.23-.78-1.31-.35-.03-1.14.35-1.48.03-1.14-1.02-.84-2.05-2.82-3.79-1.24-1.08-2.45-1.99-3.94-2.79-1.79-.95-2.5-2.63-3.35-2.07-.41.27-.43.6-.57,1.09-.15.39-.94.76-1.41.76.58-.61,1.3-.96,1.38-1.61l-.15-.13c-.23.25-.6.24-.91.22.06-.43.25-.79.52-1.24-1.11-.11-1.99,0-2.72.45.42.31.71.01.91,0l.57,1.04c-.51-.18-1.21-.15-1.56-.58.29-.28,0-.41-.16-.36-.13.04-.58.24-.57.42,0,.63.73.87,1.21.94.19.23.35.88.98.75-.06.3-.25.25-.34.26.09,0-2.22-.66-2.6-1.91-.37.1-.82.04-.78-.28.03-.25.29-.54.54-.65-.14-.53-.95-.38-1.36-.48-.3-.12-.56-.81-1.25-.87l1.4-.83c-1.3.05-2.7.46-3.7,1.47-.49.5-1.08.76-1.86.42.53-.35.72-.55.99-.82.17-.17.5-.28.6-.63-.35-.22-.63-.34-.93-.34-.26,0-.52.19-.63.5-.1.3-.11.94-.43.97-.28.03-.45-.15-.51-.28-.08-.17.11-.75-.02-.87-.33-.3-1.25.37-1.17.78.09.46.05,1.08.15,1.39.78.84,1.9-.17,3.01.73.22.18.1.95.31,1.17.59.62,1.68.27,2.2-.15.26.14.08.45-.01.43s-.34-.12-.28.25c.44-.35.83.06.5.38-.38.15-.75.7-.52.93.18.18.43.2.55.24.21.08.33.32.27.68l1.34-.74c1.14,1.61,3.04,1.6,2.64,3.34-.12.53-.71.84-1.49.91v1.7c.02.26-.09.37-.26.47-.63.35-1.52-.75-1.33-2.31-.56.18-.9.43-1.42.21-.12-.05.05-.44.33-.56l-1.05-.25-1.18-.96c.19-.52.59-1.07,1.22-1.31-.46-.32-.85-.57-1.31-.66-.44-.08-.87.42-.93.76-.17.92.86,1.46.86,1.44l.08.45c.16.18.31.41.21.55-.1.15-.64.24-.82.16l-1.52-.64-.13-1.57c-.74.43-.92.97-1.32,1.76-.17.27-.93.24-1.01.83l1.6-.4c.66.47.72,1.35.31,2.04-.89-.2-.84-1.54-1.37-1.3-.12.05-.24.26-.16.44l.85,2c.15.35-.23.78-.52,1.08.82.18,1.27.38,1.37,1.08-.73-.02-1.35-.14-2.07-.44.47-.42.52-.96.54-1.53.02-.47-1.73-.7-1.24-2.58.31-.03.38-.32.21-.45-.07-.05-.23,0-.31.09l-.29.36c-1.15-.78-1.85-2.1-1.54-3.53.96.25.72,1.89,1.55,2.24.39.16,1.1.17,1.32-.15l.84-1.26c-.44-.18-.39-.39-.26-.57.25-.33.33-.19.64-.18.7.01,1.17-.86.98-1.36-.41.24-.53.19-.68-.22-.33.42-1,1.16-1.51.86-.33-.2-.09-.86.21-1.15-.41-.18-1.12-.22-1.45-.58.02-.22.07-.58-.04-.79,0-.09.13-.26.21-.32.07-.05.24.07.41.06.59-.04,1.03-.69.92-1.23-1.09.19-1.89.58-2.66,1.01-.81,0,.29.8-.66,1.53-.23.18-.79-.01-1.18-.29-.22-.28-.07-.98-.04-1.37-.58.04-.87-.13-1.02-.38l-1.12.06c.18-.73.59-1.15.36-1.9-.12-.41.52-.87.8-1.31-.45-.1-.97.31-1.39-.12,1.01-.42,2.39-.46,2.66-1.59l.33-1.42c-1,.47-1.94.79-2.44,1.65-.47.83-1.44,1.01-2.36.91-1.01-.11-2.23.57-2.36,1.51-.25,1.79-1.06,2.8-.44,3.05.24.17-.17.83-.39,1.02-.41-.68,0-1.23-.07-1.92-2.1.48-1.65,2.62-2.18,2.95-.12.08-.34.05-.42-.2-.03-.11-.01-.21.18-.4.34-.31-.35-1.04-.54-.81-.15.31-.13.56-.57.67-.18.05-.33-.08-.52-.34-.22.43-.12.63.42.72-1.02,1.03.29,1.95-.4,2.66-.17.17-.39.41-.55.29-1.1-.79.41-1.67-1.15-1.98.09-.83.49-1.45,1.13-2.13-.6-.23-1,.11-1.34.5-.2-.2-.08-.35-.09-.45-.26.15-.41.45-.72.37-.83,1.2-.39,2.49-1.43,3.05l.03-1.57c0-.38-1.4-.52-1.47-.13l-.5,2.78c-.7,1.1-2.61.85-3.71,2.54l.02.49c0,.13-.41.34-.49.19-.33-.65-.05-1.32.12-1.83-.51-.16-.79-.35-1.05-.2-.22.12-.14.52-.34.81l-1.27,1.84c.21-.04.54-.08.66.07.09.1.17.3.24.52.03.1.25.2.43.04.07-.06.22.06.05.23l-.24.23c-.16.16-.95-1.05-1.38-.77-.93.61.38,1.64-.25,2.4-.23-.2-.45-.46-.53-.65l-.38-.97c-.13-.34-.64-.14-1.04-.09-.13-.16-.34-.28-.56-.14-.13.09-.36.12-.39.38-.12.05-.4.2-.39.51-.43,1.05-.22-.5-.72-.65-.95-.27-1.54,2.69-.96,3.61.24.38.33.46.07.82-.14.19-.76.53-.82.06l-.4-3.37-1.52,1.52c.08.3.29.79.18,1.12-.15.46-2.22,1.05-2.28,2.61l-.08,2.34.38,3.33c.45-.19.77-.23.94.03.06.09-.1.24-.15.29-.13.13.03.36.2.39-.34.12-.3.23-.27.42.02.13.06.41.32.33.12-.04.25-.21.46-.45.31,1.31-.88,2.48.81,3.05-.31.34-.35.53-.27.8.07.23.3.47.48.62.03.21-.2.67-.54.81l-1.34-2.52c-.33.44-.54.59-.9.47l1.03-1.68c-.71-.45-.77-1.28-1.03-1.95-.61-1.57-1.05-2.88-.95-4.67-.52.21-.78.09-.69-.27.74.22.92-.83.59-1.24-.48.27-.99.78-1.25,1.25-.72,1.3.2,3.03,1.02,4.25l.23.35c.04.05-.06.18-.16.23-.26.14-.04-.25-.57-.58-.11-.07-.35.24-.51.26-.61.07-1.12-.33-1.53-.95-.49.65-.85,1.24-1.47,1.74l1.19,2.37c.08.55-.75,1.26-1.3,1.64-.02,1.16,1,2.37.43,2.92l-.36.35c-.12.12,0,.3.11.36.38.23.85-.37,1.3-.23.5.15.59,1.27.29,2.21-.33-.46-.1-1.01-.2-1.29-.22-.21-.31-.53-.45-.59-.2-.09-.42.18-.53.28-.23.22.03.43,0,.77l-.13,1.51.53.69c.2.25.56-.04.78-.08.39.68.77,1.41.7,2.34-.68-.27-1.08-.9-1.98-.65.69.49,1.06.96.77,1.88.47-.1.96-.23,1.27.06.61.59,1.34,1.15,1.07,2.05-.55-.68-.82-1.47-1.59-1.72-.38-.12-.84.38-.96.74.56.26,1.05.63,1.15,1.22.03.21-.39.43-.51.46-1.46-1.29-.79-2.55-1.4-3.76l-.16,1.22c-.34,1-.03,1.9.48,2.7.15.21-.02.77-.37.66-.58-.18-.55-.92-.91-1.4-.14.95.28,1.79.65,2.58-.28.31-.48.56-.49.8,1.74,1.1.93,3.24,2.44,2.25l-.75,1.27c.74.18,1.44.23,2.26.22-.21,1.57,1.42,1.9,1.35,2.49-.01.12-.31.46-.4.38l-1.24-1.14-.24.04c.2.57.15,1.01-.46,1.52l1.65,1.45c-.63.41-1.14,0-1.61-.25l-.23-1.12c-.6.47-.45,1.43-1.18,1.19-.26-.37-.7-.61-.82-1.3-.49.45-.37.71-.47,1.28-.37-.2-.35-.51-.48-.94-.63.43-.92,1.51-.62,2.19l.79.56c.17.12-.07.61-.07.81,0,.96.74,1.43,1.12,2.18.16.32.12.64.6.57.17-.02.6-.2.48-.54l-.49-1.45c.68.23,1.3.4,1.77.8-.03.34-.25.86.15,1.12l.91.62c-.15-.48-.18-.87.13-1.24l.69.91c-.02-.5-.33-.75-.05-1.22.23.24.38.29.59.23.34.09.57.82.42,1.25-.27.04-.44.03-.73-.02.02.47.31.5.54.59.29.12.74.13.77-.21.06-.65-.16-1.16.15-1.83.47.94,1.04,2,1.15,2.05.2.08.36-.05.52-.02l.52.09c.12.02.09-.41.52-.31.16.04.39.26.51.19.14-.07.2-.33.11-.6l-.41-1.27c-.05-.08.04-.48.15-.43.68.28.81.9,1.22,1.32-.02-.47-.1-.88.27-1.13.49.9,1.1,1.97,1.92,2.54.19.13.81-.24.96.32.1.39.16.95.58,1.36.21-.47.11-.91-.11-1.45,1.01.52.92,1.53.72,2.48.54.28,1.07.7,1.25,1.27-.01-.74.01-1.5.52-1.88v3.69c-.53-.1-.4.55.11.22.13.18.76,1.05,1.17.65.44-.44.37-1.93-.06-2.46-.14-.17-.64-.12-.45-.58.05-.12.25-.27.46-.36,0-.65-.55-1.42-1.22-1.37l-.76-1,.31-3.21.59.41c.44.31.8-.75,1.17-.61.1.04.19.38.3.37.45-.03.64-.41.48-.68l-.41-.71c-.16-.27-.05-.62-.24-.74-.23-.14-.5-.18-.67-.04-.5.43.57,2.16-.7,1.59-.49-.22-.35-1.28-.8-1.07-.32.15.09.64,0,.87-.09.22-.29.2-.39.13-.06-.04-.25-.11-.29-.19-.51-.95-1.8-.95-2.53-2.55.3-.49.64-.61,1.09-.48.27.08.68.19.8.55.22-.07.37-.05.6.05.08-.75.98.01,1.26-.37.09-.13.07-.42-.19-.56l-.91-.49c.57-.4.99-.57,1.31-1.05-.83-.32.54-.62-.26-2.34-.15-.39.26-.51.37-.21l.38,2.23c.56-.17.81.08,1.17.28.09.33.04.81-.32.83-.27.01-.55-.11-.83-.49-.21.36-.18.58-.3,1.2.56-.31.9.52,1.18.45l1.36-.32c.64-.15-.69-.8-.67-1.09l.87-.74c.18-.16.15-.39.07-.5-.07-.1-.45-.15-.48-.26-.09-.36.71-.76,1.04-.68.43.11.69.62.76,1.16.04.37-.22.62-.5.58-.17-.02-.34-.3-.41-.62-.48.44-.25,1,.2,1.37l1.91,1.58c.2.17.23.19.38.02.08-.09.12-.27.07-.32-.06-.07-.22-.14-.33-.19-.46-.2-.55-1.12-.12-1.14.79-.05.81.96.99,1.33.22.45.94.69.97,1.45-.65.11-1.38-.2-1.81-.71-.31.25-.43.44-.58.85-1.16-1.03-1.64-2.41-2.04-1.55-.05.1.22.32.27.44l1.26,3.18c-.3.33-.63.72-.42,1.18l.98,2.14c.15.33-.28.84-.52.99-.29.19-.71.39-.93-.16.26-.41-.36-.57-.26-.06.16.36-.09.81-.24.72l-.51-.3c-.19-.11-.54.6-.44.74l.38.55c0,.44.31.53.58.62.3.1,1.53-.25,1.31-.56.33-.21.6-.52,1.02-.65.55.46.97,1.01,1.32,1.58.43.7,1.08.88,1.64,1.17.88.45,1.68.88,2.96.34-1.45-1.4-1.96-3.25-2.92-4.37-.84-.98-1.72-1.01-1.4-1.64.57-1.14,4.28,4.29,3.77,3.95.08.05.29-.04.32-.11l.21-.51c.12.15.46.18.44.05-.01-.15-.06-.56-.13-.63l-3.03-3.34c1.57-.67,3.46-.68,3.18.42-.18.04-.49.08-.6.33-.04.11-.11.27.09.47l.84.85.27-1.13c1.45.4,2.46,1.35,3.45,2.38.18.19.65-.2.53-.33-.06-.07-.14-.18-.21-.35-.46-.97-1.57-1.4-2.25-2.13-.82-.88-1.91-.43-1.86-2.88.49.22.61.69.75,1.02,1.03,2.33,3.46.28,3.7,2.98,1.19-.7-.92-1.39-.99-2.7l2.9,1.52c-.2-1.27-1.22-1.69-1.77-2.77,1.15.57,2.05.86,3.21,1.11.48.11.97.66,1.55.43-.76-1.17-1.51-.87-1.61-2.05-.02-.18.33-.54.45-.38,1.29,1.64,2.69,2.65,4.69,2.85-.8.34-1.44.13-1.93.74.3.27.58.22.9.35.03.44.14,1.35.58,1.46l3.02.78c1.89.49,3.96,1.01,5.86.62-.01-.25.03-.61.15-.63.07-.02.27-.03.3.04l.13.37c.08.23.22.45.4.56.16.1.38-.13.46-.31l2.15.06c.28,0,.65-.47.89-.38.18.07.6.27.7.44.53.88,1.33.83,2.06,1.05l2.73,1.9c.22.15.62.08.66.27l.16.74c1.53,2.19,3.63,3.81,6.09,4.72.21.08.33-.51,0-.47,0,0-1.99-.77-1.99-1.99.41.09,1.01.03,1.17-.52-1.13.14-2.16-.11-2.55-1.05,1.16-.39,2.24-.69,3.04-1.54l-1.62-3.96c-.28-1.37-.54-2.71-1.73-3.58-.29.18-.55-.04-.47-.3.32.15.69.08.81-.1-.24-.79-1.16-1.01-1.77-1.49-.55-.44-1.01-1.33-1.89-.8l-2.32-3.28-3-3.12c-.3-.31.04-1.07.41-1.18.22-.07.3.31.18.32-.13.01-.22.41-.14.42.77.14,1.39.32,1.87.88l3.29,3.78c1.07,1.23,3.23,4.4,4.05,2.84.43-.81-.26-2.04-.99-2.7.28-.26.64-.22,1.01-.26.69.9,1.36,1.78,2.45,2.14-.21-.71-.96-.79-.99-1.33.28-1.42-2.24-2.89-2.74-4.76l3.41,2.46c.24-.05.55-.09.89-.27.02-1.19-.97-2.12-.3-2.45.69-.34,1.6.19,2.76-.22l-1.57-1.81c-.38-.44-.94-1.35-.45-1.87.23-.25,2.03-.17,2.7,1.48.18.45,1.23,1,1.66.81.48-.73-.65-1.27-.94-1.68l-1.29-1.83c-.22-.31-.06-.61.17-.75.61-.36.82.46,1.67.75l.74-1.03c-.67-.6-.89-1.26-.95-2.09,1.41,0,2.98.26,2.99-.47,0-.27-.55-.79-.21-1.21,1.24.77,2.28,2.15,3.15,3.18.23.28.78.93,1.13.81.7-.22.23-.98.11-1.32-.81-2.32-2.87-3.73-2.04-4.36.35-.27.78-.25,1.08.11l.9,1.13c.52,1.21,1.19,2.01,2.1,2.95.46.47.68,1.23,1.48,1.33-.29.37-.24.68-.17.83.07.14.44.09.7.23.5.26.56,1.58.1,1.73-.72.02-.88-1.12-1.26-1.49-.36-.35-1.63.43-1.65.9.21.68.97,1.36.58,2.23l-2.12-2.06-2.46-3.09-1.29-1.04c-.32-.26-.75.31-.8.56-.05.23-.04.67.23.88.7.54,1.11,1.23,1.69,1.82.16.17.46.27.54.41.17.32-.61.8.01,2.15-.37.15-.7.04-.97-.11-.32-.17-.34-.43-.41-.88-.05-.3-.67-.2-.83-.01-.26.31,0,1.97.87,2.65-.7.28-1.06.34-1.48.93l1.41.41c-.16.34-.36.62-.25.88.07.18.48.3.63.5,1.43,1.92,3.26,2.35,4.58,3.63.48.47,1.05.88,1.93.57-.14-.39-.49-.5-.65-.68l-2.35-2.53c.94-.25,1.56.34,2.27.59l2.49.91c.23.74.5,1.44.98,2l.53,1.57c1.02.19,1.7.74,2.49,1.28l1.56,1.07c-1.94.21-3.59-.48-5.09-1.73-.14-.12-.45-.28-.52-.42-.06-.12.16-.39.15-.61-.01-.61-.53-.62-.95-.64-.51-.02-.51.47-.81.78-.51.52-1.35.46-1.62,1.31.58-.39,1.26.29,1.65.24,2.14-.28,1.82.71,3.34,2.26,0,.47.01.79-.2,1.29,1.11-.16,2.15.92,2.24.66-.17.52-1.11.53-1.16.88-.04.34.06.78.24,1.14.17.34-.37.86-.8.89l-.33,1.54c.42.07.54.27.83.45-.25-.44-.03-1.15.38-1.16.28.24.8,1.01,1.36.8.14-.21.46-1.28.98-1,.77.49,1.56,1.1,2.66.84l.77-2.22c-.98-.53-1.98.36-2.09-.09-.2-.83-1.01-.96-1.51-1.9.76-.21,1.38.19,1.86.91.63-.62.35-2.4.81-1.91l.27.29c.14.15.57.24.78.04.13-.21.43-.3.63-.44l1.78-.98-1.61-.47c-.82-.48-1.68-.92-2.25-1.93l4.84,1.44c.4.12.85.09,1.25-.04l-2.11-1.35c-1.24-.79-2.4-1.54-3.34-2.74-.17-.11-.69-.09-.83-.5.32-.19.83-.17,1.19.18,1.22,1.21,2.86,2.15,4.65,1.82l-.9-1.51,2.28-.15c.14-.61.33-1.05.32-1.69-1.72-.01-2.05-1.53-3.55-1.62-.59-.04-1.51-.73-2.14-.27-.63.46-1.21.75-2.06.55l.88-.95c-.4-1.79-1.5-2.85-.12-4.04,2.28-1.95,1.73-2.87,1.85-2.98.47-.43,1.52,1.01,2.45.22-.46-1.39-1.38-2.37-1.97-3.59.17-.4.85-.43,1.16-.1l4.1,4.23c.5.51.76,1.22,1.58,1.47ZM104.88,61c.12-.26,1.03-.2,1.1.07.09.32-.38.63-.58.54-.16-.08-.7-.22-.52-.6ZM102.38,59.94c.1-.47.43-.55.76-.5.19.03.48.18.53.47.03.19-.86,1.1-1.19.84-.25-.2-.14-.61-.1-.81ZM71.57,65.64c.09-.12.33-.38.49-.02.11.24-.32.55-.48.45-.2-.13-.11-.29-.02-.43ZM70.24,64.73c.39-.12.45-.28.51-.33.07-.07.4,0,.31.27-.08.24-.67.24-.82.06ZM68.28,66.8c-.03-.2.21-.37.38-.31l.38.13c.21.07.25.45.16.56-.15.19-.88-.06-.92-.38ZM66.69,63.57c.8.6,1.37,1.52,1.56,2.48.04.23-.63.37-.87.09-.45-.2-.56-.53-.48-1.14l-.3-.85c.04-.14-.21-.47.09-.59ZM65.31,59.78c.23-1.17.81,1.27,2.43,1.23l2.33,2.34c-.59,1.16-2.27-.75-3.41-1.84l-1.16-1.1c-.26-.24-.23-.42-.19-.63ZM32.81,62.32l-.07.52c0,.13-.29.07-.38-.08.03-.36-.34-.65-.04-1.14.23.12.38.41.49.7ZM11.51,60.03l-.22.42c-.07.02-.22.02-.31,0-.07-.02-.11-.1-.12-.21v-.42c0-.19.17-.26.26-.06.11.18.24.28.39.27ZM12.65,60.45c-.07.06-.26.02-.31-.09-.03-.08-.03-.19,0-.32v-.22c.09,0,.23-.2.32-.18.13.03.18.64,0,.81ZM13.65,62.72c-.25-.5.15-.78.28-.78.24.32-.02.72-.28.78ZM11.25,50.62c-.18.22-.5.31-.63.14-.23-.3-.22-.59-.14-.83.08-.23.61-.21.6.11.06,0,.15.08.23.14.31.22.03.31-.07.43ZM11.96,52.56c-.42.33-.66-.07-.3-.28l.15-1.66c.52.53.41,1.51.16,1.94ZM12.75,48.7c-.21.26-.32.28-.44.2-.32-.23-.18-.42-.09-.53.13-.17.29-.26.47-.15.36.22.18.35.06.49ZM15.64,58.61c-.05-.28.3-.28.25,0,.13.42-.37.42-.25,0ZM15.45,60.98c.06.2.02.61-.08.7-.07.06-.27-.2-.33-.18v-.42c.13-.14.38-.23.41-.1ZM13.28,35.9l.52,2.67c.03.13.02.26-.01.34-.05.12-.25.16-.33.1-.07-.05.02-.29-.02-.44l-.92-3.53c.4.19.65.61.76.86ZM13.87,30.62c-.14.25-.46.37-.71.16-.17-.15-.16-.52-.07-.7.12-.25.36-.33.63-.17.31.19.28.49.15.71ZM15.16,32.16c-.11.4-.33.27-.48.42l-.06-.86c-.3-.11-.45.15-.64.2-.27.08-.48.01-.72-.21-.16-.15-.54-.4-.1-.68l.83.05c.42.03.89.26,1.06.64.11.25.16.24.1.44ZM15.61,38.95c-.49-.04-.65-.47-.93-.58-.44-.84-.8-1.77-.74-2.73.15-.08.31-.27.57-.17.19.08.26.34.34.61l.77,2.87ZM15.69,42.45c-.09.21-.2.6-.69.43.35-.2.4-.91.06-1-.44-.11-.47-.54-.59-.61-.36-.05-.55-.14-.6-.34-.06-.23.08-.43.25-.47.28-.07.41.16.54.35l.63.97c.12.19.57.25.4.67ZM15.99,46.6c.03.17-.17.34-.24.3-.09-.06-.1-.23-.08-.3.04-.13.29-.19.32,0ZM16.38,59.16c.1-.03.25.06.39.18.17.15.25.35.16.57-.03.07-.13.13-.23.04l-.35-.31c-.22-.19-.07-.44.04-.47ZM16.57,49.1c-.06-.01-.13.08-.17-.05-.03-.11-.02-.32.05-.38.05-.04.27,0,.32.07.16.23-.06.4-.2.37ZM17.35,45.04c0,.13-.1.23-.23.23s-.23-.1-.23-.23c0-.13.1-.23.23-.23s.23.1.23.23ZM17.77,38.14c0,.11-.09.2-.21.2s-.21-.09-.21-.2c0-.11.09-.21.21-.21s.21.09.21.21ZM59.51,6.53c-.07-.04-.09-.13-.03-.22.04-.06.18-.29.31-.05.11.2-.12.36-.28.27ZM64.48,7.78l-.55-.1c-.28-.05-.35-.17-.4-.26-.08-.13,0-.33.14-.36.38-.08.62.1.84.44.08.12.04.29-.03.28ZM66.31,33.1c.02-.1.11-.35.38-.21.17.09.14.37.09.48-.06.12-.21.17-.32.12-.19-.1-.19-.26-.16-.39ZM64.7,39.66c.22-.11.83.64.9,1.11.02.16-.08.47-.28.44-.58-.66-.93-1.4-.61-1.56ZM64.75,59.11c-.44.18-.62-.41-.68-.72-.05-.28.05-.82.57-.8.58.02.66,1.29.1,1.52ZM63.09,62.77l-1.35-3.48c.11-.11.21-.32.15-.39l-.24-.29c-.19-.23.08-.38.17-.42.11-.04.3-.01.33.08.03.1-.06.4-.14.6,1.89.31.64,3.03,2.87,4.12-.19.35-.62.59-.94.51-.27-.06-.7-.37-.84-.74ZM60.94,42.31c-.22-.47.8-.98.94-.65.25.56-.76,1.05-.94.65ZM61.79,46.35c.04.23-.16.31-.21.35-.06.05-.26.06-.29-.1-.02-.12.46-.47.49-.25ZM61.67,62.73c.65.59.94,1.43,1.09,2.37-1.57-.75-1.55-2.8-1.09-2.37ZM60.85,62.03c-.16-.12-.32-.3-.11-.54.09-.11.25-.33.55-.11.26.2.27.61.08.73-.12.08-.38.03-.52-.08ZM59.82,44.82v.17c0,.2-.2.41-.34.45-.18.06-.46-.18-.5-.33-.04-.17.17-.43.32-.49.2-.08.52-.06.52.19ZM59.09,41.51c-.08-.02-.22.06-.32-.12-.09-.16.03-.29.12-.31.11-.03.4-.03.47.06.16.2-.1.42-.27.37ZM59.32,55.65c.31-.17,1.7.86,1.42,1.68-1.12-.52-1.79-1.47-1.42-1.68ZM60.63,59.45c-.02.45-.23.92-.79.95.06-.45.32-.8.79-.95ZM59.48,30.08c.07-.07.42-.21.48-.12.27.42-.14.61-.34.44-.08-.07-.24-.21-.13-.32ZM60.68,39.53c.39.38-.44,1.05-.65.76-.24-.34.45-.95.65-.76ZM59.16,65.43l1.48-.24c.13.07.24.17.24.36,0,.23-.09.48-.41.58-.54.16-1.2-.22-1.31-.71ZM59.3,63.8c.35-.15.74-.07.72.39v.21s-.02.25-.02.25c-.33-.1-.71-.04-1.02-.04-.07-.31.03-.69.32-.81ZM57.73,57.31c-.13-.14.34-.45.58-.3l1.21,1.22c.2.2.11.47-.03.56-.12.08-.34.09-.47-.05l-1.3-1.43ZM58.55,43.69c-.11.19-.28.35-.5.3-.14-.03-.36-.27-.22-.39.18-.17.25-.24.5-.24.22,0,.31.19.23.33ZM52.56,64.27c.62-.71,1.93,1.13,3.57,1.72-.99.41-1.85.31-2.79.08-.57-.14-1.24-1.28-.78-1.8ZM52.86,46.52c-.08.24-.41.49-.59.15-.19-.37.08-.84.24-.82.32.05.44.45.36.67ZM49.37,22.55c0-.13.1-.23.23-.23s.23.1.23.23c0,.13-.1.23-.23.23s-.23-.1-.23-.23ZM48.98,48.27c.04-.1.28-.25.43.03.04.32-.25.33-.33.28-.11-.07-.15-.19-.1-.32ZM49.05,36.1l-.18.2c-.06.07-.31.01-.3-.2-.29-.05-.15-.2-.08-.27.13-.13.33-.17.44-.18.21-.03.37.18.13.45ZM48.37,43.53s.12.01.35-.03c.19-.04.31.2.17.3-.14.1-.23.08-.37.1-.26.05-.22-.32-.15-.38ZM47.73,46.09c.05-.35.45-.23.54-.01.09.22.11.4.17.66l-.3-.03-.41-.62ZM48.05,41.39c-.26.03-.37-.39-.27-.57.05-.1.07-.31.32-.25.29.06.29.78-.05.82ZM47.48,15.64l.56.04c.28-.01.01.17-.21.61-.21-.05-.43-.05-.51-.13-.09-.09-.06-.41.16-.51ZM45.54,9.01c-.23-.01-.29-.06-.24-.27.04-.17.04-.17.09-.34.12-.04.28,0,.35.01.03.16.1.24.11.35,0,.22-.12.27-.3.26ZM45.12,52.51c.01-.06.19-.18.27-.14.19.1.18.24.15.42-.02.11-.27.16-.36.09-.08-.06-.07-.28-.06-.37ZM44.37,20.05s.05-.15.03-.21v-.41c.15,0,.26-.25.34-.19.09.07.12.44.06.64l.24.29c.1.11-.15.47-.48.25-.33.23-.58-.28-.18-.38ZM43.55,41.49c.42.03.29.88.05.82-.47-.11-.28-.84-.05-.82ZM43.31,18.19c-.65-.07-.7-.74-.43-1.09.18-.23.45-.79.95-.29-.44.27-.8.87-.43,1.07.13.07.46.1.38.36-.03.1-.1.22-.31.33-.09.05-.42.05-.16-.39ZM42.49,54.34c-.15-.14-.2-.25-.12-.43.08-.18.4-.3.54.04.19.45-.2.6-.42.38ZM42.23,63.37c.11-.03.4-.03.46.05.18.24-.1.43-.25.39-.09-.02-.22.06-.33-.13-.09-.16.03-.29.12-.31ZM41.9,58.04v-.41c0-.09.27-.2.36-.06.14.22,0,.35-.14.49-.12.12-.22.05-.22-.03ZM42.02,53.18c-.09-.03-.22.06-.32-.12-.09-.16.03-.29.12-.31.11-.03.4-.03.46.04.18.24-.08.44-.25.39ZM41.83,59.64c.2.26.09.8-.14.83-.46-.3-.14-.79.14-.83ZM41.12,38.88c.34-.3.86.16,1.07.54.37.18,0,.65-.27.31,0-.1-.07-.15-.2-.12-.25.05-.79-.56-.6-.73ZM41.99,19.28c.05.47.1.92-.26,1.26-.37-.3-.63-.69-.61-1.18.02-.37.32-.38.47-.37.16,0,.38.04.4.29ZM41.75,18.62c-.23.13-.49.24-.62.15-.21-.15-.41-.38-.36-.54.1-.3.4-.48.77-.21.29.21.36.51.21.6ZM42.23,23.58s-.13.06-.06.21l-.23.02c-.07-.16-.09-.27.05-.42.15-.16.38.06.24.19ZM40.45,41.22c-.01-.22.63-.03.67.35.02.2.21.43-.13.75-.19-.25-.49-.35-.54-1.1ZM38.25,61.02c.11-.08.42.15.56.2.48.16.61.39.48.71-.12.3-.37.48-.62.42-.31-.08-.44-.24-.54-.66-.06-.25-.1-.52.11-.67ZM33.71,67.22c.19.43.3.83.48.86l.83.13c.72.58,1.68,1.16,1.75,2.22.02.27-.21.42-.35.41-.1,0-.22-.07-.37-.14-.78-.49-1.37-1.36-1.7-2.26-.34-.08-.64-.22-.79-.59-.07-.18-.31-.51.15-.62ZM35.47,62.08c-1.84,2.45-3.16,1.81-2.16,1.24l2.16-1.24ZM32.11,55.67c0-.14.13-.26.23-.34.24-.18.43-.01.42.24,0,.23.04.49-.23.51-.17.01-.41-.25-.42-.42ZM31.99,49.11l-.52-.49c-.31-.29-.49-.92-.21-1.37,0-.15-.34-.27-.71-.16,0-.42.58-.34.63-.22.54.14.64.56.28.95l.84.99c.07.04.11.25.05.3-.07.06-.24.11-.36,0ZM31.75,36.57c-.3-.12-.46-.15-.57-.28-.09-.11-.13-.22-.12-.4v-.45c.38-.79.51.21,1.04,1.4.03.07-.26.28-.32.24l-.21-.15c-.16-.12.1-.33.17-.36ZM31.99,32.12c.04-.05.18-.28.31-.05.11.2-.12.36-.28.27-.06-.04-.11-.12-.03-.22ZM30.27,46.09c.21-.16.29-.44.73-.46.22.55-.39,1.07-.7.92-.39-.64-.73-1.58-.31-2.28.48.57.3,1.15.28,1.82ZM29.8,34.92c-.08.06-.33.12-.31,0,.02-.25.09-.3.13-.39.04-.09.28-.18.35-.05.11.19-.07.39-.16.45ZM29.79,51.81c.86.47,1.85,2.18,1.7,2.7-.19.68-1.36-.99-1.7-2.7ZM29.3,48.6c.22,0,.52.09.5.43,0,.19-.63.37-.9.1-.27-.27.12-.53.4-.54ZM27.84,53.08c.36-.17.41.1.5.24.08.13.19.52,0,.58-.33.11-.56-.17-.69-.33-.08-.11.07-.44.2-.49ZM26.19,44.7c-.22-.27-.41-.65-.29-.97.07-.19.24-.44.6-.59-.08.75.21,1.16.6,1.7l.39.54c.15.21-.02.64-.27.63l-1.03-1.31ZM25.85,50.88c.78.44,1.27,1.21,1.22,2.09-.64-.67-.94-1.33-1.22-2.09ZM24.43,45.23c-.35-.45-.68-1.11.04-1.58.32,1.9,2.23,2,1.24,3.19l-1.28-1.61ZM24.44,41.91c.12-.04.19-.19.37-.32.26.4.44.54.56,1.08-.42,0-.8-.27-.96-.5.04-.1.03-.18.02-.25ZM24.2,57.89c.03-.15.33-.36.48-.36.17,0,.46.27.19.44-.06.08-.11.16-.24.2-.25.08-.46-.1-.42-.28ZM24.03,51.44c.37.33.58.63.75,1.24-.57-.08-.98-.53-.75-1.24ZM24.1,53.59c.15-.1.49.16.51.35l.02.22c.02.31-.21.27-.33.28-.27.02-.33-.19-.31-.32.01-.12-.1-.38.12-.52ZM22.51,47.13c-.22-.28-.38-.6-.03-.85l1.92,2.32c.27.32.58.58.12,1.06l-2.01-2.53ZM20.61,37.49c.31.86.11,1.68.76,2.34.21.22.76.59.28.91-1.38-.7-1.57-2.1-1.03-3.25ZM20.66,42.23c.04-.1.28-.25.43.03.04.32-.25.33-.33.28-.11-.07-.15-.19-.1-.32ZM21.49,51.73c-.13,0-.23-.1-.23-.23s.1-.23.23-.23.23.1.23.23-.1.23-.23.23ZM21.7,52.86c.05-.04.21,0,.26.06.21.24,0,.38-.16.38-.07,0-.17.07-.22-.05-.04-.09.02-.32.12-.39ZM21.26,48.58c0-.13.1-.23.23-.23s.23.1.23.23-.1.23-.23.23-.23-.1-.23-.23ZM21.17,37.48c.29-.17.58.08.7.24.13.17.23.71-.33.7-.39,0-.59-.81-.37-.94ZM22.19,21.69c.21.54.37,1.1.06,1.78-.29-.5-.53-1.2-.06-1.78ZM22.03,40.97c.24-.03,1.04.43.94.8-.03.11-.17.25-.37.25-.43,0-.79-.2-.82-.6-.02-.26.14-.43.26-.45ZM23.24,42.51c.15-.04.26-.29.55-.17v.21c-.27.05-.55.44-.74.64-.29-.38-.05-.62.19-.68ZM23.4,59.17c0-.11.09-.2.21-.2s.2.09.2.2c0,.11-.09.21-.2.21s-.21-.09-.21-.21ZM23.15,63.99c.1-.03.32,0,.44,0,.04.17.02.34-.12.42-.12.07-.27,0-.31-.11-.02-.08-.01-.21-.02-.32ZM22.65,57.04c-.03-.18.35-.7.54-.7.29,0,.28.48.05.71-.13.13-.5.36-.59-.01ZM22.52,58.88l-.86-1.63s.05-.04.16-.05c.22.44.84.74.92,1.42.35.33-.07.59-.22.26ZM19.39,59.68c-.67-.14-1.06-1.31-.64-1.76.33.04.85.38,1.1.16.49-.43.4-1.02.72-1.13-.07.02,2.48,2.27,1.46,2.38-.07,0-.25-.01-.35-.14l-1.08-1.32-1.21,1.81ZM19.02,41.36c.31.58.23,1.04.1,1.6-.5-.42-.5-1.1-.1-1.6ZM19.1,45.92c.39.07.42.72.21.73-.38-.06-.42-.72-.21-.73ZM19.11,35.63c.48.17,1.09.72,1.15,1.19.07.64-.16,1.22-.53,1.58-.46-.45.36-1.02.25-1.29-.23-.52-1.11-.71-.87-1.48ZM19.25,63.96c.03.22.17.47.05.73-.48-.04-.68-.2-.98-.27-.02-.24-.03-.5-.13-.79.5,0,.73.2,1.07.33ZM19.49,31.24c-.5-.6-.98-1.31-1.16-1.99l-.67-2.55c-.36-1.35-.34-2.65-.73-4.13,1.32.46,1.23,1.69,1.43,2.66l.43,2.12c.26,1.28,1.33,2.51.7,3.88ZM20.04,24.22l-.41-1.57c.3-.16.96.17,1.08.47.15.39-.07,1.11-.67,1.1ZM20.55,25.09c-.4.02-.77-.2-.36-.63.14-.15.75-.06.85.01.16.47-.05.59-.49.62ZM21.5,28.32c-.73-.65-.7-1.52-.96-2.3-.08-.26.49-.68.62-.44.42.75.56,1.73.33,2.74ZM22.58,18.81c-.02.39-.2.53-.64.86.35.07.61.23.6.46,0,.11-.1.29-.21.42-.07.09-.39.1-.47-.08-.33-.73-.12-1.41.72-1.66ZM23.15,36.8c-.07.07-.37.09-.37,0,0-.13.06-.4.15-.41.07,0,.19,0,.33-.11.03.33-.05.45-.11.52ZM23.61,40.55c-.72.16-1.38-.74-1.39-1.19,0-.1.11-.44.34-.4.74.14,1.17.97,1.05,1.59ZM23.5,19.28c.13-.15.17-.5.33-.54l.56-.15c.13.4-.55.9-.89.69ZM24.31,34.56c-.07-.01-.25.04-.29-.05-.09-.21.04-.36.14-.41.08-.04.31-.09.41.1.15.28-.12.38-.26.36ZM25.99,38.26c-.74-1.01-.98-1.97-1.45-3.03,1.08.66,1.6,1.79,1.45,3.03ZM27.33,38.94c.07.17,0,.45-.13.48-.72.12-1.26-.27-1.24-.53.01-.17.14-.42.28-.46.3-.08.98.25,1.09.51ZM27.66,24.43c-.32-.25-.53-.65-.4-1.27.45.23.62.75.4,1.27ZM27.85,41.49c-.27.04-.42-.08-.46-.34-.03-.15-.18-.56.16-.61.2.1.33.6.3.96ZM28.37,42.85c0,.07-.1.15-.22.18-.17-.12-.2-.17-.09-.29.12-.13.23-.18.3-.21v.32ZM29.36,48.32c-1.07-.1-1.55-.95-1.39-1.81.63.46,1.26.97,1.39,1.81ZM29.22,36.5c0,.13-.1.23-.23.23s-.23-.1-.23-.23.1-.23.23-.23.23.1.23.23ZM29.48,44.27c-.52-.47-.82-.98-.4-1.64.61.48.55,1.11.4,1.64ZM29.49,19c-.44-.55.02-1.22.26-1.14.43.24.07,1.07-.26,1.14ZM29.89,20.19c-.23-.28.49-.81.69-.52.22.32-.52.73-.69.52ZM31.04,21.31c-.07,0-.23,0-.35-.08-.04-.03.41-.6.54-.42.24.31-.07.52-.19.5ZM32.16,23.7c-.62-.51-.92-1.24-.86-2.03.69.45,1.29,1.23.86,2.03ZM32.52,18.69c-.09.07-.39.09-.37,0,.04-.23.09-.34.15-.43.04-.06.31-.12.33-.05.06.23-.03.42-.11.48ZM33.11,47.06c.22.29-.03.55-.25.49-.11-.03-.19-.26-.04-.42.05-.06.14-.26.29-.06ZM33.42,29.16c.17.23-.02.39-.19.37-.06,0-.16.07-.21-.04-.04-.09.01-.34.09-.4.05-.04.26,0,.3.07ZM33.67,13.59c-.07.03-.25.02-.31-.1-.14-.32.5-.47.57-.34.11.2-.16.4-.27.43ZM34.61,47.07c.22.33-.21.61-.5.5-.12-.05-.1-.26-.02-.41.06-.11.3-.42.52-.09ZM35.04,16.3v.63c-.1.22-.28.26-.35.17-.15-.18-.07-.6-.08-.74.13-.03.25-.2.31-.26.03-.04.12.11.12.2ZM35.35,58.45c.23.2.32.6.16.72-.16.12-.6.15-.76,0-.12-.11-.06-.38,0-.53.11-.25.32-.43.59-.19ZM35.44,48.78c.06-.3.31-.22.43-.1.27.26.19.37.09.54-.13.24-.43.29-.51.06-.06-.16-.03-.4-.01-.5ZM35.77,18.38c-.1.08-.31,0-.31-.1v-.41c0-.09.22-.23.36-.06.12.15.1.45-.04.57ZM36.3,19.43c0,.13-.1.23-.23.23s-.23-.1-.23-.23c0-.13.1-.23.23-.23s.23.1.23.23ZM37.55,57.93c-.1.37-.66.32-.77.09-.08-.16-.12-.65.13-.7.24-.05.7.42.65.61ZM37.72,60.9c.2.75-.05,1.61-.34,2.3-.11.27-.56.22-.67.08-.1-.12-.24-.36-.24-.57.71-.42.37-1.22.35-1.95-.12-.18-.45-.13-.72-.13-.52-.3-1.14-.41-1.52-1,.69-.11,1.38-.2,1.95-.07.3.07.64,1.75.69,1.48.02-.12.47-.26.51-.14ZM40,59.74c.29.73.14,1.49-.58,1.57-.18-1.8-2.32-2.16-1.71-2.85.5-.57,2.16.96,2.29,1.28ZM39.07,38.39c-.56-.13-1.07-.93-.88-1.69l.78.65c0,.15.09.18.22.2.21.13.17.61-.12.84ZM39,27.87c-.12.12-.22.05-.22-.04v-.4c0-.09.26-.2.36-.05.14.22,0,.35-.14.49ZM39.4,57.69c-.22-.11-.79-.39-.57-.68.17-.23.66-.15.87.09.15.17.43.31.09.64.03.14.03.29.02.42-.02.1.02.17.11.21.16.06.08.28-.1.21,0-.16-.21-.33-.48-.17-.41.08-.39-.39.05-.24.03-.14-.05-.18-.1-.21-.18-.09-.03-.28.11-.26ZM39.61,43.58v.21c-.17.04-.29.01-.42-.09-.18-.15-.21-.29-.2-.53l.32-.18c.08-.05.31.27.31.39v.21ZM38.76,42.39c-.03-.13.18-.46.48-.18.26.24-.05.55-.17.5-.12-.05-.29-.22-.31-.32ZM39.4,38.79c.03.25.04.49-.11.61-.12.11-.51.01-.46-.22.07-.36.18-.52.27-.58.08-.05.27-.04.29.19ZM39.95,39.73c.19.18.06.72-.2.72-.15,0-.41.02-.65-.2-.16-.15.09-.31.2-.42.17-.18.41-.33.65-.1ZM38.34,53.94c.11.2-.12.36-.28.27-.07-.04-.09-.13-.03-.22.04-.06.19-.29.32-.05ZM40.23,16.77c.18.5-.59.43-.27-.12-.5-1.07-1.06-1.59-1.28-2.44-.27.29-.6.07-.54-.1.11-.32.53-.63.91-.66.16-.01.2.1.12.23l-.25.4c1.19.18,1.72,1.42,1.31,2.69ZM40.6,37.85c-.42.13-.59-.28-.73-.52.04-.08.06-.14-.01-.26.27-.15.41-.05.52.07.19.2.32.57.22.71ZM41.43,10.34c-.06.19-.26.4-.47.4-.31,0-.41-.31-.32-.55.05-.15.09-.51.38-.42.38.12.46.43.41.58ZM41.91,12.25c-.25.2-.52.13-.76-.06-.25-.19-.27-.35-.09-.59.18-.24.47-.51.7-.24.23.26.32.74.14.89ZM42.54,15.14l-.62.06c-.43,0-.47-.47-.32-.76.11-.19.36-.43.59-.39.22.04.46.29.65.52.19.23-.06.55-.3.57ZM44.1,8.21c.73.38-.69,1.57-.01,2.07.13.1.44.09.66-.22,0,.47-.12.94-.48,1.43l-.96-.41c-.83-1.82.44-3.05.8-2.86ZM47.85,5.03l-.27,1.43c-.11.62-1.06.94-1.66,1.05-.1-.49.1-.67.18-.96-1.05-.27-1.71-.75-2.61-1.27.67-.53,1.29-1.14,2.04-1.32.32-.08.91.25,1.32-.28.17.76-.53.6-.67.77-.16.29.5.37.64.49l.39.32c.05.04.27-.21.64-.23ZM47.99,10.6c-.54.36-.92.46-1.61.56.05-.68-.02-1.12-.1-1.68.09-.04.12-.25.04-.32.48-.21.21-.9.73-1.12.12-.05.51-.02.51.11.03.85-.22,1.46-.69,2.09.49.1.81.11,1.12.37ZM48.73,11.83c.01.06-.5,1.16-.87,1.11-.19-.02-.52-.32-.75-.47l-1.26.53c.25-.91,1.04-1.45,1.87-1.01-.14.48.17.67.44.3-.12-.25-.22-.51-.1-.6.22-.17.61-.11.67.14ZM49.13,12.6c-.13-.52.52-.67.48-.12.08.41-.47.65-.48.12ZM51.15,10.04c.4.21.36.49-.12.55-.19-.1-.48-.55-.3-.78.55-.68.88-.97,1.59-.74l-1.17.97ZM51.49,17.14c.15.64-1.07,1.09-1.7.95.45-.42,1.04-.71,1.28-1.44-.91.49-1.68.99-2.67.83-.29-.05-.38-.47-.23-.62.13-.14.36-.45.71-.49.23.21.5.46.84.15.27-.24.26-.52.08-.86l-.11-.22c-.05-.1.03-.23.18-.41-.02-.18-.4-.54-.54-.56l-.25-.03c-.29-.04.29-.52.41-1.22.5-.29,1.2.36,1.18.79,0,.07-.06.27.05.39.34.36.37,1.02.48,1.49l.29,1.26ZM50.69,50.6c.03-.06.16-.09.31-.06.23.04.22.28.18.39-.03.09-.27.1-.36.07-.09-.03-.18-.27-.13-.4ZM50.78,60.22c.43.32.61.63.69,1.08-.79-.08-.85-.68-.69-1.08ZM52.29,64.12c-1.22-.07-2.54-.83-2.58-1.87-.02-.64,1.76.34,2.58,1.87ZM52.94,19.53c.05.24-.37.71-.73.74-.25.02-.33-.08-.33-.32,0-.22.07-.33.38-.32h.26c-.02-.11.04-.18.11-.21.12-.06.29.02.31.11ZM53.37,37.66c-.12.12-.22.05-.22-.04v-.4c0-.1.27-.2.36-.06.14.22,0,.35-.14.49ZM53.76,48.27c-.17.19-.24.26-.33.3-.11.06-.46.04-.49-.1-.06-.24.18-.5.35-.51l.23-.02c.28-.02.32.24.24.32ZM57.09,65.1c.22.15.15.9-.08,1.22-.35-.66-1.19-.78-1.79-1.35-.95-.91-1.58-2.35-1.28-3.64.85,1.67,1.6,2.93,3.15,3.77ZM56.39,62.73c-.26-.21-.47-.37-.52-.58-.03-.13-.05-.22-.12-.23-.17-.04-.1-.44-.02-.39l.33.19c.16.09.37.19.41.35.05.19.04.6-.09.68ZM54.27,58.86c1.11-.07,2.7,1.91,1.95,2.01-.92-.48-1.5-1.28-1.95-2.01ZM56.22,45.92c-.58-.5-.65-1.21-.18-1.67.43.52.46,1.13.18,1.67ZM56.33,39.06c-.07.06-.31.12-.37-.06-.03-.1-.02-.28-.01-.42,0-.15.31-.21.4-.02s.06.44-.02.51ZM56.86,40.8c-.03.53-.58.4-.84.41-.25,0-.8,0-.67-.47.26-.25,1.31-.2,1.51.06ZM56.86,63.87c0-.2.16-.4.43-.25.16.09.17.46.1.59-.09.17-.26.15-.35.07-.12-.12-.19-.3-.19-.41ZM57.61,35.61c-.17.2-.41.58-.73.3.07-.68.27-1.26.66-1.26.37,0,.32.67.07.96ZM58.25,37.34c-.08.16-.23.18-.32.1-.15-.13-.37-.58-.32-.75.06-.2.33-.26.41-.18.08.08.27.75.23.83ZM58.17,40.58c-.08.09-.44.2-.58-.13-.32-.77-.23-1.74.33-2.42.41,1.08.7,2.05.25,2.55ZM59.41,14.72c-.1.17-.39.32-.7.25-.34-.08-.53-1.37-.06-1.34.15,0,1.05.61.76,1.1ZM63.99,18.39l-1.31,1.09c-.71-.32-1.43-.94-1.42-1.81-.6-.4-1.72-.51-2.21-1.59l.8-1.62c.61.92,1.41,1.71,2.06,2.44.06.09-.29.39-.37.44-.14.09.09.32.24.22.23-.16.89,1.14,2.22.82ZM64.36,44.35c-.86.65-1.31.2-1.85-.47-.3-.37-.38-1.04-.01-1.17l1.86,1.65ZM65.33,16.56c.37.48-.55,1.33-.78,1.04-.31-.45.47-1.13.78-1.04ZM65.83,9.98c-.13.16-.67.14-.56-.2.08-.15.62-.19.89-.41.18.34-.21.46-.33.61ZM67.63,15.08c-.22.39-.79.77-1.21.69-.12-.02-.21.05-.29.08-.11.04-.31-.04-.3-.18-.34.13-.49.31-1.16.18.51-.3.05-.81.14-1.01.22-.47.9-1.11,1.21-1.44.6.07,1.07.96.84,1.4.06.03.2.09.25.06l.3-.17c.13-.07.35.13.22.37ZM68.86,10.13c-.07.36-.3.55-.62.44-.04-.31.22-.49.62-.44ZM69.14,54.31c.47-.27.83.25,1.07.62.27.4.6.84,0,1.33-.36-.73-.49-1.15-1.08-1.95ZM70.1,45.2c-.1.02-.26.09-.37-.11-.06-.11-.07-.32.09-.35.11-.02.43-.07.49.03.16.26-.06.4-.2.43ZM70.43,20.37c-.14.08-.35-.22-.54-.22-.19-.38-.45-.58-.83-.95.33-.32.67-.23.96-.19l.73.66c.23.21-.09.57-.32.69ZM72.48,54.08c.15.44,1.53.3,1.63.69.24.94-1.91-.17-3.2-2.1.98-.14,1.31.66,1.57,1.41ZM72.42,46.91c-.1.08-.31,0-.31-.1v-.41c0-.09.22-.23.36-.06.12.15.1.45-.04.57ZM71.91,42.2c.33.22.16.5-.08.48-.15-.01-.32-.09-.34-.23-.02-.11.22-.39.42-.25ZM72.48,25.43c.06.18-.36.43-.52.4-.12-.02-.14-.39-.07-.49.08-.11.49-.17.58.09ZM72.57,30.25c-.07.02-.15.03-.23.02-.35-.03-.28-.3-.15-.44.2-.21.32-.25.54-.1.24.16.17.44-.17.53ZM73.5,50.56c.03.15-.2.3-.57.32-.26.02-.43-.13-.41-.31,0-.08.07-.17.17-.25.13-.1.79.1.81.23ZM73.69,30.53c.11.43-.24.53-.39.44-.08-.05-.06-.24-.03-.32.04-.11.37-.3.42-.12ZM73.62,18.28c-.07-.02-.13.07-.17-.05-.06-.17-.02-.31.09-.37.06-.04.27-.07.32.03.15.32-.11.43-.24.4ZM73.94,23.46c-.09.07-.32.18-.47.14-.17-.05-.03-.66.27-.61.33.05.34.35.19.47ZM74.29,41.89s-.41-.28-.31-.5c.05-.11.23-.19.37-.05.11.1.09.5-.06.55ZM74.91,52.54c.23-.05.67.33.74.73.05.29-.22.45-.43.2-.14-.16-.25-.21-.22-.5-.07,0-.17-.05-.21-.12-.07-.14.03-.29.11-.31ZM75.21,20.97c-.05-.23.08-.36.16-.44.08-.08.36-.18.43.08.12.43-.56.5-.59.36ZM77.3,42.54c0,.23-.18.23-.32.22-.28-.02-.35-.1-.33-.44.01-.24-.03-.5.13-.61.13-.09.51-.02.51.12v.71ZM77.93,25.98c-.08.03-.27.05-.42.02-.09-.02-.18-.18-.11-.29.09-.14.27-.18.46-.15.27.05.19.37.06.42ZM78.84,45.43c-.78-.32-1.58-1.81-1.47-2.13.04-.13.35-.26.59-.12.7.41,1.16,1.35.88,2.25ZM79.19,18.5c-.12.12-.22.05-.22-.02v-.41c0-.11.27-.2.36-.06.14.22,0,.35-.14.49ZM80.1,40.78c.1.27-.1.4-.23.45-.14.05-.31.07-.41-.07-.14-.18-.03-.35.09-.39.14-.05.51-.11.55.02ZM80.75,30.26c-.23.26-.42.26-.65,0-.17-.19-.19-.58.1-.63.12-.02.32-.02.44,0,.29.06.27.44.11.63ZM82,17.33c-.18.17-.25.24-.5.24-.22,0-.31-.19-.23-.33.11-.19.28-.35.5-.3.14.03.36.27.22.39ZM83.58,19.03c-.09.22-.42.47-.57.61-.26-.33-.06-.6.2-.66.11-.03.24-.33.37.05ZM84.38,45.23c-.46-.42-.82-.62-1.36-.45.06-.69.55-.41.71-.5.35-.2.55-.04.67.23.08.18.32.38-.03.72ZM100.93,58.16c-.75.69-3.34-.76-3.45-1.85,1.35.42,2.47.89,3.45,1.85ZM97.38,54.41c-.2.05-.43-.17-.49-.32-.09-.19-.06-.52.19-.52h.17c.2,0,.41.2.45.34.06.18-.18.46-.32.5ZM99.37,63.37c.67-.28,1.43.22,1.31.56-.19.55-.71.28-1.02.14-.24-.11-.6-.55-.29-.7ZM94.73,60.81l1.39-1.82c-.43-.48-.85-.93-.83-1.52.85-.16,1.58-.05,2.38.12l.71,1.81c.2.51.39,1.04,1.1,1.21.43-.11.5.54-.01.42-.49-.06-.87.15-.96.37-.12.29-.01.61.1.96-.21.04-.56.04-.76.2-1.01-.48-2.08-.97-3.1-1.75ZM95.61,48.98c-.01.2-.18.37-.31.43-.25.09-.6-.06-.74-.14l.46-.67c.22-.07.57-.08.63.18.01.07-.01.16-.03.21ZM94.38,53.97c.73.52,1.15,1.42.7,2.2-.65-.73-.99-1.35-1.73-1.8.18-.39.71-.64,1.04-.4ZM92.84,46.81c.02-.15.16-.4.57-.38.6.02,1.6,1.03,1.29,1.61-.34.63-1.22.01-1.52-.35-.33-.4-.37-.57-.33-.88ZM89.42,43.33c.82-.47,1.7-.54,2.56-.26-.41.32-.47.6-.32.83.13.21.96,0,1.59.34.29.15.13,2.26-.78,1.95l-.96-.97c-.85-.48-1.58-.93-2.09-1.89ZM88.73,41.78c-.06,0-.12,0-.19,0-.06-.06-.16-.02-.2-.18-.04-.14,0-.25.11-.31.15-.08.29.03.31.11.02.1,0,.29-.03.38ZM89.59,42.33c-.06.04-.53.01-.71-.13-.07-.06.28-.13.25-.27.19-.08.45.2.47.4ZM90.88,33.51c-.12-.04.17-.46.07-.56,1.47.22,1.93-.21,2.22-.11-.57.55-1.48.93-2.28.66ZM96.69,38.92c.03.32-.25.33-.33.29-.11-.07-.15-.19-.1-.32.04-.1.28-.25.43.03ZM97.28,40.58l-1.41.88c.15,1.54,1.5,2.26,1.13,3.38-.19.57-1.21,1.21-1.75.78.16-.83-.13-1.58-.73-2.16l-1.68-1.65-1.64-1.44c-.61-.53-1.15-.46-1.46-1.37-.15-.46-.42-.81.15-1.26.38-.29.63-.02,1.14.28l2.15,1.28c-.53.67.24.66.49.71.81.16,1.22-1.21,1.99-.92.31.11.29.75.45.93.33.19.98-.08,1.16.58ZM99.11,47.82c.11.25-.72.52-1.03.11l-1.1-1.5c-.24-.33.24-1,.5-.78.68.57,1.25,1.33,1.63,2.17ZM101.33,42.49c.02.28-.57.47-.79.43-.48-.09-1.98-1.88-1.44-3.14-.59-.26-1.22-.62-1.52-1.01.04-.87.75-.91,1.36-.76.84.2.53.69.85,1.37.49,1.03,1.46,1.88,1.54,3.1ZM101.4,49.52c-.39.33-.84-.06-1.13-.36l-.28-.29c-.07-.07.05-.27.13-.29.21-.06.45-.03.52.16.02.06.12.09.18-.02.35-.23.86.56.58.8ZM102.05,52.31c-.48.55-1.14.6-1.72.25.6-.56,1.14-.51,1.72-.25Z"/>
      <path class="cls-1" d="M40.3,5.8c.14.36.2.99.84,1.02-.93.71-1.81.39-2.75.02.35-.56,1.26-1.29,1.92-1.04Z"/>
      <path class="cls-1" d="M24.06,147.49c-.13.33-.38.24-.49.13-.07-.08-.27-.17-.21-.42.03-.13.28-.17.41-.1v-.23s.44,0,.44,0c-.05.06-.03.2,0,.22.38.08.2.57-.16.41Z"/>
      <path class="cls-1" d="M23.24,102.04c-.14,0-.34.04-.44-.26.22-.11.49-.31.77-.25.11.15-.11.5-.33.51Z"/>
      <path class="cls-1" d="M91.87,27.25c.06.31-.23.42-.53.41-.27,0-.47-.07-.6-.15-.21-.12-.19-.43-.01-.58.35-.31,1.07-.02,1.14.32Z"/>
      <path class="cls-1" d="M22.77,137.74l.08-4.02c0-.31-.01-.75.28-.89.21-.11.58-.09.82.01.24.1.27.59.3.9l.44,5-.92,2.92c.99,2.19,1.67,4.37,2.42,6.6l1.5,3.07c1.12-1.31.36-1.64.16-2.48-.07-.29.35-.51.46-.35l1.11,1.57c.24.33-.02.87-.05,1.06-.03.22-.54.21-.85.13-.36.42-.36,1.11-.54,1.76-.84-1.21-1.21-2.38-1.72-3.66l-2.14-5.38-1.42-2.91c-.38-1.24-.26-2.17.05-3.33Z"/>
      <path class="cls-1" d="M23.39,112.2c.06.04-.14.21-.2.24-.08.04-.22.12-.39-.11-.23-.3-.13-.51.05-.66.28-.24.19.29.55.53Z"/>
      <path class="cls-1" d="M22.14,148.1c.51.27.69.69.5,1.24-.36-.37-.52-.72-.5-1.24Z"/>
      <path class="cls-1" d="M23.22,107.19c-1.09-.82-1.16-1.95-1.04-3.08.54.98,1.08,1.98,1.04,3.08Z"/>
      <path class="cls-1" d="M27.13,155.69c-.06-.16-.03-.4-.01-.5.06-.3.31-.22.43-.1.27.26.19.37.09.54-.13.24-.43.29-.51.06Z"/>
      <path class="cls-1" d="M23.62,130.25c-.04-.59.12-1.08.3-1.48l.38-.84c.09-.01.18-.01.28.02l-.4,1.02c-.17.42-.23.87-.55,1.29Z"/>
      <path class="cls-1" d="M22.34,130.34c.04-.11.17-.26.38-.34v1.01c-.45-.1-.45-.46-.38-.67Z"/>
      <path class="cls-1" d="M94.41,68.46c.04-.4-.03-.78.63-.96-.22,1,.84,1.16.14,1.82-.59-.01-.82-.38-.77-.86Z"/>
      <path class="cls-1" d="M102.42,74.94c.01-.09.23-.29.35-.27.8.19,1.43.93,1.21,1.79l-2.35-.47,1.21-.52c-.33-.2-.43-.4-.41-.54Z"/>
      <path class="cls-1" d="M106.93,73.6c-.23.06-.31-.22-.04-.25.39-.17.51.32.04.25Z"/>
      <path class="cls-1" d="M100.86,76.4c.09-.27,1.27.36,1.36,1.01-.6.27-1.44-.76-1.36-1.01Z"/>
      <path class="cls-1" d="M103.83,81.7c-.21.03-.28-.06-.29-.13-.02-.07,0-.21,0-.31h.17c.13.29.4.39.12.44Z"/>
      <path class="cls-1" d="M105.66,80.64c.56.32.7.81.77,1.48-.56-.31-.71-.81-.77-1.48Z"/>
      <path class="cls-1" d="M105.98,70.18c.5.22.71.56.95,1.19-.8.43-1.55.93-2.56.9.57-.49,1.12-1.17.55-1.72.1-.36.74-.51,1.06-.37Z"/>
      <path class="cls-1" d="M108.22,63.18c-.13-.12-.2-.39.1-.44.03.01.1.04.18.01.14-.05.4-.04.45.1.07.22-.17.46-.31.5-.17.06-.25-.02-.42-.18Z"/>
      <path class="cls-1" d="M108.33,81.61c.1.15.09.58-.31.47-.15-.1-.17-.56-.05-.8.18.08.29.23.36.33Z"/>
      <path class="cls-1" d="M98.9,74.19c.31-.02.44.04.58.2.13.15.02.22-.1.34-.16.15-.34.16-.43-.07-.01-.03-.1-.07-.22-.03-.38-.13-.18-.56.17-.44Z"/>
      <path class="cls-1" d="M38.11,4.23c.92-1,2.25-1.49,3.58-1.46-.36.76-1.91.58-3.58,1.46Z"/>
      <path class="cls-1" d="M104.06,110.24l1.66,1.75,2.47,1.34c1.91-1.37,3.31-3.13,4.34-5.21l.98-2.93c.14-.43,0-1.03.49-1.46.4-.36.45-1.6-.03-1.77-.83-.13-1.54.77-2.15,1.06-1.95.92-1.55,2.4-2.39,2.05-.78.51-.93,1.5-.9,2.47-.13.27-.85-.06-1.07-.3-.62.13-1.06.97-1.43,1.64.76.42,1.78.19,2.62,1.23-1.62.25-3.57-1.17-4.59.12ZM111.1,104.95c.06-.08.07-.36.3-.28.12.04.45.34.43.46-.02.14-.49.13-.61.19-.2.09-.25-.21-.13-.37Z"/>
      <path class="cls-1" d="M99.97,105.51c.08.07-.15.26-.17.34h-.43c-.03-.14,0-.33.09-.41.08-.07.4-.02.5.07Z"/>
      <path class="cls-1" d="M105.87,56.81c-.05.34-.13,1.03-.7,1.12-.69.12-1.89-.68-1.75-1.43.13-.73,1.27-1.07,1.73-.87.56.25.79.75.72,1.18Z"/>
      <path class="cls-1" d="M108.09,69.76c-.27-.06-.73-.5-.6-.73.37-.71,1.14-1.06,1.9-1.1l-1.29,1.83Z"/>
      <path class="cls-1" d="M110.87,64.02c.25-.22.58-.26.82-.24l.09,1.54c-.62-.23-.89-.84-.9-1.3Z"/>
      <path class="cls-1" d="M112.19,83.33c-.45.01-1.11-.47-1.32-1.09-.12-.37.22-.8.39-.76.74.64,1.54.91,2.62.94-.37.76-1.03.89-1.69.91Z"/>
      <circle class="cls-1" cx="92.51" cy="78.57" r=".23"/>
      <path class="cls-1" d="M76.93,66.49l-.88-2.44c.29-.28.46-.5.87-.47-1.19,1.08.75.7,2.44,2.16.42-.24.17-.72.01-.97-.27-.4-.62-.74-1-1.08l-1.3-.18c.71-.84,1.44-1.35,2.21-.95.51.27.38.79.35,1.16.48.5,1.3.97,1.48,1.73l-2.57,2.39c-.69-.28-1.37-.68-1.62-1.36Z"/>
      <path class="cls-1" d="M79.72,82.04c-.21.33-.69.33-.92.19.25-.43.46-.5.67-.52.11-.02.33.21.25.33Z"/>
      <path class="cls-1" d="M80.12,68.8c-.38-.06-.86-.04-.94-.62.46-.19,1.47-.68,1.85-.18.2.35-.56.86-.91.81Z"/>
      <path class="cls-1" d="M68.23,88.57c-.12-.16-.1-.34-.01-.46.07-.1.33-.24.54,0,.2.23,0,.46-.18.55-.13.07-.23.06-.35-.1Z"/>
      <path class="cls-1" d="M82.77,64.34c-.71-.17-.92-.88-1.02-1.45-1.34-.5-2.67-1.44-3.16-2.96.04-.3.72-.91,1.17-.72.43.18,1.05.5,1.2.9l.9,2.45c.81,1.09,3.05.11,3.14.91.02.19,0,.51-.2.77l-1.01,1.23c-1.02.16-1.6,1.12-2.55,1.43l1.41-1.93c.04-.06.31-.08.39-.07.11,0,.15-.17,0-.3l-.28-.24Z"/>
      <path class="cls-1" d="M61.96,85.62c-.47-.03-.69-.49-.7-.72-.01-.29.34-.69.64-.41v.3c.32.02.29.84.06.82Z"/>
      <path class="cls-1" d="M102.29,89.88l-3.59-.34c.93-1,2.29-1.31,3.38-2.17,2.1-1.65,4.05-3.68,6.88-4.32l1.28,1.51c.23.27.45.48.45.77,0,.21-.15.66-.39.65-.58-.03-1.02-.3-1.52-.58l-1.06,1.94c-.76.85-1.67,1.69-2.25,2.66.39.96-.49.14-3.18-.11Z"/>
      <path class="cls-1" d="M66.44,93.96c.75-1.72,2.78-1.46,2.82-3.33.6.45.54,1.14.88,1.59l1.56,2.07c-.38.48-.93.85-1.8.85.06-.46.33-.51.64-.74-.64-.7-1.69-1.49-2.66-1.24-.31.43.31.93.5,1.23-.69-.15-1.19-.35-1.94-.42Z"/>
      <path class="cls-1" d="M40.34,4.52c.9-.94,1.9-1.42,2.95-1.48-.99,1.14-1.79,2.09-2.95,1.48Z"/>
      <path class="cls-1" d="M91.76,70.29c-.35-.07-.44-.44-.16-.61.27-.15.73-.11.84-.03.19.3.08.52-.22.63-.28.11-.21.06-.47,0Z"/>
      <path class="cls-1" d="M84.34,62.76l1.15-1.26c-.88.16-1.37.55-2.14.89.18-.74.71-.97,1.18-1.47-.29-.83-.82-1.39-1.4-1.93l-1.71-1.62c-.22-.21-.03-.64.16-.64.15,0,.67-.03.81.11l5.25,4.95c-1.1.86-2.09,1.05-3.31.99Z"/>
      <path class="cls-1" d="M96.27,76.02c-.06.75-.87,1.08-1.35.74.45-.61.85-.74,1.35-.74Z"/>
      <path class="cls-1" d="M84.5,50.85c-.36.37-.92.36-1.27,0,.51-.35.88-.28,1.27,0Z"/>
      <path class="cls-1" d="M91.85,66.31c.32-.48.57-.76,1.09-1.02l.43.96c-.55.17-.86.26-1.52.07Z"/>
      <path class="cls-1" d="M58.04,85.66c0,.51-.22.93-.56,1.32l-1.29-2.43c.64-.42,1.86.42,1.85,1.11Z"/>
      <path class="cls-1" d="M2.55,71.95c.86-.27,1.32-.98,1.17-2.02.64.33,1.14.33,1.64-.08-.55-.56-1.03-.86-1.59-1.2.1-.9.02-1.64.46-2.42.34.36.19.78-.16,1.11.97.39,1.76,1.02,1.95,1.85.35.13.57.43.89.71-.16.44-.75.43-1.01.6-.92.64-1.72,1.29-3.01,1.61,0,.49.19.9-.04,1.29-.31,0-.29-.26-.32-.33-.03-.1-.31-.11-.42-.03-.22.16-.01.72-.1.97-.07.18-.48.27-.58.15-.18-.2-.06-.42-.03-.68l.37-3.17c.48-.09,1.07-.31,1.65-.53-.45.77-.98,1.24-.87,2.17Z"/>
      <path class="cls-1" d="M6.61,40.63c-.21.04-.37.25-.45.22-.09-.03-.16-.27-.08-.3l.34-.14c.12-.05.29-.22.39-.16.11.07.14.22.18.34l1.15,3.55c-.69-1.02-1.21-2.26-1.52-3.51Z"/>
      <path class="cls-1" d="M5.57,52.01c-.2-.51-.09-.92-.11-1.35v-.15s0-.48,0-.48c-.1.06-.23-.07-.2-.11l.2-.22c.07-.08.36,0,.36.19l.04,1.4c0,.2.16.53-.3.72Z"/>
      <path class="cls-1" d="M5.94,40.02c-.28-.47.16-.81.28-.76.22.28-.01.72-.28.76Z"/>
      <path class="cls-1" d="M5.34,53.92c-.5.44-1.08-.04-1.01-.4.04-.22.1-.65.32-.83.17-.14.6-.08.94-.07-.04.35-.07,1.05-.26,1.29Z"/>
      <path class="cls-1" d="M7.96,40.56c.04-.12.2-.17.3-.11.15.08.07.27.11.4l.82,2.5c-.69-.4-1.21-2.86-1.24-2.79Z"/>
      <path class="cls-1" d="M9.63,54.07l.69-.77,1.45,3.79-.81-.19c-.2-.05-.24.3-.64.48.09-1.01-.29-2.08-.36-2.08-.1,0-.33.25-.34-.14.17-.24.18-.66-.06-.7-.12-.02-.43.03-.51-.15-.04-.11-.02-.3.12-.41.09-.07.27-.07.45.17Z"/>
      <path class="cls-1" d="M7.81,39.08c-.25-1.24-.23-2.27.26-2.44.09-.03.27.1.25.21-.18.9.45,1.7-.5,2.24Z"/>
      <path class="cls-1" d="M45.51,1.9c-.36.04-.62.36-1.15.19.25-.3.56-.44.86-.65l1.45-.1c-.27.58-.82.86-1.16.55Z"/>
      <path class="cls-1" d="M9.64,45.78c-.12.12-.22.05-.22-.02v-.41c0-.1.26-.2.36-.06.14.22,0,.35-.14.49Z"/>
      <path class="cls-1" d="M9.09,70.01c-.2.09-.38-.07-.52-.11-.39-.11-1.04-.25-1.4-.77-.49-.71-1.18-1.23-1.43-1.99.59-.57,1.63-.81,2.13-.27.15.17-.09.65-.25.69-.43.12-1.54-.7-1.58-.23l2.2,1.36c.41.25.85.47,1.26.94.06.1-.3.33-.41.38Z"/>
      <path class="cls-1" d="M9.43,66.63c.04.32-.25.33-.33.28-.11-.07-.15-.19-.1-.32.04-.1.28-.25.43.03Z"/>
      <path class="cls-1" d="M5.13,65.35l-.15-.83c-.03-.15.23-.43.45-.3.21.56.23,1.29.06,1.91-.42-.17-.31-.54-.36-.78Z"/>
      <path class="cls-1" d="M3.19,66.79l-1.05-1.44.7-.73c.54.58.8,1.31.35,2.17Z"/>
      <path class="cls-1" d="M5.51,54.01l.75-1.38-.05,2.32.54,1.6c-.46-.15-.9-.11-.97.29-.04.25,0,.45.1.97-.31-.25-1.13.26-1.03.54l1.38,1.89c.19.26.17.69-.17.92l-.74-1.77c-.15-.37-.27-.44-.66-.55-.18-.05-.38.08-.53.43,0,.02-.07,2.6.64,2.95.45-.72.19-1.29.25-2.09.42.3.28.65.33.9.03.16.71.12.81.26.73,1.09.89,2.48.44,3.71-.7-.89-.53-1.83-.56-2.67l-1.21,1.25c.26.45-.39.51-.23.05.15-.44.03-.82-.24-1.07-.16-.15-.56-.08-.75-.18-.46-.23.05-.6.12-.79.51-1.32-.97-4.1.82-3.25.97-1.33,1.51-2.93.98-4.34Z"/>
      <path class="cls-1" d="M2.27,68.05c.27.32.45.68.36.83-.35.1-.48-.18-.52-.41-.03-.14-.06-.42.16-.43Z"/>
      <path class="cls-1" d="M6.5,48.68c-.08.16-.16.07-.21.01-.07-.08-.14-.15-.2-.31v-.22s.44-.02.44-.02c-.04.1-.03.16-.02.23,0,.08.04.23,0,.31Z"/>
      <path class="cls-1" d="M18.78,15.89c-.13-.03-.24.07-.21.2-.11.22-.17.5-.41.63v.21c-.28-.06-.27-.4-.22-.62.03-.19.24-.41.43-.42.05-.25.29-.46.51-.42.08.01.16.16.12.3-.02.08-.09.16-.22.13Z"/>
      <path class="cls-1" d="M24,14.75c-.15.22-.28.4-.65.3.16-.46.3-.77.56-1.1.36.34.19.64.08.8Z"/>
      <path class="cls-1" d="M10.76,33c-.09.11-.31.31-.45.36-.15.05-.35-.22-.5-.53-.15-.31,0-.42.14-.48.13-.06.3.06.42.07.37.04.52.44.4.58Z"/>
      <path class="cls-1" d="M22.14,12.1c-.08-.13-.05-.31.08-.39l1.33-.78s.05.15.02.26l-1.43.9Z"/>
      <path class="cls-1" d="M21.08,14.13c.16-.77.78-1.08,1.48-1.15-.38.51-.63.98-1.48,1.15Z"/>
      <path class="cls-1" d="M26.11,13.59c-.41,1.03-.65,1.91-1.42,2.58,0-1.43.3-2.61,1.42-2.58Z"/>
      <path class="cls-1" d="M29.16,11.24c.08-.19.29-.13.32.09l-.57.58c-.08.03-.22-.19-.15-.36.14-.03.28-.14.4-.31Z"/>
      <path class="cls-1" d="M28.02,10.16l-1.7.6c.26-.66.7-.72,1.07-1.11.89.12,1.56-.32,2.43-.72-.3.86-1.1.98-1.8,1.23Z"/>
      <path class="cls-1" d="M25.32,12.21c-.25.67-.84,1.09-1.34,1.62-.26-1.06.05-2.21.98-2.69.11-.06.21-.04.28-.2.18-.06.31.12.35.27-.04.05-.08.09-.08.15-.44.14-.1.64-.18.86Z"/>
      <path class="cls-1" d="M11.65,27.89c-.52-.78-.3-1.51.39-2.02.11.61.39,1.47-.39,2.02Z"/>
      <path class="cls-1" d="M14.38,21.24c.1.24-.2.32-.31.5l-.28.47c-.14.24-.33.04-.44-.03-.32,0-.61.46-.63.78,0,.23-.22.56-.48.84-.22-.2-.22-.74.07-.85,0-.07.03-.14.06-.19.03-.52.61-.94,1-1.25l.79-.64c.19-.21.26-.38.25-.65.13.06.25-.1.31-.16.03-.04.17.12.14.22l-.42.62c-.05.09-.11.22-.06.34Z"/>
      <path class="cls-1" d="M19.61,17.33s-.09.03-.19-.04l.86-1.53c.21.37-.09.72-.28.93-.18.2-.27.43-.39.65Z"/>
      <path class="cls-1" d="M10.51,25.6c-.11-.51.17-.88.34-1.23.39.29.26.61.19.95-.04.19-.33.49-.53.27Z"/>
      <path class="cls-1" d="M19.12,15.07s-.22-.11-.02-.22c.24-.24.44-.58.82-.65,0,0,.03.05.11.12-.27.27-.5.65-.91.75Z"/>
      <path class="cls-1" d="M9.95,56.5c-.36.3-.75.26-1.16.13.22-.38.72-.57,1.16-.13Z"/>
      <path class="cls-1" d="M15.29,19.44c.16-.43.42-1.05.73-1.31.05-.05.15-.12.17-.19.05-.16.31-.2.31-.08v.51c0,.06-.02.15.02.24-.45.24-.71.71-1.23.82Z"/>
      <path class="cls-1" d="M4.97,55.86c.13.39-.08.62-.11.86-.04.32-.13.7-.7.59.24-.22.24-.31.27-.51.07-.37.18-.71.53-.93Z"/>
      <path class="cls-1" d="M64.22,5c.18-.49.2-.9.42-1.04.14-.09.4-.24.64-.3l2.04-.47-1.47,1.02c-.58.41-1.07.87-1.64.78Z"/>
      <path class="cls-1" d="M68.56,4.04c-.13,0-.23-.1-.23-.23,0-.13.1-.23.23-.23s.23.1.23.23c0,.13-.1.23-.23.23Z"/>
      <path class="cls-1" d="M65.28,2.17c-.31.34-.75.58-1.31.59.25-.37.51-.65.81-.81l.51-.03c.09,0,.28.15,0,.25Z"/>
      <path class="cls-1" d="M68.96,5.98c.02-.19.12-.41.43-.51-.02.32-.16.47-.31.62l-.12-.11Z"/>
      <path class="cls-1" d="M73.44,4.37c-.24,0-.66-.16-.94-.26.47-.42.89-.63,1.58-.51,0,.31-.34.78-.64.77Z"/>
      <path class="cls-1" d="M60.39,2.46c.59-.93,1.33-1.07,1.87-1.61.34-.08.57.01.67.14.06.08.04.43-.06.48-.9.27-1.63,1.04-2.48.99Z"/>
      <path class="cls-1" d="M8.31,64.32c-.92-.66-.94-1.69-.66-2.47.51.78.83,1.53.66,2.47Z"/>
      <path class="cls-1" d="M75.18,6.31c.24.42.4.73.45,1.29-1.49-.07-2.73-.66-3.85-1.71.67-.64,1.39.69,3.41.41Z"/>
      <path class="cls-1" d="M51.71,2.91c.3-.24.48-.36.82-.34-.14.38-.44.53-.82.34Z"/>
      <path class="cls-1" d="M59,1.37c-.49.24-.76.53-1.47.78.25-.57.79-.92,1.47-.78Z"/>
      <path class="cls-1" d="M92.4,15.46c-.2.03-.36.01-.52.02-.02-.12-.02-.32,0-.44.16,0,.31-.01.52.02.18.03.18.37,0,.4Z"/>
      <path class="cls-1" d="M49.93,3.2c.36-.03.71-.18,1.18.08-.64.17-1.09.47-1.71.88-.22-.69.23-.94.52-.96Z"/>
      <path class="cls-1" d="M49.75,4.85c.44-1.08,1.45-1.22,2.38-1.41-.74.54-1.36,1.27-2.38,1.41Z"/>
      <path class="cls-1" d="M55.67,1.6l-.98.19c-.05-.11-.03-.17-.05-.26.35-.13.67-.39,1.07-.42.19-.01.38,0,.55-.06.62-.22,1.13-.65,1.94-.77-.54.58-1.29.76-1.91,1.04l-.61.27Z"/>
      <path class="cls-1" d="M55.23.69c.02.12-.05.19-.13.21-.13.04-.28-.04-.3-.12-.06-.25.26-.54.73-.74.33-.14.71.14.41.39-.22.18-.54.28-.71.26Z"/>
      <path class="cls-1" d="M51.68,5.33c-.01-.28.61-.88.86-.86.44.05.64.84.23,1.12-.27.18-1.05.54-1.09-.26Z"/>
      <path class="cls-1" d="M85.51,15.74c1.02-.7,2.04-1.13,3.2-.75-.93.86-2.09,1.07-3.2.75Z"/>
      <path class="cls-1" d="M8.02,45.63c.37-.02.65.1.76.36.11.26-.23.35-.39.52-.02.07-.05.16-.11.21-.1.08-.33-.04-.29-.1l.19-.32.19-.31s-.15-.21-.33-.35Z"/>
      <path class="cls-1" d="M9.81,63.35c.35.09.3.32.32.53.02.16-.38.54-.51.4-.67-.72-.83-1.87-.89-2.76.16-.13.56-.04.72.25-.5.44-.31,1.4.35,1.58Z"/>
      <path class="cls-1" d="M10.82,65.29c-.38,0-.56-.06-.61-.15-.05-.09.05-.25.23-.37.2-.14.33-.22.49-.09.09.07.26.08.34.27.08.19-.1.35-.44.34Z"/>
      <path class="cls-1" d="M8.85,68.14c.12-.53.47-.86.67-.85.15,0,1.65,1.5,1.71,2.29-.95-.19-1.9-.79-2.38-1.43Z"/>
      <path class="cls-1" d="M8.5,50.82c-.05.51-.13.97-.38,1.53-.56-.6-1.05-1.77-.97-1.96.06-.15.25-.38.47-.36.43.04.16,1.11.88.79Z"/>
      <path class="cls-1" d="M8.9,53.32c-.77.38-1.01.83-1.03,1.53-.53-.61-.7-1.17-.75-1.94l.74.68c.08-.33.24-.45.47-.54.3-.11.59-.01.57.27Z"/>
      <path class="cls-1" d="M7.28,44.53l.08.76c.01.13.11.24.41.4-.16.25-.17.44-.48.71-.3-.65-.48-1.33,0-1.87Z"/>
      <path class="cls-1" d="M10.49,67.42c.38-.29.77-.45.88-.33l.46.53c.41.46,1,.77.77,1.51-1.03-.31-1.63-1.03-2.12-1.71Z"/>
      <path class="cls-1" d="M12.47,65.18c-.19-.02-.17-.26-.06-.37.05-.05.13-.2.3-.16.18.05.33.36.26.47-.06.09-.38.08-.51.06Z"/>
      <path class="cls-1" d="M30.71,12.79c-.32-.3.26-1.47.75-1.48.61-.01.54.8.28,1.1-.19.22-.51.67-1.03.39Z"/>
      <path class="cls-1" d="M44.77,99.85c.19.22-.02.44-.24.39-.08-.02-.22.08-.31-.12-.02-.05.36-.47.55-.26Z"/>
      <path class="cls-1" d="M.64,91.44c-.08.53-.27.83-.53,1.1-.34-.73.12-1.06.53-1.1Z"/>
      <path class="cls-1" d="M102.1,35.56c-.29-.35.52-1.28.88-1.08.41.23.39.73.12.88-.2.11-.71.51-1,.2Z"/>
      <path class="cls-1" d="M14.57,68.24c.19.14-.02.49-.22.6-.56.29-1.96-.76-2.19-1.73-.06-.26.13-.64.28-.71.49-.23.82.91,2.13,1.84Z"/>
      <path class="cls-1" d="M12.54,80.45c0,.3-.74.28-.79.1.09-.44.79-.46.79-.1Z"/>
      <path class="cls-1" d="M105.32,53.16c.12-.04.27.07.35.1.39.19.7.53,1.03.87l.42.43c.15.15.37.26.41.42.08.3-.26.71-.71.57-.76-.23-1.31-1.11-1.4-1.93-.12-.01-.19-.08-.22-.17-.05-.15.04-.28.12-.3Z"/>
      <path class="cls-1" d="M74.79,127.29c.42.03.29.88.05.82-.47-.11-.28-.84-.05-.82Z"/>
      <path class="cls-1" d="M73.27,122.62c.13-.08.27-.04.58.02l.65-2.6c.09.38.27.42.31.49.05.09-.02.3-.19.38.08,1.12-.02,2.37-.85,3.23.33.99.76,1.85.52,2.79-1.33-1.25-1.41-4.07-1-4.32Z"/>
      <path class="cls-1" d="M65.14,128.19c-.32-.08-.52-.3-.72-.73l-1.66-3.51c-.77-1.63,2.71,0,3.34,3.59.08.44-.57.76-.96.65Z"/>
      <path class="cls-1" d="M17.85,111.25c.13.12.07.26.14.43l1.23,3.1-.09,2.73c-.57-.43-.45-1.12-.64-1.69-.48-1.44-.83-2.69-1.02-4.08-.09-.22-.04-.32.03-.42.11-.15.27-.14.35-.07Z"/>
      <path class="cls-1" d="M66.72,122.25l-1.65-4.59-1.6-4.95c-.19-.6.9-.88,1.28-1.03l.77-.31.59.45,3.49.22c.94.06,1.9-.67,2.88-1.17.86.58,1.92.91,3.21,1.02-.75,4.39-2.16,8.4-4.19,12.29l-1.94,3.72c-.17.33-.53.6-.73.55l-1.53-4.93c.4.09.58.34,1.09.22-.55-.82-1.28-.4-1.68-1.5Z"/>
      <path class="cls-1" d="M68.72,132.66c.2.28-.01.55-.26.48-.14-.04-.13-.31-.04-.42.05-.06.15-.28.3-.07Z"/>
      <path class="cls-1" d="M74.13,130.35c-.21-.33-.38-1.09-.28-1.63l.91,1.41c-.03.35-.49.44-.64.22Z"/>
      <path class="cls-1" d="M87.98,109.42c-.23.06-.31-.22-.04-.25.39-.18.51.32.04.25Z"/>
      <path class="cls-1" d="M2.66,98.29c.14.84.51,1.52.9,2.16.53.87,1.51,1.05,2.41.68-.14-.29-.19-.49.03-.75.34,1.2,1.16,1.99,2.09,2.86.22.21.37.71.9.7.07.43-.18.47-.45.31-.71-.86-1.63-1.55-2.62-1.92-.06-.33-.23-.71-.56-.69-.28.02-.36.31-.49.57-.22.41.81.72.8.8-.01.11-.29.25-.14.55.72-.14,1.83.05,2.19.84.17.35-.06,1.17.26,1.35.33-.08,1.03-.27,1.05.06.04.72-.69,1.33-1.22,1.55l-1.29-2.04c-.1,3.34,2.86,3.71,2.42,4.51-.67,1.22-2.75-.61-3.32-2.31-.11.02-.21.16-.31.2l.53,1.89c.5,1.8,4.7,2.19,6.39.02-1.27-.39-2.72-.47-3.57-1.4-.32-.38.61-1.61,1.08-1.44,1,.53,1.81,1.6,3.04,1.59,1.58,0,1.95.31,2.51.37.31.03.67-.2.81-.56.09-.23-.45-.53-.55-.77-.33-.82-.86-1.99-1.57-2.54l-.48.19c-.17.07-.32-.31-.43-.44l-1.87-2.24c-.52-.63-1.31-1.3-2.03-1.71-.69-.4-1.94,0-2.68-.65-.51-.44-1.29-.26-1.74-.53l-2.06-1.24ZM12.78,106.5c.29-.24.54-.33.71-.35.13-.01.18.46.23.6.45.36,1.18.5,1.6,1.08-1.17.17-2-.58-2.54-1.33ZM11.38,105.24c.11-.05.37.04.54.17.23.18.26.39.21.54-.04.12-.22.19-.32.16-.09-.03-.22-.07-.41-.27-.19-.2-.17-.53-.02-.59ZM9.89,104.54c0-.14.09-.21.29-.1.18.1.33.32.29.46-.03.1-.34.09-.42.02-.08-.07-.16-.15-.16-.38Z"/>
      <path class="cls-1" d="M82.18,127.36c-.25-.07-.74-.28-.96-.47-.26-.21.22-.86.53-.94.33-.08.72.08.88.53.13.36.1,1.03-.45.88Z"/>
      <path class="cls-1" d="M5.46,98.65c-.08-.12.02-.33.11-.33.23-.01.76.2.87.38.08.12.03.27-.05.28-.3.04-.8-.14-.93-.33Z"/>
      <path class="cls-1" d="M84.61,133.24c.01-.1.17-.16.28-.1l.31.19c.37.22.73.39.93.79-.65.12-1.55-.64-1.52-.89Z"/>
      <path class="cls-1" d="M81.74,135.22c.14.04.35.22.2.52.39.39.66.78.74,1.39.16,1.2.75,2.19,1.41,3.16l1.94,2.87c-1.14,1.52-3.44,3.47-4.52,2.97-.19-.09-.27-.47-.35-.73-.57-2.03-.44-3.97-.42-5.96.02-2.35-.43-4.6,1-4.21Z"/>
      <path class="cls-1" d="M83.96,104.07c-.11.23-.24.27-.42.23-.36-.09-.53-.26-.29-.53.13-.15.25-.25.48-.23.26.02.33.31.23.53Z"/>
      <path class="cls-1" d="M56.61,104.14c.14.18.43.62.02.91-.55.08-1.17-.3-1.85-.47l.82-.65c.42-.32.76-.11,1.01.21Z"/>
      <path class="cls-1" d="M58.38,107.02c-.69-.08-1.2-.55-1.33-1.16.59.25,1.11.47,1.33,1.16Z"/>
      <path class="cls-1" d="M54.01,107.56c-.86-.42-1.72-.8-2.56-.98.02-.38.38-.59.47-.55l1.99.9c.35.16.26.68.1.64Z"/>
      <path class="cls-1" d="M53.54,106.22c-.68-.05-1.04-.34-1.28-.94.54.04,1.03.42,1.28.94Z"/>
      <path class="cls-1" d="M60.36,101.87c.52.6.99.92,1.7,1.23l-.45.63-2.13-1.16c.32-.36.56-.57.88-.7Z"/>
      <path class="cls-1" d="M58.98,104c-.13,0-.23-.1-.23-.23,0-.13.1-.23.23-.23s.23.1.23.23c0,.13-.1.23-.23.23Z"/>
      <path class="cls-1" d="M57.7,108.14c.06.15.08.26-.06.42-.14.15-.39-.03-.23-.2.05-.05.13-.06.06-.22.06.02.15.01.23,0Z"/>
      <path class="cls-1" d="M55.22,116.75c-.63-.33-.42-.72-.3-.92.19-.33.71-.42.8,0,.06.28-.28.76-.49.92Z"/>
      <path class="cls-1" d="M49.46,108.33c-.08-.36,0-.65.19-.86.54-.55.62.62,1.8,1.56-.01.31-.66.58-1.04.19-.32.41.05.56-.13.61l.54,1.68c.17.53.16,1.18.03,1.95-.88-.08-1.64-.78-1.97-1.59-.08-.22.67-.59.94-.31l.03-1.18c-.23-.38-.16-.97-.25-1.4l-.14-.64Z"/>
      <path class="cls-1" d="M56.38,106.06c-.01.29-.53.54-.83.45-.68-.23-.85-.7-1.39-.99,1.02-.39,1.79-.03,2.22.54Z"/>
      <path class="cls-1" d="M55.76,109.85c.28.25.42.61.55,1.1-.27.06-.62-.14-.76-.33-.18-.24-.02-.78.2-.77Z"/>
      <path class="cls-1" d="M52.63,112.72c.3-.11.41.27.31.48-.06.13-.21.25-.4.38-.08.1-.13.22-.41.2-.2-.01-.35-.21-.23-.33l.36-.37c.11-.11.25-.32.36-.36Z"/>
      <path class="cls-1" d="M54.97,114.1c.22.3.33.64.18.91-.27.45-1.36-.32-2.2-1.07.91-.21,1.68-.31,2.02.16Z"/>
      <path class="cls-1" d="M42.7,157.43c.08-.2.35-.54.6-.51,1.16,1.27.92,3.42,2.5,4.66.15.22-.45.56-.7.58-.32.03-.47-.17-.7-.64l-1.5-2.99c-.17-.34-.36-.74-.21-1.11Z"/>
      <path class="cls-1" d="M22.26,149.57c.34.47.44,1.1.44,1.67-.03,0-.16.02-.3.01l-.29-1.56s.13-.13.15-.12Z"/>
      <path class="cls-1" d="M22.68,97.39c.08-.07.26-.14.28.12.25,0,.17.15.1.23-.13.14-.19.21-.31.22,0,.17-.08.59.17.61.23-.02.31.13.2.34-.24.46-.37.83-.73,1.14l-.42-.88.55-1.26c.06-.13,0-.37.17-.52Z"/>
      <path class="cls-1" d="M23.16,155.05c-.16.4-.29.69-.12.8l.49.34c.23.16.32.4.16.7-.04-.24-.42-.35-.51-.13-.04.1.12.45-.27.49-.41.04-.61-.84-.58-1.29.03-.34.43-.81.83-.91Z"/>
      <path class="cls-1" d="M30.4,155.19c.09.17-.17.42-.27.46-.08.03-.25-.02-.31-.13-.15-.31.5-.48.58-.33Z"/>
      <path class="cls-1" d="M21.06,154.42c.03.44.7.98.16,1.53-.58-1.38-.75-2.66-.41-4.06.55.89.18,1.6.25,2.53Z"/>
      <path class="cls-1" d="M21.31,120.29c.43.97.66,1.96.14,2.97.13-1.3-.45-2.34-.14-2.97Z"/>
      <path class="cls-1" d="M60.24,143.01c.16-.08.36-.18.56-.03.3.22.02.63-.22.6-.13-.01-.25-.02-.46-.18-.11-.08-.05-.31.11-.39Z"/>
      <path class="cls-1" d="M58.06,139.16l.98,1.88c-.71-.17-1.14-.33-1.85-.7l.87-1.18Z"/>
      <path class="cls-1" d="M36.7,151.2c.56.02.97.46.8,1.1-.31-.31-.58-.42-.8-1.1Z"/>
      <path class="cls-1" d="M24.62,157.71l-.23.92.71.47c.46,2.06,2.9,4.08,4.2,3.91.6-.08,1.29-.52,1.87-1.2l-1.6-1.74c.82.18,1.26.59,1.94,1.03l-.45-1.37,1.75,1.26-.73-1.96c.95.45.67-.73,1.29-.68.34.39.83.73,1.11.61.14-.06.27-.24.34-.41.19-.04.49-.06.61.1.14.19.14,1.02.55,1.33.18.14.51-.04.67-.01l.29.05c.06-.28.41-.36.59-.15.08.1.3.21.42.28.53-.03,1.06.52,1.16,1.15.21,1.28,1.12,1.79,2.4,1.64.55-.06,1.97,0,1.96-.85-.03-1.36-.8-2.64-1.22-3.96-.15-.47-.82-1.01-1.15-1.34-1.92-.03-3.07-.02-3.71-1.3-.34-.68-.25-1.31.4-2.09-1.69-.74-2.93-2.18-3.15-3.86.82.45,1.04,1.02,1.93,1.11-.16-.43.12-1.16.58-1.15.95,1.23,1.65,2.73,2.82,3.61.39.3.82.6,1.15,1.06-.92.13-1.34-.46-2.18-.64.58,1.13,1.46,1.75,2.54,2.34-.13-.64-.23-1.06-.17-1.7.35.08.81.1,1.01.27.67.59,1.42.07,2.12,1.18.58-.26.72-.86,1.17-1.29l1.48-.33c.5-.31.94-.64,1.45-.35-1.14,1.33-1.52,2.91-1.89,3.13-.35.21-1.55-.53-1.83.44-.27.93,1.02,3.96,3.21,3.5l-1.19-2.56-.12-.53c-.02-.11.39-.12.52,0,1.18,1.07,1.69,2.69,2.26,2.78.62.1,1.36-1.23,3.08-1.55l1.76-.33c.25-.05.53-.29.54-.46.04-.68-1.28-.06-2.4.05-.52-.64,1.33-1.42,2.89-2.08.56-.24.83-.67,1.12-1.17.78.07,1.91.24,2.49-.21.7-.55,1.29-.78,2.15-1.06.69-.23-.6-2.74.4-2.3.45.2.71,1.57,1.14,1.41l3.19-1.18c.43,2.13-2.5,2.96-4.79,3.72.96.34,1.76-.31,2.63-.49l5.06-1.02c.26-.76.19-1.57.09-2.54,1.13-.32,1.27,1.73,2.56,1.68.05-1.43-.25-3.15-1.3-4.17-.51-.48-1.66.07-2.1.27v.93c.45-.15.95-.51,1.5-.02-.96.3-1.8.21-2.68.03-.01-1.36,2.2-1.57,1.79-2.31-.32-.57-1.1-.91-1.18-1.87,1.05.03,1.87,1.02,3.05.75-.08-.41-.14-.83-.03-1.18,1,.05,1.33,1.19,2.49.89.84-.21.87-2.08,1.69-2.34v1.39c.24.06,1.11.05,1.18.42.14.72-.46,1.32-.93,1.92.53.56,1.32.51,2.02.2l-.7-7.69c-1.07-2.05-1.54-4.28-.71-6.55.04-.37-.53-.68-.88-.52.05.14.07.33.06.45,0,.23-.22.32-.45.29-.86-.11-1.22-.49-1.59-1.12-.52-.87-.26-1.34.02-2.23l-.2-2.03c-.07-.7-.4-1.36-.77-1.78.35-.63.72-.26,1.52-.09-.41-.72-.47-1.25-.7-2.11-.68.75-1.24,1.59-1.31,2.51l-.33,4.39c-.1,1.29-.71,2.33-1.66,3.18l-2.73,2.44c-.15.13-.44.2-.56.23-.19.04-.41-.17-.47-.44-.32-1.25.42-2.22.79-3.35.61-1.88-2.41-4.8-2.53-3.33-.08,1.01.53,1.69.82,2.56.27.81.13,2.2-.55,2.61l-2.1,1.26c-.17.1-.46-.06-.52-.16-.25-.38,1.79-2.76.55-5.63-1.03-.04-1.97.16-2.98.49.63,1.93.78,5.45.06,5.9-.22.14-.77.21-.81-.16l-.28-2.91c-.07-.69-.52-1.55-1.11-1.91-.5-.31-1.77-.33-2.19.1-.22,1.22-.07,2.74.39,3.89.34.84,1.28,1.22,1.92,1.63l.73.47c-.71.67-2.22.18-2.76.84-.24.29-.02.47.12.57.79.58,1.71-.7,2.72-.77.4-.03.68,0,.88-.34.06-.13.61-.39.7-.23.54,1.62,2.01,2.51,3.65,2.59.95.04,1.32.56,1.74,1.23.54.85,2.67.7,2.59,1.24-.07.53-1.62-.22-3.57.02l.06.57c-.99.51-2.03,1.16-2.9,2.01-1.91.42-3.44-.63-4.5-1.99-.69-.88-1.43-1.48-1.86-2.54-.55-1.35-2.22-2.03-3.48-1.36l-1.97,1.04-3.25-2.9-.43,2.6c.84-.48,1.46-.44,2.05-.07.68.42,1,1.03.87,1.9l-.21,1.4c.38-.19.79-.26,1.04-.09.18.12.29.63.05.79-.58,0-1.03-.58-1.76-.16,1.63.93,2.41,2.6,2.99,2.97.22.14.33-.07.27-.24-.22-.61-1.32-1.51-.21-2.15l.72,1.29c.44.29,1.26.36,1.32.97l.23,2.27c-.56-.2-.91-.39-1.45-.39-.4.62-.8,1.31-1.52,1.6-.27.02-.48-.5-.56-.73-.11-.28-.09-.73.41-.94-.09-1.85-2.3-2.49-3.34-4.71.77-1.24.34-2.92-1.09-3.53-1.32,1.06-.86,3.06-1.71,3.42-.18.08-.61-.43-.39-.53.93-.41,1.12-2.36.23-2.74-1.07,0-1.83,1.75-1.81,2.85,1.7.25,2.47,1.31,3.27,2.63.46.76,1.49,1.23,1.69,2.3-2.73-1.2-3.89-4.28-4.9-4.29-1.39,0,.72,1.96,1.35,3.78-1.07-.23-1.46-1.18-2.13-1.77-.5-.44-.76-.91-.89-1.52-.1-.5.19-.94.61-1.45l-1.53-3.59c-.45-1.05-.62-2.5-1.25-3.42-.08-.12-.6-.24-.58-.37.02-.1.17-.23.51-.43l-1.43-1.95c-.23-.32-.84-.55-1.02-.26.44,2.51.99,5.34-.54,4.88.19-1.35.31-2.82-.31-4.01-.16-.22-.81.38-.67.64-.56-.17-.35-.71-.5-.86-.41-.43-.87-.09-1.11.11-.77.63.27,3.63-.74,5.44l-1.1-5.19c-.11-.49-1.1-.87-1.55-1.09-1.93.8-.14,3.95,1.02,6.48-.58-.04-1.15-.68-1.02-1.4l-1.12.37c.09-2.19-1.42-4.33-.2-5.63-.41-.38-1.92-.35-2.08.3-.59,2.34,1.48,5.24.17,5.44-.21.39-.06,1.01.17,1.41.64,1.1.92,2.16,1.25,3.35.22.8.93,1.56.63,2.52-.47-.21-.35-1-.57-1.23-.59-.43-.89-.72-.87-1.33l-.21.02-.09.68c.46,1.31.72,2.71,1.72,3.89.31-.53.42-.98.79-1.22l.4.63.67,1.32c.04.08.02.25.16.33.1.06.41,0,.3-.24l-.21-.48c-.05-.11.01-.28.23-.28.03.16.16.52.31.57.12.04.45-.35.46-.48l.28-4.06c.59.11,1.24.64,1.22,1.2l-.12,3.58c.21.19.4.34.46.49l-.51,3.2c-.06.39-.77.8-.57,1.53.12.42-.07.91-.36,1.22-.21.22-.76.41-1.25.33-.19-.11-.48-.8-.92-.37-.31.3-.38,1.15-1.12,1.34l-1.37-1.09c-.28-1.27,1.08-1.43,1.09-2.2,0-.43,0-.75-.59-1.01l-.65,1.14c-.73-.56-.72-1.38-1.03-2.03-.42-.89-.73-1.65-.41-2.69-1.91,1.47.98,4.11.55,6.46l-.06.23c-.02.09-.34.12-.36.03-.14-1.14-.61-2.35-1.69-2.9.02,1.74.77,3.34,1.41,4.84ZM29.74,144.68c-.2.06-.66.05-.7.23-.05.2.02.47.15.83.34.91-1.39.68-1.74-3.89-.04-.53-.57-1.29-.16-1.78.61-.71,2.2.43,2.14.56l-.51,1.23c.42.91.73,1.88.81,2.82ZM74.85,142.03c.24.19.16.78.1,1.03-.53-.03-.51-.38-.57-.66-.05-.21.19-.6.47-.37ZM65.67,138.32c-1.03.07-2.07.04-2.8-.82.09-.17.05-.61.5-.62.85-.02,1.68.47,2.24,1.09.33-.04.16.3.06.35ZM69.05,136.27l2.69,1.11c-.03-.72-.78-.94-1.02-1.39-.22-.42.38-.7.65-.71.4-.01.71.09.97.58.27-.28.56-.4.62-.79-.63-.16-1.37-.36-1.65-.87-.1-.18.18-.55.33-.55,1.09-.02,1.81,1.46,1.78,1.96-.04.73-.51,1.73-1,2.18-.25.23-1.08.71-.7,1.16.22.24.94.85.37,1.13-2.27-.82-2.72-1.42-3.05-3.81ZM67.38,141.45c-.68.96-3.49-1.13-5.08-1.82-.83-.35-1.82-.45-2.09-1.58-.06-.24.49-.55.86-.41l1.44.55c1,.59,2.04,1.24,3.3,1.25,0-.24-.1-.39-.07-.48.02-.05.06-.09.11-.15,0-.11-.01-.47.12-.49.63-.06,3.54.83,3.95,2.24l-2.51-.02c.01.3.13.71,0,.9ZM63.36,150.33c.1-.34.65-.92,1.07-.55.35.3.19,1.44-.16,1.57-.65.03-1.05-.54-.91-1.02ZM52.52,142.59c-.31.06-.64.12-.77-.3-.13-.42-.31-.84-.03-1.23.43.28,1.07.51,1.33.84.15.45-.26.64-.53.69ZM52.05,143.71c-.11-.25.34-.67.76-.67.31,1.14.62,2.23,1.71,3-.64.45-1.33.24-1.64-.45l-.84-1.89ZM48.98,157.18c.43-.23.82.35.97.67.22.47.35.87-.13,1.27l-.84-1.94ZM38.02,138.18c-.76.2-1.17-.11-1.29-.43-.15-.41-.17-.95.28-1.32.46.44.77,1.01,1.01,1.75ZM39.68,147.29c-1.2-.57-2.22-2.16-1.32-1.89.61.44,1.2,1.16,1.32,1.89ZM45.36,150.23c-.06.06-.33.18-.47.09l-1.44-1.24c-.14-.12-.17-.5-.07-.6.09-.1.36-.19.61-.14.86.17,1.61,1.64,1.37,1.9ZM47.08,149.58c-.02-.14,0-.33.13-.41.07-.04.23-.01.34-.07.25.17.11.22.07.3-.12.18-.42.28-.53.19ZM46.09,153.02c.46-.3.89-.04.98.2-.23.27-.85.15-.98-.2ZM43.82,151.14l-3.28-2.07c-.31-.19-.39-.43-.47-.64-.09-.25.12-.7.31-.56l2.83,2.23c.75.27,1.09.56,1.64,1.18.26.28,1.26.17,1.41.89-1.13.24-1.75-.58-2.45-1.02ZM38.56,149.57c.08-.32.64-.3.91-.07,1.23,1.01,2.51,1.81,3.91,2.56.79.43,1.68.91,2.02,1.74-1.09.04-1.64-.8-2.33-.88-.35.08-.74.26-.75.43-.25.15-.61.27-.74-.01l-.31-.63c.08-.16.27-.3.2-.59-1.09-.66-2.18-1.5-2.91-2.54ZM37.42,147.92c.09-.06.33-.01.36.12.16.07.2.27.22.5,0,.08.37-.04.46,0,.07.03.14.06.14.21,0,.26-.11.5-.35.61-.31.14-.61-.03-.52-.39-.15-.2-.35-.38-.4-.63-.03-.14-.04-.31.1-.42ZM36.06,140.48c.5-.62,1.37-.44,1.92.2.7.81.98,2.28.62,3.37l-2.54-3.58ZM36.07,148.74c-.03-.07.03-.21.15-.21l.02.66c-.23-.1-.21-.28-.17-.45ZM35.96,146.04c.23-.11.37.12.22.19-.25.13-.21.35-.09.44.42-.26.7-.16.89.06.24.29.12.83-.3.71-.48-.15-.79-.72-.99-.99-.21-.29.16-.36.27-.41ZM40.44,158.1c.94.89,1.42,2.16,1.72,3.38-.02.16-.53.18-.64.06-.2-.23-1.46-2.66-1.08-3.44ZM38.55,158.41c.18-.15.5-.02.51.19l.09,1.18c-.62-.44-.86-1.16-.6-1.37ZM33.96,136c-.16.19-.31.29-.49.25-.11-.02-.17-.28-.11-.44.22-.03.57-.04.6.19ZM34.35,147.47c-.53-.17-.83-1.24-.43-1.49.58.13.65,1.06.43,1.49ZM34.59,148.41c-.05.14-.2.5-.5.43-.22-.16-.2-.93.19-1.06.22-.07.38.43.3.63ZM33.42,151.64l1.74,1.14c.32.21.37.79.09,1-.83-.42-1.65-1.17-1.83-2.14ZM32.51,142.71c0-.13.1-.23.23-.23s.23.1.23.23c0,.13-.1.23-.23.23s-.23-.1-.23-.23ZM32.49,140.6c-.24-.23-.17-.5-.08-.62.3-.38,1.37.02,1.6.86-.51.21-1.13.15-1.53-.24ZM28.43,160.75c.04-.12.15-.19.25-.18.11.01.24.08.34.22l.58.85c-.75.02-1.3-.48-1.17-.89ZM26.08,157.5c-.12-.41.81-.68.91-.37.13.39-.8.74-.91.37Z"/>
      <path class="cls-1" d="M76.95,124.01c.55-.95,1.06-1.89,1.37-3,1.47-2,1.1-4.29,2.34-4.44.86,1.21.76,2.66.68,4.04-.08,1.38,1.38,3.66,1.55,3.03-.13.49-.83.35-1.04.65-.33.48.79.79.79.91l.06.86c1.57,1.39-.35,3.65,1.93,4.51l1.31.5c.43-2.73,1.41-5.24,2.12-7.99.57-2.23.58-4.63,1.73-6.77,2.45-4.53,5.05-8.98,6.79-13.91.21-.6.36-.96.36-1.61l-.48-.17c.23.49-.16.92-.63,1.28l-1.49,1.16c-.8.34-.95.81-1.29,1.54-.35.75-1.11,1.33-1.1,2.34,0,.27-.32.66-.59.66-.23,0-.43-.37-.57-.73-.71.52-.95,1.47-.85,2.34.15,1.22-2.17.76-1.48,2.56-.78.19-1.11-.45-1.64-.85-.64-.48-1.48-.68-1.95-1.36l-2.35,1.41c-.84-.46-1.66-.9-2.25-1.61-.51-.62-.19-1.62-.06-2.28-2.86-1.03-2.82,4.79-3.16,8.57l-.52,5.83c-.24,2.68-1.21,3.61-.64,5.05.25-.03.52-.04.79-.1.29-.82.6-1.51.27-2.41ZM85.2,123.6c.16-.85.22-1.27.55-1.58.21-.19.5.05.54.22.15.59-.62,1.65-1.09,1.37ZM83.18,125.07c.62-.4.66-.69.91-.77.3-.09.77,0,.76.25-.02.42-.45.97-.75,1-.28.02-.88-.36-.92-.48ZM82.35,121.05c.64,0,1.07.73.87,1.44-.49-.1-.88-.58-.87-1.44ZM80.14,114.6c.53-.08.83.3.88.84.03.33-.24.53-.5.58-.18.04-.52-.13-.85-.42-.46-.4.15-.95.48-1Z"/>
      <path class="cls-1" d="M59.55,142.91c.16-.03.25.05.27.12.05.16-.09.36-.28.45-.21.11-.4.08-.57-.04-.11-.08-.24-.18-.11-.33.14-.16.24-.24.48-.2.06.01.13.01.2,0Z"/>
      <path class="cls-1" d="M21.05,138.54c-.54-1.46-.85-3.04-.96-4.61l.35-.7c.14-.28.79-.13.75.16-.11.73-.33,1.31-.19,2.11l.51,2.88c.09.5.18,1.21-.15,1.69-.18.27-.49.1-.61-.04-.1-.11-.43-.3-.21-.6.2-.27.54-.53.52-.87Z"/>
      <path class="cls-1" d="M61.26,144.26c.07.35-.45.69-.74.45.04-.24.4-.53.74-.45Z"/>
      <path class="cls-1" d="M18.88,123.15l-.49,5.95c-.58-2.43-.05-4.61.03-6.89.46.12.48.68.46.94Z"/>
      <path class="cls-1" d="M18.58,149.37v.22c.45-.17-.04-.98.41-1.37.13-.12.22-.05.33.1.11.15.11.25.1.42l-.02,1.46c0,.37.1.66.27,1.02-.04.36.06.86-.25,1.05l-.25-2.04c-.06-.11-.19-.18-.19-.46-.26.12-.25.46-.2.93-.03.15-.47-.05-.42-.3.03-.12.03-.29,0-.42-.05-.23-.08-.55.21-.62Z"/>
      <path class="cls-1" d="M20.24,149.6c-.75-.25-.59-1.2-.3-2.34.22.83.29,1.5.3,2.34Z"/>
      <path class="cls-1" d="M18.97,121.77c-.11-.09-.19-.29-.28-.46-.25-.47.19-.99.73-1.32l.64,2.93c.05.24.14.38.11.71l-.75,7.2c-.27,0-.52-.32-.49-.62l.75-7.28c.06-.59-.22-.75-.71-1.15Z"/>
      <path class="cls-1" d="M72.23,147.86c.25.14.45.48.56.83l.8,2.36c-.19.22-.59.1-.75-.23l-1.53-3.05c.26-.12.64-.06.91.09Z"/>
      <path class="cls-1" d="M59.68,155.99c-.22.72-1.09,1.01-1.6.73.6-.58.93-.9,1.6-.73Z"/>
      <path class="cls-1" d="M61.83,128.21c.08.44-.33.71-.58.87-.28.18-.92.28-1.06-.05l-1.09-2.48c-.5-1.15-1.21-2.75-.65-3.22.67-.55,2.86,1.99,3.38,4.88Z"/>
      <path class="cls-1" d="M19.03,132.03c.5.42.32.94.32,1.51-.02,1.81.84,3.49.56,5.12-.09.5-.74,1.49-1.01,1.22-.54-.54.07-1.24.34-1.52l-.31-3.95c-.07-.83-.29-1.55.11-2.38Z"/>
      <path class="cls-1" d="M20.24,150.1l-.05,3.45s-.12-.03-.16-.11l.05-3.45s.12.03.16.11Z"/>
      <path class="cls-1" d="M19.09,143.73c.43.38-.2.66-.2.89l-.05,3.01c-.72-.86-.31-1.79-.48-2.63l.73-1.27Z"/>
      <path class="cls-1" d="M21.1,126.87l-.25,5c0,.17-.64.19-.71.05-.07-.13-.18-.38-.15-.68l.73-6.92c.74.74.42,1.69.38,2.55Z"/>
      <path class="cls-1" d="M19.19,142.18c-.07.17-.29,0-.32-.1l-.12-.44c-.07-.26.12-.41.23-.32.05.04.06.14.22.07-.03.07-.02.16.03.21-.02.18.04.39-.04.57Z"/>
      <path class="cls-1" d="M58.95,102.75c-.11,0-.21-.09-.21-.2s.09-.21.21-.21.21.09.21.21-.09.2-.21.2Z"/>
      <path class="cls-1" d="M74.29,88.14l.13.37c.06.18.38.78-.04.9-.18.05-.31-.42-.18-.58.12-.14-.31-.32-.22-.58.04-.12.3-.18.32-.11Z"/>
      <path class="cls-1" d="M34.68,5.32c.83-.52,1.53-.92,2.58-.68-.78.61-1.55.78-2.58.68Z"/>
      <path class="cls-1" d="M93.86,94.42c3.53-.86,7.11-.63,10.63-.92.6-.05,1.57-.82,1.45-1.32-.61-1.02-2.06-1.31-3.22-1.36l-6.94-.27-3.24-.6c.06-.37-.08-.67-.44-.78l-4.04-1.18c-.17-.05-.36.26-.24.39.16.18.35.3.57.36l2.44.65v.25s-3.26.22-3.26.22c-.09.25-.21.51-.42.53-1.46.09-3.17-1.89-3.12-4.09.02-1.12-.26-2.04-.5-3.08-.97-4.21-4.88-4.3-4.49-3.35.25.62,1.38,1.17,1.33,2.38-.02.53-.41,1.43-1.1,1.65-.74-.19-1.65-1.03-2.13-1.74-.98-1.47.85-2.06.65-2.61-.14-.39-2.3-1.26-3.88-2.5.3,1.1,1,1.78.53,2.77.55-.03,1.02.04,1.52.47l-2.09.81c.42,1.19,1.19,2.08,1.41,3.39-.92-.32-.78-1.42-1.83-1.54,1.05,1.33,1.66,2.6,2.03,4.13l.94,3.88c-.43,0-.63.15-.73.3-.18.24-.22.52-.06.9-1.61-.36-1.08,3.06-4.78,3.8-3.24.65-5.81,3.26-7.45,1.53,1.85-.26,2.16-1.75,2.29-.36,1.38-.58,3.35-1.42,2.98-2.35-.9.74-1.56.32-2.18-.4l-.53-.2c-.11-.04-.15-.37-.13-.58l.26-2.84c-1.16-.14-1.67-1.13-1.52-2.37l-4.13-1.97c-.4.23-.76.58-1.28.44l.7-.72c-.57-.27-.71.4-.94.48-.56.21-1.23.24-1.45.91.53.11,1.01.3,1.24.58.25.32.3.92-.04,1.34-.35-.87-.84-1.59-1.76-1.86-.29.3-.79.94-1.23.79-.41-.14-.77-.37-1.14-.55.54-.13.81-.02,1.1-.16.38-.17.34-.78.04-.79-.32,0-.63.06-.76-.17-.06-.11-.08-.3.03-.52l-.4-.56c-1.37-.26-2.61-.75-3.76-1.7-.37-.1-.52.42,0,.5-.12.47-.12.82.07.96.23.17.66.18,1.05.11-.08.31,0,.56.18.69.1.07.5.1.57.21.2.34.49.76,1.26.48-.05.57-.56.81-1.18.83.2-.35.14-.53.06-.73-.12-.3-.32-.32-.62-.36-.78-.09-1.44-.43-1.65-1.28-.84-.02-1.21-.55-1.37-1.3-.42-.54-.16-1.4-.96-1.62l-.22,1.04c-.03.14-.41.44-.59.22l-1.28-1.59c-.21.55-.24,1.04-.93,1.14.43-1.64-.54-2.67-1.44-3.77-.68-.84-1.3-1.43-2.68-1.38l2.17-3.06-2.51-.32c-.33.64-.9.6-1.21.83.28.31.47.33.61.37.1.03.05.48-.05.45l-1.51-.52c.04.79-.29,1.34-.92,1.37-.49.03-1.03-.28-1.16-.9-.25-1.16-1.07-2.29-1.2-1.61l-.47,2.39c-.52-.19-1.7-.06-1.76.51-.27,2.73-.29,5.4-.98,7.99-.27.11-.55-.1-.56-.27l-.05-.66c-.07-1.02.04-1.77-.63-2.5-.11-.12-.1-.36-.05-.45.31-.55.56.6.83.63.81.1-.39-.99-.82-2.07.16-.75.26-1.72.77-2.25l1.34-1.39c-.47-1.06-1.2-1.73-1.97-2.31-.89-.67-2.17-.76-3.1.39.59.19,1.1.28,1.55.26l-.24,2.36c-.03.21-.64-.03-.73-.21-.48-.2-.54-.68-.75-1.3-.33.78,0,1.66-.04,2.45l-.1,1.79c-.5,1.58-.55,3.37-1.36,4.91-.52.99-2,1.45-2.01,2.81l1.94.86.45-2.33c.04-.2.27-.42.35-.53.61-.89.19,1.87.66,3.83.65-.92.95-1.8,1.89-2.31l1.02,1.94c.15.28.34.62.16.87l-.37.54,3.34.92c.75,2.46,2.82,4.1,3.57,6.98.34,1.3,1.09,1.64,2.34,1.91.62.44.58,2.05.11,2.72l.89,1.05c-.08.79.11,1.94-.33,2.73-1.9.93-1.68,3.79-4.9,5.21-.69-.39-1.08-.71-1.98-.75-.13,1.03-1.3,1.66-1.58,2.34l-.54,5.18c-.06.59.35,1.56-.63,1.96l-.41-2.79-1.59-.4c-.45.86-.25,1.76-1.07,2.5l.15-3.31c.02-.34-.38-.59-.61-.65-.5-.12-.43,1.05-1.45,1.11-.25.02-.73-.41-.52-.7l.38-.5c.06-.08.06-.39-.07-.47-1.36,1.18-.65-.87-1.98-2.03-.08,2.19.38,4.28-.22,6.16-.2.64-.72,1.05-.67,1.92l.26,4.75.46.22c-.1-1.25-.05-2.55.35-3.9.56.64.33,1.55.55,2.17.09.21.76.12,1-.26.48,1.07.46,1.98.07,3.02-.26.68.35,1.83-.2,2.66-.15.22-.34.44-.24.66.29.63.77-.1,1.59.71l-.1-4.44-.57-2.44c.54-.14.45.44.62.52.55.28,1.53-.07,2.19-.43-.97,2.43-2.19,6.16-.38,6.95.57.25,1.45.38,1.91-.02l-.08-8.39c.6-.3.83.35,1.15.67.53.53,1.17-.13,1.88-.11-.5.88-1.51,1.47-1.56,2.46l-.27,4.89c-.01.24.1.86.32.99,1.12.26,2.36.19,3.55-.18-.01-2.9-.82-5.48-1.7-8.27l1.85,2c.32.35,1.07-.35,1.42-.41.52.05.28.72.07,1.08-.92,1.59-1.42,3.55-.49,5.29.6.52,2.27.35,2.85-.17,1.78-2.44-.36-5.33.01-6.58.02-.08.21-.14.4-.07.58,1.76.91-1.86,3.72-2.08l2.52,1.75c.67-.21,1.22-.62,1.92-.6-.1.83-.86,1.35-1.22,1.97-.13,1.71-.11,3.46.34,5.18.13.49,1.43.6,1.57.16.97-2.99-1.71-5.01-.14-7,.62.46.64,1.14.72,1.75l.74,5.79c1.29.11,2.63-.13,3.82-.75-.55-1.33-1.28-2.75-1.29-4.25-.26-.49-1.39-.95-1.2-1.76.14-.62.97-.24,1.27.1.43.49.81.86.79,1.48.96-.15.27.89,1.77,2.62.26.3.29,1.04.93,1.23l-.18-1.74-.51-2c-.07-1.14.04-2.45.49-3.58.59-1.52,2.96-.85,3.17-1.54.04-.13-1.24-1.87,1.57-3.7.25-1.71.12-3.35.81-4.45-.65-1.27-.44.5-1.3,1.05-1.32.84-.24,2.55-1.21,2.39-.15-.32-.05-.6,0-1.02-.4.35-1.1.9-1.22,1.47-.31,1.48-.17,3.21-1.25,4.71-.98-1.53-1.06-3.49-1.29-5.13-1.43-.47-1.55-2.9-2.58-2.34-.29.16-.57.23-.74.17-.15-.05-.27-.27-.38-.75-.79.48-1.57.35-2.23,0-.14.33-.37.03-.49.01.11.36.1.83-.24,1.09-.88.67-2.32-.1-2.6-.89-.23-.65-.2-1.28-.22-1.82.42.05.5-.45.36-.76-.09-.2-.37-.47-.62-.56l-.15-.31c-.14-.3,1.64-.56,1.53-2.45,2.84.15,3.19-2.67,4.3-2.29.65.22.78-.77,1.11-1.01.4-.3,1.16-.37,1.39-1.04l-1.44.22-2.8-1.39c.21-.62.82-.31,1.21-.18,1.77.58,3.63.64,5.54.66.09-1.97-3.09-1.08-4.69-3.45l3.14-.27c1.47.18,2.73.93,4.09,1.76.07-.99-1.29-1.59-1.99-2.82,1.66-1.14,2.64.94,2.83.93.1,0,.26-.3.36-.34.69-.3,3.79.93,5.14,1.84,1.39.15,3.1-.91,4.29.39-1.74,0-3.3-.17-4.69.51.19.29.12.54,0,.64-.28.21-.99-.81-1.36-.81-.37,0-.75.35-.94.61.62.52,1.02,1.07.96,1.76-.4-.16-.73-.11-.95.05-.43.31.67,1.4,1.53,1.31.24-1.62,1.3,1,3.48.7,1.79-.25,3.65-.44,5.38-1.12,2.33-.92,4.54-1.96,7.04-2.27,1.8-.23,3.3-1.04,4.86-1.99.69-.42.73-1.18.74-1.98l4.89-2.16c1.42-.63,2.59-1.96,4.04-2.31ZM65.6,104.61c-.49-.46-1.14-.87-1.18-1.53,0-.16.31-.24.46-.14.5.34.91.91.72,1.67ZM52.22,120.65c.34-.22,1.3,1.34.76,2.48-.84-.47-1.02-2.31-.76-2.48ZM25.17,118.9c-.48,1.52-.46,2.94-.67,4.56-.93-.69-.55-3.88.67-4.56ZM27.52,122.23c-.37-.76-.23-1.3-.09-1.84.47.53.47,1.25.09,1.84ZM33.87,115.52l-.03.67c0,.17-.33.52-.64.36-.16-.23.12-.82.33-.99-.36-.77-.3-1.66.53-2.17.32.74-.16,1.42-.19,2.13ZM35.72,115.38c-.28.24-.61.45-.92.23-.35-.24-.41-1.28-.1-1.55.62-.09,1.18.82,1.02,1.32ZM36.66,115.88c-.28.47-.65.75-1.19.81.26-.54.64-.79,1.19-.81ZM37.1,117.01c.07.25.05.62-.11.69-.23.1-.47.01-.5-.1-.06-.22,0-.55.31-.68.05-.33.46-.23.29.09ZM37.29,120.02c-.22.24-.53,0-.65-.3-.08-.21-.14-.6.2-.68.21-.05.52.2.58.33.07.13.06.44-.13.65ZM29.41,79.51c.04.19-.1.31-.26.47l-.28.26c-.08.07-.27,0-.31-.11-.04-.14-.01-.26.17-.33.04-.05.09-.21.24-.2,0-.09.04-.17.11-.2.13-.07.29.03.31.11ZM47.15,97.47c.21.56.55.97.44,1.75-.94-1.01-1.04-2.1-.44-1.75ZM43.3,105.85c-.14-.42.28-.92.79-1.13.29.95,1.04,1.29,1.98,2h-1.28c.44.48.9.95.49,1.7-.81-.79-1.62-1.55-1.97-2.57ZM43.77,113.44c.15.13-.03.39-.2.23-.05-.05-.06-.13-.21-.06-.02-.07-.03-.15-.02-.23.16-.06.27-.08.42.06ZM44.92,115.06c.11,1.93.11,3.73.56,5.56.16.67.74,1.26.44,2-1.02-.86-1.71-1.82-2.3-2.88-.71-1.28-.37-4.54,1.3-4.68ZM40.22,119.39c.39.99.9,1.26,1.75,1.7-.58.55-1.15.91-1.98,1.24-.47-1.09-.45-2.04.23-2.93ZM40.64,108.35c.04.12-.04.18-.11.22-.08.04-.3-.02-.3-.11v-.33s.41.22.41.22ZM37.78,91.31c.15.65.5,1.15.94,1.4.18-.26.42-.33.6-.37.29-.07.59.08.51.31-.04.12-.22.58-.1.71l3.23,3.54c.14.16.36.4.5.38.14-.02.55-.22.57-.37-.15-.54-.58-.85-.5-1.52,1.69.61,3.3,1.73,2.83,2.7-.18.37-.48.69-.91.97.46.5.68,1.08.7,1.81-.57.2-.93.28-1.38.58,1.15.87,1.85,1.75,1.17,1.96-.59.19-3.49-3.04-3.95-5.69-.47-2.65-2.57-1.72-4.03-4.39-.33-.61-1.06-1.29-.17-2.01ZM34.16,91.08c-1.07-.12-1.81-.36-2.59-.83,1.17-.73,2.17-.05,2.59.83ZM34.95,90.92c-.21.04-.45,0-.47-.33-.03-.75-1.47-1.43-1.3-2.3.18-.94,3.07,2.39,1.77,2.64ZM45.91,88.65l-.32-.57c-.18-.33-.21-.99.05-1.05.52-.14.95.17,1.13.52.14.27-.59,1.59-.87,1.1ZM47.88,89.84l-2.02-.14c.29-.79.7-.78,1.35-.72.37.04.76.44.67.86ZM50,87.21c0,.19-.14.27-.29.27-.37,0-.77-.24-.92-.69-.07-.21.06-.37.3-.28l.5.19c.28.11.42.3.42.51ZM51.05,90.02c-.74.49-1.09.89-1.01,1.61l-1.69.37c-.61-.1-.51-1.05-.25-1.3.32-.31.98-.43,1.53-.18-.02-.95-.96-1.92-.14-1.82.12.01.2.13.35.26l1.21,1.07ZM53.88,91.69c-.07.09-1.59.58-1.8.26.48-.19.64-.62.45-.97-.1-.19-.32-.36-.62-.68.27.01.61.01.74-.25.26-.52-.63-1.46-.02-1.43.2,0,.66.67.65.97-.02.41.29.88.54,1.29.19.32.26.55.06.8ZM55.13,90.03c-.11.12-.37.48-.51.31-.11-.15-.23-.22-.24-.3-.01-.15.15-.28.22-.36,0-.1.09-.13.16-.05.38-.19.59.16.36.4ZM57.05,90.44c-.35-.07-.45-.66-.3-.76.27-.21.52.1.59.26.08.18.03.57-.29.5ZM60.37,91.14c-.02.24-.23.63-.63.6-.1,0-.82-1.09-.77-1.21.08-.19.25-.25.34-.25-.04,0,1.08.63,1.06.85ZM62.14,90.45c-.84-.19-1.54-.62-1.41-.85.18-.3,1.58.13,1.41.85ZM62.71,94.53c.05.22-.15.38-.31.35-.55-.08-.8-.62-.75-.8.02-.07.27-.09.34-.06l.35.12c.2.07.34.27.37.39ZM62.85,97.35c-.3-.21-.86.32-.73.25.14-.08.6.58.45.62-1.6.44-3.28-.35-4.84-.89l-4.82-1.66c-2.4-1.2-4.81-2-7.27-2.9-2.06-.76-3.59-2.18-5.06-3.69l-2.63-2.7c.24-.17.54-.32.63-.77l-1.89.62c-.2.07-.59.02-.69-.13-.27-.42.45-1.05.42-1.56-.01-.24-.44-.43-.51-.67-.08-.28-.25-.48-.51-.71-.19-.13-.03-.41.19-.21-.04-.79-.34-1.72.05-2.58.34-.74,1.29-1.68,2.03-1.87,1.85-.46,3.53.5,3.59,1.44.05.77-2.12.44-1.73,1.26.24.52.81.86.24,1.57.63-.06.92-.08,1.34.12-1.05,2.47.92,2.94,1.08,3.42.22.65.14,2.09.79,2.61.85.68,1.56,1.19,2.38,1.82l1.31,1c1.89,1.45,4.84,1.21,5.46,1.59.76.46,1.47.06,2.14-.02,1.59-.18,3.17-.59,3.99-2.09.32.23.31.44.33.58.07.48-.85.5-1.26,1.37.44-.04,1.19.65.86,1.02-.71.79-3.73-1.11-2.56.47,2.19,2.96,3.29,2.03,3.66,2.19.13.06.21.34.29.5.67.27,1.64.38,2.26.11,0-.32.16-.69.57-.68.22,0,.58.25.47.55ZM69.77,99.02c-.09.31-.94.1-1.17-.06-.16-.03-.28.08-.24.23.37.15.85.34,1.07.87-.04.18-.5.25-.72.16-.15-.06-.29-.19-.32-.43-.09.02-.16.03-.23.02-.15-.01-.33-.18-.4-.32-.13-.24.1-.26.16-.33.1-.12.26-.36.43-.4-.07-.44.37-.69.72-.59.26.08.86.35.71.85ZM75.53,97.5c-.08.05-.31-.07-.31.22,0,.23-.32.23-.58.22h-.56c-.13-.01-.15-.28-.12-.43.04-.17.23-.38.46-.21l.28.21.25-.2c.08-.07.33.05.37,0,.15-.17.37.1.21.19ZM78.25,99.88c.26.53-.06,1.23-.54,1.45-.45.21-1.07.11-1.27-.47,2-.4-.85-3.05,0-3.65.09-.07.22-.06.52.05l1.29,2.61ZM80.47,91.35c-1.3-.47-2.18-2.41-1.73-2.46l.41-.04c.69.62,1.34,1.4,1.33,2.5ZM83.69,90.69c-1.1-1.48-2.12-3.85-1.52-4.26.64-.43,1.04,1.1,1.4,2.55.14.56.55,1.11.11,1.71ZM85.62,95.47l-1.27-.55c-.27.91-1.23,1.25-1.44,1.96l-.61,2.11c-.5-.37-1.12-.44-1.67-.13-.42.24-.39,1.58-1.2,1.67-.18.02-.18-.54-.33-.76-.66-.93-.57-2.41-.81-3.79-.14-.83-1.27-1.5-.66-2.48l1.6,3.54c.18.4.56.48.81.38.97-.38.05-1.29.02-2.52.39.09.71-.16.8,0l.38.68c.81-.36-.24-2.17,1.67-2.84l2.22-.78c-.24,1.14,1.28,1.97.48,3.51ZM86.4,96.21c-.9.63-1.99.85-2.23.37-.28-.55,1-.72,2.23-.37ZM91.13,94.75c-.36.82-1.61.55-2.29.21-.66-.33-1.08-.9-1.29-1.78,1.81-.42,2.66-2.05,3.72-1.4,1.28.77-.47,1.44-.14,2.96Z"/>
      <path class="cls-1" d="M29.89,117.52c-.15-.32-.11-.7.06-.84.06-.03.11-.07.08-.16-.04-.16.05-.25.12-.26.13-.03.39.09.47.29.17.44-.27.95-.73.97Z"/>
      <path class="cls-1" d="M33,106.37c.29.6.58,1.18,1.19,1.55-.16.73-.75.96-1.05,1.43-.48.73-.35,1.58-.48,2.45-.98.04-1.92.4-2.78,0,1.74-1.1.84-2.94,1.69-4.55.27.61.2,1.15.3,1.74.72.01,1.04-.43,1.21-.85.22-.57-.26-1-.08-1.77Z"/>
      <path class="cls-1" d="M28.88,114.33c.5.28.63.65,1.23.65-.37-.75-.9-1.22-1.1-2.16.88.6,1.47,1.47,1.38,2.65-.73.19-1.49-.35-1.51-1.14Z"/>
      <path class="cls-1" d="M.56,84.89l1.03,3.09c.24.71.23,1.21.89,1.62.06.45-.19,1.36.19,1.74.11.11.45.14.5.24.05.1-.3.34-.5.43.28,2.13,3.89,6.33,5.47,6.49,1.11.11,2.15.04,3.2.39,1.08.37,2.08-.17,3.08-.78.27.22.61.82.46,1.18-.19.18-.79.22-.85.68.57.19,1.16.56,1.84.61l.92-.3c.23-.08.59.79,1.05,1,.1.05.29-.35.32-.4.23.09.33.12.42.06.16-.12.23-.32.17-.52l-.57-1.82c.34,0,.52.13.82.33.48-.56.26-.99.16-1.66.6.3.62.88.63,1.44,1.09.19.61-1.52-.08-3.34.32-.16.51,0,.74.08.02-.09.05-.2.11-.23.06-.03.24,0,.3,0,.01-.46-.14-.98-.6-1.31-1.86,1.32-3.72,2.22-5.86,2.72-1.72,1.17-3.93.88-5.15-.76-.17-.35-.04-.67.26-.67.46,0,.84,1.62,3.51,1.29.82-.1,1.96-.63,2.22-1.67-.44-.05-.69.15-.83.1-.17-.07-.17-.4-.04-.49.13-.09.9.13,1.38.54.2.04.77.04,1-.1l3.26-1.94c1.54-.91.84-2.15,2.08-1.66-.21-.39-.15-1.04-.36-1.26-.34-.36-1.05.1-1.08.64-.02.35-.25.67-.51.69.11,0-1.54-.96-1.85-1.59.09-1.54.15-3.05-.69-4.39l-1.04-.73c-.18-1.81-1.32.03-2.78-.61l2.13-.81c-.87-.73-1.49-1.55-2.54-2.08-.21.22-.44-.01-.35-.1.08-.07.19-.34-.1-.45-.32.47-.62.96-1.18,1.35,1.12.36,1.89.71,2.91,1.35l-1.06.27c-1.15.29-1.8-2.46-3.7-1.72.08.68-.15,1.28-.26,1.97l-.07.45c-.01.07-.11.13-.41.1-.19-.46-.21-1.05-.59-1.6-.63.65-.53,1.35-.79,2.07-.8-.25-1.23.11-1.65.7-.49-.38-.7.4-.05.23,0,1.72.61,3.24,1.31,4.85l1.6,3.68c-.48.44-.67,1.01-1.19,1.2-1.68-.51-2.43-2.25-2.8-3.8-.6-.23-.71-.87-1.01-1.42-.67-1.23-1.09-2.3-1.41-3.61-.14-.57-.71-1.5-.49-2.05.41-.55.78-.89.74-1.68l-.19-3.84c-.04-.79.18-1.63-.6-2.19-.54-.39-1.16-.98-1.95-.5.38.43.68.96.54,1.19l-.52.83.45,6.48ZM16.95,90.63c.11-.36.71-.33,1.02-.14.58.35.53,1.66,1.81,1.18.12.34.14.51.11.97-.75.09-1.75.24-2.48-.23-.46-.29-.63-1.21-.46-1.77ZM13.22,90.34c.01-.11.05-.39.41-.28.2.06.13.68-.12.69-.27.02-.3-.27-.29-.41ZM15.02,98.05c.23-.27,1.47-.95,1.69-.85.16.07.47.42.28.62-.41.42-.94.66-1.64,1.02-.22.11-.6-.47-.33-.79Z"/>
      <path class="cls-1" d="M2.91,106.24c-.75-.56-.69-1.42-.45-2.13.51.75.23,1.42.45,2.13Z"/>
      <path class="cls-1" d="M57.37,130.02c-.18-.59.12-1.16.4-1.17.42,0,.57.63.43.87-.18.32-.75.57-.83.3Z"/>
      <path class="cls-1" d="M26.6,113.2c.04.22-.16.3-.21.35-.05.05-.26.07-.29-.1-.02-.12.45-.47.49-.25Z"/>
      <path class="cls-1" d="M52.77,133.23l.6,4.28c.05.34-.07.76-.33.9-.72.39-2.08-2.51-1.96-4.44.16-.59,1.26-.85,1.69-.74Z"/>
      <path class="cls-1" d="M45.33,135.49c-.15.06-.43-.06-.54-.28l-.78-1.58c.85-.92,2.18-1.17,3.61-.43.67.35,1.45,1.47,1.98,2.22.38,1.27.1,2.78.04,4.24-1.49-.64-2.79-1.94-3.15-3.39.04-.88.77-1.73.44-2.73-1.37.32-1.26,1.8-1.6,1.94Z"/>
      <path class="cls-1" d="M27.06,112.9c-.13-.28.01-.67.08-.89.09-.3,2.05-.9,1.88-.16-.36.69-1.32.7-1.96,1.06Z"/>
      <path class="cls-1" d="M39.69,139.85c0-2.61-1.27-4.76-.34-7.08l3.53,2.02c.62,1.79.9,3.53.69,5.43l-3.87-.38Z"/>
      <path class="cls-1" d="M42.66,133.09c-3.12-1.93-2.19-6.61-.02-9.4l1.88,3.23c.38.65.42,1.68.41,2.44,0,.89-1.12,3.4-2.27,3.72Z"/>
      <path class="cls-1" d="M28.18,114.37l-.45.05-.26.46c-.09.15-.54.08-.49-.13.14-.57.82-.94,1.42-.75.11.21-.04.35-.22.37Z"/>
      <path class="cls-1" d="M29.83,133.06c.03.06.26.01.23.24-.04.31-.35.28-.55.26-.16-.02-.53-.09-.5-.5.01-.22.72-.22.83,0Z"/>
      <path class="cls-1" d="M32.17,132.76c-.11.5-.51.75-.87.92-.47.21-.88-.03-1.02-.44.82-.4,1.15-.6,1.89-.48Z"/>
    </g>
  </g>
</svg>