<?xml version="1.0" encoding="UTF-8"?>
<svg id="Layer_2" data-name="Layer 2" xmlns="http://www.w3.org/2000/svg" viewBox="0 0 114.31 163.01">
  <defs>
    <style>
      .cls-1 {
        fill: #fff;
      }
    </style>
  </defs>
  <g id="Layer_1-2" data-name="Layer 1">
    <g>
      <path class="cls-1" d="M87.46,72.99c-.19.09-.31.28-.26.47.03.11.3.05.4.01.14-.06.23-.21.14-.34-.04-.06-.15-.19-.28-.14Z"/>
      <path class="cls-1" d="M86.44,72.91c-.17.25-.06.46.06.59.1.11.37.15.45-.05.06-.14.03-.32-.04-.52-.05-.12-.28-.3-.46-.03Z"/>
      <path class="cls-1" d="M85.84,66.71c.16-.16.31-.26.4-.6.09.06.67.3.8.02.27-.62-.13-1.52-.91-1.6.05.64.17,1.05-.02,1.31-.29.4-.5.61-1.07.93.29.28.57.18.79-.05Z"/>
      <path class="cls-1" d="M89.48,84.11c-.04.13-.05.43.1.49.18.08.25-.04.33-.2l.42-.83c.12.01.18-.05.2-.13.05-.15-.04-.28-.12-.3-.23-.06-.72.46-.72.63v.21c-.13-.03-.18.05-.21.12Z"/>
      <path class="cls-1" d="M91.04,91.04c.05-.81.05-1.07-.36-1.64-.55,1.09-1.23,1.8-1.76,2.74.85-.38,1.07-1.25,2.13-1.1Z"/>
      <path class="cls-1" d="M88.91,110.93c.76-.75,1.1-1.66,1.16-2.87-1.1.51-1.61,1.57-1.16,2.87Z"/>
      <path class="cls-1" d="M91.24,86.25c.27-.07.72-.63.41-.8-.29-.16-.7.02-.9.04,0-.13-.06-.22-.14-.26-.11-.05-.29.03-.3.12-.04.27.65.98.93.9Z"/>
      <path class="cls-1" d="M91.46,92.65c-.19-.32-.51-.05-.64.04-.21.14-.39.31-.29.67l.55,2.04c-.27.41-.77.75-.78,1.34,1.53-.69,1.97-2.73,1.16-4.08Z"/>
      <path class="cls-1" d="M74.27,67.84c-.11-.17-.38-.12-.5-.09-.13.04-.37.25-.22.4l.23.22c.1.1.24-.08.33-.16.17-.12.24-.25.16-.37Z"/>
      <path class="cls-1" d="M73.02,70.8c-.03.28.22.92.75.64.28-.15.28-1.16,0-1.29-.39-.17-.72.36-.75.64Z"/>
      <path class="cls-1" d="M75.83,75.66c.26.16.57.36.98-.18-.26-.27-.72-.73-1.05-.71-.45.17-.23.7.07.89Z"/>
      <path class="cls-1" d="M83.74,66.72c.45-.88.9-1.44,1.18-2.35-.7.66-1.16,1.36-1.18,2.35Z"/>
      <path class="cls-1" d="M84.79,66.87c.08-.03.31-.16.1-.42.27-.34-.22-.56-.3-.15-.25.09-.37.4-.29.49.11.12.38.12.5.07Z"/>
      <path class="cls-1" d="M83.91,62.83l1.19-2.46c-.72-.51-1.2,1.02-1.19,2.46Z"/>
      <path class="cls-1" d="M86.02,65.4c.14-.4-.52-.63-.61.06-.14.1.27.4.61-.06Z"/>
      <path class="cls-1" d="M57.61,7.95c0,.26.36.32.52.23.11-.06.3-.25.29-.33-.41-.25-.81-.04-.81.1Z"/>
      <path class="cls-1" d="M93.2,84.17c0,.31.22.57.37.64.2.09.58-.01.61-.2l.15-.82c.07-.38.26-.82.47-.86l.83-.12c-.45-.98-2.46.32-2.43,1.36Z"/>
      <path class="cls-1" d="M94.44,66.06c-.26.17-.45.36-.59.6.57.11.7-.31.59-.6Z"/>
      <path class="cls-1" d="M67.4,79.71c-.16.01-.58.81-.3,1,.15.1,1.02.04,1.35-.4.21-.28.01-.76-.15-.68l-.89.08Z"/>
      <path class="cls-1" d="M92.24,84.98c-.36.22-.35,1.89.27,2.48.28-.86.53-1.48.48-2.22-.03-.43-.55-.38-.76-.25Z"/>
      <path class="cls-1" d="M4.91,51.88l4.1-4.23c.31-.32.98-.3,1.16.1-.59,1.23-1.5,2.21-1.97,3.59.93.79,1.99-.64,2.45-.22.12.11-.43,1.03,1.85,2.98,1.39,1.18.29,2.24-.12,4.04l.88.95c-.84.2-1.43-.09-2.06-.55-.62-.46-1.55.24-2.14.27-1.5.09-1.83,1.61-3.55,1.62,0,.64.18,1.08.32,1.69l2.28.15-.9,1.51c1.79.34,3.43-.6,4.65-1.82.35-.35.87-.38,1.19-.18-.14.41-.66.39-.83.5-.94,1.2-2.1,1.95-3.34,2.74l-2.11,1.35c.4.13.86.16,1.25.04l4.84-1.44c-.58,1-1.44,1.44-2.25,1.93l-1.61.47,1.78.98c.2.14.5.24.63.44.21.2.64.11.78-.04l.27-.29c.46-.49.18,1.28.81,1.91.48-.72,1.1-1.12,1.86-.91-.5.94-1.3,1.07-1.51,1.9-.11.46-1.12-.44-2.09.09l.77,2.22c1.1.26,1.89-.35,2.66-.84.52-.28.84.79.98,1,.56.21,1.07-.56,1.36-.8.41,0,.63.72.38,1.16.29-.18.41-.38.83-.45l-.33-1.54c-.43-.03-.97-.55-.8-.89.18-.36.28-.8.24-1.14-.05-.35-.98-.37-1.16-.88.08.25,1.13-.82,2.24-.66-.21-.5-.2-.82-.2-1.29,1.52-1.55,1.2-2.54,3.34-2.26.39.05,1.07-.63,1.65-.24-.27-.85-1.12-.79-1.62-1.31-.31-.31-.31-.81-.81-.78-.42.02-.94.03-.95.64,0,.22.21.49.15.61-.07.14-.38.3-.52.42-1.49,1.25-3.15,1.94-5.09,1.73l1.56-1.07c.79-.54,1.47-1.09,2.49-1.28l.53-1.57c.47-.55.75-1.26.98-2l2.49-.91c.71-.26,1.33-.85,2.27-.59l-2.35,2.53c-.17.18-.51.29-.65.68.89.32,1.45-.1,1.93-.57,1.32-1.28,3.15-1.72,4.58-3.63.15-.2.56-.32.63-.5.11-.26-.09-.55-.25-.88l1.41-.41c-.42-.58-.79-.64-1.48-.93.86-.68,1.12-2.34.87-2.65-.16-.19-.78-.29-.83.01-.07.45-.09.71-.41.88-.26.14-.59.26-.97.11.62-1.35-.16-1.83.01-2.15.08-.14.37-.25.54-.41.58-.59,1-1.28,1.69-1.82.27-.21.28-.65.23-.88-.05-.25-.49-.81-.8-.56l-1.29,1.04-2.46,3.09-2.12,2.06c-.38-.87.37-1.56.58-2.23-.02-.48-1.29-1.25-1.65-.9-.38.37-.54,1.51-1.26,1.49-.47-.15-.4-1.47.1-1.73.26-.13.63-.08.7-.23.08-.16.13-.46-.17-.83.8-.11,1.03-.86,1.48-1.33.9-.93,1.58-1.74,2.1-2.95l.9-1.13c.29-.37.73-.38,1.08-.11.83.64-1.23,2.05-2.04,4.36-.12.34-.58,1.1.11,1.32.35.11.9-.54,1.13-.81.87-1.03,1.91-2.41,3.15-3.18.34.42-.22.93-.21,1.21.01.73,1.58.47,2.99.47-.07.83-.29,1.49-.95,2.09l.74,1.03c.86-.28,1.07-1.11,1.67-.75.23.14.39.44.17.75l-1.29,1.83c-.29.42-1.42.95-.94,1.68.43.19,1.48-.36,1.66-.81.67-1.65,2.47-1.73,2.7-1.48.49.52-.07,1.42-.45,1.87l-1.57,1.81c1.15.4,2.06-.12,2.76.22.67.33-.32,1.26-.3,2.45.34.18.66.22.89.27l3.41-2.46c-.49,1.88-3.02,3.34-2.74,4.76-.03.54-.79.62-.99,1.33,1.1-.35,1.76-1.24,2.45-2.14.38.03.74,0,1.01.26-.73.66-1.42,1.89-.99,2.7.83,1.56,2.99-1.62,4.05-2.84l3.29-3.78c.48-.56,1.1-.74,1.87-.88.08-.01-.02-.41-.14-.42-.13-.01-.05-.39.18-.32.37.11.71.87.41,1.18l-3,3.12-2.32,3.28c-.88-.53-1.34.36-1.89.8-.6.48-1.53.7-1.77,1.49.12.18.49.25.81.1.08.26-.18.49-.47.3-1.19.87-1.45,2.21-1.73,3.58l-1.62,3.96c.8.85,1.88,1.15,3.04,1.54-.39.94-1.43,1.19-2.55,1.05.16.55.76.62,1.17.52,0,1.22-2,1.99-1.99,1.99-.34-.03-.22.55,0,.47,2.46-.91,4.56-2.54,6.09-4.72l.16-.74c.04-.19.44-.12.66-.27l2.73-1.9c.73-.21,1.53-.16,2.06-1.05.1-.17.52-.37.7-.44.24-.09.61.39.89.38l2.15-.06c.08.18.3.4.46.31.17-.1.31-.33.4-.56l.13-.37c.03-.07.22-.05.3-.04.12.03.17.38.15.63,1.9.39,3.96-.13,5.86-.62l3.02-.78c.44-.11.55-1.03.58-1.46.31-.12.59-.07.9-.35-.49-.62-1.14-.4-1.93-.74,1.99-.2,3.4-1.21,4.69-2.85.12-.15.47.2.45.38-.1,1.18-.86.87-1.61,2.05.58.23,1.07-.32,1.55-.43,1.16-.26,2.07-.54,3.21-1.11-.55,1.08-1.57,1.5-1.77,2.77l2.9-1.52c-.07,1.31-2.18,2-.99,2.7.24-2.69,2.66-.65,3.7-2.98.15-.33.26-.8.75-1.02.06,2.45-1.03,2-1.86,2.88-.68.73-1.79,1.16-2.25,2.13-.08.16-.15.28-.21.35-.12.13.35.52.53.33,1-1.03,2.01-1.97,3.45-2.38l.27,1.13.84-.85c.19-.2.13-.36.09-.47-.11-.25-.42-.29-.6-.33-.28-1.09,1.61-1.08,3.18-.42l-3.03,3.34c-.07.07-.11.48-.13.63-.01.13.33.09.44-.05l.21.51c.03.08.24.17.32.11-.51.34,3.2-5.09,3.77-3.95.32.64-.56.66-1.4,1.64-.96,1.12-1.48,2.97-2.92,4.37,1.27.54,2.08.1,2.96-.34.56-.29,1.21-.47,1.64-1.17.35-.57.77-1.12,1.32-1.58.42.13.69.43,1.02.65-.22.31,1.01.66,1.31.56.27-.09.58-.18.58-.62l.38-.55c.1-.14-.25-.85-.44-.74l-.51.3c-.15.09-.4-.36-.24-.72.1-.51-.52-.35-.26.06-.22.55-.64.34-.93.16-.24-.15-.67-.66-.52-.99l.98-2.14c.21-.45-.12-.84-.42-1.18l1.26-3.18c.05-.12.32-.33.27-.44-.4-.86-.88.52-2.04,1.55-.15-.41-.27-.6-.58-.85-.42.52-1.16.82-1.81.71.03-.76.75-1,.97-1.45.18-.37.2-1.38.99-1.33.43.03.34.94-.12,1.14-.11.05-.27.12-.33.19-.05.06-.02.23.07.32.15.17.18.15.38-.02l1.91-1.58c.45-.37.68-.93.2-1.37-.07.32-.24.6-.41.62-.27.04-.54-.21-.5-.58.06-.54.33-1.05.76-1.16.33-.09,1.14.31,1.04.68-.04.12-.41.16-.48.26-.08.11-.11.34.07.5l.87.74c.02.28-1.3.93-.67,1.09l1.36.32c.29.07.62-.77,1.18-.45-.12-.62-.09-.83-.3-1.2-.29.38-.56.51-.83.49-.36-.02-.41-.5-.32-.83.36-.21.61-.46,1.17-.28l.38-2.23c.11-.3.52-.18.37.21-.8,1.72.58,2.02-.26,2.34.32.47.74.64,1.31,1.05l-.91.49c-.26.14-.28.43-.19.56.28.39,1.18-.38,1.26.37.23-.1.38-.12.6-.05.12-.36.53-.48.8-.55.45-.13.79,0,1.09.48-.73,1.6-2.02,1.6-2.53,2.55-.04.08-.23.15-.29.19-.1.06-.3.08-.39-.13-.09-.23.32-.72,0-.87-.45-.21-.31.85-.8,1.07-1.27.57-.2-1.17-.7-1.59-.17-.15-.44-.1-.67.04-.19.12-.09.46-.24.74l-.41.71c-.16.27.03.66.48.68.11,0,.2-.33.3-.37.37-.14.73.92,1.17.61l.59-.41.31,3.21-.76,1c-.67-.05-1.22.72-1.22,1.37.21.08.41.24.46.36.2.46-.31.41-.45.58-.43.53-.5,2.02-.06,2.46.4.4,1.04-.48,1.17-.65.51.33.64-.32.1-.22v-3.69c.52.38.55,1.13.53,1.88.18-.57.71-.99,1.25-1.27-.2-.95-.29-1.96.72-2.48-.22.54-.32.99-.11,1.45.41-.42.47-.98.58-1.36.15-.56.77-.19.96-.32.83-.57,1.43-1.63,1.92-2.54.37.25.29.66.27,1.13.42-.42.54-1.04,1.22-1.32.11-.04.2.36.15.43l-.41,1.27c-.09.27-.03.53.11.6.12.06.35-.16.51-.19.42-.1.4.33.52.31l.52-.09c.17-.03.33.1.52.02.12-.04.69-1.11,1.15-2.05.31.67.09,1.19.15,1.83.03.33.48.33.77.21.23-.09.51-.13.54-.59-.28.05-.46.07-.73.02-.15-.43.08-1.16.42-1.25.21.06.36.02.59-.23.28.46-.03.72-.05,1.22l.69-.91c.31.37.28.77.13,1.24l.91-.62c.4-.27.17-.79.15-1.12.47-.39,1.09-.57,1.77-.8l-.49,1.45c-.12.34.31.52.48.54.47.07.44-.25.6-.57.38-.75,1.13-1.22,1.12-2.18,0-.21-.24-.7-.07-.81l.79-.56c.3-.68,0-1.76-.62-2.19-.13.43-.11.74-.48.94-.1-.56.02-.82-.47-1.28-.12.69-.56.92-.82,1.3-.73.25-.58-.72-1.18-1.19l-.23,1.12c-.47.24-.97.66-1.61.25l1.65-1.45c-.61-.51-.65-.95-.46-1.52l-.24-.04-1.24,1.14c-.09.08-.39-.26-.4-.38-.07-.59,1.56-.92,1.35-2.49.83,0,1.52-.04,2.26-.22l-.75-1.27c1.51.99.7-1.15,2.44-2.25,0-.24-.21-.49-.49-.8.37-.79.79-1.63.65-2.58-.36.48-.32,1.21-.91,1.4-.35.11-.52-.46-.37-.66.51-.8.82-1.69.48-2.7l-.16-1.22c-.62,1.2.06,2.47-1.4,3.76-.12-.03-.55-.25-.51-.46.1-.59.59-.97,1.15-1.22-.12-.36-.59-.87-.96-.74-.76.25-1.03,1.04-1.59,1.72-.26-.91.46-1.47,1.07-2.05.3-.29.8-.17,1.27-.06-.28-.93.09-1.39.77-1.88-.9-.25-1.3.37-1.98.65-.07-.92.31-1.66.7-2.34.22.04.58.33.78.08l.53-.69-.13-1.51c-.03-.35.23-.55,0-.77-.11-.1-.33-.37-.53-.28-.14.06-.23.37-.45.59-.11.28.13.83-.2,1.29-.3-.95-.21-2.06.29-2.21.46-.14.92.46,1.3.23.11-.07.23-.24.11-.36l-.36-.35c-.57-.56.45-1.76.43-2.92-.55-.39-1.38-1.09-1.3-1.64l1.19-2.37c-.62-.5-.98-1.09-1.47-1.74-.41.62-.92,1.02-1.53.95-.16-.02-.4-.33-.51-.26-.53.33-.31.72-.57.58-.1-.05-.2-.18-.16-.23l.23-.35c.82-1.22,1.74-2.96,1.02-4.25-.26-.48-.78-.99-1.25-1.25-.33.41-.14,1.46.59,1.24.09.36-.17.48-.69.27.09,1.79-.34,3.1-.95,4.67-.26.67-.32,1.49-1.03,1.95l1.03,1.68c-.35.12-.57-.03-.9-.47l-1.34,2.52c-.34-.14-.57-.6-.54-.81.18-.15.41-.4.48-.62.08-.27.03-.45-.27-.8,1.69-.57.5-1.73.81-3.05.21.24.34.41.46.45.26.08.3-.2.32-.33.03-.19.07-.3-.27-.42.17-.02.33-.26.2-.39-.05-.05-.21-.2-.15-.29.18-.26.5-.22.94-.03l.38-3.33-.08-2.34c-.06-1.56-2.13-2.15-2.28-2.61-.1-.33.11-.82.18-1.12l-1.52-1.52-.4,3.37c-.06.47-.68.13-.82-.06-.26-.36-.17-.44.07-.82.58-.92,0-3.89-.96-3.61-.49.14-.29,1.69-.72.65,0-.3-.27-.45-.39-.51-.03-.25-.26-.29-.39-.38-.22-.15-.43-.02-.56.14-.4-.05-.91-.26-1.04.09l-.38.97c-.07.19-.3.45-.53.65-.63-.76.69-1.78-.25-2.4-.43-.28-1.22.93-1.38.77l-.24-.23c-.18-.17-.02-.29.05-.23.19.16.4.05.43-.04.07-.22.15-.42.24-.52.12-.15.45-.11.66-.07l-1.27-1.84c-.2-.29-.12-.69-.34-.81-.26-.14-.54.04-1.05.2.16.5.45,1.18.12,1.83-.08.16-.49-.06-.49-.19l.02-.49c-1.1-1.69-3.01-1.44-3.71-2.54l-.5-2.78c-.07-.39-1.48-.25-1.47.13l.03,1.57c-1.04-.56-.6-1.85-1.43-3.05-.31.08-.46-.22-.72-.37-.01.1.11.26-.09.45-.34-.39-.74-.73-1.34-.5.64.69,1.04,1.3,1.13,2.13-1.56.31-.05,1.18-1.15,1.98-.17.12-.38-.11-.55-.29-.69-.7.62-1.62-.4-2.66.53-.09.64-.29.42-.72-.2.26-.34.39-.52.34-.43-.11-.41-.37-.57-.67-.19-.23-.88.5-.54.81.2.18.22.29.18.4-.07.25-.3.28-.42.2-.53-.33-.07-2.47-2.18-2.95-.08.69.34,1.25-.07,1.92-.22-.2-.63-.85-.39-1.02.62-.24-.19-1.26-.44-3.05-.13-.93-1.35-1.62-2.36-1.51-.92.1-1.89-.08-2.36-.91-.49-.86-1.44-1.18-2.44-1.65l.33,1.42c.26,1.13,1.65,1.17,2.66,1.59-.42.42-.95.02-1.39.12.28.44.93.9.8,1.31-.23.76.19,1.17.36,1.9l-1.12-.06c-.15.25-.45.42-1.02.38.03.39.19,1.09-.04,1.37-.39.28-.95.47-1.18.29-.95-.73.16-1.53-.66-1.53-.77-.43-1.58-.83-2.66-1.01-.11.54.33,1.2.92,1.23.17.01.34-.12.41-.06.08.06.2.23.21.32-.11.21-.05.57-.04.79-.33.36-1.04.39-1.45.58.3.29.55.95.21,1.15-.51.31-1.18-.44-1.51-.86-.16.41-.27.46-.68.22-.19.5.28,1.38.98,1.36.31,0,.39-.15.64.18.14.19.19.4-.26.57l.84,1.26c.21.32.93.32,1.32.15.83-.35.59-1.99,1.55-2.24.31,1.42-.39,2.75-1.54,3.53l-.29-.36c-.07-.09-.24-.15-.31-.09-.16.13-.1.42.21.45.49,1.88-1.26,2.11-1.24,2.58.02.58.08,1.11.54,1.53-.72.29-1.34.42-2.07.44.1-.71.55-.91,1.37-1.08-.28-.31-.66-.74-.52-1.08l.85-2c.08-.19-.04-.39-.16-.44-.53-.24-.49,1.1-1.37,1.3-.42-.7-.35-1.57.31-2.04l1.6.4c-.08-.59-.84-.56-1.01-.83-.4-.79-.57-1.33-1.32-1.76l-.13,1.57-1.52.64c-.18.08-.72,0-.82-.16-.09-.14.06-.37.21-.55l.08-.45s1.03-.52.86-1.44c-.06-.34-.5-.84-.93-.76-.47.09-.85.34-1.31.66.63.23,1.03.79,1.22,1.31l-1.18.96-1.05.25c.28.11.45.5.33.56-.52.22-.86-.03-1.42-.21.2,1.56-.7,2.65-1.33,2.31-.17-.1-.28-.21-.28-.47v-1.7c-.77-.07-1.35-.38-1.48-.91-.41-1.73,1.49-1.73,2.64-3.34l1.34.74c-.06-.36.06-.6.27-.68.12-.04.37-.06.55-.24.22-.23-.14-.78-.52-.93-.33-.32.06-.73.5-.38.07-.38-.19-.27-.28-.25s-.27-.29-.01-.43c.52.42,1.6.77,2.2.15.21-.22.09-.99.31-1.17,1.11-.9,2.23.11,3.01-.73.1-.31.06-.93.15-1.39.08-.41-.84-1.08-1.17-.78-.13.12.05.69-.02.87-.06.12-.23.3-.51.28-.31-.03-.33-.67-.43-.97-.11-.32-.36-.5-.63-.5-.3,0-.58.13-.93.34.09.36.43.47.6.63.27.27.46.47.99.82-.78.34-1.37.08-1.86-.42-1-1.01-2.4-1.42-3.7-1.47l1.4.83c-.69.06-.94.74-1.25.87-.41.1-1.22-.05-1.36.48.25.11.52.4.54.65.03.31-.42.38-.78.28-.38,1.25-2.68,1.9-2.6,1.91-.09,0-.28.04-.34-.26.62.13.78-.51.98-.75.48-.08,1.2-.31,1.21-.94,0-.18-.45-.38-.57-.42-.15-.05-.44.08-.16.36-.36.43-1.05.4-1.56.58l.57-1.04c.2,0,.49.31.91,0-.73-.45-1.61-.56-2.72-.45.27.45.46.81.52,1.24-.31.01-.68.03-.91-.22l-.15.13c.08.65.81,1.01,1.38,1.61-.47,0-1.26-.37-1.41-.76-.14-.49-.16-.82-.57-1.09-.85-.55-1.56,1.12-3.35,2.07-1.49.8-2.7,1.7-3.94,2.79-1.98,1.73-1.68,2.77-2.82,3.79-.35.31-1.13-.07-1.48-.03-.72.07-.52,1.04-.78,1.31-1.29,1.3-2.29,1.72-1.94,2.28-.3-.07-.28-.26-.35-.31-.37-.29-.71.71-1.38,1.57.18.91,1.86,1.52,1.08,1.74-.34.1-1.07-.69-2.11-.75.45,1.36-.11,2.57-1.18,3.38-1.28.97-1.73,2.57-1.3,4.02-1.17,1.45-2.58,1.76-2.56,2.49.01.38.52.34.71.44.32.17.17.62,0,.8-.19.19-.34.25-.65.27-.6.03-1.15.05-1.89-.02-.09.54-.21.85-.39,1.13l-.97,1.55c-.11.18.48.39.73.29.91-.36,2,.42,2.1.57.08.12.03.43-.1.51-.17.1-.35.06-.53-.04-.41-.13-.81-.05-1.44-.06l.84,1.33c-.16.62-.79,1.44-1.14,1.48-.29.03-.36-.14-.55-.49-.17-.32-.15-.27.27-.57.1.02.18-.02.24-.06.16-.1.27-.33.13-.56-.21-.35-.49-.6-.89-.93-.44.51-.32,1.1-.14,1.67-.56-.16-1.41-.28-2.1-.34-.57-.05-.56-.83-.36-1.27.15-.33.32-.69.89-1.03-.78-1.17-.63-2.91.48-3.73.63-.47,1.39-.64,2.09-1.23-.69-.91-.41-1.55-.02-2.32,1.39-2.74,3.07-2.14,4.72-3.27-.79-.18-1.31-.63-1.33-1.2-.06-1.75,2.47-1.23,2.49-2.22.02-.71-.54-1.65-.75-2.3-.03-.07-.35-.13-.39-.18-.06-.08-.04-.24.09-.34.03-.02,1.1.4,2.49-.99-.3-.45-.97-1.1-1.63-.98-1.17.22-1.97,1.25-2.95,1.86-.24.15-1.08.14-.94.67l1.25,1.74c-.67.18-1.26-.23-1.98-.53-.02,1.5-1.07,2.14-1.31,3.31-.79.81-2.13,1.38-2.43,2.54l-.64,2.46c-1.33,1.22-2.55,2.47-3.4,4.09-.45.85.46,2.27.19,3.84-.83,1.55-2.35,2.39-2.98,4.16,0,.21.05.58-.09.63l-.57.23c-.66.26.76,1.34-1.3,2.79l-1.73,1.22c-1.76,2.09-3.63,5.26-3.34,8.05.82-.25,1.08-.96,1.58-1.47ZM8.91,61.6c-.2.1-.67-.22-.58-.54.07-.27.98-.32,1.1-.07.18.38-.36.53-.52.6ZM11.83,60.74c-.33.27-1.22-.64-1.19-.84.05-.29.34-.43.53-.47.33-.06.65.02.76.5.04.2.15.61-.1.81ZM42.73,66.07c-.16.1-.59-.21-.48-.45.16-.36.41-.1.49.02.1.14.18.3-.02.43ZM43.25,64.67c-.09-.27.23-.34.31-.27.06.05.12.21.51.33-.15.18-.73.18-.82-.06ZM45.11,67.18c-.09-.12-.04-.49.16-.56l.38-.13c.17-.06.4.11.38.31-.04.32-.77.58-.92.38ZM47.71,64.15l-.3.85c.09.62-.03.94-.48,1.14-.24.28-.92.14-.87-.09.19-.96.76-1.88,1.56-2.48.29.12.04.44.09.59ZM48.82,60.41l-1.16,1.1c-1.15,1.09-2.82,3-3.41,1.84l2.33-2.34c1.62.04,2.2-2.4,2.43-1.23.04.2.07.38-.19.63ZM81.99,61.62c.3.49-.07.78-.04,1.14-.09.15-.38.2-.38.08l-.07-.52c.11-.29.26-.58.49-.7ZM103.18,59.76c.09-.2.26-.12.26.06v.42c0,.11-.05.19-.12.21-.09.02-.24.02-.31,0l-.22-.42c.14,0,.28-.09.39-.27ZM101.65,59.64c.09-.02.23.17.33.18v.22c.01.13.02.24-.01.32-.05.12-.24.16-.31.09-.18-.17-.14-.78,0-.81ZM100.38,61.94c.13,0,.53.28.28.78-.26-.06-.52-.46-.28-.78ZM103,50.19c.09-.06.17-.13.23-.14-.02-.32.51-.34.6-.11.08.24.09.52-.14.83-.13.17-.44.08-.63-.14-.1-.12-.37-.21-.07-.43ZM102.5,50.63l.15,1.66c.35.21.11.61-.3.28-.25-.42-.36-1.41.16-1.94ZM101.62,48.21c.18-.11.34-.02.47.15.09.12.23.3-.09.53-.12.09-.23.06-.44-.2-.11-.14-.29-.27.06-.49ZM98.42,58.61c-.05-.28.3-.28.25,0,.13.42-.37.42-.25,0ZM99.27,61.08v.42c-.06-.02-.26.24-.33.18-.1-.09-.14-.49-.08-.7.04-.13.28-.04.41.1ZM101.79,35.04l-.92,3.53c-.04.14.05.38-.02.44-.08.06-.28.02-.33-.1-.03-.08-.04-.2-.01-.34l.52-2.67c.11-.26.36-.67.76-.86ZM100.59,29.91c.27-.16.51-.08.63.17.08.18.09.55-.07.7-.25.22-.56.09-.71-.16-.13-.23-.16-.53.15-.71ZM99.25,31.72c.17-.37.64-.61,1.06-.64l.83-.05c.44.28.06.54-.1.68-.24.22-.45.28-.72.21-.2-.06-.34-.31-.64-.2l-.06.86c-.15-.15-.36-.02-.48-.42-.06-.2,0-.19.1-.44ZM99.46,36.08c.07-.27.15-.53.34-.61.26-.1.42.08.57.17.06.96-.3,1.9-.74,2.73-.28.11-.44.54-.93.58l.77-2.87ZM99.03,41.79l.63-.97c.12-.19.26-.42.54-.35.18.05.32.24.25.47-.05.19-.24.29-.6.34-.13.07-.15.5-.59.61-.34.09-.29.8.06,1-.49.17-.6-.22-.69-.43-.17-.42.28-.47.4-.67ZM98.65,46.59c.02.08.01.24-.08.3-.07.04-.27-.13-.24-.3.03-.2.28-.14.32,0ZM97.97,59.63l-.35.31c-.1.09-.2.03-.23-.04-.09-.22,0-.42.16-.57.13-.12.29-.21.39-.18.11.03.26.28.04.47ZM97.54,48.73c.05-.07.27-.11.32-.07.07.07.09.27.05.38-.04.14-.11.04-.17.05-.14.03-.36-.15-.2-.37ZM97.19,44.81c.13,0,.23.1.23.23s-.1.23-.23.23-.23-.1-.23-.23.1-.23.23-.23ZM96.74,37.93c.11,0,.21.09.21.21s-.09.2-.21.2-.21-.09-.21-.2.09-.21.21-.21ZM54.52,6.25c.13-.24.28,0,.31.05.06.09.03.18-.03.22-.16.09-.39-.07-.28-.27ZM49.8,7.5c.23-.35.47-.52.84-.44.15.03.23.23.14.36-.05.08-.13.21-.4.26l-.55.1c-.07.01-.11-.16-.03-.28ZM47.84,33.49c-.11.06-.26,0-.32-.12-.05-.11-.09-.39.09-.48.27-.15.36.11.38.21.03.14.03.29-.16.39ZM49,41.21c-.21.03-.31-.28-.28-.44.07-.47.67-1.22.9-1.11.32.16-.03.9-.61,1.56ZM49.66,57.59c.53-.02.63.52.57.8-.06.31-.23.9-.68.72-.56-.23-.48-1.5.1-1.52ZM50.39,63.51c-.32.08-.75-.16-.94-.51,2.22-1.09.98-3.81,2.87-4.12-.08-.21-.18-.5-.14-.6.03-.09.22-.12.33-.08.09.04.36.18.17.42l-.24.29c-.05.06.04.28.15.39l-1.35,3.48c-.14.37-.57.67-.84.74ZM52.42,41.67c.15-.33,1.16.17.94.65-.19.4-1.19-.09-.94-.65ZM53.01,46.6c-.02.17-.23.15-.29.1-.05-.05-.25-.12-.21-.35.04-.21.51.13.49.25ZM51.55,65.1c.15-.94.44-1.78,1.09-2.37.46-.42.48,1.62-1.09,2.37ZM52.94,62.1c-.19-.12-.18-.53.08-.73.3-.23.46,0,.55.11.21.25.04.42-.11.54-.14.11-.4.16-.52.08ZM55.01,44.63c.14.06.36.32.32.49-.04.14-.31.38-.5.33-.14-.04-.34-.26-.34-.45v-.17c0-.24.33-.27.52-.19ZM54.95,41.14c.07-.09.36-.08.47-.06.09.02.2.15.12.31-.1.19-.24.1-.32.12-.17.05-.42-.17-.27-.37ZM53.57,57.33c-.28-.81,1.12-1.85,1.42-1.68.37.21-.31,1.16-1.42,1.68ZM54.48,60.4c-.56-.03-.77-.5-.79-.95.47.15.74.5.79.95ZM54.69,30.4c-.2.17-.61-.02-.34-.44.06-.09.4.05.48.12.1.1-.06.25-.13.32ZM54.28,40.29c-.21.29-1.04-.38-.65-.76.2-.19.9.41.65.76ZM53.84,66.13c-.32-.1-.41-.34-.41-.58,0-.19.11-.3.24-.36l1.48.24c-.11.48-.77.87-1.31.71ZM55.33,64.62c-.31,0-.7-.06-1.02.04v-.25s-.02-.21-.02-.21c-.01-.46.37-.54.72-.39.29.12.39.51.32.81ZM55.28,58.74c-.13.14-.35.13-.47.05-.13-.09-.23-.36-.03-.56l1.21-1.22c.24-.14.71.17.58.3l-1.3,1.43ZM55.99,43.36c.25,0,.32.07.5.24.13.13-.09.37-.22.39-.22.04-.39-.11-.5-.3-.08-.14.01-.33.23-.33ZM60.97,66.07c-.94.24-1.8.33-2.79-.08,1.64-.6,2.95-2.44,3.57-1.72.46.53-.21,1.66-.78,1.8ZM61.81,45.85c.15-.02.43.45.24.82-.18.35-.51.09-.59-.15-.08-.22.04-.63.36-.67ZM64.7,22.78c-.13,0-.23-.1-.23-.23s.1-.23.23-.23.23.1.23.23-.1.23-.23.23ZM65.22,48.58c-.08.05-.36.04-.33-.28.15-.28.39-.13.43-.03.05.12,0,.25-.1.32ZM65.39,35.65c.11.02.3.06.44.18.07.07.21.21-.08.27,0,.21-.24.27-.3.2l-.18-.2c-.24-.26-.07-.48.13-.45ZM65.79,43.91c-.14-.03-.23,0-.37-.1-.14-.1-.02-.34.17-.3.23.04.3,0,.35.03.07.07.12.43-.15.38ZM66.17,46.71l-.3.03c.06-.25.08-.44.17-.66.09-.22.48-.34.54.01l-.41.62ZM66.2,40.56c.26-.05.27.16.32.25.1.18,0,.6-.27.57-.34-.04-.34-.76-.05-.82ZM66.99,16.15c-.08.08-.3.08-.51.13-.22-.44-.49-.62-.21-.61l.56-.04c.22.11.25.42.16.51ZM68.47,8.75c0-.1.07-.19.11-.35.07,0,.23-.05.35-.01.05.17.05.18.09.34.05.21-.01.26-.24.27-.18.01-.31-.04-.3-.26ZM69.13,52.88c-.09.07-.34.02-.36-.09-.03-.18-.04-.33.15-.42.08-.04.26.08.27.14.02.09.02.31-.06.37ZM69.75,20.43c-.33.22-.57-.13-.48-.25l.24-.29c-.06-.21-.03-.58.06-.64.08-.06.19.18.33.19v.41c-.02.06,0,.18.03.21.4.1.14.61-.18.38ZM70.71,42.31c-.24.06-.37-.79.05-.82.23-.02.42.71-.05.82ZM70.83,18.58c-.21-.11-.28-.23-.31-.33-.08-.27.25-.29.38-.36.37-.21,0-.81-.43-1.07.5-.5.77.06.95.29.27.35.22,1.02-.43,1.09.26.44-.07.44-.16.39ZM71.4,53.95c.14-.34.46-.22.54-.04.08.18.03.29-.12.43-.22.22-.61.06-.42-.38ZM72.2,63.67c-.1.19-.24.1-.33.13-.15.04-.43-.15-.25-.39.06-.08.35-.08.46-.05.08.02.2.15.12.31ZM72.18,58.07c-.14-.14-.28-.27-.14-.49.1-.14.36-.04.36.06v.41c0,.08-.1.15-.22.03ZM72.04,52.79c.06-.08.35-.07.46-.04.09.02.2.15.12.31-.1.19-.24.1-.32.12-.17.05-.43-.14-.25-.39ZM72.62,60.48c-.23-.04-.34-.57-.14-.83.28.05.6.53.14.83ZM72.59,39.61c-.12-.02-.19.02-.2.12-.27.34-.64-.13-.27-.31.2-.39.73-.84,1.07-.54.19.17-.36.78-.6.73ZM72.72,18.99c.15,0,.44,0,.47.37.03.49-.23.88-.61,1.18-.37-.34-.32-.79-.26-1.26.03-.25.25-.29.4-.29ZM72.77,18.02c.37-.27.67-.09.77.21.05.15-.15.39-.36.54-.13.09-.39-.02-.62-.15-.15-.08-.08-.38.21-.6ZM72.32,23.39c.14.15.12.26.05.42l-.23-.02c.07-.15-.01-.16-.06-.21-.14-.14.09-.35.24-.19ZM73.32,42.31c-.34-.32-.15-.55-.13-.75.04-.38.68-.58.67-.35-.04.75-.34.85-.54,1.1ZM76.17,61.69c-.1.42-.22.58-.54.66-.25.06-.49-.12-.62-.42-.13-.32,0-.54.48-.71.14-.05.45-.28.56-.2.2.15.17.42.11.67ZM80.75,67.84c-.15.38-.45.51-.79.59-.33.9-.92,1.76-1.7,2.26-.15.07-.27.13-.37.14-.14,0-.36-.14-.35-.41.07-1.06,1.03-1.63,1.75-2.22l.83-.13c.18-.03.29-.43.48-.86.45.11.22.44.15.62ZM81,63.32c1,.57-.32,1.21-2.16-1.24l2.16,1.24ZM81.78,56.08c-.27-.02-.23-.28-.23-.51,0-.26.18-.43.42-.24.1.08.24.2.23.34,0,.17-.25.43-.42.42ZM81.96,49.12c-.06-.06-.02-.26.05-.3l.84-.99c-.36-.4-.26-.82.28-.95.05-.12.62-.2.63.22-.38-.11-.7.01-.71.16.29.46.1,1.08-.21,1.37l-.52.49c-.12.11-.3.07-.36,0ZM82.74,36.93l-.21.15c-.05.04-.35-.18-.32-.24.54-1.19.67-2.19,1.03-1.4v.45c.03.19-.01.3-.1.4-.11.13-.27.16-.57.28.07.02.34.24.17.36ZM82.29,32.35c-.16.09-.39-.07-.28-.27.13-.24.27,0,.31.05.08.11.03.19-.03.22ZM84.31,44.28c.42.7.08,1.63-.31,2.28-.31.14-.92-.37-.7-.92.45.03.53.3.73.46-.02-.66-.2-1.25.28-1.82ZM84.34,34.47c.07-.13.31-.04.35.05.04.09.1.14.13.39.01.13-.23.07-.31,0-.09-.07-.27-.26-.16-.45ZM82.82,54.5c-.14-.52.85-2.22,1.7-2.7-.35,1.71-1.52,3.37-1.7,2.7ZM85.4,49.13c-.27.27-.89.08-.9-.1-.01-.34.29-.44.5-.43.27,0,.67.27.4.54ZM86.67,53.58c-.13.16-.36.44-.69.33-.19-.06-.09-.45,0-.58.08-.14.14-.41.5-.24.12.06.28.39.2.49ZM87.09,46.01c-.25,0-.42-.42-.27-.63l.39-.54c.39-.54.68-.96.6-1.7.36.15.52.39.6.59.12.32-.07.7-.29.97l-1.03,1.31ZM87.24,52.98c-.05-.89.44-1.66,1.22-2.09-.28.77-.58,1.42-1.22,2.09ZM88.6,46.84c-.99-1.19.92-1.29,1.24-3.19.72.47.4,1.13.04,1.58l-1.28,1.61ZM89.9,42.16c-.16.23-.54.51-.96.5.13-.53.3-.68.56-1.08.19.14.26.28.37.32-.01.08-.02.15.02.25ZM89.69,58.17c-.12-.04-.18-.12-.24-.2-.27-.17.02-.43.19-.44.14,0,.45.2.48.36.03.18-.18.36-.42.28ZM89.53,52.67c.17-.6.38-.91.75-1.24.23.71-.18,1.16-.75,1.24ZM90.33,54.11c.01.13-.04.34-.31.32-.11,0-.35.03-.33-.28l.02-.22c.01-.18.35-.44.51-.35.22.14.11.4.12.52ZM89.79,49.66c-.46-.48-.15-.74.12-1.06l1.92-2.32c.36.25.2.57-.03.85l-2.01,2.53ZM92.67,40.74c-.48-.32.07-.7.28-.91.65-.66.45-1.48.76-2.34.54,1.15.35,2.55-1.03,3.25ZM93.55,42.54c-.08.05-.36.04-.33-.28.15-.28.39-.13.43-.03.05.12,0,.25-.1.32ZM92.58,51.5c0-.13.1-.23.23-.23s.23.1.23.23-.1.23-.23.23-.23-.1-.23-.23ZM92.73,53.25c-.05.12-.15.05-.22.05-.17,0-.37-.14-.16-.38.05-.06.2-.09.26-.06.09.06.16.29.12.39ZM92.82,48.81c-.13,0-.23-.1-.23-.23s.1-.23.23-.23.23.1.23.23-.1.23-.23.23ZM92.76,38.42c-.56,0-.46-.53-.33-.7.13-.17.42-.41.7-.24.22.13.02.93-.37.94ZM92.06,23.47c-.31-.67-.16-1.23.06-1.78.47.58.23,1.28-.06,1.78ZM92.54,41.41c-.04.41-.4.6-.82.6-.21,0-.34-.13-.37-.25-.1-.37.7-.83.94-.8.12.02.28.18.26.45ZM91.26,43.19c-.19-.2-.48-.59-.73-.64v-.21c.28-.12.38.12.54.17.24.07.48.3.19.68ZM90.71,59.38c-.11,0-.2-.09-.2-.21s.09-.2.2-.2.21.09.21.2-.09.21-.21.21ZM91.15,64.3c-.03.1-.19.18-.31.11-.13-.08-.16-.26-.12-.42.12,0,.34-.03.44,0,0,.11,0,.24-.02.32ZM91.07,57.05c-.23-.23-.24-.7.05-.71.19,0,.57.52.54.7-.09.37-.45.14-.59.01ZM91.57,58.61c.09-.68.7-.98.92-1.42.11.01.18.06.16.05l-.86,1.63c-.15.32-.56.06-.22-.26ZM93.71,57.87l-1.08,1.32c-.1.13-.28.15-.35.14-1.02-.1,1.53-2.35,1.46-2.38.32.11.23.7.72,1.13.25.22.77-.11,1.1-.16.42.45.03,1.62-.64,1.76l-1.21-1.81ZM95.19,42.96c-.13-.57-.21-1.03.1-1.6.4.51.4,1.19-.1,1.6ZM95,46.66c-.2,0-.17-.67.21-.73.2,0,.17.67-.21.73ZM94.34,37.11c-.12.27.71.84.25,1.29-.37-.36-.59-.94-.53-1.58.05-.47.67-1.02,1.15-1.19.25.77-.64.96-.87,1.48ZM96.13,63.63c-.1.29-.11.55-.13.79-.3.06-.5.23-.98.27-.12-.26.02-.51.05-.73.34-.13.57-.33,1.07-.33ZM95.52,27.35l.43-2.12c.2-.97.11-2.21,1.43-2.66-.39,1.48-.37,2.78-.73,4.13l-.67,2.55c-.18.68-.65,1.39-1.16,1.99-.63-1.37.44-2.6.7-3.88ZM93.6,23.12c.12-.31.78-.64,1.08-.47l-.41,1.57c-.6.01-.82-.7-.67-1.1ZM93.27,24.47c.1-.07.71-.16.85-.01.41.43.04.65-.36.63-.43-.03-.64-.15-.49-.62ZM93.14,25.58c.13-.24.71.19.62.44-.26.78-.22,1.65-.96,2.3-.23-1.01-.09-1.99.33-2.74ZM92.45,20.47c-.08.18-.4.17-.47.08-.1-.13-.2-.31-.21-.42,0-.23.25-.39.6-.46-.44-.33-.62-.47-.64-.86.84.25,1.04.93.72,1.66ZM91.05,36.28c.14.12.26.11.33.11.1,0,.15.28.15.41,0,.1-.3.08-.37,0-.07-.07-.14-.19-.11-.52ZM91.76,38.96c.23-.04.34.29.34.4-.01.45-.68,1.35-1.39,1.19-.12-.62.31-1.45,1.05-1.59ZM89.92,18.59l.56.15c.16.04.2.39.33.54-.34.22-1.02-.29-.89-.69ZM89.75,34.2c.1-.19.33-.14.41-.1.1.05.23.2.14.41-.04.09-.21.04-.29.05-.14.02-.41-.08-.26-.36ZM89.77,35.22c-.47,1.06-.71,2.02-1.45,3.03-.15-1.24.37-2.37,1.45-3.03ZM88.08,38.43c.14.04.26.29.28.46.02.26-.52.65-1.24.53-.13-.02-.21-.31-.13-.48.11-.26.8-.59,1.09-.51ZM87.05,23.17c.13.61-.09,1.02-.4,1.27-.21-.52-.04-1.03.4-1.27ZM86.76,40.53c.34.05.19.46.16.61-.05.27-.19.39-.46.34-.03-.36.1-.86.3-.96ZM85.96,42.53c.07.02.18.08.3.21.11.12.08.17-.09.29-.12-.03-.22-.11-.22-.18v-.32ZM86.34,46.51c.16.86-.32,1.71-1.39,1.81.12-.84.76-1.35,1.39-1.81ZM85.32,36.27c.13,0,.23.1.23.23s-.1.23-.23.23-.23-.1-.23-.23.1-.23.23-.23ZM85.23,42.63c.42.66.12,1.18-.4,1.64-.16-.53-.21-1.16.4-1.64ZM84.56,17.86c.24-.08.71.58.26,1.14-.34-.07-.7-.9-.26-1.14ZM83.73,19.66c.2-.29.92.24.69.52-.17.21-.92-.2-.69-.52ZM83.08,20.81c.13-.18.58.39.54.42-.11.08-.28.07-.35.08-.12.02-.43-.19-.19-.5ZM83.01,21.67c.07.79-.24,1.52-.86,2.03-.43-.8.17-1.59.86-2.03ZM81.68,18.21c.02-.07.29,0,.33.05.06.08.11.19.15.43.02.1-.29.08-.37,0-.08-.06-.17-.25-.11-.48ZM81.49,47.12c.15.17.08.39-.04.42-.22.06-.47-.2-.25-.49.15-.2.24,0,.29.06ZM81.2,29.09c.08.06.13.31.09.4-.05.11-.14.04-.21.04-.17.02-.35-.14-.19-.37.05-.07.25-.11.3-.07ZM80.38,13.16c.07-.13.71.01.57.34-.05.12-.23.13-.31.1-.1-.04-.37-.23-.27-.43ZM80.22,47.16c.08.14.1.36-.02.41-.29.11-.72-.17-.5-.5.22-.32.45-.02.52.09ZM79.39,16.11c.06.06.18.23.31.26,0,.15.07.56-.08.74-.07.08-.25.04-.34-.17v-.63c0-.08.08-.23.11-.2ZM79.55,58.64c.06.15.12.42,0,.53-.15.14-.6.11-.76,0-.16-.12-.07-.51.16-.72.27-.24.49-.06.59.19ZM78.85,49.28c-.08.23-.38.18-.51-.06-.1-.17-.18-.29.09-.54.12-.12.38-.2.43.1.02.1.04.34-.01.5ZM78.5,17.81c.14-.17.36-.03.36.06v.41c0,.11-.22.18-.32.1-.14-.12-.17-.42-.04-.57ZM78.24,19.19c.13,0,.23.1.23.23s-.1.23-.23.23-.23-.1-.23-.23.1-.23.23-.23ZM77.4,57.31c.25.06.2.55.13.7-.11.23-.67.28-.77-.09-.06-.2.41-.67.65-.61ZM77.1,61.04c.05.28.38-1.41.69-1.48.57-.13,1.26-.04,1.95.07-.39.59-1,.69-1.52,1-.27,0-.6-.05-.72.13-.03.73-.36,1.54.35,1.95,0,.21-.14.45-.24.57-.11.14-.56.19-.67-.08-.28-.69-.54-1.55-.34-2.3.03-.12.49.02.51.14ZM76.6,58.46c.61.69-1.53,1.06-1.71,2.85-.72-.08-.86-.85-.58-1.57.13-.32,1.79-1.85,2.29-1.28ZM75.12,37.55c.13-.02.21-.05.22-.2l.78-.65c.2.76-.31,1.56-.88,1.69-.29-.23-.33-.71-.12-.84ZM75.17,27.38c.1-.15.36-.04.36.05v.4c0,.09-.09.16-.22.04-.14-.14-.28-.27-.14-.49ZM75.02,57.95s-.13.07-.1.21c.44-.15.46.32.05.24-.27-.16-.48,0-.48.17-.18.07-.27-.14-.1-.21.09-.03.12-.1.11-.21-.01-.13,0-.28.02-.42-.34-.33-.06-.48.09-.64.21-.24.7-.31.87-.09.22.29-.34.57-.57.68.15-.02.29.17.11.26ZM74.69,43.37c0-.12.23-.43.31-.39l.32.18c0,.24-.02.38-.2.53-.13.11-.25.13-.42.09v-.21s0-.21,0-.21ZM75.24,42.71c-.13.05-.44-.25-.17-.5.31-.29.52.05.48.18-.03.1-.19.27-.31.32ZM75.21,38.61c.1.07.2.22.27.58.04.23-.34.32-.46.22-.14-.13-.13-.36-.11-.61.02-.23.21-.24.29-.19ZM75.01,39.83c.11.11.35.28.2.42-.24.22-.49.2-.65.2-.26,0-.39-.54-.2-.72.24-.23.48-.08.65.1ZM76.28,53.99c.06.09.03.18-.03.22-.16.09-.39-.07-.28-.27.13-.24.27,0,.32.05ZM75.39,14.08l-.25-.4c-.08-.13-.04-.24.12-.23.39.03.81.35.91.66.06.16-.27.39-.54.1-.21.85-.78,1.36-1.28,2.44.32.55-.45.62-.27.12-.41-1.27.11-2.51,1.31-2.69ZM73.93,37.14c.11-.13.25-.23.52-.07-.07.12-.05.18-.01.26-.14.24-.31.66-.73.52-.1-.14.03-.51.22-.71ZM73.29,9.77c.29-.09.33.27.38.42.08.24-.01.55-.32.55-.2,0-.41-.21-.47-.4-.05-.15.03-.46.41-.58ZM72.53,11.36c.24-.27.53,0,.7.24.18.24.16.4-.09.59-.23.19-.51.25-.76.06-.18-.15-.09-.63.14-.89ZM71.47,14.57c.18-.23.43-.48.65-.52.23-.04.48.2.59.39.16.29.12.76-.32.76l-.62-.06c-.25-.02-.49-.34-.3-.57ZM71.01,11.07l-.96.41c-.36-.49-.48-.96-.48-1.43.23.31.53.32.66.22.68-.5-.74-1.69-.01-2.07.36-.19,1.63,1.05.8,2.86ZM67.09,5.25l.39-.32c.14-.12.79-.19.64-.49-.15-.17-.85-.01-.67-.77.42.53,1,.2,1.32.28.75.18,1.37.8,2.04,1.32-.9.53-1.56,1-2.61,1.27.08.28.28.46.18.96-.6-.11-1.54-.43-1.66-1.05l-.27-1.43c.37.02.58.27.64.23ZM67.44,10.23c-.47-.63-.72-1.24-.69-2.09,0-.13.39-.16.51-.11.51.22.24.91.73,1.12-.08.07-.05.28.04.32-.08.56-.15,1-.1,1.68-.7-.09-1.07-.19-1.61-.56.31-.26.63-.27,1.12-.37ZM66.24,11.7c.12.09.02.35-.1.6.27.36.58.18.44-.3.82-.45,1.62.1,1.87,1.01l-1.26-.53c-.23.15-.56.45-.75.47-.38.05-.89-1.05-.87-1.11.05-.24.44-.3.67-.14ZM64.69,12.48c-.04-.55.61-.4.48.12,0,.53-.56.29-.48-.12ZM61.99,9.07c.71-.23,1.04.05,1.59.74.18.22-.11.68-.3.78-.48-.06-.52-.33-.12-.55l-1.17-.97ZM63.11,15.89c.11-.47.14-1.13.48-1.49.11-.12.05-.32.05-.39-.01-.43.68-1.08,1.18-.79.13.71.7,1.18.41,1.22l-.25.03c-.14.02-.53.38-.54.56.16.18.24.31.18.41l-.11.22c-.18.34-.19.62.08.86.34.31.61.06.84-.15.35.04.58.35.71.49.15.16.06.57-.23.62-.99.17-1.76-.33-2.67-.83.24.73.83,1.02,1.28,1.44-.63.13-1.84-.32-1.7-.95l.29-1.26ZM63.49,50.99c-.09.03-.33.03-.36-.07-.04-.11-.05-.35.18-.39.15-.03.28,0,.31.06.05.12-.03.36-.13.4ZM62.84,61.3c.07-.45.25-.76.69-1.08.16.4.1,1-.69,1.08ZM64.6,62.24c-.03,1.05-1.36,1.8-2.58,1.87.82-1.54,2.6-2.51,2.58-1.87ZM61.68,19.42c.07.03.14.1.11.22h.26c.31-.02.38.08.38.3,0,.25-.08.34-.33.32-.36-.03-.78-.5-.73-.74.02-.08.19-.17.31-.11ZM60.8,37.17c.1-.14.36-.05.36.06v.4c0,.09-.1.16-.22.04-.14-.14-.28-.27-.14-.49ZM60.79,47.95l.23.02c.17.01.42.28.35.51-.04.14-.38.16-.49.1-.09-.05-.16-.11-.33-.3-.07-.08-.04-.34.24-.32ZM60.38,61.33c.3,1.29-.34,2.72-1.28,3.64-.59.57-1.43.7-1.79,1.35-.23-.33-.3-1.07-.08-1.22,1.55-.84,2.31-2.1,3.15-3.77ZM57.84,62.06c.04-.15.25-.25.41-.35l.33-.19c.08-.04.16.35-.02.39-.07.02-.09.1-.12.23-.05.22-.26.38-.52.58-.12-.08-.13-.49-.09-.68ZM58.08,60.87c-.74-.1.85-2.08,1.95-2.01-.46.73-1.04,1.53-1.95,2.01ZM58.27,44.24c.47.47.4,1.17-.18,1.67-.28-.55-.25-1.16.18-1.67ZM57.96,38.55c.09-.18.39-.12.4.02,0,.14.02.32-.01.42-.05.18-.3.12-.37.06-.08-.07-.11-.32-.02-.51ZM58.97,40.74c.13.48-.42.48-.67.47-.27,0-.81.13-.84-.41.2-.26,1.25-.31,1.51-.06ZM57.26,64.28c-.08.08-.25.1-.35-.07-.07-.13-.06-.5.1-.59.28-.15.44.05.43.25,0,.11-.07.29-.19.41ZM56.77,34.64c.39,0,.59.58.66,1.26-.32.28-.56-.1-.73-.3-.26-.29-.3-.97.07-.96ZM56.28,36.51c.09-.08.35-.01.41.18.05.17-.17.62-.32.75-.09.07-.23.05-.32-.1-.04-.08.15-.74.23-.83ZM56.39,38.03c.56.68.66,1.66.33,2.42-.14.33-.5.22-.58.13-.46-.5-.16-1.47.25-2.55ZM55.67,13.62c.46-.03.28,1.26-.06,1.34-.31.08-.6-.07-.7-.25-.29-.48.62-1.09.76-1.1ZM52.53,17.56c.14.1.37-.13.24-.22-.09-.06-.44-.35-.37-.44.65-.73,1.45-1.53,2.06-2.44l.8,1.62c-.49,1.08-1.61,1.18-2.21,1.59.01.86-.71,1.48-1.42,1.81l-1.31-1.09c1.33.32,1.99-.98,2.22-.82ZM51.81,42.7c.37.14.29.81-.01,1.17-.54.67-.99,1.13-1.85.47l1.86-1.65ZM49.77,17.59c-.24.29-1.15-.55-.78-1.04.31-.09,1.09.59.78,1.04ZM48.16,9.37c.27.22.81.26.89.41.11.34-.43.36-.56.2-.12-.15-.5-.27-.33-.61ZM46.89,14.71l.3.17s.19-.04.25-.06c-.23-.44.24-1.33.84-1.4.31.33.99.96,1.21,1.44.09.2-.37.71.14,1.01-.66.12-.82-.05-1.16-.18,0,.14-.19.21-.3.18-.08-.03-.17-.1-.29-.08-.42.08-.99-.31-1.21-.69-.14-.24.09-.44.22-.37ZM46.07,10.56c-.32.11-.55-.08-.62-.44.4-.05.66.12.62.44ZM44.09,56.26c-.6-.49-.27-.92,0-1.33.25-.37.61-.89,1.07-.62-.59.8-.72,1.22-1.08,1.95ZM44.01,44.77c.06-.1.38-.05.49-.03.16.03.15.24.09.35-.11.2-.27.13-.37.11-.14-.03-.35-.16-.2-.43ZM43.56,19.68l.73-.66c.29-.04.63-.12.96.19-.38.36-.64.56-.83.95-.19,0-.4.3-.54.22-.23-.13-.55-.49-.32-.69ZM43.4,52.68c-1.3,1.93-3.45,3.04-3.2,2.1.1-.39,1.48-.25,1.63-.69.26-.75.59-1.54,1.57-1.41ZM41.85,46.34c.14-.17.36-.03.36.06v.41c0,.11-.22.18-.32.1-.14-.12-.17-.42-.04-.57ZM42.82,42.45c-.03.14-.19.22-.34.23-.24.02-.41-.26-.08-.48.2-.14.44.15.42.25ZM42.41,25.34c.07.1.05.47-.07.49-.16.03-.58-.22-.52-.4.09-.26.5-.2.58-.09ZM41.58,29.72c.22-.15.34-.11.54.1.13.14.2.41-.15.44-.08,0-.16,0-.23-.02-.34-.09-.4-.36-.17-.53ZM41.63,50.33c.1.07.16.17.17.25.01.18-.15.32-.41.31-.37-.02-.6-.17-.57-.32.02-.13.68-.33.81-.23ZM41.04,30.65c.03.08.05.28-.03.32-.15.08-.51-.01-.39-.44.05-.18.38,0,.42.12ZM40.45,17.88c.04-.09.26-.06.32-.03.11.07.15.2.09.37-.04.12-.1.04-.17.05-.13.03-.39-.08-.24-.4ZM40.57,22.99c.3-.05.45.55.27.61-.15.05-.38-.07-.47-.14-.15-.11-.14-.41.19-.47ZM39.97,41.34c.15-.14.32-.06.37.05.1.21-.28.51-.31.5-.15-.05-.17-.45-.06-.55ZM39.51,52.84c-.03.07-.14.11-.21.12.04.29-.08.34-.22.5-.21.25-.49.09-.43-.2.07-.4.51-.78.74-.73.08.02.18.17.11.31ZM38.5,20.61c.07-.27.35-.16.43-.08.08.08.22.21.16.44-.03.14-.71.07-.59-.36ZM37.01,41.83c0-.14.37-.21.51-.12.16.11.11.37.13.61.02.34-.05.42-.33.44-.14,0-.32,0-.32-.22v-.71ZM36.44,25.56c.2-.03.37,0,.46.15.07.11-.02.28-.11.29-.15.03-.34.01-.42-.02-.13-.05-.21-.37.06-.42ZM36.35,43.17c.24-.14.55-.01.59.12.1.32-.69,1.81-1.47,2.13-.28-.9.18-1.84.88-2.25ZM34.98,18.01c.09-.14.36-.05.36.06v.41c0,.08-.1.15-.22.02-.14-.14-.28-.27-.14-.49ZM34.76,40.76c.11.04.23.21.09.39-.11.14-.27.12-.41.07-.13-.04-.33-.17-.23-.45.04-.12.41-.07.55-.02ZM33.66,29.63c.12-.02.32-.02.44,0,.29.06.27.44.1.63-.23.26-.42.26-.65,0-.17-.19-.19-.58.11-.63ZM32.54,16.94c.22-.04.39.11.5.3.08.14-.01.33-.23.33-.25,0-.32-.07-.5-.24-.13-.13.09-.37.22-.39ZM31.1,18.98c.26.06.45.33.2.66-.15-.14-.48-.39-.57-.61.13-.38.26-.08.37-.05ZM29.9,44.51c.12-.27.32-.43.67-.23.16.09.65-.19.71.5-.54-.17-.9.03-1.36.45-.34-.34-.11-.54-.03-.72ZM16.84,56.31c-.11,1.1-2.7,2.54-3.45,1.85.99-.96,2.1-1.43,3.45-1.85ZM16.6,53.91c.04-.14.26-.34.45-.34h.17c.24,0,.28.33.19.52-.07.14-.29.36-.49.32-.14-.03-.38-.31-.32-.5ZM14.65,64.07c-.32.15-.83.41-1.02-.14-.12-.35.64-.84,1.31-.56.31.15-.05.59-.29.7ZM16.48,62.56c-.2-.16-.56-.16-.76-.2.11-.35.22-.67.1-.96-.1-.22-.47-.43-.96-.37-.52.12-.45-.54-.01-.42.71-.17.9-.7,1.1-1.21l.71-1.81c.79-.17,1.52-.28,2.38-.12.02.59-.4,1.04-.83,1.52l1.39,1.82c-1.03.79-2.09,1.28-3.1,1.75ZM18.67,48.78c.06-.26.41-.25.63-.18l.46.67c-.14.08-.49.23-.74.14-.14-.05-.3-.23-.31-.43-.02-.05-.05-.14-.03-.21ZM20.97,54.37c-.74.45-1.08,1.07-1.73,1.8-.45-.79-.04-1.68.7-2.2.33-.23.86.01,1.04.4ZM21.14,47.69c-.3.36-1.19.98-1.52.35-.31-.58.69-1.58,1.29-1.61.41-.02.55.23.57.38.03.3,0,.47-.33.88ZM22.8,45.21l-.96.97c-.91.3-1.07-1.8-.78-1.95.63-.33,1.46-.13,1.59-.34.15-.23.08-.51-.32-.83.86-.28,1.74-.21,2.56.26-.51.96-1.24,1.41-2.09,1.89ZM25.55,41.4c.02-.09.16-.19.31-.11.11.06.15.17.11.31-.05.15-.14.12-.2.18-.07,0-.12.01-.19,0-.03-.08-.05-.27-.03-.38ZM25.18,41.93c-.04.14.32.21.25.27-.19.15-.65.18-.71.13.01-.2.27-.49.47-.4ZM21.14,32.85c.28-.1.74.33,2.22.11-.1.1.19.52.07.56-.8.27-1.71-.11-2.28-.66ZM18.06,38.9c.05.12,0,.25-.1.32-.08.05-.36.04-.33-.29.16-.28.39-.13.43-.03ZM18.2,40c.16-.18.14-.82.45-.93.78-.29,1.18,1.08,1.99.92.26-.05,1.03-.04.49-.71l2.15-1.28c.51-.3.76-.57,1.14-.28.57.44.3.8.15,1.26-.3.91-.85.84-1.46,1.37l-1.64,1.44-1.68,1.65c-.59.58-.89,1.33-.73,2.16-.55.43-1.57-.21-1.75-.78-.37-1.11.98-1.83,1.13-3.38l-1.41-.88c.19-.66.83-.39,1.16-.58ZM16.84,45.65c.26-.22.74.45.5.78l-1.1,1.5c-.3.41-1.14.14-1.03-.11.39-.84.95-1.61,1.63-2.17ZM14.51,39.38c.32-.69.01-1.17.85-1.37.61-.15,1.32-.11,1.36.76-.3.39-.93.74-1.52,1.01.54,1.25-.96,3.05-1.44,3.14-.22.04-.8-.15-.79-.43.08-1.22,1.05-2.07,1.54-3.1ZM13.49,48.72c.07.1.16.08.18.02.07-.19.31-.22.52-.16.08.02.2.22.13.29l-.28.29c-.28.3-.73.69-1.13.36-.28-.24.24-1.03.58-.8ZM13.98,52.56c-.58.36-1.24.3-1.72-.25.58-.26,1.12-.31,1.72.25Z"/>
      <path class="cls-1" d="M74.01,5.8c-.14.36-.2.99-.84,1.02.93.71,1.81.39,2.75.02-.35-.56-1.26-1.29-1.92-1.04Z"/>
      <path class="cls-1" d="M90.25,147.49c.13.33.38.24.49.13.07-.08.27-.17.21-.42-.03-.13-.28-.17-.41-.1v-.23s-.44,0-.44,0c.05.06.03.2,0,.22-.38.08-.2.57.16.41Z"/>
      <path class="cls-1" d="M91.07,102.04c.14,0,.34.04.44-.26-.22-.11-.49-.31-.77-.25-.11.15.11.5.33.51Z"/>
      <path class="cls-1" d="M22.44,27.25c-.06.31.23.42.53.41.27,0,.47-.07.6-.15.21-.12.19-.43.01-.58-.35-.31-1.07-.02-1.14.32Z"/>
      <path class="cls-1" d="M91.54,137.74l-.08-4.02c0-.31.01-.75-.28-.89-.21-.11-.58-.09-.82.01-.24.1-.27.59-.3.9l-.44,5,.92,2.92c-.99,2.19-1.67,4.37-2.42,6.6l-1.5,3.07c-1.12-1.31-.36-1.64-.16-2.48.07-.29-.35-.51-.46-.35l-1.11,1.57c-.24.33.02.87.05,1.06.03.22.54.21.85.13.36.42.36,1.11.54,1.76.84-1.21,1.21-2.38,1.72-3.66l2.14-5.38,1.42-2.91c.38-1.24.26-2.17-.05-3.33Z"/>
      <path class="cls-1" d="M90.92,112.2c-.06.04.14.21.2.24.08.04.22.12.39-.11.23-.3.13-.51-.05-.66-.28-.24-.19.29-.55.53Z"/>
      <path class="cls-1" d="M92.17,148.1c-.51.27-.69.69-.5,1.24.36-.37.52-.72.5-1.24Z"/>
      <path class="cls-1" d="M91.09,107.19c1.09-.82,1.16-1.95,1.04-3.08-.54.98-1.08,1.98-1.04,3.08Z"/>
      <path class="cls-1" d="M87.18,155.69c.06-.16.03-.4.01-.5-.06-.3-.31-.22-.43-.1-.27.26-.19.37-.09.54.13.24.43.29.51.06Z"/>
      <path class="cls-1" d="M90.69,130.25c.04-.59-.12-1.08-.3-1.48l-.38-.84c-.09-.01-.18-.01-.28.02l.4,1.02c.17.42.23.87.55,1.29Z"/>
      <path class="cls-1" d="M91.97,130.34c-.04-.11-.17-.26-.38-.34v1.01c.45-.1.45-.46.38-.67Z"/>
      <path class="cls-1" d="M19.9,68.46c-.04-.4.03-.78-.63-.96.22,1-.84,1.16-.14,1.82.59-.01.82-.38.77-.86Z"/>
      <path class="cls-1" d="M11.89,74.94c-.01-.09-.23-.29-.35-.27-.8.19-1.43.93-1.21,1.79l2.35-.47-1.21-.52c.33-.2.43-.4.41-.54Z"/>
      <path class="cls-1" d="M7.38,73.6c.23.06.31-.22.04-.25-.39-.17-.51.32-.04.25Z"/>
      <path class="cls-1" d="M13.45,76.4c-.09-.27-1.27.36-1.36,1.01.6.27,1.44-.76,1.36-1.01Z"/>
      <path class="cls-1" d="M10.48,81.7c.21.03.28-.06.29-.13.02-.07,0-.21,0-.31h-.17c-.13.29-.4.39-.12.44Z"/>
      <path class="cls-1" d="M8.65,80.64c-.56.32-.7.81-.77,1.48.56-.31.71-.81.77-1.48Z"/>
      <path class="cls-1" d="M8.33,70.18c-.5.22-.71.56-.95,1.19.8.43,1.55.93,2.56.9-.57-.49-1.12-1.17-.55-1.72-.1-.36-.74-.51-1.06-.37Z"/>
      <path class="cls-1" d="M6.09,63.18c.13-.12.2-.39-.1-.44-.03.01-.1.04-.18.01-.14-.05-.4-.04-.45.1-.07.22.17.46.31.5.17.06.25-.02.42-.18Z"/>
      <path class="cls-1" d="M5.98,81.61c-.1.15-.09.58.31.47.15-.1.17-.56.05-.8-.18.08-.29.23-.36.33Z"/>
      <path class="cls-1" d="M15.41,74.19c-.31-.02-.44.04-.58.2-.13.15-.02.22.1.34.16.15.34.16.43-.07.01-.03.1-.07.22-.03.38-.13.18-.56-.17-.44Z"/>
      <path class="cls-1" d="M76.2,4.23c-.92-1-2.25-1.49-3.58-1.46.36.76,1.91.58,3.58,1.46Z"/>
      <path class="cls-1" d="M5.66,110.13c.84-1.05,1.86-.82,2.62-1.23-.37-.67-.81-1.51-1.43-1.64-.22.24-.94.56-1.07.3.03-.98-.12-1.97-.9-2.47-.84.35-.43-1.13-2.39-2.05-.62-.29-1.33-1.19-2.15-1.06-.48.17-.44,1.41-.03,1.77.48.43.35,1.03.49,1.46l.98,2.93c1.03,2.08,2.43,3.84,4.34,5.21l2.47-1.34,1.66-1.75c-1.02-1.29-2.97.13-4.59-.12ZM3.08,105.32c-.12-.05-.58-.05-.61-.19-.02-.12.31-.42.43-.46.23-.08.24.2.3.28.12.15.07.45-.13.37Z"/>
      <path class="cls-1" d="M14.34,105.51c-.08.07.15.26.17.34h.43c.03-.14,0-.33-.09-.41-.08-.07-.4-.02-.5.07Z"/>
      <path class="cls-1" d="M8.44,56.81c.05.34.13,1.03.7,1.12.69.12,1.89-.68,1.75-1.43-.13-.73-1.27-1.07-1.73-.87-.56.25-.79.75-.72,1.18Z"/>
      <path class="cls-1" d="M6.22,69.76c.27-.06.73-.5.6-.73-.37-.71-1.14-1.06-1.9-1.1l1.29,1.83Z"/>
      <path class="cls-1" d="M3.44,64.02c-.25-.22-.58-.26-.82-.24l-.09,1.54c.62-.23.89-.84.9-1.3Z"/>
      <path class="cls-1" d="M2.12,83.33c.45.01,1.11-.47,1.32-1.09.12-.37-.22-.8-.39-.76-.74.64-1.54.91-2.62.94.37.76,1.03.89,1.69.91Z"/>
      <circle class="cls-1" cx="21.8" cy="78.57" r=".23"/>
      <path class="cls-1" d="M37.38,66.49l.88-2.44c-.29-.28-.46-.5-.87-.47,1.19,1.08-.75.7-2.44,2.16-.42-.24-.17-.72-.01-.97.27-.4.62-.74,1-1.08l1.3-.18c-.71-.84-1.44-1.35-2.21-.95-.51.27-.38.79-.35,1.16-.48.5-1.3.97-1.48,1.73l2.57,2.39c.69-.28,1.37-.68,1.62-1.36Z"/>
      <path class="cls-1" d="M34.59,82.04c.21.33.69.33.92.19-.25-.43-.46-.5-.67-.52-.11-.02-.33.21-.25.33Z"/>
      <path class="cls-1" d="M34.19,68.8c.38-.06.86-.04.94-.62-.46-.19-1.47-.68-1.85-.18-.2.35.56.86.91.81Z"/>
      <path class="cls-1" d="M46.08,88.57c.12-.16.1-.34.01-.46-.07-.1-.33-.24-.54,0-.2.23,0,.46.18.55.13.07.23.06.35-.1Z"/>
      <path class="cls-1" d="M31.53,64.34c.71-.17.92-.88,1.02-1.45,1.34-.5,2.67-1.44,3.16-2.96-.04-.3-.72-.91-1.17-.72-.43.18-1.05.5-1.2.9l-.9,2.45c-.81,1.09-3.05.11-3.14.91-.02.19,0,.51.2.77l1.01,1.23c1.02.16,1.6,1.12,2.55,1.43l-1.41-1.93c-.04-.06-.31-.08-.39-.07-.11,0-.15-.17,0-.3l.28-.24Z"/>
      <path class="cls-1" d="M52.35,85.62c.47-.03.69-.49.7-.72.01-.29-.34-.69-.64-.41v.3c-.32.02-.29.84-.06.82Z"/>
      <path class="cls-1" d="M12.02,89.88l3.59-.34c-.93-1-2.29-1.31-3.38-2.17-2.1-1.65-4.05-3.68-6.88-4.32l-1.28,1.51c-.23.27-.45.48-.45.77,0,.21.15.66.39.65.58-.03,1.02-.3,1.52-.58l1.06,1.94c.76.85,1.67,1.69,2.25,2.66-.39.96.49.14,3.18-.11Z"/>
      <path class="cls-1" d="M47.87,93.96c-.75-1.72-2.78-1.46-2.82-3.33-.6.45-.54,1.14-.88,1.59l-1.56,2.07c.38.48.93.85,1.8.85-.06-.46-.33-.51-.64-.74.64-.7,1.69-1.49,2.66-1.24.31.43-.31.93-.5,1.23.69-.15,1.19-.35,1.94-.42Z"/>
      <path class="cls-1" d="M73.97,4.52c-.9-.94-1.9-1.42-2.95-1.48.99,1.14,1.79,2.09,2.95,1.48Z"/>
      <path class="cls-1" d="M22.55,70.29c.35-.07.44-.44.16-.61-.27-.15-.73-.11-.84-.03-.19.3-.08.52.22.63.28.11.21.06.47,0Z"/>
      <path class="cls-1" d="M29.97,62.76l-1.15-1.26c.88.16,1.37.55,2.14.89-.18-.74-.71-.97-1.18-1.47.29-.83.82-1.39,1.4-1.93l1.71-1.62c.22-.21.03-.64-.16-.64-.15,0-.67-.03-.81.11l-5.25,4.95c1.1.86,2.09,1.05,3.31.99Z"/>
      <path class="cls-1" d="M18.04,76.02c.06.75.87,1.08,1.35.74-.45-.61-.85-.74-1.35-.74Z"/>
      <path class="cls-1" d="M29.81,50.85c.36.37.92.36,1.27,0-.51-.35-.88-.28-1.27,0Z"/>
      <path class="cls-1" d="M22.46,66.31c-.32-.48-.57-.76-1.09-1.02l-.43.96c.55.17.86.26,1.52.07Z"/>
      <path class="cls-1" d="M56.26,85.66c0,.51.22.93.56,1.32l1.29-2.43c-.64-.42-1.86.42-1.85,1.11Z"/>
      <path class="cls-1" d="M111.76,71.95c-.86-.27-1.32-.98-1.17-2.02-.64.33-1.14.33-1.64-.08.55-.56,1.03-.86,1.59-1.2-.1-.9-.02-1.64-.46-2.42-.34.36-.19.78.16,1.11-.97.39-1.76,1.02-1.95,1.85-.35.13-.57.43-.89.71.16.44.75.43,1.01.6.92.64,1.72,1.29,3.01,1.61,0,.49-.19.9.04,1.29.31,0,.29-.26.32-.33.03-.1.31-.11.42-.03.22.16.01.72.1.97.07.18.48.27.58.15.18-.2.06-.42.03-.68l-.37-3.17c-.48-.09-1.07-.31-1.65-.53.45.77.98,1.24.87,2.17Z"/>
      <path class="cls-1" d="M107.69,40.63c.21.04.38.25.45.22.09-.03.16-.27.08-.3l-.34-.14c-.12-.05-.29-.22-.39-.16-.11.07-.14.22-.18.34l-1.15,3.55c.69-1.02,1.21-2.26,1.52-3.51Z"/>
      <path class="cls-1" d="M108.74,52.01c.2-.51.09-.92.11-1.35v-.15s0-.48,0-.48c.1.06.23-.07.2-.11l-.2-.22c-.07-.08-.36,0-.36.19l-.04,1.4c0,.2-.16.53.3.72Z"/>
      <path class="cls-1" d="M108.37,40.02c.28-.47-.16-.81-.28-.76-.22.28.01.72.28.76Z"/>
      <path class="cls-1" d="M108.97,53.92c.5.44,1.08-.04,1.01-.4-.04-.22-.1-.65-.32-.83-.17-.14-.6-.08-.94-.07.04.35.07,1.05.26,1.29Z"/>
      <path class="cls-1" d="M106.35,40.56c-.04-.12-.2-.17-.3-.11-.15.08-.07.27-.11.4l-.82,2.5c.69-.4,1.21-2.86,1.24-2.79Z"/>
      <path class="cls-1" d="M104.68,54.07l-.69-.77-1.45,3.79.81-.19c.2-.05.24.3.64.48-.09-1.01.29-2.08.36-2.08.1,0,.33.25.34-.14-.17-.24-.18-.66.06-.7.12-.02.43.03.51-.15.04-.11.02-.3-.12-.41-.09-.07-.27-.07-.45.17Z"/>
      <path class="cls-1" d="M106.5,39.08c.25-1.24.23-2.27-.26-2.44-.09-.03-.27.1-.25.21.18.9-.45,1.7.5,2.24Z"/>
      <path class="cls-1" d="M68.79,1.9c.36.04.62.36,1.15.19-.25-.3-.56-.44-.86-.65l-1.45-.1c.27.58.82.86,1.16.55Z"/>
      <path class="cls-1" d="M104.67,45.78c.12.12.22.05.22-.02v-.41c0-.1-.26-.2-.36-.06-.14.22,0,.35.14.49Z"/>
      <path class="cls-1" d="M105.22,70.01c.2.09.38-.07.52-.11.39-.11,1.04-.25,1.4-.77.49-.71,1.18-1.23,1.43-1.99-.59-.57-1.63-.81-2.13-.27-.15.17.09.65.25.69.43.12,1.54-.7,1.58-.23l-2.2,1.36c-.41.25-.85.47-1.26.94-.06.1.3.33.41.38Z"/>
      <path class="cls-1" d="M104.88,66.63c-.04.32.25.33.33.28.11-.07.15-.19.1-.32-.04-.1-.28-.25-.43.03Z"/>
      <path class="cls-1" d="M109.17,65.35l.15-.83c.03-.15-.23-.43-.45-.3-.21.56-.23,1.29-.06,1.91.42-.17.31-.54.36-.78Z"/>
      <path class="cls-1" d="M111.12,66.79l1.05-1.44-.7-.73c-.54.58-.8,1.31-.35,2.17Z"/>
      <path class="cls-1" d="M108.8,54.01l-.75-1.38.05,2.32-.54,1.6c.46-.15.9-.11.97.29.04.25,0,.45-.1.97.31-.25,1.13.26,1.03.54l-1.38,1.89c-.19.26-.17.69.17.92l.74-1.77c.15-.37.27-.44.66-.55.18-.05.38.08.53.43,0,.02.07,2.6-.64,2.95-.45-.72-.19-1.29-.25-2.09-.42.3-.28.65-.33.9-.03.16-.71.12-.81.26-.73,1.09-.89,2.48-.44,3.71.7-.89.53-1.83.56-2.67l1.21,1.25c-.26.45.39.51.23.05-.15-.44-.03-.82.24-1.07.16-.15.56-.08.75-.18.46-.23-.05-.6-.12-.79-.51-1.32.97-4.1-.82-3.25-.97-1.33-1.51-2.93-.98-4.34Z"/>
      <path class="cls-1" d="M112.04,68.05c-.27.32-.45.68-.36.83.35.1.48-.18.52-.41.03-.14.06-.42-.16-.43Z"/>
      <path class="cls-1" d="M107.81,48.68c.08.16.16.07.21.01.07-.08.14-.15.2-.31v-.22s-.44-.02-.44-.02c.04.1.03.16.02.23,0,.08-.04.23,0,.31Z"/>
      <path class="cls-1" d="M95.53,15.89c.13-.03.24.07.21.2.11.22.17.5.41.63v.21c.28-.06.27-.4.22-.62-.03-.19-.24-.41-.43-.42-.05-.25-.29-.46-.51-.42-.08.01-.16.16-.12.3.02.08.09.16.22.13Z"/>
      <path class="cls-1" d="M90.31,14.75c.15.22.28.4.65.3-.16-.46-.3-.77-.56-1.1-.36.34-.19.64-.08.8Z"/>
      <path class="cls-1" d="M103.55,33c.09.11.31.31.45.36.15.05.35-.22.5-.53.15-.31,0-.42-.14-.48-.13-.06-.3.06-.42.07-.37.04-.52.44-.4.58Z"/>
      <path class="cls-1" d="M92.17,12.1c.08-.13.05-.31-.08-.39l-1.33-.78s-.05.15-.02.26l1.43.9Z"/>
      <path class="cls-1" d="M93.23,14.13c-.16-.77-.78-1.08-1.48-1.15.38.51.63.98,1.48,1.15Z"/>
      <path class="cls-1" d="M88.2,13.59c.41,1.03.65,1.91,1.42,2.58,0-1.43-.3-2.61-1.42-2.58Z"/>
      <path class="cls-1" d="M85.15,11.24c-.08-.19-.29-.13-.32.09l.57.58c.08.03.22-.19.15-.36-.14-.03-.28-.14-.4-.31Z"/>
      <path class="cls-1" d="M86.29,10.16l1.7.6c-.26-.66-.7-.72-1.07-1.11-.89.12-1.56-.32-2.43-.72.3.86,1.1.98,1.8,1.23Z"/>
      <path class="cls-1" d="M88.99,12.21c.25.67.84,1.09,1.34,1.62.26-1.06-.05-2.21-.98-2.69-.11-.06-.21-.04-.28-.2-.18-.06-.31.12-.35.27.04.05.08.09.08.15.44.14.1.64.18.86Z"/>
      <path class="cls-1" d="M102.66,27.89c.52-.78.3-1.51-.39-2.02-.11.61-.39,1.47.39,2.02Z"/>
      <path class="cls-1" d="M99.93,21.24c-.1.24.2.32.31.5l.28.47c.14.24.33.04.44-.03.32,0,.61.46.63.78,0,.23.22.56.48.84.22-.2.22-.74-.07-.85,0-.07-.03-.14-.06-.19-.03-.52-.61-.94-1-1.25l-.79-.64c-.19-.21-.26-.38-.25-.65-.13.06-.25-.1-.31-.16-.03-.04-.17.12-.14.22l.42.62c.05.09.11.22.06.34Z"/>
      <path class="cls-1" d="M94.7,17.33s.09.03.19-.04l-.86-1.53c-.21.37.09.72.28.93.18.2.27.43.39.65Z"/>
      <path class="cls-1" d="M103.8,25.6c.11-.51-.17-.88-.34-1.23-.39.29-.26.61-.19.95.04.19.33.49.53.27Z"/>
      <path class="cls-1" d="M95.19,15.07s.22-.11.02-.22c-.24-.24-.44-.58-.82-.65,0,0-.03.05-.11.12.27.27.5.65.91.75Z"/>
      <path class="cls-1" d="M104.36,56.5c.36.3.75.26,1.16.13-.22-.38-.72-.57-1.16-.13Z"/>
      <path class="cls-1" d="M99.02,19.44c-.16-.43-.42-1.05-.73-1.31-.05-.05-.15-.12-.17-.19-.05-.16-.31-.2-.31-.08v.51c0,.06.02.15-.02.24.45.24.71.71,1.23.82Z"/>
      <path class="cls-1" d="M109.34,55.86c-.13.39.08.62.11.86.04.32.13.7.7.59-.24-.22-.24-.31-.27-.51-.07-.37-.18-.71-.53-.93Z"/>
      <path class="cls-1" d="M50.09,5c-.18-.49-.2-.9-.42-1.04-.14-.09-.4-.24-.64-.3l-2.04-.47,1.47,1.02c.58.41,1.07.87,1.64.78Z"/>
      <path class="cls-1" d="M45.75,4.04c.13,0,.23-.1.23-.23s-.1-.23-.23-.23-.23.1-.23.23.1.23.23.23Z"/>
      <path class="cls-1" d="M49.03,2.17c.31.34.75.58,1.31.59-.25-.37-.51-.65-.81-.81l-.51-.03c-.09,0-.28.15,0,.25Z"/>
      <path class="cls-1" d="M45.35,5.98c-.02-.19-.12-.41-.43-.51.02.32.16.47.31.62l.12-.11Z"/>
      <path class="cls-1" d="M40.86,4.37c.24,0,.66-.16.94-.26-.47-.42-.89-.63-1.58-.51,0,.31.34.78.64.77Z"/>
      <path class="cls-1" d="M53.92,2.46c-.59-.93-1.33-1.07-1.87-1.61-.34-.08-.57.01-.67.14-.06.08-.04.43.06.48.9.27,1.63,1.04,2.48.99Z"/>
      <path class="cls-1" d="M106,64.32c.92-.66.94-1.69.66-2.47-.51.78-.83,1.53-.66,2.47Z"/>
      <path class="cls-1" d="M39.13,6.31c-.24.42-.4.73-.45,1.29,1.49-.07,2.73-.66,3.85-1.71-.67-.64-1.39.69-3.41.41Z"/>
      <path class="cls-1" d="M62.6,2.91c-.3-.24-.48-.36-.82-.34.14.38.44.53.82.34Z"/>
      <path class="cls-1" d="M55.31,1.37c.49.24.76.53,1.47.78-.25-.57-.79-.92-1.47-.78Z"/>
      <path class="cls-1" d="M21.91,15.46c.2.03.36.01.52.02.02-.12.02-.32,0-.44-.16,0-.31-.01-.52.02-.18.03-.18.37,0,.4Z"/>
      <path class="cls-1" d="M64.38,3.2c-.36-.03-.71-.18-1.18.08.64.17,1.09.47,1.71.88.22-.69-.23-.94-.52-.96Z"/>
      <path class="cls-1" d="M64.56,4.85c-.44-1.08-1.45-1.22-2.38-1.41.74.54,1.36,1.27,2.38,1.41Z"/>
      <path class="cls-1" d="M58.64,1.6l.98.19c.05-.11.03-.17.05-.26-.35-.13-.67-.39-1.07-.42-.19-.01-.38,0-.55-.06-.62-.22-1.13-.65-1.94-.77.54.58,1.29.76,1.91,1.04l.61.27Z"/>
      <path class="cls-1" d="M59.08.69c-.02.12.05.19.13.21.13.04.28-.04.3-.12.06-.25-.26-.54-.73-.74-.33-.14-.71.14-.41.39.22.18.54.28.71.26Z"/>
      <path class="cls-1" d="M62.63,5.33c.01-.28-.61-.88-.86-.86-.44.05-.64.84-.23,1.12.27.18,1.05.54,1.09-.26Z"/>
      <path class="cls-1" d="M28.8,15.74c-1.02-.7-2.04-1.13-3.2-.75.93.86,2.09,1.07,3.2.75Z"/>
      <path class="cls-1" d="M106.29,45.63c-.37-.02-.65.1-.76.36-.11.26.23.35.39.52.02.07.05.16.11.21.1.08.33-.04.29-.1l-.19-.32-.19-.31s.15-.21.33-.35Z"/>
      <path class="cls-1" d="M104.5,63.35c-.35.09-.3.32-.32.53-.02.16.38.54.51.4.67-.72.83-1.87.89-2.76-.16-.13-.56-.04-.72.25.5.44.31,1.4-.35,1.58Z"/>
      <path class="cls-1" d="M103.48,65.29c.38,0,.56-.06.61-.15.05-.09-.05-.25-.23-.37-.2-.14-.33-.22-.49-.09-.09.07-.26.08-.34.27-.08.19.1.35.44.34Z"/>
      <path class="cls-1" d="M105.46,68.14c-.12-.53-.47-.86-.67-.85-.15,0-1.65,1.5-1.71,2.29.95-.19,1.9-.79,2.38-1.43Z"/>
      <path class="cls-1" d="M105.81,50.82c.05.51.13.97.38,1.53.56-.6,1.05-1.77.97-1.96-.06-.15-.25-.38-.47-.36-.43.04-.16,1.11-.88.79Z"/>
      <path class="cls-1" d="M105.41,53.32c.77.38,1.01.83,1.03,1.53.53-.61.7-1.17.75-1.94l-.74.68c-.08-.33-.24-.45-.47-.54-.3-.11-.59-.01-.57.27Z"/>
      <path class="cls-1" d="M107.03,44.53l-.08.76c-.01.13-.11.24-.41.4.16.25.17.44.48.71.3-.65.48-1.33,0-1.87Z"/>
      <path class="cls-1" d="M103.82,67.42c-.38-.29-.77-.45-.88-.33l-.46.53c-.41.46-1,.77-.77,1.51,1.03-.31,1.63-1.03,2.12-1.71Z"/>
      <path class="cls-1" d="M101.84,65.18c.19-.02.17-.26.06-.37-.05-.05-.13-.2-.3-.16-.18.05-.33.36-.26.47.06.09.38.08.51.06Z"/>
      <path class="cls-1" d="M83.59,12.79c.32-.3-.26-1.47-.75-1.48-.61-.01-.54.8-.28,1.1.19.22.51.67,1.03.39Z"/>
      <path class="cls-1" d="M69.54,99.85c-.19.22.02.44.24.39.08-.02.22.08.31-.12.02-.05-.36-.47-.55-.26Z"/>
      <path class="cls-1" d="M113.66,91.44c.08.53.27.83.53,1.1.34-.73-.12-1.06-.53-1.1Z"/>
      <path class="cls-1" d="M12.21,35.56c.29-.35-.52-1.28-.88-1.08-.41.23-.39.73-.12.88.2.11.71.51,1,.2Z"/>
      <path class="cls-1" d="M99.73,68.24c-.19.14.02.49.22.6.56.29,1.96-.76,2.19-1.73.06-.26-.13-.64-.28-.71-.49-.23-.82.91-2.13,1.84Z"/>
      <path class="cls-1" d="M101.77,80.45c0,.3.74.28.79.1-.09-.44-.79-.46-.79-.1Z"/>
      <path class="cls-1" d="M8.99,53.16c-.12-.04-.27.07-.35.1-.39.19-.7.53-1.03.87l-.42.43c-.15.15-.37.26-.41.42-.08.3.26.71.71.57.76-.23,1.31-1.11,1.4-1.93.12-.01.19-.08.22-.17.05-.15-.04-.28-.12-.3Z"/>
      <path class="cls-1" d="M39.52,127.29c-.42.03-.29.88-.05.82.47-.11.28-.84.05-.82Z"/>
      <path class="cls-1" d="M41.04,122.62c-.13-.08-.27-.04-.58.02l-.65-2.6c-.09.38-.27.42-.31.49-.05.09.02.3.19.38-.08,1.12.02,2.37.85,3.23-.33.99-.76,1.85-.52,2.79,1.33-1.25,1.41-4.07,1-4.32Z"/>
      <path class="cls-1" d="M49.17,128.19c.32-.08.52-.3.72-.73l1.66-3.51c.77-1.63-2.71,0-3.34,3.59-.08.44.57.76.96.65Z"/>
      <path class="cls-1" d="M96.46,111.25c-.13.12-.07.26-.14.43l-1.23,3.1.09,2.73c.57-.43.45-1.12.64-1.69.48-1.44.83-2.69,1.02-4.08.09-.22.04-.32-.03-.42-.11-.15-.27-.14-.35-.07Z"/>
      <path class="cls-1" d="M47.58,122.25l1.65-4.59,1.6-4.95c.19-.6-.9-.88-1.28-1.03l-.77-.31-.59.45-3.49.22c-.94.06-1.9-.67-2.88-1.17-.86.58-1.92.91-3.21,1.02.75,4.39,2.16,8.4,4.19,12.29l1.94,3.72c.17.33.53.6.73.55l1.53-4.93c-.4.09-.58.34-1.09.22.55-.82,1.28-.4,1.68-1.5Z"/>
      <path class="cls-1" d="M45.59,132.66c-.2.28.01.55.26.48.14-.04.13-.31.04-.42-.05-.06-.15-.28-.3-.07Z"/>
      <path class="cls-1" d="M40.18,130.35c.21-.33.38-1.09.28-1.63l-.91,1.41c.03.35.49.44.64.22Z"/>
      <path class="cls-1" d="M26.33,109.42c.23.06.31-.22.04-.25-.39-.18-.51.32-.04.25Z"/>
      <path class="cls-1" d="M109.6,99.53c-.45.27-1.23.09-1.74.53-.75.65-1.99.25-2.68.65-.72.41-1.51,1.08-2.03,1.71l-1.87,2.24c-.11.13-.25.51-.43.44l-.48-.19c-.71.55-1.24,1.71-1.57,2.54-.1.24-.64.54-.55.77.14.36.5.59.81.56.56-.06.93-.38,2.51-.37,1.22,0,2.04-1.07,3.04-1.59.47-.17,1.4,1.06,1.08,1.44-.86.94-2.3,1.02-3.57,1.4,1.69,2.16,5.89,1.78,6.39-.02l.53-1.89c-.1-.04-.2-.18-.31-.2-.57,1.71-2.65,3.53-3.32,2.31-.44-.8,2.52-1.17,2.42-4.51l-1.29,2.04c-.53-.22-1.27-.83-1.22-1.55.02-.33.71-.14,1.05-.06.32-.18.09-.99.26-1.35.37-.79,1.47-.98,2.19-.84.14-.31-.13-.44-.14-.55-.01-.09,1.02-.39.8-.8-.13-.26-.21-.55-.49-.57-.33-.02-.5.36-.56.69-.99.37-1.92,1.05-2.62,1.92-.27.16-.52.13-.45-.31.53,0,.68-.49.9-.7.93-.88,1.75-1.66,2.09-2.86.22.26.17.47.03.75.91.37,1.88.19,2.41-.68.39-.65.76-1.32.9-2.16l-2.06,1.24ZM98.99,107.83c.42-.59,1.16-.73,1.6-1.08.06-.14.1-.61.23-.6.17.02.42.11.71.35-.54.75-1.37,1.5-2.54,1.33ZM102.91,105.83c-.19.2-.31.24-.41.27-.1.03-.28-.04-.32-.16-.05-.16-.01-.37.21-.54.16-.13.42-.22.54-.17.15.06.17.39-.02.59ZM104.26,104.91c-.08.07-.39.08-.42-.02-.04-.15.1-.36.29-.46.2-.11.28-.04.29.1,0,.23-.08.31-.16.38Z"/>
      <path class="cls-1" d="M32.13,127.36c.25-.07.74-.28.96-.47.26-.21-.22-.86-.53-.94-.33-.08-.72.08-.88.53-.13.36-.1,1.03.45.88Z"/>
      <path class="cls-1" d="M108.85,98.65c.08-.12-.02-.33-.11-.33-.23-.01-.76.2-.87.38-.08.12-.03.27.05.28.3.04.8-.14.93-.33Z"/>
      <path class="cls-1" d="M29.7,133.24c-.01-.1-.17-.16-.28-.1l-.31.19c-.37.22-.73.39-.93.79.65.12,1.55-.64,1.52-.89Z"/>
      <path class="cls-1" d="M32.57,135.22c-.14.04-.35.22-.2.52-.39.39-.66.78-.74,1.39-.16,1.2-.75,2.19-1.41,3.16l-1.94,2.87c1.14,1.52,3.44,3.47,4.52,2.97.19-.09.27-.47.35-.73.57-2.03.44-3.97.42-5.96-.02-2.35.43-4.6-1-4.21Z"/>
      <path class="cls-1" d="M30.35,104.07c.11.23.24.27.42.23.36-.09.53-.26.29-.53-.13-.15-.25-.25-.48-.23-.26.02-.33.31-.23.53Z"/>
      <path class="cls-1" d="M57.7,104.14c-.14.18-.43.62-.02.91.55.08,1.17-.3,1.85-.47l-.82-.65c-.42-.32-.76-.11-1.01.21Z"/>
      <path class="cls-1" d="M55.93,107.02c.69-.08,1.2-.55,1.33-1.16-.59.25-1.11.47-1.33,1.16Z"/>
      <path class="cls-1" d="M60.3,107.56c.86-.42,1.72-.8,2.56-.98-.02-.38-.38-.59-.47-.55l-1.99.9c-.35.16-.26.68-.1.64Z"/>
      <path class="cls-1" d="M60.77,106.22c.68-.05,1.04-.34,1.28-.94-.54.04-1.03.42-1.28.94Z"/>
      <path class="cls-1" d="M53.95,101.87c-.52.6-.99.92-1.7,1.23l.45.63,2.13-1.16c-.32-.36-.56-.57-.88-.7Z"/>
      <path class="cls-1" d="M55.33,104c.13,0,.23-.1.23-.23s-.1-.23-.23-.23-.23.1-.23.23.1.23.23.23Z"/>
      <path class="cls-1" d="M56.61,108.14c-.06.15-.08.26.06.42.14.15.39-.03.23-.2-.05-.05-.13-.06-.06-.22-.06.02-.15.01-.23,0Z"/>
      <path class="cls-1" d="M59.09,116.75c.63-.33.42-.72.3-.92-.19-.33-.71-.42-.8,0-.06.28.28.76.49.92Z"/>
      <path class="cls-1" d="M64.85,108.33c.08-.36,0-.65-.19-.86-.54-.55-.62.62-1.8,1.56.01.31.66.58,1.04.19.32.41-.05.56.13.61l-.54,1.68c-.17.53-.16,1.18-.03,1.95.88-.08,1.64-.78,1.97-1.59.08-.22-.67-.59-.94-.31l-.03-1.18c.23-.38.16-.97.25-1.4l.14-.64Z"/>
      <path class="cls-1" d="M57.93,106.06c.01.29.53.54.83.45.68-.23.85-.7,1.39-.99-1.02-.39-1.79-.03-2.22.54Z"/>
      <path class="cls-1" d="M58.55,109.85c-.28.25-.42.61-.55,1.1.27.06.62-.14.76-.33.18-.24.02-.78-.2-.77Z"/>
      <path class="cls-1" d="M61.68,112.72c-.3-.11-.41.27-.31.48.06.13.21.25.4.38.08.1.13.22.41.2.2-.01.35-.21.23-.33l-.36-.37c-.11-.11-.25-.32-.36-.36Z"/>
      <path class="cls-1" d="M59.34,114.1c-.22.3-.33.64-.18.91.27.45,1.36-.32,2.2-1.07-.91-.21-1.68-.31-2.02.16Z"/>
      <path class="cls-1" d="M71.61,157.43c-.08-.2-.35-.54-.6-.51-1.16,1.27-.92,3.42-2.5,4.66-.15.22.45.56.7.58.32.03.47-.17.7-.64l1.5-2.99c.17-.34.36-.74.21-1.11Z"/>
      <path class="cls-1" d="M92.05,149.57c-.34.47-.44,1.1-.44,1.67.03,0,.16.02.3.01l.29-1.56s-.13-.13-.15-.12Z"/>
      <path class="cls-1" d="M91.63,97.39c-.08-.07-.26-.14-.28.12-.25,0-.17.15-.1.23.13.14.19.21.31.22,0,.17.08.59-.17.61-.23-.02-.31.13-.2.34.24.46.37.83.73,1.14l.42-.88-.55-1.26c-.06-.13,0-.37-.17-.52Z"/>
      <path class="cls-1" d="M91.15,155.05c.16.4.29.69.12.8l-.49.34c-.23.16-.32.4-.16.7.04-.24.42-.35.51-.13.04.1-.12.45.27.49.41.04.61-.84.58-1.29-.03-.34-.43-.81-.83-.91Z"/>
      <path class="cls-1" d="M83.91,155.19c-.09.17.17.42.27.46.08.03.25-.02.31-.13.15-.31-.5-.48-.58-.33Z"/>
      <path class="cls-1" d="M93.25,154.42c-.03.44-.7.98-.16,1.53.58-1.38.75-2.66.41-4.06-.55.89-.18,1.6-.25,2.53Z"/>
      <path class="cls-1" d="M93,120.29c-.43.97-.66,1.96-.14,2.97-.13-1.3.45-2.34.14-2.97Z"/>
      <path class="cls-1" d="M54.07,143.01c-.16-.08-.36-.18-.56-.03-.3.22-.02.63.22.6.13-.01.25-.02.46-.18.11-.08.05-.31-.11-.39Z"/>
      <path class="cls-1" d="M56.25,139.16l-.98,1.88c.71-.17,1.14-.33,1.85-.7l-.87-1.18Z"/>
      <path class="cls-1" d="M77.61,151.2c-.56.02-.97.46-.8,1.1.31-.31.58-.42.8-1.1Z"/>
      <path class="cls-1" d="M91.11,152.87c-1.08.55-1.55,1.75-1.69,2.9-.01.09-.33.07-.36-.03l-.06-.23c-.43-2.35,2.46-4.99.55-6.46.32,1.05.01,1.8-.41,2.69-.31.65-.3,1.47-1.03,2.03l-.65-1.14c-.58.25-.59.58-.59,1.01.01.77,1.37.93,1.09,2.2l-1.37,1.09c-.74-.19-.81-1.04-1.12-1.34-.44-.42-.73.26-.92.37-.48.07-1.04-.12-1.25-.33-.29-.31-.48-.8-.36-1.22.2-.73-.51-1.14-.57-1.53l-.51-3.2c.06-.15.25-.3.46-.49l-.12-3.58c-.02-.56.63-1.09,1.22-1.2l.28,4.06c0,.13.34.52.46.48.15-.05.28-.42.31-.57.22,0,.28.17.23.28l-.21.48c-.1.23.2.3.3.24.13-.08.11-.25.16-.33l.67-1.32.4-.63c.37.24.48.69.79,1.22,1-1.18,1.26-2.58,1.72-3.89l-.09-.68-.21-.02c.02.61-.28.9-.87,1.33-.22.23-.09,1.02-.57,1.23-.31-.96.41-1.72.63-2.52.33-1.19.62-2.25,1.25-3.35.23-.4.38-1.02.17-1.41-1.31-.21.76-3.1.17-5.44-.16-.65-1.68-.68-2.08-.3,1.22,1.3-.29,3.44-.2,5.63l-1.12-.37c.12.71-.44,1.36-1.02,1.4,1.16-2.53,2.95-5.68,1.02-6.48-.45.22-1.45.6-1.55,1.09l-1.1,5.19c-1.01-1.8.03-4.81-.74-5.44-.24-.19-.7-.53-1.11-.11-.15.15.05.7-.5.86.14-.27-.51-.86-.67-.64-.62,1.19-.5,2.66-.31,4.01-1.53.45-.98-2.37-.54-4.88-.19-.29-.79-.06-1.02.26l-1.43,1.95c.34.2.49.33.51.43.03.13-.49.25-.58.37-.62.92-.8,2.37-1.25,3.42l-1.53,3.59c.41.51.71.95.61,1.45-.12.61-.38,1.08-.89,1.52-.67.59-1.06,1.54-2.13,1.77.63-1.82,2.74-3.78,1.35-3.78-1,0-2.17,3.08-4.9,4.29.2-1.07,1.23-1.55,1.69-2.3.8-1.32,1.58-2.38,3.27-2.63.03-1.11-.74-2.86-1.81-2.85-.89.38-.7,2.33.23,2.74.21.09-.21.61-.39.53-.85-.37-.4-2.36-1.71-3.42-1.42.6-1.85,2.28-1.09,3.53-1.04,2.22-3.25,2.86-3.34,4.71.5.22.52.67.41.94-.09.23-.29.75-.56.73-.72-.29-1.12-.98-1.52-1.6-.54,0-.89.18-1.45.39l.23-2.27c.06-.62.89-.68,1.32-.97l.72-1.29c1.12.64.02,1.54-.21,2.15-.06.17.05.38.27.24.58-.37,1.36-2.04,2.99-2.97-.73-.42-1.18.16-1.76.16-.23-.16-.12-.67.05-.79.24-.16.66-.1,1.04.09l-.21-1.4c-.13-.87.19-1.48.87-1.9.59-.37,1.21-.41,2.05.07l-.43-2.6-3.25,2.9-1.97-1.04c-1.26-.66-2.93,0-3.48,1.36-.44,1.07-1.18,1.67-1.86,2.54-1.06,1.36-2.59,2.41-4.5,1.99-.87-.85-1.91-1.5-2.9-2.01l.06-.57c-1.96-.25-3.5.51-3.57-.02-.08-.54,2.06-.39,2.59-1.24.42-.67.79-1.18,1.74-1.23,1.63-.07,3.11-.97,3.65-2.59.09-.16.65.1.7.23.2.34.48.31.88.34,1.01.07,1.93,1.35,2.72.77.14-.1.36-.28.12-.57-.54-.66-2.05-.16-2.76-.84l.73-.47c.64-.41,1.58-.79,1.92-1.63.46-1.14.61-2.67.39-3.89-.42-.43-1.69-.4-2.19-.1-.58.36-1.04,1.22-1.11,1.91l-.28,2.91c-.04.37-.59.3-.81.16-.72-.45-.57-3.97.06-5.9-1.01-.33-1.95-.53-2.98-.49-1.24,2.87.8,5.25.55,5.63-.06.1-.35.26-.52.16l-2.1-1.26c-.68-.41-.82-1.8-.55-2.61.29-.87.9-1.55.82-2.56-.12-1.47-3.15,1.45-2.53,3.33.37,1.14,1.1,2.1.79,3.35-.07.27-.29.48-.47.44-.12-.02-.41-.09-.56-.23l-2.73-2.44c-.95-.85-1.56-1.89-1.66-3.18l-.33-4.39c-.07-.92-.63-1.76-1.31-2.51-.22.86-.28,1.4-.7,2.11.81-.17,1.17-.54,1.52.09-.37.41-.7,1.07-.77,1.78l-.2,2.03c.28.88.55,1.36.02,2.23-.38.63-.74,1-1.59,1.12-.23.03-.44-.06-.45-.29,0-.12.02-.31.06-.45-.36-.15-.92.16-.88.52.83,2.27.36,4.5-.71,6.55l-.7,7.69c.7.32,1.49.37,2.02-.2-.47-.59-1.07-1.2-.93-1.92.07-.37.94-.36,1.18-.42v-1.39c.81.26.84,2.13,1.68,2.34,1.17.29,1.5-.84,2.49-.89.11.35.06.77-.03,1.18,1.18.27,2.01-.72,3.05-.75-.08.96-.87,1.29-1.18,1.87-.41.74,1.8.95,1.79,2.31-.88.17-1.72.26-2.68-.03.55-.48,1.04-.13,1.51.02v-.93c-.45-.19-1.6-.75-2.11-.27-1.05,1.02-1.35,2.74-1.3,4.17,1.3.05,1.43-2,2.56-1.68-.1.97-.18,1.79.09,2.54l5.06,1.02c.87.18,1.67.83,2.63.49-2.29-.76-5.22-1.59-4.79-3.72l3.19,1.18c.43.16.69-1.21,1.14-1.41,1-.45-.29,2.07.4,2.3.87.28,1.45.51,2.15,1.06.58.45,1.7.28,2.49.21.29.5.56.93,1.12,1.17,1.56.66,3.41,1.45,2.89,2.08-1.11-.11-2.43-.73-2.4-.05.01.18.29.42.54.46l1.76.33c1.72.32,2.46,1.65,3.08,1.55.57-.09,1.08-1.71,2.26-2.78.12-.11.54-.1.52,0l-.12.53-1.19,2.56c2.19.46,3.48-2.57,3.21-3.5-.28-.96-1.47-.22-1.83-.44-.36-.22-.74-1.79-1.89-3.13.52-.29.95.04,1.45.35l1.48.33c.45.43.6,1.03,1.17,1.29.69-1.11,1.45-.59,2.12-1.18.2-.18.66-.19,1.01-.27.06.64-.04,1.07-.17,1.7,1.08-.59,1.96-1.21,2.54-2.34-.83.18-1.25.77-2.18.64.34-.46.76-.76,1.15-1.06,1.17-.88,1.88-2.38,2.82-3.61.45,0,.73.72.58,1.15.89-.09,1.11-.66,1.93-1.11-.22,1.68-1.46,3.12-3.15,3.86.65.78.73,1.41.4,2.09-.64,1.28-1.79,1.27-3.71,1.3-.33.33-1,.87-1.15,1.34-.42,1.33-1.19,2.61-1.22,3.96-.02.84,1.4.79,1.96.85,1.28.15,2.19-.36,2.4-1.64.1-.62.63-1.18,1.16-1.15.13-.07.34-.18.42-.28.18-.21.53-.12.59.15l.29-.05c.16-.03.49.15.67.01.41-.31.41-1.14.55-1.33.12-.16.43-.14.61-.1.07.17.2.34.34.41.28.12.76-.22,1.11-.61.62-.05.35,1.13,1.29.68l-.73,1.96,1.75-1.26-.45,1.37c.68-.44,1.12-.86,1.94-1.03l-1.6,1.74c.58.68,1.27,1.12,1.87,1.2,1.3.17,3.73-1.84,4.2-3.91l.71-.47-.23-.92c.64-1.5,1.39-3.1,1.41-4.84ZM85.38,141.86l-.51-1.23c-.05-.13,1.54-1.28,2.14-.56.42.49-.12,1.25-.16,1.78-.35,4.57-2.08,4.8-1.74,3.89.13-.36.2-.62.15-.83-.04-.19-.5-.17-.7-.23.08-.94.39-1.9.81-2.82ZM39.94,142.41c-.06.28-.05.63-.57.66-.06-.25-.14-.84.1-1.03.28-.23.52.17.47.37ZM48.7,137.97c.56-.61,1.39-1.11,2.24-1.09.45.01.41.44.5.62-.73.86-1.78.89-2.8.82-.1-.05-.27-.39.06-.35ZM42.21,140.07c-.58-.29.14-.9.37-1.13.39-.45-.45-.94-.7-1.16-.49-.45-.96-1.45-1-2.18-.03-.5.69-1.98,1.78-1.96.15,0,.43.37.33.55-.28.51-1.01.71-1.65.87.06.39.35.51.62.79.26-.48.57-.59.97-.58.27.01.87.29.65.71-.23.45-.98.67-1.02,1.39l2.69-1.11c-.33,2.39-.79,2.99-3.05,3.81ZM46.92,140.55l-2.51.02c.41-1.41,3.32-2.3,3.95-2.24.13.01.11.37.12.49.04.05.09.1.11.15.04.09-.06.24-.07.48,1.26,0,2.3-.66,3.3-1.25l1.44-.55c.37-.14.91.17.86.41-.27,1.13-1.27,1.23-2.09,1.58-1.59.69-4.4,2.78-5.08,1.82-.13-.19-.02-.6,0-.9ZM50.04,151.35c-.35-.14-.51-1.27-.16-1.57.43-.37.98.21,1.07.55.14.48-.26,1.05-.91,1.02ZM61.26,141.9c.27-.33.9-.56,1.33-.84.28.39.1.81-.03,1.23-.14.42-.46.36-.77.3-.27-.05-.68-.24-.53-.69ZM61.42,145.6c-.3.68-1,.9-1.64.45,1.09-.77,1.4-1.86,1.71-3,.42,0,.87.42.76.67l-.84,1.89ZM64.48,159.12c-.47-.41-.35-.81-.13-1.27.15-.32.54-.9.97-.67l-.84,1.94ZM77.3,136.42c.45.37.43.91.28,1.32-.12.32-.53.63-1.29.43.24-.74.55-1.32,1.01-1.75ZM75.95,145.4c.9-.27-.12,1.32-1.32,1.89.12-.73.71-1.45,1.32-1.89ZM70.31,148.33c.25-.05.52.04.61.14.1.11.07.48-.07.6l-1.44,1.24c-.14.09-.41-.03-.47-.09-.24-.26.5-1.73,1.37-1.9ZM66.69,149.39c-.05-.08-.18-.13.07-.3.11.06.27.03.34.07.14.08.15.27.13.41-.12.1-.42,0-.53-.19ZM67.24,153.21c.09-.23.52-.5.98-.2-.13.34-.75.47-.98.2ZM68.04,152.16c.15-.72,1.16-.61,1.41-.89.55-.61.89-.91,1.64-1.18l2.83-2.23c.19-.14.41.31.31.56-.08.21-.16.45-.47.64l-3.28,2.07c-.7.44-1.32,1.25-2.45,1.02ZM72.83,152.11c-.07.29.13.43.2.59l-.31.63c-.14.28-.49.16-.74.01-.01-.18-.4-.35-.75-.43-.69.08-1.24.92-2.33.88.34-.83,1.23-1.31,2.02-1.74,1.4-.75,2.69-1.55,3.91-2.56.27-.23.83-.25.91.07-.74,1.03-1.82,1.88-2.91,2.54ZM76.99,148.33c-.05.26-.26.43-.4.63.08.36-.21.54-.52.39-.24-.11-.35-.35-.35-.61,0-.15.07-.18.14-.21.09-.04.45.07.46,0,.03-.23.07-.43.22-.5.03-.13.27-.18.36-.12.15.11.13.28.1.42ZM75.71,144.05c-.36-1.09-.08-2.56.62-3.37.55-.64,1.42-.83,1.92-.2l-2.54,3.58ZM78.07,149.19l.02-.66c.12,0,.18.14.15.21.04.16.06.35-.17.45ZM78.63,146.45c-.19.27-.5.84-.99.99-.42.13-.54-.42-.3-.71.19-.23.47-.32.89-.06.12-.09.16-.31-.09-.44-.15-.08,0-.3.22-.19.11.05.48.11.27.41ZM72.79,161.54c-.1.12-.62.1-.64-.06.3-1.22.77-2.49,1.72-3.38.38.78-.88,3.21-1.08,3.44ZM75.16,159.79l.09-1.18c.02-.21.33-.34.51-.19.26.21.02.94-.6,1.38ZM80.95,135.81c.06.16,0,.42-.11.44-.18.04-.33-.06-.49-.25.03-.23.38-.22.6-.19ZM80.39,145.98c.4.25.1,1.32-.43,1.49-.23-.43-.15-1.36.43-1.49ZM80.02,147.78c.39.12.41.89.19,1.06-.29.07-.44-.28-.5-.43-.08-.2.09-.7.3-.63ZM79.06,153.78c-.29-.2-.23-.79.09-1l1.74-1.14c-.18.96-1,1.72-1.83,2.14ZM81.57,142.94c-.13,0-.23-.1-.23-.23s.1-.23.23-.23.23.1.23.23-.1.23-.23.23ZM80.3,140.84c.24-.84,1.3-1.23,1.6-.86.1.12.16.39-.08.62-.4.39-1.02.44-1.53.24ZM84.71,161.64l.58-.85c.09-.14.22-.21.34-.22.1-.01.21.06.25.18.13.4-.42.9-1.17.89ZM87.32,157.13c.11-.31,1.03-.04.91.37-.11.37-1.05.02-.91-.37Z"/>
      <path class="cls-1" d="M37.63,126.42c.27.06.54.07.79.1.58-1.44-.4-2.37-.64-5.05l-.52-5.83c-.34-3.78-.3-9.6-3.16-8.57.13.66.45,1.67-.06,2.28-.59.71-1.41,1.15-2.25,1.61l-2.35-1.41c-.48.69-1.32.88-1.95,1.36-.53.4-.86,1.04-1.64.85.68-1.8-1.63-1.34-1.48-2.56.1-.87-.14-1.82-.85-2.34-.14.36-.34.73-.57.73-.27,0-.59-.39-.59-.66,0-1.01-.75-1.59-1.1-2.34-.34-.73-.49-1.2-1.29-1.54l-1.49-1.16c-.46-.36-.86-.8-.63-1.28l-.48.17c0,.65.14,1.01.36,1.61,1.74,4.93,4.35,9.38,6.79,13.91,1.16,2.14,1.16,4.54,1.73,6.77.71,2.75,1.68,5.26,2.12,7.99l1.31-.5c2.28-.86.36-3.12,1.93-4.51l.06-.86c0-.12,1.12-.44.79-.91-.21-.3-.91-.16-1.04-.65.17.63,1.63-1.65,1.55-3.03-.08-1.39-.17-2.83.68-4.04,1.24.15.87,2.43,2.34,4.44.31,1.11.82,2.05,1.37,3-.33.9-.02,1.59.27,2.41ZM28.03,122.23c.04-.17.33-.41.54-.22.33.32.38.73.55,1.58-.46.29-1.23-.78-1.09-1.37ZM30.21,125.55c-.3-.02-.74-.58-.75-1,0-.24.47-.34.76-.25.25.08.29.37.91.77-.04.12-.64.5-.92.48ZM31.09,122.49c-.2-.71.23-1.45.87-1.44,0,.86-.38,1.34-.87,1.44ZM34.65,115.6c-.33.29-.67.46-.85.42-.26-.05-.53-.25-.5-.58.05-.55.34-.93.88-.84.34.05.94.6.48,1Z"/>
      <path class="cls-1" d="M54.76,142.91c-.16-.03-.25.05-.27.12-.05.16.09.36.28.45.21.11.4.08.57-.04.11-.08.24-.18.11-.33-.14-.16-.24-.24-.48-.2-.06.01-.13.01-.2,0Z"/>
      <path class="cls-1" d="M93.26,138.54c.54-1.46.85-3.04.96-4.61l-.35-.7c-.14-.28-.79-.13-.75.16.11.73.33,1.31.19,2.11l-.51,2.88c-.09.5-.18,1.21.15,1.69.18.27.49.1.61-.04.1-.11.43-.3.21-.6-.2-.27-.54-.53-.52-.87Z"/>
      <path class="cls-1" d="M53.05,144.26c-.07.35.45.69.74.45-.04-.24-.4-.53-.74-.45Z"/>
      <path class="cls-1" d="M95.43,123.15l.49,5.95c.58-2.43.05-4.61-.03-6.89-.46.12-.48.68-.46.94Z"/>
      <path class="cls-1" d="M95.73,149.37v.22c-.45-.17.04-.98-.41-1.37-.13-.12-.22-.05-.33.1-.11.15-.11.25-.1.42l.02,1.46c0,.37-.1.66-.27,1.02.04.36-.06.86.25,1.05l.25-2.04c.06-.11.19-.18.19-.46.26.12.25.46.2.93.03.15.47-.05.42-.3-.03-.12-.03-.29,0-.42.05-.23.08-.55-.21-.62Z"/>
      <path class="cls-1" d="M94.07,149.6c.75-.25.59-1.2.3-2.34-.22.83-.29,1.5-.3,2.34Z"/>
      <path class="cls-1" d="M95.34,121.77c.11-.09.19-.29.28-.46.25-.47-.19-.99-.73-1.32l-.64,2.93c-.05.24-.14.38-.11.71l.75,7.2c.27,0,.52-.32.49-.62l-.75-7.28c-.06-.59.22-.75.71-1.15Z"/>
      <path class="cls-1" d="M42.08,147.86c-.25.14-.45.48-.56.83l-.8,2.36c.19.22.59.1.75-.23l1.53-3.05c-.26-.12-.64-.06-.91.09Z"/>
      <path class="cls-1" d="M54.63,155.99c.22.72,1.09,1.01,1.6.73-.6-.58-.93-.9-1.6-.73Z"/>
      <path class="cls-1" d="M52.48,128.21c-.08.44.33.71.58.87.28.18.92.28,1.06-.05l1.09-2.48c.5-1.15,1.21-2.75.65-3.22-.67-.55-2.86,1.99-3.38,4.88Z"/>
      <path class="cls-1" d="M95.28,132.03c-.5.42-.32.94-.32,1.51.02,1.81-.84,3.49-.56,5.12.09.5.74,1.49,1.01,1.22.54-.54-.07-1.24-.34-1.52l.31-3.95c.07-.83.29-1.55-.11-2.38Z"/>
      <path class="cls-1" d="M94.06,150.1l.05,3.45s.12-.03.16-.11l-.05-3.45s-.12.03-.16.11Z"/>
      <path class="cls-1" d="M95.22,143.73c-.43.38.2.66.2.89l.05,3.01c.72-.86.31-1.79.48-2.63l-.73-1.27Z"/>
      <path class="cls-1" d="M93.21,126.87l.25,5c0,.17.64.19.71.05.07-.13.18-.38.15-.68l-.73-6.92c-.74.74-.42,1.69-.38,2.55Z"/>
      <path class="cls-1" d="M95.12,142.18c.07.17.29,0,.32-.1l.12-.44c.07-.26-.12-.41-.23-.32-.05.04-.06.14-.22.07.03.07.02.16-.03.21.02.18-.04.39.04.57Z"/>
      <path class="cls-1" d="M55.36,102.75c.11,0,.21-.09.21-.2s-.09-.21-.21-.21-.21.09-.21.21.09.2.21.2Z"/>
      <path class="cls-1" d="M40.02,88.14l-.13.37c-.06.18-.38.78.04.9.18.05.31-.42.18-.58-.12-.14.31-.32.22-.58-.04-.12-.3-.18-.32-.11Z"/>
      <path class="cls-1" d="M79.63,5.32c-.83-.52-1.53-.92-2.58-.68.78.61,1.55.78,2.58.68Z"/>
      <path class="cls-1" d="M24.49,96.73l4.89,2.16c0,.8.05,1.56.74,1.98,1.56.95,3.06,1.76,4.86,1.99,2.51.31,4.71,1.36,7.04,2.27,1.73.68,3.59.88,5.38,1.12,2.18.3,3.24-2.32,3.48-.7.86.09,1.96-1,1.53-1.31-.22-.16-.55-.21-.95-.05-.06-.69.34-1.24.96-1.76-.18-.26-.57-.6-.94-.61-.37,0-1.08,1.01-1.36.81-.13-.09-.2-.35,0-.64-1.38-.68-2.94-.51-4.69-.51,1.19-1.3,2.9-.24,4.29-.39,1.35-.92,4.46-2.14,5.14-1.84.1.04.26.34.36.34.19,0,1.17-2.06,2.83-.93-.69,1.24-2.06,1.83-1.99,2.82,1.36-.83,2.61-1.58,4.09-1.76l3.14.27c-1.6,2.37-4.78,1.48-4.69,3.45,1.92-.02,3.78-.08,5.54-.66.4-.13,1-.44,1.21.18l-2.8,1.39-1.44-.22c.23.67.99.74,1.39,1.04.32.24.45,1.23,1.11,1.01,1.11-.38,1.46,2.45,4.3,2.29-.11,1.89,1.67,2.15,1.53,2.45l-.15.31c-.25.1-.53.36-.62.56-.13.31-.06.81.36.76-.03.54,0,1.17-.22,1.82-.28.79-1.72,1.57-2.6.89-.34-.26-.35-.73-.24-1.09-.12.02-.35.32-.49-.01-.66.36-1.44.49-2.23,0-.11.47-.23.7-.38.75-.17.06-.45-.01-.74-.17-1.04-.56-1.16,1.87-2.58,2.34-.23,1.64-.3,3.6-1.29,5.13-1.08-1.5-.94-3.23-1.25-4.71-.12-.57-.82-1.12-1.22-1.47.05.42.15.71,0,1.02-.96.16.11-1.55-1.21-2.39-.86-.55-.64-2.32-1.3-1.05.69,1.1.57,2.74.81,4.45,2.81,1.83,1.53,3.57,1.57,3.7.21.69,2.58.03,3.17,1.54.44,1.13.56,2.44.49,3.58l-.51,2-.18,1.74c.64-.19.67-.93.93-1.23,1.5-1.73.81-2.77,1.77-2.62-.02-.61.37-.99.79-1.48.29-.34,1.13-.72,1.27-.1.19.8-.94,1.27-1.2,1.76-.01,1.5-.74,2.93-1.29,4.25,1.19.61,2.53.86,3.82.75l.74-5.79c.08-.61.1-1.29.72-1.75,1.57,1.99-1.11,4.01-.14,7,.14.44,1.45.33,1.57-.16.45-1.72.47-3.46.34-5.18-.36-.62-1.11-1.14-1.22-1.97.7-.01,1.26.4,1.92.6l2.52-1.75c2.81.21,3.14,3.84,3.72,2.08.2-.07.38-.02.4.07.37,1.25-1.77,4.14.01,6.58.57.53,2.25.69,2.85.17.92-1.74.42-3.7-.49-5.29-.21-.36-.45-1.03.07-1.08.35.06,1.1.76,1.42.41l1.85-2c-.88,2.79-1.69,5.37-1.7,8.27,1.19.37,2.43.44,3.55.18.21-.13.33-.75.32-.99l-.27-4.89c-.05-.99-1.06-1.58-1.56-2.46.71-.02,1.35.64,1.88.11.31-.32.54-.97,1.15-.67l-.08,8.39c.47.41,1.34.27,1.91.02,1.82-.79.6-4.53-.38-6.95.66.36,1.64.71,2.19.43.17-.09.09-.66.62-.52l-.57,2.44-.1,4.44c.82-.81,1.3-.08,1.59-.71.1-.23-.09-.45-.24-.66-.55-.83.06-1.97-.2-2.66-.39-1.04-.4-1.95.07-3.02.25.38.91.47,1,.26.22-.62-.01-1.53.55-2.17.4,1.35.45,2.65.35,3.9l.46-.22.26-4.75c.05-.88-.47-1.28-.67-1.92-.6-1.87-.14-3.97-.22-6.16-1.33,1.16-.62,3.21-1.98,2.03-.13.08-.13.39-.07.47l.38.5c.22.28-.27.71-.52.7-1.02-.06-.96-1.23-1.45-1.11-.23.06-.62.3-.61.65l.15,3.31c-.82-.74-.62-1.65-1.07-2.5l-1.59.4-.41,2.79c-.98-.4-.57-1.37-.63-1.96l-.54-5.18c-.28-.67-1.45-1.31-1.58-2.34-.89.04-1.29.36-1.98.75-3.21-1.42-3-4.28-4.9-5.21-.44-.79-.25-1.94-.33-2.73l.89-1.05c-.47-.66-.51-2.28.11-2.72,1.26-.26,2.01-.61,2.34-1.91.75-2.88,2.82-4.53,3.57-6.98l3.34-.92-.37-.54c-.17-.26.02-.59.16-.87l1.02-1.94c.94.52,1.24,1.4,1.89,2.31.46-1.96.04-4.72.66-3.83.08.12.31.33.35.53l.45,2.33,1.94-.86c-.01-1.36-1.49-1.82-2.01-2.81-.81-1.54-.86-3.33-1.36-4.91l-.1-1.79c-.04-.78.29-1.67-.04-2.45-.21.62-.27,1.1-.75,1.3-.09.17-.71.42-.73.21l-.24-2.36c.45.02.96-.06,1.55-.26-.93-1.15-2.22-1.06-3.1-.39-.77.58-1.5,1.25-1.97,2.31l1.34,1.39c.51.53.61,1.5.77,2.25-.43,1.08-1.62,2.17-.82,2.07.27-.03.52-1.18.83-.63.05.08.05.33-.05.45-.67.74-.56,1.49-.63,2.5l-.05.66c-.01.16-.29.38-.56.27-.69-2.59-.71-5.26-.98-7.99-.06-.57-1.24-.69-1.76-.51l-.47-2.39c-.13-.68-.96.46-1.2,1.61-.13.62-.67.92-1.16.9-.63-.03-.96-.58-.92-1.37l-1.51.52c-.1.03-.15-.42-.05-.45.14-.04.33-.06.61-.37-.31-.24-.88-.2-1.21-.83l-2.51.32,2.17,3.06c-1.38-.05-2,.53-2.68,1.38-.9,1.11-1.87,2.13-1.44,3.77-.69-.1-.72-.59-.93-1.14l-1.28,1.59c-.18.23-.56-.08-.59-.22l-.22-1.04c-.8.22-.54,1.08-.96,1.62-.15.74-.52,1.28-1.37,1.3-.2.85-.87,1.19-1.65,1.28-.29.04-.5.06-.62.36-.08.19-.14.38.06.73-.62-.02-1.13-.26-1.18-.83.76.28,1.05-.14,1.26-.48.07-.11.47-.13.57-.21.18-.13.25-.38.18-.69.39.08.82.06,1.05-.11.19-.14.19-.49.07-.96.51-.08.36-.59,0-.5-1.15.95-2.39,1.44-3.76,1.7l-.4.56c.11.21.09.41.03.52-.13.24-.44.17-.76.17-.3,0-.34.62.04.79.29.13.57.03,1.1.16-.36.18-.73.41-1.14.55-.45.15-.95-.49-1.23-.79-.92.27-1.41.99-1.76,1.86-.34-.41-.28-1.02-.04-1.34.22-.29.71-.47,1.24-.58-.23-.67-.89-.7-1.45-.91-.23-.09-.37-.75-.94-.48l.7.72c-.51.14-.88-.21-1.28-.44l-4.13,1.97c.15,1.25-.37,2.23-1.52,2.37l.26,2.84c.02.21-.02.54-.13.58l-.53.2c-.62.71-1.28,1.14-2.18.4-.37.93,1.6,1.77,2.98,2.35.13-1.4.43.09,2.29.36-1.64,1.73-4.21-.88-7.45-1.53-3.7-.74-3.17-4.16-4.78-3.8.15-.37.12-.65-.06-.9-.11-.15-.3-.3-.73-.3l.94-3.88c.37-1.53.99-2.8,2.03-4.13-1.05.12-.9,1.22-1.83,1.54.21-1.31.99-2.21,1.41-3.39l-2.09-.81c.5-.43.97-.5,1.52-.47-.46-.99.23-1.67.53-2.77-1.58,1.24-3.74,2.11-3.88,2.5-.2.55,1.63,1.14.65,2.61-.47.71-1.38,1.55-2.12,1.74-.69-.22-1.08-1.12-1.1-1.65-.05-1.21,1.08-1.76,1.33-2.38.38-.95-3.52-.87-4.49,3.35-.24,1.05-.52,1.96-.5,3.08.05,2.21-1.66,4.18-3.12,4.09-.21-.01-.33-.28-.42-.53l-3.24-.22v-.25s2.43-.65,2.43-.65c.23-.06.41-.18.57-.36.11-.13-.07-.44-.24-.39l-4.04,1.18c-.36.11-.5.41-.44.78l-3.24.6-6.94.27c-1.16.05-2.61.34-3.22,1.36-.12.49.85,1.27,1.45,1.32,3.52.3,7.1.06,10.63.92,1.45.36,2.62,1.69,4.04,2.31ZM49.44,102.94c.15-.1.45-.02.46.14-.05.66-.69,1.07-1.18,1.53-.19-.76.22-1.33.72-1.67ZM61.34,123.14c-.54-1.15.42-2.7.76-2.48.27.17.09,2.02-.76,2.48ZM89.8,123.46c-.2-1.62-.18-3.03-.67-4.56,1.21.68,1.59,3.87.67,4.56ZM86.88,120.39c.13.54.27,1.08-.09,1.84-.37-.59-.38-1.31.09-1.84ZM80.25,113.39c.83.51.89,1.4.53,2.17.21.17.5.76.33.99-.31.16-.63-.18-.64-.36l-.03-.67c-.03-.71-.5-1.39-.19-2.13ZM79.61,114.06c.31.27.25,1.31-.1,1.55-.31.21-.64,0-.92-.23-.16-.5.4-1.41,1.02-1.32ZM78.84,116.69c-.54-.05-.91-.34-1.19-.81.55.02.93.27,1.19.81ZM77.51,116.92c.32.13.38.46.31.68-.03.11-.27.2-.5.1-.16-.07-.18-.44-.11-.69-.16-.32.25-.42.29-.09ZM76.89,119.38c.07-.13.37-.38.58-.33.34.08.28.47.2.68-.12.3-.43.54-.65.3-.19-.21-.2-.52-.13-.65ZM85.21,79.4c.07.04.12.11.11.2.15-.01.2.15.24.2.19.06.22.19.17.33-.03.1-.23.18-.31.11l-.28-.26c-.16-.15-.29-.28-.26-.47.02-.08.18-.18.31-.11ZM66.72,99.22c-.12-.79.23-1.2.44-1.75.61-.35.5.74-.44,1.75ZM69.04,108.42c-.41-.75.05-1.22.49-1.71h-1.28c.94-.71,1.69-1.04,1.98-1.99.5.21.93.71.79,1.13-.35,1.01-1.16,1.78-1.97,2.57ZM70.96,113.38c0,.08,0,.16-.02.23-.15-.07-.16.02-.21.06-.17.16-.35-.1-.2-.23.15-.14.26-.12.42-.06ZM70.68,119.74c-.59,1.06-1.28,2.02-2.3,2.88-.3-.73.28-1.33.44-2,.45-1.83.44-3.63.56-5.56,1.67.13,2.01,3.39,1.3,4.68ZM74.33,122.32c-.83-.33-1.41-.69-1.98-1.24.85-.44,1.36-.71,1.75-1.7.68.9.71,1.85.23,2.93ZM74.07,108.12v.33c0,.09-.22.15-.3.11-.07-.03-.14-.09-.11-.22l.41-.22ZM76.36,93.32c-1.46,2.68-3.57,1.75-4.03,4.39-.47,2.65-3.36,5.87-3.95,5.69-.67-.21.03-1.09,1.17-1.96-.46-.3-.81-.39-1.38-.58.01-.73.24-1.31.7-1.81-.43-.28-.72-.6-.91-.97-.47-.97,1.14-2.09,2.83-2.7.08.67-.35.98-.5,1.52.02.15.43.35.57.37.14.02.35-.22.5-.38l3.23-3.54c.11-.13-.06-.58-.1-.71-.07-.23.22-.38.51-.31.17.04.42.11.6.37.44-.25.79-.74.94-1.4.89.72.16,1.4-.17,2.01ZM82.75,90.25c-.78.47-1.52.7-2.59.83.42-.88,1.42-1.56,2.59-.83ZM81.13,88.28c.17.87-1.27,1.55-1.3,2.3-.01.33-.26.37-.47.33-1.31-.24,1.58-3.58,1.77-2.64ZM67.53,87.54c.18-.35.62-.66,1.13-.52.26.07.24.72.05,1.05l-.32.57c-.27.49-1.01-.83-.87-1.1ZM67.1,88.99c.65-.06,1.06-.08,1.35.72l-2.02.14c-.09-.42.31-.82.67-.86ZM64.72,86.71l.5-.19c.24-.09.37.06.3.28-.16.45-.55.69-.92.69-.15,0-.29-.08-.29-.27,0-.21.13-.4.42-.51ZM64.46,88.95c.15-.13.23-.25.35-.26.82-.1-.11.88-.14,1.82.56-.25,1.21-.12,1.53.18.26.25.36,1.2-.25,1.3l-1.69-.37c.07-.72-.27-1.11-1.01-1.61l1.21-1.07ZM60.49,90.89c.25-.41.56-.88.54-1.29-.01-.3.45-.96.65-.97.61-.03-.28.91-.02,1.43.13.26.47.26.74.25-.3.31-.52.49-.62.68-.19.35-.02.78.45.97-.21.31-1.73-.18-1.8-.26-.19-.25-.13-.49.06-.8ZM59.53,89.63c.07-.08.16-.05.16.05.08.07.24.21.22.36,0,.08-.13.15-.24.3-.13.17-.39-.19-.51-.31-.23-.24-.02-.59.36-.4ZM56.97,89.93c.07-.17.32-.47.59-.26.14.11.05.69-.3.76-.32.07-.37-.32-.29-.5ZM55,90.29c.1,0,.26.06.34.25.05.12-.67,1.2-.77,1.21-.41.03-.62-.36-.63-.6-.02-.22,1.11-.85,1.06-.85ZM53.57,89.6c.14.23-.57.65-1.41.85-.18-.72,1.23-1.15,1.41-.85ZM51.97,94.14l.35-.12c.07-.02.32-.01.34.06.05.17-.2.72-.75.8-.16.02-.35-.13-.31-.35.03-.12.17-.32.37-.39ZM51.93,96.79c.42,0,.57.36.57.68.62.27,1.59.15,2.26-.11.08-.17.16-.45.29-.5.37-.17,1.47.76,3.66-2.19,1.17-1.58-1.85.32-2.56-.47-.33-.37.41-1.06.86-1.02-.41-.88-1.33-.9-1.26-1.37.02-.14,0-.34.33-.58.82,1.51,2.4,1.91,3.99,2.09.67.08,1.38.47,2.14.02.63-.38,3.58-.14,5.46-1.59l1.31-1c.82-.63,1.53-1.14,2.38-1.82.65-.53.57-1.96.79-2.61.16-.48,2.13-.95,1.08-3.42.42-.2.71-.18,1.34-.12-.57-.72,0-1.06.24-1.57.39-.82-1.78-.49-1.73-1.26.06-.94,1.74-1.9,3.59-1.44.74.19,1.69,1.13,2.03,1.87.39.87.09,1.79.05,2.58.22-.2.39.09.19.21-.26.24-.42.43-.51.71-.07.24-.5.43-.51.67-.03.51.69,1.15.42,1.56-.1.15-.49.2-.69.13l-1.89-.62c.09.45.38.59.63.77l-2.63,2.7c-1.47,1.51-3,2.93-5.06,3.69-2.46.91-4.88,1.7-7.27,2.9l-4.82,1.66c-1.56.54-3.24,1.32-4.84.89-.16-.04.31-.7.45-.62.13.07-.43-.46-.73-.25-.11-.3.25-.55.47-.55ZM45.26,98.17c.35-.1.8.15.72.59.17.04.33.28.43.4.06.07.29.1.16.33-.07.14-.25.3-.4.32-.07,0-.15,0-.23-.02-.03.23-.18.37-.32.43-.22.09-.69.02-.72-.16.22-.53.7-.72,1.07-.87.04-.15-.08-.25-.24-.23-.24.15-1.08.36-1.17.06-.15-.5.45-.78.71-.85ZM38.99,97.31s.28-.07.37,0l.25.2.28-.21c.23-.17.41.04.46.21.04.14.01.42-.12.42h-.56c-.27.02-.58.02-.58-.21,0-.3-.22-.18-.31-.22-.16-.08.06-.36.21-.19ZM37.35,97.27c.3-.11.42-.11.52-.05.85.59-1.99,3.25,0,3.65-.2.58-.82.68-1.27.47-.48-.23-.81-.92-.54-1.45l1.29-2.61ZM35.16,88.85l.41.04c.45.04-.43,1.98-1.73,2.46-.01-1.09.63-1.88,1.33-2.5ZM30.74,88.98c.36-1.45.77-2.98,1.4-2.55.6.41-.42,2.78-1.52,4.26-.44-.61-.03-1.15.11-1.71ZM29.17,91.96l2.22.78c1.92.67.86,2.48,1.67,2.84l.38-.68c.09-.16.41.1.8,0-.03,1.23-.95,2.14.02,2.52.25.1.63.02.81-.38l1.6-3.54c.61.98-.52,1.65-.66,2.48-.23,1.38-.15,2.86-.81,3.79-.15.22-.16.78-.33.76-.81-.09-.78-1.43-1.2-1.67-.54-.31-1.17-.24-1.67.13l-.61-2.11c-.21-.71-1.16-1.05-1.44-1.96l-1.27.55c-.81-1.54.71-2.37.48-3.51ZM30.15,96.57c-.24.48-1.33.26-2.23-.37,1.23-.35,2.51-.18,2.23.37ZM23.04,91.78c1.07-.65,1.91.98,3.72,1.4-.21.87-.63,1.45-1.29,1.78-.68.34-1.94.6-2.29-.21.33-1.53-1.42-2.19-.14-2.96Z"/>
      <path class="cls-1" d="M84.42,117.52c.15-.32.11-.7-.06-.84-.06-.03-.11-.07-.08-.16.04-.16-.05-.25-.12-.26-.13-.03-.39.09-.47.29-.17.44.27.95.73.97Z"/>
      <path class="cls-1" d="M81.31,106.37c-.29.6-.58,1.18-1.19,1.55.16.73.75.96,1.05,1.43.48.73.35,1.58.48,2.45.98.04,1.92.4,2.78,0-1.74-1.1-.84-2.94-1.69-4.55-.27.61-.2,1.15-.3,1.74-.72.01-1.04-.43-1.21-.85-.22-.57.26-1,.08-1.77Z"/>
      <path class="cls-1" d="M85.43,114.33c-.5.28-.63.65-1.23.65.37-.75.9-1.22,1.1-2.16-.88.6-1.47,1.47-1.38,2.65.73.19,1.49-.35,1.51-1.14Z"/>
      <path class="cls-1" d="M114.2,78.41l-.52-.83c-.14-.23.16-.76.54-1.19-.79-.48-1.41.11-1.95.5-.78.57-.56,1.4-.6,2.19l-.19,3.84c-.04.78.33,1.12.74,1.68.22.55-.35,1.49-.49,2.05-.32,1.31-.74,2.38-1.41,3.61-.3.55-.41,1.19-1.01,1.42-.37,1.54-1.12,3.29-2.8,3.8-.52-.19-.71-.76-1.19-1.2l1.6-3.68c.7-1.61,1.31-3.13,1.31-4.85.65.16.44-.61-.05-.23-.42-.58-.85-.95-1.65-.7-.26-.72-.16-1.42-.79-2.07-.38.55-.4,1.14-.59,1.6-.3.03-.4-.03-.41-.1l-.07-.45c-.11-.69-.34-1.3-.26-1.97-1.89-.74-2.54,2.01-3.7,1.72l-1.06-.27c1.02-.63,1.79-.98,2.91-1.35-.55-.39-.86-.88-1.18-1.35-.29.11-.18.38-.1.45.09.08-.13.32-.35.1-1.06.53-1.67,1.36-2.54,2.08l2.13.81c-1.47.65-2.6-1.19-2.78.61l-1.04.73c-.84,1.34-.78,2.85-.69,4.39-.31.64-1.95,1.58-1.85,1.59-.26-.02-.49-.33-.51-.69-.03-.54-.75-1.01-1.08-.64-.2.22-.14.87-.36,1.26,1.24-.49.54.75,2.08,1.66l3.26,1.94c.23.14.8.14,1,.1.48-.41,1.25-.64,1.38-.54.13.09.13.42-.04.49-.14.06-.4-.14-.83-.1.26,1.05,1.41,1.57,2.22,1.67,2.67.33,3.05-1.28,3.51-1.29.3,0,.42.31.26.67-1.22,1.63-3.43,1.93-5.15.76-2.14-.5-4.01-1.4-5.86-2.72-.45.33-.61.85-.6,1.31.06,0,.24-.02.3,0,.06.03.09.14.11.23.23-.08.42-.23.74-.08-.69,1.82-1.17,3.52-.08,3.34,0-.55.03-1.14.63-1.44-.1.67-.32,1.11.16,1.66.3-.19.49-.33.82-.33l-.57,1.82c-.06.2,0,.39.17.52.08.06.19.04.42-.06.03.05.22.45.32.4.46-.22.82-1.08,1.05-1l.92.3c.68-.05,1.27-.43,1.84-.61-.07-.47-.66-.5-.85-.68-.15-.36.19-.96.46-1.18,1,.6,2,1.14,3.08.78,1.05-.36,2.09-.28,3.2-.39,1.59-.16,5.19-4.37,5.47-6.49-.2-.09-.55-.34-.5-.43.05-.1.39-.13.5-.24.38-.39.13-1.3.19-1.74.66-.4.66-.91.89-1.62l1.03-3.09.45-6.48ZM96.9,92.41c-.74.47-1.73.32-2.48.23-.03-.47,0-.63.11-.97,1.28.48,1.23-.83,1.81-1.18.31-.19.92-.21,1.02.14.17.57,0,1.48-.46,1.77ZM100.81,90.75c-.25-.02-.32-.63-.12-.69.36-.11.39.17.41.28.02.14-.01.43-.29.41ZM98.96,98.85c-.7-.36-1.23-.61-1.64-1.02-.19-.2.12-.55.28-.62.22-.1,1.46.58,1.69.85.28.33-.1.91-.33.79Z"/>
      <path class="cls-1" d="M111.4,106.24c.75-.56.69-1.42.45-2.13-.51.75-.23,1.42-.45,2.13Z"/>
      <path class="cls-1" d="M56.94,130.02c.18-.59-.12-1.16-.4-1.17-.42,0-.57.63-.43.87.18.32.75.57.83.3Z"/>
      <path class="cls-1" d="M87.71,113.2c-.04.22.16.3.21.35.05.05.26.07.29-.1.02-.12-.45-.47-.49-.25Z"/>
      <path class="cls-1" d="M61.54,133.23l-.6,4.28c-.05.34.07.76.33.9.72.39,2.08-2.51,1.96-4.44-.16-.59-1.26-.85-1.69-.74Z"/>
      <path class="cls-1" d="M68.98,135.49c.15.06.43-.06.54-.28l.78-1.58c-.85-.92-2.18-1.17-3.61-.43-.67.35-1.45,1.47-1.98,2.22-.38,1.27-.1,2.78-.04,4.24,1.49-.64,2.79-1.94,3.15-3.39-.04-.88-.77-1.73-.44-2.73,1.37.32,1.26,1.8,1.6,1.94Z"/>
      <path class="cls-1" d="M87.25,112.9c.13-.28-.01-.67-.08-.89-.09-.3-2.05-.9-1.88-.16.36.69,1.32.7,1.96,1.06Z"/>
      <path class="cls-1" d="M74.62,139.85c0-2.61,1.27-4.76.34-7.08l-3.53,2.02c-.62,1.79-.9,3.53-.69,5.43l3.87-.38Z"/>
      <path class="cls-1" d="M71.65,133.09c3.12-1.93,2.19-6.61.02-9.4l-1.88,3.23c-.38.65-.42,1.68-.41,2.44,0,.89,1.12,3.4,2.27,3.72Z"/>
      <path class="cls-1" d="M86.13,114.37l.45.05.26.46c.09.15.54.08.49-.13-.14-.57-.82-.94-1.42-.75-.11.21.04.35.22.37Z"/>
      <path class="cls-1" d="M84.48,133.06c-.03.06-.26.01-.23.24.04.31.35.28.55.26.16-.02.53-.09.5-.5-.01-.22-.72-.22-.83,0Z"/>
      <path class="cls-1" d="M82.14,132.76c.11.5.51.75.87.92.47.21.88-.03,1.02-.44-.82-.4-1.15-.6-1.89-.48Z"/>
    </g>
  </g>
</svg>