<?xml version="1.0" encoding="UTF-8"?>
<svg id="Layer_2" data-name="Layer 2" xmlns="http://www.w3.org/2000/svg" viewBox="0 0 101.61 129.48">
  <defs>
    <style>
      .cls-1 {
        fill: #fff;
      }
    </style>
  </defs>
  <g id="Layer_1-2" data-name="Layer 1">
    <g>
      <path class="cls-1" d="M48.68,32.7c-.17-.08-.21-.13-.32-.2-.15-.09-.07-.2.02-.21.43-.07,1.11.36.71.42h-.42Z"/>
      <path class="cls-1" d="M51.01,33.02c.02-.12.19-.29.3-.32.08-.02.26,0,.38.2.41-.1.32.42-.04.2-.19.1-.66.04-.64-.07Z"/>
      <path class="cls-1" d="M80.8,84.89c-.17-.55-.08-1.19.27-1.85.38.71.5,1.54.43,2.32-.28-.06-.63-.23-.7-.47Z"/>
      <path class="cls-1" d="M48.63,37.1l-1.05-2.7c.37-.09.8-.08,1.11,0,.62.92,1.06,1.98.62,2.58-.08.11-.52.21-.68.12Z"/>
      <path class="cls-1" d="M50.26,37.34c-.14-1.02-.18-1.95-.81-2.71.52-.31.74-.52,1.29-.65l.81,2.7c.14.47-1.01.99-1.3.66Z"/>
      <path class="cls-1" d="M78.89,101.83v3.56c-1.21-.51-1.05-2.71-.73-4.47.54-.03.73.48.73.9Z"/>
      <path class="cls-1" d="M76.47,104.36c-1.19-.11-.65-1.14-.65-1.66v-4.34c.35-.24.93.27.97.79l.43,5.62c-.34-.09-.32-.43-.39-.51-.04-.05-.2-.1-.36.1Z"/>
      <path class="cls-1" d="M77.46,106.9c.4-.08.56.76.38,1.03-.14.21-.22.79-.73.72-.46-.15-.23-1.58.35-1.75Z"/>
      <path class="cls-1" d="M100.48,62.3l.95-.33c.47-.76-.09-1.34-.26-2.01-.69-2.78-1.5-5.35-2.4-8.03-.36-1.07-.8-2.13-1.05-3.13l-1.06-4.23c-.42-1.66-.71-3.22-1.26-4.82-.63-1.83-1.07-3.63-1.92-5.4l-3.18-6.63-3.15-5.2-3.96-4.75c-1.8-2.15-3.85-3.88-5.93-5.75-1.45-1.31-2.93-2.17-4.51-3.2-3.21-2.1-6.37-4.17-10.16-5.29l1.54,1.63c-.54-.24-1.05-.63-1.46-.77.04.11-.08.29-.15.26-.12-.05-.19-.06-.31.02-.63.38-1.68-.21-1.99-.84.2-.11.14-.32.08-.42l1.97.75c-.28-.1-.25-.51-.33-.74l-5.09-1.82c-1.01-.36-1.83-.5-2.86-.66-.86-.14-1.8-.8-2.78-.33-.89-.31-1.87-.7-3.01-.56.34.62.94.5,1.34.85-.43.12-.61.34-.53.37.24.11.07.51-.26.11l-4.22-.93c.39.77,1.12.79,1.82,1.56-1.23,0-2.18-.29-3.28.11l-3.62.34,5.97,2.23c.17.06.56-.11.82-.04.16.04.29.22.35.48-.8.51-1.23-.17-1.75-.34l-4.01-1.28c.04.58-.23.91-.71,1.09,2.02.36,4.03.86,5.93,1.82,1.51.76,3.1,1.14,4.38,2.39-1.32-.25-2.43-.77-3.6-1.3-2.32-1.04-4.57-1.92-7.04-2.56-.26-.07-.64-.07-.67-.34-.01-.11-.04-.19-.11-.34.27,0,.82.04.94-.18l.38-.73c-.69-.34-1.51-.83-2.29-.5-.28.12-.52.61-.37.78.14.16.54.22.9.5-.69.21-1.35.12-1.81.91l6.75,2.85c.46.2,1.29-.12,1.64.57.84-.49,1.45.14,2.02.83l2.53,1.24c-.36-.18,1.02.91,1.02.87,0,.1,0,.32-.14.37-.22.07-.36,0-.58-.17-1.52-1.16-2.43-1.01-3.1-1.57-.25-.21-1.06.21-1.27-.13.69-.23.29-.54.14-.76-.26-.36-.63.02-.85-.03-1.47-.69-2.9-1.17-4.32-1.7l-3.13-1.19c-.21-.08-.61-.13-.79-.25-.47-.31-1.4-.73-1.92-.16l.19.36s-.37.12-.48.12c.08.19.27.25.62.11.21.24,0,.39-.21.38l2.57.74c.07.02.13,0,.2,0l1.31.43c.06.02.15.04.19.01.03.05.4.26.03.38-.02,0-.04.14,0,.21.46-.15,1.01-.34,1.5-.07.13.03.22.04.24.22.07.52-.71-.08-.75.48.07-.03.28-.12.41.06,0,.11-.29.22-.5.14-.07-.03-.15-.06-.18-.25-.49.14-1.1-.53-1.53-.61l-4.81-.97c.35.54.02,1.07-.48,1.48l1.3.27c.2.04.38.09.35.36l2.8.43c-.44,1.21-1.78.39-1.74,1.06,0-.01,2.02,1.04,3.39,1.47-.51.03-1.02-.05-1.1.53.67-.27,1.3-.46,1.88.1-.36.06-.66-.02-.99.3,1.87-.02,1.91,2.35,4.11,1.62.64.47,1.39.74,1.73,1.49-1.13-.36-2.1-.94-3.19-.5.61.35,1.24.34,1.45.96l-.41.6,1.44-.2c1.51.04,2.89.65,3.98,1.61-1.9-.27-2.74-2.06-4.89-.84.65.32,1.45.23,2.12.98-3.34.73-3.4-3.14-5.49-2.55.18.19.39.25.81.17-.37,2.32,2.53,2.27,1.9,3.62-1.39-.64-2.54-1.3-3.91-1.27.09.58.66.34.86.32l2.57,1.41c-.42.06-.44.32-.2.49,3.14-.44,3.47.73,1.59.28.03.31.29.53.47.7.17.16.83-.08.97.09.4.58,1.23.98,1.88.47l-1.02-1.35c.87-.05,1.49.74,1.49,1.5-.17.23.16.27.23.15.14.05.19.31.26.5.07.08.46-.06.65-.02.14.03.15.4.17.58.42.09,1.11-.09,1.46.14l2.77,1.81c.12.08.28.5.17.55-.08.04-.36-.02-.29.46-.53-.18-.47.38-.06.29.4.09.25.6-.16.36.01.14.09.15.14.2.1.1-.01.23-.08.21-.1-.03-.34-.07-.5-.04-.34-.11-.78-.27-1.08.29-.01.05-.09.37.18.74-.58-.18-.66-.57-.89-.73-.17.05-.47-.04-.51-.17-.03-.1.21-.25.33-.24.07,0,.17.03.27.22.16.29.76-.31.54-.44-.54-.34-.87-.46-1.05-1.02-.55.34-.73.61-1.11,1.12l-2.41-1.36c.39-.5.79-.4,1.26-.34.24.04.33.4.82.65-.65-1.45-2.46-1.94-3.7-3.71-.29.3-.89.75-1.36.61-.12-.12-.25-.48-.53-.38-.14.05-.16.23-.15.33l-.12.54c.55-.41,1.86.14,2.05.96.07.32.09.59.29.65.11.04.38-.24.54-.24.44-.02.51.56.5.96,0,.3.08.79-.51.74-.13.49.2.66.44,1.1.12.22.62.25.65.48.04.29-.25.68-.46.83.62.17,1.6.47,1.49,1.09l-.1.54c-.02.09.18.16.27.06l.29-.33c.77.22,1.45.94,2.58.91l-1.15-1.79c1.48.03,2.54.79,2.94,1.98.15-.33.45-.38.52-.29.13-.08.28.06.34-.01.06-.08.08-.34.33-.45.44-.18.78.28,1.14.48.14-.35.39-.41.51-.33.27.18.44,1.28-.02,1.66,0,.24.47.45.73.43.97-.07.14-.69.63-1.98l1.11,1.65c.35.01.54.22.93.57.13-.49.01-.73,0-1.19.08.13.23.23.35.21v-.3c-.01-.26.12-.03.41.1,0,.11.07.23.21.2.03.19.23.38.42.4,0-.3.24-.26.36,0,.1-.33-.02-.62.17-.64.2-.02.35.11.46.28l1.42,2.12c.35-.95-1.11-1.37-.65-2.39.87.84,1.62,1.89,2.31,2.88-.29.55.33.49.34-.04.79-.08,1.03.81,1.03,1.56.45-.29.46-.72.65-1.36.78,1.36-.2,2.32,0,2.67.06.11.47.06.53.18l.85,1.68c.23-.77.5-1.43.44-2.15l-.12-1.43c.18-.78-.07-1.38-.24-2.06.28.21.51.42.7.53.32.19.68-.21.92-.33.46-.22.39.33.46.48.11.22.56,0,.52-.22-.05-.3-.2-.37-.44-.59-.28-.25-.11-1.08-1.07-.97l.32.52c.11.18-.05.69-.26.64-1.1-.26-1.17-2.22-1.85-.93l-3.69-2.89c.4-.15.52-.14.93-.05.06-.03-.2-.31,0-.38.31-.2.96,0,.37.36.88.62,1.63,1.4,2.36,2.33.13-.7.08-1.21-.38-1.6.59.06.55-.47.12-.53-.18-.1-.24-.19-.3-.29-.05-.09-.02-.23.06-.24.07,0,.19.04.44.26.12-.57.36-.5.85-.68.39-.14.67.25,1.03.3.22-.14.61-.05.73.48.31-.14.1-.34.16-.36l.43-.12c.25-.07.57-.32.85-.37.23.17.4.42.69.41-.1.46.23.82.51,1.23-.26.34-.39.09-.54.01.06.18.36.26.16.75.76.22,1.3.95,1.87,1.45.27-.24.21-.6.15-.71-.12-.22.35-.41.47-.18.48.92,1.22,1.32,2.18,2.05-1.19.29-1.89-.58-2.7-1.16.1.99,1.41,2.09.9,2.59-.08.08-.32.02-.44-.16-.07-.1-.09-.14.03-.32.06-1.06-1.54-1.57-2.76-3.16.26.92.69,1.77,1.31,2.48l.64.73c.33.37-.17.77-.22,1.03l1.11,2.31c.21.44-.32.62-.54.66-.35.07-.73.21-1.03-.25l-.48.67c-.15.21-.33.5-.67.6.05.1.06.35.17.35l.48.02c.78.37,1.53.33,2.04-.47.95.67.99,1.65,1.39,2.51l1.29,2.82c.13.28.36.3.53.27.52-.09.07-1.16.23-1.94l-.39-.02c-.08,0-.13-.19-.06-.3-.61-.92-.91-2.16-1.21-3.3l-.53-.79c-.32-.48.68-.49.35.03.56.82,1.3,1.42,1.56,2.31.32-.23.17-.63.31-.88l-1.61-2.55c1.94.27,2.16,3.14,2.39,5.34.89-.9.76-2.11.46-3.21l-1.19-1.91c.84-.4,1.87-.21,2.51.49.24.26.3.64.16.83-.1.13-.48.21-.67.38.1.72.64,1.36.53,2.18-.16.45.6.52.43-.06-.29-.42-.47-1.6.04-1.75.67-.17,1.31.77,1.35,1.36l.16,2.42c.01.16.54.08.53-.09-.09-1.46.65-1.75-1.06-4.08-.61-.83-1.2-1.68-.84-2.7.52,1.11.67,2.11,1.57,2.62.9.51,1.38,1.1,1.7,2.33.42-1.1-.58-1.66-.78-2.65.84.24,1.16.99,1.69,1.44v.24c.14-.04.27.12.32.19.03.04.17-.12.12-.21-.05-.11-.23-.23-.2-.39.08-.53-.27-.9-.43-1.5l3.11,2.88c-.62-1.05-1.45-1.67-1.41-2.84.43.32.69.69.97,1.05.27-.42.34.05.39-.04.08-.15.02-.48-.13-.69.17-.16.29.03.4.08.42-.54.59,1.16,1.45,1.69.12.07.31.16.45.18.18.03.39.24.4.42.22.02.43.05.65-.03.45-.16.92.73.77,1.27-.13-.08-.24-.2-.37-.18-.08-.06-.43,0-.4.08l.22.41s.12.21.19-.02c.58.49.7,1.15,1.1,1.71.57-.69.66.24.66,1.63-1.68-.09-2.84-1.39-3.09-2.74-.29.2-.6.13-.84.15v1.68c0,.56.6.68.92,1.04,1.24,1.38,2.57,2.87,4.34,3.6.18.08.78-.36.84-.17.07.25.1.51.13.82-.02.45.52.51.58-.03l1.24,1.14c.19.09.39-.07.49-.37.48.77.38,1.68,1.17,2.43.59.78.56,2.31.95,3.4.33.91.1,1.71.14,2.56l.22,5.06c.08,0,.18.08.23.12v-4.56ZM63.51,33.78c.05-.04.15-.07.26-.03.24.24.56.44.69.79-.05.04-.15.07-.26.03-.24-.24-.56-.44-.69-.79ZM49.03,28.45c-.46.35-.78.46-1.11.04.52-.3.84-.21,1.11-.04ZM52.84,30.84c0,.3-.74.28-.79.1.09-.44.79-.46.79-.1ZM47.26,20.28c-.44.21-1.14.41-1.53-.38.51,0,.97.17,1.53.38ZM41.21,12.15c.49-.02,1.17.36,1.3,1-.36.54-.44-.1-1.3-1ZM41.83,9.62c-.23.37-.59.57-1.08.57.23-.37.59-.57,1.08-.57ZM43.44,9.68c-.01.23-.29.2-.4.04-.06-.09-.12-.19-.11-.38,0-.07.1-.21.29-.1.14.08.23.3.22.45ZM44.91,13.11c.45.62,1.3.81.99,1.29-.28.43-.44-.36-1.12-.56-.08-.02.12-.47.05-.52-1.11-.94-2.55-1.17-3.48-2.24,1.41.2,2.76.93,3.56,2.03ZM47.71,13.56c-1.61-.35-3.82-1.7-3.01-2.2,1.16.61,2.2,1.19,3.01,2.2ZM49.16,16.66c-.24.05-.37.02-.53-.16-.33-.37-.61-.88-1.05-1.02-.29-.09-.69-.09-.99-.44.52-.4.94,0,1.29.29.92.77,2.28,1.1,1.27,1.32ZM49.76,18.63c.29.34-.05.35-.17.35-.24,0-.37-.21-.29-.35.07-.12.29-.2.46,0ZM50.26,13.78c-.04.08-.11.07-.32.09-.12,0-.2-.13-.14-.35.02-.06.09-.08.22-.05.33-.09.3.2.24.32ZM50.79,19.38c0,.13-.1.23-.23.23s-.23-.1-.23-.23c0-.13.1-.23.23-.23s.23.1.23.23ZM44.32,2.99c-.01.11-.21.19-.3.15-.08-.04-.09-.25-.47-.21-.4.04-.35-.39-.18-.43.26-.05.38.02.62.14.15.07.35.16.33.34ZM46.39,2.93c-.18,1.3,1.42.63,1.89,1.48.13.11.07.37-.14.39-.25.02-.51-.26-.65-.61-.49-.04-1.01-.2-1.36-.59l-1.01-.4c.29-.03.78-.01.83-.22,0-.25.01-.4.11-.47.09-.07.27,0,.31.1.03.08.02.2,0,.32ZM48.58,2.36c.04.58-1.71.12-1.77.07-.12-.1-.3-.24-.17-.54.6.35,1.18.43,1.94.48ZM51.19,7.51c-.92-.08-1.42-.83-2.17-1.18l-2.06-.96c.36-.32.94-.27,1.14.33.82.09,1.61.33,2.19.84l.23.2c.2.18.54.43.66.76ZM76.24,36.53c.24,0,.44.3.34.42-.14.17-1.1.46-1.25.23-.1-.15.58-.65.9-.65ZM69.02,26.63c1.06.38,1.35,1.58,2.12,1.99.13.37.24.55.21.91l-.42-.21c-.52-.92-1.59-1.48-1.92-2.68ZM66.84,26.86c.6-.07,1.22.55,1.1,1.15-.56-.26-.8-.63-1.1-1.15ZM66.44,27.84c.79.32.92,1.07.66,1.55-.42-.66-.51-1.04-.66-1.55ZM63.9,29.65c.25-.19.58-.12.93.15.07.06.14.21.09.31-.1.19-.37.16-.41-.05-.01-.06-.1-.1-.18-.05-.08.29-.2.14-.28.07-.14-.11-.23-.36-.15-.43ZM57.63,16.3c.2-.11.32-.04.42-.03l.38.03c.02.16.13.16.18.14.16-.07.33.31.17.37-.43.16-.94-.07-1.16-.51ZM57.84,19.14c.13,0,.23.1.23.23,0,.13-.1.23-.23.23s-.23-.1-.23-.23c0-.13.1-.23.23-.23ZM59.06,21.72c.25.14.14.42-.13.23-.33.13-.3-.04-.35-.12-.13-.21.09-.35.23-.25.05.04.14-.09.25.14ZM58.88,17.15c.53-.1.68.4,1.02.55,0-.11.06-.2.14-.2h.32s.38-.22.38-.22c.08-.26.3-.32.53-.16.21.14.38.32.36.59-.01.24-.05.35-.23.53-.17.17-.44.15-.47-.18-.06.05-.19.29-.27.25-.11-.05-.13-.4-.24-.4l-.53.02-.99-.54c-.04-.15,0-.27,0-.25ZM60.57,25.62c0,.13-.1.23-.23.23s-.23-.1-.23-.23.1-.23.23-.23.23.1.23.23ZM60.57,23.11c.36.25.59.47.83.83-.5.05-.88-.34-.83-.83ZM59.36,20.53v-.3s3.51,2.93,3.51,2.93l-.17.31-3.34-2.93ZM59.73,24.09c.04.32-.25.33-.33.28-.11-.07-.15-.19-.1-.32.04-.1.28-.25.43.03ZM63.21,21.1c.32.23.33.75.11.78-1.12-.83-2.26-1.56-2.57-2.55l2.46,1.77ZM62.6,19.06c.43-.26,1.51.93,2.14,2.03-1.2-.04-2.66-1.72-2.14-2.03ZM63.76,26.08l-1.44-1.1c0-.11,0-.2-.06-.31l1.6,1.18c-.06.06-.09.17-.1.22ZM63.17,26.46c.1-.02.4-.03.47.06.16.21-.11.42-.26.38-.09-.02-.22.06-.32-.12-.09-.16.03-.29.12-.31ZM62.23,30.12c.03-.09.16-.21.42-.08.41.21.28.48.1.61-.08.05-.3.03-.38-.03-.11-.08-.21-.24-.13-.49ZM62.1,28.31c.15-.15.35-.23.43-.2.09.04.04.29.04.43.03.35-.07.42-.25.4-.18-.02-.22-.08-.28-.13-.07-.07-.15-.29.06-.5ZM57.46,28.34c.6.03.94.35,1.32.3.21-.03.35-.42.69-.65.39.64.78.59,1.32.59.76,0,.99.97.92,1.5-.84-.49-1.34-.88-1.94-1.37-.09.46-.64,1.17-.95.99-.61-.36-1.03-.89-1.34-1.37ZM56.18,16.77c.04-.11.26-.2.32-.1l.23.42c.14.26-.32.35-.34.04-.25-.07-.25-.26-.21-.36ZM55.14,28.99l.07-.23c.21.21.82.25.8.79-.54.04-.68-.42-.87-.56ZM55.97,19.69c-.04.11-.22.17-.31.1-.08-.06-.08-.2-.3-.5.02-.13.33-.25.43.05.21.07.22.25.18.36ZM54.4,29.79c.26-.18.23.18.52.53.09.1,0,.34-.21.24-.29-.14-.42-.23-.43-.45,0-.09-.04-.21.11-.32ZM54.32,27.84l.43.43c-.15.37-.32.14-.46-.03-.08-.1-.33-.24.03-.4ZM52.33,20.94c0-.09-.03-.19.21-.23.34-.05.34.34.19.42-.1.05-.42.03-.41-.19ZM51.86,18.05c0-.1-.01-.33.32-.16.24.13.16.49-.06.47-.19-.02-.25-.1-.26-.31ZM53.85,2.9c-.59-.17-1.16-.55-1.62-.92.87-.17,1.25.34,1.62.92ZM54.22,13.08c.01.31-.05.81-.22,1.1-.5-.36-.29-.88-.47-1.23-.83-.17-1.29-.43-1.8-1.14-.47.11-.38-.41-.04-.16l2.54,1.44ZM54.22,17.04c-.16.2-.61-.3-.59-.57-.38-.16-.22-.51.03-.49.48.03.85.7.55,1.06ZM55.07,13.53c.44,1.23,1.22,1.88,2.44,2.2-1.25.45-2.3-.7-2.7-1.78-.27-.35.07-.56.26-.42ZM55.85,3.8c-.02.1-.1.15-.26.09-.21,0-.27-.02-.36-.11-.11-.11-.04-.14,0-.21.09-.16.23-.1.32-.09.07,0,.26-.03.31.05.04.06.02.13,0,.27ZM56.49,6.05c-.17.03-.23-.02-.34-.16-.08-.1-.34-.2-.39-.41-.04-.14.05-.25.12-.26.17-.03.33.12.46.26l.26.28c.06.07,0,.28-.11.3ZM56.62,14.36c1.16.24,2.33.85,2.84,1.88-.62-.06-.81-.46-1.21-.35.1-.25-.08-.28-.22-.27-.39.05-.52-.59-.96-.88-.49-.33-1.13-.43-1.5-1.13.18-.14.59-.14.83.02.18.11.21.46.22.73ZM57.96,12.15c-.58-.07-.31-.56-.03-.49.11.03.26.02.45.21.08.08.03.34-.42.29ZM56.91,13.34c.07-.05.42-.02.42.06,0,.24-.15.32-.23.36-.09.04-.27-.01-.3-.11-.05-.19.04-.26.11-.31ZM57.52,3.97c.11.05.12.32.33.53.08.42-.57.44-.43-.12-.46.1-.57-.08-.59-.11.13-.3.52-.38.69-.3ZM58.57,3.45c-.54.07-1.02-.3-1.09-.77.5.21.75.38,1.09.77ZM58.99,3.87c0,.1-.15.27-.23.31-.09.05-.27-.01-.3-.11-.06-.18.04-.26.11-.31.07-.05.42-.02.42.11ZM61.46,6.79c-.28.06-.63-.15-.85-.3l-1.73-1.15.13-.14c.5.19.94.39,1.4.8.23.2.84.11,1.06.8ZM63.44,16.38c-1.24.16-1.5-.51-2.14-1.13l-2.57-2.53c1.4.49,2,1.82,3.04,2.53l1.67,1.13ZM63.8,16.94c.17.44.36.86.19.95-.23.11-.48.05-.62-.18-.02-.33.32-.58.44-.77ZM64.3,14.68c0,.08-.14.18-.22.02-.04-.09-.14-.16-.2-.21-.12-.09.02-.31.1-.28.24.09.34.25.33.47ZM65.06,18.9c-.02.16,0,.15-.18.16-.2,0-.39,0-.35-.4-.24-.08-.1-.04.17.06.16-.13.38-.08.36.19ZM65.94,26.51l-1.46-1.74c.75.25,1.52.87,1.46,1.74ZM65.53,21.66c0-.15.24-.34.46-.19,1.39.87,1.21,1.96,1.9,2.44l.19.13c.13.09.22.35-.05.42-.43.11-.92-.38-.86-.7.01-.08.12-.24-.01-.37l-1.39-1.52c-.11,0-.23-.04-.24-.21ZM65.54,19.19c.35-.11.54.14.61.3.09.21.04.45-.15.55l-.46-.85ZM67.42,16.15c-.02.1-.21.15-.3.09-.06-.04-.12-.07-.1-.18-.12,0-.15-.05-.25-.17l-.42-.46-.29-.03-.19-.41c-.32-.21,0-.62.28-.32l1.13,1.13c.13.13.16.26.15.34ZM68.24,22.1c-.07.06-.21.09-.32.04l-1.12-1.31c-.11-.12-.19-.4-.17-.52.02-.16.34-.16.41-.03l.17.33,1.04,1.49ZM68.84,23.2c-.18-.32-.43-.67-.26-.78.33-.23.54.17.59.4.07.29-.07.59-.32.38ZM70.95,25.15c-.51-.11-.86-.39-1.04-.78-.16.04-.23-.15-.32-.2-.18-.1-.1-.49.12-.43.56.28.76.96,1.23,1.41ZM71.84,9.18c-.41-.36-.85-.69-1.31-.85-.06-.16-.19-.32-.16-.6l1.58,1.08c.17.11.03.31-.1.37ZM71.71,24.6c-.08-.02-.24.04-.3-.12-.03-.06.37-.48.55-.26.17.2-.02.43-.25.38ZM72.04,30.01c.21,0,.41.08.5.21.16.25.21.6-.03.8-.22-.33-.45-.42-.72-.41.21-.19.34-.32.25-.61ZM72.71,24.61c-.26-.01-.36-.22-.29-.35.07-.12.29-.2.46,0,.29.33-.05.36-.17.35ZM74.75,19.45l-.2.2-1.48-1.67c.07-.06.18-.09.29-.05l1.39,1.53ZM75.51,19.35c-.36-.16-.5-.39-.54-.71.27-.06.4.02.46.14.09.19.16.33.08.57ZM76.07,21.46c-.31.25-.53.11-.64,0-.15-.16-.12-.56-.29-.68-.5-.78-.06-.41.93.69ZM76.54,23.37c-.69-.22-.87-.8-.94-1.24.45.38.92.64.94,1.24ZM77.41,21.2c-.48-.21-.63-.45-.84-.77.5-.05.84.36.84.77ZM77.53,22.91c-.27-.28-.65-.49-.76-.92,0,0,.06-.04.12-.12l.73.73c.05.13,0,.24-.1.31ZM79.57,23.44c-.1.07-.4,0-.36-.25.01-.08-.07-.2.22-.2.23,0,.28.35.14.45ZM80.36,37.63c-.72.14-1.27-.33-1.59-.81l-.41.69c-.14.24-.55.31-.65.07.1-.48.57-1.66-.03-1.98-1.52-.46-2.23-2.05-2.03-2.11.14-.04.43.04.54.07.55.12.26-.61.7-.49.12.03.33.02.31.27,0,.13.07.22.19.2-.01-.24.37-.24.26.13.31-.06.52-.11.8.07l-.24-.41c.58.01.84.32,1.1.59.32.34.82.48.99.98l-.12.13-.93-.84c-.1-.09-.24-.22-.39-.24l-.24.07c-.11-.03-.49-.06-.38.17.7.07,1.12.76,1.74,1.16l.47.3c-.06-.04.47,1.88-.09,1.99ZM80.98,32.68c-.17-.46.44-.58.5,0,.15.23-.31.41-.5,0ZM81.59,35.3c0,.08-.14.18-.22.02-.04-.09-.14-.16-.2-.21-.12-.09.02-.31.1-.28.24.09.34.25.33.47ZM81.69,37.05s-.42-.29-.32-.5c.05-.11.23-.19.37-.05.11.1.08.51-.05.55ZM82.51,24.21c.06.32-.25.2-.32.1-.06-.08-.12-.24-.14-.4,0-.06.14-.11.26-.04.24.05.19.25.21.35ZM83.43,32.53c.11,0,.21.09.21.21,0,.11-.09.2-.21.2s-.2-.09-.2-.2c0-.11.09-.21.2-.21ZM84.24,29.19l-.78-.78c-.15-.4.56-.46.4.04.3.18.5.37.38.73ZM87.2,32.39c.04-.1.28-.24.43.03.04.32-.25.33-.33.28-.11-.07-.15-.19-.1-.32ZM87.12,26.92c.38.31.63.72.75,1.15-.28.16-.65-.01-.75-.14-.09-.12.06-.37,0-.68-.37-.03-.33-.43,0-.33ZM86.37,33.02c.04-.11.23-.19.37-.05.11.11.1.49-.06.55-.03.01-.4-.26-.31-.5ZM85.04,31.22c-.09,0-.26-.13-.23-.32.02-.09,0-.23.26-.16.45.13.13.46-.03.47ZM86.29,29.9c.54.28.48.81.41,1.12-.39-.32-.64-.75-.41-1.12ZM88.23,27.74c-.4-.25-.58-.69-.67-1.07-.2-.88-.62-1.85-1.18-2.46-.07-.07-.04-.29,0-.36.04-.08.18-.18.31-.1.13.08.16.26.16.4l.98,2.11c.2.42.42.86.41,1.48ZM88.56,31.98c-.39.15-.52-.19-.64-.33-.18-.22-.15-.61.19-.77-.21-.22-.26-.29-.27-.39-.01-.13.22-.41.3-.35.12.09.35.52.28.68-.16.38-.36.64.13,1.17ZM88.98,28.72s-.41-.28-.31-.5c.05-.11.23-.19.37-.05.11.1.09.5-.06.55ZM89.39,31.01s-.4-.27-.31-.5c.05-.11.23-.19.37-.05.11.11.1.49-.06.55ZM89.52,31.85c.11,0,.2.09.2.21,0,.11-.09.21-.2.21s-.21-.09-.21-.21c0-.11.09-.21.21-.21ZM90.13,30.3c0,.08-.14.18-.22.02-.04-.09-.14-.16-.2-.21-.12-.09.02-.31.1-.28.24.09.34.25.33.47ZM90.35,41.05c.64.39.94.98,1.32,1.63.1.16-.01.32-.3.32-.41.06-.68-.64-.57-1-.15-.3-.42-.51-.44-.95ZM91.69,33.52c-.07,0-.13-.28-.44-.15-.22-.7-.67-1.29-.72-2.17.79.54.67,1.62,1.26,2.02.06.04-.02.3-.1.29ZM92.78,42.78c-1.51-2.02-1.12-3.01-.77-2.27l.16.33c.29.61.79,1.13.61,1.94ZM94.59,48.54c.53.13.9.71.84,1.22-.65-.14-.96-.62-.84-1.22ZM93.5,46.47c.82.16,1.3.74,1.56,1.42-.79-.37-1.28-.73-1.56-1.42ZM93.63,43.77c0,.11-.09.2-.21.2s-.2-.09-.2-.2.09-.21.2-.21.21.09.21.21ZM94.48,44.09l1.82,5.2c-.13-.06-.27-.13-.32-.12l-1.59-4.08c-.09-.23-.1-.69.09-1ZM97.96,51.71c-1-1.35-.99-2.95-1.5-4.33-.56-1.54-1.53-2.8-1.81-4.48l1,1.21c.01.08.06.14.13.18-.04-.09-.07-.18-.11-.27.16-.22.34-.21.42-.08s.03.3-.11.36c-.07.03-.14.02-.2-.01.63,1.53,1.21,2.85,1.58,4.29l.59,3.13Z"/>
      <path class="cls-1" d="M37.63,37.06l1.43-.62c-.46-.83-1.14-1.08-2-1.71.67-.08,1.02-.47,1.41-.87,1.41.45,2.77,1.5,3.22,3.11-1.47.16-2.83.51-4.12.92.35-.25.13-.44.06-.83Z"/>
      <path class="cls-1" d="M35.69,31.25c.19-.1.42.17.55.36l.31.45c.19.27-.03.53-.34.57-.35.04-1.37-.91-.91-1.16l.39-.21Z"/>
      <path class="cls-1" d="M39.55,31.55l.39.74c.2.37.07.62-.12.84-.12.15-.66.12-.66-.04.01-.53-.46-1.12-.42-1.56.04-.36.67-.23.8.03Z"/>
      <path class="cls-1" d="M33.17,10.02h1.27c-.21.31-.94.3-1.27,0Z"/>
      <path class="cls-1" d="M63.47,92.03c.06.2,0,.32-.15.47-.18.2-.42.28-.69.08-.26-.19-.28-.44,0-.65.23-.17.75-.2.84.09Z"/>
      <path class="cls-1" d="M46.68,34.82c.85.48,1.06,2.14.36,2.37-.66.22-1.09-1.74-2.08-2.08.4-.67,1.1-.64,1.72-.29Z"/>
      <path class="cls-1" d="M42.09,32.09c-.38.15-.58.11-.87.13-.54-.55-.74-1.29-1.14-1.95-.46-.75-1.65,1.36-2.38.97-.97-.52-1.39-1.52-2.21-2.29l2.52.9c-.18-.74-.76-1.3-1.42-1.64.33-.19.63-.07.83.06,0,.22,0,.33.1.47.08.11.26.34.39-.04.23.28.37.52.49.68.17.24.79.25.84-.1-.07-.36-.78-.57-1.12-1.01.66-.13,1.26.29,1.73.43l.52-.07c.09-.01.27.39-.18.34.07,1.2,1.92,1.03,1.9,3.12Z"/>
      <path class="cls-1" d="M35.03,38.39c.1-.03.3.17.35.32-.48-.02-.68.11-.97.25-.25.13-.21.6-.27.9-.45.19-1.08-.31-1.52.21-.05.83-.69,1.28-1.34,1.01.86-1.21,1.37-2.28,1.76-3.61.21-.74,2.06.11,3.49-1.34.51.16.82.19,1.23.56-.55.41-1.18.4-1.67.19-.9.42-1.8.83-1.73,1.68.32.07.57-.14.67-.17Z"/>
      <path class="cls-1" d="M34.97,33.92c-.59-.02-.98-.5-1.41-.61.02-.73.93-.18,1.11-.72.28-.02.49.33.61.5.15.21,0,.84-.31.83Z"/>
      <path class="cls-1" d="M96.33,85.07c-.95-.52-1.98-1.28-3.04-1.19-.09,0-.32.41-.36.34-.46-.73-.29-1.51-1.47-1.35-.05.74.18,1.44.53,2.29-.43.1-.69-.02-1.16-.14.02.87.15,1.53.62,2.31.35-.42.35-.89,1.01-1.21.23,1.63,1.04,2.72,2.44,3.29.52.21.99.56,1.52.74,3.24,1.07,3.2,3.07,4.67,3.31.09-1.38-.18-2.77-.64-3.96-.29.08-.42.34-.51.4-.1.07-.36-.04-.29-.33.04-.2,0-.37-.07-.43-.1-.09-.38.06-.3.1.1.05.1.44-.27.33l-.2-1.1c.79-.94.54-2.08.69-3.42.46.82.2,1.71.36,2.6.2-.73.42-1.19.5-1.54-.11-.29-.42-.84-.13-1.42.19.31.14.64.16,1.22.65-.53.57-1.23.43-1.99-.13-.7.02-1.41-.17-2.09-.31-1.06-.55-2.06-.35-3.17l.47,1.6c.05-2.16.68-4.5-.19-6.21-.73-1.42-.53-2.95-.11-4.53l-.46-1.82c-.1.07-.22.08-.37.01-.08.72-.34,1.25.45,1.94-.76.16-1.48.14-2.08.53-.33.31.36.76.49,1.01.43.84.58,1.91.51,2.77-.57-.93-.85-1.93-1.08-2.76-.12-.07-.28-.04-.37.07s-.09.27-.09.37c.51,1.59.97,3.31,1.06,5.09l.75,2.89c-1.19.74-.98,2.43-1.69,2.08-.88.07-1.68-.16-2.43-.73-2.66.45-3.52-1.67-4.46-1.04l2.37,2.53c.47.5.52.81,1.32,1.03.76.21,1.93.5,1.98,1.58ZM99.8,82.86c.45.43.39.95.23,1.49-.34-.44-.48-.97-.23-1.49ZM98.95,84.35c.3.2.28.31.36.51.17.45-.45.42-.36-.51ZM94.49,88.06c-.33.14-.43-.07-.52-.17-.17-.17-.06-.41-.11-.61l-.6-2.27c-.08-.3.27-.31.36-.12l.24.5c.16.95.17,1.85.63,2.66ZM95.29,82.34c.73.16,1.46.8,1.52,1.59-1-.11-1.51-.71-1.52-1.59Z"/>
      <path class="cls-1" d="M87.47,98.83c.5.42.53,1.07.74,1.54l-.91,3.71c.07,1.07.24,1.75-.34,2.75l-1.02,3.34c-.62,2.03-1.49,3.87-2.02,5.84-.13.01-.24-.06-.24-.13l-.09-.31,2.1-9.21c.57-2.51.81-5.01,1.8-7.53Z"/>
      <path class="cls-1" d="M62.43,89.98c.15-.28.38-.32.61-.13.28.23-.26.95-.97,1.46-.14-.56.14-.92.36-1.32Z"/>
      <path class="cls-1" d="M65.55,60.25c.27.29.37,1.34.05,1.44-.08-.36-.12-.69.1-1.03-.65.19-.71-.07-1.02-.21-.3-.98.18-2.35,1.25-2.83.2.13.54.16.69,0,.09-.1.14-.34.2-.47.27-.05.67.11.72.28.05.17-.12.55-.26.72l-1.72,2.09Z"/>
      <path class="cls-1" d="M80.85,48.46l-.23-.23c.26-.1.32-.19.35-.22l.1.1s-.12.08-.22.35Z"/>
      <path class="cls-1" d="M30.93,28.41l1.71,1.21c.16.11.4.17.44.3.07.2-.12.48-.46.8,1.28-.06,2.53.02,3.85.23.18-.17.07-.32,0-.32-.65,0-1.99-.96-2.08-1.08-.86-1.1-2.03-1.8-3.45-1.15ZM31.86,28.78c-.23.06-.31-.22-.04-.25.39-.17.51.32.04.25Z"/>
      <path class="cls-1" d="M81.27,47.91l-.1.1-.1-.1.1-.1s.06.08.1.1Z"/>
      <path class="cls-1" d="M29.06,37.64c-.1-.3.11-.65.25-.98.07.05.36.03.4-.08.03-.1-.04-.24.2-.35-.11.46.29.52.5.67.54.4.47,1.38-.03,1.95-.67-.16-.9-.7-1.32-1.21Z"/>
      <path class="cls-1" d="M72.08,39.13c-.21-.19-.4-.36-.49-.53l.46.09.17.17c.1.1-.08.32-.14.27Z"/>
      <path class="cls-1" d="M64.48,79.21c.58-.11,1.05-.2,1.63.11-.57.44-1.29.34-1.63-.11Z"/>
      <path class="cls-1" d="M55.69,88.56c.16,1.6.12,3.16-.04,4.76-.84.48-1.68.76-2.63.56.08-2.3.51-5.68,1.61-5.86.37-.06,1.01.06,1.06.54Z"/>
      <path class="cls-1" d="M54.98,84.52l1.27.63c-.41.43-.54,1.43-.92,1.69-.69-.07-1.3-1.79-1.02-2.19.16-.23.32-.31.68-.13Z"/>
      <path class="cls-1" d="M67.99,43.84c0,.07-.09.16-.26.34-.27.28-.79.29-.83.06-.04-.24.07-.45.14-.6.11-.26.5-.14.65,0,.06.05.31.07.3.2Z"/>
      <path class="cls-1" d="M56,60.92c-.02-.13.48-.46.5-.3.03.3-.17.35-.21.4-.05.06-.26.07-.29-.1Z"/>
      <path class="cls-1" d="M82.83,85.03l.23-.16c-.04-.14.21-.55.02-.73-.21-.2-.41-.4-.45-.55-.04-.16-.04-.67.31-.74l1.27-.24c-1.05-.83-2.05-1.85-2-3.38,1.19,1.03,1.96,2.19,3.38,2.96.95-1.33-1.44-2.78-2.23-5.08,2.39.22,4.25,2.12,5,4.35.29-1.83-1.27-2.8-.94-3.85,1.02.41,1.71,1.12,2.05,2.15l.95-.18c-.5-.48-.83-1.02-1.36-1.26-.68-.32-.87-1.08-1.44-1.49l-1.7-1.23-4.83-4.73c-.39-.89-.97-1.65-1.61-2.29l-.86-3.39c-.48-1.88-.56-3.76-1.38-5.53.29,3.3.8,6.27.53,9.47-.16,1.83,2,2.48.13,5.67.37,1.24-.19,2.9-1.01,4.14.02-.72.13-1.33.33-2.2-1.6.74-1.76,3.22-4.72,2.78-.46-.82-1.3-1.02-2.13-.5l-.32,6.13c-2.12-.58.05-3.26-1.81-2.6l-1.46-.53c-.17.57-.14,1.14-.56,1.62-1.44-1.32.04-3.58-1.71-3.47.24.35.23.77.04.8l-.88.12c-.55.35-1.4.52-2.08.33-.23-.07-.77.39-.9-.33.33.23.74.18.81-.03.05-.15.02-.38-.07-.72-.09-.31-.51-.22-.58,0-.06.18.05.37-.2.77l-1.36-2.61c-.22-.41-.31-.82-.72-.71-1.46.4.7,2.86.24,5.22-.82,4.15,1.76,5.3.47,6.43,1.12.35-.39,1.26.23,1.52.3.11.55.3.87.21.71-2.97-.69-5.02.78-6.2.49.93.48,1.74.63,2.69.44-.16,1.07-.38,1.51-.22.55.52.69,1.46.52,2.3-.11.53.4,1.31-.1,1.97.5.46.59.95,1.11,1.2.16.08.57-.04.55-.26l-.24-2.71-1.24-2.78c.9.86,2.33.73,3.67.56-.77,1.59-1.28,3.24-.55,4.72.6.66,1.85.78,2.75,1.11.3-.66.16-1.26.07-1.96l-.6-4.84c.85.06.82,1,1.35,1.27.46.18,1.04-.19,1.63.32-1.17.66-1.5,1.66-1.38,2.84.11,1.16-.1,2.3.32,3.46-.63.16-1.15.07-2.07-.05.21.41.54.56.84.78.61.45,1.25-.32,1.75-.55.62-.05,1.48.63,2.26.3.21-1.36-.43-2.7-.77-4l-.75-2.9,1.86,2.57c2.29-.31-.7,1.27.59,4.49.33.81,1.7,1.26,2.6.96l-1-3.87c-.03-.12-.08-.46,0-.53.07-.07.43.22.5.11.25-.4.97-1.16,1.38-.92.96,1.2,1,2.78,1.28,4.16l.26,1.27c.13.64.29,1.36-.11,1.92l-1.53-6.39c-.93,2.32-.19,4.65.85,6.72.25.5.31,1.3,1.09,1.14.31-.06.27.79.28,1.19l.52-1.19.02,2.61c0,.24.35.47.49.61.81-2.63-1.26-3.75-.97-6.44-.27.07-.43-.12-.33-.27-.48-2.54-.81-5.03-.55-7.67-.06-.23-.39-.21-.41-.02l-.03,2.61-.84-2.21c-.28.45-.65.63-.95.57-.38-.08-.47-.35-.61-.76-.17-.52-.28-1.15.34-1.27.04.38.08.62.26.78.14.12.36.2.77.32-.08-.73-.15-1.47.15-2.29l.08-2.1c.72.12.8-.36,1.05-.75,1.15-.68,1.75-1.59,2.47-1.15.62.37.59.56.51,1.32l.4,1.26ZM62.42,86.02c-1.18-.9-1.45-2.6-.18-3.39.25,1.15.21,2.24.18,3.39ZM66.58,85.41c-.37-.22-.66-.46-.83-.97-.1-.29.25-.42.37-.27.28.37.48.74.46,1.24ZM73.21,82.06c-.48.06-.4-.33-.49-.43-.08-.08-.31.02-.33.12l-.11.5c-.06.29-.2.39-.37.41-.38.04-.29-1.54.39-2.5.41.6.83,1.22.9,1.9ZM73.69,82.9c-.32.05-.57,0-.76-.2-.11-.12.04-.41.28-.48.06,0,.2.06.26.05.16-.03.24.14.33.21.11.09.17.38-.1.42ZM74.52,84.26c-.12.16-.53.15-.6-.14-.08-.34.48-.76.65-.61.13.31.04.63-.05.75ZM74.91,86.56c-.27.17-.7-.67-.48-.84.25-.2.84.62.48.84ZM77.65,86.64c0,.13-.1.23-.23.23s-.23-.1-.23-.23.1-.23.23-.23.23.1.23.23ZM79.77,77.84c-.37,1.44.61,2.64-.38,4.66.03-.92.09-1.69-.36-2.5-.12-.83-.35-1.81.74-2.16ZM81.57,74.66c-.41-.27-.29-.75-.27-1.18-.46.14-.48.46-.76.74.48.52.18,1,.06,1.61-.1.52.56,1.26.02,1.97l-1-3.44-.15-5.13.95,1.94c.68.98,1.37,2.09,1.16,3.48Z"/>
      <path class="cls-1" d="M68.06,38.97l.03-.41c.79.27,1.33.87,1.7,1.56-.38.21-.61.18-.97,0-.27.65.12,1.07.48,1.51-.17.39-.21,1.08-.29,1.43-.22.24-1.21-.04-1.33-.4-.33-1.01.29-2.13.45-3.02-.1-.24-.08-.46-.07-.67Z"/>
      <path class="cls-1" d="M69.88,52.12c-.91.68-2,.87-2.08,1.9,1.13-.06,2.12-.38,3.13-.73l1.38.93c.02-.46-.04-.88.28-1.27.18-.22.4-.21.49-.16.09.05.36.2.37.38l.2,2.26,1.32-1.43c-.28-.69-.63-1.08-1.21-1.5-.14-.53.06-1.09.12-1.76-.66-.73-.93-1.57-.54-2.72-.66,0-1.2.59-1.1,1.12l.48,2.61c-1.31-.87-1.77-2.42-.96-3.62-.38-1.53-1.48-2.98-3.09-3.12-.78-.07-1.62.54-2.13.98,1.31-.08,2.53.31,2.58,1.85-1.73-.06-2.06-1.24-2.41-1.16-.63.16,2.14,3.02,2.87,5,.41-.09.47.32.29.46ZM72.87,52.04c0-.11.09-.21.21-.21s.21.09.21.21-.09.21-.21.21-.21-.09-.21-.21ZM69.92,50.1l-.34-.34c-.23-.24,0-.49.24-.41.12.04.21,0,.38.16.17.16.19.31.05.48-.07.08-.17.26-.33.11Z"/>
      <path class="cls-1" d="M69.92,76.11c.42.54.49.94.37,1.61-.63.06-1.51.04-1.98-.51-.4-.46-.4-1.37-.09-1.93.3.52.42.89.67,1.09.37.3.71.19,1.03-.25Z"/>
      <path class="cls-1" d="M30.15,35.84c.11-.01.18.03.21.1.06.12.05.22,0,.3-.04.07-.04.13-.02.21l-.43-.23c.1-.05.24-.27.24-.38Z"/>
      <path class="cls-1" d="M40.86,107.47c-.17-.35-.14-.81-.07-1.23.69.01,1.25-.14,1.86-.4,1.06.47-.51.15-.92,1.06-.13.29.04.34.36.7-.6.16-1.01.5-.94.88-.15.12-.19.3-.36.39-.16.09-.44-.11-.65-.47.2-.27.72-.48.71-.92Z"/>
      <path class="cls-1" d="M47.92,86.72c.36.4.62.8,1.09,1.08.14.17-.21.59-.45.53l-.84-.23c-.29-.08-.85.13-.91-.12l-.16-.68c-.16-.38,1-.9,1.28-.59Z"/>
      <path class="cls-1" d="M37.03,98.35l.23,3.74c.02.27-.84.47-.93.21-.4-1.14-.32-4.01.7-3.95Z"/>
      <path class="cls-1" d="M31.07,75.28c.42.64,1.09.62,1.79.78,1.16.25,2.34.64,3.49.11,1.59-.73-.61-1.02-2.1-3.06.38-.54.76-.9,1.36-1.3.44.97,1.23,1.52,1.92,2.24.49.51,1.03.86,1.9.37.33.61.76,1.53,1.51,1.53.78,0,1.3-.81,1.32-1.35.05-1.31-.66-1.84-1.1-3.17-.21.22-.5.45-.61.33l-.45-.49-1.14-2.45c-.37-.8-1.33-1.54-1.71-2.43-1.33-.03-2.45-.68-3.65-1.25-.93-.44-2.09-.25-2.96-.85-.7-.48-1.57-.84-2.49-.31l1.33,1.27c1.63,1.55,2.48,1.01,2.35,1.62-.3-.04-.44.12-.66.29-.14.11-.36.41.04.55.22-.2.65-.43.86-.08-1.29.96.72.28,1.74,1.33.43.45.32.98.29,1.68.34-.11.87-.08.98.21.22.62-.24,1.06-.6,1.31-.36.25-1.16.4-1.37-.19-.2-.58.23-1.49-.53-2.11-1.06,3.24,2.18,4,1.66,4.92-.12.22-.49.59-.76.53-.25-.06-.61-.28-.84-.53l-1.91-2.08c-.58-.63.07-1.82-.43-2.71-.79,1.81-.21,3.79.77,5.29ZM38.99,72.68c.16-.15.35-.16.54-.14l2.07,2.14c-1.21.07-1.62-.91-2.6-1.58-.12-.08-.14-.3-.01-.42ZM37.7,71.27c.12-.08.11-.24.22-.47.47.21.61.69.71,1.08-.2.15-.53.18-.69.01-.17-.17-.19-.42-.23-.62ZM36.16,70.2c.05-.33.37-.37.53-.2.15.15.28.41.33.62-.12.23-.41.16-.54,0l-.32-.42ZM35.18,69.51c-1.49-1.81-3.55-2.35-2.8-2.76.05-.03-.05-.18-.15-.13-.33-.45.18-.48.44-.49.78-.01,1.18,1.46,2.71,2.8.28.24.45.56.2.79-.12,0-.26-.04-.4-.21Z"/>
      <path class="cls-1" d="M44.35,113.62l.38,1.13c-.57.09-.78-.23-1.1-.57-.18-.2-.61-.26-.78-.67-.36-.82-.97-1.37-1.6-1.78l1.62-.94,1.49,2.83Z"/>
      <path class="cls-1" d="M28.51,109.7c.41-.4,1.3-.09,1.88.26.33.2.23.72-.02.94-.46.41-1.63.66-1.9.29-.27-.37-.63-.54-.54-.84.08-.27.3-.37.58-.64Z"/>
      <path class="cls-1" d="M48.76,88.67l-.02,5.26c0,.45-.11.68-.41.77-1.82.51-.26-2.43-.8-5.25-.08-.42.64-.89,1.23-.79Z"/>
      <path class="cls-1" d="M44.38,109.44c.27-.52.81.34,1.1.48,1.61.76,2.15,2.92,2.65,5.09.18.77-2.28.23-2.04-3.26-1.15.02-2.2-1.38-1.71-2.31Z"/>
      <path class="cls-1" d="M40.13,113.44c-.32.69-2.07-.24-2.81-1.3,1.09-.23,2.26.44,2.81,1.3Z"/>
      <path class="cls-1" d="M30.15,35.56v.28s-.24-.02-.24-.02c.02-.12.13-.18.24-.26Z"/>
      <path class="cls-1" d="M25.92,52.34l1.47,3.09c1.31.19.4,1.88.99,2.06l.96.3-.56.33c-.71.42,2.39,2.89,4.35,3.89,1.18.6,2.31,1.68,3.63,1.97,1.5.32,2.93.42,4.43,1.02,2.56,1.01,4.34-.39,4.76.36.17.3.16.71-.07.9-.2.16-.57.11-1.03.35,1.02.89,2.43.99,3.92.63.22.63.32,1.16,1,1.59.21-1.04,1.11-.45,1.43-1.03.26-.46-.71-.95-.58-1.46.09-.37.87-.04,1.21-.18.52-.21-.04-1.04.29-1.19.51-.23.74,1.2,1.37,1.27.32.04.86-.59.7-.82l-1.52-2.06c.09-.09.28-.16.3-.16l2.09,2c-.02-.92-.56-1.48-.82-2.24.83.04.96.69,1.43,1.27.27-.77-.14-1.46-.22-2.21-.87.23-1.51-.04-2.2-.1-1.04-.09-1.86.92-2.78,1.08l-5.19.9c-4.45.77-7.07-.73-10.56-2.34l-1.43-.66c-.68-.08-1.32-.27-1.73-.87l-2.02-2.96c-.97-1.42-1.62-3.17-2.35-4.88.75-.79.9-1.76,1.14-3.03l.99-5.22c.1-.51-.53-.68-.89-.87-.3-.16-1.05.03-1.25.53.15.17.77.55.68.96-1.47.69-2.13,1.94-2.07,3.58.06,1.41-.28,2.85.15,4.21ZM46.83,64.69c.52-.26,2.68-.24,2.51.55l-2.99.6c-.16-.73.24-1.03.48-1.15Z"/>
      <path class="cls-1" d="M.87,51.8l-.87-1.85c.89.04,1.24.47,1.89.94-.19.4-.46.84-1.02.91Z"/>
      <path class="cls-1" d="M8.97,11.7l.04.17-.19.2-.12-.12c.14-.1.19-.15.27-.26Z"/>
      <path class="cls-1" d="M23.77,70.57c.13-.48.95-1,1.2-.4l.52,1.28c.1.25.12.8-.05.8l-.71-.03c-.09,0-.31.31-.49.26-.07-.02-.1-.13-.04-.19.37-.33-.7-.68-.43-1.72Z"/>
      <path class="cls-1" d="M14.93,114.77l2.98.7,3.1-.21c.03,1.13-.73,1.26-1.5,1.28-1.86.03-3.61.16-5.36-.12-.43-.07-1.03-.2-1.24-.66.71-.98,1.26-1.92,2.2-2.78.14.69-.11,1.16-.17,1.79Z"/>
      <path class="cls-1" d="M9.44,87.57c.03.16-.17.35-.24.3-.13-.1-.1-.23-.08-.31.03-.11.29-.19.32.01Z"/>
      <path class="cls-1" d="M49.2,86.37c-.09-.15.1-.41.23-.45.61-.17,1.41.66,1.5,1.49-.8-.15-1.29-.31-1.73-1.05Z"/>
      <path class="cls-1" d="M53.32,98.66c-.54-.45-.84-3.31.95-3.88.46-.15.88-.32,1.49-.26-.08.56-.34.98-.56,1.29,0,.53-.14,1.05.23,1.64.63,1.02.04,2.79-.84,3.57-.26.23-.63.22-.8.27-.2.06-.66-.44-.49-.63.35-.38.69-.6.69-1.01,0-.46-.31-.7-.67-.99Z"/>
      <path class="cls-1" d="M52.62,85.33c.55-.08,1.24.82,1.15,1.45-.06.37-.6.43-.72.19l-.36-.75c-.09-.18-.41-.83-.07-.88Z"/>
      <path class="cls-1" d="M51.56,94.46c-.45.23-1.88.27-1.85-.36l.23-5.62c.01-.33,1.02-.52,1.26-.31,1.38,1.2.6,3.81.36,6.29Z"/>
      <path class="cls-1" d="M56.33,115.93c-.71.27-1.17-.04-1.58-.52l-.26,1.51-1.21-1.49,1.59-1.11,1.46,1.61Z"/>
      <path class="cls-1" d="M54.55,111.83l2.28,3.32c.44.65,1.25,1.05,1.43,2.02.81.19,1.36.78,1.48,1.71,1.29,1.08,1.48,2.32,3.41,3.08l-.81.35c-.25.11-.15.62.28.54.36-.07.53-.71.71-.94.5-.12,1.58-.09,1.83-.51.29-.7-.23-1.27-.5-1.84.84.38,1.15,1.08,1.67,1.78.29-.94-.29-1.45-.57-2.26.9.33,1.26,1.09,1.79,1.78.04-.78-.35-1.26-.61-1.89.22,0,.47.22.55.14l.38-.37c.27-.26.48-.54.79-.34.31.2.53.53.17,1.04.37.22.72-.08.91-.56.48.33.35,1.03.43,1.41,1.43.75.41,2.06,1.21,2.82-.11-.96-.15-2.1.87-2.37.2-.05.23.72-.32.76,1.55.91.13,2.43.77,4.5.18.59,1.17,1.12,1.68.98.53-.27.35-.99.38-1.41l.26-3.49c.05-.7-.56-.9-.72-1.22-.99-2.06-3.62-3.03-1.7-4.94l-.58-1.16c-.84-.95-1.16-2.05-1.46-3.3.53.03.64.45.77.83.2-.09.44-.04.49.19.16-.2.39-.67.86-.65.63,1.33,1.19,2.74,1.57,4.29.02.46.49.28.38-.31.79.8,1.16,1.89,1.69,2.96l.48.52c-.36.15-.42.41-.38.57.14.63.95.04,1.44.83.36.58-.68,1.28-1,2.52-.38-.28-.25-.55-.37-.72-.13-.18-.41-.26-.74.05-.08-.25-.11-.35-.36-.47l-.1,4.38-.17,1.19c.28-.04.59-.3.6-.57l.06-3.63c.06,0,.18.06.18.2l.7,3.92c.41-1.32.06-2.59.19-4.06.45,1.43.62,2.83.65,4.42l-.24.3c-.29.36,1.39.01,2.3,1.29.31-1.16-.87-1.87-.79-2.34.11-.67,1.28-.11,1.44-.31.09-.11,0-.42.35-.5l.16,1.98c.19-.01.2.27.56.52.31-.47-.09-1.01.28-1.39-.06-.36.21-.48.42-.17l.03,1.44h.26c.01-2.27-.13-4.53.13-6.88.07-.93-.06-1.82-.24-2.63l.26-2.16.02-2.28c0-.94.81-1.86.32-3.04l-.66,2.48c-.08-.8-.24-1.9.32-2.58.3-.36.15-.99.11-1.48-.5.65-.61,1.27-.86,1.91-.32-.23-.43-.16-.52-.03-.1.15-.08.62.32.7.34.32.1,1.26-.12,1.77.37.98.38,1.81.21,2.74.64.92.81,1.86.12,2.62.11-.77-.62-.69-.54-.14.34.89.87,1.8.3,2.7-1.4-.98-.84-2.82-1.73-3.67.03-.1.03-.24,0-.32-.37.39-.42.92-.71,1.56-.31-.81-.57-1.77-.43-2.65l.46-2.74-.43-3.33c.3-1.08.75-2.07.07-3.25-2.75,2.51.21,4.7-.4,8.12-.45-.67-.16-1.32-.42-2.01-.65-1.73-1.13-3.56-1.03-5.39-.28-.14-.44.08-.54.16-.2.17,0,.46,0,.61-.11,2.27,1.01,4,.94,6.13-.26-.5-.45-.93-.72-1.26-.12.37-.31.31-.19-.02-.95-1.26-1.27-2.5-1.49-3.92l-1.02-2.42c.84.41.93,1.38,1.19,2.08l.71,1.96c.29.79.35,1.62,1.15,2.11l-1.31-4.23c-.59-1.9.5-2.54.27-3.13-.43-1.14-.24-2.34-.43-3.52-.38-2.29-.74-4.45-1.91-6.64-.63,1.57.6,3.9-1.07,4.42.71-2.55.3-5.12-.74-3.78,0-.37.05-.8-.15-1.08-.13-.18-.67-.07-.9.07-.77.46-.19,2.35-.9,4.04-.27.04-.39-.28-.39-.58,0-2.19-.31-5.06-1.8-5.34-.41-.08-1.6,1.55-.81,3.35.46,1.05.83,2.12,1.05,3.28-.6-.71-.66-1.55-1.54-1.79-.27.31-.63-.02-.41-.31l-.4-3.15c-.04-.3-.04-.74.16-.92.16-.14.58-.12.84-.52-.74-.07-2.51-.24-3.12.58-1.02,1.39,1.62,4.53-.65,4.17-.4.3.15.76.24,1.01.35.97.81,1.94.95,2.99.25,1.97.78,2.65.76,2.99,0,.12-.46.08-.5-.06-.34-1.11-.94-1.83-2.15-2.19.31,1.38.38,2.7,1.18,3.8.35.48,1.21.13,1.63-.23l-.99,2.6-.28.46c-.09.15-.6.22-.59.09.03-.78-.47-1.17-.76-1.74-1.03-2.02-1.3-4.26-1.94-6.4-.11-.36-.53-.79-.55-1.12-.01-.27,1.34-2.2,2.48-2.67l-.49-4.6c-.08-.76-1.62-.57-1.9.03-.68,1.45-.36,3.2-1.23,4.31-.95,1.22-.84,2.8.06,4,1.36,1.82,2.03,3.88,2.8,5.99l1.57,4.33.59-1.79c.44.06,1.13.21,1.49-.1.29-.25.92-.67.73-1.29-.14-.48-.79-.81-.59-1.66.57.4.82.93,1.31,1.64,1.52-1.61,1.09-4.17,1.94-4.53.25-.1.61.25.71.62.17,1.33-.08,2.65-.55,3.91.58.57.03,1.02-.07,1.47-.27,1.12-.64,2.05-1.48,2.67-.02.52.05,1.32-.42,1.58-.38.21-1.18.54-1.56.11-.21-.23-.57-.58-.8-.55-.51.08-.61.93-1.09,1.13-.4.16-1.94-.86-2.45-1.88.48-.25,1.24-.43,1.39-.96.19-.68-.62-1.17-1.08-1.18.11.52-.29,1.13-.55,1.07-.91-.22-1.19-1.38-1.71-1.99-.65-.76-1.09-1.49-.36-2.55-.73-.17-1.04.34-1.26.51-.29.72-.12,1.26.1,1.9,2.02,1.83,2.38,4.72,1.39,4.17-.58-.32-.58-1.52-1.4-2.59-.54.26-.97.5-1.42.37-.49-.14-.53-.76-1.19-.99ZM59.55,99.41c-.12,0-.11-.41.12-.37.07.01.23,0,.3.06.28.27-.04.34-.19.33l-.23-.02ZM67.29,100.95l-.71.87.6,2.5c.07.3-.27.49-.45.41-.1-.05-.29-.17-.5-.13.02.44.31.89.12,1.54-1.83-.5-1.38-2.9-1.57-3.99-.17-.97-.41-1.42.54-1.95.66-.37,1.25-.17,1.99.74ZM81.77,123.78c.32.39.31.74.19,1.23l-.38-.66c-.03-.19-.06-.41.19-.56ZM78.17,125.37l.09,1.25h-.42c0-.42-.07-.84.07-1.25h.26ZM76.99,116.84c.03-.26.31-.18.25.04.07.47-.42.34-.25-.04ZM76.82,117.66c.37.18.54.58.51.89-.5-.27-.54-.58-.51-.89ZM72.84,109.93c-.46-.91-1.16-1.42-.63-1.93.3-.29,1.16,1.2.63,1.93ZM74.69,101.85c-.65-.38-.97-.87-.8-1.74.05-.23.58-.24.63.01.02.13-.12.47.04.64.26.29.2.65.14,1.09ZM73.18,102.98c.95-.06,1.66.77,1.8,1.76.1.75.03,1.57-.26,2.38-.58-.64-.41-1.32-.66-1.88-.33-.73-.67-1.33-.87-2.26ZM73.32,110.96c.18-.18.35-.13.47.04.15.21.18.4,0,.66,1.22,1.58,2.42,3.37,2.91,5.46-1.28-.6-1.61-1.88-2.11-2.97l-1.16-2.5c-.11-.23-.37-.44-.11-.7ZM73.5,110.1c.11.1.16.3.14.38-.01.08-.24.19-.45.03-.23.32-.38.69-.72.91-.04.31-.2.16-.27.1-.18-.16-.19-.37-.23-.47-.5-.19.37-.58,1.53-.96ZM73.97,121.32c.45,1.74.39,4.22.03,4.05-.28-.13-.37-2.77-.03-4.05ZM73.05,123.81l.06-2.19s.1.03.14.11l-.06,2.19s-.1-.03-.14-.11ZM70.44,101.46c.14-.28.76-.21.84-.04l.34.76c-.37.07-1.14-.26-1.18-.72ZM70.76,103.4c.07-.12.29-.2.46,0,.29.33-.05.35-.16.35-.27,0-.37-.21-.29-.35ZM70.66,109.75c.07-.01.14-.07.06-.21.11-.03.39-.36,0-.43-.1-.11-.14-.52-.15-.74-.03-.42-.09-.77.1-1.2.43.18.33.49.36.67l.35,2.13c.04.26-.38.48-.52.41-.26-.12-.44-.43-.2-.63ZM69.58,112.23c.6,1.62,1.93,3.13.93,2.85-1.06-.29-1.37-1.78-.93-2.85ZM65.42,118.29c.04-.05.18-.28.31-.05.11.2-.12.36-.28.27-.06-.03-.12-.1-.03-.23ZM63.43,119.21c.61-.2.93.86.74,1.21-.52-.13-.95-.92-.74-1.21ZM60.75,115.88c.23-.13.47-.17.65.06.05.06.24.11.2.3-.05.2-.53.27-.89.15-.3-.1-.14-.41.04-.52Z"/>
      <path class="cls-1" d="M46.72,101.27c.46.52.56,1.07-.1,1.5-.25.26-1.06.45-1.31-.04l-.58-1.18c.96-2.85-.74-4.76,1.93-5.37l.06,5.09Z"/>
      <path class="cls-1" d="M45.61,87.49c.63.85.57,1.77.49,2.69l-.41,4.71c-.38.59-1.1,1.14-1.73,1.45-.55-.59-.9-1.59-.46-1.94.8-.64.33-1.43.63-2.15l1.01-2.47-1.97-.4c.82-.8,1.54-1.47,2.45-1.89Z"/>
      <path class="cls-1" d="M43.83,102.11c.05.94-.38,2.45-1.44,2.77-1.02.3-2.7-.35-3.41-1l.15-3.63.84-1.25c.23-.77.67-1.2,1.34-1.37.45-.11,1.47.21,1.63.74l-.16,3.22c-.03.52-.61.72-.87.61-.83-.35.18-2.26-.75-4.01-.69,1.52.15,3.16-.62,4.46,1.03-.85,1.46.3,3.27-.54Z"/>
      <path class="cls-1" d="M50.03,113.03c1.08,2.13,2.05,2.2,1.16,2.89-.32.24-.74.09-.83-.32l-.44-2.04c-.02-.09.03-.27-.04-.35-.05-.06.07-.22.15-.17Z"/>
      <path class="cls-1" d="M47.9,96.66c0-.6.32-1.1.99-1.05-.41,1.83-.29,3.57,0,5.4l.81-.04-.02-3.29c0-.61.05-1.16.45-1.57.34-.35.84-.58,1.52-.5-.41,2.64.88,4.61-.2,5.04l-1.02,1.08c-.34.36-1.12,1.11-1.64.87-.63-.43-.88-1.47-.88-2.19v-3.75Z"/>
      <path class="cls-1" d="M39.56,96.68c-.36.66-1.57,1.19-2.03.44l-.13-1.52,3.73-5.29c.5.09.76.19,1.17.55-.25.22-.55.49-.66.83-.55,1.74-1.19,3.36-2.07,4.99Z"/>
    </g>
  </g>
</svg>