<?xml version="1.0" encoding="UTF-8"?>
<svg id="Layer_2" data-name="Layer 2" xmlns="http://www.w3.org/2000/svg" viewBox="0 0 101.61 129.48">
  <defs>
    <style>
      .cls-1 {
        fill: #fff;
      }
    </style>
  </defs>
  <g id="Layer_1-2" data-name="Layer 1">
    <g>
      <path class="cls-1" d="M52.94,32.7c.17-.08.21-.13.32-.2.15-.09.07-.2-.02-.21-.43-.07-1.11.36-.71.42h.42Z"/>
      <path class="cls-1" d="M50.61,33.02c-.02-.12-.19-.29-.3-.32-.08-.02-.26,0-.38.2-.41-.1-.32.42.04.2.19.1.66.04.64-.07Z"/>
      <path class="cls-1" d="M20.81,84.89c.17-.55.08-1.19-.27-1.85-.38.71-.5,1.54-.43,2.32.28-.06.63-.23.7-.47Z"/>
      <path class="cls-1" d="M52.98,37.1l1.05-2.7c-.37-.09-.8-.08-1.11,0-.62.92-1.06,1.98-.62,2.58.08.11.52.21.68.12Z"/>
      <path class="cls-1" d="M51.35,37.34c.14-1.02.18-1.95.81-2.71-.52-.31-.74-.52-1.29-.65l-.81,2.7c-.14.47,1.01.99,1.3.66Z"/>
      <path class="cls-1" d="M22.72,101.83v3.56c1.21-.51,1.05-2.71.73-4.47-.54-.03-.73.48-.73.9Z"/>
      <path class="cls-1" d="M25.14,104.36c1.19-.11.65-1.14.65-1.66v-4.34c-.35-.24-.93.27-.97.79l-.43,5.62c.34-.09.32-.43.39-.51.04-.05.2-.1.36.1Z"/>
      <path class="cls-1" d="M24.15,106.9c-.4-.08-.56.76-.38,1.03.14.21.22.79.73.72.46-.15.23-1.58-.35-1.75Z"/>
      <path class="cls-1" d="M1.13,66.87s.15-.12.23-.12l.22-5.06c.04-.85-.19-1.65.14-2.56.4-1.09.37-2.62.95-3.4.79-.75.69-1.66,1.17-2.43.1.3.3.46.49.37l1.24-1.14c.06.55.6.48.58.03.03-.3.06-.57.13-.82.06-.19.65.25.84.17,1.76-.73,3.1-2.22,4.34-3.6.32-.36.93-.48.93-1.04v-1.68c-.24-.02-.55.05-.84-.15-.25,1.35-1.41,2.65-3.09,2.74,0-1.39.1-2.32.66-1.63.41-.56.52-1.22,1.1-1.71.07.23.16.07.19.02l.22-.41c.04-.07-.32-.14-.4-.08-.13-.02-.24.11-.37.18-.15-.54.32-1.43.77-1.27.22.07.43.05.65.03.01-.18.23-.39.4-.42.14-.02.33-.11.45-.18.86-.52,1.03-2.22,1.45-1.69.11-.05.23-.23.4-.08-.15.21-.21.54-.13.69.05.09.11-.37.39.04.28-.37.53-.73.97-1.05.03,1.17-.8,1.79-1.41,2.84l3.11-2.88c-.16.6-.51.98-.43,1.5.03.16-.15.28-.2.39-.05.09.09.25.12.21.05-.07.18-.23.31-.19v-.24c.54-.45.85-1.21,1.7-1.44-.2.99-1.19,1.55-.78,2.65.32-1.23.8-1.81,1.7-2.33.89-.51,1.04-1.51,1.57-2.62.36,1.02-.23,1.87-.84,2.7-1.71,2.32-.97,2.62-1.06,4.08-.01.17.52.25.53.09l.16-2.42c.04-.59.68-1.53,1.35-1.36.51.16.33,1.34.04,1.75-.17.57.59.51.43.06-.1-.82.43-1.46.53-2.18-.19-.18-.58-.25-.67-.38-.14-.19-.07-.58.16-.83.65-.7,1.68-.89,2.51-.49l-1.19,1.91c-.3,1.1-.43,2.31.46,3.21.24-2.21.46-5.07,2.39-5.34l-1.61,2.55c.14.25,0,.65.31.88.26-.89,1-1.49,1.56-2.31-.33-.52.67-.51.35-.03l-.53.79c-.3,1.14-.6,2.38-1.21,3.3.08.11.03.29-.06.3l-.39.02c.17.78-.29,1.85.23,1.94.18.03.41,0,.53-.27l1.29-2.82c.4-.87.44-1.84,1.39-2.51.51.8,1.26.84,2.04.47l.48-.02c.11,0,.12-.25.17-.35-.34-.1-.53-.4-.67-.6l-.48-.67c-.29.46-.68.32-1.03.25-.22-.04-.75-.22-.54-.66l1.11-2.31c-.05-.26-.55-.65-.22-1.03l.64-.73c.62-.71,1.05-1.56,1.31-2.48-1.22,1.58-2.82,2.1-2.76,3.16.12.18.09.22.03.32-.12.18-.35.25-.44.16-.51-.5.8-1.6.9-2.59-.8.58-1.51,1.45-2.7,1.16.96-.72,1.71-1.13,2.18-2.05.12-.23.6-.05.47.18-.06.11-.12.47.15.71.56-.5,1.1-1.24,1.87-1.45-.2-.49.1-.57.16-.75-.15.08-.28.32-.54-.01.27-.41.6-.76.51-1.23.29,0,.46-.24.69-.41.28.04.6.3.85.37l.43.12c.06.02-.15.22.16.36.11-.53.51-.62.73-.48.36-.05.64-.44,1.03-.3.49.17.73.11.85.68.25-.22.37-.27.44-.26.08,0,.11.15.06.24-.06.1-.12.19-.3.29-.43.05-.47.58.12.53-.46.39-.51.9-.38,1.6.73-.93,1.48-1.71,2.36-2.33-.59-.36.06-.56.37-.36.2.07-.06.35,0,.38.41-.09.53-.09.93.05l-3.69,2.89c-.67-1.29-.74.66-1.85.93-.21.05-.37-.46-.26-.64l.32-.52c-.96-.1-.79.72-1.07.97-.25.22-.4.29-.44.59-.03.22.41.44.52.22.08-.15,0-.7.46-.48.24.11.6.52.92.33.19-.11.42-.32.7-.53-.16.68-.42,1.28-.24,2.06l-.12,1.43c-.06.72.22,1.37.44,2.15l.85-1.68c.06-.12.47-.07.53-.18.19-.36-.79-1.31,0-2.67.2.65.2,1.07.65,1.36,0-.75.24-1.64,1.03-1.56.01.53.63.59.34.04.68-.99,1.44-2.04,2.31-2.88.46,1.02-1,1.44-.65,2.39l1.42-2.12c.11-.17.26-.3.46-.28.19.02.08.31.17.64.12-.26.35-.3.36,0,.19-.02.38-.21.42-.4.14.03.22-.1.21-.2.29-.13.42-.36.41-.1v.3c.11.02.26-.07.35-.21-.01.45-.14.7,0,1.19.39-.34.57-.56.93-.57l1.11-1.65c.49,1.29-.33,1.91.63,1.98.26.02.72-.19.73-.43-.46-.38-.29-1.48-.02-1.66.12-.08.37-.02.51.33.36-.21.71-.66,1.14-.48.25.1.27.37.33.45.05.08.21-.06.34.01.07-.08.37-.03.52.29.39-1.19,1.46-1.95,2.94-1.98l-1.15,1.79c1.12.03,1.81-.69,2.58-.91l.29.33c.09.1.29.04.27-.06l-.1-.54c-.11-.62.88-.91,1.49-1.09-.21-.15-.5-.54-.46-.83.03-.23.53-.26.65-.48.24-.44.57-.61.44-1.1-.59.05-.51-.44-.51-.74,0-.4.06-.98.5-.96.16,0,.43.28.54.24.2-.07.22-.33.29-.65.19-.82,1.49-1.38,2.05-.96l-.12-.54c.02-.1,0-.28-.15-.33-.28-.1-.41.26-.53.38-.47.14-1.06-.31-1.36-.61-1.24,1.77-3.05,2.26-3.7,3.71.49-.25.57-.61.82-.65.47-.07.87-.17,1.26.34l-2.41,1.36c-.38-.51-.56-.77-1.11-1.12-.18.56-.51.68-1.05,1.02-.22.14.38.73.54.44.11-.19.2-.21.27-.22.12-.02.36.14.33.24-.04.13-.34.23-.51.17-.23.16-.31.55-.89.73.26-.37.19-.69.18-.74-.3-.55-.74-.4-1.08-.29-.16-.03-.4,0-.5.04-.06.02-.18-.11-.08-.21.05-.05.13-.05.14-.2-.41.25-.56-.27-.16-.36.41.09.46-.47-.06-.29.07-.48-.21-.42-.29-.46-.11-.06.05-.47.17-.55l2.77-1.81c.36-.23,1.05-.05,1.46-.14.02-.19.03-.56.17-.58.19-.04.58.1.65.02.07-.19.12-.45.26-.5.07.13.39.09.23-.15,0-.76.62-1.56,1.49-1.5l-1.02,1.35c.64.51,1.48.12,1.88-.47.14-.17.8.08.97-.09.18-.17.44-.4.47-.7-1.88.45-1.56-.73,1.59-.28.24-.17.22-.43-.2-.49l2.57-1.41c.21.02.78.26.86-.32-1.38-.03-2.52.63-3.91,1.27-.62-1.35,2.27-1.29,1.9-3.62.41.09.63.03.81-.17-2.09-.59-2.14,3.28-5.49,2.55.67-.75,1.48-.66,2.12-.98-2.15-1.21-2.99.57-4.89.84,1.09-.96,2.47-1.57,3.98-1.61l1.44.2-.41-.6c.21-.62.84-.61,1.45-.96-1.08-.44-2.06.14-3.19.5.35-.75,1.09-1.02,1.73-1.49,2.2.74,2.25-1.63,4.11-1.62-.33-.32-.64-.24-.99-.3.58-.56,1.22-.37,1.88-.1-.08-.57-.59-.49-1.1-.53,1.37-.43,3.39-1.48,3.39-1.47.05-.67-1.29.15-1.74-1.06l2.8-.43c-.03-.27.15-.32.35-.36l1.3-.27c-.49-.42-.82-.94-.48-1.48l-4.81.97c-.43.09-1.04.75-1.53.61-.03.19-.11.22-.18.25-.21.08-.5-.03-.5-.14.14-.18.35-.09.41-.06-.04-.55-.82.05-.75-.48.03-.18.12-.19.24-.22.5-.27,1.04-.08,1.5.07.04-.07.02-.21,0-.21-.37-.12,0-.34.03-.38.04.03.13,0,.19-.01l1.31-.43c.07,0,.13.03.2,0l2.57-.74c-.21,0-.42-.14-.21-.38.35.14.53.07.62-.11-.1,0-.5-.07-.48-.12l.19-.36c-.52-.58-1.45-.16-1.92.16-.18.12-.58.17-.79.25l-3.13,1.19c-1.42.54-2.85,1.01-4.32,1.7-.22.04-.59-.34-.85.03-.16.22-.56.53.14.76-.21.34-1.01-.08-1.27.13-.67.56-1.58.41-3.1,1.57-.22.17-.37.24-.58.17-.14-.05-.14-.27-.14-.37,0,.04,1.38-1.05,1.02-.87l2.53-1.24c.58-.7,1.19-1.32,2.02-.83.34-.69,1.17-.37,1.64-.57l6.75-2.85c-.46-.78-1.12-.7-1.81-.91.36-.28.75-.35.9-.5.15-.17-.08-.66-.37-.78-.78-.32-1.6.16-2.29.5l.38.73c.13.22.67.18.94.18-.07.15-.1.23-.11.34-.03.27-.4.27-.67.34-2.47.63-4.73,1.51-7.04,2.56-1.17.53-2.28,1.04-3.6,1.3,1.28-1.25,2.87-1.63,4.38-2.39,1.9-.96,3.91-1.46,5.93-1.82-.48-.18-.75-.51-.71-1.09l-4.01,1.28c-.52.17-.95.84-1.75.34.05-.26.18-.44.35-.48.26-.07.65.1.82.04l5.97-2.23-3.62-.34c-1.1-.4-2.06-.11-3.28-.11.7-.77,1.42-.79,1.82-1.56l-4.22.93c-.33.4-.51,0-.26-.11.08-.04-.1-.25-.53-.37.4-.35,1-.23,1.34-.85-1.14-.14-2.12.25-3.01.56-.97-.47-1.91.19-2.78.33-1.03.16-1.84.3-2.86.66l-5.09,1.82c-.09.23-.05.64-.33.74l1.97-.75c-.06.1-.12.32.08.42-.31.62-1.36,1.21-1.99.84-.13-.08-.2-.07-.31-.02-.07.03-.19-.15-.15-.26-.41.14-.92.53-1.46.77l1.54-1.63c-3.78,1.12-6.95,3.19-10.16,5.29-1.59,1.04-3.06,1.9-4.51,3.2-2.08,1.88-4.13,3.6-5.93,5.75l-3.96,4.75-3.15,5.2-3.18,6.63c-.85,1.77-1.29,3.57-1.92,5.4-.55,1.61-.84,3.16-1.26,4.82l-1.06,4.23c-.25,1-.7,2.06-1.05,3.13-.89,2.68-1.71,5.24-2.4,8.03-.16.67-.73,1.25-.26,2.01l.95.33v4.56ZM37.42,34.57c-.11.04-.21,0-.26-.03.13-.35.45-.55.69-.79.11-.04.21,0,.26.03-.13.35-.45.55-.69.79ZM53.69,28.49c-.33.42-.65.31-1.11-.04.26-.16.58-.25,1.11.04ZM49.56,30.95c-.05.18-.79.2-.79-.1,0-.35.7-.34.79.1ZM55.89,19.9c-.4.79-1.09.59-1.53.38.57-.22,1.03-.39,1.53-.38ZM59.09,13.15c.13-.64.82-1.02,1.3-1-.86.9-.95,1.54-1.3,1ZM60.86,10.19c-.49,0-.85-.2-1.08-.57.49,0,.85.2,1.08.57ZM58.39,9.23c.2-.11.29.03.29.1,0,.2-.05.3-.11.38-.11.16-.39.19-.4-.04,0-.14.08-.37.22-.45ZM60.26,11.08c-.94,1.07-2.37,1.3-3.48,2.24-.06.05.13.5.05.52-.68.2-.85.99-1.12.56-.3-.47.55-.67.99-1.29.8-1.1,2.15-1.84,3.56-2.03ZM56.91,11.36c.81.5-1.4,1.85-3.01,2.2.81-1.01,1.85-1.59,3.01-2.2ZM53.73,15.35c.35-.29.78-.69,1.29-.29-.3.35-.7.34-.99.44-.44.14-.71.64-1.05,1.02-.16.18-.29.21-.53.16-1-.21.35-.54,1.27-1.32ZM52.31,18.64c.08.14-.05.34-.29.35-.12,0-.46-.01-.17-.35.17-.19.39-.12.46,0ZM51.59,13.46c.13-.03.21,0,.22.05.06.22-.03.36-.14.35-.21-.01-.28,0-.32-.09-.06-.11-.09-.4.24-.32ZM51.06,19.14c.13,0,.23.1.23.23s-.1.23-.23.23-.23-.1-.23-.23.1-.23.23-.23ZM57.62,2.65c.24-.12.36-.19.62-.14.18.04.22.47-.18.43-.38-.04-.39.17-.47.21-.09.04-.29-.04-.3-.15-.02-.18.18-.27.33-.34ZM55.23,2.61c.04-.11.22-.17.31-.1.1.08.12.23.11.47.05.21.53.19.83.22l-1.01.4c-.35.39-.87.55-1.36.59-.13.35-.39.63-.65.61-.21-.02-.27-.27-.14-.39.47-.85,2.07-.18,1.89-1.48-.02-.12-.02-.24,0-.32ZM54.98,1.88c.12.3-.05.44-.17.54-.06.05-1.81.51-1.77-.07.76-.04,1.34-.13,1.94-.48ZM51.08,6.75l.23-.2c.58-.51,1.38-.75,2.19-.84.2-.6.79-.65,1.14-.33l-2.06.96c-.75.35-1.25,1.1-2.17,1.18.12-.33.46-.58.66-.76ZM26.28,37.18c-.15.22-1.11-.06-1.25-.23-.09-.12.1-.43.34-.42.33,0,1,.51.9.65ZM30.68,29.32l-.42.21c-.04-.36.08-.54.21-.91.77-.41,1.06-1.61,2.12-1.99-.33,1.2-1.4,1.76-1.92,2.68ZM33.67,28.01c-.12-.6.49-1.21,1.1-1.15-.3.52-.53.89-1.1,1.15ZM34.52,29.39c-.26-.47-.13-1.22.66-1.55-.15.51-.24.88-.66,1.55ZM37.57,30.08c-.08.07-.2.21-.28-.07-.08-.05-.17-.01-.18.05-.05.21-.31.24-.41.05-.05-.1.01-.25.09-.31.35-.26.68-.33.93-.15.09.06,0,.31-.15.43ZM42.82,16.81c-.16-.06.02-.44.17-.37.05.02.16.02.18-.14l.38-.03c.1,0,.23-.07.42.03-.22.44-.73.67-1.16.51ZM44,19.38c0,.13-.1.23-.23.23s-.23-.1-.23-.23.1-.23.23-.23.23.1.23.23ZM42.81,21.59c.14-.1.36.04.23.25-.05.08-.01.25-.35.12-.27.18-.39-.09-.13-.23.11-.22.2-.1.25-.14ZM42.72,17.4l-.99.54-.53-.02c-.11,0-.14.35-.24.4-.08.04-.21-.2-.27-.25-.03.33-.3.35-.47.18-.18-.18-.22-.29-.23-.53-.02-.27.16-.46.36-.59.22-.15.45-.09.53.16l.38.23h.32c.08,0,.14.08.14.19.34-.15.48-.65,1.02-.55,0-.02.03.1,0,.25ZM41.27,25.39c.13,0,.23.1.23.23s-.1.23-.23.23-.23-.1-.23-.23.1-.23.23-.23ZM40.21,23.94c.25-.36.47-.59.83-.83.05.5-.34.88-.83.83ZM38.92,23.46l-.17-.31,3.51-2.93v.3s-3.34,2.93-3.34,2.93ZM42.31,24.06c.05.12,0,.25-.1.32-.08.05-.36.04-.33-.28.15-.28.39-.13.43-.03ZM40.87,19.32c-.31.99-1.45,1.71-2.57,2.55-.22-.03-.21-.55.11-.78l2.46-1.77ZM36.88,21.09c.63-1.11,1.71-2.29,2.14-2.03.52.31-.94,2-2.14,2.03ZM37.74,25.86l1.6-1.18c-.05.11-.06.19-.06.31l-1.44,1.1c-.01-.06-.05-.16-.1-.22ZM38.56,26.76c-.1.19-.24.1-.32.12-.16.04-.42-.16-.26-.38.07-.09.37-.08.47-.06.09.02.21.15.12.31ZM39.25,30.61c-.08.06-.31.09-.38.03-.19-.13-.32-.4.1-.61.26-.13.39,0,.42.08.08.26-.02.41-.13.49ZM39.58,28.8c-.06.05-.1.11-.28.13-.18.03-.28-.05-.25-.4,0-.14-.05-.39.04-.43.08-.03.27.05.43.2.21.21.13.43.06.5ZM42.81,29.71c-.31.17-.87-.54-.95-.99-.61.49-1.11.88-1.94,1.37-.07-.53.16-1.5.92-1.5.53,0,.92.04,1.32-.59.34.23.47.62.69.65.39.05.72-.27,1.32-.3-.31.48-.73,1.01-1.34,1.37ZM45.23,17.13c-.01.31-.48.22-.34-.04l.23-.42c.05-.1.27-.01.32.1.04.1.04.29-.21.36ZM45.61,29.55c-.02-.54.59-.58.8-.79l.07.23c-.19.14-.33.6-.87.56ZM45.83,19.33c.1-.3.41-.18.43-.05-.22.3-.22.44-.3.5-.09.07-.27.01-.31-.1-.04-.11-.02-.28.18-.36ZM47.32,30.11c0,.23-.14.31-.43.45-.21.1-.3-.14-.21-.24.29-.35.27-.71.52-.53.15.11.12.23.11.32ZM47.32,28.24c-.14.17-.3.41-.46.03l.43-.43c.36.16.11.3.03.4ZM48.87,21.12c-.15-.07-.15-.47.19-.42.25.04.21.14.21.23.01.22-.3.24-.41.19ZM49.49,18.36c-.22.03-.31-.34-.06-.47.33-.17.32.05.32.16,0,.21-.07.28-.26.31ZM49.39,1.98c-.47.38-1.03.75-1.62.92.37-.58.75-1.09,1.62-.92ZM49.93,11.65c.34-.25.43.28-.04.16-.51.7-.97.96-1.8,1.14-.18.35.03.88-.47,1.23-.17-.29-.24-.79-.22-1.1l2.54-1.44ZM47.94,15.98c.25-.01.42.34.03.49.03.27-.43.77-.59.57-.3-.37.07-1.04.55-1.06ZM46.8,13.95c-.39,1.08-1.45,2.23-2.7,1.78,1.22-.32,2.01-.97,2.44-2.2.19-.15.53.07.26.42ZM45.75,3.52c.05-.08.24-.05.31-.05.09,0,.23-.07.32.09.04.07.12.09,0,.21-.09.09-.16.11-.36.11-.17.06-.25,0-.26-.09-.02-.14-.04-.21,0-.27ZM45.02,5.75l.26-.28c.13-.14.29-.29.46-.26.07.01.16.12.12.26-.05.21-.31.31-.39.41-.11.14-.17.2-.34.16-.1-.02-.17-.24-.11-.3ZM45.21,13.63c.25-.15.65-.15.83-.02-.38.7-1.02.8-1.5,1.13-.43.29-.56.93-.96.88-.14-.02-.32.02-.22.27-.4-.11-.6.29-1.21.35.51-1.03,1.68-1.64,2.84-1.88.01-.27.04-.62.22-.73ZM43.24,11.86c.19-.19.34-.18.45-.21.28-.07.55.42-.03.49-.45.06-.49-.21-.42-.29ZM44.82,13.65c-.03.1-.22.16-.3.11-.07-.04-.22-.12-.23-.36,0-.08.35-.11.42-.06.07.05.17.12.11.31ZM44.79,4.27s-.13.21-.59.11c.14.56-.51.54-.43.12.21-.21.22-.47.33-.53.17-.08.56,0,.69.3ZM44.13,2.67c-.07.47-.56.84-1.09.77.34-.39.6-.56,1.09-.77ZM43.04,3.76c.07.05.17.12.11.31-.03.1-.21.16-.3.11-.07-.04-.22-.22-.23-.31,0-.13.35-.16.42-.11ZM41.21,5.99c.46-.41.9-.61,1.4-.8l.13.14-1.73,1.15c-.22.15-.58.37-.85.3.21-.69.83-.6,1.06-.8ZM39.85,15.25c1.04-.7,1.64-2.04,3.04-2.53l-2.57,2.53c-.63.62-.9,1.29-2.14,1.13l1.67-1.13ZM38.25,17.71c-.15.23-.39.29-.62.18-.17-.08.02-.51.19-.95.12.19.45.44.44.77ZM37.63,14.21c.08-.03.21.18.1.28-.06.05-.16.12-.2.21-.08.16-.21.07-.22-.02-.02-.22.09-.38.33-.47ZM36.91,18.72c.27-.09.41-.13.17-.06.05.39-.15.41-.35.4-.18,0-.16,0-.18-.16-.03-.26.19-.31.36-.19ZM37.12,24.78l-1.46,1.74c-.06-.87.71-1.49,1.46-1.74ZM35.84,21.87l-1.39,1.52c-.13.14-.02.29-.01.37.05.32-.44.81-.86.7-.27-.07-.18-.33-.05-.42l.19-.13c.69-.48.51-1.57,1.9-2.44.22-.16.47.04.46.19,0,.17-.12.21-.24.21ZM35.61,20.04c-.19-.1-.25-.33-.15-.55.07-.16.26-.41.61-.3l-.46.85ZM34.34,15.81l1.13-1.13c.29-.29.61.12.28.32l-.19.41-.29.03-.42.46c-.1.11-.14.17-.25.17.01.11-.04.14-.1.18-.09.05-.28,0-.3-.09-.01-.07.02-.21.15-.34ZM34.41,20.62l.17-.33c.06-.12.39-.13.41.03.01.11-.07.39-.17.52l-1.12,1.31c-.11.05-.25.02-.32-.04l1.04-1.49ZM32.45,22.82c.05-.23.26-.63.59-.4.16.11-.08.46-.26.78-.25.21-.39-.09-.32-.38ZM31.89,23.75c.22-.06.31.33.12.43-.09.05-.16.24-.32.2-.18.39-.53.68-1.04.78.47-.45.67-1.13,1.23-1.41ZM29.67,8.81l1.58-1.08c.03.28-.1.44-.16.6-.46.15-.9.48-1.31.85-.13-.06-.27-.26-.1-.37ZM29.65,24.22c.19-.22.58.2.55.26-.06.15-.22.1-.3.12-.23.05-.42-.18-.25-.38ZM29.82,30.61c-.26,0-.5.08-.72.41-.24-.2-.18-.55-.03-.8.08-.13.29-.21.5-.21-.09.29.04.41.25.61ZM28.73,24.26c.17-.19.39-.12.46,0,.08.13-.03.34-.29.35-.12,0-.46-.02-.17-.35ZM28.25,17.92c.11-.04.22-.01.29.05l-1.48,1.67-.2-.2,1.39-1.53ZM26.18,18.78c.06-.12.19-.2.46-.14-.04.32-.18.55-.54.71-.08-.24-.01-.39.08-.57ZM26.47,20.77c-.17.12-.14.53-.29.68-.11.11-.33.26-.64,0,.99-1.1,1.43-1.47.93-.69ZM26.01,22.13c-.07.44-.25,1.02-.94,1.24.02-.6.5-.86.94-1.24ZM25.04,20.43c-.22.32-.36.55-.84.77,0-.4.34-.81.84-.77ZM23.99,22.61l.73-.73c.07.08.13.13.12.12-.11.42-.49.64-.76.92-.11-.06-.15-.18-.1-.31ZM22.18,23c.29,0,.2.12.22.2.04.25-.26.32-.36.25-.14-.1-.09-.44.14-.45ZM21.16,35.65l.47-.3c.61-.39,1.04-1.09,1.74-1.16.11-.23-.27-.19-.38-.17l-.24-.07c-.15.02-.29.15-.39.24l-.93.84-.12-.13c.17-.5.67-.65.99-.98.26-.27.53-.58,1.1-.59l-.24.41c.28-.18.49-.13.8-.07-.11-.37.27-.37.26-.13.12.02.2-.07.19-.2-.02-.24.19-.23.31-.27.44-.12.15.61.7.49.11-.02.41-.11.54-.07.2.06-.51,1.65-2.03,2.11-.6.32-.13,1.5-.03,1.98-.1.24-.51.17-.65-.07l-.41-.69c-.32.47-.87.95-1.59.81-.56-.11-.03-2.02-.09-1.99ZM20.13,32.68c.06-.59.67-.46.5,0-.19.41-.65.23-.5,0ZM20.35,34.83c.08-.03.21.18.1.28-.06.05-.16.12-.2.21-.08.16-.21.07-.22-.02-.02-.22.09-.38.33-.47ZM19.87,36.5c.15-.13.32-.06.37.05.1.21-.28.51-.32.5-.13-.04-.17-.45-.05-.55ZM19.3,23.86c.11-.07.27-.02.26.04-.02.17-.09.33-.14.4-.07.1-.38.22-.32-.1.02-.1-.03-.29.21-.35ZM18.39,32.73c0,.11-.09.2-.2.2s-.21-.09-.21-.2.09-.21.21-.21.2.09.2.21ZM17.75,28.46c-.16-.5.55-.44.4-.04l-.78.78c-.12-.37.07-.55.38-.73ZM14.3,32.71c-.08.05-.36.04-.33-.28.15-.28.39-.13.43-.03.05.12,0,.25-.1.32ZM14.5,27.25c-.07.3.09.56,0,.68-.1.13-.47.3-.75.14.12-.43.37-.84.75-1.15.33-.1.37.3,0,.33ZM14.93,33.51c-.15-.06-.16-.44-.06-.55.14-.14.33-.06.37.05.09.23-.29.51-.31.5ZM16.55,30.75c.26-.07.24.06.26.16.03.18-.14.33-.23.32-.15-.02-.48-.35-.03-.47ZM14.91,31.02c-.07-.31-.13-.84.41-1.12.23.37-.02.8-.41,1.12ZM13.79,26.25l.98-2.11c0-.14.02-.32.16-.4.12-.07.27.02.31.1.03.07.06.29,0,.36-.56.61-.98,1.58-1.18,2.46-.09.38-.27.82-.67,1.07,0-.62.21-1.06.41-1.48ZM13.18,30.81c-.06-.16.16-.58.28-.68.08-.06.31.22.3.35,0,.11-.06.17-.27.39.34.17.37.55.19.77-.12.14-.25.48-.64.33.49-.52.29-.78.13-1.17ZM12.58,28.17c.14-.14.32-.06.37.05.1.22-.28.51-.31.5-.15-.05-.17-.45-.06-.55ZM12.16,30.46c.14-.14.32-.06.37.05.09.23-.29.51-.31.5-.16-.06-.17-.44-.06-.55ZM12.29,32.05c0,.11-.09.21-.21.21s-.2-.09-.2-.21.09-.21.2-.21.21.09.21.21ZM11.81,29.83c.08-.03.21.18.1.28-.06.05-.16.12-.2.21-.08.16-.21.07-.22-.02-.02-.22.09-.38.33-.47ZM10.82,42c.11.36-.16,1.07-.57,1-.29,0-.4-.16-.3-.32.38-.66.68-1.24,1.32-1.63-.03.44-.3.65-.44.95ZM9.82,33.22c.59-.4.47-1.48,1.26-2.02-.06.88-.5,1.47-.72,2.17-.31-.13-.36.14-.44.15-.08,0-.16-.25-.1-.29ZM9.44,40.84l.16-.33c.35-.74.75.25-.77,2.27-.18-.81.32-1.32.61-1.94ZM6.18,49.76c-.06-.5.31-1.09.84-1.22.11.59-.2,1.07-.84,1.22ZM6.56,47.89c.26-.68.74-1.27,1.56-1.42-.28.69-.76,1.05-1.56,1.42ZM8.19,43.57c.11,0,.2.09.2.21s-.09.2-.2.2-.21-.09-.21-.2.09-.21.21-.21ZM7.22,45.09l-1.59,4.08c-.05-.01-.19.06-.32.12l1.82-5.2c.19.31.18.77.09,1ZM4.25,48.58c.37-1.44.96-2.76,1.58-4.29-.06.03-.13.04-.2.01-.14-.06-.2-.23-.11-.36s.26-.15.42.08c-.04.09-.07.18-.11.27.06-.03.11-.09.13-.18l1-1.21c-.28,1.68-1.24,2.94-1.81,4.48-.51,1.39-.5,2.99-1.5,4.33l.59-3.13Z"/>
      <path class="cls-1" d="M63.98,37.06l-1.43-.62c.46-.83,1.14-1.08,2-1.71-.67-.08-1.02-.47-1.41-.87-1.41.45-2.77,1.5-3.22,3.11,1.47.16,2.83.51,4.12.92-.35-.25-.13-.44-.06-.83Z"/>
      <path class="cls-1" d="M65.93,31.25c-.19-.1-.42.17-.55.36l-.31.45c-.19.27.03.53.34.57.35.04,1.37-.91.91-1.16l-.39-.21Z"/>
      <path class="cls-1" d="M62.06,31.55l-.39.74c-.2.37-.07.62.12.84.12.15.66.12.66-.04-.01-.53.46-1.12.42-1.56-.04-.36-.67-.23-.8.03Z"/>
      <path class="cls-1" d="M68.44,10.02h-1.27c.21.31.94.3,1.27,0Z"/>
      <path class="cls-1" d="M38.14,92.03c-.06.2,0,.32.15.47.18.2.42.28.69.08.26-.19.28-.44,0-.65-.23-.17-.75-.2-.84.09Z"/>
      <path class="cls-1" d="M54.93,34.82c-.85.48-1.06,2.14-.36,2.37.66.22,1.09-1.74,2.08-2.08-.4-.67-1.1-.64-1.72-.29Z"/>
      <path class="cls-1" d="M59.52,32.09c.38.15.58.11.87.13.54-.55.74-1.29,1.14-1.95.46-.75,1.65,1.36,2.38.97.97-.52,1.39-1.52,2.21-2.29l-2.52.9c.18-.74.76-1.3,1.42-1.64-.33-.19-.63-.07-.83.06,0,.22,0,.33-.1.47-.08.11-.26.34-.39-.04-.23.28-.37.52-.49.68-.17.24-.79.25-.84-.1.07-.36.78-.57,1.12-1.01-.66-.13-1.26.29-1.73.43l-.52-.07c-.09-.01-.27.39.18.34-.07,1.2-1.92,1.03-1.9,3.12Z"/>
      <path class="cls-1" d="M66.58,38.39c-.1-.03-.3.17-.35.32.48-.02.68.11.97.25.25.13.21.6.27.9.45.19,1.08-.31,1.52.21.05.83.69,1.28,1.34,1.01-.86-1.21-1.37-2.28-1.76-3.61-.21-.74-2.06.11-3.49-1.34-.51.16-.82.19-1.23.56.55.41,1.18.4,1.67.19.9.42,1.8.83,1.73,1.68-.32.07-.57-.14-.67-.17Z"/>
      <path class="cls-1" d="M66.65,33.92c.59-.02.98-.5,1.41-.61-.02-.73-.93-.18-1.11-.72-.28-.02-.49.33-.61.5-.15.21,0,.84.31.83Z"/>
      <path class="cls-1" d="M7.26,83.49c.8-.22.85-.53,1.32-1.03l2.37-2.53c-.95-.63-1.81,1.49-4.46,1.04-.75.57-1.55.8-2.43.73-.71.35-.5-1.34-1.69-2.08l.75-2.89c.08-1.78.54-3.5,1.06-5.09,0-.11,0-.27-.09-.37s-.24-.14-.37-.07c-.23.83-.51,1.84-1.08,2.76-.08-.86.08-1.93.51-2.77.13-.25.82-.69.49-1.01-.61-.39-1.32-.37-2.08-.53.79-.69.53-1.22.45-1.94-.15.07-.27.06-.37-.01l-.46,1.82c.42,1.58.62,3.11-.11,4.53-.88,1.7-.25,4.04-.19,6.21l.47-1.6c.2,1.11-.05,2.11-.35,3.17-.2.68-.05,1.4-.17,2.09-.14.76-.22,1.47.43,1.99.02-.58-.03-.9.16-1.22.3.58-.01,1.13-.13,1.42.08.36.29.81.5,1.54.16-.89-.1-1.78.36-2.6.14,1.34-.1,2.48.69,3.42l-.2,1.1c-.37.11-.37-.28-.27-.33.08-.04-.2-.19-.3-.1-.07.06-.11.22-.07.43.06.3-.19.41-.29.33-.09-.06-.22-.32-.51-.4-.46,1.19-.73,2.58-.64,3.96,1.47-.23,1.43-2.24,4.67-3.31.53-.18,1-.52,1.52-.74,1.39-.57,2.21-1.66,2.44-3.29.66.31.65.78,1.01,1.21.47-.78.6-1.44.62-2.31-.47.13-.73.25-1.16.14.35-.84.58-1.54.53-2.29-1.18-.17-1.01.61-1.47,1.35-.05.07-.28-.33-.36-.34-1.05-.09-2.09.67-3.04,1.19.05-1.08,1.21-1.38,1.98-1.58ZM1.58,84.35c-.16-.54-.22-1.06.23-1.49.25.52.1,1.05-.23,1.49ZM2.3,84.86c.08-.2.06-.31.36-.51.09.93-.53.96-.36.51ZM7.75,85.4l.24-.5c.09-.18.44-.18.36.12l-.6,2.27c-.05.2.06.44-.11.61-.1.1-.19.3-.52.17.47-.81.47-1.71.63-2.66ZM4.8,83.93c.06-.79.79-1.43,1.52-1.59,0,.88-.52,1.49-1.52,1.59Z"/>
      <path class="cls-1" d="M14.14,98.83c-.5.42-.53,1.07-.74,1.54l.91,3.71c-.07,1.07-.24,1.75.34,2.75l1.02,3.34c.62,2.03,1.49,3.87,2.02,5.84.13.01.24-.06.24-.13l.09-.31-2.1-9.21c-.57-2.51-.81-5.01-1.8-7.53Z"/>
      <path class="cls-1" d="M39.18,89.98c-.15-.28-.38-.32-.61-.13-.28.23.26.95.97,1.46.14-.56-.14-.92-.36-1.32Z"/>
      <path class="cls-1" d="M36.06,60.25c-.27.29-.37,1.34-.05,1.44.08-.36.12-.69-.1-1.03.65.19.71-.07,1.02-.21.3-.98-.18-2.35-1.25-2.83-.2.13-.54.16-.69,0-.09-.1-.14-.34-.2-.47-.27-.05-.67.11-.72.28-.05.17.12.55.26.72l1.72,2.09Z"/>
      <path class="cls-1" d="M20.77,48.46l.23-.23c-.26-.1-.32-.19-.35-.22l-.1.1s.12.08.22.35Z"/>
      <path class="cls-1" d="M67.23,29.55c-.09.11-1.43,1.07-2.08,1.08-.07,0-.18.14,0,.32,1.32-.21,2.57-.3,3.85-.23-.34-.32-.53-.6-.46-.8.04-.12.28-.18.44-.3l1.71-1.21c-1.42-.65-2.59.05-3.45,1.15ZM69.79,28.53c.26.03.18.31-.04.25-.47.07-.34-.42.04-.25Z"/>
      <path class="cls-1" d="M20.34,47.91l.1.1.1-.1-.1-.1s-.06.08-.1.1Z"/>
      <path class="cls-1" d="M72.55,37.64c.1-.3-.11-.65-.25-.98-.07.05-.36.03-.4-.08-.03-.1.04-.24-.2-.35.11.46-.29.52-.5.67-.54.4-.47,1.38.03,1.95.67-.16.9-.7,1.32-1.21Z"/>
      <path class="cls-1" d="M29.53,39.13c.21-.19.4-.36.49-.53l-.46.09-.17.17c-.1.1.08.32.14.27Z"/>
      <path class="cls-1" d="M37.13,79.21c-.58-.11-1.05-.2-1.63.11.57.44,1.29.34,1.63-.11Z"/>
      <path class="cls-1" d="M45.93,88.56c-.16,1.6-.12,3.16.04,4.76.84.48,1.68.76,2.62.56-.08-2.3-.51-5.68-1.61-5.86-.37-.06-1.01.06-1.06.54Z"/>
      <path class="cls-1" d="M46.63,84.52l-1.27.63c.41.43.54,1.43.92,1.69.69-.07,1.3-1.79,1.02-2.19-.16-.23-.32-.31-.68-.13Z"/>
      <path class="cls-1" d="M33.62,43.84c0,.07.09.16.26.34.27.28.79.29.83.06.04-.24-.07-.45-.14-.6-.11-.26-.5-.14-.65,0-.06.05-.31.07-.3.2Z"/>
      <path class="cls-1" d="M45.62,60.92c.02-.13-.48-.46-.5-.3-.03.3.17.35.21.4.05.06.26.07.29-.1Z"/>
      <path class="cls-1" d="M19.18,83.77c-.08-.76-.11-.95.51-1.32.72-.44,1.33.47,2.47,1.15.25.39.33.87,1.05.75l.08,2.1c.3.82.23,1.56.15,2.29.41-.12.64-.19.77-.32.18-.17.22-.4.26-.78.62.13.51.75.34,1.27-.13.41-.23.68-.61.76-.3.06-.67-.12-.95-.57l-.84,2.21-.03-2.61c-.01-.19-.35-.22-.41.02.26,2.64-.06,5.13-.55,7.67.1.15-.06.34-.33.27.3,2.69-1.78,3.81-.97,6.44.15-.14.49-.37.49-.61l.02-2.61.52,1.19c.02-.4-.02-1.26.28-1.19.77.16.83-.64,1.09-1.14,1.04-2.07,1.78-4.4.85-6.72l-1.53,6.39c-.41-.55-.24-1.27-.11-1.92l.26-1.27c.28-1.38.32-2.96,1.28-4.16.41-.24,1.13.52,1.38.92.07.11.42-.18.5-.11.08.07.03.41,0,.53l-1,3.87c.91.3,2.28-.14,2.6-.96,1.29-3.23-1.7-4.8.59-4.49l1.86-2.57-.75,2.9c-.34,1.3-.98,2.63-.77,4,.78.33,1.64-.34,2.26-.3.5.24,1.14,1.01,1.75.55.29-.22.63-.37.84-.78-.91.11-1.44.21-2.07.05.42-1.16.21-2.3.32-3.46.11-1.18-.21-2.19-1.38-2.84.59-.51,1.17-.14,1.63-.32.53-.27.5-1.21,1.35-1.27l-.6,4.84c-.09.69-.23,1.3.07,1.96.9-.33,2.14-.45,2.75-1.11.73-1.48.22-3.13-.55-4.72,1.33.17,2.77.3,3.67-.56l-1.24,2.78-.24,2.71c-.02.23.4.34.55.26.52-.26.61-.75,1.11-1.2-.5-.66,0-1.44-.1-1.97-.17-.84-.03-1.78.52-2.3.44-.16,1.07.06,1.51.22.15-.95.14-1.76.63-2.69,1.47,1.18.06,3.23.78,6.2.32.09.57-.1.87-.21.62-.26-.89-1.17.23-1.52-1.28-1.13,1.3-2.28.47-6.43-.47-2.36,1.7-4.82.24-5.22-.41-.11-.5.29-.72.71l-1.36,2.61c-.26-.41-.15-.59-.2-.77-.07-.23-.49-.32-.58,0-.09.34-.13.57-.07.72.08.21.48.26.81.03-.13.71-.68.26-.9.33-.67.19-1.53.02-2.08-.33l-.88-.12c-.19-.03-.2-.45.04-.8-1.75-.11-.27,2.15-1.71,3.47-.42-.48-.4-1.05-.56-1.62l-1.46.53c-1.86-.65.32,2.02-1.81,2.6l-.32-6.13c-.83-.53-1.67-.32-2.13.5-2.95.43-3.12-2.05-4.72-2.78.19.87.3,1.48.33,2.2-.82-1.24-1.39-2.9-1.01-4.14-1.87-3.19.28-3.84.13-5.67-.28-3.2.23-6.17.53-9.47-.82,1.77-.9,3.65-1.38,5.53l-.86,3.39c-.64.64-1.22,1.4-1.61,2.29l-4.83,4.73-1.7,1.23c-.57.41-.76,1.17-1.44,1.49-.53.25-.85.78-1.36,1.26l.95.18c.35-1.03,1.03-1.74,2.05-2.15.33,1.05-1.23,2.02-.94,3.85.75-2.23,2.61-4.12,5-4.35-.79,2.3-3.17,3.76-2.23,5.08,1.42-.77,2.19-1.93,3.38-2.96.06,1.53-.94,2.55-2,3.38l1.27.24c.35.07.35.58.31.74-.04.15-.24.34-.45.55-.18.18.06.59.02.73l.23.16.4-1.26ZM39.38,82.63c1.27.78.99,2.49-.18,3.39-.03-1.15-.07-2.24.18-3.39ZM35.49,84.16c.12-.15.47-.02.37.27-.18.52-.46.76-.83.97-.01-.5.18-.87.46-1.24ZM29.3,80.16c.68.95.78,2.53.39,2.5-.17-.02-.3-.12-.37-.41l-.11-.5c-.02-.1-.25-.2-.33-.12-.09.09,0,.49-.49.43.07-.68.49-1.3.9-1.9ZM27.82,82.48c.09-.07.17-.24.33-.21.06.01.2-.05.26-.05.23.08.39.37.28.48-.19.2-.44.25-.76.2-.27-.04-.22-.33-.1-.42ZM27.04,83.51c.17-.15.73.27.65.61-.06.29-.48.3-.6.14-.09-.12-.19-.45-.05-.75ZM27.18,85.72c.23.18-.21,1.01-.48.84-.36-.23.22-1.05.48-.84ZM24.19,86.41c.13,0,.23.1.23.23s-.1.23-.23.23-.23-.1-.23-.23.1-.23.23-.23ZM22.59,80c-.45.81-.39,1.58-.36,2.5-.99-2.02,0-3.22-.38-4.66,1.09.35.87,1.33.74,2.16ZM21.2,71.18l.95-1.94-.15,5.13-1,3.44c-.54-.71.12-1.45.02-1.97-.12-.62-.42-1.09.06-1.61-.27-.28-.3-.6-.76-.74.01.43.13.91-.27,1.18-.22-1.39.47-2.51,1.16-3.48Z"/>
      <path class="cls-1" d="M33.55,38.97l-.03-.41c-.79.27-1.33.87-1.7,1.56.38.21.61.18.97,0,.27.65-.12,1.07-.48,1.51.17.39.21,1.08.29,1.43.22.24,1.21-.04,1.33-.4.33-1.01-.29-2.13-.45-3.02.1-.24.08-.46.07-.67Z"/>
      <path class="cls-1" d="M32.02,51.67c.74-1.97,3.51-4.84,2.87-5-.35-.09-.68,1.09-2.41,1.16.05-1.54,1.27-1.93,2.58-1.85-.51-.43-1.36-1.04-2.13-.98-1.61.14-2.71,1.59-3.09,3.12.81,1.2.35,2.76-.96,3.62l.48-2.61c.1-.52-.44-1.11-1.1-1.12.39,1.15.12,1.99-.54,2.72.07.67.26,1.23.12,1.76-.58.42-.93.81-1.21,1.5l1.32,1.43.2-2.26c.02-.19.28-.33.37-.38.09-.05.3-.06.49.16.33.39.26.81.28,1.27l1.38-.93c1,.35,2,.67,3.13.73-.07-1.03-1.17-1.21-2.08-1.9-.19-.14-.12-.55.29-.46ZM28.54,52.25c-.11,0-.21-.09-.21-.21s.09-.21.21-.21.21.09.21.21-.09.21-.21.21ZM31.37,49.99c-.14-.17-.12-.32.05-.48.17-.16.26-.12.38-.16.23-.08.47.18.24.41l-.34.34c-.16.16-.26-.02-.33-.11Z"/>
      <path class="cls-1" d="M31.69,76.11c-.42.54-.49.94-.37,1.61.63.06,1.51.04,1.98-.51.4-.46.4-1.37.09-1.93-.3.52-.42.89-.67,1.09-.37.3-.71.19-1.03-.25Z"/>
      <path class="cls-1" d="M71.47,35.84c-.11-.01-.18.03-.21.1-.06.12-.05.22,0,.3.04.07.04.13.02.21l.43-.23c-.1-.05-.24-.27-.24-.38Z"/>
      <path class="cls-1" d="M60.76,107.47c.17-.35.14-.81.07-1.23-.69.01-1.25-.14-1.86-.4-1.06.47.51.15.92,1.06.13.29-.04.34-.36.7.6.16,1.01.5.94.88.15.12.19.3.36.39.16.09.44-.11.65-.47-.2-.27-.72-.48-.71-.92Z"/>
      <path class="cls-1" d="M53.69,86.72c-.36.4-.62.8-1.09,1.08-.14.17.21.59.45.53l.84-.23c.29-.08.85.13.91-.12l.16-.68c.16-.38-1-.9-1.28-.59Z"/>
      <path class="cls-1" d="M64.58,98.35l-.23,3.74c-.02.27.84.47.93.21.4-1.14.32-4.01-.7-3.95Z"/>
      <path class="cls-1" d="M71.31,69.99c-.5.89.15,2.07-.43,2.71l-1.91,2.08c-.22.24-.59.47-.84.53-.27.07-.64-.31-.76-.53-.52-.92,2.71-1.68,1.66-4.92-.76.62-.33,1.53-.53,2.11-.2.59-1.01.44-1.37.19-.35-.25-.82-.69-.6-1.31.1-.29.64-.32.98-.21-.03-.7-.14-1.23.29-1.68,1.02-1.05,3.03-.37,1.74-1.33.21-.35.64-.12.86.08.41-.15.19-.44.04-.55-.22-.18-.36-.33-.66-.29-.14-.62.72-.07,2.35-1.62l1.33-1.27c-.92-.54-1.79-.18-2.49.31-.87.6-2.03.41-2.96.85-1.2.57-2.32,1.22-3.65,1.25-.38.89-1.34,1.63-1.71,2.43l-1.14,2.45-.45.49c-.11.12-.4-.11-.61-.33-.44,1.33-1.15,1.86-1.1,3.17.02.53.54,1.35,1.32,1.35.75,0,1.17-.92,1.51-1.53.86.49,1.41.13,1.9-.37.69-.71,1.48-1.27,1.92-2.24.61.4.99.76,1.36,1.3-1.49,2.05-3.69,2.33-2.1,3.06,1.15.53,2.33.14,3.49-.11.71-.15,1.37-.13,1.79-.78.98-1.49,1.55-3.48.77-5.29ZM62.61,73.1c-.98.67-1.4,1.65-2.6,1.58l2.07-2.14c.19-.02.39-.01.54.14.13.12.11.34-.01.42ZM63.68,71.89c-.16.16-.49.13-.69-.01.09-.39.24-.86.71-1.08.11.23.09.39.22.47-.05.2-.06.45-.23.62ZM65.12,70.62c-.12.16-.42.23-.54,0,.05-.22.19-.47.33-.62.16-.17.48-.12.53.2l-.32.42ZM66.03,69.72c-.25-.23-.08-.55.2-.79,1.53-1.33,1.93-2.81,2.71-2.8.26,0,.77.04.44.49-.1-.04-.2.11-.15.13.75.41-1.31.94-2.8,2.76-.14.17-.28.21-.4.21Z"/>
      <path class="cls-1" d="M57.26,113.62l-.38,1.12c.57.09.78-.23,1.1-.57.18-.2.61-.26.78-.67.36-.82.97-1.37,1.6-1.78l-1.62-.94-1.49,2.83Z"/>
      <path class="cls-1" d="M73.11,109.7c-.41-.4-1.3-.09-1.88.26-.33.2-.23.72.02.94.46.41,1.63.66,1.9.29.27-.37.63-.54.54-.84-.08-.27-.3-.37-.58-.64Z"/>
      <path class="cls-1" d="M52.85,88.67l.02,5.26c0,.45.11.68.41.77,1.82.51.26-2.43.8-5.25.08-.42-.64-.89-1.23-.79Z"/>
      <path class="cls-1" d="M57.23,109.44c-.27-.52-.81.34-1.1.48-1.61.76-2.15,2.92-2.65,5.09-.18.77,2.28.23,2.04-3.26,1.15.02,2.2-1.38,1.71-2.31Z"/>
      <path class="cls-1" d="M61.49,113.44c.32.69,2.07-.24,2.81-1.3-1.09-.23-2.26.44-2.81,1.3Z"/>
      <path class="cls-1" d="M71.46,35.56v.28s.24-.02.24-.02c-.02-.12-.13-.18-.24-.26Z"/>
      <path class="cls-1" d="M75.85,48.13c.07-1.64-.6-2.89-2.07-3.58-.09-.41.52-.78.68-.96-.2-.51-.95-.69-1.25-.53-.36.19-.99.36-.89.87l.99,5.22c.24,1.27.39,2.23,1.14,3.03-.73,1.71-1.38,3.46-2.35,4.88l-2.02,2.96c-.41.6-1.05.79-1.73.87l-1.43.66c-3.49,1.61-6.12,3.1-10.56,2.34l-5.19-.9c-.92-.16-1.75-1.18-2.78-1.08-.68.06-1.33.34-2.2.1-.08.75-.49,1.44-.22,2.21.47-.58.61-1.24,1.43-1.27-.26.76-.8,1.33-.82,2.24l2.09-2s.21.07.3.16l-1.52,2.06c-.16.23.38.85.7.82.62-.07.86-1.51,1.37-1.27.32.15-.24.99.29,1.19.34.13,1.13-.19,1.21.18.12.52-.84,1.01-.58,1.46.33.58,1.22,0,1.43,1.03.67-.42.77-.96,1-1.59,1.49.37,2.9.26,3.92-.62-.46-.24-.83-.19-1.03-.35-.23-.18-.23-.6-.07-.9.42-.75,2.19.65,4.76-.36,1.51-.59,2.93-.69,4.43-1.02,1.32-.28,2.45-1.36,3.63-1.97,1.96-1,5.06-3.47,4.35-3.89l-.56-.33.96-.3c.6-.18-.32-1.87.99-2.06l1.47-3.09c.43-1.36.1-2.8.15-4.21ZM55.26,65.84l-2.99-.6c-.17-.79,1.99-.81,2.51-.55.25.12.64.43.48,1.15Z"/>
      <path class="cls-1" d="M100.74,51.8l.87-1.85c-.89.04-1.24.47-1.89.94.19.4.46.84,1.02.91Z"/>
      <path class="cls-1" d="M92.64,11.7l-.04.17.19.2.12-.12c-.14-.1-.19-.15-.27-.26Z"/>
      <path class="cls-1" d="M77.84,70.57c-.13-.48-.95-1-1.2-.4l-.52,1.28c-.1.25-.12.8.05.8l.71-.03c.09,0,.31.31.49.26.07-.02.1-.13.04-.19-.37-.33.7-.68.43-1.72Z"/>
      <path class="cls-1" d="M86.68,114.77l-2.98.7-3.1-.21c-.03,1.13.73,1.26,1.5,1.28,1.86.03,3.61.16,5.36-.12.43-.07,1.03-.2,1.24-.66-.71-.98-1.26-1.92-2.2-2.78-.14.69.11,1.16.17,1.79Z"/>
      <path class="cls-1" d="M92.18,87.57c-.03.16.17.35.24.3.13-.1.1-.23.08-.31-.03-.11-.29-.19-.32.01Z"/>
      <path class="cls-1" d="M52.41,86.37c.09-.15-.1-.41-.23-.45-.61-.17-1.41.66-1.5,1.49.8-.15,1.29-.31,1.73-1.05Z"/>
      <path class="cls-1" d="M48.29,98.66c.54-.45.84-3.31-.95-3.88-.46-.15-.88-.32-1.49-.26.08.56.34.98.56,1.29,0,.53.14,1.05-.23,1.64-.63,1.02-.04,2.79.84,3.57.26.23.63.22.8.27.2.06.66-.44.49-.63-.35-.38-.69-.6-.69-1.01,0-.46.31-.7.67-.99Z"/>
      <path class="cls-1" d="M48.99,85.33c-.55-.08-1.24.82-1.15,1.45.06.37.6.43.72.19l.36-.75c.09-.18.41-.83.07-.88Z"/>
      <path class="cls-1" d="M50.05,94.46c.45.23,1.88.27,1.85-.36l-.23-5.62c-.01-.33-1.02-.52-1.26-.31-1.38,1.2-.6,3.81-.36,6.29Z"/>
      <path class="cls-1" d="M45.28,115.93c.71.27,1.17-.04,1.58-.52l.26,1.51,1.21-1.49-1.59-1.11-1.46,1.61Z"/>
      <path class="cls-1" d="M45.87,112.82c-.45.13-.88-.11-1.42-.37-.82,1.06-.82,2.27-1.4,2.59-.99.54-.63-2.34,1.39-4.17.22-.64.39-1.18.1-1.9-.23-.17-.54-.68-1.26-.51.73,1.06.29,1.8-.36,2.55-.52.6-.81,1.76-1.71,1.99-.27.06-.66-.55-.55-1.07-.46.01-1.28.49-1.08,1.18.15.53.91.71,1.39.96-.51,1.02-2.05,2.04-2.45,1.88-.48-.2-.58-1.05-1.09-1.13-.22-.04-.59.31-.8.55-.38.43-1.18.1-1.56-.11-.47-.26-.4-1.06-.42-1.58-.84-.62-1.21-1.55-1.48-2.67-.11-.45-.65-.9-.07-1.47-.47-1.26-.72-2.58-.55-3.91.1-.37.46-.72.71-.62.84.36.41,2.92,1.94,4.53.49-.71.74-1.24,1.31-1.64.19.85-.45,1.18-.59,1.66-.19.62.44,1.04.73,1.29.36.31,1.05.16,1.49.1l.59,1.79,1.57-4.33c.77-2.12,1.43-4.18,2.8-5.99.9-1.2,1.01-2.78.06-4-.86-1.11-.55-2.86-1.23-4.31-.28-.6-1.82-.79-1.9-.03l-.49,4.6c1.14.47,2.5,2.4,2.48,2.67-.02.33-.44.76-.55,1.12-.65,2.14-.92,4.38-1.94,6.4-.29.57-.79.96-.76,1.74,0,.13-.5.06-.59-.09l-.28-.46-.99-2.6c.41.36,1.28.71,1.63.23.79-1.1.87-2.41,1.18-3.8-1.21.36-1.82,1.07-2.15,2.19-.04.15-.5.19-.5.06-.02-.35.51-1.02.76-2.99.13-1.04.6-2.01.95-2.99.09-.25.63-.72.24-1.01-2.27.36.37-2.78-.65-4.17-.6-.82-2.37-.66-3.12-.58.27.39.68.38.84.52.2.17.2.62.16.92l-.4,3.15c.22.29-.14.62-.41.31-.88.24-.94,1.07-1.54,1.79.21-1.16.59-2.23,1.05-3.28.79-1.8-.4-3.43-.81-3.35-1.48.28-1.8,3.15-1.8,5.34,0,.31-.12.63-.39.58-.71-1.7-.13-3.58-.9-4.04-.24-.14-.77-.25-.9-.07-.2.28-.16.71-.15,1.08-1.04-1.34-1.45,1.22-.74,3.78-1.66-.52-.44-2.85-1.07-4.42-1.17,2.19-1.53,4.35-1.91,6.64-.2,1.18,0,2.38-.43,3.52-.23.59.86,1.24.27,3.13l-1.31,4.23c.8-.49.86-1.32,1.15-2.11l.71-1.96c.25-.7.35-1.67,1.19-2.08l-1.02,2.42c-.22,1.41-.54,2.66-1.49,3.92.12.33-.07.39-.19.02-.28.33-.46.76-.72,1.26-.08-2.12,1.05-3.86.94-6.13,0-.16.2-.44,0-.61-.1-.09-.26-.3-.54-.16.1,1.82-.38,3.65-1.03,5.39-.26.7.02,1.35-.42,2.01-.61-3.42,2.35-5.61-.4-8.12-.68,1.17-.24,2.17.07,3.25l-.43,3.33.46,2.74c.15.88-.12,1.84-.43,2.65-.29-.64-.34-1.17-.71-1.56-.04.08-.04.22,0,.32-.89.85-.32,2.69-1.73,3.67-.57-.9-.04-1.81.3-2.7.08-.56-.65-.64-.54.14-.69-.76-.52-1.7.12-2.62-.17-.94-.17-1.76.21-2.74-.22-.51-.46-1.45-.12-1.77.4-.08.42-.55.32-.7-.08-.13-.2-.2-.52.03-.25-.64-.35-1.26-.86-1.91-.04.49-.19,1.12.11,1.48.57.68.41,1.78.32,2.58l-.66-2.48c-.5,1.18.31,2.09.32,3.04l.02,2.28.26,2.16c-.19.81-.31,1.7-.24,2.63.27,2.35.12,4.61.13,6.87h.26s.03-1.43.03-1.43c.21-.31.47-.19.42.17.36.38-.04.92.28,1.39.35-.25.36-.53.56-.52l.16-1.98c.36.08.26.39.35.5.15.2,1.33-.36,1.44.31.08.47-1.1,1.18-.79,2.34.9-1.27,2.59-.92,2.3-1.29l-.24-.3c.03-1.59.2-3,.65-4.42.13,1.48-.22,2.74.19,4.06l.7-3.92c0-.14.12-.21.18-.2l.06,3.63c0,.26.32.52.6.57l-.17-1.19-.1-4.38c-.24.12-.28.22-.36.47-.33-.31-.62-.23-.74-.05-.12.17.01.44-.37.72-.32-1.24-1.35-1.93-1-2.52.48-.79,1.3-.2,1.44-.83.04-.16-.02-.42-.38-.57l.48-.52c.53-1.07.9-2.16,1.69-2.96-.12.59.35.77.38.31.37-1.55.94-2.96,1.57-4.29.47-.02.7.45.86.65.05-.22.29-.28.49-.19.14-.38.24-.8.77-.83-.29,1.25-.62,2.35-1.46,3.3l-.58,1.16c1.92,1.91-.71,2.88-1.7,4.94-.16.33-.77.53-.72,1.22l.26,3.49c.03.43-.15,1.14.38,1.41.51.14,1.5-.39,1.68-.98.64-2.07-.78-3.59.77-4.5-.55-.05-.52-.81-.32-.76,1.03.27.98,1.42.87,2.37.79-.77-.23-2.07,1.21-2.82.08-.38-.05-1.08.43-1.41.2.48.54.78.91.56-.37-.5-.15-.84.17-1.04.31-.2.52.08.79.34l.38.37c.08.07.33-.15.55-.14-.26.63-.64,1.11-.61,1.89.53-.69.89-1.46,1.79-1.78-.28.81-.86,1.32-.57,2.26.52-.71.83-1.4,1.67-1.78-.27.57-.79,1.15-.5,1.84.25.42,1.32.39,1.83.51.18.23.35.87.71.94.43.08.53-.43.28-.54l-.81-.35c1.93-.77,2.12-2.01,3.41-3.08.12-.92.68-1.52,1.48-1.71.17-.97.98-1.37,1.43-2.02l2.28-3.32c-.66.23-.71.85-1.19.99ZM41.83,99.42c-.16.01-.47-.06-.19-.33.07-.07.23-.05.3-.06.23-.04.24.36.12.37l-.23.02ZM36.31,100.21c.95.53.71.98.54,1.95-.19,1.09.25,3.49-1.57,3.99-.18-.65.1-1.1.12-1.54-.22-.05-.4.08-.5.13-.18.08-.52-.12-.45-.41l.6-2.5-.71-.87c.74-.92,1.32-1.12,1.99-.74ZM20.04,124.34l-.38.66c-.12-.49-.12-.84.19-1.23.26.16.22.38.19.56ZM23.7,125.37c.14.41.07.83.07,1.26h-.42s.09-1.26.09-1.26h.26ZM24.37,116.89c-.06-.23.22-.31.25-.04.18.39-.32.51-.25.04ZM24.28,118.54c-.03-.31.14-.71.51-.89.03.31-.02.61-.51.89ZM29.4,108c.53.51-.17,1.01-.63,1.93-.53-.72.33-2.22.63-1.93ZM27.06,100.76c.16-.17.01-.51.04-.64.04-.26.58-.24.63-.01.17.87-.15,1.36-.8,1.74-.06-.44-.12-.8.14-1.09ZM27.56,105.24c-.25.57-.09,1.25-.66,1.88-.29-.81-.36-1.63-.26-2.38.14-.99.85-1.81,1.8-1.76-.2.92-.54,1.52-.87,2.26ZM28.18,111.66l-1.16,2.5c-.51,1.09-.83,2.37-2.11,2.97.49-2.09,1.69-3.89,2.91-5.46-.17-.26-.14-.45,0-.66.13-.17.29-.22.47-.04.26.26,0,.47-.11.7ZM29.65,111.07c-.04.1-.05.3-.23.47-.07.06-.23.21-.27-.1-.35-.22-.49-.59-.72-.91-.21.16-.44.05-.45-.03-.01-.08.03-.28.14-.38,1.16.38,2.04.77,1.53.96ZM27.62,125.36c-.37.17-.42-2.3.03-4.05.34,1.28.25,3.92-.03,4.05ZM28.42,123.92l-.06-2.19c.04-.08.11-.11.14-.11l.06,2.19c-.04.08-.11.11-.14.11ZM29.99,102.18l.34-.76c.08-.17.7-.25.84.04-.04.46-.81.79-1.18.72ZM30.56,103.74c-.12,0-.46-.02-.16-.35.17-.19.39-.12.46,0,.08.14-.03.34-.29.35ZM30.75,110.38c-.14.06-.56-.15-.52-.41l.35-2.13c.03-.18-.06-.49.36-.67.19.43.14.78.1,1.2-.02.23-.05.64-.15.74-.39.07-.11.4,0,.43-.09.15-.01.2.06.21.24.2.06.51-.2.63ZM31.11,115.08c-1,.28.33-1.23.93-2.85.44,1.07.13,2.56-.93,2.85ZM36.16,118.51c-.16.09-.39-.07-.28-.27.13-.23.27,0,.31.05.1.12.03.19-.03.23ZM37.44,120.42c-.19-.35.13-1.41.74-1.21.21.29-.22,1.08-.74,1.21ZM40.9,116.4c-.35.12-.84.05-.89-.15-.05-.19.15-.24.2-.3.18-.23.42-.2.65-.06.19.11.35.41.04.52Z"/>
      <path class="cls-1" d="M54.9,101.27c-.46.52-.56,1.07.1,1.5.25.26,1.06.45,1.31-.04l.58-1.18c-.96-2.85.74-4.76-1.93-5.37l-.06,5.09Z"/>
      <path class="cls-1" d="M56.01,87.49c-.63.85-.57,1.77-.49,2.69l.41,4.71c.38.59,1.1,1.14,1.73,1.45.55-.59.9-1.59.46-1.94-.8-.64-.33-1.43-.63-2.15l-1.01-2.47,1.97-.4c-.82-.8-1.54-1.47-2.45-1.89Z"/>
      <path class="cls-1" d="M57.78,102.11c-.05.94.38,2.45,1.44,2.77,1.02.3,2.7-.35,3.41-1l-.15-3.63-.84-1.25c-.23-.77-.67-1.2-1.34-1.37-.45-.11-1.47.21-1.63.74l.16,3.22c.03.52.61.72.87.61.83-.35-.18-2.26.75-4.01.69,1.52-.15,3.16.62,4.46-1.03-.85-1.46.3-3.27-.54Z"/>
      <path class="cls-1" d="M51.59,113.03c-1.08,2.13-2.05,2.2-1.16,2.89.32.24.74.09.83-.32l.44-2.04c.02-.09-.03-.27.04-.35.05-.06-.07-.22-.15-.17Z"/>
      <path class="cls-1" d="M53.71,96.66c0-.6-.32-1.1-.99-1.05.41,1.83.29,3.57,0,5.4l-.81-.04.02-3.29c0-.61-.05-1.16-.45-1.57-.34-.35-.84-.58-1.52-.5.41,2.64-.88,4.61.2,5.04l1.02,1.08c.34.36,1.12,1.11,1.64.87.63-.43.88-1.47.88-2.19v-3.75Z"/>
      <path class="cls-1" d="M62.05,96.68c.36.66,1.57,1.19,2.03.44l.13-1.52-3.73-5.29c-.5.09-.76.19-1.17.55.25.22.55.49.66.83.55,1.74,1.19,3.36,2.07,4.99Z"/>
    </g>
  </g>
</svg>