<?xml version="1.0" encoding="UTF-8"?>
<svg id="Layer_2" data-name="Layer 2" xmlns="http://www.w3.org/2000/svg" viewBox="0 0 114.25 127.39">
  <defs>
    <style>
      .cls-1 {
        fill: #fff;
      }
    </style>
  </defs>
  <g id="Layer_1-2" data-name="Layer 1">
    <g>
      <path class="cls-1" d="M37.69,94.13c.17-.07.33-.29.36-.55.23-.13.25-.38.03-.49l-.18-.21c-.23-.27-.29.45-.52.58-.19.11-.2.18-.21.37-.01.31.25.41.53.3Z"/>
      <path class="cls-1" d="M40.26,79.57c-.12,0-.38.21-.34.31.04.1.14.3.33.49.08-.31.08-.47,0-.8Z"/>
      <path class="cls-1" d="M34.68,73.1c.96-.07,1.22-.76,1.24-1.47-.66.24-1.06.8-1.24,1.47Z"/>
      <path class="cls-1" d="M35.69,70c-.14.28.06.68.37.72.12.02,1.57-.64,2.04-1.42-.67-.16-1.16-.4-1.71-.75l-.7,1.45Z"/>
      <path class="cls-1" d="M36.73,71.54c.05.19.16.47.45.53.17.03.37-.06.47-.16.07-.07.33.02.41-.24.14-.49.33-.9.86-1.22-.7-.58-2.3.64-2.19,1.09Z"/>
      <path class="cls-1" d="M36.8,92.11c.15-.58.43-1.13.53-1.67.11-.61.49-1,.34-1.62-.68.61-.92,1.33-1.15,1.97-.46,1.26-1.18,2.53-1.07,4.1,1.04-.66,1.1-1.79,1.36-2.78Z"/>
      <path class="cls-1" d="M27.1,101.81c.07.11,0,.28.19.46.16-.2.12-.45.16-.68-.09,0-.28.09-.35.22Z"/>
      <path class="cls-1" d="M41.12,77.67l-.76,1.49c1.7-1.16,1.12-2.21.76-1.49Z"/>
      <path class="cls-1" d="M27.3,104.14c.25.12.2-.18.56-.52-.02-.25.46-.55-.16-.87-.1.52-.21.95-.53,1.17-.02.13.06.19.13.22Z"/>
      <path class="cls-1" d="M30.13,68.41c.06.26.63.89.94.65.63-.47.83-1.02,1.6-1.18.29-.06.13-.6-.16-.81-.59-.42-1.04.68-2.37,1.33Z"/>
      <path class="cls-1" d="M4.95,93.26c.17-.92.18-1.85-.4-2.55-.24.93-.12,1.74.4,2.55Z"/>
      <path class="cls-1" d="M41.93,96l.4-2.62c-.47-.04-.8.17-1.19.38l-.23,5.05c.75-.83.87-1.78,1.03-2.81Z"/>
      <path class="cls-1" d="M46.64,62.29c.08-.02.22.06.32-.12.09-.16-.03-.29-.12-.31-.11-.03-.4-.03-.47.05-.16.22.09.42.26.38Z"/>
      <path class="cls-1" d="M36.66.48c.09-.17.15-.18.28-.23l.02-.23c-.29-.06-.54.15-.58.32-.03.11.25.22.28.15Z"/>
      <path class="cls-1" d="M5.19,94.34c0,.12.38.5.53.43.7-.34,1.05-1.04.95-1.82-.69.29-.93.67-1.52.66l.05.73Z"/>
      <path class="cls-1" d="M99.03,43.36c.11-1-.58-1.64-.75-2.4l-.5-2.24c-1.05-.29-1.87-.82-2.41-1.89-.66.24-1.26.51-1.93.35-.18-.09-.61-.43-.51-.68.18-.45.63-.52.87-.67l1.06-.67c-.35-.49-1-.56-1.46-.6-.21-.69-2.39.39-2.98,1.64l2.12,1.12,1.26.82c.79.51,1.35,1.22,2.34,1.42-.49-.82-1.24-1.29-1.34-2.45.83.49,1.53,1.23,1.93,2.08.07.14-.48.39-.43.52l.32.75c.1.23.08.62.21.76.38.42,1.05-.22,1.23.21-.22.7.21,1.5.96,1.92Z"/>
      <path class="cls-1" d="M27.91,96.75c-.09-.75-.02-1.42-.61-2.14-.38,1.12.17,2.06.58,3,.43.99-.1,1.95-.09,3.08.97-1.22,1.02-2.68,1.42-4.23-.46-.11-.73.03-1.31.29Z"/>
      <path class="cls-1" d="M48.98,82.55c-.24-.53-.22-1.09-.8-1.48-1.78,2.87-3.45,7.38-.32,7.44,1.77-1.56,2.02-3.99,1.12-5.96Z"/>
      <path class="cls-1" d="M46.49,91.91c.4-.79.49-1.47.58-1.95-.39-.53-.97-.45-1.41-.13-.27.19-.68.42-.77.96.78.12,1.26.48,1.6,1.12Z"/>
      <path class="cls-1" d="M43.39,97.61c1.37-2.43,3.25-4.83,1.45-6.8-1.39,1.21-1.7,4.65-1.45,6.8Z"/>
      <path class="cls-1" d="M55.69,59.15c0,.13.1.23.23.23s.23-.1.23-.23-.1-.23-.23-.23-.23.1-.23.23Z"/>
      <path class="cls-1" d="M51.04,93.97l.28-4.41c.05-.78.1-1.47-.68-2.1l-2.42,2.88c-.67,1.45-.31,3.21-.37,4.66l3.2-1.03Z"/>
      <path class="cls-1" d="M11.16,73.21c.48.31-.08,1.2.51,1.78.27.26.68.25,1.08.1l3-1.13c1.28-.48,2.66-.9,3.99-.51,1.15.34,2.3-.04,3.49-.1,2.5-.11,4.22-.26,5.46-2.59.31.2.43.5.62.92.5-.32.75-.73,1.06-1.12.22-.28.48-.64.17-1.09-.43.03-.62.25-.9.36-.6-.62.56-1.49.16-2.15-.14-.22-.43-.51-.81-.38-.58.21-.47.82-.91.95-.11.03-.3-.14-.48-.16-1.37-.15-2.6.43-4.03.41,1.01-1.05,2.74-.57,3.82-1.27,1-.65,1.66-1.65,2.88-2.13l1.3-.75c.48-.27.9-.36,1.58.16.35-1.24,1.18-1.78,2.52-1.41-.39,1.02-1.49,1.68-1.64,3.02,1.33-.92,2.46-2,4-2.21h2.87c-.83,2.21-4.14,2.57-4.17,4.25,2.38.08,4.18-1.09,6.39-2.08-.73,1.68-2.43,2.34-4.13,2.65l1.11.86-.65,1.37c.9-.28.88-1.6,1.19-1.8.38-.25.42.54.81.8.38.26.59-.22.79-.29.59-.17,1.25.54,1.63.82.46.35.95-.12,1.27-.2.52-.13.84.47,1.1.88.38-.03.75-.29,1.15-.05-.26.18-1.22.64-1.13,1.08,1.17,2.76-1.27,4.37-1.49,4.31-.15-.04-.3-.2-.39-.6l-2.22,1.89c-.64.54-1.11,1.74-1.54,2.66l-.87,3.91-.31.8c-1.41-.56.38-3.65-1.4-3.75-.21.58-.32,1.33-.32,1.95,0,.12.59,2.24.66,2.3.09.08.27.12.42.1,1.11-.16.83,2.22.43,4.38-.14.76-.49,1.51-.07,2.34.79-2.26,1.24-6.32,3.09-7.02-.75,2.34-1.47,4.39-1.71,6.6l2.06-.92c.08-1.96.41-3.79.69-5.72.11-.74.05-1.53.95-1.75.37,2.26-1.29,3.99-.85,6.07,2.42-.37,1.38-2.17,1.92-5.02.13-.67-.3-1.17-.98-1.34.34-.79,1.01-.53,1.47-.67.95-.29,1.18-2.16,2.51-2.43.92-.19,1.6,1.12,2.08,1.13.25,0,.41-.34.88-.46l-.98,3.79c-.08.3-.14.77-.01,1.07.41.96,2.27.64,3.7.06.46-1.81.26-3.3-.99-4.71.56-.47,1.25,0,1.61-.11l2-1.8c-.87,2.6-2.75,6.95-.9,6.91l1.97-.04c.45.18.91,1.08,1.58.87l1.67-.53c-.86-.09-1.59-.27-2.55-.57.38-.28.51-.66.49-1.18l-.11-3.89c-.5-.55-1.16-.99-1.48-1.66.6-.28,1.28.09,1.73,0,.5-.32.59-.95,1.46-.95-.35,2.4-.55,4.77-.34,7.24.99.17,2.47.36,3.28-.34.76-1.85-.13-3.88-1.18-5.6.95.23,1.55.55,2.44.49l1.06.15-.76,1.97c-.36.94-.21,2.4.14,3.39.37.4,1.29-.38,1.27-.79l-.11-2.5c-.03-.64-.23-1.02.05-1.7.11-.26.37-.38.67-.32.22.04.5.28.75.54.45-.8.2-2.24.74-1.86.89.64.63,2.57.56,4.16l.52,2.75c0-.28.17-.69.22-.9-.08-.53.31-1.34.57-1.79-.12-.34-.69-.97-.35-1.53,1-1.66.56-3.25.04-4.91-.45-1.41,1.01-4.19.32-4.44-.68-.25-.88,1.07-2.08,2,.04.14.13.49.1.58-.02.08-.09.14-.23.14-.27-.33-.27-.84-.79-1.05-.06.29.18.52.11.64-.12.2-.36.32-.52.22-.84-.25-1.58-.6-1.77-1.57l-1.35.71c.09.85.25,1.62-.17,2.45-.65-.69-.51-1.43-.78-2.15-.84-.13-1.59-.06-2.41.13-.72,4-1.42,1.03-1.21-3.78-.73-.25-1.26-.57-1.51-1.19l-2.27.9c-2.87.02-3.45-3.72-5.34-3.24-.52-1.36-.9-2.59.06-3.53-.55-.95-.79-2.21-.06-3.09.27-.32,1.28-.44,1.38-1.09.43-2.74,1.4-5.21,2.38-7.78.22-.56.21-1.11.86-1.52-.71-.15-.77.35-1.25.61-.16-1.02,1.27-2.84,1.48-2.89.23-.05.21.22.23.38.34.36.89.23,1.3,0,.36-1.09.84-2.24,1.82-3.03.8.44,1.26,1.06,1.89,1.62l.31-2.89c1.01.52,1.04,1.44.93,2.43.53,0,.9-.42,1.27-.31l1.5.43c0-.85-.49-1.15-.81-1.44l-1.33-1.19c-1.03-1.65.53-3.94.64-5.8-.62.74-1.31,1.42-2.15.98-.4-.2-.19-1.58.24-1.63l2.06-.24c-.72-.72-2.05-1.26-2.93-.92-1.42.53-2.5,1.64-3.05,3,.35.32.94.61,1.05,1.03.36,1.38-.64,2.28-1.14,3.43-.22.5.2,1.43-.81,1.58l.65-5.47c-.52-.23-.88-.21-1.41-.11l-.2-2.19c-1.06.81-.17,2.89-1.97,3.21,0-.43-.12-.75-.33-.94-.2-.19-.51-.21-.79.13l-.13-1.31-2.19,1.98,1.84,2.78c-1.2,1.56-2.19,3.88-2.13,5.49-.53-.21-.83.09-.93.42-.52,1.65-1.48,2.95-2.43,4.35l-.39,1.55-1.39,1.44.18.2c.79-.67,1.91-1.19,2.65-2.03l1.96-2.23,2.45-4.32c-.37-.8-.1-1.48.52-1.89l.52-1.45c-.34.03-.75.15-1.03.06-.18-1.5.91-2.45,2.12-2.92.52.54,1.08,1.07,1.12,1.78.04.82-.59,1.52-1.08,2.16-.08.21.09.46.53.29-.07.88-.57,1.66-1.42,2.08-3.23,5.01-4.93,7.65-10.32,10.3l-6.12,3.01-2.07.91c-1.22.54-2.75,1.21-4.14,1.33-.72.06-1.08-.21-1.87.11-.93.37-2.46.15-3.52.02-1.55-.19-2.89-.09-4.42-.2-1.11-.07-1.25-2.34-2.92-2.52.35-2.05.65-3.92,1.19-5.73-.07.14-.51.61-.61.42-.17,0-.35-.03-.28-.31l.83-3.52c-.6-.4-1.1-.26-1.74-.32-.15-.01-.05-.47.18-.45.09,0,.32-.06.43-.14.07-.69.29-1.44-.02-2.29-1.23,2.3-3.03,3.1-1.39,3.93,0,1.63-.93,2.78-1.71,4.15-.88-1.17-.37-2.17.05-3.58-2.33,1.73-1.68,5.89-2.04,8.24l.34-.05c.09-.51-.01-1.19.76-1.48-.1,1.67-.47,3.21-1.09,4.69-.16-.41-.1-.78-.05-1.06h-.29s-.4,1.86-.4,1.86c-.31,1.46-3.21,2.08-4.73,3.96-1.08,1.33-2.02,2.44-3.37,3.57l-1.48,1.23c-.94.78-2.44,2.62-1.83,3.48,1.44-1.47,4.7-3.64,6.29-3.81.57-.06,1.09.14,1.83-.1l2.18-.72c.26-.09.56-.1.72,0ZM27.38,69.24c.16-.11.3,0,.34.1.1.21.11.48-.13.71l-.82.77c.08-.71.17-1.27.6-1.58ZM26.14,71.65v.22s-.21.4-.21.4c-.08.3-.61.26-.59.07.04-.48.53-.74.81-.69ZM41.64,83.59c-.21.54-.34,1.08-.85,1.37-.05-.57.24-1.01.31-1.45.08-.47.13-.95.61-1.28.1.56.08.94-.08,1.36ZM67.71,76.41c.54.47.45,1.64.11,2.35-.13.1-.28.43-.59.3-.04-.96.02-2.02-.28-3.04.44-.09.59.34.76.39ZM63.47,76.78c.08-.21.18-.38.5-.36.03.47-.1.75-.45,1.03-.21-.17-.15-.43-.05-.67ZM56.86,70.98c.3,0,.53.1.55.45l.13,1.72c.02.25-.58.11-.78.04.19-.54.19-1.05-.01-1.5l-.19-.41c-.09-.2.16-.3.3-.3ZM55.19,72.26c.15-.24.18-.61.53-.62h.21c.23,0,.27.29.28.5l-.18.57c-.06.18-.4.23-.61.25-.42-.06-.41-.42-.23-.7ZM54.39,73.27c.26.04.6.24.62.35-.05.42-.33.31-.47.12-.11-.15-.34-.25-.15-.48ZM53.52,73.95c.2.02.62.17.66.5.05.39-.49.43-.55.22-.05-.17-.17-.4-.11-.72ZM53.27,76.27l.27-.25c.11-.1.47-.02.5.1.11.43-.31.9-.72.95-.24.03-.35-.09-.33-.33.02-.19.07-.29.28-.48ZM60.08,40.41c.16-.02.2.14.29.21.26.21.14.45-.18.45-.16,0-.56.01-.52-.29.02-.15.26-.35.41-.36ZM47.64,53.25l-.43.41c-.14.13-.48.06-.61-.23.27-.38.82-.62,1-1.23.14-.36.6-.02.19.22l.25.4c.07.11-.25.29-.4.43ZM48.78,51.24c-.17.18-.36.26-.44.29-.08.03-.27-.04-.3-.16-.02-.07.4-.65.7-.58.1.02.23.26.05.45ZM51.86,40.62c-.14.07-.28-.02-.31-.11-.04-.14.05-.41.32-.46.14-.03.18.49-.01.58ZM46.35,69.48c-.28-.64.15-1.18.44-1.73l-.89.13c.6-.68.97-1.24,1.29-2.14.58.23.66.77.59,1.3-.34.85-.57,1.6-1.42,2.43ZM46.8,79.52c-.44.66-.56,1.46-1.42,1.75.73-2.2,1.33-4.15,1.42-6.44,1.66-.01,1.36,2.61,0,4.69ZM48.01,73.43c-.13.15-.48.15-.56,0,.12-.32.49-.4.72-.53.14.32-.07.41-.16.52ZM50.33,77c.39.24.44.77.39,1.16-.05.32-.39.85-.77.87-.42.02-.84-.2-1.24-.58.86-.17,1.27-.64,1.62-1.45ZM45.08,59.96l2.37-2.78c.2.94-.72,1.26-.37,2.15,1.47-2.33,2.63-5.22,4.75-7.48-.11,1.5-.88,2.87-2,3.91-2.51,2.32-.67,4.89-3.53,8.79l-.22.54c-.08.19-.63.25-.62-.1.01-.67.63-1.12,1.05-1.64-.37-.26-.6-.24-1.11-.31.27-.77.37-1.28.15-1.89l-.67-.24c-.14-.05,0-.71.2-.94ZM44.52,60.16c.03.73-.19,1.29-.54,2.12-.12-.68-.28-1.6.54-2.12ZM23.54,65.16c.34-.06.61.04.56.44.08-.03.17-.03.26,0,.05.03.1.12.06.2.12,0,.26-.04.45.06-.32.64-.87,1.39-1.59,1.44-.17-.3.18-.68.38-.84l-.32-.07c-.06,0-.12-.08-.09-.18-.12.03-.38.04-.52.01-.09-.01.36-1,.82-1.07ZM17.99,66.35c.08-.05.21-.05.37-.05.07.01.29-.22.4-.25.1-.03.14.3.11.4-.03.16-.21.33-.48.06,0,.3-.37.32-.47.22-.07-.07,0-.32.08-.38ZM17.37,67.08c-.79.99-.86,2.24-.74,3.4.33-.09.51.12.51.22,0,.11-.65.81-.93.87-.79.17-.56-2.06.07-3.73.17-.46.6-.77,1.09-.76ZM15.4,60.52c-.13,1.2-.42,2.28-1.3,3.27-.16-1.27.5-2.24,1.3-3.27ZM10.66,68.56c.17-1.14,1.73-1.7,2.69-1.33-.01.23-.01.46.02.56.03.11.22.14.31.04l.3-.36c.49,1.17-.68,2.56.38,2.4.1-.93.44-1.67.85-2.47.52-1,.26-2.26,1.16-3.14-.47,1.69-.66,3.06-.95,4.6l-.44,2.4c-.05.25-.25.53-.39.61-.26.14-.43-.27-.6-.35-.61-.3-1.06.37-1.52,1.01.13-1.23-.19-2.13-1.43-2.79-.17.5-.29.91-.73,1.38l.37-2.54ZM7.28,73.14c-.15,0-.71-1.45-.72-1.59-.04-.55,1.22-1.75,1.74-1.68.52.07.94-.1,1.36-.5-.53,1.53-1.53,3.82-2.38,3.77ZM10.12,71.72c.04-.34.45-.63,1.12-.65.04.43-.74.87-1.12.65Z"/>
      <path class="cls-1" d="M88.84,29.85c.6-.28.69-1.3.22-1.5l-1.82,1.6c.68.15,1.16.04,1.6-.11Z"/>
      <path class="cls-1" d="M76.02,90.21c.24.07.64,0,.62-.36l-.3-5.29c-.03-.47-.01-1-.32-1.18-.22-.13-.81-.4-.99-.16-.25,2.22.12,4.34.48,6.54.06.35.32.4.51.45Z"/>
      <path class="cls-1" d="M72.56,89.89c.2.88.7,1.59.51,2.36-.84,3.43.61,5.16,1.2,4.72.58-.44-1.11-1.17-.22-2.41.4-.55.43-1.11.54-1.74.26-1.43-.51-2.71-2.03-2.93Z"/>
      <path class="cls-1" d="M76.9,81.5c-.21-.38-.85-.38-.88-.28l-.14.56c-.04.16-.24.34-.1.5.3.34,1.32-.39,1.11-.78Z"/>
      <path class="cls-1" d="M62.16,107.07c.18.35.43.6.76.61-.1-.48-.39-.66-.76-.61Z"/>
      <path class="cls-1" d="M72.83,109.53c-.51.02-.67.07-.84.46-.11.24-.16.49.04.63.1.06.28.08.42-.02.08-.06.12-.15.23-.49.23.52.3,1.09.13,1.71.4-.11.88-.65,1.01-1.03l-1.14-2.1c-.3.34-.11.59.14.85Z"/>
      <path class="cls-1" d="M79.6,101.19c.11.59.67.93,1.15,1.26.47.32,1.42.25,1.51-.5l.35-3.01c-.6-1.1-1.26-2-1.11-3.38l-.12-1.42c-.06-.72-.5-1.24-1.23-1.18l-.07,2.77.08,3.01-1.13-.46.56,2.9Z"/>
      <path class="cls-1" d="M66,96.06c-.51.16-.2.6.19.34.58-.18.17-.64-.19-.34Z"/>
      <path class="cls-1" d="M77.81,107.51l.87-.59c-.04-.11-.08-.27-.08-.33,0-.32-.32-.84-.77-.8l-.51,1.64c-.03.1.02.41.13.41.12,0,.27-.29.35-.35Z"/>
      <path class="cls-1" d="M81.2,91.16c.09.35.38,1.36.94.96.66-.51.26-1.87,0-2.52-1.22-2.98-.68-4.33-2.26-3.47l1.33,5.03Z"/>
      <path class="cls-1" d="M80.7,65.72c.05-.07.1-.13.26-.07.31-.16.19-.6-.22-.48-.05.2-.14.25-.24.33-.16.13.06.41.2.22Z"/>
      <path class="cls-1" d="M77.39,99.75c.84-.46.84-1.35,1.01-2.08.34-1.5.25-3,.13-4.58-.05-.7.08-1.26-.46-1.86.66.23,1.28.04,1.35-.43.08-.56-.71-1.05-.84-1.43l-.29-3.89c-.02-.32-.03-.61-.13-.91.02-.14.11-.23.23-.25l.99-.1c-.21-.41-.4-.54-.58-.72-.3-.3-.75-.64-.96-1-.74.18-1.08.93-.81,1.6.19.47.34.9.36,1.33l.25,5.31c0,.19.28.28.35.36.07.07-.36.27-.36.41l.17,5.96c-1.86,1.55-.59-1.92-1.33-5.62-.1-.52-.63-.92-1.29-1.05.61,1.85.2,3.55.2,5.46,0,1.24,1.32,2.52,2.02,3.48Z"/>
      <path class="cls-1" d="M12.83,89.78c-.1-.12-.47.33-.38.56l1.15,2.87,1.24-1.63c-1.01-.41-1.41-1.1-2.01-1.79Z"/>
      <path class="cls-1" d="M25.59,98.07c-.87-2.28-.95-4.66-1.42-6.97-.27-1.34-.78-2.53-.84-3.89,0-.08-.26-.22-.3-.27-.07-.07-.3-.06-.4.14l-1.71,3.6c-.41-.19-1.21-.44-1.47-.17-.26,1.09-.66,1.97-1.35,2.89-.3.41.02,1.31-.74,1.63-.21-.22-.09-.73-.13-.98-.05-.25-.72-.33-.79-.61l-.55-2.17c-.07-.27-.25-.23-.36-.19-.5.16-.57,1.17-.99,2.03-.42.89-.3,1.54.4,2.25l1.22,1.89c.95,1.47,2.23,2.65,2.69,4.38l1.46,5.44c.41,1.52,1.07,2.79,1.19,4.5.88-1.34.79-2.7.91-4.12l.17-2.09c-.2.06-.42-.03-.52-.26-.06-.13-.27-.25-.37-.15l-.43.42c-.19-.35-.07-.74-.09-1.09-.02-.27-.98-.83-.83-1.49.03-.14.19-.26.35-.34.09,0,.3.13.4.06.12.31.09.65.11,1.01l.4.07c.17-.06.18-.23.19-.35l.29.06c.57-.3.54-.97.6-1.68.05-.6.26-1.14.2-1.67l-.24-2.08c-.15-1.28-.42-2.5.05-3.82l1.02,2.8c.69,1.88,1.8,3.53,2.02,5.58,1.25-.48.52-2.7-.11-4.37ZM22.2,101.94c-.16.07-.42.1-.46-.02-.05-.16,0-.86.22-1.21.05-.09.33,0,.41-.01.28.44-.17.89-.16,1.24ZM22.39,93.82c-.4-.18-.24-.69-.12-.9.12-.21.54-.65.83-.22.26.39-.39,1.27-.71,1.12Z"/>
      <path class="cls-1" d="M22.04,124.57c.31.22.61.28.84.21.14-.04.35-.19.36-.45l.29-6.21.27-4.94c-.67.64-.81,1.43-.86,2.14-.32,5.28-3.06,7.68-.91,9.25Z"/>
      <path class="cls-1" d="M11.25,110.14c.12-1.17,1.62-1.4,1.07-2.02-.07-.08-.17-.28-.33-.14l-.41.36c-.08-.74-.26-1.21-.84-1.54-.38.44-.43,1.19-1.13,1.24.72-.93,1.32-2.06.71-3.13-.31-.55-1.26-.65-2-.86l.35,4.02c.44,2.18,1.6,4.06,3.42,5.3,1.16-1.5,1.74-3.21,1.62-5.1-1,.71-1.42,1.69-2.47,1.86Z"/>
      <path class="cls-1" d="M26.22,126.65l-.52.11c-.29.06-.36.32-.09.48.13.08.15.19.49.13.28-.04.52-.14.45-.43-.03-.13-.21-.32-.32-.3Z"/>
      <path class="cls-1" d="M17.46,92.12c-.22.13-.21.37-.16.55.08.25.35.21.43.07.13-.22.25-.32.19-.55-.04-.15-.29-.18-.47-.07Z"/>
      <path class="cls-1" d="M35.71,106.56c.02.09-.28,1.39.03.8.05-.09.23-.16.18-.32l.32.02c.11,0,.26,0,.32-.11-.02.03-.2-1.06-.53-.93-.19.08-.37.35-.32.55Z"/>
      <path class="cls-1" d="M72.9,106.92c-.68-.35-.97.3-1.31.39-1.76-.2-1.24,1.65-2.35,1.61-.59-1.57.75-2.72,1.63-3.61.76-.76.09-2.41-.83-2.59.83,2.03-.76,2.27-1.47,3.45-.12.19-.35.37-.51.39-.52.07-.55-.88-1.02-1.19-.26-.17-.76-.02-.8.32-.2,1.47,2.22,1.82.9,2.59l-1.46.85c-.54.31-.99-1.44-1.6-1.58-.16-.03-.2.27-.41.38-.94.5-2.2-.24-2.42-1.26.07-.81-.26-1.38-.95-1.72l-.66-2.68c.03-.23-.1-.4-.15-.52-.04-.1.32-.25.31-.37l-.26-3.48c-.05-.6.58-1.16,1.16-1.3.77,2.06.07,4.56.96,4.43.15-.02.38-.33.74-.18-.11.28,0,.99.33.96.65-.65,1.02-1.6,1.37-2.44.65.19.84.83,1.3,1.54,1.13-.84,1.57-2.39,1.9-3.74-.02-.19-.3-.39-.41-.51l-1.85,2.14c-.31-.95.08-1.74.45-2.57l1.66-3.71c-.14-.22-.5-.27-.62-.36-.64-.48.77-2.94.15-4.39-.38-.89-1.75-1.01-2.62-.87.17.23.52.44.5.78l-.26,4c-.39-.02-.54-.12-.91-.31-.43.4-.66.83-1.33,1.21-.03-.78.36-1.43.78-2.18.58-1.02.89-2.58-.24-3.38-.49-.35-1.92.18-2.15.73l-.88,4.42c-1.15-1.49.13-4.84-1.41-4.82-.7,0-1.13.23-1.31,1.1-.4-.36-.51-.57-1.01-.62-.2,1.38-.23,2.68.15,3.97-.96.06-1.39-.6-1.28-1.38l.42-2.97c-.88,0-1.19.81-1.65,1.3-.51.54-.71.86-.78,1.41-.14,1.21-.87,2.46-1.06,3.86-.14,1.02-.54,1.98-1.19,2.9l1.03,1.45c-.68,1.34-1.35,2.71-2.58,3.64.25-1.76,1.97-3.69.9-3.66-.74.02-.91,1.73-1.77,2.68-.71.79-1.04,1.72-1.91,2.36l1.84-3.84c.38-.78.61-1.4,1.66-1.52-.06-1.2-.55-2.21-1.3-2.19-.28,0-.61.43-.58.79l.12,1.99c-.35-1.21-.6-2.04-1.58-2.7-.05-.62-.11-1.1-.31-1.63l-1.94,3.85,1.29-1.46c.25-.28.74-.52,1.12-.16-.58.83-.76,1.66-.47,2.68.37,1.3-1.83,3.14-1.73,4.99.02.44-.33.81-.5,1.27.18.17.52.35.44.64-.06.23-.15.52-.34.66-.28.22-.66.12-.87-.32-.54.25-.83.57-1.32,1.08-.3-1.41.17-2.56,1.09-3.63.32-.38.36-1.2,1.16-1.17-.54.69-.99,1.44-.52,2.15-.04-1.09.84-2.02.97-2.71-.12-.85-.15-1.59.78-2.2-.28-.4-.62-1.16-1.08-1.31-.86-.28-1.49.5-2.11.89-1.03.65-1.7,1.52-1.91,2.7-.29,1.61-1.02,3-1.86,4.37-.59.98-1.09,2.07-2.26,2.56-.36.03-1.12-.28-1.5-.03-.33.22-.57.05-.47-.45l-2.47,2.36-.16-.13,2.15-2.77,2.05-2.92-.29-.08c-1.15,1.75-2.34,3.54-4.36,4.72-.33-.49.19-.97.38-1.37.58-1.21,1.31-1.93,2.34-2.76,1.85-1.49,2.18-3.93,4.03-3.28.13.04.07.55-.02.58-.1.03.36.19.34.07-.12-1.09.61-1.84,1.61-2.19.1-.07.13-.48.08-.59-.08-.16-.46-.18-.64-.09-.17.08-.29.28-.41.66-.76-.78,1.25-2,1.3-3.38l.13-3.78c-.89.01-1.62.7-1.66,1.46l-.3,5.26c0,.17.23.55-.1.68-.82.31-1.08-2.31-.74-4.45.06-.38.04-.83-.14-1.14-.92.5-.93,1.33-1.23,2.09-.49,1.27-.71,2.77.46,3.91-.42.79-1.27,1.51-2.15,1.47-.05-.27.07-.38.12-.44.11-.14.04-.51-.26-.52-.4.94-.2,1.87-.07,3.06-.9-.48-1.56-.54-2.29-.11-.25-.23-.44-.51-.43-.85l.15-5c.02-.72-.95-1.28-1.71-1.47l-.45,1.97c.46-.24.49-.68,1.13-.66-1.69,3.25.12,5.91-2.79,8.39-.29-.28-.09-.54-.02-.61.09-.09-.13-.44-.32-.32-1.29.78-.03,2.31-.4,3.57-1.03,3.51-1.36,7.1-1.2,10.82.57.34,1.39-.71,1.11-1.12-.55-.82-.39-1.87.16-2.31l.32-1.03c.07-.23.78-.38,1.19-.1l1.49-2.15-.11.89c.89-.34.98-1.26,1.55-1.95.09.76-.39,1.49-.16,2.04.31.02.76.12.83.43.17.73-1.52.62-1.76.89-.77.87-.97,3.45-.72,5.23l1.38-4.21c0,1.14-.36,2.1.37,3.3l3.52-2.3c.43-.28.5-.94,1.27-.55.06-.49.15-.68.07-1.02-.93.51-1.76,1.17-2.88,1.06-.32-.03-.44-.54-.42-.75.08-.97,1.76-.7,2.24-1.65.28-.55.08-1.36.75-1.91.25.5.25,1.03.3,1.48,1.3.32,2.32-.1,2.96-1.31.7,1.43,2.07.3,3.69.86-1.13,1.04-2.66,1.08-2.35,1.87.22.56,2.32-.93,4.62-.43.21-1.7.62-3.16,1.6-4.59l-.46,4.3c1.95-1.48,2.36-5.24,1.33-5.11-.25.03-.57.19-.89.7-.63-.88-1.29-1.64-2.22-2.4,1.21-.53,2.43-.41,3.61.18.3-.53.61-.86,1.2-.97l1.09-.89c.71-.12.68-.47,1.03-.84,1.03-1.07,1.85-2.05,2.45-3.45.17-.39.53-1.19,1.06-1.05.44.11.43.94.28,1.33.7-.46,1-1.14,1.95-1.44-.46,1.7-1.45,2.95-3.03,3.92.6.63.72,1.02.53,1.66-.16.53-.42,1.16-1.16,1.29-.65.11-1.16.52-1.72.73-.92.35-1.53.97-1.69,2-.22,1.47-.72,2.84-.54,4.44,1.01.27,2.74.14,3.43-.77l.82-2.79,1.32-.96c.39-.28,1.02.06.92.5-.15.04-.52-.1-.68.08-.13.14-.25.4-.23.8.01.3.36.27.47.08l.27-.46c.43-.74.91-1.22.97-2.24l.75.77c.2-.48-.2-.62-.19-.86l1.37.39c.14-.17.27-.66.59-.66.12.51.52.9,1.08.71.02.45.27.54.45.63.14.04.27-.04.39-.07.01.11-.12.27,0,.44l-.43.67c.31-.3.68-.56,1.19-.48-.27.68-.71,1.13-.79,1.91.77-.71,1.27-1.56,2.28-1.95-.45.86-1.11,1.37-1.28,2.36l2.04,1.42c.54-.28,1.53-.35,2.02-.76.54-.44.84-.91,1.51-1.23.75-.36.86-1.52,1.33-2.09.21,0,.63.03.75-.06.12-.09.04-.41.12-.66.26-.7,1.21-1.1,1.56-1.67.46-.73.58-1.52,1.42-2ZM63.57,92.16c.52.35.98.55,1.25.99.22.36-.31.89-.33,1.19.27,1.29.08,2.67-.73,3.7l-.31.4c-.14.18-.69.08-.58-.27l.35-1.14c-.39.27-.96.22-1.08-.19-.38-1.34,1.4-2.68-.11-3.73l1.54-.94ZM26.75,115.67c-.32-.55-.29-1.19.37-1.64.07.66-.07,1.09-.37,1.64ZM28.74,110.47c-.15-.41.05-.63.15-.85.09-.21-.51-.28-.59-.51-.49-1.48.25-3.03,1.67-3.87.1.9-.72,1.29-.82,2.24.9-.57,1.33-1.21,2.27-.89-.66,1.55-1.4,3-2.68,3.88ZM34.15,114.28c-.05.22.12,1.1-.59,1.05-.36-.14-.07-1.08.25-1.39.19-.18.28-.32.56-.21.15.06.13.38-.22.55ZM41.9,100.8c.29-.02.33.3.31.62-.02.35-.04.69-.34.82-.18.08-.59-.15-.7-.31-.13-.17.52-1.12.73-1.13ZM40.37,105.78l.84-2.4c.1-.3.41-.48.62-.49.15,1.28-.18,2.37-1.47,2.9ZM44.88,112.56c.21.1,0,1.91-.66,2.56-.44-1.07.36-2.7.66-2.56ZM44.96,104.38c-.31.07-.29-.23-.2-.3.06-.05.18-.07.24-.19.09-.17.22-.12.34-.06.08.04.04.07.05.14.03.16-.07.32-.43.41ZM55.5,97.03c.13,0,.23.1.23.23s-.1.23-.23.23-.23-.1-.23-.23.1-.23.23-.23ZM53.16,90.03c.53.3.54.71.58,1.14.03.35-.29.87-1.22.67l.64-1.81ZM52.36,94.52c.52-.68,1.34-1.26,2.32-.86l-2.36,3.58c-.57-1.07-.08-1.79.04-2.72ZM53.26,98.32c-.24,1.06-1.04,1.63-1.83,2.17.44-.95.86-1.75,1.83-2.17ZM48.7,101.83c.12.98-.54,1.66-1.65,2.01.18-.82.53-1.8,1.65-2.01ZM46.13,107.39c0-.32.26-.58.61-.76.05.36-.13.66-.61.76ZM46.36,106.17c.36-.31,1.1-.66,1.11-1.09,0-1,.92-1.29,1.63-1.75l1.74-1.99.25-.26c.12-.12.36-.03.42.07.09.17.05.39-.1.55l-1.34,1.41-2.62,2.55c-.12.12-.05.57-.36.6-.16.02-.39.32-.73-.1ZM52.92,102.62l-2.56,2.86c.25.47.27.86-.01,1.48-1.35-1.32-1.69.22-3.18.74.23-.89.89-1.3,1.47-1.86l3.79-3.7c.1-.09.37-.1.46-.06.13.05.2.37.03.56ZM53.87,101.34c.06.48-.2.51-.34.52-.24.02-.35-.13-.36-.33-.02-.29.31-.41.6-.34.19-.3.4.07.1.15ZM54.25,100.62c-.13,0-.23-.1-.23-.23s.1-.23.23-.23.23.1.23.23-.1.23-.23.23ZM54.45,99.88c-.32-.3.45-1.19.83-1.04.35.15.38.49-.02.63-.1.18-.53.67-.81.41ZM55.71,101.32c-.08.13-.26.16-.42.12-.02-.1-.04-.34.01-.5.09.06.22.05.3.08.1.03.18.19.11.31ZM55.83,98.91c-.06.04-.26-.14-.24-.3.03-.21.29-.13.32-.01.02.08.05.22-.08.31ZM51.02,114.54c-.82.98-.56-1.81.84-4.03.19,1.1-.62,3.77-.84,4.03ZM53.66,110.91c-.03.24-.02.7-.51.72-.23-.12-.27-1.14.03-1.23.45-.13.51.23.48.51ZM56.55,89.07l.33-.14c.13-.09.46.16.5.38l-.86.04c.01-.07.05-.21.03-.29ZM57.12,98.71c.11-.19.26-.33.38-.4.1-.05.4-.04.5.09.06.08.06.32-.2.34v.2s.02.51.02.51c-.29.19-.45.44-.49.73.29.07.42.24.47.38.08.26-.03.53-.32.5-.32-.04-.3-.17-.27-.46-.31-.55-.37-1.36-.09-1.87ZM56.6,105.96c-.21-.06-.35-.51-.26-.66.08-.14.26-.34.46-.49l1.59-1.14c-.06,1.12-.97,1.79-1.79,2.28ZM58.37,106.2c-.14.1-.33.02-.36-.08-.03-.08-.03-.22,0-.39.08.06.24.03.31.07.14.08.15.27.06.39ZM58.21,95.41c-.13,0-.23-.1-.23-.23s.1-.23.23-.23.23.1.23.23-.1.23-.23.23ZM56.67,93.56c.44-.65,1.04-.93,1.68-1.05.15.11.32.29.44.46-.6.62-1.3.86-2.12.59ZM63.48,113.7c.03-.71.65-1.25,1.29-1.39.04.73-.43,1.33-1.29,1.39ZM67.51,109.98l-1.07-.37c.18-.41.54-.31.71-.17.14.11.45.3.36.55Z"/>
      <path class="cls-1" d="M49.18,110.42c-.8.55-.23,2.82-1.23,4.69-.12.23-.49.45-.26.73.17.21.45.39.65.34.35-.09.25-.55.32-.8l1.16-4.76c.05-.22-.48-.32-.63-.21Z"/>
      <path class="cls-1" d="M28,122.28c.6-.24.35-.79.42-1.36l.4-3.51c-.57.38-.59,1.06-.63,1.71l-.19,3.17Z"/>
      <path class="cls-1" d="M37.22,116.68c-.19.18-.06.74.15.88.16.12.56.02.74-.11.18-.13.28-.49.22-1.08-.3.05-.76,0-1.1.32Z"/>
      <path class="cls-1" d="M27.46,117.79c-.08.28.14.5.25.49.11-.01.19-.13.22-.2.05-.12.07-.35-.03-.41-.11-.06-.38-.08-.44.12Z"/>
      <path class="cls-1" d="M96.42,33.63c-.34,0-.62.8-.34,1.14l2.39.2c-.46-.7-1.25-1.07-2.05-1.34Z"/>
      <path class="cls-1" d="M71.33,52.62l-.66-.49c-.51-.65-.72-1.5-1.74-1.76.64,1.51,1.27,2.75,2.4,2.25Z"/>
      <path class="cls-1" d="M68.43,85.01l-.33-1.08c-.07,0-.12-.05-.1-.15.08-.47-.3-.81-.74-.82-.03.3.12.42.25.63l.23.38c.07.33.05.98.68,1.04Z"/>
      <path class="cls-1" d="M65.86,108.04c.27.21.74-.1.57-.28-.22-.23-.62-.26-.74-.26-.26.26.03.42.17.54Z"/>
      <path class="cls-1" d="M67.27,104.55c-.04.16-.1.54.24.53.23,0,.42-.73.22-.83-.28-.13-.42.14-.46.3Z"/>
      <path class="cls-1" d="M66.57,55.94c1,.47,1.5-1.71.67-3.52-.25-.54-.6-.9-1.39-.73.23-.26.27-.5.21-.71-.03-.11-.28-.17-.37.02-.79,1.57.84,1.94,1.37,3.96-.58-.07-.75.87-.5.99Z"/>
      <path class="cls-1" d="M63,70.97c-.56.6-1.29.96-2.06,1.11.13-.88.89-.98,1.33-1.68-.99.08-1.65.82-1.92,1.71.99.51,1.87-.12,2.6-.71.48.23.58-.3.05-.42Z"/>
      <path class="cls-1" d="M63.6,34.28c.11-.13.21-.23.25-.3.26-.08.25-.28.09-.44-.17-.17-.32-.45-.55-.31.14.44-.16.63-.18.81-.01.14.28.39.4.25Z"/>
      <path class="cls-1" d="M68.21,103.92c.58-.05.7-.38.77-.56.09-.22.05-.47-.22-.68-.42.23-.71.69-.55,1.23Z"/>
      <path class="cls-1" d="M58.36,67.71c.23.37.53.99.45,1.45.66.34,1.56.31,2.33.22l-.33-2.26c-.09-.62-.52.86-.53.86-.1.07-.51.14-.67.12-.43-.57-.12-1.23-.07-1.98-.36.6-.72,1.1-1.19,1.59Z"/>
      <path class="cls-1" d="M64.38,49.92c.28-.22.83-.46.82-.85,0-.26-.38-.79-.67-.71-.58.7-1.11,1.58-1.36,2.51l1.21-.95Z"/>
      <path class="cls-1" d="M60.61,73.72c.19.08.32-.07.42-.19.21-.25.05-.4-.11-.54-.13-.12-.45-.21-.58.04-.18.36.1.61.27.68Z"/>
      <path class="cls-1" d="M80.95,33.08l1.83-1.7c-.2-.26-.6-.8-1.03-.79-.7.01-.91.87-1.31,1.21-.39.34-.73.54-.49.95.15.24.65.65.99.34Z"/>
      <path class="cls-1" d="M82.31,33.15c-.08.28.18.38.39.39.98.05,2.21-1.74,1.66-2.1-.18-.11-1.58.15-2.04,1.7Z"/>
      <path class="cls-1" d="M81.54,29.28c.26-.19.23-.37.1-.54-.16-.21-.48-.29-.64-.13-.29.29-.26.58-.09.69.28.18.5.09.63-.01Z"/>
      <path class="cls-1" d="M70.33,89.75c-.08-.92-.54-1.89-1.47-2.05-1.24-.21-.26,2.16-1.39,4.42,1.12.79,2.07,2.08,2.06,3.37l-1.24,2.67c-.84,1.81-1.44,3.66-2.64,5.12-.51-.2-.91-.27-1.06-.67-.17-.45.17-.88.21-1.63,0-.22-.32-.55-.51-.32-.35.42-.44,1.19-1.18,1.3-.38.17-.01,1.4.52,1.68.26-.06,1.16-.63,1.29-.15l.52,1.82c.59-.53.57-1.25.9-1.8,1.62-2.65,1.74-4.63,3.89-6.5,2.31-2.01.39-3.94.09-7.27ZM69.78,93.71c-.06.05-.26-.14-.23-.3.03-.2.28-.14.32,0,.02.08.06.2-.09.31Z"/>
      <path class="cls-1" d="M88.16,35.52c.99.27,1.81-1.31,3.5-2.21-1.37-.36-2.42-.67-3.55-1.19-.07.33.03.56.13.72.13.23.55.05.74,0,.4-.12.74.36.61.5-.52.58-1.86.44-2.35,1.34,0,.36.6.75.92.84Z"/>
      <path class="cls-1" d="M84.3,29.16c-.43-.06-1.06-.21-1.41.29l2.32.67c-.42-.53-.61-.92-.91-.96Z"/>
      <path class="cls-1" d="M63.04,35.85c.2,0,.65-.33.5-.46-.39-.34-.65-.33-.93-.37-.28.34.09.84.43.83Z"/>
      <path class="cls-1" d="M74.05,81.99c.37-.68.52-1.42.5-2.26-.71.36-1.35,1.5-.5,2.26Z"/>
      <path class="cls-1" d="M70.62,98.51c-.07.05-.22.11-.26.27l-.49,2c-.1.07-.39.21-.34.38.02.06-.03.16.09.16.15,0,.29,0,.44.08l.35.18c.09.05.22.04.27-.04.03-.05-.24-.26-.23-.33l.49-2.51c.04-.18-.24-.26-.33-.19Z"/>
      <path class="cls-1" d="M73.35,79.2c-.13-.38-.91-.09-1.29.04.19.55.38,1.27.9,1.85.26-.69.57-1.37.38-1.89Z"/>
      <path class="cls-1" d="M72.88,55.53c.44.29,1.36-.11,1.48-.52.05-.16-.19-.54-.42-.46-.33.12.13.19.03.66-.62-.69-1.27-1.19-2.28-1.48.25.72.54,1.37,1.19,1.8Z"/>
      <path class="cls-1" d="M74.55,89.32c-.1-2.49-.77-6.96-1.65-6.65-.14.05-.4.45-.38.67l.51,5.51c.23.47,1.1.84,1.52.48Z"/>
      <path class="cls-1" d="M14.77,32.3l.43-.35c.28-.24-.22-.53-.32-.1-.3-.07-.45.12-.42.33.01.09.23.18.3.12Z"/>
      <path class="cls-1" d="M91.95,29.2c.35.89.48,1.39,1.14,2.09-.85-.23-1.27.3-1.33.83-.04.37.48.9.83.95.1-.84.23-1.3.6-1.84l1.01.21c.45-.62.91-1.01,1.62-1.44-.62-.72-1.21.16-2.19.39-.21-.38-.16-.92.19-1.09l.92-.45c-1.17-.65-2.07.73-3.08-.2-1.06.2-2.02,1.85-1.23,2.92.89-.5,1.04-1.42,1.51-2.37Z"/>
      <path class="cls-1" d="M95.85,32.56l-.72-.5c-.2-.14-.38-.29-.7-.37.15.66.77,1.28,1.42.87Z"/>
      <path class="cls-1" d="M94.08,32.48c-.12.42.02.66.28,1.06.21-.35.17-.82-.28-1.06Z"/>
      <path class="cls-1" d="M80.38,109.32c.12-.07.43-1.15.03-1.44-.45-.34-1.76.79-1.98,1.22l-.42.83c-.39.77-.66,1.65-.44,2.52.84-.18,1.1-.92,1.3-1.6l.33-1.08c.11-.35.4-.48.7-.44.13.02.37.06.48,0Z"/>
      <path class="cls-1" d="M60.99,30.95l.76.4c.17.09.31.41.04.57-.25.16-.59.28-.68.5-.1.23.35.68.29.9-.11.41-.28.67.05,1.06.14.17.51.47.8.23,1.45-1.17.23-2.61.59-4.83-.85.16-1.37.65-1.84,1.15Z"/>
      <path class="cls-1" d="M96.26,36.83c.38.13.49-.09.52-.27.02-.12.04-.25-.15-.33-.11-.04-.7.25-.7.31,0,.08.12.21.33.29Z"/>
      <path class="cls-1" d="M6.99,66.79c-.83.36-1.17,1.65-.99,2.57.51.03.64-.75,1.09-1.02,1.02-.6,2.12-1.07,2.34-2.3-.92.04-1.36,1.05-2.44.74Z"/>
      <path class="cls-1" d="M2.39,47.03l1.21-3.62c.1-.05.21-.12.22-.11l-.63,3.41c.88-.49,1.02-1.35,1.73-2.05.44.4.32,1.28.06,1.56-.56-.11-.83.13-.95.53-.09.3.15.81.66.65.18-.06.22-.54.73-.56-.46.78.27,1.45.19,1.92-.07.44-.17.99.1,1.44-.6.58-.45,1.22-.03,1.85-.13.5-.41,1.31-.39,1.92-.28.17-.83.28-1.03.88-.3-.16-.27-.34-.19-.58.11-.37,1.28-.22,1.19-2.32-.46-.11-.81.09-1.21.34-.21-.85.39-1.56.77-2.16.07-.26-.69-.69-.87-.49-.57.62-.8,1.69-.77,2.48.05.17.68.1.71.26.04.26-.02.69-.19.92-.54.69-.6,1.5-.95,2.2-.59,1.17-.74,2.38-.65,3.72.57-.33.32-.92.38-1.25.56-.53.76-1.35,1.37-1.77-.24.98-.8,1.69-.79,2.77,1.12-.66,1.02-2.12,1.84-2.75l-1.05,3.5c0,.22.19.3.31.1.05-.25.5-.41.62-.25.44.56.34,1.68-.29,2.18.31.32.69.12.81-.18l.94-2.51c.48.73.2,1.48.28,2.37.36-.61.22-1.3.99-1.84,1,2.52-1.93,3.5-.78,5.37l.41.16c.97.38.45-2.97,2.01-3.81l.17,1.23c.69-1.88,1.22-3.23-.13-4.22-.09-.07.11-.47.19-.43l.46.24c-.02-.43-.06-.69.35-1.12-.52-.03-.57.33-.74.59-.17.25-.58.04-.69-.12-.3-.44.56-.96.95-2.21.07.05.28.29.42.23.13-.06.35-.28.36-.44,0-.14-.45-.19-.51-.37-.34-.93.11-1.92.08-2.85-.07-2.39,1.31-2.38,1.25-3.06-.04-.41-.3-1.08-.65-1.17-.77.66-.63,1.52-.77,2.32-.35,2-.85,3.82-2.26,5.25l1.38-4.47c.32-1.03.42-2.22.37-3.3-.03-.68.39-1.1.68-1.69.63-1.27,1.13-2.5,2.14-3.53,1.1-1.12,1.5-2.81,2.1-4.32.22-.56.67-.97.56-1.65l-.89.28.62-2.59c.06-.26-.17-.49-.38-.47-.44.03-.39.88-.9,1.59-.96-2.4,1.75-5.13.7-6.32-.83,1.49-1.05,3.16-1.36,4.84l-1.04,3.38c-.19.61.06,1.54-.91,1.82.24-.67.64-1.21.48-1.84-.09-.35-.26-.41-.47-.38-.64.08-.32,1.33-1,2.08-.56-1.35,1.47-3.11.77-4.97-.59.98-.57,1.98-.86,2.96-.3-.6-.23-.86-.09-1.48-.29.15-.39.42-.53.45-.14.03-.45-.47-.34-.61l1.37-1.77c.13,0,.27.23.5.34.41-1.21.84-2.19.97-3.43l-1.71,2.59c-.13-.67.23-1.34-.16-2.17-.17.79-.39,1.51-.61,2.32l-.61,2.24c-.34,1.22-.54,2.47-1.4,3.4.39-2.05,1.27-3.64,1.28-5.64-.48.03-.65.43-1.02.66.13-.66.14-1.2.54-1.83,0,.09.04.18.12.23.08.05.17.05.25,0,.07.15.15-.34.1-.47l1.57-2.47-1.37.69c-.82,1.14-1.4,2.5-1.57,3.9l-1.95,4.98c-.49,1.25-.91,2.4-1.32,3.62l-1.71,5.06c.29.07.38-.14.51-.2ZM4.9,57.6c.02-.06.02-.16.18-.17,0-.13,0-.28.04-.41l.75-2.46c-.04,3.82-1.35,4-.97,3.05ZM6.72,53.5c-.24,0-.21-.8.34-.82.23,0,.25.81-.34.82ZM9.63,40.97c-.09.97-.33,1.75-.87,2.6-.11-.9.01-1.86.87-2.6ZM8.82,45.51c-.12.69.23,1.34.29,1.96.1,1.01-.61,1.77-1.03,2.57-.25.48-.27,1.01-.98,1.17.25-.77.47-1.26.05-1.7-.55-.55.08-1.5.23-2.2.11-.52-.03-.92.23-1.37.17-.28.55-.55,1.2-.44ZM6.89,38.78c.08-.03.21.18.1.28-.06.05-.16.12-.2.21-.08.16-.21.07-.22-.02-.02-.22.09-.38.33-.47ZM6.16,48.16l1.29-3.6c.05.02.19.03.32.02l-1.38,3.85c-.06.16-.3.29-.38.29-.1.01-.24-.21-.09-.29.08-.04.19-.15.24-.28ZM5.68,40.74c.27.06.27.3.05.42-.21.66-.26,1.1-.86,1.34l.81-1.76Z"/>
      <path class="cls-1" d="M2.31,52.14c.69-1.18.66-2.27.89-3.47-.85.96-.98,2.26-.89,3.47Z"/>
      <path class="cls-1" d="M10.41,51.95c.18.28.72-.05.81-.29.07-.18.13-.67-.14-.77-.42-.16-1.03.49-.67,1.06Z"/>
      <path class="cls-1" d="M10.92,45.71c-.03.16.04.38.31.32.14-.03.34-.25.34-.41v-.42c.12.05.22-.06.19-.11-.04-.08-.22-.32-.3-.29-.17.07-.46.58-.53.91Z"/>
      <path class="cls-1" d="M97.44,32.49c.08-.07.07-.32,0-.42-.07-.11-.23-.2-.55-.3l1.6-.92c-.32-.48-.68-.6-1.03-.81l-2.12,1.68c1.11.16,1.9.94,2.09.77Z"/>
      <path class="cls-1" d="M59.38,23.96c-.15.04-.98,1.65-.61,2.12.41-.79.74-1.35,1.32-2.01-.16-.15-.45-.19-.7-.11Z"/>
      <path class="cls-1" d="M87.24,23.5c.71.46,1.01,1.04,1.88,1.37.38-.54-.9-1.25-1.88-1.37Z"/>
      <path class="cls-1" d="M61.82,27.73c.04-.2-.14-.25-.21-.3-.32.22-.75.42-.96,1.06.46-.11,1.02-.36,1.17-.76Z"/>
      <path class="cls-1" d="M61.39,29c.08-.02.13-.09.15-.16.06-.18-.06-.36-.21-.37-.01.1-.12.32-.19.39-.04.04.19.2.25.14Z"/>
      <path class="cls-1" d="M52.92,39.15c.31.09.59.15.76-.18-.38-.33-.68-.61-1.1-.52-.2.12.11.63.34.7Z"/>
      <path class="cls-1" d="M59.96,29.05s-.07-.43-.17-.49c-.09-.05-.27.19-.38.16-.5-.05-.31.28-.16.36.28.14.61.17.71-.03Z"/>
      <path class="cls-1" d="M15.63,34.78c.05-.06.18-.23.3-.15.03-.05.03-.15.01-.23-.03-.18-.06-.27.11-.45.15-.16-.14-.38-.34-.1-.19.27-.16.37-.24.64-.02.17.12.33.15.29Z"/>
      <path class="cls-1" d="M17.74,36.85c.2-.4-.15-.46-.31-.54-.24-.13-.73-.17-.71.29,0,.13.09.27.18.34.18.14.75.1.84-.09Z"/>
      <path class="cls-1" d="M1.37,50.82c.14-.49.18-.96.27-1.44l-.07-.33c0-.07-.1-.15-.24-.12-.14.43-.15.79-.23,1.23,0,.25,0,.6.28.65Z"/>
      <path class="cls-1" d="M15.09,38.35l-2.37,5.16,1.85.03c0,.51-.52,1.16.06,1.56.37-1.38.63-2.51,1.55-3.41.09-.08-.06-.48-.15-.48-.47-.02-.6.94-1.44,1.48l-.43-.18c-.17-.07-.23-.4-.13-.66l1.34-3.43.96-2.16-.31-.03-.92,2.12Z"/>
      <path class="cls-1" d="M15.35,40.26c.03.16.36.54.57.39.8-.56,1.06-1.59.79-2.58l-1.18,1.3c-.24.26-.23.66-.19.89Z"/>
      <path class="cls-1" d="M42.77,70.53l-1.25,2.31c2-.55.43,1.49,1.44,3.72.53-.89,1.03-1.5,1.33-2.38-.57-.15-.77.06-1.16.22l.07-2.97c0-.36-.03-.72-.43-.9Z"/>
      <path class="cls-1" d="M97.94,66.76l-3.27-.4c-1.11.11-2.1.35-3.23-.17-.54.77-1.57.98-2.21,1.73l-2.08,2.45c-.39.46-.76.37-1.28.21-1.14.78-2.07,3.04-1.07,3.82,1.12.87,2.16-.74,2.47-.59l.9.42c1.44-.13,2.65-.94,3.66-1.89.63.38,1.14.92,1.67,1.65-1.06,2.07-2.84,1.21-4.03,2.08,1.23,1.5,3.03,1.96,4.83,1.79.76-.07,1.55.23,2.31-.36.65-.5,2.53-4.42,1.19-4.79-.12.71-.03,1.64-.53,2.21-.76.85-1.89,1.62-3.12,1.94-.56.15-1.25-.67-1.11-.96,1.49-1.25,3.08-1.38,2.91-3.92l-1.78,1.72c-.68-.45-1.45-1.33-1.15-2.26.08-.25.86.14.93.45l.68-1.65c.71.03,1.24.16,1.87.38.04-.4-.09-.51-.24-.92.36.22,1.06.14,1.07-.1,0-.48-.66-.75-.92-.98.76-.43,1.4.07,2.02.11l1.86-1.27c-.47-1.03-1.41-.84-2.35-.7ZM85.17,73.35c-.36-.02-.27-.46-.15-.46,1.13,0,1.9-.48,2.54-1.18.33-.02.62.12.65.27.06.37-1.92,1.41-3.04,1.36ZM89.49,71.72c-.12.11-.29.05-.48-.16-.15-.16-.19-.49.09-.71.26-.21.52-.03.57.25.03.15.02.44-.18.62ZM90.07,70.84c-.13,0-.23-.1-.23-.23s.1-.23.23-.23.23.1.23.23-.1.23-.23.23ZM91.27,70.81c-.13.06-.36.01-.36-.1v-.32c0-.24.04-.46.32-.42.21.03.32.05.54.34.29-.4.78-.48,1.06-.24l-1.55.74ZM96.14,69.01c-1.78.08-2.85,1.1-3.45.85-.1-.04-.15-.2-.03-.27l.36-.23c.7-.45,1.37-.51,1.9-1.21.2-.26.66-.31.88-.25.3.08.6.81.34,1.11Z"/>
      <path class="cls-1" d="M102.08,73.61c-.53.29-.99,1.48-.69,2.14.12.35.52.28.39-.2.87-.31.96-1.62.3-1.94Z"/>
      <path class="cls-1" d="M114.02,66.05c.13,0,.23-.1.23-.23s-.1-.23-.23-.23-.23.1-.23.23.1.23.23.23Z"/>
      <path class="cls-1" d="M101.73,47.24c.13-.48-.72-1.2-1.16-.91-.28.19-.7.37-1,.53l.32,7.04,1.04,1.31c-1.21,2.5-2.7,4.87-4.76,6.66-.22.17-.65.25-.92.32l2.54-3.22c.5-.63.56-1.24.69-1.91-.06-.17-.2-.22-.27-.3-.18-.2-.35.1-.46.08-.45-.12-.53-.92-.39-1.49-1.71-.98-1.35,2.29-3.87,2.08l2.34-2.42c-1.08-.19-1.5.82-2.18,1.23-.52.31-.64.86-.57,1.23.02.08-.25.36.03.46.15.06.35.05.5,0,.1-.04.18.02.19.1.02.14-.02.19-.19.2-2.21.22-3.78,2.19-3.29,4.53-1.99-.21-3.94-.29-5.7-1.07l-2.88-1.3c-1.82-.82-3.63-1.88-5.17-3.11-.94-.75-1.48-1.44-2.8-.82l.03,1.72.86-.52c.2-.12.63.13.57.37-.15.57-.61.89-1.03,1.35-.25.27.38,1.16.85.95.25-.11.42-.72.98-.63l.39,1.58c.39-.08.84-.04.97.08.48.42-.85,1.1-.48,1.68.15.24.79.24.88.45.12.27.21.66.41.76.64.35.71-1.23,1.24-1,1.3.57,2.61.82,4,.65-.36-.61-1.02-.8-1.52-1.2.2-.28.5-.5.53-.89,2.21,1.11,4.47,1.71,7.02,1.72l2.35.53c.92.21,1.81-.29,2.64-.74.87-.47,1.65-.59,2.58-.82.88-.22,1.9-1,2.67-1.48l-.31-.56s.33-.2.63-.22c-.11-.49-.2-1.28.07-1.65l.51-.08c.12-.02.15-.28.27-.47l1.47-2.43c.42-1.66.18-3.33.27-5,.12-2.15-2.43-2.37-.87-3.38ZM81.66,62.43l-2.6-1.6c.4-.94,2.51.19,2.68.51.17.33.18.69-.08,1.08ZM93.44,60.43c0-.11.09-.21.21-.21s.2.09.2.21-.09.21-.2.21-.21-.09-.21-.21ZM93.82,62.72c-.13,0-.23-.1-.23-.23s.1-.23.23-.23.23.1.23.23-.1.23-.23.23Z"/>
      <path class="cls-1" d="M94.97,64.74c-.3.01-.64,0-.78.53l1.66.07c-.2-.53-.53-.62-.88-.6Z"/>
      <path class="cls-1" d="M81.32,110.19c-.85.47-1.32,1.42-1.36,2.44l1.35-.85c.32-.2.59-.56.63-.87.02-.22-.36-.73-.61-.72Z"/>
      <path class="cls-1" d="M103.99,112.55c.79-1.42.62-2.82-.02-4.15-.61,1.36-.61,2.81.02,4.15Z"/>
      <path class="cls-1" d="M83.1,93.48c-.28,1.6-.57,3.16.31,3.34-.02-1.2-.04-2.25-.31-3.34Z"/>
      <path class="cls-1" d="M88.69,105.06c-.19-.03-.27.1-.43.16l-2,.7c-.77.27-1.52.54-1.55,1.62,1.53-1.15,4.5-1.27,4.32-2.23-.02-.11-.17-.22-.33-.25Z"/>
      <path class="cls-1" d="M83.48,106.08c-.15.56.04,1.2-.34,1.62-1.35-.92-.87-2.52-1.68-2.59-.15-.01-.5.1-.45.28,2.36,1.99.14,3.41.72,3.87.88.7,2.11-2.46,2.17-2.47.15-.03.31.11.44.17.01-.65.04-.81-.19-1-.14-.11-.6-.15-.67.12Z"/>
      <path class="cls-1" d="M94.76,116.34c-.23.6-.02,1.03,0,1.61l-2.86.12c.17.93.88,1.06,1.65,1.25l1.93.46c.23.05.45-.08.51-.19.04-.07.07-.26.03-.38l-1.27-2.86Z"/>
      <path class="cls-1" d="M87.71,101.09c.39.97,2.33.03,3.12-.8.99-1.06,1.59-2.52,1.63-4.03-1.55,1.91-2.83,3.58-4.75,4.84Z"/>
    </g>
  </g>
</svg>